
<svg xmlns="http://www.w3.org/2000/svg" version="1.1" xmlns:xlink="http://www.w3.org/1999/xlink" preserveAspectRatio="none" x="0px" y="0px" width="1080px" height="1920px" viewBox="0 0 1080 1920">
<defs>
<linearGradient id="Gradient_1" gradientUnits="userSpaceOnUse" x1="683.0749999999999" y1="2216.525" x2="469.025" y2="-531.3250000000002" spreadMethod="pad">
<stop  offset="0%" stop-color="#7805FF"/>

<stop  offset="77.25490196078431%" stop-color="#009EFF"/>
</linearGradient>

<g id="Layer2_0_FILL">
<path fill="url(#Gradient_1)" stroke="none" d="
M -44.8 -379.7
Q -70.4 -367.2 -79.55 -342.9 -85.95 -326.3 -84.4 -302.6 -83.5 -288.45 -78.15 -260.35 -52.05 -123.45 -41.75 51.05 -35.55 157.1 -32.3 365.65 -29.75 531.9 -29.85 615.6 -29.9 754.5 -35.35 865.05 -39.2 930.85 -40.9 963.65 -44 1021.7 -44.45 1062.35 -45 1115.6 -41.8 1177.3 -39.2 1227 -33.75 1291.85 -13.5 1528.35 26.85 1762.1 35.85 1814.5 38.35 1837.75 40.05 1853.65 40.5 1868.15 32.5 1873.75 26.45 1883.3 19.65 1893.95 16.6 1907.55 13.65 1921.15 15.2 1934.85 16.55 1949.05 22.7 1960.7 26.5 1968 31.9 1974.1 31.9 1989.5 35.65 2002.45 40.05 2018 49.2 2027.2 38 2037.6 29.75 2052.9 21.55 2068.25 18.1 2084.95 14.45 2102.55 16.85 2118.3 19.45 2135.3 28.95 2147.9 40.3 2162.95 60.4 2169.55 73.95 2174 97.8 2175.65 651.8 2218.2 1203.25 2176.15 1222.35 2174.65 1232.55 2171.8 1248.35 2167.35 1258.2 2157.1 1273.45 2141.35 1276.45 2110.3 1278.6 2088.55 1274.6 2053.55 1266.35 1980.15 1249.5 1847.8 1231.1 1704 1223.85 1642.25 1214.05 1557.85 1206.35 1478.7 1184.15 1250.8 1170.7 983.5 1159.95 771.75 1152.75 487.45 1150.75 409.25 1150.7 365.25 1150.65 297.85 1154.4 243.6 1155.35 230.5 1163 146.8 1168.4 88.15 1169.05 49.9 1169.55 13.3 1166.6 -32.45 1164.85 -60.25 1159.85 -114.45 1150.1 -222.65 1143.6 -276.55 1132.8 -366.4 1117.85 -436.9 1112.35 -462.5 1106.65 -477.75 1098.6 -499.1 1086.45 -511.45 1073 -524.85 1051.9 -529.95 1038.3 -533.15 1013.3 -534.05
L 730.9 -542.95
Q 679.3 -544.5 652.85 -544.25 609.45 -543.7 575.15 -538.3 527 -531.1 460.7 -508.1 444.7 -502.6 404.45 -488.1 368.6 -474.85 348.1 -468.15 272.7 -442.9 177.45 -423.6 114.7 -410.8 4 -393.3 -27.25 -388.45 -44.8 -379.7
M 175.5 2043
L 174.05 2033.05
Q 191.9 2039.2 210.85 2046.1 193 2044.6 175.5 2043 Z"/>
</g>

<g id="Layer1_0_FILL">
<path fill="#00CC00" stroke="none" d="
M 158.9 1480.75
Q 157.8 1465.55 150.95 1450.7 140.35 1427.65 120.05 1414.65 99.75 1401.65 74.35 1401.65 49 1401.6 28.65 1414.6 8.35 1427.55 -2.3 1450.6 -3.25 1452.65 -4.1 1454.75 -5 1451.8 -6.05 1449.05 -11.3 1435.5 -21.45 1425.25 -22.2 1424.45 -23 1423.75 -32.95 1414.3 -45.2 1410.1 -58.9 1405.4 -73.4 1408 -88.25 1410.7 -98.65 1420.15 -107.7 1428.4 -113 1441.45 -117.6 1452.7 -119.1 1466.9 -120.1 1476.45 -120.05 1492.9 -120 1511.9 -120.45 1519 -121.7 1540.5 -129.65 1572 -131.85 1580.75 -136.5 1598.2 -140.6 1613.85 -142.8 1624.5 -147.95 1649.2 -150.55 1680.65 -151 1686.35 -151.45 1693.75 -152.55 1711 -153.65 1737.35
L -158.4 1852.2
Q -159.3 1873.95 -158.35 1885.4 -158.25 1886.75 -158.1 1888.05 -156.35 1904.7 -150.35 1916.95 -142.35 1933.25 -125.1 1946.15 -111.15 1956.55 -90.35 1965.25 -36.55 1987.65 39.85 1993.9 67.7 1996.2 107.5 1997.05 130.15 1997.55 175.2 1998.25 198.1 1998.8 243.85 2000.2 283.55 2000.95 312.4 1999.05 338.1 1997.3 379 1991.6 431.95 1984.2 445.5 1982.7 502 1976.45 598.35 1975.6 667.6 1975 674.95 1974.85 718.55 1974.1 751.45 1972 837.3458984375 1966.5080078125 921.15 1948.3 928.34609375 1956.24921875 938.15 1960.8 946.3 1964.55 956.6 1966.15 965.05 1967.45 975.9 1967.35 1001.5 1967.25 1023.35 1960.8 1024.35 1960.5 1035.25 1957.05 1042.45 1954.8 1047.3 1953.8 1053.45 1952.55 1069.75 1951.5 1084 1950.6 1091.9 1948.25 1109.1 1943.2 1120.6 1928 1128.275390625 1917.8552734375 1130.9 1906.45 1132.1291015625 1906.4919921875 1133.4 1906.5 1147.95 1906.6 1156 1906.3 1182.05 1905.3 1199.65 1898.65 1218.1 1891.75 1236.15 1875.9 1249.05 1864.55 1266.35 1844.1 1283.15 1824.25 1290.8 1809.3 1301.55 1788.5 1299.5 1769.7 1297.35 1749.7 1281.05 1735.25 1264.75 1720.8 1244.65 1721.15 1224.95 1721.5 1206.25 1735.75 1190.8 1747.6 1177.45 1767.75 1172.4 1775.35 1170.5 1777.75 1167.9 1781 1165.2 1783.25 1166.95 1777.5 1169 1770.2 1174.35 1751.8 1176.95 1742.55 1181.35 1726.6 1183.85 1714.65 1189.65 1686.95 1191.35 1651.6 1192.4 1630.45 1192.25 1587.95 1192.15 1563.55 1191.85 1551.35 1191.4 1531.05 1190.05 1514.85 1187.75 1485.85 1181.65 1455.5 1174.7 1421.05 1162.95 1384.8 1157 1366.55 1150 1354.35 1150.15 1341.1 1146.05 1328.25 1138.05 1303.55 1116.15 1286.9 1094.25 1270.25 1068.3 1269.15 1042.35 1268.05 1019.15 1282.85 1011.4 1287.8 1005.1 1293.75 990.4 1289.7 975.45 1291 959.15 1292.4 944.2 1300 929.25 1307.6 918.5 1319.95 907.2 1332.9 901.8 1349.7 896.35 1366.5 897.9 1383.6 899.45 1400.7 907.8 1416.25 907.85 1416.4 907.95 1416.5 906.4 1416.7 904.85 1416.95 880.05 1420.9 862.05 1436.65 844.05 1452.4 836.85 1476.45 830.65 1497 834.4 1516.75 825.2 1518.35 816.5 1522 807.6 1525.75 799.9 1531.45 807.15 1518.6 807.4 1504.45 807.65 1489.8 800.35 1476.3 793.05 1462.85 780.65 1455.05 768.25 1447.2 752.95 1446.45 737.7 1445.7 724.55 1452.25 711.4 1458.8 702.85 1471.5 694.3 1484.15 693.1 1498.8 692.65 1504.3 693.3 1509.75 690.7 1510.2 688.15 1510.85 671.4 1515.2 659.5 1529.15 652.25 1537.65 648.8 1547.45 647.6 1546.95 646.45 1546.55 647.85 1542.75 648.7 1538.75 651.35 1526.35 648.5 1513.6 645.65 1500.85 637.9 1490.85 630.05 1480.85 618.45 1475 606.75 1469.1 594.1 1468.85 582.55 1468.65 571.8 1473.2 570.85 1471.35 569.75 1469.5 561.9 1456.4 549.2 1449.15 543.45 1445.9 537.25 1444.1 535.7 1434.45 531.2 1426.55 524.95 1415.65 512.25 1406.95 503.15 1400.7 487.5 1393.85 486.65 1393.45 485.8 1393.1 479.9 1388.1 472.85 1384.85 460.6 1379.2 446.65 1379.85 445.25 1379.9 443.85 1380.05 429.6 1378 417.3 1380.4 409.05 1382 401.4 1385.7 393.7 1389.35 387.25 1394.7 375.6 1404.45 366 1421.6 360.6 1431.2 356.55 1441.3 355.15 1440.3 353.65 1439.45 341.55 1432.4 327.05 1431.9 312.5 1431.35 299.95 1437.55 287.35 1443.7 278.9 1455.5 270.4 1467.3 268.6 1481.2 267.35 1490.8 269.4 1500.4 269.5 1500.85 269.6 1501.25 264.5 1501.1 259.4 1501.85 248.2 1503.55 238.6 1509.6 236.6 1504.8 233.65 1500.2 224.7 1486.2 210.4 1479.4 196.15 1472.6 179.65 1474.45 168.3 1475.7 158.9 1480.75
M 972.25 1619.95
Q 972.5 1620.65 972.8 1621.4 971.4 1622 970 1622.65 971 1620.85 971.9 1619.05 972.1 1619.5 972.25 1619.95
M 156.45 1663.9
Q 155.3 1663.9 154.2 1663.9 154.35 1663.75 154.5 1663.6 155.45 1663.75 156.45 1663.9
M -1.2 1534.85
Q -1.25 1529.6 -1.1 1524.85 0.2 1527.4 1.65 1529.85 0.3 1531.95 -0.9 1534.25 -1.05 1534.55 -1.2 1534.85 Z"/>

<path fill="#00FF00" stroke="none" d="
M 133.2 1127
Q 108.2 1130.95 87.45 1147.2 66.7 1163.45 56.85 1186.8 52.55 1197.1 50.7 1207.95 32.55 1213.05 17.1 1224.95 0.05 1238 -9.95 1256.4 -19.15 1273.45 -21.35 1292.7 -24.4 1320.2 -12 1346.4 -11.1 1348.35 -10.1 1350.25 -14.8 1365.55 -14.35 1382.45 -13.85 1401.65 -6.8 1418.45 -14.95 1420.6 -22.7 1423.6 -22.85 1423.65 -23 1423.75 -22.2 1424.45 -21.45 1425.25 -11.3 1435.5 -6.05 1449.05 -5 1451.8 -4.1 1454.75 -3.25 1452.65 -2.3 1450.6 8.35 1427.55 28.65 1414.6 49 1401.6 74.35 1401.65 99.75 1401.65 120.05 1414.65 140.35 1427.65 150.95 1450.7 157.8 1465.55 158.9 1480.75 168.3 1475.7 179.65 1474.45 196.15 1472.6 210.4 1479.4 224.7 1486.2 233.65 1500.2 236.6 1504.8 238.6 1509.6 248.2 1503.55 259.4 1501.85 264.5 1501.1 269.6 1501.25 269.5 1500.85 269.4 1500.4 267.35 1490.8 268.6 1481.2 270.4 1467.3 278.9 1455.5 287.35 1443.7 299.95 1437.55 312.5 1431.35 327.05 1431.9 341.55 1432.4 353.65 1439.45 355.15 1440.3 356.55 1441.3 360.6 1431.2 366 1421.6 375.6 1404.45 387.25 1394.7 393.7 1389.35 401.4 1385.7 409.05 1382 417.3 1380.4 429.6 1378 443.85 1380.05 445.25 1379.9 446.65 1379.85 460.6 1379.2 472.85 1384.85 479.9 1388.1 485.8 1393.1 486.65 1393.45 487.5 1393.85 503.15 1400.7 512.25 1406.95 524.95 1415.65 531.2 1426.55 535.7 1434.45 537.25 1444.1 543.45 1445.9 549.2 1449.15 561.9 1456.4 569.75 1469.5 570.85 1471.35 571.8 1473.2 582.55 1468.65 594.1 1468.85 606.75 1469.1 618.45 1475 630.05 1480.85 637.9 1490.85 645.65 1500.85 648.5 1513.6 651.35 1526.35 648.7 1538.75 647.85 1542.75 646.45 1546.55 647.6 1546.95 648.8 1547.45 652.25 1537.65 659.5 1529.15 671.4 1515.2 688.15 1510.85 690.7 1510.2 693.3 1509.75 692.65 1504.3 693.1 1498.8 694.3 1484.15 702.85 1471.5 711.4 1458.8 724.55 1452.25 737.7 1445.7 752.95 1446.45 768.25 1447.2 780.65 1455.05 793.05 1462.85 800.35 1476.3 807.65 1489.8 807.4 1504.45 807.15 1518.6 799.9 1531.45 807.6 1525.75 816.5 1522 825.2 1518.35 834.4 1516.75 830.65 1497 836.85 1476.45 844.05 1452.4 862.05 1436.65 880.05 1420.9 904.85 1416.95 906.4 1416.7 907.95 1416.5 907.85 1416.4 907.8 1416.25 899.45 1400.7 897.9 1383.6 896.35 1366.5 901.8 1349.7 907.2 1332.9 918.5 1319.95 929.25 1307.6 944.2 1300 959.15 1292.4 975.45 1291 990.4 1289.7 1005.1 1293.75 1011.4 1287.8 1019.15 1282.85 1042.35 1268.05 1068.3 1269.15 1094.25 1270.25 1116.15 1286.9 1138.05 1303.55 1146.05 1328.25 1150.15 1341.1 1150 1354.35 1157 1366.55 1162.95 1384.8 1174.7 1421.05 1181.65 1455.5 1181.75 1455.2 1181.9 1454.9 1199.65 1416.95 1195.2 1372.6 1190.85 1329.05 1166.7 1293.7 1161.5 1286.4 1159 1282.7 1154.6 1276.2 1152.2 1271.1 1150.45 1267.3 1148.15 1260.45 1145.55 1252.55 1144.35 1249.6 1138.45 1235.1 1126.35 1223 1115.1 1211.75 1099.95 1203.95 1086.45 1197.05 1069.6 1192.6 1055.6 1188.95 1037.6 1186.6 1008.65 1182.85 982.95 1183.95 981.7 1180.9 979.85 1178.15 975.65 1171.85 968.8 1168.05 961.9 1164.2 954.3 1163.95 946.7 1163.75 939.65 1167.05 932.55 1170.4 927.9 1176.45 921.75 1184.45 921.5 1195.05 908.45 1199.55 896.5 1205.85 874.3 1217.5 858 1234.3 841.35 1251.45 827.45 1277.95 824.45 1283.65 820.85 1291.4 814.5 1288.2 807.5 1286.35 796.5 1283.4 785.25 1284.05 770.25 1279.95 755.1 1282.25 742.7 1284.15 731.7 1290.2 721.45 1294.7 713.15 1302.1 700.65 1309.7 691.7 1322.15 688.85 1326.15 686.6 1330.3 679.1 1326 669.75 1326.3 659.25 1326.65 651.4 1332.7 643.55 1338.8 640.6 1348.85 639.3 1353.2 639.2 1357.45 638.3 1357.4 637.4 1357.45 635.45 1337.2 625.8 1319.65 614.5 1299 594.35 1285.35 574.2 1271.65 550.85 1268.7 527.55 1265.8 504.65 1274.1 485.95 1280.85 471.8 1293.55 463.7 1287.4 454.15 1282.8 434.15 1273.2 412.6 1272.85 386.9 1272.45 363.35 1285.3 354.85 1289.95 347.65 1295.85 346.1 1286.15 342.7 1276.8 338 1264 330.1 1253 313.35 1229.8 285.35 1218.85 266.3 1211.35 247.3 1211.65 244.7 1192.25 235 1175.5 220 1149.55 191.4 1135.95 162.85 1122.3 133.2 1127
M -202.85 1817.5
Q -214.75 1832.05 -219.5 1851.1 -223.95 1869 -221.65 1888.9 -219.4 1908.15 -211.2 1926.45 -202.95 1944.8 -190.05 1959.2 -179.2623046875 1971.231640625 -165.5 1981.4 -165.6369140625 1980.089453125 -165.75 1978.75 -166.7 1967.3 -165.8 1945.55
L -161.05 1830.7
Q -159.9638671875 1804.3513671875 -158.9 1787.05 -166.6037109375 1790.0423828125 -173.65 1793.85 -191.35 1803.45 -202.85 1817.5 Z"/>
</g>

<g id="Layer0_0_FILL">
<path fill="#FFFFFF" stroke="none" d="
M 50.65 -40.3
Q 27.75 -49.1 2.45 -45.85 -22.9 -42.65 -42.9 -28.4 -62.9 -14.15 -74.2 8.7 -85.5 31.55 -84.7 56.1 -83.85 80.65 -71.1 102.75 -66.0484375 111.4521484375 -59.75 118.7 -60.7693359375 122.1451171875 -61.6 125.7 -68.45 154.8 -58.95 181.6 -50.000390625 206.9810546875 -28.35 224.75 -25.588671875 234.5716796875 -20.7 243.95 -23.68046875 245.7296875 -27 247.95 -32.65 251.8 -36.3 254.85 -41.15 258.9 -44.4 263.1 -48.15 267.9 -50.1 273.15 -52.2 278.9 -51.85 284.45 -51.4 291.3 -47.25 297.2 -43.1 303.05 -36.75 305.7 -32.8470703125 307.3416015625 -28.65 307.5 -27.3751953125 309.9166015625 -25.55 312 -20.25 318.1 -11.8 319.8 -3.35 321.5 3.9 317.95 9.984375 314.970703125 13.65 309 17.8595703125 310.4412109375 22.4 310.25 27.1 310.1 31.35 308.2 35.1 306.6 38.15 303.75 41.25 300.9 43.15 297.3 43.63515625 296.3904296875 44.05 295.45 50.59609375 297.0470703125 57.45 297.75 75 299.6 91.8 295.4 118.85 288.7 139.15 267.65 159.5 246.65 165.3 219.4 165.6421875 217.7921875 165.9 216.15 171.6962890625 221.2244140625 178.3 225.35 200.55 239.3 227.95 240.2 237.5400390625 240.5150390625 246.6 239.2 246.7302734375 244.7826171875 249.55 250.25 253.65 258.2 261.3 261.65 268.3 264.8 276.3 263.2 284.3 261.6 289.6 256 294.7736328125 250.5333984375 295.95 242.7 304.684375 244.902734375 313.85 245.4 331.95 246.4 349.6 240.75 367.25 235.15 381.4 223.85 403.1 206.55 412.85 179.2 415.8421875 170.79140625 417.35 162.4 418.0072265625 164.490625 418.75 166.55 425.6 185.6 439.85 200.8 454.1 215.95 472.65 224.05 487.6 230.55 504.15 231.95 506.625 232.1599609375 509.05 232.25 508.8990234375 232.940625 508.75 233.65 507.65 238.65 508.6 243.55 509.55 248.45 512.35 252.7 515.2 257 519.35 259.75 525.45 263.75 533.1 263.7 540.146484375 263.7 545.8 260.3 547.4880859375 283.03046875 559.95 303.95 575.2 329.55 600.55 342.25 625.9 354.95 655.5 351.8 685.15 348.7 707.3 331.05 729.45 313.35 739.05 285.15 741.2072265625 278.8130859375 742.55 272.5 763.398046875 279.7748046875 785.05 277.5 798.6 276.05 811.4 270.95 824.2 265.85 835.05 257.6 843.8095703125 250.960546875 850.8 242.7 851.5986328125 242.797265625 852.4 242.85 864.5 243.6 874.5 237.8 881.31484375 233.875390625 885.9 227.6 890.4806640625 238.5703125 898.7 246.95 908.7 257.15 922.65 262 922.9275390625 262.096875 923.2 262.2 921.8763671875 266.2052734375 922.9 270.3 924.25 275.9 929.45 279.3 934.65 282.75 940.3 281.85 945.95 280.95 949.85 276.1 953.7 271.2 953.3 265.5 953.2712890625 265.0884765625 953.2 264.65 965.9845703125 262.5298828125 977.25 255.05 989.55 246.9 996.65 234.5 998.514453125 231.2580078125 999.95 227.85 1004.863671875 230.9609375 1010.5 233.2 1025.05 239.05 1040.1 237.45 1055.5 235.85 1068.45 227.15 1070.0421875 226.0744140625 1071.55 224.9 1072.61484375 228.3078125 1074.45 231.4 1078.25 237.95 1084.35 241.15 1087.694140625 242.887890625 1091.4 243.4 1094.1966796875 247.9615234375 1098.9 251 1104.6 254.7 1111.05 254.95 1117.5 255.2 1123.45 252.05 1129.45 248.85 1132.8 243.3 1136.5 237.25 1136.95 228.4 1137.3 222.3 1135.95 212.4 1135 205.15 1134.1 200.7 1132.85 194.3 1131 189.25 1129.65 185.5 1126.8 179.6 1123.2 172.2 1122.25 170 1120.15 165.1 1116.9 154.85 1113.6 144.65 1111.5 139.7 1110.5 137.45 1108.7 133.7 1106.6 129.35 1105.9 127.8 1105.8138671875 127.598828125 1105.7 127.4 1119.365625 109.2220703125 1123.7 87.55 1129.7 57.75 1116.9 28.3 1104.05 -1.15 1078.2 -17.05 1055.5 -31.05 1027.65 -31.5 999.8 -32 976.65 -18.8 966.75 -13.1765625 958.55 -5.55 957.393359375 -6.016796875 956.2 -6.5 952.105078125 -10.91640625 947.35 -15 925.75 -33.55 898.95 -38.05 872.15 -42.5 845.7 -31.95 819.25 -21.35 802.9 0.35 795.0873046875 10.7541015625 790.2 22.9 786.1689453125 15.2173828125 780.65 7.95 762.55 -15.95 735.75 -25.75 708.95 -35.55 679.7 -28.95 658.7095703125 -24.213671875 642.45 -12.45 639.30859375 -14.7322265625 635.9 -16.85 613.85 -30.55 588.95 -31.95 564.6787109375 -33.3119140625 541.85 -22.75 534.394921875 -35.607421875 522.75 -46.35 502.1 -65.35 475.85 -70.85 449.65 -76.35 423.1 -67.25 396.6 -58.1 379.3 -37.6 378.15546875 -36.24375 377.05 -34.85 370.5810546875 -38.37890625 363.4 -41.05 338.7 -50.2 313.75 -46.4 300.4599609375 -44.34921875 288.35 -38.85 276.9759765625 -44.558984375 264.55 -47.2 234.85 -53.55 205.25 -41 176.7048828125 -28.9658203125 160.65 -4.7 157.93125 -6.5365234375 155.05 -8.2 137 -18.65 115.6 -20.9 99.210546875 -22.6271484375 83.65 -19.25 69.2076171875 -33.19375 50.65 -40.3 Z"/>
</g>
</defs>

<g transform="matrix( 1, 0, 0, 1, 0,0) ">
<use xlink:href="#Layer2_0_FILL"/>
</g>

<g transform="matrix( 1, 0, 0, 1, 0,0) ">
<use xlink:href="#Layer1_0_FILL"/>
</g>

<g transform="matrix( 1, 0, 0, 1, 0,0) ">
<use xlink:href="#Layer0_0_FILL"/>
</g>
</svg>
