
<svg xmlns="http://www.w3.org/2000/svg" version="1.1" xmlns:xlink="http://www.w3.org/1999/xlink" preserveAspectRatio="none" x="0px" y="0px" width="500px" height="500px" viewBox="0 0 500 500">
<defs>
<radialGradient id="Gradient_1" gradientUnits="userSpaceOnUse" cx="0" cy="0" r="231.55" fx="0" fy="0" gradientTransform="matrix( 1, 0, 0, 1, 229.8,247.35) " spreadMethod="pad">
<stop  offset="0%" stop-color="#FA6A06"/>

<stop  offset="36.86274509803921%" stop-color="#EF5906"/>

<stop  offset="100%" stop-color="#C71C02"/>

<stop  offset="100%" stop-color="#000000"/>

<stop  offset="100%" stop-color="#000000"/>

<stop  offset="100%" stop-color="#000000"/>

<stop  offset="100%" stop-color="#AA1C00" stop-opacity="0"/>

<stop  offset="100%" stop-color="#AA1C00" stop-opacity="0"/>

<stop  offset="100%" stop-color="#AA1C00" stop-opacity="0"/>
</radialGradient>

<radialGradient id="Gradient_2" gradientUnits="userSpaceOnUse" cx="0" cy="0" r="81.48336582548612" fx="0" fy="0" gradientTransform="matrix( 0.9971360311012936, 0.07562893282045197, -0.123031245683575, 0.6131619563556724, 112.9,183.35) " spreadMethod="pad">
<stop  offset="78.03921568627452%" stop-color="#FFFFFF"/>

<stop  offset="100%" stop-color="#FFFFFF" stop-opacity="0"/>

<stop  offset="100%" stop-color="#000000"/>

<stop  offset="100%" stop-color="#000000"/>

<stop  offset="100%" stop-color="#000000"/>

<stop  offset="100%" stop-color="#000000"/>

<stop  offset="100%" stop-color="#000000"/>
</radialGradient>

<radialGradient id="Gradient_3" gradientUnits="userSpaceOnUse" cx="0" cy="0" r="13.962908454186767" fx="0" fy="0" gradientTransform="matrix( 0.9659520467568333, -0.258721169149884, 0.258721169149884, 0.9659520467568333, 150.7,103.75) " spreadMethod="pad">
<stop  offset="78.03921568627452%" stop-color="#FFFFFF"/>

<stop  offset="100%" stop-color="#FFFFFF" stop-opacity="0"/>

<stop  offset="100%" stop-color="#000000"/>

<stop  offset="100%" stop-color="#000000"/>

<stop  offset="100%" stop-color="#000000"/>

<stop  offset="100%" stop-color="#000000"/>

<stop  offset="100%" stop-color="#000000"/>
</radialGradient>

<radialGradient id="Gradient_4" gradientUnits="userSpaceOnUse" cx="0" cy="0" r="480.61856383857054" fx="0" fy="0" gradientTransform="matrix( 0.6916087413378523, -0.7222723509210852, 0.3502777725758948, 0.33540111042016185, 244.65,250.4) " spreadMethod="pad">
<stop  offset="0%" stop-color="#FFFFFF" stop-opacity="0"/>

<stop  offset="100%" stop-color="#FFFFFF" stop-opacity="0.4980392156862745"/>

<stop  offset="100%" stop-color="#000000"/>

<stop  offset="100%" stop-color="#000000"/>

<stop  offset="100%" stop-color="#000000"/>

<stop  offset="100%" stop-color="#AA1C00" stop-opacity="0"/>

<stop  offset="100%" stop-color="#AA1C00" stop-opacity="0"/>

<stop  offset="100%" stop-color="#AA1C00" stop-opacity="0"/>
</radialGradient>

<radialGradient id="Gradient_5" gradientUnits="userSpaceOnUse" cx="0" cy="0" r="480.6185638385705" fx="0" fy="0" gradientTransform="matrix( 0.6916087413378524, -0.7222723509210853, 0.3502777725758949, 0.3354011104201619, 275.45,259.5) " spreadMethod="pad">
<stop  offset="0%" stop-color="#FFFFFF" stop-opacity="0"/>

<stop  offset="100%" stop-color="#FFFFFF" stop-opacity="0.4980392156862745"/>

<stop  offset="100%" stop-color="#000000"/>

<stop  offset="100%" stop-color="#000000"/>

<stop  offset="100%" stop-color="#000000"/>

<stop  offset="100%" stop-color="#AA1C00" stop-opacity="0"/>

<stop  offset="100%" stop-color="#AA1C00" stop-opacity="0"/>

<stop  offset="100%" stop-color="#AA1C00" stop-opacity="0"/>
</radialGradient>

<linearGradient id="Gradient_6" gradientUnits="userSpaceOnUse" x1="118.1" y1="-5.700000000000017" x2="382.1" y2="500.20000000000005" spreadMethod="pad">
<stop  offset="0%" stop-color="#FFF346"/>

<stop  offset="100%" stop-color="#EF7102"/>
</linearGradient>

<linearGradient id="Gradient_7" gradientUnits="userSpaceOnUse" x1="160.35000000000002" y1="9.150000000000006" x2="358.35" y2="427.95000000000005" spreadMethod="pad">
<stop  offset="0%" stop-color="#FA8304"/>

<stop  offset="100%" stop-color="#FDE836"/>
</linearGradient>

<linearGradient id="Gradient_8" gradientUnits="userSpaceOnUse" x1="-3.950000000000017" y1="247.4" x2="500.15" y2="247.4" spreadMethod="pad">
<stop  offset="0%" stop-color="#E91B02"/>

<stop  offset="100%" stop-color="#E25500"/>
</linearGradient>

<g id="Layer10_0_FILL">
<path fill="url(#Gradient_1)" stroke="none" d="
M 443.65 317
Q 472.1 236.75 435.65 159.7 399.15 82.45 319.15 53.65 238.85 24.85 162.05 61.15 117.2919921875 82.303515625 88.95 118.45 82.103515625 122.6578125 76.2 128.45 76.1 128.8 76.05 129.15 75.7 130.85 75.8 132.65 75.85 133.7 76.05 134.7 76.1 135.1 76.2 135.45 76.419140625 135.7568359375 76.65 136.05 66.171484375 152.9650390625 58.65 172.6 47.73671875 176.795703125 36.65 180.65 18.5 186.95 3.75 198.35 3.5 199.4 3.45 200.45 3.4 201.15 3.55 201.85 3.6 202.2 3.75 202.55 3.95 202.9 4.2 203.25 4.45 203.6 4.7 203.9 5 204.3 5.35 204.65 27.9623046875 205.4587890625 50.05 200.25 49.0830078125 204.26953125 48.25 208.25 44.1921875 210.541015625 40.1 212.8 39.85 213.15 39.6 213.5 39.4 213.85 39.15 214.2 39.05 214.9 39 215.6 38.9 216.3 38.9 217 38.9 217.35 39 217.7 39.05 218.05 39.15 218.4 39.4 218.75 39.6 219.1 39.85 219.45 40.1 219.75 40.45 220.15 40.8 220.5 42.4 221.1 43.9 220.85 45.046875 220.6638671875 46.2 220.45 43.4943359375 239.7341796875 44.6 258.8 29.4251953125 267.970703125 16.55 280.15 16.05 281.85 16.05 283.65 16.1 286.1 16 288.55 15.8 292.85 16.55 296.95 16.8 297.3 16.95 297.65 18.15 300.05 19.3 302.45 20.6626953125 305.3232421875 22.65 307.75 20.0111328125 309.8623046875 17.5 312.1 17.35 312.45 17.3 312.8 16.95 314.85 17.15 316.95 17.25 318.05 17.5 319.1 18.25 320.25 19.45 320.45 39.567578125 324.0609375 60.15 324.8 62.2779296875 329.9697265625 64.7 335.1 101.1 412 181.3 441.05 261.5 469.85 338.15 433.6 414.9 397.3 443.65 317
M 51.15 186.55
Q 52.67734375 186.003515625 54.2 185.45 53.9521484375 186.233203125 53.7 187 49.573828125 188.1546875 45.45 189.25 48.2 187.6 51.15 186.55
M 26.8 285.3
Q 31.95 278.4 39.7 274.45 42.7365234375 272.90390625 45.75 271.35 47.0462890625 281.5611328125 49.4 291.7 40.1611328125 295.7763671875 31.9 301.1 30.211328125 299.6140625 28.65 297.85 28.55 297.15 28.35 296.5 27.95 295.4 27.5 294.4 27.15 293.7 26.8 293 26.8 292.65 26.8 292.3 26.8 290.2 26.8 288.1 26.8 286.7 26.8 285.3
M 42.85 307.75
Q 47.6466796875 305.4455078125 52.45 303.25 53.4853515625 306.68046875 54.6 310.1 48.299609375 309.796484375 42.85 307.75 Z"/>
</g>

<g id="Layer9_0_FILL">
<path fill="url(#Gradient_2)" stroke="none" d="
M 144.7 185.8
Q 148.8 165.35 142.5 150.15 136.05 135.1 122.95 134.05 109.8 133 97.55 146.75 91.428125 153.678125 87.35 162.3
L 87.35 223.4
Q 93.3806640625 231.96796875 103.1 232.75 116.2 233.7 128.45 220 140.65 206.3 144.7 185.8 Z"/>

<path fill="url(#Gradient_3)" stroke="none" d="
M 162.6 110.6
Q 165.45 105.65 164 100.25 162.55 94.8 157.6 91.95 152.65 89.15 147.25 90.6 141.75 92.05 138.9 96.95 136.15 101.85 137.6 107.3 139.05 112.7 143.9 115.6 148.85 118.45 154.35 117 159.75 115.55 162.6 110.6 Z"/>
</g>

<g id="Layer8_0_FILL">
<path fill="url(#Gradient_4)" stroke="none" d="
M 266.95 443
Q 254.9529296875 438.6056640625 243.25 432.95 228 425.5 213.25 415.95 211.81484375 419.4833984375 210.35 422.8 211.3978515625 423.337109375 212.45 423.85 238.9421875 436.6525390625 266.95 443
M 91.35 95
Q 96.716796875 81.237109375 102.55 70.35 89.01640625 78.574609375 77.65 90.45 31.25 138.85 47.4 219.95 53.3091796875 249.4236328125 66.2 276.95 65.8 265.4693359375 65.8 253.55 65.8 160.7 91.35 95
M 253.3 67.05
Q 229.98671875 58.5140625 205.55 54.75 153.5 46.65 115.85 63.4 108.9556640625 66.46953125 102.55 70.35 96.716796875 81.237109375 91.35 95 65.8 160.7 65.8 253.55 65.8 265.4693359375 66.2 276.95 88.814453125 325.0916015625 132.85 367.25 156.9080078125 390.262109375 182.45 406.85 196.185546875 415.75859375 210.35 422.8 211.81484375 419.4833984375 213.25 415.95 187.7 399.35 163.65 376.35 94.45 310.1 78.2 229.05 62.05 147.95 108.45 99.55 125.2 82.05 146.65 72.5 184.3 55.75 236.35 63.85 244.8912109375 65.165625 253.3 67.05 Z"/>

<path fill="url(#Gradient_5)" stroke="none" d="
M 472.7 290.1
Q 456.55 209.05 387.3 142.7 325.3703125 83.367578125 253.3 67.05 244.8912109375 65.165625 236.35 63.85 184.3 55.75 146.65 72.5 125.2 82.05 108.45 99.55 62.05 147.95 78.2 229.05 94.45 310.1 163.65 376.35 187.7 399.35 213.25 415.95 228 425.5 243.25 432.95 254.9529296875 438.6056640625 266.95 443 290.1716796875 451.508984375 314.5 455.3 396.2 468 442.6 419.6 488.9 371.2 472.7 290.1 Z"/>
</g>

<g id="Layer7_0_FILL">
<path fill="#000000" stroke="none" d="
M 363.75 266.05
Q 363.6 266.05 363.55 266 361.95 263.85 359.6 262.5 359.45 262.5 359.35 262.45 358.15 261.75 356.35 261.6 354 261.6 351.6 261.6 325.2 261.6 298.8 261.6 272.35 261.6 245.95 261.6 219.5 261.6 193.1 261.6 166.7 261.6 140.25 261.6 140.1 261.6 139.95 261.65 137.45 262.05 135.85 263.4 135.7 263.4 135.6 263.45 134.5 264.55 133.2 265.45 133.2 265.6 133.2 265.75 133.2 265.9 133.1 266 131.1 268.1 130.2 271.35 130.2 271.5 130.2 271.65 130.2 274.15 130.2 276.7 130.2 276.85 130.2 276.95 131.25 280.8 133.7 283.25 133.75 283.3 133.75 283.45 134.65 284.35 135.75 285.05 135.85 285.1 135.85 285.25 137.9 286.6 140.85 287 141 287 141.15 287 151.5 287 161.8 287.15
L 161.8 287.3
Q 161.8 287.45 161.85 287.6 162 288.25 161.5 288.2 161.5 288.65 161.5 289.1 161.5 289.25 161.5 289.35 161.5 289.5 161.45 289.65 161.35 289.8 161.2 289.95 161.2 292.2 161.5 294.1 161.5 294.25 161.5 294.4 162.85 298.35 165.85 300.7 165.95 300.75 165.95 300.9 169.1 303.8 172.35 306.6 172.45 306.65 172.45 306.8 175.5 309.6 178.55 312.45 178.65 312.55 178.65 312.7 181 314.6 183.3 316.6 183.35 316.7 183.35 316.85 184.25 317.55 185.05 318.4 185.15 318.45 185.15 318.6 187.3 320.25 189.2 322.2 189.25 322.3 189.25 322.45 190.6 323.15 191.55 324.25 191.65 324.35 191.65 324.5 193.35 326 195.1 327.55 195.15 327.6 195.15 327.75 196.55 329.05 198.05 330.2 198.1 330.25 198.1 330.4 199.4 331.75 201 332.85 201.05 332.9 201.05 333.05 202.65 334.7 204.55 336.1 204.6 336.15 204.6 336.3 205.8 337.35 206.9 338.45 207 338.5 207 338.65 209.05 340.15 210.75 342 210.8 342.05 210.8 342.2 211.9 342.9 212.8 343.75 212.9 343.85 212.9 344 215.1 345.9 217.25 347.9 217.3 347.95 217.3 348.1 217.5 348.3 217.7 348.5 218.25 349 219 349.4 219.1 349.45 219.1 349.6 221.35 351.75 223.75 353.8 223.8 353.85 223.8 354 224.25 354.3 224.6 354.7 224.7 354.75 224.7 354.9 227.6 357.45 230.5 360 230.6 360.05 230.6 360.2 231.4 360.85 232.3 361.45 233.95 362.55 235.95 363.4 236.05 363.45 236.2 363.45 237.55 364.2 239.45 364.35 239.6 364.35 239.75 364.35 266.15 364.35 292.6 364.2 302.1 364.15 310.9 364.65 311.4 367.65 311.2 371.45 311.2 371.6 311.2 371.75 314.55 371.75 317.95 371.75 318.1 371.75 318.25 371.75 318.25 371.6 318.25 371.45 318.25 345 318.25 318.6 318.4 318.6 318.55 318.6 319.65 315.3 321.6 312.75 321.65 312.7 321.8 312.7 321.8 312.55 321.8 312.4 323.05 311.7 324.2 311 324.3 310.9 324.45 310.9 324.45 310.75 324.45 310.65 325.85 309.95 327.7 309.6
L 327.7 309.45
Q 327.7 309.3 327.7 309.15 346.6 309.15 365.5 309.15 365.65 309.15 365.8 309.15 365.8 309 365.8 308.85 365.8 305.45 365.8 302.05 365.65 302.05 365.5 302.05 346.3 302.05 327.1 302.05 326.95 302.05 326.85 302.05 325.6 302 324.75 302.35 324.6 302.35 324.5 302.4 321.35 303.4 318.85 305 318.85 305.15 318.8 305.2 317.35 306.05 316.2 307.1 316.2 307.25 316.1 307.3 314.4 309.25 312.95 311.5 312.95 311.65 312.9 311.8 312.8 312.4 312.35 312.7 312.35 312.85 312.35 313 312.35 313.15 312.3 313.25 311.6 314.75 311.2 316.55 311.05 316.55 310.9 316.55 308.95 316.55 307.05 316.55 306.9 316.55 306.8 316.45 305.45 315.65 305.3 313.6 305.15 313.6 305.1 313.55 303.8 310.35 302.6 307.1 302.45 307.1 302.45 307.05 301.75 305.15 301.15 303.25 301 303.25 300.95 303.2 299.45 299.6 298.2 295.85 298.05 295.85 298.05 295.8 296.7 292.6 295.55 289.35 295.4 289.35 295.35 289.35 295.25 288.95 295.25 288.5 295.1 288.5 295.05 288.45 294.8 287.9 294.65 287.3 294.65 287.15 294.65 287 321.05 287 347.5 287 351.45 287 355.45 287 357.95 286.85 359.6 285.9 359.75 285.85 359.9 285.85 359.9 285.7 359.9 285.55 361.75 284.75 362.95 283.25 363 283.15 363.15 283.15 363.15 283.05 363.15 282.9 364.85 281.2 365.75 278.75 365.8 278.6 365.8 278.45 365.8 278.3 365.8 278.15 365.8 278 365.8 277.85 365.8 274 365.8 270.2 365.8 270.05 365.8 269.9 365.8 269.75 365.75 269.6 364.9 267.7 363.75 266.05
M 354 269.05
Q 354.15 269 354.3 269 356.85 269.55 358.05 271.4 358.1 271.5 358.1 271.65 358.1 271.8 358.2 271.95 359.6 275.15 357.55 277.55 357.55 277.7 357.45 277.8 356.5 279.05 354.55 279.35 354.55 279.5 354.55 279.65 354.2 280.15 353.1 280.15 326.7 279.95 300.25 279.95 273.85 279.95 247.4 279.95 221 279.95 194.6 280.05 167.95 280.15 142.05 279.65
L 142.05 279.5
Q 141.25 279.55 141.15 279.05 141 279.05 140.85 279 139.85 278.75 139.4 277.85 139.25 277.85 139.15 277.8 137.6 276.1 137.9 272.55 138.45 272.2 138.65 271.4 138.65 271.35 138.8 271.35 138.8 271.2 138.8 271.05 139.7 269.9 141.15 269.35 141.3 269.3 141.45 269.3 141.45 269.15 141.45 269 142.35 269 143.2 268.85
L 143.2 268.7
Q 143.2 268.55 143.2 268.4 169.65 268.4 196.05 268.4 222.45 268.4 248.9 268.4 275.3 268.4 301.75 268.3 327.95 268.2 353.4 268.7 353.35 269.2 354 269.05
M 250.05 293.5
Q 250.2 293.5 250.35 293.5 250.9 291.95 250.7 289.65 250.65 289.5 250.65 289.35
L 250.5 289.35
Q 250.4 288.15 250.05 287.3 250.05 287.15 250.05 287 260.25 287 270.45 287.15
L 270.45 287.3
Q 270.95 302.3 270.6 318
L 270.45 318
Q 270.3 318 270.2 318.05 269.25 318.6 268.1 318.9 268.1 319.05 268 319.05 266.9 319.65 265.7 320.05 265.7 320.2 265.65 320.25 263.05 321.55 260.4 322.75 260.4 322.9 260.35 322.9 258.05 323.95 256 325.1 255.85 325.1 255.7 325.15 252.45 326.85 249.2 328.65 249.05 328.65 249.05 328.6 248.9 326.7 248.9 324.8 248.9 324.65 248.9 324.5 248.9 323.9 248.9 323.3 248.9 323.15 248.9 323.05 248.9 320.2 248.9 317.4 249.05 317.4 249.2 317.4 249.2 317.25 249.2 317.1 249.2 314.3 249.2 311.5 249.35 311.5 249.5 311.5 249.5 311.35 249.5 311.2 249.5 308.4 249.5 305.6 249.65 305.6 249.8 305.6 249.8 305.45 249.8 305.3 249.8 302.35 249.8 299.4 249.95 299.4 250.05 299.4 250.05 299.25 250.05 299.1 250.05 296.3 250.05 293.5
M 277.8 287.3
Q 277.8 287.15 277.8 287 282.1 287 286.4 287.15
L 286.4 287.3
Q 286.55 287.9 286.65 288.5 286.7 288.65 286.7 288.8 288.15 291.7 289.3 295 289.35 295.15 289.35 295.3 290.6 298 291.65 300.9 291.7 301.05 291.7 301.2 292.9 303.55 293.7 306.2 293.75 306.35 293.75 306.5 294.65 308.25 295.5 310.05 295.55 310.2 295.55 310.35 295.85 311.2 296.1 312.1 296.15 312.25 296.15 312.4 297.6 315.35 298.75 318.6 298.8 318.75 298.8 318.9 299.8 321.1 300.95 323.25 301 323.3 301.15 323.3 301.55 323.8 302.3 323.9 302.45 323.9 302.6 323.9 306.75 323.9 310.9 324.05
L 310.9 324.2
Q 311.4 340.35 311.05 357.25
L 310.9 357.25
Q 303.6 357.8 295.55 357.8 268.9 357.8 243 357.25 243 357.1 242.95 357.1 242.55 356.95 242.1 356.95 241.95 356.95 241.8 356.95 238 356.5 235.9 354.3 235.75 354.3 235.7 354.25 234 352.7 232.3 351.1 230.9 349.8 229.5 348.5 229.45 348.45 229.4 348.4 229.25 348.4 229.2 348.35 226.7 346.1 224.4 343.7 224.25 343.7 224.15 343.6 221.3 341.05 218.5 338.4 218.35 338.4 218.25 338.3 217.45 337.5 216.7 336.6 216.55 336.6 216.5 336.55 214.5 334.85 212.6 333.05 212.45 333.05 212.35 333 211.25 331.9 210.2 330.7 210.1 330.7 210 330.65 208.2 329.2 206.7 327.45 206.55 327.45 206.45 327.4 205.05 326.15 203.75 324.8 203.6 324.8 203.5 324.7 202.2 323.4 200.8 322.15 200.65 322.15 200.55 322.05 199 320.4 197.25 318.9 197.1 318.9 197 318.8 195.9 317.7 194.85 316.55 194.75 316.55 194.65 316.45 192.65 314.75 190.75 313 190.6 313 190.5 312.9 189.7 312.1 188.95 311.2 188.8 311.2 188.75 311.15 186.55 309.25 184.55 307.1 184.4 307.1 184.3 307 183.65 306.5 183.05 305.9 182.9 305.9 182.85 305.85 180.45 303.5 178.05 301.2 177.9 301.2 177.85 301.1 177.45 300.75 177.15 300.3 177 300.3 176.9 300.2 174.15 297.85 171.55 295.3 171.4 295.3 171.35 295.2 171.25 295.15 171.25 295 171.1 295 171 294.9 169.05 293.6 168.9 290.55 169.5 289.25 170.45 288.25 170.5 288.2 170.65 288.2 170.65 288.05 170.65 287.9 174.3 286.55 176.5 289.15 176.55 289.25 176.55 289.35 176.85 289.5 177.1 289.75 177.15 289.8 177.15 289.95 180.2 292.4 183 295.05 183.05 295.15 183.05 295.3 186.2 297.85 189.2 300.65 189.25 300.75 189.25 300.9 192.6 303.6 195.7 306.55 195.75 306.65 195.75 306.8 198.45 308.95 201 311.3 201.05 311.35 201.05 311.5 201.85 311.9 202.35 312.6 202.4 312.7 202.55 312.7 204.6 314.75 206.9 316.6 207 316.7 207 316.85 207.85 317.75 209 318.4 209.05 318.45 209.05 318.6 210.85 320.3 212.8 321.95 212.9 322 212.9 322.15 214.05 323.3 215.45 324.3 215.55 324.35 215.55 324.5 217.05 325.95 218.7 327.25 218.8 327.3 218.8 327.45 220.25 328.9 221.95 330.2 222.05 330.25 222.05 330.4 223.2 331.6 224.6 332.6 224.7 332.6 224.7 332.75 226.5 334.5 228.45 336.1 228.55 336.15 228.55 336.3 229.4 337.2 230.55 337.9 230.6 337.95 230.6 338.1 232.95 340 235.1 342.15 235.15 342.2 235.3 342.2 235.6 342.35 235.9 342.45 236.05 342.5 236.2 342.5 237.4 342.5 238.55 342.5 238.7 342.5 238.85 342.5 238.85 342.35 238.85 342.2 240.6 341.75 241.85 340.8 241.95 340.75 242.1 340.75 244.75 339.4 247.45 338.15 247.55 338.1 247.7 338.1 247.7 337.95 247.7 337.8 249.45 337.3 250.7 336.4 250.8 336.3 250.95 336.3 252.15 335.7 253.35 335.2 253.45 335.15 253.6 335.15 253.6 335 253.6 334.85 256.8 333.6 259.55 331.95 259.65 331.9 259.8 331.9 261 331.3 262.2 330.75 262.35 330.7 262.45 330.7 262.45 330.55 262.45 330.4 264.2 329.9 265.45 329 265.55 328.95 265.7 328.95 268.4 327.6 271.05 326.35 271.2 326.25 271.35 326.25 271.35 326.15 271.35 326 273.05 325.5 274.3 324.6 274.45 324.5 274.6 324.5 275.95 323.8 277.15 322.9 277.25 322.9 277.25 322.75 277.25 322.6 277.25 322.45 277.4 322.3 277.45 322.1 277.55 322 277.55 321.85 277.55 321.7 277.55 321.55 277.55 304.45 277.55 287.3 277.7 287.3 277.8 287.3
M 186.3 287.3
Q 186.3 287.15 186.3 287 191.75 287 197.25 287.15
L 197.25 287.3
Q 197.25 287.45 197.2 287.6 197 288.4 196.65 289.1 196.65 289.25 196.65 289.35 196.5 292.5 196.9 295 196.95 295.15 196.95 295.3 197.55 296 197.75 297.05
L 197.85 297.6
Q 196.65 297.15 194.85 295.3 194.75 295.3 194.65 295.2 191.8 292.3 188.65 289.65 188.55 289.65 188.45 289.6 187.35 288.5 186.3 287.3
M 211.35 289.15
Q 211.4 289.25 211.4 289.35 212.25 290 212.55 291.15 212.6 291.3 212.6 291.45 213.8 293 214.6 295 214.65 295.15 214.65 295.3 216.25 297.65 217.55 300.3 217.6 300.45 217.6 300.6 218.2 301.5 218.7 302.4 218.8 302.5 218.8 302.65 219.85 304.4 220.8 306.25 220.85 306.35 220.85 306.5 222.6 309.6 224.35 312.7 224.4 312.85 224.4 313 225.95 315.85 227.6 318.65 227.65 318.75 227.65 318.9 229 321.2 230.25 323.65 230.3 323.75 230.3 323.9 232.2 326.95 233.95 330.3 232.35 329.3 230.35 327.4 230.3 327.3 230.3 327.15 230.15 327.15 230.05 327.1 228.8 326 227.65 324.8 227.5 324.8 227.4 324.7 225.85 323.3 224.4 321.85 224.25 321.85 224.15 321.75 222.6 320.35 221.15 318.9 221 318.9 220.9 318.8 219.65 317.7 218.5 316.55 218.35 316.55 218.25 316.45 216.4 314.75 214.65 313 214.5 313 214.4 312.9 213.45 312.1 212.6 311.2 212.45 311.2 212.35 311.15 210.5 309.6 209.65 307.1 209.65 306.95 209.55 306.8 208.45 304.1 207.55 301.2 207.55 301.05 207.5 300.9 206.85 299.65 206.4 298.25 206.4 298.1 206.35 297.95 206 297.15 205.8 296.15
L 205.65 296.15
Q 205.3 294.15 204.3 292.9 204.3 292.75 204.3 292.6 204.3 291.3 204.3 289.95 205.1 289.1 205.85 288.25 205.95 288.2 206.1 288.2 206.1 288.05 206.1 287.9 209.45 286.6 211.35 289.15
M 219.35 287.3
Q 219.35 287.15 219.35 287 223.95 287 228.55 287.15
L 228.55 287.3
Q 228.55 287.45 228.55 287.6 228.7 288.25 228.25 288.2 228.25 288.65 228.25 289.1 228.25 289.25 228.25 289.35 228.25 289.5 228.2 289.65 227.95 291.6 227.65 293.5 227.65 294.25 227.65 295 227.65 295.15 227.65 295.3 227.65 295.4 227.65 295.55 227.5 298.55 227.05 301.2 226.9 301.2 226.85 301.1 225.3 298.25 223.8 295.3 223.65 295.3 223.6 295.2 222.1 292.55 220.85 289.65 220.7 289.65 220.65 289.6 219.95 288.5 219.35 287.3
M 242.05 288.6
Q 242.1 288.65 242.1 288.8 243.6 291.2 242.7 295 242.7 295.15 242.7 295.3 242.7 297.2 242.7 299.1 242.7 299.25 242.7 299.4 242.7 299.55 242.7 299.7 242.9 302.9 242.4 305.3 242.4 305.45 242.4 305.6 242.6 308.8 242.1 311.2 241.95 311.2 241.8 311.2 241.8 311.95 241.8 312.7 241.8 312.85 241.8 313 241.8 314.9 241.8 316.85 241.8 316.95 241.8 317.1 241.8 317.25 241.8 317.4 242.05 320.75 241.5 323.3 241.35 323.3 241.2 323.3 241.2 323.9 241.2 324.5 241.2 324.65 241.2 324.8 241.2 324.95 241.2 325.1 241.1 328.45 239.75 324.8 239.75 324.65 239.65 324.55 238 322.1 236.8 319.2 236.65 319.2 236.65 319.15 236.3 318.3 235.9 317.7 235.9 317.55 235.85 317.5 234.3 315.8 233.85 313 234 313 234.15 313 234.15 312.85 234.15 312.7 234.15 310.9 234.15 309.15 234.65 308.6 234.45 307.4 234.45 307.25 234.45 307.1 234.45 306.95 234.45 306.8 234.45 306.05 234.45 305.3 234.7 303.4 235 301.5 235 301.35 235 301.2 235 301.05 235 300.9 235 299.25 235 297.65 235.55 296.95 235.35 295.55 235.3 295.4 235.3 295.3 235.3 295.15 235.3 295 235.3 294.55 235.3 294.1 235.6 292.05 235.9 289.95 235.9 289.8 235.9 289.65 235.9 289.5 235.9 289.35 236.05 289.25 236.25 289.15 236.35 289.1 236.5 289.1 236.5 288.95 236.5 288.8 236.5 288.65 236.5 288.5 239.3 286.25 242.05 288.6
M 333.3 183.1
Q 333.15 183.1 333.1 183.05 331.85 181.75 330.65 180.45 330.5 180.45 330.45 180.35 328.9 178.8 327.4 177.2 327.25 177.2 327.2 177.1 326.05 175.9 324.75 174.85 324.6 174.85 324.5 174.75 322.6 173.05 320.65 171.3 320.5 171.3 320.4 171.2 319.6 170.7 318.85 170.1 318.7 170.1 318.6 170.05 315.65 167.85 312.65 165.7 312.5 165.7 312.4 165.65 309.4 163.9 306.45 162.15 306.3 162.15 306.2 162.1 303.8 160.95 301.45 159.8 301.3 159.8 301.2 159.7 300.85 159.5 300.55 159.2 300.4 159.2 300.25 159.15 297.75 158.15 295.25 157.15 295.1 157.15 294.95 157.05 292 155.8 288.75 154.75 288.6 154.75 288.45 154.7 286.8 154.2 284.9 153.9 284.75 153.9 284.65 153.85 283.45 153.45 282.25 153 282.1 153 281.95 152.95 279.7 152.6 277.55 152.1 277.4 152.1 277.25 152.1 274.55 151.55 271.6 151.2 271.5 151.2 271.35 151.2 269.5 150.85 267.2 150.95 267.05 150.95 266.9 150.95 259.15 151.15 252.15 150.65
L 252 150.65
Q 251.85 146.95 251.85 143.25 252 143.25 252.15 143.25 252.15 143.1 252.15 142.95 259.25 142.95 266.3 142.95 266.45 142.95 266.6 142.95 266.6 142.8 266.6 142.65 266.6 139.4 266.6 136.15 266.45 136.15 266.3 136.15 248.15 136.15 230 136.15 230 139.4 230 142.65 230 142.8 230 142.95 237.25 142.95 244.45 143.1
L 244.45 143.25
Q 245 146.55 244.6 150.6 244.6 150.65 244.45 150.65
L 244.45 150.8
Q 236.95 150.95 229.4 150.95 229.25 150.95 229.1 150.95 226.7 151 224.4 151.2 224.25 151.2 224.1 151.25 222.3 151.75 219.95 151.8
L 219.95 151.95
Q 216 152.6 212.6 153.6 212.45 153.6 212.3 153.6 212.15 153.6 212 153.6 212 153.75 211.95 153.75 209.3 154.4 206.7 155.05 206.7 155.2 206.65 155.2 203.75 156.15 201.05 157.15 201.05 157.25 201.05 157.3 197.85 158.35 195.15 159.8 195 159.8 194.9 159.85 192.15 161.5 188.95 162.75 188.95 162.9 188.9 162.95 186 164.6 183.05 166.3 183.05 166.4 183 166.45 180.3 168.35 177.45 170.1 177.45 170.25 177.4 170.35 176.65 171.1 175.7 171.6 175.7 171.75 175.6 171.8 173.5 173.4 171.55 175.15 171.55 175.3 171.5 175.3 170.05 176.3 168.9 177.5 168.9 177.65 168.8 177.7 167.25 179.2 165.65 180.75 165.65 180.9 165.55 180.95 164.3 182.2 163 183.4 163 183.55 162.9 183.65 161.4 185.5 159.75 187.25 159.75 187.4 159.65 187.45 158.8 188.5 157.95 189.6 157.95 189.75 157.9 189.85 155.6 192.7 153.55 195.8 153.55 195.95 153.45 196.05 152 198.25 150.6 200.5 150.6 200.65 150.6 200.8 150.6 200.95 150.5 201.05 149 203.5 147.65 206.15 147.65 206.3 147.6 206.4 147.5 206.55 147.35 206.7 147.35 206.85 147.3 207 145.9 210.15 144.4 213.2 144.4 213.35 144.35 213.5 143.05 217.2 141.75 220.9 141.75 221.05 141.7 221.2 141.4 222.65 140.85 223.85 140.85 224 140.85 224.15 140.85 224.3 140.85 224.45 140.85 224.6 140.8 224.7 140.15 227.4 139.4 230.05 139.4 230.2 139.4 230.35 139.4 230.5 139.35 230.65 139.1 232.85 138.5 234.75 138.5 235.35 138.5 235.95 138.5 236.1 138.5 236.25 138.5 236.4 138.45 236.55 138.2 238.05 137.9 239.5 137.9 240.8 137.9 242.15 137.9 242.3 137.9 242.45 137.9 247 137.9 251.6 137.9 251.75 137.9 251.9 138.25 253.15 139.4 253.6 139.5 253.65 139.65 253.65 166.1 253.65 192.5 253.65 218.95 253.65 245.35 253.65 271.75 253.65 298.2 253.65 324.6 253.65 351.05 253.65 354 253.65 356.95 253.65 357.1 253.65 357.25 253.65 358.15 253.1 358.65 252.15 358.7 252.05 358.7 251.9 358.7 251.75 358.7 251.6 358.7 247 358.7 242.45 358.7 242.3 358.7 242.15 358.7 242 358.7 241.85 358.65 238.8 358.1 236.25 358.1 236.1 358.1 235.95 357.7 233.1 357.25 230.35 357.25 230.2 357.2 230.05 356.4 227.3 355.75 224.45 355.75 224.3 355.7 224.15 354.75 221.15 354 217.95 353.85 217.95 353.8 217.9 352.85 215.2 351.9 212.6
L 351.75 212.6
Q 350.7 209.85 349.55 207.3 349.4 207.3 349.4 207.25 348.8 205.85 348.1 204.65 348.1 204.5 348 204.4 347.1 202.85 346.3 201.1 346.15 201.1 346.15 201.05 344.5 197.75 342.45 194.9 342.3 194.9 342.3 194.85 340.4 191.85 338.35 189 338.2 189 338.15 188.95 337.35 187.95 336.55 186.95 336.4 186.95 336.35 186.85 334.85 184.95 333.3 183.1
M 332.35 194.35
Q 332.45 194.45 332.45 194.6 336.85 200.1 340.35 206.45 340.4 206.55 340.4 206.7 341.55 208.5 342.4 210.6 342.45 210.7 342.45 210.85 344.2 214 345.4 217.65 345.4 217.8 345.4 217.95 346.75 220.85 347.75 224.15 347.8 224.3 347.8 224.45 348.1 225.6 348.35 226.8 348.35 226.95 348.35 227.1 348.9 228.45 349.25 230.05 349.25 230.2 349.25 230.35 349.9 232.65 350.15 235.35 350.15 235.5 350.15 235.65 350.95 238.4 351.05 241.85 351.05 242 351.05 242.15 351.05 242.45 351.05 242.75 351.05 242.9 351.05 243.05 351.55 244.3 351.35 246.25 351.35 246.4 351.35 246.55 327.8 247.1 303.5 247 277.1 246.85 250.65 246.85 224.25 246.85 197.8 246.95 171.2 247.1 145.3 246.55 145.3 246.4 145.3 246.25 145.3 244.65 145.3 243.05 145.75 243.05 145.6 242.4 145.55 242.3 145.55 242.15 145.55 242 145.55 241.85 145.55 240.8 145.55 239.8 146 238.3 146.15 236.55 146.15 236.4 146.15 236.25 146.15 236.1 146.15 235.95 146.15 235.8 146.15 235.65 146.9 233 147.35 230.05 147.35 229.9 147.35 229.75 147.35 229.6 147.35 229.45 148.3 227 148.95 224.15
L 149.1 224.15
Q 149.1 224 149.1 223.85 149.1 223.4 149.1 222.95 149.9 220.8 150.85 218.8 150.9 218.65 150.9 218.55 150.9 218.4 150.9 218.25 150.9 218.1 150.9 217.95 152.1 215.6 153.1 212.95 153.1 212.9 153.25 212.9 153.25 212.75 153.25 212.6 153.25 212.45 153.25 212.35 154.75 209.4 156.3 206.5 156.35 206.4 156.5 206.4 156.5 206.3 156.5 206.15 156.5 206 156.5 205.85 157.9 204 159 201.75 159 201.7 159.15 201.7 159.15 201.55 159.15 201.4 159.6 201.1 159.85 200.6 159.9 200.5 160.05 200.5 160.05 200.35 160.05 200.2 160.05 200.1 160.05 199.95 161.95 197.6 163.7 195 163.75 194.9 163.9 194.9 163.9 194.75 163.9 194.6 166.25 191.95 168.4 189.1 168.45 189 168.6 189 168.6 188.85 168.6 188.7 169.95 187.7 171.05 186.4 171.1 186.35 171.25 186.35 171.25 186.2 171.25 186.05 172.9 184.75 174.3 183.2 174.35 183.1 174.5 183.1 174.5 182.95 174.5 182.8 175.75 181.85 176.9 180.8 177 180.75 177.15 180.75 177.15 180.6 177.15 180.45 180 178.3 182.85 176.1 182.9 176 183.05 176 183.05 175.85 183.05 175.7 185.85 174.1 188.4 172.25 188.55 172.2 188.65 172.2 188.65 172.05 188.65 171.9 189.8 171.8 190.25 171.05 190.3 171 190.45 171 192.25 170 194.05 169 194.15 168.95 194.3 168.95 194.3 168.8 194.3 168.65 197.55 167.3 200.5 165.75 200.65 165.7 200.8 165.7 201.1 165.4 201.65 165.4 201.8 165.4 201.95 165.4 201.95 165.25 201.95 165.1 204.4 164.45 206.4 163.4 206.55 163.3 206.7 163.3 209.1 162.5 211.7 161.9 211.85 161.85 212 161.85 212 161.7 212 161.55 215.2 160.9 218.2 160.1 218.35 160.1 218.5 160.1 220.3 159.65 222.35 159.5 222.45 159.5 222.6 159.5 222.6 159.35 222.6 159.2 226.05 158.8 229.7 158.6 229.85 158.6 230 158.6 230 158.45 230 158.3 230 158.15 230 158 233.1 158 236.2 158 236.35 158 236.5 158 236.5 157.85 236.5 157.7 248.3 157.7 260.1 157.85
L 260.1 158
Q 263.35 158 266.6 158.15
L 266.6 158.3
Q 269.9 158.85 273.4 159.2 273.55 159.2 273.7 159.2 275.55 159.55 277.25 160.05 277.4 160.1 277.55 160.1 280.6 160.55 283.4 161.4 283.45 161.4 283.45 161.55 286.95 162.3 290.2 163.45
L 290.2 163.6
Q 292.4 164.1 294.1 165.05 294.2 165.1 294.35 165.1 294.75 165.45 295.5 165.55 295.55 165.55 295.55 165.7 298.4 166.8 301.1 168.15 301.15 168.2 301.15 168.35 303.8 169.65 306.4 171.1 306.45 171.15 306.45 171.3 306.6 171.45 306.8 171.55 306.9 171.6 307.05 171.6 310.05 173.6 313.15 175.55 313.25 175.55 313.25 175.7 313.9 176.25 314.65 176.7 314.7 176.75 314.7 176.9 317 178.5 319.1 180.25 319.15 180.3 319.15 180.45 320.5 181.45 321.75 182.6 321.8 182.65 321.8 182.8 323.45 184.3 325 185.85 325.05 185.9 325.05 186.05 326.4 187.25 327.65 188.5 327.7 188.55 327.7 188.7 329.3 190.5 330.9 192.3 330.95 192.4 330.95 192.55 331.75 193.4 332.35 194.35 Z"/>
</g>

<g id="Layer6_0_FILL">
<path fill="#000000" stroke="none" d="
M 279.25 173.05
Q 279.2 173.05 279.15 173.05 277.25 172.75 275.75 171.85 275.5 172.6 275.55 173.6 275.25 173.95 275.2 174.35 274.95 175.25 274.45 175.05 274.4 175.1 274.4 175.15 274.15 176 273.45 175.7 273.25 175.45 273.1 175.3 273 175.2 272.95 175.2 272.65 175.45 271.75 175.55 271.45 176 271.65 176.75 271.9 178.15 271.35 177.75 271 177.9 271.5 178.65 272 179.4 271.45 179.45 271.15 179.55 271 179.5 270.9 179.45 270.9 179.5 270.8 180.6 270.5 181.5 270.65 182.55 271.1 183.1
L 271.1 183.15 271.15 183.15
Q 271.55 184.4 271.4 185.3 271.25 189.9 269.1 193 268.35 194 267.6 195.05 263.9 200.7 258.85 205.35 253.85 210.05 245.1 212.05
L 245.1 212.1
Q 244.05 212.35 243 212.55 239.15 213.2 235.8 213.05 227.85 212.75 221.3 210.45 218 209.35 214.4 208.7 210.75 207.95 207.25 206.95 205.5 206.45 203.7 206.55 203.65 206.55 203.6 206.55 203.1 207.1 202.55 207.55 202.2 207.65 201.9 207.85 201.5 208.1 201.2 208.6 200.5 209.6 200.2 210.9 201.15 215.5 203.05 218.6 206.9 224.85 212.75 228.2 218.55 231.55 225.75 233 232.95 234.4 241.15 234.25 243.75 234.2 246.45 233.8 248.05 233.5 249.65 233.2 249.7 233.2 249.8 233.2 250.85 233 251.95 232.8 252 232.8 252.05 232.8 260.7 230.65 266.5 226.55 272.4 222.45 276.85 217.4 281.35 212.35 283.25 205.55 284.1 202.45 283.45 198.3
L 283.4 198.35
Q 283.2 197.3 282.8 196.45 282.35 195.1 281.75 194.1 279.85 191 278.85 186.75 278.85 186.7 278.85 186.65 278.65 185.65 278.5 184.7 278.55 184.7 278.6 184.7 278.6 184.65 278.6 184.55 278.4 182.3 279.9 181.2 279.9 181.15 279.95 181.1 279.95 177.9 279.45 174.4 279.45 174.35 279.5 174.35 279.9 173.7 279.25 173.05 Z"/>
</g>

<g id="Layer5_0_FILL">
<path fill="#FFFFFF" stroke="none" d="
M 273.2 168.95
Q 272.9 169.3 272.85 169.7 272.6 170.6 272.1 170.4 272.05 170.45 272.05 170.5 271.8 171.35 271.1 171.05 270.9 170.8 270.75 170.65 270.65 170.55 270.6 170.55 270.3 170.8 269.4 170.9 269.1 171.35 269.3 172.1 269.55 173.5 269 173.1 268.65 173.25 269.15 174 269.65 174.75 269.1 174.8 268.8 174.9 268.65 174.85 268.55 174.8 268.55 174.85 268.45 175.95 268.15 176.85 268.3 177.9 268.75 178.45
L 268.75 178.5 268.8 178.5
Q 269.2 179.75 269.05 180.65 268.9 185.25 266.75 188.35 266 189.35 265.25 190.4 261.55 196.05 256.5 200.7 251.5 205.4 242.75 207.4
L 242.75 207.45
Q 241.7 207.7 240.65 207.9 236.8 208.55 233.45 208.4 225.5 208.1 218.95 205.8 215.65 204.7 212.05 204.05 208.4 203.3 204.9 202.3 203.15 201.8 201.35 201.9 201.3 201.9 201.25 201.9 200.75 202.45 200.2 202.9 199.85 203 199.55 203.2 199.15 203.45 198.85 203.95 198.15 204.95 197.85 206.25 198.8 210.85 200.7 213.95 204.55 220.2 210.4 223.55 216.2 226.9 223.4 228.35 230.6 229.75 238.8 229.6 241.4 229.55 244.1 229.15 245.7 228.85 247.3 228.55 247.35 228.55 247.45 228.55 248.5 228.35 249.6 228.15 249.65 228.15 249.7 228.15 258.35 226 264.15 221.9 270.05 217.8 274.5 212.75 279 207.7 280.9 200.9 281.75 197.8 281.1 193.65
L 281.05 193.7
Q 280.85 192.65 280.45 191.8 280 190.45 279.4 189.45 277.5 186.35 276.5 182.1 276.5 182.05 276.5 182 276.3 181 276.15 180.05 276.2 180.05 276.25 180.05 276.25 180 276.25 179.9 276.05 177.65 277.55 176.55 277.55 176.5 277.6 176.45 277.6 173.25 277.1 169.75 277.1 169.7 277.15 169.7 277.55 169.05 276.9 168.4 276.85 168.4 276.8 168.4 274.9 168.1 273.4 167.2 273.15 167.95 273.2 168.95 Z"/>
</g>

<g id="Layer4_0_FILL">
<path fill="#FFFFFF" stroke="none" d="
M 357.45 256.4
Q 357.3 256.4 357.2 256.35 356 255.65 354.2 255.5 351.85 255.5 349.45 255.5 323.05 255.5 296.65 255.5 270.2 255.5 243.8 255.5 217.35 255.5 190.95 255.5 164.55 255.5 138.1 255.5 137.95 255.5 137.8 255.55 135.3 255.95 133.7 257.3 133.55 257.3 133.45 257.35 132.35 258.45 131.05 259.35 131.05 259.5 131.05 259.65 131.05 259.8 130.95 259.9 128.95 262 128.05 265.25 128.05 265.4 128.05 265.55 128.05 268.05 128.05 270.6 128.05 270.75 128.05 270.85 129.1 274.7 131.55 277.15 131.6 277.2 131.6 277.35 132.5 278.25 133.6 278.95 133.7 279 133.7 279.15 135.75 280.5 138.7 280.9 138.85 280.9 139 280.9 149.35 280.9 159.65 281.05
L 159.65 281.2
Q 159.65 281.35 159.7 281.5 159.85 282.15 159.35 282.1 159.35 282.55 159.35 283 159.35 283.15 159.35 283.25 159.35 283.4 159.3 283.55 159.2 283.7 159.05 283.85 159.05 286.1 159.35 288 159.35 288.15 159.35 288.3 160.7 292.25 163.7 294.6 163.8 294.65 163.8 294.8 166.95 297.7 170.2 300.5 170.3 300.55 170.3 300.7 173.35 303.5 176.4 306.35 176.5 306.45 176.5 306.6 178.85 308.5 181.15 310.5 181.2 310.6 181.2 310.75 182.1 311.45 182.9 312.3 183 312.35 183 312.5 185.15 314.15 187.05 316.1 187.1 316.2 187.1 316.35 188.45 317.05 189.4 318.15 189.5 318.25 189.5 318.4 191.2 319.9 192.95 321.45 193 321.5 193 321.65 194.4 322.95 195.9 324.1 195.95 324.15 195.95 324.3 197.25 325.65 198.85 326.75 198.9 326.8 198.9 326.95 200.5 328.6 202.4 330 202.45 330.05 202.45 330.2 203.65 331.25 204.75 332.35 204.85 332.4 204.85 332.55 206.9 334.05 208.6 335.9 208.65 335.95 208.65 336.1 209.75 336.8 210.65 337.65 210.75 337.75 210.75 337.9 212.95 339.8 215.1 341.8 215.15 341.85 215.15 342 215.35 342.2 215.55 342.4 216.1 342.9 216.85 343.3 216.95 343.35 216.95 343.5 219.2 345.65 221.6 347.7 221.65 347.75 221.65 347.9 222.1 348.2 222.45 348.6 222.55 348.65 222.55 348.8 225.45 351.35 228.35 353.9 228.45 353.95 228.45 354.1 229.25 354.75 230.15 355.35 231.8 356.45 233.8 357.3 233.9 357.35 234.05 357.35 235.4 358.1 237.3 358.25 237.45 358.25 237.6 358.25 264 358.25 290.45 358.1 299.95 358.05 308.75 358.55 309.25 361.55 309.05 365.35 309.05 365.5 309.05 365.65 312.4 365.65 315.8 365.65 315.95 365.65 316.1 365.65 316.1 365.5 316.1 365.35 316.1 338.9 316.1 312.5 316.25 312.5 316.4 312.5 317.5 309.2 319.45 306.65 319.5 306.6 319.65 306.6 319.65 306.45 319.65 306.3 320.9 305.6 322.05 304.9 322.15 304.8 322.3 304.8 322.3 304.65 322.3 304.55 323.7 303.85 325.55 303.5
L 325.55 303.35
Q 325.55 303.2 325.55 303.05 344.45 303.05 363.35 303.05 363.5 303.05 363.65 303.05 363.65 302.9 363.65 302.75 363.65 299.35 363.65 295.95 363.5 295.95 363.35 295.95 344.15 295.95 324.95 295.95 324.8 295.95 324.7 295.95 323.45 295.9 322.6 296.25 322.45 296.25 322.35 296.3 319.2 297.3 316.7 298.9 316.7 299.05 316.65 299.1 315.2 299.95 314.05 301 314.05 301.15 313.95 301.2 312.25 303.15 310.8 305.4 310.8 305.55 310.75 305.7 310.65 306.3 310.2 306.6 310.2 306.75 310.2 306.9 310.2 307.05 310.15 307.15 309.45 308.65 309.05 310.45 308.9 310.45 308.75 310.45 306.8 310.45 304.9 310.45 304.75 310.45 304.65 310.35 303.3 309.55 303.15 307.5 303 307.5 302.95 307.45 301.65 304.25 300.45 301 300.3 301 300.3 300.95 299.6 299.05 299 297.15 298.85 297.15 298.8 297.1 297.3 293.5 296.05 289.75 295.9 289.75 295.9 289.7 294.55 286.5 293.4 283.25 293.25 283.25 293.2 283.25 293.1 282.85 293.1 282.4 292.95 282.4 292.9 282.35 292.65 281.8 292.5 281.2 292.5 281.05 292.5 280.9 318.9 280.9 345.35 280.9 349.3 280.9 353.3 280.9 355.8 280.75 357.45 279.8 357.6 279.75 357.75 279.75 357.75 279.6 357.75 279.45 359.6 278.65 360.8 277.15 360.85 277.05 361 277.05 361 276.95 361 276.8 362.7 275.1 363.6 272.65 363.65 272.5 363.65 272.35 363.65 272.2 363.65 272.05 363.65 271.9 363.65 271.75 363.65 267.9 363.65 264.1 363.65 263.95 363.65 263.8 363.65 263.65 363.6 263.5 362.75 261.6 361.6 259.95 361.45 259.95 361.4 259.9 359.8 257.75 357.45 256.4
M 351.85 262.95
Q 352 262.9 352.15 262.9 354.7 263.45 355.9 265.3 355.95 265.4 355.95 265.55 355.95 265.7 356.05 265.85 357.45 269.05 355.4 271.45 355.4 271.6 355.3 271.7 354.35 272.95 352.4 273.25 352.4 273.4 352.4 273.55 352.05 274.05 350.95 274.05 324.55 273.85 298.1 273.85 271.7 273.85 245.25 273.85 218.85 273.85 192.45 273.95 165.8 274.05 139.9 273.55
L 139.9 273.4
Q 139.1 273.45 139 272.95 138.85 272.95 138.7 272.9 137.7 272.65 137.25 271.75 137.1 271.75 137 271.7 135.45 270 135.75 266.45 136.3 266.1 136.5 265.3 136.5 265.25 136.65 265.25 136.65 265.1 136.65 264.95 137.55 263.8 139 263.25 139.15 263.2 139.3 263.2 139.3 263.05 139.3 262.9 140.2 262.9 141.05 262.75
L 141.05 262.6
Q 141.05 262.45 141.05 262.3 167.5 262.3 193.9 262.3 220.3 262.3 246.75 262.3 273.15 262.3 299.6 262.2 325.8 262.1 351.25 262.6 351.2 263.1 351.85 262.95
M 247.9 281.2
Q 247.9 281.05 247.9 280.9 258.1 280.9 268.3 281.05
L 268.3 281.2
Q 268.8 296.2 268.45 311.9
L 268.3 311.9
Q 268.15 311.9 268.05 311.95 267.1 312.5 265.95 312.8 265.95 312.95 265.85 312.95 264.75 313.55 263.55 313.95 263.55 314.1 263.5 314.15 260.9 315.45 258.25 316.65 258.25 316.8 258.2 316.8 255.9 317.85 253.85 319 253.7 319 253.55 319.05 250.3 320.75 247.05 322.55 246.9 322.55 246.9 322.5 246.75 320.6 246.75 318.7 246.75 318.55 246.75 318.4 246.75 317.8 246.75 317.2 246.75 317.05 246.75 316.95 246.75 314.1 246.75 311.3 246.9 311.3 247.05 311.3 247.05 311.15 247.05 311 247.05 308.2 247.05 305.4 247.2 305.4 247.35 305.4 247.35 305.25 247.35 305.1 247.35 302.3 247.35 299.5 247.5 299.5 247.65 299.5 247.65 299.35 247.65 299.2 247.65 296.25 247.65 293.3 247.8 293.3 247.9 293.3 247.9 293.15 247.9 293 247.9 290.2 247.9 287.4 248.05 287.4 248.2 287.4 248.75 285.85 248.55 283.55 248.5 283.4 248.5 283.25
L 248.35 283.25
Q 248.25 282.05 247.9 281.2
M 275.65 281.2
Q 275.65 281.05 275.65 280.9 279.95 280.9 284.25 281.05
L 284.25 281.2
Q 284.4 281.8 284.5 282.4 284.55 282.55 284.55 282.7 286 285.6 287.15 288.9 287.2 289.05 287.2 289.2 288.45 291.9 289.5 294.8 289.55 294.95 289.55 295.1 290.75 297.45 291.55 300.1 291.6 300.25 291.6 300.4 292.5 302.15 293.35 303.95 293.4 304.1 293.4 304.25 293.7 305.1 293.95 306 294 306.15 294 306.3 295.45 309.25 296.6 312.5 296.65 312.65 296.65 312.8 297.65 315 298.8 317.15 298.85 317.2 299 317.2 299.4 317.7 300.15 317.8 300.3 317.8 300.45 317.8 304.6 317.8 308.75 317.95
L 308.75 318.1
Q 309.25 334.25 308.9 351.15
L 308.75 351.15
Q 301.45 351.7 293.4 351.7 266.75 351.7 240.85 351.15 240.85 351 240.8 351 240.4 350.85 239.95 350.85 239.8 350.85 239.65 350.85 235.85 350.4 233.75 348.2 233.6 348.2 233.55 348.15 231.85 346.6 230.15 345 228.75 343.7 227.35 342.4 227.3 342.35 227.25 342.3 227.1 342.3 227.05 342.25 224.55 340 222.25 337.6 222.1 337.6 222 337.5 219.15 334.95 216.35 332.3 216.2 332.3 216.1 332.2 215.3 331.4 214.55 330.5 214.4 330.5 214.35 330.45 212.35 328.75 210.45 326.95 210.3 326.95 210.2 326.9 209.1 325.8 208.05 324.6 207.95 324.6 207.85 324.55 206.05 323.1 204.55 321.35 204.4 321.35 204.3 321.3 202.9 320.05 201.6 318.7 201.45 318.7 201.35 318.6 200.05 317.3 198.65 316.05 198.5 316.05 198.4 315.95 196.85 314.3 195.1 312.8 194.95 312.8 194.85 312.7 193.75 311.6 192.7 310.45 192.6 310.45 192.5 310.35 190.5 308.65 188.6 306.9 188.45 306.9 188.35 306.8 187.55 306 186.8 305.1 186.65 305.1 186.6 305.05 184.4 303.15 182.4 301 182.25 301 182.15 300.9 181.5 300.4 180.9 299.8 180.75 299.8 180.7 299.75 178.3 297.4 175.9 295.1 175.75 295.1 175.7 295 175.3 294.65 175 294.2 174.85 294.2 174.75 294.1 172 291.75 169.4 289.2 169.25 289.2 169.2 289.1 169.1 289.05 169.1 288.9 168.95 288.9 168.85 288.8 166.9 287.5 166.75 284.45 167.35 283.15 168.3 282.15 168.35 282.1 168.5 282.1 168.5 281.95 168.5 281.8 172.15 280.45 174.35 283.05 174.4 283.15 174.4 283.25 174.7 283.4 174.95 283.65 175 283.7 175 283.85 178.05 286.3 180.85 288.95 180.9 289.05 180.9 289.2 184.05 291.75 187.05 294.55 187.1 294.65 187.1 294.8 190.45 297.5 193.55 300.45 193.6 300.55 193.6 300.7 196.3 302.85 198.85 305.2 198.9 305.25 198.9 305.4 199.7 305.8 200.2 306.5 200.25 306.6 200.4 306.6 202.45 308.65 204.75 310.5 204.85 310.6 204.85 310.75 205.7 311.65 206.85 312.3 206.9 312.35 206.9 312.5 208.7 314.2 210.65 315.85 210.75 315.9 210.75 316.05 211.9 317.2 213.3 318.2 213.4 318.25 213.4 318.4 214.9 319.85 216.55 321.15 216.65 321.2 216.65 321.35 218.1 322.8 219.8 324.1 219.9 324.15 219.9 324.3 221.05 325.5 222.45 326.5 222.55 326.5 222.55 326.65 224.35 328.4 226.3 330 226.4 330.05 226.4 330.2 227.25 331.1 228.4 331.8 228.45 331.85 228.45 332 230.8 333.9 232.95 336.05 233 336.1 233.15 336.1 233.45 336.25 233.75 336.35 233.9 336.4 234.05 336.4 235.25 336.4 236.4 336.4 236.55 336.4 236.7 336.4 236.7 336.25 236.7 336.1 238.45 335.65 239.7 334.7 239.8 334.65 239.95 334.65 242.6 333.3 245.3 332.05 245.4 332 245.55 332 245.55 331.85 245.55 331.7 247.3 331.2 248.55 330.3 248.65 330.2 248.8 330.2 250 329.6 251.2 329.1 251.3 329.05 251.45 329.05 251.45 328.9 251.45 328.75 254.65 327.5 257.4 325.85 257.5 325.8 257.65 325.8 258.85 325.2 260.05 324.65 260.2 324.6 260.3 324.6 260.3 324.45 260.3 324.3 262.05 323.8 263.3 322.9 263.4 322.85 263.55 322.85 266.25 321.5 268.9 320.25 269.05 320.15 269.2 320.15 269.2 320.05 269.2 319.9 270.9 319.4 272.15 318.5 272.3 318.4 272.45 318.4 273.8 317.7 275 316.8 275.1 316.8 275.1 316.65 275.1 316.5 275.1 316.35 275.25 316.2 275.3 316 275.4 315.9 275.4 315.75 275.4 315.6 275.4 315.45 275.4 298.35 275.4 281.2 275.55 281.2 275.65 281.2
M 195.1 281.05
L 195.1 281.2
Q 195.1 281.35 195.05 281.5 194.85 282.3 194.5 283 194.5 283.15 194.5 283.25 194.35 286.4 194.75 288.9 194.8 289.05 194.8 289.2 195.4 289.9 195.6 290.95
L 195.7 291.5
Q 194.5 291.05 192.7 289.2 192.6 289.2 192.5 289.1 189.65 286.2 186.5 283.55 186.4 283.55 186.3 283.5 185.2 282.4 184.15 281.2 184.15 281.05 184.15 280.9 189.6 280.9 195.1 281.05
M 202.15 286.8
Q 202.15 286.65 202.15 286.5 202.15 285.2 202.15 283.85 202.95 283 203.7 282.15 203.8 282.1 203.95 282.1 203.95 281.95 203.95 281.8 207.3 280.5 209.2 283.05 209.25 283.15 209.25 283.25 210.1 283.9 210.4 285.05 210.45 285.2 210.45 285.35 211.65 286.9 212.45 288.9 212.5 289.05 212.5 289.2 214.1 291.55 215.4 294.2 215.45 294.35 215.45 294.5 216.05 295.4 216.55 296.3 216.65 296.4 216.65 296.55 217.7 298.3 218.65 300.15 218.7 300.25 218.7 300.4 220.45 303.5 222.2 306.6 222.25 306.75 222.25 306.9 223.8 309.75 225.45 312.55 225.5 312.65 225.5 312.8 226.85 315.1 228.1 317.55 228.15 317.65 228.15 317.8 230.05 320.85 231.8 324.2 230.2 323.2 228.2 321.3 228.15 321.2 228.15 321.05 228 321.05 227.9 321 226.65 319.9 225.5 318.7 225.35 318.7 225.25 318.6 223.7 317.2 222.25 315.75 222.1 315.75 222 315.65 220.45 314.25 219 312.8 218.85 312.8 218.75 312.7 217.5 311.6 216.35 310.45 216.2 310.45 216.1 310.35 214.25 308.65 212.5 306.9 212.35 306.9 212.25 306.8 211.3 306 210.45 305.1 210.3 305.1 210.2 305.05 208.35 303.5 207.5 301 207.5 300.85 207.4 300.7 206.3 298 205.4 295.1 205.4 294.95 205.35 294.8 204.7 293.55 204.25 292.15 204.25 292 204.2 291.85 203.85 291.05 203.65 290.05
L 203.5 290.05
Q 203.15 288.05 202.15 286.8
M 217.2 281.2
Q 217.2 281.05 217.2 280.9 221.8 280.9 226.4 281.05
L 226.4 281.2
Q 226.4 281.35 226.4 281.5 226.55 282.15 226.1 282.1 226.1 282.55 226.1 283 226.1 283.15 226.1 283.25 226.1 283.4 226.05 283.55 225.8 285.5 225.5 287.4 225.5 288.15 225.5 288.9 225.5 289.05 225.5 289.2 225.5 289.3 225.5 289.45 225.35 292.45 224.9 295.1 224.75 295.1 224.7 295 223.15 292.15 221.65 289.2 221.5 289.2 221.45 289.1 219.95 286.45 218.7 283.55 218.55 283.55 218.5 283.5 217.8 282.4 217.2 281.2
M 239.9 282.5
Q 239.95 282.55 239.95 282.7 241.45 285.1 240.55 288.9 240.55 289.05 240.55 289.2 240.55 291.1 240.55 293 240.55 293.15 240.55 293.3 240.55 293.45 240.55 293.6 240.75 296.8 240.25 299.2 240.25 299.35 240.25 299.5 240.45 302.7 239.95 305.1 239.8 305.1 239.65 305.1 239.65 305.85 239.65 306.6 239.65 306.75 239.65 306.9 239.65 308.8 239.65 310.75 239.65 310.85 239.65 311 239.65 311.15 239.65 311.3 239.9 314.65 239.35 317.2 239.2 317.2 239.05 317.2 239.05 317.8 239.05 318.4 239.05 318.55 239.05 318.7 239.05 318.85 239.05 319 238.95 322.35 237.6 318.7 237.6 318.55 237.5 318.45 235.85 316 234.65 313.1 234.5 313.1 234.5 313.05 234.15 312.2 233.75 311.6 233.75 311.45 233.7 311.4 232.15 309.7 231.7 306.9 231.85 306.9 232 306.9 232 306.75 232 306.6 232 304.8 232 303.05 232.5 302.5 232.3 301.3 232.3 301.15 232.3 301 232.3 300.85 232.3 300.7 232.3 299.95 232.3 299.2 232.55 297.3 232.85 295.4 232.85 295.25 232.85 295.1 232.85 294.95 232.85 294.8 232.85 293.15 232.85 291.55 233.4 290.85 233.2 289.45 233.15 289.3 233.15 289.2 233.15 289.05 233.15 288.9 233.15 288.45 233.15 288 233.45 285.95 233.75 283.85 233.75 283.7 233.75 283.55 233.75 283.4 233.75 283.25 233.9 283.15 234.1 283.05 234.2 283 234.35 283 234.35 282.85 234.35 282.7 234.35 282.55 234.35 282.4 237.15 280.15 239.9 282.5
M 325.25 171.1
Q 325.1 171.1 325.05 171 323.9 169.8 322.6 168.75 322.45 168.75 322.35 168.65 320.45 166.95 318.5 165.2 318.35 165.2 318.25 165.1 317.45 164.6 316.7 164 316.55 164 316.45 163.95 313.5 161.75 310.5 159.6 310.35 159.6 310.25 159.55 307.25 157.8 304.3 156.05 304.15 156.05 304.05 156 301.65 154.85 299.3 153.7 299.15 153.7 299.05 153.6 298.7 153.4 298.4 153.1 298.25 153.1 298.1 153.05 295.6 152.05 293.1 151.05 292.95 151.05 292.8 150.95 289.85 149.7 286.6 148.65 286.45 148.65 286.3 148.6 284.65 148.1 282.75 147.8 282.6 147.8 282.5 147.75 281.3 147.35 280.1 146.9 279.95 146.9 279.8 146.85 277.55 146.5 275.4 146 275.25 146 275.1 146 272.4 145.45 269.45 145.1 269.35 145.1 269.2 145.1 267.35 144.75 265.05 144.85 264.9 144.85 264.75 144.85 257 145.05 250 144.55
L 249.85 144.55
Q 249.7 140.85 249.7 137.15 249.85 137.15 250 137.15 250 137 250 136.85 257.1 136.85 264.15 136.85 264.3 136.85 264.45 136.85 264.45 136.7 264.45 136.55 264.45 133.3 264.45 130.05 264.3 130.05 264.15 130.05 246 130.05 227.85 130.05 227.85 133.3 227.85 136.55 227.85 136.7 227.85 136.85 235.1 136.85 242.3 137
L 242.3 137.15
Q 242.85 140.45 242.45 144.5 242.45 144.55 242.3 144.55
L 242.3 144.7
Q 234.8 144.85 227.25 144.85 227.1 144.85 226.95 144.85 224.55 144.9 222.25 145.1 222.1 145.1 221.95 145.15 220.15 145.65 217.8 145.7
L 217.8 145.85
Q 213.85 146.5 210.45 147.5 210.3 147.5 210.15 147.5 210 147.5 209.85 147.5 209.85 147.65 209.8 147.65 207.15 148.3 204.55 148.95 204.55 149.1 204.5 149.1 201.6 150.05 198.9 151.05 198.9 151.15 198.9 151.2 195.7 152.25 193 153.7 192.85 153.7 192.75 153.75 190 155.4 186.8 156.65 186.8 156.8 186.75 156.85 183.85 158.5 180.9 160.2 180.9 160.3 180.85 160.35 178.15 162.25 175.3 164 175.3 164.15 175.25 164.25 174.5 165 173.55 165.5 173.55 165.65 173.45 165.7 171.35 167.3 169.4 169.05 169.4 169.2 169.35 169.2 167.9 170.2 166.75 171.4 166.75 171.55 166.65 171.6 165.1 173.1 163.5 174.65 163.5 174.8 163.4 174.85 162.15 176.1 160.85 177.3 160.85 177.45 160.75 177.55 159.25 179.4 157.6 181.15 157.6 181.3 157.5 181.35 156.65 182.4 155.8 183.5 155.8 183.65 155.75 183.75 153.45 186.6 151.4 189.7 151.4 189.85 151.3 189.95 149.85 192.15 148.45 194.4 148.45 194.55 148.45 194.7 148.45 194.85 148.35 194.95 146.85 197.4 145.5 200.05 145.5 200.2 145.45 200.3 145.35 200.45 145.2 200.6 145.2 200.75 145.15 200.9 143.75 204.05 142.25 207.1 142.25 207.25 142.2 207.4 140.9 211.1 139.6 214.8 139.6 214.95 139.55 215.1 139.25 216.55 138.7 217.75 138.7 217.9 138.7 218.05 138.7 218.2 138.7 218.35 138.7 218.5 138.65 218.6 138 221.3 137.25 223.95 137.25 224.1 137.25 224.25 137.25 224.4 137.2 224.55 136.95 226.75 136.35 228.65 136.35 229.25 136.35 229.85 136.35 230 136.35 230.15 136.35 230.3 136.3 230.45 136.05 231.95 135.75 233.4 135.75 234.7 135.75 236.05 135.75 236.2 135.75 236.35 135.75 240.9 135.75 245.5 135.75 245.65 135.75 245.8 136.1 247.05 137.25 247.5 137.35 247.55 137.5 247.55 163.95 247.55 190.35 247.55 216.8 247.55 243.2 247.55 269.6 247.55 296.05 247.55 322.45 247.55 348.9 247.55 351.85 247.55 354.8 247.55 354.95 247.55 355.1 247.55 356 247 356.5 246.05 356.55 245.95 356.55 245.8 356.55 245.65 356.55 245.5 356.55 240.9 356.55 236.35 356.55 236.2 356.55 236.05 356.55 235.9 356.55 235.75 356.5 232.7 355.95 230.15 355.95 230 355.95 229.85 355.55 227 355.1 224.25 355.1 224.1 355.05 223.95 354.25 221.2 353.6 218.35 353.6 218.2 353.55 218.05 352.6 215.05 351.85 211.85 351.7 211.85 351.65 211.8 350.7 209.1 349.75 206.5
L 349.6 206.5
Q 348.55 203.75 347.4 201.2 347.25 201.2 347.25 201.15 346.65 199.75 345.95 198.55 345.95 198.4 345.85 198.3 344.95 196.75 344.15 195 344 195 344 194.95 342.35 191.65 340.3 188.8 340.15 188.8 340.15 188.75 338.25 185.75 336.2 182.9 336.05 182.9 336 182.85 335.2 181.85 334.4 180.85 334.25 180.85 334.2 180.75 332.7 178.85 331.15 177 331 177 330.95 176.95 329.7 175.65 328.5 174.35 328.35 174.35 328.3 174.25 326.75 172.7 325.25 171.1
M 325.5 182.4
Q 325.55 182.45 325.55 182.6 327.15 184.4 328.75 186.2 328.8 186.3 328.8 186.45 329.6 187.3 330.2 188.25 330.3 188.35 330.3 188.5 334.7 194 338.2 200.35 338.25 200.45 338.25 200.6 339.4 202.4 340.25 204.5 340.3 204.6 340.3 204.75 342.05 207.9 343.25 211.55 343.25 211.7 343.25 211.85 344.6 214.75 345.6 218.05 345.65 218.2 345.65 218.35 345.95 219.5 346.2 220.7 346.2 220.85 346.2 221 346.75 222.35 347.1 223.95 347.1 224.1 347.1 224.25 347.75 226.55 348 229.25 348 229.4 348 229.55 348.8 232.3 348.9 235.75 348.9 235.9 348.9 236.05 348.9 236.35 348.9 236.65 348.9 236.8 348.9 236.95 349.4 238.2 349.2 240.15 349.2 240.3 349.2 240.45 325.65 241 301.35 240.9 274.95 240.75 248.5 240.75 222.1 240.75 195.65 240.85 169.05 241 143.15 240.45 143.15 240.3 143.15 240.15 143.15 238.55 143.15 236.95 143.6 236.95 143.45 236.3 143.4 236.2 143.4 236.05 143.4 235.9 143.4 235.75 143.4 234.7 143.4 233.7 143.85 232.2 144 230.45 144 230.3 144 230.15 144 230 144 229.85 144 229.7 144 229.55 144.75 226.9 145.2 223.95 145.2 223.8 145.2 223.65 145.2 223.5 145.2 223.35 146.15 220.9 146.8 218.05
L 146.95 218.05
Q 146.95 217.9 146.95 217.75 146.95 217.3 146.95 216.85 147.75 214.7 148.7 212.7 148.75 212.55 148.75 212.45 148.75 212.3 148.75 212.15 148.75 212 148.75 211.85 149.95 209.5 150.95 206.85 150.95 206.8 151.1 206.8 151.1 206.65 151.1 206.5 151.1 206.35 151.1 206.25 152.6 203.3 154.15 200.4 154.2 200.3 154.35 200.3 154.35 200.2 154.35 200.05 154.35 199.9 154.35 199.75 155.75 197.9 156.85 195.65 156.85 195.6 157 195.6 157 195.45 157 195.3 157.45 195 157.7 194.5 157.75 194.4 157.9 194.4 157.9 194.25 157.9 194.1 157.9 194 157.9 193.85 159.8 191.5 161.55 188.9 161.6 188.8 161.75 188.8 161.75 188.65 161.75 188.5 164.1 185.85 166.25 183 166.3 182.9 166.45 182.9 166.45 182.75 166.45 182.6 167.8 181.6 168.9 180.3 168.95 180.25 169.1 180.25 169.1 180.1 169.1 179.95 170.75 178.65 172.15 177.1 172.2 177 172.35 177 172.35 176.85 172.35 176.7 173.6 175.75 174.75 174.7 174.85 174.65 175 174.65 175 174.5 175 174.35 177.85 172.2 180.7 170 180.75 169.9 180.9 169.9 180.9 169.75 180.9 169.6 183.7 168 186.25 166.15 186.4 166.1 186.5 166.1 186.5 165.95 186.5 165.8 187.65 165.7 188.1 164.95 188.15 164.9 188.3 164.9 190.1 163.9 191.9 162.9 192 162.85 192.15 162.85 192.15 162.7 192.15 162.55 195.4 161.2 198.35 159.65 198.5 159.6 198.65 159.6 198.95 159.3 199.5 159.3 199.65 159.3 199.8 159.3 199.8 159.15 199.8 159 202.25 158.35 204.25 157.3 204.4 157.2 204.55 157.2 206.95 156.4 209.55 155.8 209.7 155.75 209.85 155.75 209.85 155.6 209.85 155.45 213.05 154.8 216.05 154 216.2 154 216.35 154 218.15 153.55 220.2 153.4 220.3 153.4 220.45 153.4 220.45 153.25 220.45 153.1 223.9 152.7 227.55 152.5 227.7 152.5 227.85 152.5 227.85 152.35 227.85 152.2 227.85 152.05 227.85 151.9 230.95 151.9 234.05 151.9 234.2 151.9 234.35 151.9 234.35 151.75 234.35 151.6 246.15 151.6 257.95 151.75
L 257.95 151.9
Q 261.2 151.9 264.45 152.05
L 264.45 152.2
Q 267.75 152.75 271.25 153.1 271.4 153.1 271.55 153.1 273.4 153.45 275.1 153.95 275.25 154 275.4 154 278.45 154.45 281.25 155.3 281.3 155.3 281.3 155.45 284.8 156.2 288.05 157.35
L 288.05 157.5
Q 290.25 158 291.95 158.95 292.05 159 292.2 159 292.6 159.35 293.35 159.45 293.4 159.45 293.4 159.6 296.25 160.7 298.95 162.05 299 162.1 299 162.25 301.65 163.55 304.25 165 304.3 165.05 304.3 165.2 304.45 165.35 304.65 165.45 304.75 165.5 304.9 165.5 307.9 167.5 311 169.45 311.1 169.45 311.1 169.6 311.75 170.15 312.5 170.6 312.55 170.65 312.55 170.8 314.85 172.4 316.95 174.15 317 174.2 317 174.35 318.35 175.35 319.6 176.5 319.65 176.55 319.65 176.7 321.3 178.2 322.85 179.75 322.9 179.8 322.9 179.95 324.25 181.15 325.5 182.4 Z"/>
</g>

<g id="Layer2_0_FILL">
<path fill="#E91B02" fill-opacity="0" stroke="none" d="
M 464.25 253.6
Q 464.25 165.55 402 103.3 339.8 41.1 251.75 41.1 163.7 41.1 101.45 103.3 39.2 165.55 39.2 253.6 39.2 341.65 101.45 403.85 163.7 466.1 251.75 466.1 339.8 466.1 402 403.85 464.25 341.65 464.25 253.6 Z"/>
</g>

<g id="Layer0_0_FILL">
<path fill="#000000" fill-opacity="0.00392156862745098" stroke="none" d="
M 475.4 151.6
Q 457.3890625 108.0890625 421.35 72.05 349.25 -0.05 247.25 -0.05 145.25 -0.05 73.15 72.05 1.05 144.15 1.05 246.15 1.05 348.15 73.15 420.25 86.1396484375 433.2396484375 100.1 443.9 88.0810546875 434.3810546875 76.8 423.1 5.05 351.35 5.05 249.85 5.05 148.35 76.8 76.6 148.55 4.85 250.1 4.85 351.6 4.85 423.35 76.6 457.5068359375 110.733203125 475.4 151.6 Z"/>
</g>

<path id="Layer8_0_1_STROKES" stroke="#333333" stroke-opacity="0" stroke-width="8" stroke-linejoin="round" stroke-linecap="round" fill="none" d="
M 102.55 70.35
Q 124.528515625 29.35 153.1 29.35 166.4 29.35 178.3 38.25
M 66.225 276.95
Q 65.8 265.4693359375 65.8 253.55 65.8 160.7 91.35 95 96.716796875 81.237109375 102.55 70.35
M 213.25 415.95
Q 211.81484375 419.4833984375 210.35 422.825"/>

<path id="Layer2_0_1_STROKES" stroke="url(#Gradient_6)" stroke-width="40" stroke-linejoin="round" stroke-linecap="round" fill="none" d="
M 353.65 445.9
Q 270.65 489.25 181.65 461.7 92.65 434.25 49.7 351.95 6.8 269.75 35.1 180.95 63.4 92.2 146.4 48.85 229.5 5.5 318.55 33.05 407.6 60.55 450.5 142.75 493.45 225.05 465.1 313.8 436.75 402.55 353.65 445.9 Z"/>

<path id="Layer1_0_1_STROKES" stroke="url(#Gradient_7)" stroke-width="10" stroke-linejoin="round" stroke-linecap="round" fill="none" d="
M 338.15 433.6
Q 261.5 469.85 181.3 441.05 101.1 412 64.7 335.1 28.3 258 56.8 177.7 85.35 97.4 162.05 61.15 238.85 24.85 319.15 53.65 399.15 82.45 435.65 159.7 472.1 236.75 443.65 317 414.9 397.3 338.15 433.6 Z"/>

<path id="Layer0_0_1_STROKES" stroke="url(#Gradient_8)" stroke-width="10" stroke-linejoin="round" stroke-linecap="round" fill="none" d="
M 475.425 151.6
Q 495.15 196.6359375 495.15 249.85 495.15 351.35 423.35 423.1 351.6 494.85 250.1 494.85 164.51640625 494.85 100.1 443.9 88.0810546875 434.3810546875 76.8 423.1 5.05 351.35 5.05 249.85 5.05 148.35 76.8 76.6 148.55 4.85 250.1 4.85 351.6 4.85 423.35 76.6 457.5068359375 110.733203125 475.425 151.6 Z"/>
</defs>

<g transform="matrix( 1, 0, 0, 1, 0,0) ">
<use xlink:href="#Layer10_0_FILL"/>
</g>

<g transform="matrix( 1, 0, 0, 1, 0,0) ">
<use xlink:href="#Layer9_0_FILL"/>
</g>

<g transform="matrix( 1, 0, 0, 1, 0,0) ">
<use xlink:href="#Layer8_0_FILL"/>

<use xlink:href="#Layer8_0_1_STROKES"/>
</g>

<g transform="matrix( 1, 0, 0, 1, 0,0) ">
<use xlink:href="#Layer7_0_FILL"/>
</g>

<g transform="matrix( 1, 0, 0, 1, 0,0) ">
<use xlink:href="#Layer6_0_FILL"/>
</g>

<g transform="matrix( 1, 0, 0, 1, 0,0) ">
<use xlink:href="#Layer5_0_FILL"/>
</g>

<g transform="matrix( 1, 0, 0, 1, 0,0) ">
<use xlink:href="#Layer4_0_FILL"/>
</g>

<g transform="matrix( 1, 0, 0, 1, 0,0) ">
<use xlink:href="#Layer2_0_FILL"/>

<use xlink:href="#Layer2_0_1_STROKES"/>
</g>

<g transform="matrix( 1, 0, 0, 1, 0,0) ">
<use xlink:href="#Layer1_0_1_STROKES"/>
</g>

<g transform="matrix( 1, 0, 0, 1, 0,0) ">
<use xlink:href="#Layer0_0_FILL"/>

<use xlink:href="#Layer0_0_1_STROKES"/>
</g>
</svg>
