
<svg xmlns="http://www.w3.org/2000/svg" version="1.1" xmlns:xlink="http://www.w3.org/1999/xlink" preserveAspectRatio="none" x="0px" y="0px" width="500px" height="500px" viewBox="0 0 500 500">
<defs>
<g id="Layer12_0_FILL">
<path fill="#0099CC" stroke="none" d="
M 429.2 67.25
Q 399.45 37.8 357.3 37.8
L 133.85 37.8
Q 91.7 37.8 61.9 67.25 32.15 96.8 32.15 138.6
L 32.15 360.1
Q 32.15 401.9 61.9 431.4 91.7 460.95 133.85 460.95
L 357.3 460.95
Q 399.45 460.95 429.2 431.4 459 401.9 459 360.1
L 459 138.6
Q 459 96.8 429.2 67.25 Z"/>
</g>

<g id="Layer7_0_FILL">
<path fill="#000000" fill-opacity="0.38823529411764707" stroke="none" d="
M 375 408
Q 375.5 408 375.5 407.95 376.75 393.75 375 382 375 394.5 375 407 375 407.5 375 408 Z"/>

<path fill="#000000" fill-opacity="0.07450980392156863" stroke="none" d="
M 183 438
Q 183.5 438 184 438 184 437.5 183.95 437.5 171.95 436.55 161 435 161 434.5 160.75 434.3 157.25 431.25 155 432 154.5 432 154.25 432.25 148.25 438.75 134 437 134 437.5 134 438 158.5 438 183 438 Z"/>

<path fill="#3B2B18" fill-opacity="0.996078431372549" stroke="none" d="
M 217 430
Q 216.5 430 216 430 200.5 430 185 430 199.75 431.75 216.95 430.5 217 430.5 217 430 Z"/>

<path fill="#000000" fill-opacity="0.24705882352941178" stroke="none" d="
M 261 437
Q 261 437.5 261 438 299 438 337 438 337.5 438 338 438 338 437.5 338 437 337.5 437 337 437 299 437 261 437
M 375 288
Q 375 287.5 375.05 287 375.75 273.75 374 263 374 275 374 287 374 287.5 374 288 374.5 288 375 288 Z"/>

<path fill="#B18148" fill-opacity="0.996078431372549" stroke="none" d="
M 255 429
Q 254.5 429 254 429 244.5 429 235 429 235 429.5 235 430 244.5 430 254 430 254.5 430 255 430 255 429.5 255 429 Z"/>

<path fill="#000000" fill-opacity="0.4980392156862745" stroke="none" d="
M 260 438
Q 260.5 438 261 438 261 437.5 261 437 260.5 437 260 437 246.5 437 233 437 233 437.5 233 438 246.5 438 260 438 Z"/>

<path fill="#704A25" fill-opacity="0.996078431372549" stroke="none" d="
M 311 429
Q 311 429.5 311 430 321 430 331 429.5
L 331 429
Q 330.5 429 330 429 320.5 429 311 429
M 368.5 383
L 369 383
Q 369 382.5 369.05 382 369.75 370.75 368 362 368 372.5 368.5 383 Z"/>

<path fill="#765630" fill-opacity="0.996078431372549" stroke="none" d="
M 311 429
Q 310.5 429 310 429 282.5 429 255 429 255 429.5 255 430 282.5 430 310 430 310.5 430 311 430 311 429.5 311 429 Z"/>

<path fill="#4893C6" stroke="none" d="
M 273 226
Q 273 226.5 273 227 274 227 274.8 226.6 275 226.5 275 226
L 274.5 226
Q 274.75 208.25 273 193 273 209.5 273 226 Z"/>

<path fill="#000000" fill-opacity="0.5372549019607843" stroke="none" d="
M 107.8 329.1
Q 106.15 325.85 103 324 101.25 330.75 107 330.05 107.5 330 108 330 108 329.5 107.8 329.1
M 128 343
Q 128 342.5 128 342 127.5 329.5 120 324 122.9 333.1 122.5 346
L 123 346
Q 125.05 344.55 127.85 343.55 128 343.5 128 343
M 126.2 169.75
Q 126.5 170 127 170 127 169.5 127 169 127 168.5 126.75 168.25 116.25 158.75 106 149 115.2 160.35 126.2 169.75
M 138.75 136.15
Q 139 136.5 139 137 141.15 137.65 141.05 136 141 135.5 141 135 140.5 135 140.45 134.85 138.75 129.25 134 127 136.1 131.9 138.75 136.15
M 310.2 107.75
Q 310.5 108 311 108 311 105.5 311.6 103.15 315.55 86.9 305 85 302.75 101.25 310.2 107.75
M 234 103
Q 233.5 103 233.5 102.9 232.8 99.2 229 99 229 103 229.5 106.95 229.5 107 230 107 232 105.5 233.75 103.75 234 103.5 234 103
M 197 81
Q 197 81.5 197 82 198.75 89.75 198.5 100
L 199 100
Q 199 99.5 199 99 200.7 96.2 203.8 94.6 204 94.5 204 94 204 93.5 204.05 93 204.95 79.05 197 74 197 77.5 197 81
M 411 96
Q 410.5 96 410.45 95.85 407.9 87.1 402 82 404.05 87.95 403.05 95.9 397.45 139.45 380 172 380 172.5 380 173 380 173.5 379.85 173.95 373.3 195.35 364 214 368.05 218.95 367.05 229 367 229.5 367 230 367 242 367 254 367 254.5 367 255 368.75 303.25 368 354 368 354.5 368 355 368 358 368 361 368 361.5 368 362 369.75 370.75 369.05 382 369 382.5 369 383 369 383.5 369.05 384 371.25 414.25 355 426 354.5 426 354.05 426.1 343.7 428.7 331 429
L 331 429.5
Q 321 430 311 430 310.5 430 310 430 282.5 430 255 430 254.5 430 254 430 244.5 430 235 430 234.5 430 234 430 225.5 430 217 430 217 430.5 216.95 430.5 199.75 431.75 185 430 184.5 430 184 429.95 170.1 428.9 157 427 156.5 427 156.05 426.9 151.65 425.85 149 423 149 423.5 148.8 423.6 144.5 426 141 429 140.5 429 140 429 124 429.45 115 423 114.5 423 114.2 423.25 109.7 426.7 104 429 103.5 429 103 429 92.35 429.15 85 426 88.8 433.7 97.85 436.45 98 436.5 98 437 103.5 437 109 437 109.5 437 110 437 115.9 434.4 121.15 431.2 121.5 431 122 431 127.25 434.25 133.85 436.45 134 436.5 134 437 148.25 438.75 154.25 432.25 154.5 432 155 432 157.25 431.25 160.75 434.3 161 434.5 161 435 171.95 436.55 183.95 437.5 184 437.5 184 438 208 438 232 438 232.5 438 233 438 233 437.5 233 437 246.5 437 260 437 260.5 437 261 437 299 437 337 437 337.5 437 338 437 372.3 438.85 374.95 409 375 408.5 375 408 375 407.5 375 407 375 394.5 375 382 375 381.5 375 381 375 377 375 373
L 374.5 373
Q 374 330.5 374 288 374 287.5 374 287 374 275 374 263 374 262.5 374 262 374 255.5 374 249
L 373.5 249
Q 373 239 373 229 373 228.5 373 228 373 224.5 370 224 393 172 410.45 114.15 410.5 114 411 114 411 113.5 411 113 411 104.5 411 96 Z"/>

<path fill="#D2453D" fill-opacity="0.996078431372549" stroke="none" d="
M 154.85 346.25
Q 154.5 346 154 346 154 346.5 153.8 346.9 131.15 397.2 79 418 80.75 422.75 84.75 425.35 85 425.5 85 426 92.35 429.15 103 429 103.5 429 104 429 109.7 426.7 114.2 423.25 114.5 423 115 423 124 429.45 140 429 140.5 429 141 429 144.5 426 148.8 423.6 149 423.5 149 423 149 422.5 149 422 167.65 401.65 164.05 359 164 358.5 164 358 161.2 350.3 154.85 346.25 Z"/>

<path fill="#E99B45" fill-opacity="0.996078431372549" stroke="none" d="
M 153.85 345.45
Q 154 345.5 154 346 154.5 346 154.85 346.25 161.2 350.3 164 358 164 358.5 164.05 359 167.65 401.65 149 422 149 422.5 149 423 151.65 425.85 156.05 426.9 156.5 427 157 427 173.35 410.85 178.1 383 184.9 343.05 148 342 150.15 344.35 153.85 345.45 Z"/>

<path fill="#8E5231" fill-opacity="0.9764705882352941" stroke="none" d="
M 123 346
L 122.5 346
Q 122.9 333.1 120 324 119.5 324 119.45 323.8 114 310.95 97 310 94.2 322.3 102.95 323.5 103 323.5 103 324 106.15 325.85 107.8 329.1 108 329.5 108 330 109.7 336.8 109.05 346 109 346.5 109 347 115.8 357.65 122.75 346.85 123 346.5 123 346 Z"/>

<path fill="#DF5548" fill-opacity="0.9921568627450981" stroke="none" d="
M 66 359
Q 66 360 66 361 66 361.5 66 362 64.85 397.15 78.35 417.75 78.5 418 79 418 131.15 397.2 153.8 346.9 154 346.5 154 346 154 345.5 153.85 345.45 150.15 344.35 148 342 147.5 342 147.15 341.8 144.95 340.55 141 341 140.5 341 140 341 139.5 341 139 341.1 133.5 342 128 343 128 343.5 127.85 343.55 125.05 344.55 123 346 123 346.5 122.75 346.85 115.8 357.65 109 347 108.5 347 108.25 346.75 105.7 344.35 102 343 101.5 343 101 342.95 72.6 340.1 66 359 Z"/>

<path fill="#DF5C1D" stroke="none" d="
M 156 224
Q 156 224.5 156 225 166.9 228.5 173.75 218.85 174 218.5 174 218 174 217.5 173.85 217.45 164.65 214.75 156 223 156 223.5 156 224 Z"/>

<path fill="#ECAB5F" fill-opacity="0.996078431372549" stroke="none" d="
M 156 225
Q 155.5 225 155.2 224.75 148.95 219.6 141 216 141 278 141 340 141 340.5 141 341 144.95 340.55 147.15 341.8 147.5 342 148 342 184.9 343.05 178.1 383 173.35 410.85 157 427 170.1 428.9 184 429.95 184.5 430 185 430 200.5 430 216 430 216.5 430 217 430 225.5 430 234 430 234.5 430 235 430 235 429.5 235 429 244.5 429 254 429 254.5 429 255 429 282.5 429 310 429 310.5 429 311 429 311 417 311.1 405 311.75 314.75 310 227 309.5 227 309.35 226.75 303.2 218.3 290 217 289.5 217 289.2 217.25 282.9 222.4 275 226 275 226.5 274.8 226.6 274 227 273 227 272.5 227 272.1 226.8 265.65 223.35 260 219 259 218.5 258.3 217.75 255.4 214.6 252.9 217.75 244.3 228.5 231 225 230.5 225 230.25 224.75 224.4 219.1 216 216 211.95 217.45 209.45 220.55 200.9 230.85 191 223 190.5 223 190.3 222.75 184.25 215.8 174 218 174 218.5 173.75 218.85 166.9 228.5 156 225 Z"/>

<path fill="#3B2A17" fill-opacity="0.24705882352941178" stroke="none" d="
M 141 215
Q 140.5 215 140 215 140 277.5 140 340 140 340.5 140 341 140.5 341 141 341 141 340.5 141 340 141 278 141 216 141 215.5 141 215 Z"/>

<path fill="#DA5517" fill-opacity="0.9921568627450981" stroke="none" d="
M 158.55 197.85
Q 160.1 193.25 155 190
L 154.5 189
Q 142.2 194.75 131 202 135.15 208.35 139.75 214.2 140 214.5 140 215 140.5 215 141 215 141 214.5 141.25 214.25 149.15 205.7 158 198 158.5 198 158.55 197.85 Z"/>

<path fill="#FA702D" fill-opacity="0.996078431372549" stroke="none" d="
M 156 156
Q 151.5 156 147 156 146.5 156 146.15 156.2 142.45 158.45 137 159 137 159.5 136.75 159.75 136.5 160 136 160 136 160.5 135.75 160.65 130.5 164 127 169 127 169.5 127 170 127 170.5 126.9 171 126.4 174.4 124 176 122.45 193.55 130.25 201.75 130.5 202 131 202 142.2 194.75 154.5 189
L 155 190
Q 160.1 193.25 158.55 197.85 158.5 198 158 198 149.15 205.7 141.25 214.25 141 214.5 141 215 141 215.5 141 216 148.95 219.6 155.2 224.75 155.5 225 156 225 156 224.5 156 224 156 223.5 156 223 164.65 214.75 173.85 217.45 174 217.5 174 218 184.25 215.8 190.3 222.75 190.5 223 191 223 191 222.5 191 222 191 218 191 214 192.85 211.35 193 207 193 206.5 193 206 188.35 200.65 186.75 192.85 181.1 164.9 157 156 156.5 156 156 156 Z"/>

<path fill="#80A632" fill-opacity="0.9764705882352941" stroke="none" d="
M 107 134
Q 106.5 134 106.3 134.25 103.15 138.15 99 141 101.25 145.75 105.8 148.35 106 148.5 106 149 116.25 158.75 126.75 168.25 127 168.5 127 169 130.5 164 135.75 160.65 136 160.5 136 160 136 159.5 135.75 159.25 122 146.05 107 134 Z"/>

<path fill="#7FA833" fill-opacity="0.9764705882352941" stroke="none" d="
M 139 137
Q 139 136.5 138.75 136.15 136.1 131.9 134 127 134 126.5 133.85 126.05 129.65 115.6 119 123 126.05 142.45 136.75 158.15 137 158.5 137 159 142.45 158.45 146.15 156.2 146.5 156 147 156 147 155.5 146.95 155 145.65 145.85 139 137 Z"/>

<path fill="#599DCB" stroke="none" d="
M 273 181
Q 272.5 181 272.25 181.25 264.15 190.15 255 198 259.35 206.15 259.95 218 260 218.5 260 219 265.65 223.35 272.1 226.8 272.5 227 273 227 273 226.5 273 226 273 209.5 273 193 273 192.5 273 192 273 186.5 273 181 Z"/>

<path fill="#5BA0CF" stroke="none" d="
M 273 133
Q 272.5 133 272 133 249.5 133 227 133 248.25 134.75 272 134 272.5 134 273 134 273 133.5 273 133 Z"/>

<path fill="#EF8D24" stroke="none" d="
M 242 188
Q 242 188.5 242.05 189 243.9 213.4 231 223 231 223.5 231 224 231 224.5 231 225 244.3 228.5 252.9 217.75 255.4 214.6 258.3 217.75 259 218.5 260 219 260 218.5 259.95 218 259.35 206.15 255 198 254.5 198 254.3 197.75 249.6 191.4 242 188 Z"/>

<path fill="#FB9930" stroke="none" d="
M 203 192
Q 203 192.5 202.75 192.75 197.15 198.15 193 205 193 205.5 193 206 193 206.5 193 207 192.85 211.35 191 214 191 218 191 222 191 222.5 191 223 200.9 230.85 209.45 220.55 211.95 217.45 216 216 224.4 219.1 230.25 224.75 230.5 225 231 225 231 224.5 231 224 231 223.5 231 223 243.9 213.4 242.05 189 242 188.5 242 188 241.5 188 241.2 187.75 233.5 182 218 184 218 184.5 217.85 184.55 210.55 187.55 204 191 204 191.5 203.75 191.75 203.5 192 203 192 Z"/>

<path fill="#344514" fill-opacity="0.996078431372549" stroke="none" d="
M 198.5 101
L 199 100 198.5 100
Q 198.75 89.75 197 82 196.25 93.25 198.5 101 Z"/>

<path fill="#62A4D0" stroke="none" d="
M 227 133
Q 226.5 133 226 133 215 133 204 133 204 161.5 204 190 204 190.5 204 191 210.55 187.55 217.85 184.55 218 184.5 218 184 233.5 182 241.2 187.75 241.5 188 242 188 249.6 191.4 254.3 197.75 254.5 198 255 198 264.15 190.15 272.25 181.25 272.5 181 273 181 273 180.5 273 180 273 157 273 134 272.5 134 272 134 248.25 134.75 227 133 Z"/>

<path fill="#6B9553" stroke="none" d="
M 204 133
Q 203.5 133 203 133 203 162 203 191 203 191.5 203 192 203.5 192 203.75 191.75 204 191.5 204 191 204 190.5 204 190 204 161.5 204 133 Z"/>

<path fill="#3C552C" fill-opacity="0.996078431372549" stroke="none" d="
M 227.75 108.8
Q 228 108.5 228 108 227.5 108 227.3 108.25 222.15 114.15 216 119 216 119.5 216 120 216 120.5 216 121 222.6 115.65 227.75 108.8 Z"/>

<path fill="#549BCC" fill-opacity="0.996078431372549" stroke="none" d="
M 234 103
Q 234 103.5 233.75 103.75 232 105.5 230 107 230 107.5 229.8 107.6 229 108 228 108 228 108.5 227.75 108.8 222.6 115.65 216 121 216 121.5 215.75 121.8 210.55 127.55 204 132 204 132.5 204 133 215 133 226 133 226.5 133 227 133 249.5 133 272 133 272.5 133 273 133 273 132.5 273 132 289 118 303.75 102.75 304 102.5 304 102 303.5 102 303 102 269.5 102 236 102 235.5 102 235 102 235 102.5 234.75 102.75 234.5 103 234 103 Z"/>

<path fill="#9EA1A2" fill-opacity="0.7490196078431373" stroke="none" d="
M 236 77
Q 235.5 77 235 77 235 89 235 101 235 101.5 235 102 235.5 102 236 102 236 101.5 236 101 236 89 236 77 Z"/>

<path fill="#1E280B" fill-opacity="0.403921568627451" stroke="none" d="
M 173 74
L 172.5 74
Q 172.75 88.25 171 100 174.25 99.25 173.55 88.95 173 81.5 173 74 Z"/>

<path fill="#6D902A" fill-opacity="0.996078431372549" stroke="none" d="
M 197 74
Q 197 73.5 196.85 73.05 194.25 63.75 181 65 180.5 65 180.15 65.25 176.25 67.75 173 71 173 72 173 73 173 73.5 173 74 173 81.5 173.55 88.95 174.25 99.25 171 100 170.5 100 170.35 99.75 165.25 92.75 157 89 156.5 89 156 89 143.5 89 141 99 142.95 114.05 152.75 121.35 156.95 124.55 157 127 144.6 126.1 141.55 134.85 141.5 135 141 135 141 135.5 141.05 136 141.15 137.65 139 137 145.65 145.85 146.95 155 147 155.5 147 156 151.5 156 156 156 156.5 156 157 156 181.1 164.9 186.75 192.85 188.35 200.65 193 206 193 205.5 193 205 197.15 198.15 202.75 192.75 203 192.5 203 192 203 191.5 203 191 203 162 203 133 203.5 133 204 133 204 132.5 204 132 210.55 127.55 215.75 121.8 216 121.5 216 121 216 120.5 216 120 216 119.5 216 119 222.15 114.15 227.3 108.25 227.5 108 228 108 229 108 229.8 107.6 230 107.5 230 107 229.5 107 229.5 106.95 229 103 229 99 229 98.5 228.8 98.1 225.9 92.6 221 89 220.5 89 220 89.05 210.45 89.95 204 94 204 94.5 203.8 94.6 200.7 96.2 199 99 199 99.5 199 100
L 198.5 101
Q 196.25 93.25 197 82 197 81.5 197 81 197 77.5 197 74 Z"/>

<path fill="#D3D6D8" fill-opacity="0.996078431372549" stroke="none" d="
M 301 77
Q 300.5 77 300 77 268 77 236 77 236 89 236 101 236 101.5 236 102 269.5 102 303 102 303.5 102 304 102 304 101.5 304 101 304 92.5 304 84 304.5 84 305 84 305 83.5 305.1 83 306.4 76.6 301 77 Z"/>

<path fill="#343535" fill-opacity="0.24313725490196078" stroke="none" d="
M 301 77
L 301 76.5
Q 268 76 235 76 235 76.5 235 77 235.5 77 236 77 268 77 300 77 300.5 77 301 77 Z"/>

<path fill="#A06A35" fill-opacity="0.996078431372549" stroke="none" d="
M 368 355
Q 368 354.5 368 354 368.75 303.25 367 255 367 305 367.5 355
L 368 355 Z"/>

<path fill="#000000" fill-opacity="0.5254901960784314" stroke="none" d="
M 375 288
Q 374.5 288 374 288 374 330.5 374.5 373
L 375 373
Q 375 372.5 375 372 375 330 375 288 Z"/>

<path fill="#000000" fill-opacity="0.6392156862745098" stroke="none" d="
M 374 249
Q 374 248.5 374.05 248 374.75 237.25 373 229 373 239 373.5 249
L 374 249 Z"/>

<path fill="#E2964B" fill-opacity="0.996078431372549" stroke="none" d="
M 367 230
Q 365.3 227.25 365.8 222
L 366 220
Q 355.9 221.9 348 228 348 227.5 347.75 227.3 339.15 220.85 329 216 328.5 216 328.25 216.25 320.7 223.2 310 227 311.75 314.75 311.1 405 311 417 311 429 320.5 429 330 429 330.5 429 331 429 343.7 428.7 354.05 426.1 354.5 426 355 426 371.25 414.25 369.05 384 369 383.5 369 383
L 368.5 383
Q 368 372.5 368 362 368 361.5 368 361 368 358 368 355
L 367.5 355
Q 367 305 367 255 367 254.5 367 254 367 242 367 230 Z"/>

<path fill="#CC7425" fill-opacity="0.996078431372549" stroke="none" d="
M 342 197
Q 341.5 197 341.1 197.2 319.6 207.1 292 211 292 211.5 291.75 211.85 291 213 290 214 290 215 290 216 290 216.5 290 217 303.2 218.3 309.35 226.75 309.5 227 310 227 320.7 223.2 328.25 216.25 328.5 216 329 216 339.15 220.85 347.75 227.3 348 227.5 348 228 355.9 221.9 366 220
L 365.8 222
Q 365.3 227.25 367 230 367 229.5 367.05 229 368.05 218.95 364 214 373.3 195.35 379.85 173.95 380 173.5 380 173 379.5 173 379.25 173.25 368.3 183.8 354 191 354 191.5 353.9 192 352.6 199.1 342 197 Z"/>

<path fill="#C86D23" stroke="none" d="
M 341.05 158.15
Q 336.5 159.5 331 160 335.05 179.45 341.85 196.05 342 196.5 342 197 352.6 199.1 353.9 192 354 191.5 354 191 353.5 191 353.45 190.85 348.55 173.45 342 158 341.5 158 341.05 158.15
M 349 116
Q 349 116.5 349.15 116.95 353.9 134.6 360 151 360 151.5 360.25 151.75 363.35 155.2 369 152 370 151.5 369.95 151.1 368.2 131.8 360 113 359.5 113 359.1 113.2 355 115.5 349 116 Z"/>

<path fill="#3F8EC3" fill-opacity="0.996078431372549" stroke="none" d="
M 324.85 121.95
Q 325 121.5 325 121 324.5 121 324.3 120.75 318.15 113.85 311 108 310.5 108 310.2 107.75 302.75 101.25 305 85 305 84.5 305 84 304.5 84 304 84 304 92.5 304 101 304 101.5 304 102 304 102.5 303.75 102.75 289 118 273 132 273 132.5 273 133 273 133.5 273 134 273 157 273 180 273 180.5 273 181 273 186.5 273 192 273 192.5 273 193 274.75 208.25 274.5 226
L 275 226
Q 282.9 222.4 289.2 217.25 289.5 217 290 217 290 216.5 290 216 290 215 290 214 291 213 291.75 211.85 292 211.5 292 211 292 210.5 292 210 292 209.5 292 209 309.15 166.15 324.85 121.95 Z"/>

<path fill="#D27C30" fill-opacity="0.996078431372549" stroke="none" d="
M 402 82
Q 401.5 82 401.4 81.8 395.45 70.55 383 66 374 66 365.05 66.55 357.05 67.05 352.7 71.65 334 91.5 325 121 325 121.5 324.85 121.95 309.15 166.15 292 209 292 209.5 292 210 292 210.5 292 211 319.6 207.1 341.1 197.2 341.5 197 342 197 342 196.5 341.85 196.05 335.05 179.45 331 160 336.5 159.5 341.05 158.15 341.5 158 342 158 348.55 173.45 353.45 190.85 353.5 191 354 191 368.3 183.8 379.25 173.25 379.5 173 380 173 380 172.5 380 172 397.45 139.45 403.05 95.9 404.05 87.95 402 82
M 349.15 116.95
Q 349 116.5 349 116 355 115.5 359.1 113.2 359.5 113 360 113 368.2 131.8 369.95 151.1 370 151.5 369 152 363.35 155.2 360.25 151.75 360 151.5 360 151 353.9 134.6 349.15 116.95 Z"/>
</g>
</defs>

<g transform="matrix( 1, 0, 0, 1, 0,0) ">
<use xlink:href="#Layer12_0_FILL"/>
</g>

<g transform="matrix( 1, 0, 0, 1, 0,0) ">
<use xlink:href="#Layer7_0_FILL"/>
</g>
</svg>
