
<svg xmlns="http://www.w3.org/2000/svg" version="1.1" xmlns:xlink="http://www.w3.org/1999/xlink" preserveAspectRatio="none" x="0px" y="0px" width="500px" height="500px" viewBox="0 0 500 500">
<defs>
<radialGradient id="Gradient_1" gradientUnits="userSpaceOnUse" cx="0" cy="0" r="231.55" fx="0" fy="0" gradientTransform="matrix( 1, 0, 0, 1, 229.8,247.35) " spreadMethod="pad">
<stop  offset="0%" stop-color="#FA6A06"/>

<stop  offset="36.86274509803921%" stop-color="#EF5906"/>

<stop  offset="100%" stop-color="#C71C02"/>

<stop  offset="100%" stop-color="#000000"/>

<stop  offset="100%" stop-color="#000000"/>

<stop  offset="100%" stop-color="#000000"/>

<stop  offset="100%" stop-color="#AA1C00" stop-opacity="0"/>

<stop  offset="100%" stop-color="#AA1C00" stop-opacity="0"/>

<stop  offset="100%" stop-color="#AA1C00" stop-opacity="0"/>
</radialGradient>

<radialGradient id="Gradient_2" gradientUnits="userSpaceOnUse" cx="0" cy="0" r="81.48336582548612" fx="0" fy="0" gradientTransform="matrix( 0.9971360311012936, 0.07562893282045197, -0.123031245683575, 0.6131619563556724, 112.9,183.35) " spreadMethod="pad">
<stop  offset="78.03921568627452%" stop-color="#FFFFFF"/>

<stop  offset="100%" stop-color="#FFFFFF" stop-opacity="0"/>

<stop  offset="100%" stop-color="#000000"/>

<stop  offset="100%" stop-color="#000000"/>

<stop  offset="100%" stop-color="#000000"/>

<stop  offset="100%" stop-color="#000000"/>

<stop  offset="100%" stop-color="#000000"/>
</radialGradient>

<radialGradient id="Gradient_3" gradientUnits="userSpaceOnUse" cx="0" cy="0" r="13.962908454186767" fx="0" fy="0" gradientTransform="matrix( 0.9659520467568333, -0.258721169149884, 0.258721169149884, 0.9659520467568333, 150.7,103.75) " spreadMethod="pad">
<stop  offset="78.03921568627452%" stop-color="#FFFFFF"/>

<stop  offset="100%" stop-color="#FFFFFF" stop-opacity="0"/>

<stop  offset="100%" stop-color="#000000"/>

<stop  offset="100%" stop-color="#000000"/>

<stop  offset="100%" stop-color="#000000"/>

<stop  offset="100%" stop-color="#000000"/>

<stop  offset="100%" stop-color="#000000"/>
</radialGradient>

<radialGradient id="Gradient_4" gradientUnits="userSpaceOnUse" cx="0" cy="0" r="480.61856383857054" fx="0" fy="0" gradientTransform="matrix( 0.6916087413378523, -0.7222723509210852, 0.3502777725758948, 0.33540111042016185, 244.65,250.4) " spreadMethod="pad">
<stop  offset="0%" stop-color="#FFFFFF" stop-opacity="0"/>

<stop  offset="100%" stop-color="#FFFFFF" stop-opacity="0.4980392156862745"/>

<stop  offset="100%" stop-color="#000000"/>

<stop  offset="100%" stop-color="#000000"/>

<stop  offset="100%" stop-color="#000000"/>

<stop  offset="100%" stop-color="#AA1C00" stop-opacity="0"/>

<stop  offset="100%" stop-color="#AA1C00" stop-opacity="0"/>

<stop  offset="100%" stop-color="#AA1C00" stop-opacity="0"/>
</radialGradient>

<radialGradient id="Gradient_5" gradientUnits="userSpaceOnUse" cx="0" cy="0" r="480.6185638385705" fx="0" fy="0" gradientTransform="matrix( 0.6916087413378524, -0.7222723509210853, 0.3502777725758949, 0.3354011104201619, 275.45,259.5) " spreadMethod="pad">
<stop  offset="0%" stop-color="#FFFFFF" stop-opacity="0"/>

<stop  offset="100%" stop-color="#FFFFFF" stop-opacity="0.4980392156862745"/>

<stop  offset="100%" stop-color="#000000"/>

<stop  offset="100%" stop-color="#000000"/>

<stop  offset="100%" stop-color="#000000"/>

<stop  offset="100%" stop-color="#AA1C00" stop-opacity="0"/>

<stop  offset="100%" stop-color="#AA1C00" stop-opacity="0"/>

<stop  offset="100%" stop-color="#AA1C00" stop-opacity="0"/>
</radialGradient>

<linearGradient id="Gradient_6" gradientUnits="userSpaceOnUse" x1="118.1" y1="-5.700000000000017" x2="382.1" y2="500.20000000000005" spreadMethod="pad">
<stop  offset="0%" stop-color="#FFF346"/>

<stop  offset="100%" stop-color="#EF7102"/>
</linearGradient>

<linearGradient id="Gradient_7" gradientUnits="userSpaceOnUse" x1="160.35000000000002" y1="9.150000000000006" x2="358.35" y2="427.95000000000005" spreadMethod="pad">
<stop  offset="0%" stop-color="#FA8304"/>

<stop  offset="100%" stop-color="#FDE836"/>
</linearGradient>

<linearGradient id="Gradient_8" gradientUnits="userSpaceOnUse" x1="-3.950000000000017" y1="247.4" x2="500.15" y2="247.4" spreadMethod="pad">
<stop  offset="0%" stop-color="#E91B02"/>

<stop  offset="100%" stop-color="#E25500"/>
</linearGradient>

<g id="Layer16_0_FILL">
<path fill="url(#Gradient_1)" stroke="none" d="
M 443.65 317
Q 472.1 236.75 435.65 159.7 399.15 82.45 319.15 53.65 238.85 24.85 162.05 61.15 117.2919921875 82.303515625 88.95 118.45 82.103515625 122.6578125 76.2 128.45 76.1 128.8 76.05 129.15 75.7 130.85 75.8 132.65 75.85 133.7 76.05 134.7 76.1 135.1 76.2 135.45 76.419140625 135.7568359375 76.65 136.05 66.171484375 152.9650390625 58.65 172.6 47.73671875 176.795703125 36.65 180.65 31.848828125 182.3166015625 27.25 184.35 26.3251953125 188.371875 25.15 192.25 25.3 194.25 24.7 196.05 23.6 199.35 23.75 202.85 23.65 203.05 23.55 203.3 23.4 203.55 23.3 203.8 23.15 204.05 23.1 204.3
L 23.1 204.35
Q 36.671484375 203.4048828125 50.05 200.25 49.0830078125 204.26953125 48.25 208.25 44.1921875 210.541015625 40.1 212.8 39.85 213.15 39.6 213.5 39.4 213.85 39.15 214.2 39.05 214.9 39 215.6 38.9 216.3 38.9 217 38.9 217.35 39 217.7 39.05 218.05 39.15 218.4 39.4 218.75 39.6 219.1 39.85 219.45 40.1 219.75 40.45 220.15 40.8 220.5 42.4 221.1 43.9 220.85 45.046875 220.6638671875 46.2 220.45 43.4943359375 239.7341796875 44.6 258.8 30.95 267.0533203125 19.15 277.7 19.1068359375 288.1169921875 17.2 298.15 18.2689453125 300.2984375 19.3 302.45 20.6626953125 305.3232421875 22.65 307.75 21.37421875 308.783984375 20.1 309.8 20.35546875 310.6095703125 20.55 311.4 20.85 311.65 21.15 311.9 21.4 312.1 21.65 312.35 22.05 312.85 22.45 313.3 22.6 313.8 22.8 314.25 23.35 315.45 23.6 316.7 23.8 317.7 24.35 318.6 24.35 320.0205078125 24.75 321.35 42.2814453125 324.16171875 60.15 324.8 62.2779296875 329.9697265625 64.7 335.1 101.1 412 181.3 441.05 261.5 469.85 338.15 433.6 414.9 397.3 443.65 317
M 51.15 186.55
Q 52.67734375 186.003515625 54.2 185.45 53.9521484375 186.233203125 53.7 187 49.573828125 188.1546875 45.45 189.25 48.2 187.6 51.15 186.55
M 26.8 285.3
Q 31.95 278.4 39.7 274.45 42.7365234375 272.90390625 45.75 271.35 47.0462890625 281.5611328125 49.4 291.7 40.1611328125 295.7763671875 31.9 301.1 30.211328125 299.6140625 28.65 297.85 28.55 297.15 28.35 296.5 27.95 295.4 27.5 294.4 27.15 293.7 26.8 293 26.8 292.65 26.8 292.3 26.8 290.2 26.8 288.1 26.8 286.7 26.8 285.3
M 42.85 307.75
Q 47.6466796875 305.4455078125 52.45 303.25 53.4853515625 306.68046875 54.6 310.1 48.299609375 309.796484375 42.85 307.75 Z"/>
</g>

<g id="Layer15_0_FILL">
<path fill="url(#Gradient_2)" stroke="none" d="
M 144.7 185.8
Q 148.8 165.35 142.5 150.15 136.05 135.1 122.95 134.05 109.8 133 97.55 146.75 91.428125 153.678125 87.35 162.3
L 87.35 223.4
Q 93.3806640625 231.96796875 103.1 232.75 116.2 233.7 128.45 220 140.65 206.3 144.7 185.8 Z"/>

<path fill="url(#Gradient_3)" stroke="none" d="
M 162.6 110.6
Q 165.45 105.65 164 100.25 162.55 94.8 157.6 91.95 152.65 89.15 147.25 90.6 141.75 92.05 138.9 96.95 136.15 101.85 137.6 107.3 139.05 112.7 143.9 115.6 148.85 118.45 154.35 117 159.75 115.55 162.6 110.6 Z"/>
</g>

<g id="Layer14_0_FILL">
<path fill="url(#Gradient_4)" stroke="none" d="
M 266.95 443
Q 254.9529296875 438.6056640625 243.25 432.95 228 425.5 213.25 415.95 211.81484375 419.4833984375 210.35 422.8 211.3978515625 423.337109375 212.45 423.85 238.9421875 436.6525390625 266.95 443
M 91.35 95
Q 96.716796875 81.237109375 102.55 70.35 89.01640625 78.574609375 77.65 90.45 31.25 138.85 47.4 219.95 53.3091796875 249.4236328125 66.2 276.95 65.8 265.4693359375 65.8 253.55 65.8 160.7 91.35 95
M 253.3 67.05
Q 229.98671875 58.5140625 205.55 54.75 153.5 46.65 115.85 63.4 108.9556640625 66.46953125 102.55 70.35 96.716796875 81.237109375 91.35 95 65.8 160.7 65.8 253.55 65.8 265.4693359375 66.2 276.95 88.814453125 325.0916015625 132.85 367.25 156.9080078125 390.262109375 182.45 406.85 196.185546875 415.75859375 210.35 422.8 211.81484375 419.4833984375 213.25 415.95 187.7 399.35 163.65 376.35 94.45 310.1 78.2 229.05 62.05 147.95 108.45 99.55 125.2 82.05 146.65 72.5 184.3 55.75 236.35 63.85 244.8912109375 65.165625 253.3 67.05 Z"/>

<path fill="url(#Gradient_5)" stroke="none" d="
M 450.45 380.65
Q 453.7 374.6 458.8 361.9
L 476.5 317.95
Q 475.588671875 304.561328125 472.7 290.1 456.55 209.05 387.3 142.7 325.3703125 83.367578125 253.3 67.05 244.8912109375 65.165625 236.35 63.85 184.3 55.75 146.65 72.5 125.2 82.05 108.45 99.55 62.05 147.95 78.2 229.05 94.45 310.1 163.65 376.35 187.7 399.35 213.25 415.95 228 425.5 243.25 432.95 254.9529296875 438.6056640625 266.95 443 290.1716796875 451.508984375 314.5 455.3 317.1720703125 455.7154296875 319.8 456.05
L 322.95 454.75
Q 330.1 451.75 333.85 449.8 336.95 448.25 346.25 442.6 353.85 437.95 358.85 435.9 361.5 434.8 366.5 433.2 371.9 431.5 374.2 430.6 383.25 427.2 387.6 421.8 388.95 420.25 389.55 419.9 390.15 419.6 390.85 419.65 391.6 419.7 392 420.2 392.65 420.95 392.15 422.45 391.1 425.45 387.1 428.15 381.2 432.25 366.7 437.45 352.7 442.5 346.55 447.15 345.75 447.8 344.1 449.1 342.65 450.2 341.6 450.85 340.45 451.5 337.55 452.8
L 332.15 455.05
Q 352.98359375 452.2076171875 373.45 446.9 384.75 444 391.1 440.6 394.9 438.55 399.15 435.3 401.8 433.2 406.55 429.05 423 414.8 430.8 406.7 443.5 393.5 450.45 380.65 Z"/>
</g>

<g id="Layer5_0_FILL">
<path fill="#000000" stroke="none" d="
M 335.65 150.4
Q 335.05 150.4 334.4 150.4 326.55 150.4 318.65 150.4 310.7 150.4 302.8 150.4 299.95 150.8 299 153.1 298.85 153.5 298.8 153.8 298.35 157.2 298.45 161.1 298.5 169.05 298.4 176.8 295.55 174.35 292.7 172 288.35 168.4 284 164.85 279.7 161.3 275.35 157.65 271.1 154.05 266.75 150.5 262.5 146.9 258.1 143.35 255.55 145.45 253.05 147.6 248.8 151.2 244.55 154.85 240.25 158.5 236.05 162.2 231.75 165.8 227.5 169.45 223.25 173.1 219 176.75 214.7 180.35 210.5 184.05 206.2 187.7 201.95 191.35 197.7 195 193.45 198.6 189.15 202.25 184.95 205.95 180.65 209.6 176.4 213.2 172.15 216.85 167.9 220.5 163.6 224.15 159.35 227.8 155.1 231.45 150.85 235.1 146.55 238.75 142.3 242.35 138 246 133.75 249.6 129.5 253.25 125.25 256.95 133 257.1 141 257.05 148.9 257.05 156.8 257 161.2 256.95 165.35 257.15 165.4 257.15 165.45 257.15 165.45 265 165.45 272.9 165.45 280.8 165.45 288.75 165.45 296.65 165.45 304.55 165.45 312.45 165.45 320.35 165.45 328.25 165.45 336.15 165.45 344.1 165.45 352 165.45 356.25 165.45 360.55 165.95 365.95 169.65 368.25 170.2 368.6 170.9 368.95 174.3 370.5 179.65 370.25 182.6 370.1 185.6 370.1 193.5 370.1 201.4 370.1 209.3 370.1 217.2 370.1 225 370.1 232.75 370.1 232.75 362.5 232.75 354.9 232.75 347 232.75 339.1 232.75 331.15 232.75 323.25 232.75 315.35 232.75 307.5 232.75 299.55 232.75 291.65
L 232.8 291.65
Q 232.8 291.6 232.8 291.55 232.8 291.5 232.8 291.45 233.95 285.8 239.85 284.95
L 239.9 284.95
Q 239.9 284.9 239.9 284.85 247.8 284.85 255.7 284.85 263.65 284.85 271.55 284.8 276.15 284.8 280.65 284.95 286.95 285.75 287.7 292.2
L 287.7 292.25
Q 287.85 300.05 287.8 307.95 287.75 315.9 287.75 323.8 287.75 331.7 287.75 339.65 287.75 347.55 287.75 355.4 287.75 362.75 287.75 370.1 295.7 370.1 303.6 370.1 311.5 370.1 319.4 370.1 327.35 370.1 335.2 370.2 340.8 370.25 345.9 369.85 346.75 369.75 347.5 369.45 353.2 367.5 354.2 360.9
L 354.25 356.45
Q 354.2 354.2 354.2 352 354.2 344.1 354.2 336.15 354.2 328.25 354.2 320.35 354.2 312.45 354.2 304.55 354.2 296.65 354.2 288.75 354.2 280.8 354.2 272.9 354.2 265 354.2 257.15 354.25 257.15 354.3 257.15 354.3 257.1 354.3 257.05 362.2 257.05 370.1 257.05 378.05 257.05 385.95 257.05 390.4 257.05 394.85 257.05 393.25 255.5 391.55 254.15 387.2 250.5 382.9 246.95 378.55 243.4 374.25 239.8 369.9 236.25 365.6 232.65 361.3 229.05 357 225.4 352.7 221.85 348.4 218.25 344.05 214.65 339.75 211.1 339.55 206.85 339.6 202.45 339.65 194.5 339.65 186.6 339.65 178.7 339.65 170.85 339.65 166.8 339.7 162.85
L 339.65 155
Q 339.65 154.95 339.65 154.9 339.2 151.1 335.65 150.4 Z"/>
</g>

<g id="Layer4_0_FILL">
<path fill="#FEFEFE" stroke="none" d="
M 329 145.6
Q 328.55 141.8 325 141.1 324.4 141.1 323.75 141.1 315.85 141.1 308 141.1 300.05 141.1 292.15 141.1 289.3 141.5 288.35 143.8 288.2 144.2 288.15 144.5 287.7 147.95 287.8 151.8 287.85 159.75 287.75 167.5 284.9 165.05 282 162.7 277.7 159.1 273.35 155.55 269.05 152 264.7 148.35 260.45 144.75 256.1 141.2 251.85 137.6 247.45 134.05 244.9 136.15 242.4 138.3 238.15 141.9 233.9 145.55 229.6 149.2 225.4 152.9 221.1 156.5 216.85 160.15 212.6 163.8 208.35 167.45 204.05 171.05 199.85 174.75 195.55 178.4 191.3 182.05 187.05 185.7 182.8 189.3 178.5 192.95 174.25 196.65 170 200.3 165.75 203.9 161.45 207.55 157.25 211.2 152.95 214.85 148.7 218.5 144.45 222.15 140.2 225.8 135.9 229.45 131.65 233.05 127.35 236.7 123.1 240.3 118.85 243.95 114.6 247.65 122.35 247.8 130.35 247.75 138.25 247.75 146.15 247.7 150.55 247.65 154.7 247.85 154.75 247.85 154.8 247.85 154.8 255.7 154.8 263.6 154.8 271.5 154.8 279.45 154.8 287.35 154.8 295.25 154.8 303.15 154.8 311.05 154.8 318.95 154.8 326.85 154.8 334.8 154.8 342.7 154.8 346.95 154.8 351.25 155.3 356.65 158.95 358.95 159.55 359.35 160.25 359.65 163.65 361.2 169 360.95 171.95 360.8 174.95 360.8 182.85 360.8 190.75 360.8 198.65 360.8 206.55 360.8 214.3 360.8 222.1 360.8 222.1 353.2 222.1 345.6 222.1 337.7 222.1 329.8 222.1 321.85 222.1 313.95 222.1 306.05 222.1 298.2 222.1 290.25 222.1 282.35
L 222.15 282.35
Q 222.15 282.3 222.15 282.25 222.15 282.2 222.15 282.15 223.3 276.5 229.15 275.65 229.2 275.65 229.25 275.65 229.25 275.6 229.25 275.55 237.15 275.55 245.05 275.55 253 275.55 260.9 275.5 265.5 275.5 270 275.65 276.3 276.45 277.05 282.9
L 277.05 282.95
Q 277.2 290.75 277.15 298.65 277.1 306.6 277.1 314.5 277.1 322.4 277.1 330.35 277.1 338.25 277.1 346.1 277.1 353.45 277.1 360.8 285.05 360.8 292.95 360.8 300.85 360.8 308.75 360.8 316.7 360.8 324.55 360.9 330.15 360.95 335.25 360.55 336.1 360.45 336.85 360.15 342.55 358.2 343.55 351.6 343.575 349.375 343.6 347.15 343.55 344.9 343.55 342.7 343.55 334.8 343.55 326.85 343.55 318.95 343.55 311.05 343.55 303.15 343.55 295.25 343.55 287.35 343.55 279.45 343.55 271.5 343.55 263.6 343.55 255.7 343.55 247.85 343.6 247.85 343.65 247.85 343.65 247.8 343.65 247.75 351.55 247.75 359.45 247.75 367.4 247.75 375.3 247.75 379.75 247.75 384.2 247.75 382.6 246.2 380.9 244.85 376.55 241.25 372.25 237.65 367.9 234.1 363.6 230.5 359.2 226.95 354.95 223.35 350.65 219.75 346.35 216.1 342.05 212.55 337.75 208.95 333.4 205.35 329.05 201.8 328.9 197.55 328.95 193.15 329 185.2 329 177.3 329 169.4 329 161.55 329 157.5 329.05 153.55 329.025 149.625 329 145.7 329 145.65 329 145.6 Z"/>
</g>

<g id="Layer2_0_FILL">
<path fill="#E91B02" fill-opacity="0" stroke="none" d="
M 464.25 253.6
Q 464.25 165.55 402 103.3 339.8 41.1 251.75 41.1 163.7 41.1 101.45 103.3 39.2 165.55 39.2 253.6 39.2 341.65 101.45 403.85 163.7 466.1 251.75 466.1 339.8 466.1 402 403.85 464.25 341.65 464.25 253.6 Z"/>
</g>

<g id="Layer0_0_FILL">
<path fill="#000000" fill-opacity="0.00392156862745098" stroke="none" d="
M 423.35 76.6
Q 457.5068359375 110.733203125 475.4 151.6 457.3890625 108.0890625 421.35 72.05 349.25 -0.05 247.25 -0.05 145.25 -0.05 73.15 72.05 1.05 144.15 1.05 246.15 1.05 348.15 73.15 420.25 86.1396484375 433.2396484375 100.1 443.9 88.0810546875 434.3810546875 76.8 423.1 5.05 351.35 5.05 249.85 5.05 148.35 76.8 76.6 148.55 4.85 250.1 4.85 351.6 4.85 423.35 76.6 Z"/>
</g>

<path id="Layer14_0_1_STROKES" stroke="#333333" stroke-opacity="0" stroke-width="8" stroke-linejoin="round" stroke-linecap="round" fill="none" d="
M 102.55 70.35
Q 124.528515625 29.35 153.1 29.35 166.4 29.35 178.3 38.25
M 66.225 276.95
Q 65.8 265.4693359375 65.8 253.55 65.8 160.7 91.35 95 96.716796875 81.237109375 102.55 70.35
M 213.25 415.95
Q 211.81484375 419.4833984375 210.35 422.825"/>

<path id="Layer2_0_1_STROKES" stroke="url(#Gradient_6)" stroke-width="40" stroke-linejoin="round" stroke-linecap="round" fill="none" d="
M 353.65 445.9
Q 270.65 489.25 181.65 461.7 92.65 434.25 49.7 351.95 6.8 269.75 35.1 180.95 63.4 92.2 146.4 48.85 229.5 5.5 318.55 33.05 407.6 60.55 450.5 142.75 493.45 225.05 465.1 313.8 436.75 402.55 353.65 445.9 Z"/>

<path id="Layer1_0_1_STROKES" stroke="url(#Gradient_7)" stroke-width="10" stroke-linejoin="round" stroke-linecap="round" fill="none" d="
M 338.15 433.6
Q 261.5 469.85 181.3 441.05 101.1 412 64.7 335.1 28.3 258 56.8 177.7 85.35 97.4 162.05 61.15 238.85 24.85 319.15 53.65 399.15 82.45 435.65 159.7 472.1 236.75 443.65 317 414.9 397.3 338.15 433.6 Z"/>

<path id="Layer0_0_1_STROKES" stroke="url(#Gradient_8)" stroke-width="10" stroke-linejoin="round" stroke-linecap="round" fill="none" d="
M 100.1 443.9
Q 88.0810546875 434.3810546875 76.8 423.1 5.05 351.35 5.05 249.85 5.05 148.35 76.8 76.6 148.55 4.85 250.1 4.85 351.6 4.85 423.35 76.6 457.5068359375 110.733203125 475.425 151.6
M 100.1 443.9
Q 164.51640625 494.85 250.1 494.85 351.6 494.85 423.35 423.1 495.15 351.35 495.15 249.85 495.15 196.6359375 475.425 151.6"/>
</defs>

<g transform="matrix( 1, 0, 0, 1, 0,0) ">
<use xlink:href="#Layer16_0_FILL"/>
</g>

<g transform="matrix( 1, 0, 0, 1, 0,0) ">
<use xlink:href="#Layer15_0_FILL"/>
</g>

<g transform="matrix( 1, 0, 0, 1, 0,0) ">
<use xlink:href="#Layer14_0_FILL"/>

<use xlink:href="#Layer14_0_1_STROKES"/>
</g>

<g transform="matrix( 1, 0, 0, 1, 0,0) ">
<use xlink:href="#Layer5_0_FILL"/>
</g>

<g transform="matrix( 1, 0, 0, 1, 0,0) ">
<use xlink:href="#Layer4_0_FILL"/>
</g>

<g transform="matrix( 1, 0, 0, 1, 0,0) ">
<use xlink:href="#Layer2_0_FILL"/>

<use xlink:href="#Layer2_0_1_STROKES"/>
</g>

<g transform="matrix( 1, 0, 0, 1, 0,0) ">
<use xlink:href="#Layer1_0_1_STROKES"/>
</g>

<g transform="matrix( 1, 0, 0, 1, 0,0) ">
<use xlink:href="#Layer0_0_FILL"/>

<use xlink:href="#Layer0_0_1_STROKES"/>
</g>
</svg>
