
<svg xmlns="http://www.w3.org/2000/svg" version="1.1" xmlns:xlink="http://www.w3.org/1999/xlink" preserveAspectRatio="none" x="0px" y="0px" width="500px" height="500px" viewBox="0 0 500 500">
<defs>
<radialGradient id="Gradient_1" gradientUnits="userSpaceOnUse" cx="0" cy="0" r="231.55" fx="0" fy="0" gradientTransform="matrix( 1, 0, 0, 1, 229.8,247.35) " spreadMethod="pad">
<stop  offset="0%" stop-color="#FA6A06"/>

<stop  offset="36.86274509803921%" stop-color="#EF5906"/>

<stop  offset="100%" stop-color="#C71C02"/>

<stop  offset="100%" stop-color="#000000"/>

<stop  offset="100%" stop-color="#000000"/>

<stop  offset="100%" stop-color="#000000"/>

<stop  offset="100%" stop-color="#AA1C00" stop-opacity="0"/>

<stop  offset="100%" stop-color="#AA1C00" stop-opacity="0"/>

<stop  offset="100%" stop-color="#AA1C00" stop-opacity="0"/>
</radialGradient>

<radialGradient id="Gradient_2" gradientUnits="userSpaceOnUse" cx="0" cy="0" r="81.48336582548612" fx="0" fy="0" gradientTransform="matrix( 0.9971360311012936, 0.07562893282045197, -0.123031245683575, 0.6131619563556724, 112.9,183.35) " spreadMethod="pad">
<stop  offset="78.03921568627452%" stop-color="#FFFFFF"/>

<stop  offset="100%" stop-color="#FFFFFF" stop-opacity="0"/>

<stop  offset="100%" stop-color="#000000"/>

<stop  offset="100%" stop-color="#000000"/>

<stop  offset="100%" stop-color="#000000"/>

<stop  offset="100%" stop-color="#000000"/>

<stop  offset="100%" stop-color="#000000"/>
</radialGradient>

<radialGradient id="Gradient_3" gradientUnits="userSpaceOnUse" cx="0" cy="0" r="13.962908454186767" fx="0" fy="0" gradientTransform="matrix( 0.9659520467568333, -0.258721169149884, 0.258721169149884, 0.9659520467568333, 150.7,103.75) " spreadMethod="pad">
<stop  offset="78.03921568627452%" stop-color="#FFFFFF"/>

<stop  offset="100%" stop-color="#FFFFFF" stop-opacity="0"/>

<stop  offset="100%" stop-color="#000000"/>

<stop  offset="100%" stop-color="#000000"/>

<stop  offset="100%" stop-color="#000000"/>

<stop  offset="100%" stop-color="#000000"/>

<stop  offset="100%" stop-color="#000000"/>
</radialGradient>

<radialGradient id="Gradient_4" gradientUnits="userSpaceOnUse" cx="0" cy="0" r="480.61856383857054" fx="0" fy="0" gradientTransform="matrix( 0.6916087413378523, -0.7222723509210852, 0.3502777725758948, 0.33540111042016185, 244.65,250.4) " spreadMethod="pad">
<stop  offset="0%" stop-color="#FFFFFF" stop-opacity="0"/>

<stop  offset="100%" stop-color="#FFFFFF" stop-opacity="0.4980392156862745"/>

<stop  offset="100%" stop-color="#000000"/>

<stop  offset="100%" stop-color="#000000"/>

<stop  offset="100%" stop-color="#000000"/>

<stop  offset="100%" stop-color="#AA1C00" stop-opacity="0"/>

<stop  offset="100%" stop-color="#AA1C00" stop-opacity="0"/>

<stop  offset="100%" stop-color="#AA1C00" stop-opacity="0"/>
</radialGradient>

<radialGradient id="Gradient_5" gradientUnits="userSpaceOnUse" cx="0" cy="0" r="480.6185638385705" fx="0" fy="0" gradientTransform="matrix( 0.6916087413378524, -0.7222723509210853, 0.3502777725758949, 0.3354011104201619, 275.45,259.5) " spreadMethod="pad">
<stop  offset="0%" stop-color="#FFFFFF" stop-opacity="0"/>

<stop  offset="100%" stop-color="#FFFFFF" stop-opacity="0.4980392156862745"/>

<stop  offset="100%" stop-color="#000000"/>

<stop  offset="100%" stop-color="#000000"/>

<stop  offset="100%" stop-color="#000000"/>

<stop  offset="100%" stop-color="#AA1C00" stop-opacity="0"/>

<stop  offset="100%" stop-color="#AA1C00" stop-opacity="0"/>

<stop  offset="100%" stop-color="#AA1C00" stop-opacity="0"/>
</radialGradient>

<linearGradient id="Gradient_6" gradientUnits="userSpaceOnUse" x1="118.1" y1="-5.700000000000017" x2="382.1" y2="500.20000000000005" spreadMethod="pad">
<stop  offset="0%" stop-color="#FFF346"/>

<stop  offset="100%" stop-color="#EF7102"/>
</linearGradient>

<linearGradient id="Gradient_7" gradientUnits="userSpaceOnUse" x1="160.35000000000002" y1="9.150000000000006" x2="358.35" y2="427.95000000000005" spreadMethod="pad">
<stop  offset="0%" stop-color="#FA8304"/>

<stop  offset="100%" stop-color="#FDE836"/>
</linearGradient>

<linearGradient id="Gradient_8" gradientUnits="userSpaceOnUse" x1="-3.950000000000017" y1="247.4" x2="500.15" y2="247.4" spreadMethod="pad">
<stop  offset="0%" stop-color="#E91B02"/>

<stop  offset="100%" stop-color="#E25500"/>
</linearGradient>

<g id="Layer12_0_FILL">
<path fill="url(#Gradient_1)" stroke="none" d="
M 443.65 317
Q 472.1 236.75 435.65 159.7 399.15 82.45 319.15 53.65 238.85 24.85 162.05 61.15 117.2919921875 82.303515625 88.95 118.45 82.103515625 122.6578125 76.2 128.45 76.1 128.8 76.05 129.15 75.7 130.85 75.8 132.65 75.85 133.7 76.05 134.7 76.1 135.1 76.2 135.45 76.419140625 135.7568359375 76.65 136.05 66.171484375 152.9650390625 58.65 172.6 47.73671875 176.795703125 36.65 180.65 31.848828125 182.3166015625 27.25 184.35 26.3251953125 188.371875 25.15 192.25 25.3 194.25 24.7 196.05 23.6 199.35 23.75 202.85 23.65 203.05 23.55 203.3 23.4 203.55 23.3 203.8 23.15 204.05 23.1 204.3
L 23.1 204.35
Q 36.671484375 203.4048828125 50.05 200.25 49.0830078125 204.26953125 48.25 208.25 44.1921875 210.541015625 40.1 212.8 39.85 213.15 39.6 213.5 39.4 213.85 39.15 214.2 39.05 214.9 39 215.6 38.9 216.3 38.9 217 38.9 217.35 39 217.7 39.05 218.05 39.15 218.4 39.4 218.75 39.6 219.1 39.85 219.45 40.1 219.75 40.45 220.15 40.8 220.5 42.4 221.1 43.9 220.85 45.046875 220.6638671875 46.2 220.45 43.4943359375 239.7341796875 44.6 258.8 30.95 267.0533203125 19.15 277.7 19.1068359375 288.1169921875 17.2 298.15 18.2689453125 300.2984375 19.3 302.45 20.6626953125 305.3232421875 22.65 307.75 21.37421875 308.783984375 20.1 309.8 20.35546875 310.6095703125 20.55 311.4 20.85 311.65 21.15 311.9 21.4 312.1 21.65 312.35 22.05 312.85 22.45 313.3 22.6 313.8 22.8 314.25 23.35 315.45 23.6 316.7 23.8 317.7 24.35 318.6 24.35 320.0205078125 24.75 321.35 42.2814453125 324.16171875 60.15 324.8 62.2779296875 329.9697265625 64.7 335.1 101.1 412 181.3 441.05 261.5 469.85 338.15 433.6 414.9 397.3 443.65 317
M 51.15 186.55
Q 52.67734375 186.003515625 54.2 185.45 53.9521484375 186.233203125 53.7 187 49.573828125 188.1546875 45.45 189.25 48.2 187.6 51.15 186.55
M 26.8 285.3
Q 31.95 278.4 39.7 274.45 42.7365234375 272.90390625 45.75 271.35 47.0462890625 281.5611328125 49.4 291.7 40.1611328125 295.7763671875 31.9 301.1 30.211328125 299.6140625 28.65 297.85 28.55 297.15 28.35 296.5 27.95 295.4 27.5 294.4 27.15 293.7 26.8 293 26.8 292.65 26.8 292.3 26.8 290.2 26.8 288.1 26.8 286.7 26.8 285.3
M 42.85 307.75
Q 47.6466796875 305.4455078125 52.45 303.25 53.4853515625 306.68046875 54.6 310.1 48.299609375 309.796484375 42.85 307.75 Z"/>
</g>

<g id="Layer11_0_FILL">
<path fill="url(#Gradient_2)" stroke="none" d="
M 144.7 185.8
Q 148.8 165.35 142.5 150.15 136.05 135.1 122.95 134.05 109.8 133 97.55 146.75 91.428125 153.678125 87.35 162.3
L 87.35 223.4
Q 93.3806640625 231.96796875 103.1 232.75 116.2 233.7 128.45 220 140.65 206.3 144.7 185.8 Z"/>

<path fill="url(#Gradient_3)" stroke="none" d="
M 162.6 110.6
Q 165.45 105.65 164 100.25 162.55 94.8 157.6 91.95 152.65 89.15 147.25 90.6 141.75 92.05 138.9 96.95 136.15 101.85 137.6 107.3 139.05 112.7 143.9 115.6 148.85 118.45 154.35 117 159.75 115.55 162.6 110.6 Z"/>
</g>

<g id="Layer10_0_FILL">
<path fill="url(#Gradient_4)" stroke="none" d="
M 266.95 443
Q 254.9529296875 438.6056640625 243.25 432.95 228 425.5 213.25 415.95 211.81484375 419.4833984375 210.35 422.8 211.3978515625 423.337109375 212.45 423.85 238.9421875 436.6525390625 266.95 443
M 91.35 95
Q 96.716796875 81.237109375 102.55 70.35 89.01640625 78.574609375 77.65 90.45 31.25 138.85 47.4 219.95 53.3091796875 249.4236328125 66.2 276.95 65.8 265.4693359375 65.8 253.55 65.8 160.7 91.35 95
M 253.3 67.05
Q 229.98671875 58.5140625 205.55 54.75 153.5 46.65 115.85 63.4 108.9556640625 66.46953125 102.55 70.35 96.716796875 81.237109375 91.35 95 65.8 160.7 65.8 253.55 65.8 265.4693359375 66.2 276.95 88.814453125 325.0916015625 132.85 367.25 156.9080078125 390.262109375 182.45 406.85 196.185546875 415.75859375 210.35 422.8 211.81484375 419.4833984375 213.25 415.95 187.7 399.35 163.65 376.35 94.45 310.1 78.2 229.05 62.05 147.95 108.45 99.55 125.2 82.05 146.65 72.5 184.3 55.75 236.35 63.85 244.8912109375 65.165625 253.3 67.05 Z"/>

<path fill="url(#Gradient_5)" stroke="none" d="
M 450.45 380.65
Q 453.7 374.6 458.8 361.9
L 476.5 317.95
Q 475.588671875 304.561328125 472.7 290.1 456.55 209.05 387.3 142.7 325.3703125 83.367578125 253.3 67.05 244.8912109375 65.165625 236.35 63.85 184.3 55.75 146.65 72.5 125.2 82.05 108.45 99.55 62.05 147.95 78.2 229.05 94.45 310.1 163.65 376.35 187.7 399.35 213.25 415.95 228 425.5 243.25 432.95 254.9529296875 438.6056640625 266.95 443 290.1716796875 451.508984375 314.5 455.3 317.1720703125 455.7154296875 319.8 456.05
L 322.95 454.75
Q 330.1 451.75 333.85 449.8 336.95 448.25 346.25 442.6 353.85 437.95 358.85 435.9 361.5 434.8 366.5 433.2 371.9 431.5 374.2 430.6 383.25 427.2 387.6 421.8 388.95 420.25 389.55 419.9 390.15 419.6 390.85 419.65 391.6 419.7 392 420.2 392.65 420.95 392.15 422.45 391.1 425.45 387.1 428.15 381.2 432.25 366.7 437.45 352.7 442.5 346.55 447.15 345.75 447.8 344.1 449.1 342.65 450.2 341.6 450.85 340.45 451.5 337.55 452.8
L 332.15 455.05
Q 352.98359375 452.2076171875 373.45 446.9 384.75 444 391.1 440.6 394.9 438.55 399.15 435.3 401.8 433.2 406.55 429.05 423 414.8 430.8 406.7 443.5 393.5 450.45 380.65 Z"/>
</g>

<g id="Layer4_0_FILL">
<path fill="#000000" stroke="none" d="
M 143.15 360.3
Q 142.7 364.05 144.6 365.45 144.8 365.65 145.15 365.65 155.1 365.65 165.1 365.65 165.4 365.65 165.75 365.65 166.1 365.65 166.2 365.45 169.6 361.35 165.75 358.3 165.4 358.3 165.1 358.3 155.1 358.3 145.15 358.3 145.15 358.65 144.95 358.8 144.15 359.65 143.15 360.3
M 142.45 269.8
Q 142.15 269.8 141.85 269.9 133.05 272.4 130.5 281.15 130.2 286.4 131.7 289.85 131.8 290.1 131.8 290.45 134.95 295.65 140.55 298.3 140.8 298.45 141.15 298.45 144.45 298.45 147.8 298.45 148.1 298.45 148.45 298.45 155.65 296.65 158.7 290.6 158.75 290.45 159.1 290.45 159.75 287.1 159.75 283.15 159.75 282.8 159.75 282.45 159.45 282.45 159.45 282.4 158.95 279.95 158.45 277.8 158.1 277.8 158.05 277.7 155.95 272.3 150.45 270.5 150.1 270.5 149.8 270.4 146.8 269.5 142.45 269.8
M 139.1 281.8
Q 139.15 281.45 139.15 281.15 147.3 273.8 151 283.8 151.1 284.1 151.1 284.45 150.65 290.65 143.8 290.45 143.45 290.45 143.15 290.45 138.55 288.7 139.1 281.8
M 147.1 197.95
Q 147.1 193.65 147.1 189.3 147.1 189 147 188.7 144.25 182.85 139.15 187.3 139.15 192.95 139.15 198.65 139.15 198.95 139.15 199.3 138.95 201.45 141.1 201.6 141.15 201.6 141.15 201.95 143.5 201.95 145.15 201.4 145.45 201.3 145.8 201.3 145.8 200.95 145.8 200.6 146.9 200.4 147.1 199.3 147.1 198.95 147.1 198.65 147.1 198.3 147.1 197.95
M 138.45 179.35
Q 138.15 179.35 137.9 179.15 133.4 176.05 124.5 177.35 124.15 177.35 124.1 177.45 123.65 178.45 122.5 178.65 122.5 180.65 122.5 182.65 122.5 183 122.5 183.3 123.45 184.35 125.05 184.95 125.15 185 125.15 185.3 126.5 185.3 127.85 185.3 128.15 185.3 128.5 185.3 128.5 185 128.5 184.65 135.25 185.75 138 182.85 138.15 182.65 138.45 182.65 138.45 182.35 138.45 182 138.45 180.65 138.45 179.35
M 147.1 172.7
Q 147.1 168.35 147.1 164.05 147.1 163.7 147 163.45 144.25 157.55 139.15 162.05 139.15 162.35 139.15 162.7 139.15 168 139.15 173.35 139.15 173.7 139.15 174 143.1 179.45 146.95 173.9 147.1 173.7 147.1 173.35 147.1 173 147.1 172.7
M 162.45 184.65
Q 162.45 184.3 162.6 184.1 165.6 179.95 161.1 177.35 160.75 177.35 160.45 177.35 155.45 177.35 150.45 177.35 150.1 177.35 149.85 177.45 148.15 178.35 147.1 180 146.65 182.15 147.6 182.85 147.8 183 147.8 183.3 153.45 186.9 161.8 184.7 162.1 184.65 162.45 184.65
M 181.05 132.75
Q 181.05 133.1 181 133.4 180.3 139.2 185.7 138.75 187.9 138.55 188.1 136.7 188.95 127.95 181.05 132.75
M 242.95 130.75
Q 242.6 130.75 242.25 130.85 203.8 137.5 190.35 169.35 190.35 169.7 190.35 170 189.95 173 188.4 174.7 188.4 175 188.35 175.35 187.75 179.75 186.4 183.3 186.4 183.65 186.4 184 186.4 184.3 186.4 184.65 186.4 185 186.45 185.3 186.9 188.1 185.7 189.3
L 185.7 189.65
Q 180.4 190 175.05 190 174.75 190 174.7 190.1 174.2 191.45 172.4 191.3 171.65 197.4 176.4 197.95 176.75 197.95 177.05 197.95 183 197.05 185.55 199.45 185.7 199.65 185.7 199.95 186.6 208.1 187.7 215.95 187.7 216.25 187.7 216.6 190.7 234.2 192.35 253.2 192.35 253.5 192.35 253.85 194.15 269.7 196.35 285.1 196.35 285.45 196.35 285.8 199 300.75 200.3 317.05 200.35 317.4 200.35 317.7 201.5 319.2 201.05 322.4 201 322.7 201 323.05 202.2 324.55 201.7 327.7 201.7 328.05 201.7 328.35 204.3 341.75 205 357 205 357.3 205 357.65
L 205 358
Q 192.85 358.8 182.4 357.65 182.05 357.65 181.7 357.7 178.05 357.9 176.4 360.3 176.2 364.15 178.5 365.5 178.75 365.65 179.05 365.65 232.95 365.65 286.85 365.65 287.2 365.65 287.5 365.65 290.95 361.45 291.7 354.35 291.95 352 292.2 349.7 294 333.1 295.9 316.55 299.85 282.05 304.2 247.85 306.05 233.15 308.15 218.6 308.15 218.25 308.15 217.9 308.15 215.6 308.15 213.25 308.45 213.25 308.8 213.25 308.8 212.95 308.8 212.6 308.8 211.25 308.8 209.95 309.95 204.7 310.15 198.65 310.15 198.3 310.15 197.95 318.7 199.25 322.9 196.15 323.1 195.95 323.45 195.95 323.8 191.6 321.35 190.1 321.1 190 320.8 190 320.45 190 320.1 190 315.6 190.5 312.8 189.3
L 312.45 189.3
Q 308.6 160.55 291.5 145.4 291.5 145.05 291.6 144.75 296.95 129.85 302.15 114.8 302.15 114.45 302.1 114.15 301.9 111.05 300.15 109.45 296.05 108.7 295.05 111.3 289.4 125.65 283.5 140.1 283.2 140.1 282.95 139.9 272 132.35 254.9 130.75 254.6 130.75 254.25 130.75 248.6 130.75 242.95 130.75
M 234.85 167.05
Q 234.95 167 234.95 166.7 240.25 166.7 245.6 166.7 245.95 166.7 246.25 166.7 253.65 158.75 259.8 149.55 259.9 149.4 260.25 149.4 262.75 151.5 264.7 154.2 264.9 154.4 264.9 154.7 264.9 165.35 264.9 176 264.9 176.35 264.9 176.65 255.5 177.5 246.95 177.85 244.85 177.95 244.25 180 242.75 183.5 246.15 184.95 246.25 185 246.25 185.3 263.15 184.4 276.85 186.6 278.35 186.85 278.2 188.65 275.65 189.8 268.2 189.8 242.75 189.8 219.1 187.3 219 187.3 219 186 221.5 171.2 234.85 167.05
M 242.95 158.05
Q 242.95 158.35 242.9 158.35 239.25 158.7 235.6 158.7 235.3 158.7 235 158.75 216.45 163.15 211 180.65 211 182 211 183.3 211 183.65 211 184 211 184.3 211.05 184.65 211.5 187.8 210.35 189.3 206.65 189.3 203.1 189.85 195.65 191 194.35 186.65 201.35 150.05 235.55 140.5 248.05 137 262.25 140.1 272.3 143.3 280.75 148.3 280.85 148.4 280.85 148.75 277.55 158.05 274.3 167.4 274.2 167.7 274.2 168
L 274.2 168.35
Q 274.15 168.2 274.05 168
L 273.85 168
Q 273.85 167.8 273.9 167.5 272 162.35 272.85 154.05 272.85 153.7 272.8 153.4 270.8 145.85 264.9 142.05 264.55 142.05 264.2 142 262.1 141.55 260.25 140.75 258.55 140.75 257.45 141.55 248.45 147.95 242.95 158.05
M 281.5 179.95
Q 279.25 179.65 278.85 177.35 279.95 177.45 279.85 176
L 280.2 176
Q 280.2 175.65 280.2 175.35 280.2 175 280.2 174.7 283.9 165.1 287.4 155.35 287.5 155.05 287.5 154.7 300.8 166.35 304.1 188 304.15 188.3 304.15 188.65 298 189.8 290.15 189.35 289.85 189.3 289.5 189.3 286.7 184.15 282.35 180.45 282.2 180.35 282.2 180 281.85 180 281.5 179.95
M 301.5 197.95
Q 301.8 197.95 302.15 197.95 295.5 250.9 288.9 303.75 288.1 310.15 287.3 316.55 285.2 333.15 283.15 349.7 282.65 353.35 282.2 357 249.4 358.15 215 357.65 214.65 357.65 214.3 357.65 207.45 305 200.85 252.45 197.4 225.15 194.35 197.95 247.9 197.95 301.5 197.95
M 247.6 250.5
Q 247.25 250.5 247.05 250.7 239.65 257.2 238.95 270.5 238.6 270.5 238.3 270.55 226.25 273.05 222.95 284.45 222.95 294.8 229.05 298.95 241.65 307.45 252.25 297.1 255.75 301.9 262.95 302.2 276.15 302.75 278.7 292.25 283.35 272.9 263.55 270.5 258.65 266.45 256.4 260.2 253.9 253.2 247.6 250.5
M 246.95 271.8
Q 247.6 264.4 250.65 268.05 254.3 272.4 252.9 275.15 250.45 276.4 247.1 272.35 246.95 272.15 246.95 271.8
M 244.95 281.15
Q 248.85 288.2 243.45 293.6 243.25 293.75 242.95 293.75 242.95 294.1 242.85 294.45 242.55 296.65 238.95 294.45 238.6 294.45 238.3 294.4 231.55 293.5 231.6 285.8 235.5 276.45 244.35 281 244.6 281.15 244.95 281.15
M 256.9 285.8
Q 256.9 285.45 256.9 285.1 260.85 277 268.9 280.35 269.2 280.45 269.55 280.45 274.05 286.25 270.35 292.55 270.2 292.75 270.2 293.1 264.8 295.85 260.15 293.25 259.9 293.1 259.55 293.1 256.95 290.75 256.9 285.8 Z"/>
</g>

<g id="Layer3_0_FILL">
<path fill="#FFFFFF" stroke="none" d="
M 139.3 356.15
Q 138.85 359.9 140.75 361.3 140.95 361.5 141.3 361.5 151.25 361.5 161.25 361.5 161.55 361.5 161.9 361.5 162.25 361.5 162.35 361.3 165.75 357.2 161.9 354.15 161.55 354.15 161.25 354.15 151.25 354.15 141.3 354.15 141.3 354.5 141.1 354.65 140.3 355.5 139.3 356.15
M 146.6 266.35
Q 146.25 266.35 145.95 266.25 142.95 265.35 138.6 265.65 138.3 265.65 138 265.75 129.2 268.25 126.65 277 126.35 282.25 127.85 285.7 127.95 285.95 127.95 286.3 131.1 291.5 136.7 294.15 136.95 294.3 137.3 294.3 140.6 294.3 143.95 294.3 144.25 294.3 144.6 294.3 151.8 292.5 154.85 286.45 154.9 286.3 155.25 286.3 155.9 282.95 155.9 279 155.9 278.65 155.9 278.3 155.6 278.3 155.6 278.25 155.1 275.8 154.6 273.65 154.25 273.65 154.2 273.55 152.1 268.15 146.6 266.35
M 135.25 277.65
Q 135.3 277.3 135.3 277 143.45 269.65 147.15 279.65 147.25 279.95 147.25 280.3 146.8 286.5 139.95 286.3 139.6 286.3 139.3 286.3 134.7 284.55 135.25 277.65
M 135.3 194.5
Q 135.3 194.8 135.3 195.15 135.1 197.3 137.25 197.45 137.3 197.45 137.3 197.8 139.65 197.8 141.3 197.25 141.6 197.15 141.95 197.15 141.95 196.8 141.95 196.45 143.05 196.25 143.25 195.15 143.25 194.8 143.25 194.5 143.25 194.15 143.25 193.8 143.25 189.5 143.25 185.15 143.25 184.85 143.15 184.55 140.4 178.7 135.3 183.15 135.3 188.8 135.3 194.5
M 143.1 169.75
Q 143.25 169.55 143.25 169.2 143.25 168.85 143.25 168.55 143.25 164.2 143.25 159.9 143.25 159.55 143.15 159.3 140.4 153.4 135.3 157.9 135.3 158.2 135.3 158.55 135.3 163.85 135.3 169.2 135.3 169.55 135.3 169.85 139.25 175.3 143.1 169.75
M 157.25 173.2
Q 156.9 173.2 156.6 173.2 151.6 173.2 146.6 173.2 146.25 173.2 146 173.3 144.3 174.2 143.25 175.85 142.8 178 143.75 178.7 143.95 178.85 143.95 179.15 149.6 182.75 157.95 180.55 158.25 180.5 158.6 180.5 158.6 180.15 158.75 179.95 161.75 175.8 157.25 173.2
M 118.65 174.5
Q 118.65 176.5 118.65 178.5 118.65 178.85 118.65 179.15 119.6 180.2 121.2 180.8 121.3 180.85 121.3 181.15 122.65 181.15 124 181.15 124.3 181.15 124.65 181.15 124.65 180.85 124.65 180.5 131.4 181.6 134.15 178.7 134.3 178.5 134.6 178.5 134.6 178.2 134.6 177.85 134.6 176.5 134.6 175.2 134.3 175.2 134.05 175 129.55 171.9 120.65 173.2 120.3 173.2 120.25 173.3 119.8 174.3 118.65 174.5
M 177.2 128.6
Q 177.2 128.95 177.15 129.25 176.45 135.05 181.85 134.6 184.05 134.4 184.25 132.55 185.1 123.8 177.2 128.6
M 239.1 126.6
Q 238.75 126.6 238.4 126.7 199.95 133.35 186.5 165.2 186.5 165.55 186.5 165.85 186.1 168.85 184.55 170.55 184.55 170.85 184.5 171.2 183.9 175.6 182.55 179.15 182.55 179.5 182.55 179.85 182.55 180.15 182.55 180.5 182.55 180.85 182.6 181.15 183.05 183.95 181.85 185.15
L 181.85 185.5
Q 176.55 185.85 171.2 185.85 170.9 185.85 170.85 185.95 170.35 187.3 168.55 187.15 167.8 193.25 172.55 193.8 172.9 193.8 173.2 193.8 179.15 192.9 181.7 195.3 181.85 195.5 181.85 195.8 182.75 203.95 183.85 211.8 183.85 212.1 183.85 212.45 186.85 230.05 188.5 249.05 188.5 249.35 188.5 249.7 190.3 265.55 192.5 280.95 192.5 281.3 192.5 281.65 195.15 296.6 196.45 312.9 196.5 313.25 196.5 313.55 197.65 315.05 197.2 318.25 197.15 318.55 197.15 318.9 198.35 320.4 197.85 323.55 197.85 323.9 197.85 324.2 200.45 337.6 201.15 352.85 201.15 353.15 201.15 353.5
L 201.15 353.85
Q 189 354.65 178.55 353.5 178.2 353.5 177.85 353.55 174.2 353.75 172.55 356.15 172.35 360 174.65 361.35 174.9 361.5 175.2 361.5 229.1 361.5 283 361.5 283.35 361.5 283.65 361.5 287.1 357.3 287.85 350.2 288.1 347.85 288.35 345.55 290.15 328.95 292.05 312.4 296 277.9 300.35 243.7 302.2 229 304.3 214.45 304.3 214.1 304.3 213.75 304.3 211.45 304.3 209.1 304.6 209.1 304.95 209.1 304.95 208.8 304.95 208.45 304.95 207.1 304.95 205.8 306.1 200.55 306.3 194.5 306.3 194.15 306.3 193.8 314.85 195.1 319.05 192 319.25 191.8 319.6 191.8 319.95 187.45 317.5 185.95 317.25 185.85 316.95 185.85 316.6 185.85 316.25 185.85 311.75 186.35 308.95 185.15
L 308.6 185.15
Q 304.75 156.4 287.65 141.25 287.65 140.9 287.75 140.6 293.1 125.7 298.3 110.65 298.3 110.3 298.25 110 298.05 106.9 296.3 105.3 292.2 104.55 291.2 107.15 285.55 121.5 279.65 135.95 279.35 135.95 279.1 135.75 268.15 128.2 251.05 126.6 250.75 126.6 250.4 126.6 244.75 126.6 239.1 126.6
M 199.25 185.7
Q 191.8 186.85 190.5 182.5 197.5 145.9 231.7 136.35 244.2 132.85 258.4 135.95 268.45 139.15 276.9 144.15 277 144.25 277 144.6 273.7 153.9 270.45 163.25 270.35 163.55 270.35 163.85
L 270.35 164.2
Q 270.3 164.05 270.2 163.85
L 270 163.85
Q 270 163.65 270.05 163.35 268.15 158.2 269 149.9 269 149.55 268.95 149.25 266.95 141.7 261.05 137.9 260.7 137.9 260.35 137.85 258.25 137.4 256.4 136.6 254.7 136.6 253.6 137.4 244.6 143.8 239.1 153.9 239.1 154.2 239.05 154.2 235.4 154.55 231.75 154.55 231.45 154.55 231.15 154.6 212.6 159 207.15 176.5 207.15 177.85 207.15 179.15 207.15 179.5 207.15 179.85 207.15 180.15 207.2 180.5 207.65 183.65 206.5 185.15 202.8 185.15 199.25 185.7
M 241.75 162.55
Q 242.1 162.55 242.4 162.55 249.8 154.6 255.95 145.4 256.05 145.25 256.4 145.25 258.9 147.35 260.85 150.05 261.05 150.25 261.05 150.55 261.05 161.2 261.05 171.85 261.05 172.2 261.05 172.5 251.65 173.35 243.1 173.7 241 173.8 240.4 175.85 238.9 179.35 242.3 180.8 242.4 180.85 242.4 181.15 259.3 180.25 273 182.45 274.5 182.7 274.35 184.5 271.8 185.65 264.35 185.65 238.9 185.65 215.25 183.15 215.15 183.15 215.15 181.85 217.65 167.05 231 162.9 231.1 162.85 231.1 162.55 236.4 162.55 241.75 162.55
M 276.35 171.2
Q 276.35 170.85 276.35 170.55 280.05 160.95 283.55 151.2 283.65 150.9 283.65 150.55 296.95 162.2 300.25 183.85 300.3 184.15 300.3 184.5 294.15 185.65 286.3 185.2 286 185.15 285.65 185.15 282.85 180 278.5 176.3 278.35 176.2 278.35 175.85 278 175.85 277.65 175.8 275.4 175.5 275 173.2 276.1 173.3 276 171.85
L 276.35 171.85
Q 276.35 171.5 276.35 171.2
M 297.65 193.8
Q 297.95 193.8 298.3 193.8 291.65 246.75 285.05 299.6 284.25 306 283.45 312.4 281.35 329 279.3 345.55 278.8 349.2 278.35 352.85 245.55 354 211.15 353.5 210.8 353.5 210.45 353.5 203.6 300.85 197 248.3 193.55 221 190.5 193.8 244.05 193.8 297.65 193.8
M 243.75 246.35
Q 243.4 246.35 243.2 246.55 235.8 253.05 235.1 266.35 234.75 266.35 234.45 266.4 222.4 268.9 219.1 280.3 219.1 290.65 225.2 294.8 237.8 303.3 248.4 292.95 251.9 297.75 259.1 298.05 272.3 298.6 274.85 288.1 279.5 268.75 259.7 266.35 254.8 262.3 252.55 256.05 250.05 249.05 243.75 246.35
M 243.1 267.65
Q 243.75 260.25 246.8 263.9 250.45 268.25 249.05 271 246.6 272.25 243.25 268.2 243.1 268 243.1 267.65
M 253.05 281.65
Q 253.05 281.3 253.05 280.95 257 272.85 265.05 276.2 265.35 276.3 265.7 276.3 270.2 282.1 266.5 288.4 266.35 288.6 266.35 288.95 260.95 291.7 256.3 289.1 256.05 288.95 255.7 288.95 253.1 286.6 253.05 281.65
M 234.45 290.25
Q 227.7 289.35 227.75 281.65 231.65 272.3 240.5 276.85 240.75 277 241.1 277 245 284.05 239.6 289.45 239.4 289.6 239.1 289.6 239.1 289.95 239 290.3 238.7 292.5 235.1 290.3 234.75 290.3 234.45 290.25 Z"/>
</g>

<g id="Layer2_0_FILL">
<path fill="#E91B02" fill-opacity="0" stroke="none" d="
M 464.25 253.6
Q 464.25 165.55 402 103.3 339.8 41.1 251.75 41.1 163.7 41.1 101.45 103.3 39.2 165.55 39.2 253.6 39.2 341.65 101.45 403.85 163.7 466.1 251.75 466.1 339.8 466.1 402 403.85 464.25 341.65 464.25 253.6 Z"/>
</g>

<g id="Layer0_0_FILL">
<path fill="#000000" fill-opacity="0.00392156862745098" stroke="none" d="
M 423.35 76.6
Q 457.5068359375 110.733203125 475.4 151.6 457.3890625 108.0890625 421.35 72.05 349.25 -0.05 247.25 -0.05 145.25 -0.05 73.15 72.05 1.05 144.15 1.05 246.15 1.05 348.15 73.15 420.25 86.1396484375 433.2396484375 100.1 443.9 88.0810546875 434.3810546875 76.8 423.1 5.05 351.35 5.05 249.85 5.05 148.35 76.8 76.6 148.55 4.85 250.1 4.85 351.6 4.85 423.35 76.6 Z"/>
</g>

<path id="Layer10_0_1_STROKES" stroke="#333333" stroke-opacity="0" stroke-width="8" stroke-linejoin="round" stroke-linecap="round" fill="none" d="
M 102.55 70.35
Q 124.528515625 29.35 153.1 29.35 166.4 29.35 178.3 38.25
M 66.225 276.95
Q 65.8 265.4693359375 65.8 253.55 65.8 160.7 91.35 95 96.716796875 81.237109375 102.55 70.35
M 213.25 415.95
Q 211.81484375 419.4833984375 210.35 422.825"/>

<path id="Layer2_0_1_STROKES" stroke="url(#Gradient_6)" stroke-width="40" stroke-linejoin="round" stroke-linecap="round" fill="none" d="
M 353.65 445.9
Q 270.65 489.25 181.65 461.7 92.65 434.25 49.7 351.95 6.8 269.75 35.1 180.95 63.4 92.2 146.4 48.85 229.5 5.5 318.55 33.05 407.6 60.55 450.5 142.75 493.45 225.05 465.1 313.8 436.75 402.55 353.65 445.9 Z"/>

<path id="Layer1_0_1_STROKES" stroke="url(#Gradient_7)" stroke-width="10" stroke-linejoin="round" stroke-linecap="round" fill="none" d="
M 338.15 433.6
Q 261.5 469.85 181.3 441.05 101.1 412 64.7 335.1 28.3 258 56.8 177.7 85.35 97.4 162.05 61.15 238.85 24.85 319.15 53.65 399.15 82.45 435.65 159.7 472.1 236.75 443.65 317 414.9 397.3 338.15 433.6 Z"/>

<path id="Layer0_0_1_STROKES" stroke="url(#Gradient_8)" stroke-width="10" stroke-linejoin="round" stroke-linecap="round" fill="none" d="
M 100.1 443.9
Q 88.0810546875 434.3810546875 76.8 423.1 5.05 351.35 5.05 249.85 5.05 148.35 76.8 76.6 148.55 4.85 250.1 4.85 351.6 4.85 423.35 76.6 457.5068359375 110.733203125 475.425 151.6
M 100.1 443.9
Q 164.51640625 494.85 250.1 494.85 351.6 494.85 423.35 423.1 495.15 351.35 495.15 249.85 495.15 196.6359375 475.425 151.6"/>
</defs>

<g transform="matrix( 1, 0, 0, 1, 0,0) ">
<use xlink:href="#Layer12_0_FILL"/>
</g>

<g transform="matrix( 1, 0, 0, 1, 0,0) ">
<use xlink:href="#Layer11_0_FILL"/>
</g>

<g transform="matrix( 1, 0, 0, 1, 0,0) ">
<use xlink:href="#Layer10_0_FILL"/>

<use xlink:href="#Layer10_0_1_STROKES"/>
</g>

<g transform="matrix( 1, 0, 0, 1, 0,0) ">
<use xlink:href="#Layer4_0_FILL"/>
</g>

<g transform="matrix( 1, 0, 0, 1, 0,0) ">
<use xlink:href="#Layer3_0_FILL"/>
</g>

<g transform="matrix( 1, 0, 0, 1, 0,0) ">
<use xlink:href="#Layer2_0_FILL"/>

<use xlink:href="#Layer2_0_1_STROKES"/>
</g>

<g transform="matrix( 1, 0, 0, 1, 0,0) ">
<use xlink:href="#Layer1_0_1_STROKES"/>
</g>

<g transform="matrix( 1, 0, 0, 1, 0,0) ">
<use xlink:href="#Layer0_0_FILL"/>

<use xlink:href="#Layer0_0_1_STROKES"/>
</g>
</svg>
