
<svg xmlns="http://www.w3.org/2000/svg" version="1.1" xmlns:xlink="http://www.w3.org/1999/xlink" preserveAspectRatio="none" x="0px" y="0px" width="500px" height="500px" viewBox="0 0 500 500">
<defs>
<g id="Layer26_0_FILL">
<path fill="#FF8C00" stroke="none" d="
M 459 138.6
Q 459 96.8 429.2 67.25 399.45 37.8 357.3 37.8
L 133.85 37.8
Q 91.7 37.8 61.9 67.25 32.15 96.8 32.15 138.6
L 32.15 360.1
Q 32.15 401.9 61.9 431.4 91.7 460.95 133.85 460.95
L 357.3 460.95
Q 399.45 460.95 429.2 431.4 459 401.9 459 360.1
L 459 138.6 Z"/>
</g>

<g id="Layer7_0_FILL">
<path fill="#031250" stroke="none" d="
M 101.3 396.25
Q 101.3 396.7 101.3 397.1 175 397.1 248.65 397.1 322.35 397.1 396 397.1 404.65 397.1 413.2 397.1 413.6 397.1 414.05 397.1 414.05 396.7 414.05 396.25 405 396.25 396 396.25 322.35 396.25 248.65 396.25 175 396.25 101.3 396.25 Z"/>

<path fill="#000000" fill-opacity="0.4980392156862745" stroke="none" d="
M 282.2 413.85
L 282.2 413.5
Q 309.75 414.35 328.9 407.05 329.3 406.9 329.75 406.9 378.4 407.75 419.55 400.05 424.15 399.2 417.25 398.65 414.7 398.5 414.05 397.1 413.6 397.1 413.2 397.1 404.65 397.1 396 397.1 322.35 397.1 248.65 397.1 175 397.1 101.3 397.1 101.3 396.7 101.3 396.25 100.85 396.25 100.5 396.25 100.5 396.7 100.4 396.7 95.35 398.15 90.65 399.55 103.25 405.35 122.6 405.95 151.75 406.8 183.15 407.7 193.6 407.95 202.25 409.75 219.3 413.3 238.8 413.5 259.55 414.9 282.2 413.85 Z"/>

<path fill="#3989A6" stroke="none" d="
M 154.5 266.15
Q 154.5 285.9 155.55 305.65 155.55 285.3 154.5 266.15
M 152.9 322.6
Q 154.15 322.6 155.35 322.55 155.35 322.2 155.35 321.75 155.4 318.6 155.45 315.4 154.7 319.75 152.05 321.75 151.25 321.8 150.95 321.75 151 321.9 151.1 322.1 151.25 322.55 152.9 322.6
M 148.8 302.15
Q 148.25 312.8 150.8 321.15 150.15 310.7 148.8 302.15 Z"/>

<path fill="#417BA3" stroke="none" d="
M 101.3 392.15
Q 101.3 392.6 101.3 393 114.6 393.6 125.6 391 125.9 390.95 126 389.7 126.45 385.85 125 384 125 386.45 125.05 388.9 125.05 390.15 124.75 390.2 114.2 392.75 101.3 392.15 Z"/>

<path fill="#01164F" stroke="none" d="
M 153.7 263.65
Q 153.7 264.05 153.7 264.5 154.1 264.85 154.35 265.35 154.5 265.7 154.5 266.15 155.55 285.3 155.55 305.65 155.6 307.55 155.7 309.45 155.9 312.85 155.45 315.4 155.4 318.6 155.35 321.75 155.35 322.2 155.35 322.55 156.75 304.35 157.4 284.1 157.8 271 153.7 263.65 Z"/>

<path fill="#001348" stroke="none" d="
M 138.95 247.3
Q 138.95 246.85 138.95 246.45 138.35 209.55 137.55 172.6 137.3 209.1 137.3 245.65 137.3 246 137.3 246.45 137.75 246.85 138.25 247.1 138.55 247.3 138.95 247.3 Z"/>

<path fill="#06114E" stroke="none" d="
M 357.55 393
Q 357.1 393 356.7 393 384.35 394.4 414.05 393.45
L 414.05 393
Q 413.6 393 413.2 393 385.35 393 357.55 393 Z"/>

<path fill="#3D6C9B" stroke="none" d="
M 359.2 392.15
Q 358.75 392.15 358.35 392.15 357.9 392.15 357.55 392.15 357.55 392.6 357.55 393 385.35 393 413.2 393 413.6 393 414.05 393
L 414.05 392.6
Q 386.6 392.15 359.2 392.15 Z"/>

<path fill="#0F295F" stroke="none" d="
M 356.7 302.95
Q 356.3 302.95 355.9 302.95 355.9 347.6 356.3 392.15
L 356.7 392.15
Q 356.7 391.8 356.7 391.35 356.7 347.15 356.7 302.95 Z"/>

<path fill="#1B5D7F" stroke="none" d="
M 357.55 301.3
Q 357.1 301.3 356.7 301.3 356.7 301.7 356.7 302.15 356.7 302.5 356.7 302.95 356.7 347.15 356.7 391.35 356.7 391.8 356.7 392.15 357.1 392.15 357.55 392.15 357.55 391.8 357.55 391.35 357.55 346.35 357.55 301.3 Z"/>

<path fill="#4DA9C1" stroke="none" d="
M 332.15 135.95
L 332.55 135.95
Q 333.6 116.9 332.15 99.95 332.2 117.5 332.15 135.1 332.15 135.55 332.15 135.95 Z"/>

<path fill="#001548" stroke="none" d="
M 332.15 99.95
Q 331.75 99.95 331.3 99.95 331.3 117.9 331.75 135.95
L 332.15 135.95
Q 332.15 135.55 332.15 135.1 332.2 117.5 332.15 99.95 Z"/>

<path fill="#5EC2D5" stroke="none" d="
M 324 92.55
Q 324.4 92.55 324.8 92.55
L 324.8 92.1
Q 268.7 91.75 212.65 91.75 212.65 92.1 212.65 92.55 268.3 92.55 324 92.55 Z"/>

<path fill="#272F6B" stroke="none" d="
M 324.8 92.55
L 324.8 92.95
Q 267.65 94 212.65 92.55 212.2 92.55 211.95 92.75 174.8 120.15 137.3 147.4 137.3 147.8 137.3 148.25
L 137.55 172.6
Q 138.35 209.55 138.95 246.45 138.95 246.85 138.95 247.3 145.55 256.25 153.1 264.25 153.25 264.5 153.7 264.5 153.7 264.05 153.7 263.65 157.8 271 157.4 284.1 156.75 304.35 155.35 322.55 154.15 322.6 152.9 322.6 151.25 322.55 151.1 322.1 151 321.9 150.95 321.75 150.8 321.75 150.8 321.7 150.8 321.4 150.8 321.15 148.25 312.8 148.8 302.15 147.9 298.9 145.25 297.95 133.7 293.7 127.45 299.7 127.1 299.7 127.1 299.75 125.3 309.3 134.85 307.85 136.1 307.85 136.25 308.3 138.75 314.2 138.15 322.55 137.75 322.55 137.3 322.5 123.85 320.6 117.7 325.85 117.4 333.5 121.8 336.7 122.6 337.3 122.7 338.95 124.4 360.85 125 384 126.45 385.85 126 389.7 125.9 390.95 125.6 391 114.6 393.6 101.3 393 100.85 393 100.5 393 100.5 394.25 100.5 395.45 100.5 395.9 100.5 396.25 100.85 396.25 101.3 396.25 175 396.25 248.65 396.25 322.35 396.25 396 396.25 405 396.25 414.05 396.25 414.4 396.25 414.45 396.15 415.45 393.65 414.05 393
L 414.05 393.45
Q 384.35 394.4 356.7 393 357.1 393 357.55 393 357.55 392.6 357.55 392.15 357.1 392.15 356.7 392.15
L 356.3 392.15
Q 355.9 347.6 355.9 302.95 356.3 302.95 356.7 302.95 356.7 302.5 356.7 302.15 356.7 301.7 356.7 301.3 357.1 301.3 357.55 301.3 357.55 300.9 357.55 300.5 357.55 300.05 357.55 299.7 357.9 299.7 358.35 299.7 358.35 299.25 358.6 299 367.05 289.15 378.05 281.65 378.05 281.25 378.05 280.85 378 268.15 378.05 255.5 377.6 255.5 377.2 255.3 355.95 248.05 338.7 236.65 338.7 236.25 338.8 235.85 340.3 230.85 340.35 224.35 339.95 224.35 339.9 224.2 337.65 218.85 332.95 216.2 332.95 215.75 332.9 215.35 324.6 184 317.45 151.5 323.3 142.65 331.95 136.5 332.15 136.35 332.15 135.95
L 331.75 135.95
Q 331.3 117.9 331.3 99.95 331.75 99.95 332.15 99.95 332.15 99.5 332.05 99.15 330.4 93.9 324.8 92.55
M 327.15 100.75
Q 327.25 101.15 327.25 101.55 328.25 111.2 328.3 121.8 328.3 122.2 328.35 122.7 328.7 125.6 328.25 127.65 328.15 129.7 328.1 131.85 328.1 132.25 328.1 132.65
L 328.1 133.1
Q 275.5 134.1 224.95 132.65 224.95 132.25 224.95 131.85 224.95 131.45 224.95 131 224.95 130.65 224.95 130.2 225.5 112.9 224.1 97.45 239.65 97.45 255.2 97.45 255.6 97.45 256.05 97.45 271.6 97.45 287.1 97.45 287.55 97.45 287.95 97.45 294.1 97.45 300.25 97.45 300.65 97.45 301.05 97.45 307.2 97.45 313.35 97.45 313.7 97.45 314.15 97.45 314.55 97.45 315 97.45 318.25 97.45 321.55 97.45 321.9 97.45 322.35 97.45 326.25 97.7 327.15 100.75
M 324.85 222.05
Q 325.2 221.9 325.65 221.9 325.65 221.5 325.65 221.05 332.5 220.3 334.5 224.45 334.6 224.75 334.6 225.15 336.5 229.15 333.1 231.6 322.15 239.45 321.55 224.35 321.9 224.35 322.35 224.35 322.35 223.95 322.35 223.5 323.55 222.7 324.85 222.05
M 327.65 215.35
L 327.25 215.35
Q 327.25 215.75 327.15 215.75 322.05 216.7 318.25 218.6 318.25 218.2 318.15 217.85 310.65 186.55 302.7 155.6 302.3 155.6 302.2 155.45 299.8 149.5 292.05 149.05 291.65 149.05 291.2 149.05 257.65 149.05 224.1 149.05 218.9 149.1 216.45 151.95 209.75 159.9 210.2 149.85 216 141.8 225.95 138.1 227.35 137.55 229 137.55 229 137.2 229 136.75 256.4 136.75 283.85 137.2
L 283.85 137.55
Q 284.65 137.55 285.5 137.55 285.9 137.55 286.3 137.55 286.3 137.2 286.3 136.75 304.75 136.75 323.1 137.55 323.2 137.55 322.85 138.25 322.75 138.4 322.35 138.4 321.9 138.4 321.75 138.6 318.35 142.6 314.15 145.75 314.15 146.15 314.1 146.6 313.8 149.5 312.5 151.5 319.15 184.55 327.65 215.35
M 325.2 241.55
L 325.65 241.55
Q 329.9 238.5 334.65 239.8 335.05 239.9 335.4 239.9 345.6 249.8 361.55 254.2 361.65 254.2 361.65 254.65
L 361.65 255.05
Q 313.95 256.1 268.3 254.65 267.9 254.65 267.55 254.5 254.55 248.75 241.3 243.2 240.9 243.2 240.5 243.05 238.55 242.65 237.2 241.55 254 241.55 270.8 241.55 271.15 241.55 271.6 241.55 272 241.55 272.4 241.55 272.8 241.55 273.25 241.55 273.25 241.15 273.25 240.7 276.1 240.7 278.85 241.1 278.9 241.15 278.9 241.55 279.75 241.55 280.55 241.55 281 241.55 281.4 241.55 284.3 241.55 287.1 241.55 287.55 241.55 287.95 241.55 292.85 239.85 297.85 241.45 298.2 241.55 298.6 241.55 312.35 243.4 318.05 237.3 318.25 237.05 318.25 236.65 324 241.45 315 243.15 314.55 243.2 314.15 243.2 314.15 251.75 323.2 251.4 323.55 251.4 324 251.4 325.4 247.5 325.2 241.55
M 348.95 259.55
L 349.35 259.55
Q 361.2 259.55 373.05 259.95 373.1 259.95 373.1 260.4 373.1 268.95 373.1 277.55 373.1 278 373.1 278.35
L 373.5 278.35
Q 322.75 280.45 271.6 278.35 271.15 278.35 270.8 278.35
L 270.35 278.35
Q 269.95 268.95 269.95 259.55 269.95 259.15 269.95 258.75 286.75 258.75 303.5 259.15
L 303.5 259.55
Q 304.95 263.45 304.4 269.4 304.35 269.8 304.35 270.15 305.05 272 306.85 272.5 307.15 272.65 307.6 272.65 325.2 272.7 342.8 273.05
L 342.8 273.45
Q 343.25 273.45 343.6 273.45 348.85 269.3 348.95 259.55
M 342.8 268.6
L 342.8 268.95
Q 324.6 270 308.45 268.6 308.45 268.15 308.45 267.75 308.45 264.5 308.45 261.2 308.45 260.8 308.45 260.4 308.45 259.95 308.45 259.55 327.05 258.95 343.45 261.6 343.6 261.6 343.75 262.8 344.2 266.7 342.8 268.6
M 346.9 283.7
L 346.9 284.1
Q 337 288.95 332.65 299.5 332.55 299.7 332.15 299.7 290.25 300.3 250.3 298.4
L 250.3 298.05
Q 258.35 290.1 268.1 283.85 268.3 283.7 268.3 283.3 307.6 283.3 346.9 283.7
M 357.3 291.25
Q 357.1 291.5 356.7 291.5 356.7 291.9 356.5 292.1 353.85 294.75 352.6 298.85 352.6 299.25 352.6 299.7 352.6 300.05 352.6 300.5 354.05 345.3 353.05 392.15
L 352.6 392.15
Q 352.25 392.15 351.8 392.15 351.4 392.15 351 392.15 350.15 392.15 349.35 392.15 348.95 392.15 348.55 392.15 348.15 392.15 347.7 392.15 342.8 392.15 337.85 392.15
L 337.5 392.15
Q 337.05 346.35 337.05 300.5 337.5 300.5 337.85 300.5 337.85 300.05 337.85 299.7 337.85 299.25 337.85 298.85 346.3 287.6 361.75 283.8 363.65 283.3 365.75 283.3 368.9 284.1 365.05 285.3 364.9 285.35 364.9 285.75 360.6 288.05 357.3 291.25
M 332.15 304.95
L 332.15 305.4
Q 333.6 311.3 333 319.35 332.95 319.75 332.95 320.15 334.45 355.15 333.4 392.15
L 332.95 392.15
Q 332.55 392.15 332.15 392.15
L 332.15 392.6
Q 290.2 393.6 250.3 392.15 249.9 392.15 249.45 392.15
L 249.1 392.15
Q 248.65 356.15 248.65 320.15 249.1 320.15 249.45 320.15 249.45 319.75 249.45 319.35 249.45 318.9 249.45 318.5 249.45 318.1 249.45 317.7 249.45 311.15 249.45 304.6 290.85 304.6 332.15 304.95
M 217.45 97.85
Q 217.55 97.85 217.55 98.3 218.95 98.5 219.15 99.95 219.2 100.3 219.2 100.75 219.6 100.75 220.05 100.75 220.05 100.3 220.05 99.95 221.45 115.65 220.4 133.5
L 220.05 133.5
Q 220.05 133.9 219.8 134.1 219.6 134.3 219.2 134.3 218.75 134.3 218.55 134.5 210.85 140.7 205.25 149.05 207.1 169.3 211.85 186.1 216.15 201.15 219.7 215.65 222.6 227.5 226.25 237.55 227.5 241 229.8 243.2 244.5 251.45 261.6 257.45 261.75 257.5 261.75 257.95 263.35 257.95 263.8 258.9 267.05 266.95 265.85 279.2 265.85 279.6 265.7 279.75 254.7 286.05 246.2 294.75 246.2 295.2 246.15 295.6 245.8 298.45 244.55 300.5 244.55 345.95 244.55 391.35 244.55 391.8 244.55 392.15
L 244.55 392.6
Q 203.05 393.6 163.55 392.15
L 163.1 392.15
Q 162.7 384 162.7 375.8 165.25 355.8 166.8 334.1 166.8 334.05 167.5 333.75 168.85 333.2 170.1 332.4 170.1 332 170.2 331.65 172.15 325.75 167.65 322.55 167.2 322.55 166.85 322.45 164.4 321.3 160.25 321.75 159.8 321.75 159.8 321.7 159.45 319.35 159.45 316.9
L 159 316.9
Q 158.6 295.6 158.6 274.25 159 274.25 159.45 274.25 159.45 273.9 159.45 273.45 159.45 268.55 159.45 263.65 159 263.65 158.85 263.45 150.5 253.35 142.25 243.2
L 141.85 243.2
Q 141.4 197.35 141.4 151.5 141.85 151.5 142.25 151.5 142.25 151.05 142.25 150.7 177.95 124.2 213.6 97.65 213.85 97.45 214.3 97.45 215.95 97.45 217.45 97.85
M 218.6 155.75
Q 218.75 155.6 219.2 155.6 236.05 152.75 256.85 153.1 277.05 153.35 295.3 154.8 302.4 171.4 307 190.75 311.55 209.8 315.8 229.25 316.35 234.35 312.5 235.05 296.95 237.85 277.35 237.85 253.7 237.75 233.9 235 226.1 219.45 221.4 200.1 216.95 181.95 214.3 161.35 216.25 158.4 218.6 155.75
M 143.75 301.7
Q 143.85 301.7 143.85 302.15 147.3 311.35 144.3 322.5 144.3 322.55 143.85 322.55 141 316.85 142.3 307.05 142.85 303.15 138.95 303.75 132.05 305.35 130.85 301.25 130.75 300.9 130.75 300.5 138.3 299.9 143.75 301.7
M 123.45 326.65
Q 123.45 326.3 123.45 325.85 144.3 325.85 165.15 326.3
L 165.15 326.65
Q 165.15 327.1 165.15 327.5 167.1 328.3 165.35 329.45 165.15 329.55 165.15 329.95 165.15 330.4 165.1 330.4 143.25 331.4 123.45 329.95 123 329.95 122.95 329.85 122.6 328.75 122.6 327.5 123 327.5 123.2 327.3 123.45 327.1 123.45 326.65
M 127.45 334.85
Q 127.45 334.5 127.45 334.05 143.85 334.05 160.25 334.5
L 160.25 334.85
Q 160.25 335.3 160.25 335.7 160.85 342 159.45 346.35 159.45 346.75 159.45 347.15 160.05 357.6 158.6 366 158.6 368 158.6 370.1 158.6 370.5 158.6 370.9 158.6 374.6 159.05 378.2 160.6 390.05 152.9 392.15 148.8 392.15 144.85 392.95 130.1 395.7 130.75 384 130.75 383.6 130.65 383.25 129.35 380.55 129.95 375.8
L 129.55 375.8
Q 128.5 355.15 127.45 334.85 Z"/>

<path fill="#EE5D25" stroke="none" d="
M 154.55 376.6
Q 154.5 376.2 154.5 375.8
L 154.5 375.4
Q 146.55 377.7 136.5 382.35 135.65 395.45 152.05 391.45 152.45 391.35 152.9 391.35 155.5 385.8 154.55 376.6 Z"/>

<path fill="#B0513C" stroke="none" d="
M 136.5 382.35
Q 136.1 382.35 135.65 382.35 135.3 382.35 135 382.55 133.4 383.75 130.75 384 130.1 395.7 144.85 392.95 148.8 392.15 152.9 392.15 152.9 391.8 152.9 391.35 152.45 391.35 152.05 391.45 135.65 395.45 136.5 382.35 Z"/>

<path fill="#BE9921" stroke="none" d="
M 134.85 361.9
Q 134.45 361.9 134.15 362.05 133.2 362.65 131.55 362.7 135.6 370.15 135.65 381.5 135.65 381.95 135.65 382.35 136.1 382.35 136.5 382.35 136.5 381.95 136.45 381.5 135.55 374.25 135.65 366 135.3 366 135.25 365.9 134.85 363.95 134.85 361.9 Z"/>

<path fill="#B59338" stroke="none" d="
M 134.85 361.9
Q 134.85 361.45 134.85 361.1 134.85 360.65 134.85 360.25 134.45 360.25 134.1 360.35 132.3 360.9 129.95 361.1 129.95 368 129.95 374.95 129.95 375.4 129.95 375.8 129.35 380.55 130.65 383.25 130.75 383.6 130.75 384 133.4 383.75 135 382.55 135.3 382.35 135.65 382.35 135.65 381.95 135.65 381.5 135.6 370.15 131.55 362.7 133.2 362.65 134.15 362.05 134.45 361.9 134.85 361.9 Z"/>

<path fill="#E2A99B" stroke="none" d="
M 158.6 370.9
Q 158.2 370.9 157.8 370.9 157.35 370.9 157.1 371.1 156.15 371.75 155.35 372.55 155.35 372.95 155.4 373.3 155.9 375.55 154.5 375.8 154.5 376.2 154.55 376.6 155.5 385.8 152.9 391.35 152.9 391.8 152.9 392.15 160.6 390.05 159.05 378.2 158.6 374.6 158.6 370.9 Z"/>

<path fill="#F6C218" stroke="none" d="
M 155.35 352.9
L 155.35 351.25
Q 146.45 354.6 135.65 361.9 135.65 363.55 135.65 365.2 135.65 365.55 135.65 366 135.55 374.25 136.45 381.5 136.5 381.95 136.5 382.35 146.55 377.7 154.5 375.4
L 154.5 375.8
Q 155.9 375.55 155.4 373.3 155.35 372.95 155.35 372.55 155.35 372.1 155.35 371.75 155.35 362.3 155.35 352.9 Z"/>

<path fill="#E5D4AC" stroke="none" d="
M 159.45 346.35
Q 159.45 345.95 159.5 345.5 160 342.9 158.6 342.25 158.6 342.65 158.6 343.05 158.6 343.5 158.6 343.85 158.6 344.3 158.45 344.65 158.2 345.15 157.8 345.5 157.85 355.85 157.8 370.1 157.8 370.5 157.8 370.9 158.2 370.9 158.6 370.9 158.6 370.5 158.6 370.1 158.6 368 158.6 366 160.05 357.6 159.45 347.15 159.45 346.75 159.45 346.35 Z"/>

<path fill="#FCE28A" stroke="none" d="
M 156.15 345.5
Q 156.15 345.95 156.2 346.35 156.75 350.65 155.35 352.9 155.35 362.3 155.35 371.75 155.35 372.1 155.35 372.55 156.15 371.75 157.1 371.1 157.35 370.9 157.8 370.9 157.8 370.5 157.8 370.1 157.85 355.85 157.8 345.5 158.2 345.15 158.45 344.65 158.6 344.3 158.6 343.85 158.2 343.85 157.85 344 157 344.3 156.15 344.7 156.15 345.15 156.15 345.5 Z"/>

<path fill="#F8B62A" stroke="none" d="
M 156.2 346.35
Q 156.15 345.95 156.15 345.5 155.7 345.5 155.55 345.75 147.15 354.55 134.85 359.45 134.85 359.85 134.85 360.25 134.85 360.65 134.85 361.1 134.85 361.45 134.85 361.9 134.85 363.95 135.25 365.9 135.3 366 135.65 366 135.65 365.55 135.65 365.2 135.65 363.55 135.65 361.9 146.45 354.6 155.35 351.25
L 155.35 352.9
Q 156.75 350.65 156.2 346.35 Z"/>

<path fill="#EE5B23" stroke="none" d="
M 156.15 335.7
Q 155.7 335.7 155.35 335.7 144.7 335.7 134.05 335.7 133.9 347.65 134.85 358.65 134.85 359 134.85 359.45 147.15 354.55 155.55 345.75 155.7 345.5 156.15 345.5 156.15 345.15 156.15 344.7 156.15 344.3 156.15 343.85 156.15 339.8 156.15 335.7 Z"/>

<path fill="#EDAD90" stroke="none" d="
M 160.25 335.7
Q 160.25 335.3 160.25 334.85 159.8 334.85 159.45 334.85 157.8 334.85 156.15 334.85 156.15 335.3 156.15 335.7 156.15 339.8 156.15 343.85 156.15 344.3 156.15 344.7 157 344.3 157.85 344 158.2 343.85 158.6 343.85 158.6 343.5 158.6 343.05 158.6 342.65 158.6 342.25 160 342.9 159.5 345.5 159.45 345.95 159.45 346.35 160.85 342 160.25 335.7 Z"/>

<path fill="#B74F37" stroke="none" d="
M 133.2 334.85
Q 133.2 335.3 133.1 335.65 132.4 337.7 129.1 336.5 130.5 347.45 130 360.25 129.95 360.65 129.95 361.1 132.3 360.9 134.1 360.35 134.45 360.25 134.85 360.25 134.85 359.85 134.85 359.45 134.85 359 134.85 358.65 133.9 347.65 134.05 335.7 144.7 335.7 155.35 335.7 155.7 335.7 156.15 335.7 156.15 335.3 156.15 334.85 155.7 334.85 155.35 334.85 144.3 334.85 133.2 334.85 Z"/>

<path fill="#8B504E" stroke="none" d="
M 133.2 334.85
Q 132.85 334.85 132.4 334.85 129.95 334.85 127.45 334.85 128.5 355.15 129.55 375.8
L 129.95 375.8
Q 129.95 375.4 129.95 374.95 129.95 368 129.95 361.1 129.95 360.65 130 360.25 130.5 347.45 129.1 336.5 132.4 337.7 133.1 335.65 133.2 335.3 133.2 334.85 Z"/>

<path fill="#2E1F42" stroke="none" d="
M 132.4 334.85
Q 132.85 334.85 133.2 334.85 144.3 334.85 155.35 334.85 155.7 334.85 156.15 334.85 157.8 334.85 159.45 334.85 159.8 334.85 160.25 334.85
L 160.25 334.5
Q 143.85 334.05 127.45 334.05 127.45 334.5 127.45 334.85 129.95 334.85 132.4 334.85 Z"/>

<path fill="#EAC452" stroke="none" d="
M 143.9 329.4
Q 153.1 328.5 160.25 329.95 162.3 329.95 164.35 329.95 164.75 329.95 165.15 329.95 165.15 329.55 165.35 329.45 167.1 328.3 165.15 327.5 164.75 327.5 164.35 327.5 146.3 327.5 128.3 327.5 134.1 330.35 143.9 329.4 Z"/>

<path fill="#161326" stroke="none" d="
M 127.45 329.95
Q 127.1 329.95 126.65 329.95 125 329.95 123.45 329.95 143.25 331.4 165.1 330.4 165.15 330.4 165.15 329.95 164.75 329.95 164.35 329.95 162.3 329.95 160.25 329.95 159.8 329.95 159.45 329.95 143.5 329.95 127.45 329.95 Z"/>

<path fill="#0E082A" stroke="none" d="
M 123.45 325.85
Q 123.45 326.3 123.45 326.65 143.85 326.65 164.35 326.65 164.75 326.65 165.15 326.65
L 165.15 326.3
Q 144.3 325.85 123.45 325.85 Z"/>

<path fill="#CAA94B" stroke="none" d="
M 128.3 327.5
Q 127.9 327.5 127.9 327.6 127.6 328.85 125.85 328.3 125.8 329.65 127.45 329.55
L 127.45 329.95
Q 143.5 329.95 159.45 329.95 159.8 329.95 160.25 329.95 153.1 328.5 143.9 329.4 134.1 330.35 128.3 327.5 Z"/>

<path fill="#927B45" stroke="none" d="
M 127.9 327.6
Q 127.9 327.5 128.3 327.5 146.3 327.5 164.35 327.5 164.75 327.5 165.15 327.5 165.15 327.1 165.15 326.65 164.75 326.65 164.35 326.65 143.85 326.65 123.45 326.65 123.45 327.1 123.2 327.3 123 327.5 122.6 327.5 122.6 328.75 122.95 329.85 123 329.95 123.45 329.95 125 329.95 126.65 329.95 127.1 329.95 127.45 329.95
L 127.45 329.55
Q 125.8 329.65 125.85 328.3 127.6 328.85 127.9 327.6 Z"/>

<path fill="#EAEBF2" stroke="none" d="
M 143.85 302.15
Q 143.85 301.7 143.75 301.7 138.3 299.9 130.75 300.5 130.75 300.9 130.85 301.25 132.05 305.35 138.95 303.75 142.85 303.15 142.3 307.05 141 316.85 143.85 322.55 144.3 322.55 144.3 322.5 147.3 311.35 143.85 302.15 Z"/>

<path fill="#5D697A" stroke="none" d="
M 307 190.75
Q 302.4 171.4 295.3 154.8 277.05 153.35 256.85 153.1 236.05 152.75 219.2 155.6 224.45 181 235.55 200.95 246.6 220.75 269.95 228.45 293.45 229.8 315 229.25 315.35 229.25 315.8 229.25 311.55 209.8 307 190.75
M 275 162.9
Q 274.9 162.55 274.9 162.15 287.75 159.15 292.3 173.25 294.05 178.55 294.35 185.85 294.6 193.75 290.4 197.35 286.55 197.9 285.65 195.65 285.5 195.25 285.5 194.9 280.5 178.55 275 162.9
M 288.75 208
Q 288.75 207.55 288.75 207.2 299.15 203.8 295.35 217.6 295.3 217.85 294.75 218.15 294.1 218.65 293.65 219.4 289.2 219.8 288.8 216.15 288.75 215.75 288.75 215.35 288.75 211.65 288.75 208 Z"/>

<path fill="#8A95A0" stroke="none" d="
M 288.75 207.2
Q 288.75 207.55 288.75 208 288.75 211.65 288.75 215.35 288.75 215.75 288.8 216.15 289.2 219.8 293.65 219.4 294.1 218.65 294.75 218.15 295.3 217.85 295.35 217.6 299.15 203.8 288.75 207.2 Z"/>

<path fill="#8B96A0" stroke="none" d="
M 274.9 162.15
Q 274.9 162.55 275 162.9 280.5 178.55 285.5 194.9 285.5 195.25 285.65 195.65 286.55 197.9 290.4 197.35 294.6 193.75 294.35 185.85 294.05 178.55 292.3 173.25 287.75 159.15 274.9 162.15 Z"/>

<path fill="#515D76" stroke="none" d="
M 219.2 155.6
Q 218.75 155.6 218.6 155.75 216.25 158.4 214.3 161.35 216.95 181.95 221.4 200.1 226.1 219.45 233.9 235 253.7 237.75 277.35 237.85 296.95 237.85 312.5 235.05 316.35 234.35 315.8 229.25 315.35 229.25 315 229.25 293.45 229.8 269.95 228.45 246.6 220.75 235.55 200.95 224.45 181 219.2 155.6 Z"/>

<path fill="#403C86" stroke="none" d="
M 239.65 392.15
Q 239.25 392.15 238.8 392.15 236.8 392.15 234.7 392.15 234.35 392.15 233.9 392.15 198.7 392.15 163.55 392.15 203.05 393.6 244.55 392.6
L 244.55 392.15
Q 244.15 392.15 243.75 392.15 242.55 392.15 241.3 392.15 240.9 392.15 240.45 392.15 240.1 392.15 239.65 392.15 Z"/>

<path fill="#8467D3" stroke="none" d="
M 211 388.05
Q 215.45 392.05 222.5 389.8 222.85 389.7 223.3 389.7 223.3 389.35 223.2 389.3 216.85 387.95 211.85 385.6 211.85 386.05 211.9 386.45 212.3 388.2 211 388.05 Z"/>

<path fill="#8567D3" stroke="none" d="
M 196.25 376.6
Q 196.25 377.05 196.05 377.25 195.9 377.4 195.45 377.4 197.5 379.45 199.3 381.7 199.55 381.95 199.55 382.35 205.6 386.15 207.2 384.2 207.3 384 207.75 384 207.75 383.6 207.55 383.5 201.5 380.35 196.25 376.6 Z"/>

<path fill="#8267CF" stroke="none" d="
M 170.1 332.4
Q 168.85 333.2 167.5 333.75 166.8 334.05 166.8 334.1 165.25 355.8 162.7 375.8 162.7 384 163.1 392.15
L 163.55 392.15
Q 198.7 392.15 233.9 392.15 234.35 392.15 234.7 392.15 234.7 391.8 234.65 391.75 228.65 390.85 223.3 389.7 222.85 389.7 222.5 389.8 215.45 392.05 211 388.05 212.3 388.2 211.9 386.45 211.85 386.05 211.85 385.6 211.4 385.6 211.25 385.45 210.1 384.1 207.75 384 207.3 384 207.2 384.2 205.6 386.15 199.55 382.35 199.55 381.95 199.3 381.7 197.5 379.45 195.45 377.4 195.9 377.4 196.05 377.25 196.25 377.05 196.25 376.6 196.25 376.2 196.05 376.05 176.8 360.5 170.1 332.4 Z"/>

<path fill="#D8BDFF" stroke="none" d="
M 240.45 298.85
Q 240.1 298.85 239.65 298.85 239.65 345.1 239.65 391.35 239.65 391.8 239.65 392.15 240.1 392.15 240.45 392.15 240.9 392.15 241.3 392.15 241.3 391.8 241.3 391.35 239.85 346.1 240.45 298.85 Z"/>

<path fill="#D2C0F9" stroke="none" d="
M 261.75 257.95
Q 261.35 257.95 261.35 258 259.55 268.35 260.15 280.85 259.7 280.85 259.4 281.05 249.15 287.85 240.45 296.4 240.45 297.2 240.45 298.05 240.45 298.4 240.45 298.85 239.85 346.1 241.3 391.35 241.3 391.8 241.3 392.15 242.55 392.15 243.75 392.15 244.15 392.15 244.55 392.15 244.55 391.8 244.55 391.35 244.55 345.95 244.55 300.5 245.8 298.45 246.15 295.6 246.2 295.2 246.2 294.75 254.7 286.05 265.7 279.75 265.85 279.6 265.85 279.2 267.05 266.95 263.8 258.9 263.35 257.95 261.75 257.95 Z"/>

<path fill="#1D2363" stroke="none" d="
M 159.45 274.25
Q 159 274.25 158.6 274.25 158.6 295.6 159 316.9
L 159.45 316.9
Q 159.45 316.45 159.45 316.05 159.45 295.2 159.45 274.25 Z"/>

<path fill="#4C4B96" stroke="none" d="
M 159.45 273.45
Q 159.45 273.9 159.45 274.25 159.45 295.2 159.45 316.05 159.45 316.45 159.45 316.9 159.45 319.35 159.8 321.7 159.8 321.75 160.25 321.75 160.25 321.35 160.25 321 160.85 291.25 159.45 263.65 159.45 268.55 159.45 273.45 Z"/>

<path fill="#3D3983" stroke="none" d="
M 142.25 151.5
Q 141.85 151.5 141.4 151.5 141.4 197.35 141.85 243.2
L 142.25 243.2
Q 142.25 242.8 142.25 242.35 142.25 196.9 142.25 151.5 Z"/>

<path fill="#030142" stroke="none" d="
M 220.05 99.95
Q 220.05 100.3 220.05 100.75 220.05 116.7 220.05 132.65 220.05 133.1 220.05 133.5
L 220.4 133.5
Q 221.45 115.65 220.05 99.95 Z"/>

<path fill="#AA81FC" stroke="none" d="
M 214.3 100.75
Q 213.85 100.75 213.6 100.9 181.3 125.1 148.8 149.05 148.8 196.5 148.8 244 148.8 244.4 148.8 244.8 156.9 254.7 165.4 264.25 165.55 264.5 166 264.5 166.65 293.3 167.6 321.8 167.65 322.2 167.65 322.55 172.15 325.75 170.2 331.65 170.1 332 170.1 332.4 176.8 360.5 196.05 376.05 196.25 376.2 196.25 376.6 201.5 380.35 207.55 383.5 207.75 383.6 207.75 384 210.1 384.1 211.25 385.45 211.4 385.6 211.85 385.6 216.85 387.95 223.2 389.3 223.3 389.35 223.3 389.7 228.65 390.85 234.65 391.75 234.7 391.8 234.7 392.15 236.8 392.15 238.8 392.15 239.25 392.15 239.65 392.15 239.65 391.8 239.65 391.35 239.65 345.1 239.65 298.85 240.1 298.85 240.45 298.85 240.45 298.4 240.45 298.05 240.45 297.2 240.45 296.4 249.15 287.85 259.4 281.05 259.7 280.85 260.15 280.85 259.55 268.35 261.35 258 261.35 257.95 261.75 257.95 261.75 257.5 261.6 257.45 244.5 251.45 229.8 243.2 228.15 244.75 226.1 242.9 224.3 241.35 223.6 239.45 216.3 220.65 210.8 200.1 204.3 175.8 199.55 149.05 206.6 141.4 214.05 134.1 214.3 133.9 214.3 133.5 214.3 133.1 214.3 132.65 214.3 116.7 214.3 100.75
M 188.95 191.7
Q 189.3 191.6 189.7 191.6 200.5 200 203.15 217.6 204.15 224.65 203.4 234.15 203.2 237 202 239.1 198.45 241.25 192.15 240.8 191.8 240.7 191.35 240.7 173.1 233.2 174.95 205.55 175 205.1 175 204.7 177.9 194.1 188.95 191.7
M 168.4 272.65
Q 168.45 272.25 168.45 271.8 169.95 292.75 169.25 311.95 169.25 312.35 169.25 312.8 167.8 293.7 168.4 272.65 Z"/>

<path fill="#AC82FF" stroke="none" d="
M 168.45 271.8
Q 168.45 272.25 168.4 272.65 167.8 293.7 169.25 312.8 169.25 312.35 169.25 311.95 169.95 292.75 168.45 271.8 Z"/>

<path fill="#B893FD" stroke="none" d="
M 189.7 191.6
Q 189.3 191.6 188.95 191.7 177.9 194.1 175 204.7 175 205.1 174.95 205.55 173.1 233.2 191.35 240.7 191.8 240.7 192.15 240.8 198.45 241.25 202 239.1 203.2 237 203.4 234.15 204.15 224.65 203.15 217.6 200.5 200 189.7 191.6 Z"/>

<path fill="#9B92D1" stroke="none" d="
M 220.05 100.75
Q 219.6 100.75 219.2 100.75 219.2 117.1 219.2 133.5 219.2 133.9 219.2 134.3 219.6 134.3 219.8 134.1 220.05 133.9 220.05 133.5 220.05 133.1 220.05 132.65 220.05 116.7 220.05 100.75 Z"/>

<path fill="#D4C1FA" stroke="none" d="
M 217.55 98.3
Q 216.3 98.3 216.3 98.35 215.7 116.9 214.3 133.5 214.3 133.9 214.05 134.1 206.6 141.4 199.55 149.05 204.3 175.8 210.8 200.1 216.3 220.65 223.6 239.45 224.3 241.35 226.1 242.9 228.15 244.75 229.8 243.2 227.5 241 226.25 237.55 222.6 227.5 219.7 215.65 216.15 201.15 211.85 186.1 207.1 169.3 205.25 149.05 210.85 140.7 218.55 134.5 218.75 134.3 219.2 134.3 219.2 133.9 219.2 133.5 219.2 117.1 219.2 100.75 219.2 100.3 219.15 99.95 218.95 98.5 217.55 98.3 Z"/>

<path fill="#8268CF" stroke="none" d="
M 214.3 97.45
Q 213.85 97.45 213.6 97.65 177.95 124.2 142.25 150.7 142.25 151.05 142.25 151.5 142.25 196.9 142.25 242.35 142.25 242.8 142.25 243.2 150.5 253.35 158.85 263.45 159 263.65 159.45 263.65 160.85 291.25 160.25 321 160.25 321.35 160.25 321.75 164.4 321.3 166.85 322.45 167.2 322.55 167.65 322.55 167.65 322.2 167.6 321.8 166.65 293.3 166 264.5 165.55 264.5 165.4 264.25 156.9 254.7 148.8 244.8 148.8 244.4 148.8 244 148.8 196.5 148.8 149.05 181.3 125.1 213.6 100.9 213.85 100.75 214.3 100.75 214.3 100.3 214.3 99.95 214.3 98.65 214.3 97.45 Z"/>

<path fill="#BCA2F2" stroke="none" d="
M 217.55 98.3
Q 217.55 97.85 217.45 97.85 215.95 97.45 214.3 97.45 214.3 98.65 214.3 99.95 214.3 100.3 214.3 100.75 214.3 116.7 214.3 132.65 214.3 133.1 214.3 133.5 215.7 116.9 216.3 98.35 216.3 98.3 217.55 98.3 Z"/>

<path fill="#181C65" stroke="none" d="
M 249.45 320.15
Q 249.1 320.15 248.65 320.15 248.65 356.15 249.1 392.15
L 249.45 392.15
Q 249.45 391.8 249.45 391.35 249.45 355.75 249.45 320.15 Z"/>

<path fill="#655CB5" stroke="none" d="
M 250.3 318.5
Q 249.9 318.5 249.45 318.5 249.45 318.9 249.45 319.35 249.45 319.75 249.45 320.15 249.45 355.75 249.45 391.35 249.45 391.8 249.45 392.15 249.9 392.15 250.3 392.15 250.3 391.8 250.3 391.35 250.3 355.35 250.3 319.35 250.3 318.9 250.3 318.5 Z"/>

<path fill="#413B89" stroke="none" d="
M 332.15 392.15
Q 331.75 392.15 331.3 392.15 290.85 392.15 250.3 392.15 290.2 393.6 332.15 392.6
L 332.15 392.15 Z"/>

<path fill="#192060" stroke="none" d="
M 332.95 391.35
Q 332.95 391.8 332.95 392.15
L 333.4 392.15
Q 334.45 355.15 332.95 320.15 332.95 355.75 332.95 391.35 Z"/>

<path fill="#514C9E" stroke="none" d="
M 332.95 320.15
Q 332.95 319.75 333 319.35 333.6 311.3 332.15 305.4 332.15 311.95 332.15 318.5 332.15 318.9 332.15 319.35 332.15 355.35 332.15 391.35 332.15 391.8 332.15 392.15 332.55 392.15 332.95 392.15 332.95 391.8 332.95 391.35 332.95 355.75 332.95 320.15 Z"/>

<path fill="#8C69E2" stroke="none" d="
M 331.3 319.35
Q 330.95 319.35 330.5 319.35 290.85 319.35 251.1 319.35 250.75 319.35 250.3 319.35 250.3 355.35 250.3 391.35 250.3 391.8 250.3 392.15 290.85 392.15 331.3 392.15 331.75 392.15 332.15 392.15 332.15 391.8 332.15 391.35 332.15 355.35 332.15 319.35 331.75 319.35 331.3 319.35
M 319.9 331.6
Q 320.3 331.6 320.7 331.6 322.15 352.65 321.1 375.8
L 320.7 375.8
Q 320.7 376.2 320.5 376.45 320.3 376.6 319.9 376.6 319.9 377.05 319.85 377.05 311.25 377.4 302.7 377.4 300.8 380.05 295.3 380.1 282.25 380.25 273.25 377.4
L 272.8 377.4
Q 271 360.45 271.6 341.4 272.55 339.95 274.1 339.1 274.45 338.95 274.9 338.95 274.9 338.6 274.9 338.15 274.9 337.75 274.9 337.3 274.8 334.5 274.9 331.6 275.25 331.6 275.7 331.6 275.7 331.2 275.7 330.75 297.75 330.75 319.9 331.2
L 319.9 331.6 Z"/>

<path fill="#6F5ABE" stroke="none" d="
M 320.7 375.8
L 321.1 375.8
Q 322.15 352.65 320.7 331.6 320.7 353.25 320.7 374.95 320.7 375.4 320.7 375.8 Z"/>

<path fill="#7A73BE" stroke="none" d="
M 301.85 377.5
Q 302.3 377.4 302.7 377.4 311.25 377.4 319.85 377.05 319.9 377.05 319.9 376.6 319.45 376.6 319.1 376.6 297.75 376.6 276.5 376.6 288.15 378.1 301.85 377.5 Z"/>

<path fill="#1D2761" stroke="none" d="
M 275.7 372.55
Q 275.7 372.95 275.7 373.3 277.1 364.95 277.15 354.55 277.25 343.55 275.7 338.15 275.7 355.35 275.7 372.55 Z"/>

<path fill="#C7B6F6" stroke="none" d="
M 274.9 338.95
Q 274.45 338.95 274.1 339.1 272.55 339.95 271.6 341.4 271 360.45 272.8 377.4
L 273.25 377.4
Q 282.25 380.25 295.3 380.1 300.8 380.05 302.7 377.4 302.3 377.4 301.85 377.5 288.15 378.1 276.5 376.6 276.1 376.6 275.85 376.45 275.7 376.2 275.7 375.8
L 275.25 375.8
Q 274.9 357.35 274.9 338.95 Z"/>

<path fill="#41447D" stroke="none" d="
M 275.7 338.15
Q 275.25 338.15 274.9 338.15 274.9 338.6 274.9 338.95 274.9 357.35 275.25 375.8
L 275.7 375.8
Q 275.7 375.4 275.7 374.95 275.7 374.6 275.7 374.15 275.7 373.75 275.7 373.3 275.7 372.95 275.7 372.55 275.7 355.35 275.7 338.15 Z"/>

<path fill="#463991" stroke="none" d="
M 316.6 331.6
Q 317 331.6 317.45 331.6 318.25 331.6 319.1 331.6 319.45 331.6 319.9 331.6
L 319.9 331.2
Q 297.75 330.75 275.7 330.75 275.7 331.2 275.7 331.6 296.15 331.6 316.6 331.6 Z"/>

<path fill="#15185E" stroke="none" d="
M 317.45 331.6
Q 317.45 332 317.6 332.05 318.25 332.4 318.25 332.5 321.1 353.7 319.1 374.95 319.1 375.4 319 375.4 296.35 376.45 275.7 374.95 275.7 375.4 275.7 375.8 275.7 376.2 275.85 376.45 276.1 376.6 276.5 376.6 297.75 376.6 319.1 376.6 319.45 376.6 319.9 376.6 320.3 376.6 320.5 376.45 320.7 376.2 320.7 375.8 320.7 375.4 320.7 374.95 320.7 353.25 320.7 331.6 320.3 331.6 319.9 331.6 319.45 331.6 319.1 331.6 318.25 331.6 317.45 331.6 Z"/>

<path fill="#25306C" stroke="none" d="
M 317.6 332.05
Q 317.45 332 317.45 331.6 317 331.6 316.6 331.6 296.15 331.6 275.7 331.6 275.25 331.6 274.9 331.6 274.8 334.5 274.9 337.3 274.9 337.75 274.9 338.15 275.25 338.15 275.7 338.15 277.25 343.55 277.15 354.55 277.1 364.95 275.7 373.3 275.7 373.75 275.7 374.15 275.7 374.6 275.7 374.95 296.35 376.45 319 375.4 319.1 375.4 319.1 374.95 321.1 353.7 318.25 332.5 318.25 332.4 317.6 332.05
M 313.8 334.85
L 312.6 335.2
Q 312.1 335.3 311.7 335.7 312.1 335.7 312.5 335.7 313.8 335.7 315 335.7 315.35 335.7 315.8 335.7 316.2 335.7 316.6 335.7 316.6 335.3 316.6 334.85 316.6 334.5 316.6 334.05 318.3 342.05 318.2 355.35 318.1 368.2 317 372.95
L 316.6 372.55
Q 316.2 372.55 315.8 372.55 313.7 372.55 311.7 372.55
L 311.25 372.55
Q 311.25 356.7 310.05 335.7 313.8 332.65 313.8 334.85
M 306.8 334.85
Q 307.15 334.85 307.6 334.85 307.6 334.5 307.6 334.05 309.05 352.3 308 372.5 308 372.55 307.6 372.55 307.15 372.55 306.8 372.55 306.35 372.55 305.95 372.55 292.85 372.55 279.75 372.55 279.35 372.55 278.9 372.55
L 278.55 372.55
Q 278.75 353.1 277.35 335.7 278.55 333.7 278.85 334.9 278.9 335.3 278.9 335.7 279.35 335.7 279.75 335.7 279.75 335.3 279.75 334.85 293.3 334.85 306.8 334.85 Z"/>

<path fill="#061857" stroke="none" d="
M 278.9 335.7
Q 278.9 335.3 278.85 334.9 278.55 333.7 277.35 335.7 278.75 353.1 278.55 372.55
L 278.9 372.55
Q 278.9 372.1 278.9 371.75 278.9 353.7 278.9 335.7 Z"/>

<path fill="#406FAE" stroke="none" d="
M 279.75 335.7
Q 279.35 335.7 278.9 335.7 278.9 353.7 278.9 371.75 278.9 372.1 278.9 372.55 279.35 372.55 279.75 372.55 279.75 372.1 279.75 371.75 279.75 357 279.75 342.25 279.75 341.85 279.75 341.4 279.75 341.05 279.75 340.6 279.75 338.15 279.75 335.7 Z"/>

<path fill="#39B4E8" stroke="none" d="
M 306.8 342.25
Q 306.35 342.25 305.95 342.25 292.25 342.4 279.75 342.25 279.75 357 279.75 371.75 279.75 372.1 279.75 372.55 292.85 372.55 305.95 372.55 306.35 372.55 306.8 372.55 306.8 372.1 306.8 371.75 306.8 357 306.8 342.25
M 296.1 345.5
Q 296.15 345.15 296.15 344.7 305.7 343.75 302.45 355.3 301.8 357.7 297.75 357 295.05 353.15 296.1 345.5
M 285.4 345.5
Q 285.5 345.15 285.5 344.7 295.05 343.75 291.8 355.3 291.15 357.7 287.1 357 284.4 353.15 285.4 345.5 Z"/>

<path fill="#1B3671" stroke="none" d="
M 285.5 344.7
Q 285.5 345.15 285.4 345.5 284.4 353.15 287.1 357 291.15 357.7 291.8 355.3 295.05 343.75 285.5 344.7 Z"/>

<path fill="#1E3570" stroke="none" d="
M 296.15 344.7
Q 296.15 345.15 296.1 345.5 295.05 353.15 297.75 357 301.8 357.7 302.45 355.3 305.7 343.75 296.15 344.7 Z"/>

<path fill="#05195C" stroke="none" d="
M 307.6 340.6
Q 307.6 341.05 307.6 341.4 307.6 356.55 307.6 371.75 307.6 372.1 307.6 372.55 308 372.55 308 372.5 309.05 352.3 307.6 334.05 307.6 334.5 307.6 334.85 307.6 337.75 307.6 340.6 Z"/>

<path fill="#3596CE" stroke="none" d="
M 307.6 341.4
Q 307.15 341.4 306.8 341.4 306.35 341.4 305.95 341.4 305.55 341.4 305.15 341.4 296.15 341.1 280.55 341.4 280.2 341.4 279.75 341.4 279.75 341.85 279.75 342.25 292.25 342.4 305.95 342.25 306.35 342.25 306.8 342.25 306.8 357 306.8 371.75 306.8 372.1 306.8 372.55 307.15 372.55 307.6 372.55 307.6 372.1 307.6 371.75 307.6 356.55 307.6 341.4 Z"/>

<path fill="#285F97" stroke="none" d="
M 307.6 334.85
Q 307.15 334.85 306.8 334.85 293.3 334.85 279.75 334.85 279.75 335.3 279.75 335.7 294.25 335.1 306.5 337.7 306.8 337.75 306.8 338.95 306.8 340.2 306.8 341.4 307.15 341.4 307.6 341.4 307.6 341.05 307.6 340.6 307.6 337.75 307.6 334.85 Z"/>

<path fill="#2D8EC4" stroke="none" d="
M 299.4 338.15
Q 299.05 338.15 298.6 338.15 290.55 337.5 280.55 338.95 280.55 339.8 280.55 340.6 280.55 341.05 280.55 341.4 296.15 341.1 305.15 341.4 305.55 341.4 305.95 341.4 306.15 339.25 302.7 339.8 292.8 341.2 283 339.8
L 283 339.4
Q 292.25 339.55 299.4 338.15 Z"/>

<path fill="#348CC2" stroke="none" d="
M 298.6 338.15
Q 299.05 338.15 299.4 338.15 292.25 339.55 283 339.4
L 283 339.8
Q 292.8 341.2 302.7 339.8 306.15 339.25 305.95 341.4 306.35 341.4 306.8 341.4 306.8 340.2 306.8 338.95 306.8 337.75 306.5 337.7 294.25 335.1 279.75 335.7 279.75 338.15 279.75 340.6 279.75 341.05 279.75 341.4 280.2 341.4 280.55 341.4 280.55 341.05 280.55 340.6 280.55 339.8 280.55 338.95 290.55 337.5 298.6 338.15
M 315.8 335.7
Q 315.35 335.7 315 335.7 313.8 335.7 312.5 335.7 311.9 354.75 313.7 371.7 313.7 371.75 314.15 371.75 317 365.15 316.35 354.45 315.8 345.15 315.8 335.7 Z"/>

<path fill="#14346E" stroke="none" d="
M 316.6 334.85
Q 316.6 335.3 316.6 335.7 316.6 353.7 316.6 371.75 316.6 372.1 316.6 372.55
L 317 372.95
Q 318.1 368.2 318.2 355.35 318.3 342.05 316.6 334.05 316.6 334.5 316.6 334.85 Z"/>

<path fill="#4179B2" stroke="none" d="
M 312.5 335.7
Q 312.1 335.7 311.7 335.7 311.7 353.7 311.7 371.75 311.7 372.1 311.7 372.55 313.7 372.55 315.8 372.55 316.2 372.55 316.6 372.55 316.6 372.1 316.6 371.75 316.6 353.7 316.6 335.7 316.2 335.7 315.8 335.7 315.8 345.15 316.35 354.45 317 365.15 314.15 371.75 313.7 371.75 313.7 371.7 311.9 354.75 312.5 335.7 Z"/>

<path fill="#12326B" stroke="none" d="
M 312.6 335.2
L 313.8 334.85
Q 313.8 332.65 310.05 335.7 311.25 356.7 311.25 372.55
L 311.7 372.55
Q 311.7 372.1 311.7 371.75 311.7 353.7 311.7 335.7 312.1 335.3 312.6 335.2 Z"/>

<path fill="#785BCB" stroke="none" d="
M 331.3 319.35
L 331.3 318.9
Q 291.2 318.5 251.1 318.5 251.1 318.9 251.1 319.35 290.85 319.35 330.5 319.35 330.95 319.35 331.3 319.35 Z"/>

<path fill="#6D57BE" stroke="none" d="
M 332.15 305.4
Q 331.75 305.4 331.3 305.4 290.85 305.4 250.3 305.4 250.3 311.55 250.3 317.7 250.3 318.1 250.3 318.5 250.3 318.9 250.3 319.35 250.75 319.35 251.1 319.35 251.1 318.9 251.1 318.5 291.2 318.5 331.3 318.9
L 331.3 319.35
Q 331.75 319.35 332.15 319.35 332.15 318.9 332.15 318.5 332.15 311.95 332.15 305.4
M 356.7 291.5
Q 357.1 291.5 357.3 291.25 360.6 288.05 364.9 285.75 364.9 285.35 365.05 285.3 368.9 284.1 365.75 283.3 363.65 283.3 361.75 283.8 346.3 287.6 337.85 298.85 337.85 299.25 337.85 299.7 337.85 300.05 337.85 300.5 337.85 345.95 337.85 391.35 337.85 391.8 337.85 392.15 342.8 392.15 347.7 392.15 348.15 392.15 348.55 392.15 348.55 391.8 348.55 391.35 348.55 345.1 348.55 298.85 348.95 298.85 349.35 298.85 349.35 298.4 349.35 298.05 349.35 297.6 349.35 297.2 352.1 292.95 356.7 291.1
L 356.7 291.5 Z"/>

<path fill="#47408F" stroke="none" d="
M 332.15 305.4
L 332.15 304.95
Q 290.85 304.6 249.45 304.6 249.45 311.15 249.45 317.7 249.45 318.1 249.45 318.5 249.9 318.5 250.3 318.5 250.3 318.1 250.3 317.7 250.3 311.55 250.3 305.4 290.85 305.4 331.3 305.4 331.75 305.4 332.15 305.4 Z"/>

<path fill="#191C66" stroke="none" d="
M 352.6 391.35
Q 352.6 391.8 352.6 392.15
L 353.05 392.15
Q 354.05 345.3 352.6 300.5 352.6 345.95 352.6 391.35 Z"/>

<path fill="#403989" stroke="none" d="
M 337.85 300.5
Q 337.5 300.5 337.05 300.5 337.05 346.35 337.5 392.15
L 337.85 392.15
Q 337.85 391.8 337.85 391.35 337.85 345.95 337.85 300.5 Z"/>

<path fill="#8364D9" stroke="none" d="
M 349.35 298.85
Q 348.95 298.85 348.55 298.85 348.55 345.1 348.55 391.35 348.55 391.8 348.55 392.15 348.95 392.15 349.35 392.15 349.35 391.8 349.35 391.35 349.35 345.1 349.35 298.85 Z"/>

<path fill="#625CB5" stroke="none" d="
M 352.6 300.5
Q 352.25 300.5 351.8 300.5 351.8 345.95 351.8 391.35 351.8 391.8 351.8 392.15 352.25 392.15 352.6 392.15 352.6 391.8 352.6 391.35 352.6 345.95 352.6 300.5 Z"/>

<path fill="#886BDE" stroke="none" d="
M 356.5 292.1
Q 356.7 291.9 356.7 291.5
L 356.7 291.1
Q 352.1 292.95 349.35 297.2 349.35 297.6 349.35 298.05 349.35 298.4 349.35 298.85 349.35 345.1 349.35 391.35 349.35 391.8 349.35 392.15 350.15 392.15 351 392.15 351.4 392.15 351.8 392.15 351.8 391.8 351.8 391.35 351.8 345.95 351.8 300.5 352.25 300.5 352.6 300.5 352.6 300.05 352.6 299.7 352.6 299.25 352.6 298.85 353.85 294.75 356.5 292.1
M 350.15 309.5
Q 350.15 309.05 350.15 308.7 351.6 348.55 351 390.55 351 390.95 351 391.35 349.55 351.45 350.15 309.5 Z"/>

<path fill="#8D6BE3" stroke="none" d="
M 350.15 308.7
Q 350.15 309.05 350.15 309.5 349.55 351.45 351 391.35 351 390.95 351 390.55 351.6 348.55 350.15 308.7 Z"/>

<path fill="#4F469A" stroke="none" d="
M 346.9 284.1
L 346.9 283.7
Q 307.6 283.3 268.3 283.3 268.3 283.7 268.1 283.85 258.35 290.1 250.3 298.05
L 250.3 298.4
Q 290.25 300.3 332.15 299.7 332.55 299.7 332.65 299.5 337 288.95 346.9 284.1 Z"/>

<path fill="#A481F2" stroke="none" d="
M 341.95 266.15
Q 341.95 264.5 341.55 264.35 327.2 260 308.45 261.2 308.45 264.5 308.45 267.75 308.45 268.15 308.45 268.6 324.8 268.6 341.15 268.6 341.6 268.6 341.95 268.6 341.95 267.35 341.95 266.15
M 336.2 264.05
Q 336.25 264.05 336.25 264.5 331.35 268.6 320.6 267.75 316.85 267.5 317.45 263.65 326.85 261.65 336.2 264.05 Z"/>

<path fill="#242A6F" stroke="none" d="
M 336.25 264.5
Q 336.25 264.05 336.2 264.05 326.85 261.65 317.45 263.65 316.85 267.5 320.6 267.75 331.35 268.6 336.25 264.5 Z"/>

<path fill="#C5B2F6" stroke="none" d="
M 342.8 268.6
Q 344.2 266.7 343.75 262.8 343.6 261.6 343.45 261.6 327.05 258.95 308.45 259.55 308.45 259.95 308.45 260.4 308.45 260.8 308.45 261.2 327.2 260 341.55 264.35 341.95 264.5 341.95 266.15 341.95 267.35 341.95 268.6 342.4 268.6 342.8 268.6 Z"/>

<path fill="#9279DE" stroke="none" d="
M 342.8 268.95
L 342.8 268.6
Q 342.4 268.6 341.95 268.6 341.6 268.6 341.15 268.6 324.8 268.6 308.45 268.6 324.6 270 342.8 268.95 Z"/>

<path fill="#1F69AB" stroke="none" d="
M 270.35 278.35
L 270.8 278.35
Q 270.8 278 270.8 277.55 270.8 277.15 270.8 276.75 270.8 268.6 270.8 260.4 288.15 259.8 303.3 262.4 303.5 262.4 303.5 263.65 303.5 266.95 303.5 270.15 303.95 270.15 304.35 270.15 304.35 269.8 304.4 269.4 304.95 263.45 303.5 259.55 303.15 259.55 302.7 259.55 286.3 259.55 269.95 259.55 269.95 268.95 270.35 278.35 Z"/>

<path fill="#061C5E" stroke="none" d="
M 269.95 258.75
Q 269.95 259.15 269.95 259.55 286.3 259.55 302.7 259.55 303.15 259.55 303.5 259.55
L 303.5 259.15
Q 286.75 258.75 269.95 258.75 Z"/>

<path fill="#3E85CA" stroke="none" d="
M 369.85 278.35
Q 369.85 278 369.85 277.55 369.4 277.55 369 277.55 319.9 277.55 270.8 277.55 270.8 278 270.8 278.35 271.15 278.35 271.6 278.35 320.3 278.35 369 278.35 369.4 278.35 369.85 278.35 Z"/>

<path fill="#03296A" stroke="none" d="
M 373.5 278.35
L 373.1 278.35
Q 372.7 278.35 372.3 278.35 371.05 278.4 369.85 278.35 369.4 278.35 369 278.35 320.3 278.35 271.6 278.35 322.75 280.45 373.5 278.35 Z"/>

<path fill="#33A3EA" stroke="none" d="
M 369.85 277.55
Q 369.85 277.15 369.85 276.75 369.4 276.75 369 276.75 320.7 276.75 272.4 276.75 272.4 276.35 272.4 275.9 272.4 268.6 272.4 261.2 288.15 260.6 301.75 262.8 301.85 262.85 301.8 263.65 301.65 267.2 303.5 270.15 303.5 266.95 303.5 263.65 303.5 262.4 303.3 262.4 288.15 259.8 270.8 260.4 270.8 268.6 270.8 276.75 270.8 277.15 270.8 277.55 319.9 277.55 369 277.55 369.4 277.55 369.85 277.55 Z"/>

<path fill="#99D3F7" stroke="none" d="
M 373.1 260.4
Q 372.7 260.4 372.3 260.4 371.05 260.4 369.85 260.4 369.85 268.15 369.85 275.9 369.85 276.35 369.85 276.75 369.85 277.15 369.85 277.55 369.85 278 369.85 278.35 371.05 278.4 372.3 278.35 372.7 278.35 373.1 278.35 373.1 278 373.1 277.55 373.1 268.95 373.1 260.4 Z"/>

<path fill="#022467" stroke="none" d="
M 342.8 273.45
L 342.8 273.05
Q 325.2 272.7 307.6 272.65 307.6 273.05 307.6 273.45 324.8 273.45 341.95 273.45 342.4 273.45 342.8 273.45 Z"/>

<path fill="#3B7DC4" stroke="none" d="
M 343.6 273.45
Q 343.25 273.45 342.8 273.45 342.4 273.45 341.95 273.45 324.8 273.45 307.6 273.45 324.6 274.95 343.6 273.9
L 343.6 273.45 Z"/>

<path fill="#24A5EE" stroke="none" d="
M 349.35 259.55
L 348.95 259.55
Q 348.85 269.3 343.6 273.45
L 343.6 273.9
Q 324.6 274.95 307.6 273.45 307.6 273.05 307.6 272.65 307.15 272.65 306.85 272.5 305.05 272 304.35 270.15 303.95 270.15 303.5 270.15 301.65 267.2 301.8 263.65 301.85 262.85 301.75 262.8 288.15 260.6 272.4 261.2 272.4 268.6 272.4 275.9 272.4 276.35 272.4 276.75 320.7 276.75 369 276.75 369.4 276.75 369.85 276.75 369.85 276.35 369.85 275.9 369.85 268.15 369.85 260.4 371.05 260.4 372.3 260.4 372.7 260.4 373.1 260.4 373.1 259.95 373.05 259.95 361.2 259.55 349.35 259.55 Z"/>

<path fill="#F0C125" stroke="none" d="
M 273.25 240.7
Q 273.25 241.15 273.25 241.55 276.45 252.8 281.95 244.9 282.25 244.45 281.1 243.6 279.8 242.75 278.9 241.55 278.9 241.15 278.85 241.1 276.1 240.7 273.25 240.7 Z"/>

<path fill="#7761C5" stroke="none" d="
M 271.6 243.2
Q 271.6 242.8 271.6 242.35 271.6 242 271.6 241.55 271.15 241.55 270.8 241.55 254 241.55 237.2 241.55 238.55 242.65 240.5 243.05 240.9 243.2 241.3 243.2 241.3 242.8 241.3 242.35 257.05 241.75 270.8 243.15 271.15 243.2 271.6 243.2 Z"/>

<path fill="#BC985A" stroke="none" d="
M 273.25 241.55
Q 272.8 241.55 272.4 241.55 272 241.55 271.6 241.55 271.6 242 271.6 242.35 271.6 242.8 271.6 243.2 274 254.15 283 248.35 285.4 246.85 283.9 244.8 282.65 243.2 281.4 241.55 281 241.55 280.55 241.55 279.75 241.55 278.9 241.55 279.8 242.75 281.1 243.6 282.25 244.45 281.95 244.9 276.45 252.8 273.25 241.55 Z"/>

<path fill="#AC5870" stroke="none" d="
M 298.6 241.55
Q 298.2 241.55 297.85 241.45 292.85 239.85 287.95 241.55 288.05 255.7 299.55 248.65 301.05 247.7 300.35 245.05 299.8 243.2 298.6 241.55
M 288.8 243.2
Q 288.75 242.8 288.75 242.35 300.6 240.3 296.45 248.25 296.15 248.9 294.5 248.9 293.3 248.9 292.05 248.9 289.25 247.25 288.8 243.2 Z"/>

<path fill="#E65929" stroke="none" d="
M 288.75 242.35
Q 288.75 242.8 288.8 243.2 289.25 247.25 292.05 248.9 293.3 248.9 294.5 248.9 296.15 248.9 296.45 248.25 300.6 240.3 288.75 242.35 Z"/>

<path fill="#413B8A" stroke="none" d="
M 361.65 255.05
L 361.65 254.65
Q 361.2 254.65 360.8 254.65 314.55 254.65 268.3 254.65 313.95 256.1 361.65 255.05 Z"/>

<path fill="#8A69DD" stroke="none" d="
M 325.65 241.55
L 325.2 241.55
Q 325.4 247.5 324 251.4 323.55 251.4 323.2 251.4 314.15 251.75 314.15 243.2 314.55 243.2 315 243.15 324 241.45 318.25 236.65 318.25 237.05 318.05 237.3 312.35 243.4 298.6 241.55 299.8 243.2 300.35 245.05 301.05 247.7 299.55 248.65 288.05 255.7 287.95 241.55 287.55 241.55 287.1 241.55 284.3 241.55 281.4 241.55 282.65 243.2 283.9 244.8 285.4 246.85 283 248.35 274 254.15 271.6 243.2 271.15 243.2 270.8 243.15 257.05 241.75 241.3 242.35 241.3 242.8 241.3 243.2 254.55 248.75 267.55 254.5 267.9 254.65 268.3 254.65 314.55 254.65 360.8 254.65 361.2 254.65 361.65 254.65 361.65 254.2 361.55 254.2 345.6 249.8 335.4 239.9 335.05 239.9 334.65 239.8 329.9 238.5 325.65 241.55 Z"/>

<path fill="#3B3681" stroke="none" d="
M 286.3 136.75
Q 286.3 137.2 286.3 137.55 303.15 137.55 319.9 137.55 320.3 137.55 320.7 137.55 321.55 137.55 322.2 137.9 322.35 138 322.35 138.4 322.75 138.4 322.85 138.25 323.2 137.55 323.1 137.55 304.75 136.75 286.3 136.75 Z"/>

<path fill="#43418A" stroke="none" d="
M 224.1 148.25
Q 224.1 148.6 224.1 149.05 257.65 149.05 291.2 149.05 291.65 149.05 292.05 149.05
L 292.05 148.6
Q 258.05 148.25 224.1 148.25 Z"/>

<path fill="#574BA3" stroke="none" d="
M 229 137.55
Q 227.35 137.55 225.95 138.1 216 141.8 210.2 149.85 209.75 159.9 216.45 151.95 218.9 149.1 224.1 149.05 224.1 148.6 224.1 148.25 258.05 148.25 292.05 148.6
L 292.05 149.05
Q 299.8 149.5 302.2 155.45 302.3 155.6 302.7 155.6 302.7 155.15 302.7 154.8 306.55 152.95 309.45 150.1 309.65 149.85 310.05 149.85 310.05 149.45 310.05 149.05 314.65 143 320.5 138.15 320.7 138 320.7 137.55 320.3 137.55 319.9 137.55 303.15 137.55 286.3 137.55 285.9 137.55 285.5 137.55 284.65 137.55 283.85 137.55 283.45 137.55 283 137.55 256.05 137.55 229 137.55 Z"/>

<path fill="#393680" stroke="none" d="
M 229 136.75
Q 229 137.2 229 137.55 256.05 137.55 283 137.55 283.45 137.55 283.85 137.55
L 283.85 137.2
Q 256.4 136.75 229 136.75 Z"/>

<path fill="#8368D5" stroke="none" d="
M 326.8 215.2
Q 326.85 215.35 327.25 215.35
L 327.65 215.35
Q 319.15 184.55 312.5 151.5 313.8 149.5 314.1 146.6 314.15 146.15 314.15 145.75 318.35 142.6 321.75 138.6 321.9 138.4 322.35 138.4 322.35 138 322.2 137.9 321.55 137.55 320.7 137.55 320.7 138 320.5 138.15 314.65 143 310.05 149.05 310.05 149.45 310.05 149.85 310.05 150.25 309.9 150.6 309.65 151.05 309.25 151.5 315.8 185.45 326.8 215.2 Z"/>

<path fill="#6B56BB" stroke="none" d="
M 327.25 215.35
Q 326.85 215.35 326.8 215.2 315.8 185.45 309.25 151.5 309.65 151.05 309.9 150.6 310.05 150.25 310.05 149.85 309.65 149.85 309.45 150.1 306.55 152.95 302.7 154.8 302.7 155.15 302.7 155.6 310.65 186.55 318.15 217.85 318.25 218.2 318.25 218.6 322.05 216.7 327.15 215.75 327.25 215.75 327.25 215.35 Z"/>

<path fill="#BA5E50" stroke="none" d="
M 334.6 225.15
Q 334.6 225.6 334.45 225.9 334.2 226.4 333.8 226.8 333.8 227.25 333.6 227.55 326.45 240.95 322.35 224.35 321.9 224.35 321.55 224.35 322.15 239.45 333.1 231.6 336.5 229.15 334.6 225.15 Z"/>

<path fill="#F0AE9A" stroke="none" d="
M 325.65 221.05
Q 325.65 221.5 325.65 221.9 328.4 224.45 331.75 225.3 333.55 225.8 333.8 226.8 334.2 226.4 334.45 225.9 334.6 225.6 334.6 225.15 334.6 224.75 334.5 224.45 332.5 220.3 325.65 221.05 Z"/>

<path fill="#EB5C28" stroke="none" d="
M 325.65 221.9
Q 325.2 221.9 324.85 222.05 323.55 222.7 322.35 223.5 322.35 223.95 322.35 224.35 326.45 240.95 333.6 227.55 333.8 227.25 333.8 226.8 333.55 225.8 331.75 225.3 328.4 224.45 325.65 221.9 Z"/>

<path fill="#61C2F6" stroke="none" d="
M 301.7 118.6
Q 301.85 118.35 301.85 117.9 299.7 117.75 300.65 116.05
L 301.05 115.45
Q 297.7 116.85 294.5 122.8 294.55 125.7 296.15 125.4 296.55 125.3 296.95 125.3 299.4 122 301.7 118.6 Z"/>

<path fill="#4B72B2" stroke="none" d="
M 224.95 131
Q 224.95 131.45 224.95 131.85 224.95 132.25 224.95 132.65 245 132.65 265.05 132.65 265.45 132.65 265.85 132.65 265.85 132.25 265.85 131.85 265.45 131.85 265.05 131.85 248.65 131.85 232.25 131.85 231.9 131.85 231.45 131.9 227.35 132.35 224.95 131 Z"/>

<path fill="#63C1F6" stroke="none" d="
M 314.8 98.2
Q 315 97.85 315 97.45 314.55 97.45 314.15 97.45 310.9 100.75 307.8 99.4 304 97.7 302.7 101.55 305.15 106.25 302.6 106.75 299.95 107.2 298.6 103.2 298.2 103.2 298.05 103.35 289.05 117.35 278.9 130.2 278.9 130.65 278.9 131 278.9 131.45 278.9 131.85 285.9 131.85 292.85 131.85 293.3 131.85 293.65 131.85 293.65 131.45 293.65 131 293.65 130.65 293.65 130.2 295.3 128.2 296.8 126 296.95 125.7 296.95 125.3 296.55 125.3 296.15 125.4 294.55 125.7 294.5 122.8 297.7 116.85 301.05 115.45
L 300.65 116.05
Q 299.7 117.75 301.85 117.9 309.25 108.9 314.8 98.2 Z"/>

<path fill="#66BFF3" stroke="none" d="
M 301.05 97.45
Q 301.05 97.85 300.95 98.25 300.45 100.6 298.6 101.55 298.6 101.95 298.6 102.4 298.6 102.75 298.6 103.2 299.95 107.2 302.6 106.75 305.15 106.25 302.7 101.55 304 97.7 307.8 99.4 310.9 100.75 314.15 97.45 313.7 97.45 313.35 97.45 307.2 97.45 301.05 97.45 Z"/>

<path fill="#27A6EE" stroke="none" d="
M 287.95 97.45
Q 287.95 97.85 287.75 98.2 277.15 114.5 265.85 130.2 265.85 130.65 265.85 131 265.85 131.45 265.85 131.85 272 131.85 278.15 131.85 278.55 131.85 278.9 131.85 278.9 131.45 278.9 131 278.9 130.65 278.9 130.2 289.05 117.35 298.05 103.35 298.2 103.2 298.6 103.2 298.6 102.75 298.6 102.4 298.6 101.95 298.6 101.55 300.45 100.6 300.95 98.25 301.05 97.85 301.05 97.45 300.65 97.45 300.25 97.45 294.1 97.45 287.95 97.45 Z"/>

<path fill="#65C1F5" stroke="none" d="
M 256.05 97.45
Q 256.05 97.85 255.8 98.15 244.9 111.3 237.2 127.75 236.8 127.75 236.45 127.9 234 129.05 232.25 131 232.25 131.45 232.25 131.85 248.65 131.85 265.05 131.85 265.45 131.85 265.85 131.85 265.85 131.45 265.85 131 265.85 130.65 265.85 130.2 277.15 114.5 287.75 98.2 287.95 97.85 287.95 97.45 287.55 97.45 287.1 97.45 271.6 97.45 256.05 97.45 Z"/>

<path fill="#26A0E8" stroke="none" d="
M 256.05 97.45
Q 255.6 97.45 255.2 97.45 239.65 97.45 224.1 97.45 225.5 112.9 224.95 130.2 224.95 130.65 224.95 131 227.35 132.35 231.45 131.9 231.9 131.85 232.25 131.85 232.25 131.45 232.25 131 234 129.05 236.45 127.9 236.8 127.75 237.2 127.75 244.9 111.3 255.8 98.15 256.05 97.85 256.05 97.45 Z"/>

<path fill="#25A0E8" stroke="none" d="
M 324 131.85
Q 324 131.45 324 131 325.15 112.3 322.35 97.45 321.9 97.45 321.55 97.45 318.25 97.45 315 97.45 315 97.85 314.8 98.2 309.25 108.9 301.85 117.9 301.85 118.35 301.7 118.6 299.4 122 296.95 125.3 296.95 125.7 296.8 126 295.3 128.2 293.65 130.2 293.65 130.65 293.65 131 293.65 131.45 293.65 131.85 308.45 131.85 323.2 131.85 323.55 131.85 324 131.85 Z"/>

<path fill="#436AA8" stroke="none" d="
M 328.1 132.65
Q 328.1 132.25 328.1 131.85 328.15 129.7 328.25 127.65 327.4 131.3 324 131.85 323.55 131.85 323.2 131.85 308.45 131.85 293.65 131.85 293.3 131.85 292.85 131.85 285.9 131.85 278.9 131.85 278.55 131.85 278.15 131.85 272 131.85 265.85 131.85 265.85 132.25 265.85 132.65 296.55 132.65 327.25 132.65 327.65 132.65 328.1 132.65
M 328.3 121.8
Q 328.25 111.2 327.25 101.55 327.25 111.75 328.3 121.8 Z"/>

<path fill="#051757" stroke="none" d="
M 328.1 133.1
L 328.1 132.65
Q 327.65 132.65 327.25 132.65 296.55 132.65 265.85 132.65 265.45 132.65 265.05 132.65 245 132.65 224.95 132.65 275.5 134.1 328.1 133.1 Z"/>

<path fill="#97D4FB" stroke="none" d="
M 327.25 101.55
Q 327.25 101.15 327.15 100.75 326.25 97.7 322.35 97.45 325.15 112.3 324 131 324 131.45 324 131.85 327.4 131.3 328.25 127.65 328.7 125.6 328.35 122.7 328.3 122.2 328.3 121.8 327.25 111.75 327.25 101.55 Z"/>

<path fill="#001447" stroke="none" d="
M 324.8 92.95
L 324.8 92.55
Q 324.4 92.55 324 92.55 268.3 92.55 212.65 92.55 267.65 94 324.8 92.95 Z"/>
</g>
</defs>

<g transform="matrix( 1, 0, 0, 1, 0,0) ">
<use xlink:href="#Layer26_0_FILL"/>
</g>

<g transform="matrix( 1, 0, 0, 1, 0,0) ">
<use xlink:href="#Layer7_0_FILL"/>
</g>
</svg>
