
<svg xmlns="http://www.w3.org/2000/svg" version="1.1" xmlns:xlink="http://www.w3.org/1999/xlink" preserveAspectRatio="none" x="0px" y="0px" width="500px" height="500px" viewBox="0 0 500 500">
<defs>
<g id="Layer29_0_FILL">
<path fill="#00BFFF" stroke="none" d="
M 429.2 67.25
Q 399.45 37.8 357.3 37.8
L 133.85 37.8
Q 91.7 37.8 61.9 67.25 32.15 96.8 32.15 138.6
L 32.15 360.1
Q 32.15 401.9 61.9 431.4 91.7 460.95 133.85 460.95
L 357.3 460.95
Q 399.45 460.95 429.2 431.4 459 401.9 459 360.1
L 459 138.6
Q 459 96.8 429.2 67.25 Z"/>
</g>

<g id="Layer22_0_FILL">
<path fill="#000000" fill-opacity="0.4980392156862745" stroke="none" d="
M 343 115.4
Q 342.7 112.8 341.5 110.7 334.65 98.2 321.5 92.3 321.15 92.3 320.75 92.3 299.2 92.3 277.6 92.3 277.25 92.3 276.9 92.3 266.5 92.3 256.05 92.3 255.7 92.3 255.35 92.3 246.35 92.3 237.35 92.3 237 92.3 236.65 92.3 226.55 92.3 216.5 92.3 216.15 92.3 215.75 92.3 215.4 92.3 215.05 92.3 215.05 112.8 215.4 133.3
L 215.75 133.3
Q 215.75 144.1 215.75 154.85 215.75 155.25 215.75 155.6 215.4 155.6 215.1 155.7 169.55 168.35 147.45 204.5 147.45 204.85 147.45 205.2 147.45 205.55 147.45 205.95 147.1 205.95 147 206.1 141.4 216.8 137.4 228.95 137.4 229.65 137.4 230.4 137.4 230.75 137.4 231.1 137 231.1 137 231.2 135.45 239.6 133.8 247.65 133.8 247.3 133.8 246.95 134.3 239.55 133.05 234 133.05 234.35 133.05 234.7 133.6 247.45 132.35 258.45 132.35 259.5 132.35 260.6 132.35 260.95 132.35 261.3 133.05 260.25 133.8 259.5
L 133.8 259.85
Q 133.65 265.4 134.45 269.95 134.5 270.3 134.5 270.65 137.75 292.6 140.6 315.2 140.6 315.25 141 315.25 141.35 321.7 142.35 327.5 142.4 327.85 142.4 328.2 143.5 336.45 144.2 345.4 144.2 345.45 144.55 345.45 144.45 347.45 145.1 348.45 145.3 348.7 145.3 349.05 146.8 358.35 147.8 368.45
L 148.15 368.45
Q 150.65 390.45 153.9 411.6 153.9 412 153.9 412.35 153.9 412.7 153.9 413.05 156.35 427.5 168.15 432.75 168.3 432.85 168.3 433.2 169 433.2 169.75 433.2 170.1 433.2 170.45 433.2 171.9 433.2 173.35 433.2 173.7 433.2 174.05 433.2 174.8 433.2 175.5 433.2 175.85 433.2 176.2 433.2 219.35 433.2 262.5 433.2 262.9 433.2 263.25 433.2 266.5 433.2 269.7 433.2 270.05 433.2 270.45 433.2 295.95 433.2 321.5 433.2 321.85 433.2 322.2 433.2 334.1 433.2 345.95 433.2 346.3 433.2 346.65 433.2 346.65 432.85 346.65 432.5 351.25 430.2 354.1 426.2 354.2 426 354.6 426 359.7 421.75 360.7 413.1 360.7 413.05 361.05 413.05 361.05 412.7 361.05 412.35 360.7 412.35 360.7 412.3 360.35 409.8 360.35 407.3 363.4 398.5 363.2 386.45 363.2 386.1 363.2 385.75 364.45 385.5 364 383.55 363.95 383.2 363.95 382.85 367.4 363.35 369.65 342.6 369.7 342.2 369.7 341.85 369.7 341.5 369.7 341.15 369.7 340.4 369.7 339.7 372.65 328.65 373.3 315.25 373.3 314.9 373.3 314.55 376.55 297.65 378.25 279.3 378.3 278.95 378.3 278.55 379.55 276.95 379.05 273.55 379.05 273.2 379.05 272.8 380.65 267.6 380.85 260.6
L 381.2 260.6
Q 381.2 260.25 381.1 259.85 379.95 252.85 380.45 244.05 380.1 244.05 379.75 244.05 379.4 244.05 379.05 244.05 379.05 243.7 379.05 243.35 379.5 238.95 378.3 236.15 378.3 235.8 378.25 235.4 377.95 231.1 376.15 228.25 376.15 227.85 376.05 227.55 372.45 215.8 366.8 205.95 366.8 205.55 366.6 205.4 366.45 205.2 366.1 205.2 366.1 204.85 365.95 204.6 345.15 168.95 301.35 156.3 308.9 156.3 316.45 155.95
L 316.45 155.6
Q 346.9 150.5 343 115.4
M 332.3 114.6
Q 332.3 114.95 332.4 115.3 334.25 121.95 333.7 131.15 333.35 131.15 333.3 131.25 329 143.35 315 145.5 314.65 145.5 314.3 145.5 306.05 145.5 297.75 145.5 297.75 145.15 297.75 144.8 297.75 139.4 297.75 134 297.75 133.65 297.75 133.3 299 119.45 298.5 103.8 298.5 103.45 298.5 103.1 311.2 102.2 320.8 104.45 321.15 104.55 321.5 104.55 321.85 104.55 322.1 104.7 328.2 108.65 332.3 114.6 Z"/>
</g>

<g id="Layer21_0_FILL">
<path fill="#41AAF3" stroke="none" d="
M 167.5 417.6
Q 168.55 415.65 167.6 415.65 163.45 415.75 162.55 420.25 162.55 420.95 162.55 421.7 162.55 422.05 162.55 422.4 164 422.4 165.45 422.4 165.8 422.4 166.15 422.4 166.5 419.5 167.5 417.6 Z"/>

<path fill="#41AAF2" stroke="none" d="
M 141.55 334.15
Q 141.7 334.3 141.7 334.65 142.95 339.2 142.8 345.45
L 143.15 345.45
Q 144.3 339.6 143.9 335.35 143.85 335 143.85 334.65 143.85 333.95 143.95 333.2 144.35 330.55 143.3 330.75 141.6 331 140.25 330.35 140.1 333 141.55 334.15 Z"/>

<path fill="#47A8EB" stroke="none" d="
M 135.95 325.3
Q 136.9 329.05 136.65 333.95 136.65 334.3 136.65 334.65 136.55 336.65 137.2 337.65 137.4 337.9 137.4 338.25 140.15 344.15 139.25 335.95 138.95 333.75 139.3 335.55 140.3 341.2 141.7 334.65 141.7 334.3 141.55 334.15 140.1 333 140.25 330.35 141.6 331 143.3 330.75 144.35 330.55 143.95 333.2 143.85 333.95 143.85 334.65 147.55 327 139.85 323.8 139.05 323.45 135.95 325.3 Z"/>

<path fill="#41A2E6" stroke="none" d="
M 141.7 294.4
Q 141.35 294.4 141.15 294.55 138.15 297.3 135.25 300.15 134 298.85 134.3 296.45 135.15 289.5 132.35 288.65 133.4 296.2 133.45 304.45
L 133.1 304.45
Q 133.45 310.9 134.45 316.7 134.5 317.05 134.5 317.4 138.05 314.95 137.05 309.5
L 137.4 309
Q 140.8 304.2 143.85 305.9 143.85 305.55 144.05 305.35 149.5 300.35 143.85 300.15
L 142.8 300.15
Q 146.85 296.65 147.45 288.65 147.1 288.65 146.75 288.65 142.05 289.3 141.7 294.4 Z"/>

<path fill="#44A1E0" stroke="none" d="
M 126.6 259.85
Q 128.05 256.35 128.2 259.85 128.4 264.9 129.85 260.2 131.3 255.65 128.9 252.85 128.3 256.2 128.5 254.2 129.4 245.8 125.9 249.05 125.75 254.6 126.55 259.15 126.6 259.5 126.6 259.85 Z"/>

<path fill="#40AAF2" stroke="none" d="
M 130.2 219.6
Q 130.2 219.95 130.2 220.3 129.45 225.75 131.45 228.35 131.65 228.55 131.65 228.95 128.8 235.3 132.35 237.9
L 132.35 237.55
Q 132.35 235.05 134.1 231.25 134.15 231.1 134.5 231.1 134.5 230.75 134.5 230.35 133.95 225.55 132.35 221.75 132.35 221.4 132.55 221.15 136.15 216.8 135.95 211.65 136.4 210.15 135.8 210.75 132.5 214.35 130.2 218.85 130.2 219.25 130.2 219.6 Z"/>

<path fill="#3EAAF2" stroke="none" d="
M 141 195.15
Q 141 195.5 140.9 195.8 139.6 199.85 136.65 202.3 138.2 207.45 141.9 201.7 145.45 196.2 141.7 195.15 141.35 195.15 141 195.15 Z"/>

<path fill="#7ABEEF" stroke="none" d="
M 300.65 194.75
L 300.65 194.4
Q 300.3 194.4 299.95 194.4 276.2 194.4 252.45 194.4 275.65 195.65 300.65 194.75
M 240.95 194.75
L 240.95 194.4
Q 240.6 194.4 240.25 194.4 216.85 194.4 193.5 194.4 216.3 195.65 240.95 194.75 Z"/>

<path fill="#B4D7EF" stroke="none" d="
M 252.45 193.75
Q 252.8 193.7 253.2 193.7 273.45 173.7 294.35 154.3 294.55 154.15 294.9 154.15 294.9 153.8 294.8 153.75 289.55 151.95 284.85 149.8 284.85 150.2 284.65 150.35 263.8 172.3 241.65 192.95 246.15 194.25 252.45 193.75 Z"/>

<path fill="#40A3E8" stroke="none" d="
M 250.85 197.8
Q 251 197.65 251 197.3 269.55 196.75 286.2 198.75 286.25 198.75 286.6 198.95 287.45 199.55 287 198 293.7 195.35 294.15 199.45 294.2 199.8 294.2 200.15 290.15 198.3 290.75 202.5 291 204.25 288.4 202.3 289.9 204.5 286.9 204.7
L 286.75 204.7
Q 286.5 207.45 286.25 208.1 283.15 208.35 283.2 209.5 283.4 212.95 280.5 210.25 282 216.15 276.2 214.2
L 276.2 214.55
Q 278.3 217.95 274.05 217.45
L 274.35 217.65
Q 276.4 219.05 274.05 220.3 271.25 219.1 271.3 221 271.45 223.7 268.3 222.45 270.45 227.3 265.9 226.25
L 265.8 227.45
Q 265.75 227.85 265.4 228.2 261.95 227.4 262.65 229.85 263.7 233.3 260.35 231.1 260.5 232.8 258 233.45 257.7 236.25 257.5 236.85 254.35 237.1 254.45 238.25 254.65 241.7 251.75 239 253.25 244.9 247.45 242.95
L 247.45 243.3
Q 249.55 246.75 245.25 246.2
L 245.6 246.4
Q 247.6 247.8 245.25 249.05 242.45 247.85 242.55 249.8 242.7 252.5 239.5 251.25 241.65 256.1 237.15 255.05
L 237.05 256.25
Q 237 256.6 236.65 257 233.2 256.2 233.9 258.6 234.9 262.1 231.6 259.85 231.7 261.55 229.25 262.25 228.95 265 228.75 265.6 225.6 265.85 225.65 267 225.9 270.45 223 267.75 224.5 273.65 218.65 271.75
L 218.65 272.1
Q 220.8 275.5 216.5 274.95
L 216.85 275.2
Q 218.85 276.6 216.5 277.85 213.7 276.6 213.75 278.55 213.9 281.25 210.75 280 212.9 284.85 208.4 283.8
L 208.25 285
Q 208.25 285.4 207.85 285.75 204.4 284.95 205.15 287.35 206.15 290.85 202.85 288.65 202.95 290.3 200.45 291 200.2 293.75 199.95 294.4 196.85 294.65 196.9 295.8 197.1 299.25 194.2 296.55 195.7 302.45 189.9 300.5
L 189.9 300.85
Q 192 304.25 187.75 303.75
L 188.05 303.95
Q 190.05 305.35 187.75 306.6 184.95 305.4 185 307.35 185.15 310 182 308.75 184.15 313.6 179.6 312.6
L 179.5 313.75
Q 179.45 314.15 179.1 314.5 175.65 313.75 176.35 316.15 177.4 319.6 174.05 317.4 174.2 319.1 171.7 319.75 171.4 322.55 171.2 323.15 168.05 323.4 168.15 324.55 168.35 328 165.45 325.3 166.95 331.2 161.1 329.25
L 161.1 329.6
Q 163.25 333.05 158.95 332.5
L 159.3 332.7
Q 161.3 334.1 158.95 335.35 156.15 334.15 156.25 336.1 156.4 338.8 153.2 337.55 155.35 342.4 150.85 341.35
L 150.75 342.55
Q 150.7 343.3 150.35 344 145.3 340.35 149.6 335.35
L 149.05 335.1
Q 148.9 335 148.9 334.65 144.2 336.4 146.35 344.65 146.4 344.7 146.75 344.7 143.55 349.8 141.85 356.8 141.7 357.3 141 357.65 141 358.05 141.05 358.4 144.1 372.4 145.75 387.9 145.3 381.85 148.2 379.25 148.2 378.9 148.05 378.55 144.35 369.45 143.85 359.85 143.85 359.45 144.05 359.25 146.65 356.1 146 363.4 147.2 363.35 146.75 364.85
L 146.5 365.75
Q 147.95 360.9 151.8 359.1 151.8 358.75 151.9 358.45 153.65 351.95 162.55 349.05 162.55 348.7 162.5 348.3 161.7 343.8 166.9 343.3 167.25 342.95 167.25 342.55 167.35 340.15 168.55 339.75 175.7 337.6 174.05 333.95 174.45 333.95 174.55 333.75 178.95 328.4 185.6 325.3 185.6 324.95 185.65 324.6 185.85 323.35 186.3 321 186.65 321 186.85 320.8 192.05 316.7 197.8 313.1 197.8 312.7 197.9 312.4 198.65 309.95 202.85 304.45 203.2 304.45 203.55 304.4 206.75 303.7 208.6 301.55 208.95 301.55 209 301.45 210.1 298.25 215.05 292.95 215.4 292.95 215.7 292.8 217.25 291.9 219.4 291.5 219.4 291.15 219.5 291.05 222.85 289.2 219.4 287.9 219.75 287.9 219.95 287.75 224.5 283.85 228 280.7 228.75 282.4 229.9 281.1 230.15 280.7 230.2 280.55 231.15 275.7 235.9 274.25 235.9 273.9 236 273.55 237.3 268.55 242.4 269.2 242.75 269.2 242.8 269.1 244.9 261.3 251 257.7
L 251 258.05
Q 256.55 256.7 254.6 253.4 256 252.25 257.15 250.85 260.15 247.15 263.95 246.9 263.95 246.55 264.15 246.4 267.3 243.9 266.85 240.45 267.2 240.45 267.4 240.25 272.2 236.1 277.65 232.55 278 232.55 278.05 232.4 279.15 229.2 284.1 223.9 284.45 223.9 284.8 223.8 288.6 222.65 290.6 219.6 287.2 219.7 290.05 217.7 294.45 214.5 299.2 211.65 299.55 211.65 299.7 211.5 301.55 208.7 300.65 206.65 301 206.65 301.2 206.45 305.8 201.7 310.7 200.15 311.45 200.15 311.8 199.8 312.15 199.45 312.35 199.4 321 196.8 331.55 196.55 314.25 195 301.35 195.1 239.6 195.7 176.95 195 159.7 194.8 146 197.3 146 197.65 146 198 145.5 206.6 148.2 202.3 148.2 201.25 148.2 200.15 148.2 199.1 148.55 198.95 154.45 196.75 162.5 196.15 170.15 195.55 170.45 199.45
L 170.45 199.8
Q 173.9 196.8 178.4 197.3 177.5 198.2 176.35 199.55 172.65 203.85 166.9 204.5 166.9 204.85 166.95 205.15 168.3 210.25 163.3 210.95 161.8 212 160.5 213.15 158.2 215.15 155.35 218.15 155 218.5 155 218.85 155 219.25 155 219.3 152.95 222.15 148.9 226.8
L 148.9 227.15
Q 144.9 225.8 143.15 229.65 143.15 230.35 143.5 230.75
L 143.85 231.1
Q 141.15 233.3 137.4 237.55 137.35 239.95 136.45 238.4 136 237.55 136.65 236.9 142.6 231.15 134.5 231.1 134.5 231.45 134.5 231.8 133.45 251.05 131.65 264.9 132 264.9 132.05 265.05 136.25 272.85 130.2 277.85 132.45 285.4 135.2 275.85 136.15 272.65 136.65 268.5 134 261.85 135.25 252.05 135.25 251.95 135.8 251.65 135.95 251.6 135.95 251.25 139.85 252.55 142.05 247 142.3 246.35 145.3 246.2 144.45 241.75 146.55 240.2 146.75 240.1 146.75 239.7 152.25 239.35 154.75 236.05 155.6 234.95 156.5 233.7 156.8 233.25 156.8 232.55 155.7 227.8 160.4 229.3
L 160.4 228.95
Q 164.45 225.1 168.5 221.2 168.7 221 169.05 221 166.75 215.9 171.9 217.8
L 171.9 217.45
Q 176 213.6 180 209.7 180.2 209.5 180.55 209.5 178.3 204.35 183.4 206.3
L 183.4 205.9
Q 187.1 201.85 191.15 198.5 191.35 198.35 191.35 198 195.5 196.55 204.3 196.65 227.45 196.95 245.25 197.3 241.15 200.4 239.9 205.9
L 240.25 205.9
Q 244.25 202.7 246.7 201.95
L 246.7 202.3
Q 248.55 199.85 250.85 197.8
M 146 390.05
Q 145.953125 389.8625 145.95 389.7 145.9509765625 390.2103515625 146 390.75 146 390.4 146 390.05 Z"/>

<path fill="#43A9ED" stroke="none" d="
M 251 197.3
Q 251 197.65 250.85 197.8 248.55 199.85 246.7 202.3
L 246.7 201.95
Q 244.25 202.7 240.25 205.9
L 239.9 205.9
Q 241.15 200.4 245.25 197.3 227.45 196.95 204.3 196.65 195.5 196.55 191.35 198 191.35 198.35 191.15 198.5 187.1 201.85 183.4 205.9
L 183.4 206.3
Q 178.3 204.35 180.55 209.5 180.2 209.5 180 209.7 176 213.6 171.9 217.45
L 171.9 217.8
Q 166.75 215.9 169.05 221 168.7 221 168.5 221.2 164.45 225.1 160.4 228.95
L 160.4 229.3
Q 155.7 227.8 156.8 232.55 156.8 233.25 156.5 233.7 155.6 234.95 154.75 236.05 152.25 239.35 146.75 239.7 146.75 240.1 146.55 240.2 144.45 241.75 145.3 246.2 142.3 246.35 142.05 247 139.85 252.55 135.95 251.25 135.95 251.6 135.8 251.65 135.25 251.95 135.25 252.05 134 261.85 136.65 268.5 136.15 272.65 135.2 275.85 132.45 285.4 130.2 277.85 136.25 272.85 132.05 265.05 132 264.9 131.65 264.9 133.45 251.05 134.5 231.8 134.5 231.45 134.5 231.1 134.15 231.1 134.1 231.25 132.35 235.05 132.35 237.55
L 132.35 237.9
Q 128.8 235.3 131.65 228.95 131.65 228.55 131.45 228.35 129.45 225.75 130.2 220.3 129.85 220.3 129.5 220.3 129.1 220.3 129.1 220.4 127.55 228.8 125.9 236.85 125.9 236.5 125.9 236.15 126.4 228.75 125.15 223.2 125.15 223.55 125.15 223.9 125.7 236.65 124.45 247.65 124.45 248.7 124.45 249.8 124.45 250.15 124.45 250.5 125.15 249.45 125.9 248.7
L 125.9 249.05
Q 129.4 245.8 128.5 254.2 128.3 256.2 128.9 252.85 131.3 255.65 129.85 260.2 128.4 264.9 128.2 259.85 128.05 256.35 126.6 259.85 129.85 281.8 132.7 304.4 132.7 304.45 133.1 304.45
L 133.45 304.45
Q 133.4 296.2 132.35 288.65 135.15 289.5 134.3 296.45 134 298.85 135.25 300.15 138.15 297.3 141.15 294.55 141.35 294.4 141.7 294.4 142.05 289.3 146.75 288.65 147.1 288.65 147.45 288.65 146.85 296.65 142.8 300.15
L 143.85 300.15
Q 149.5 300.35 144.05 305.35 143.85 305.55 143.85 305.9 140.8 304.2 137.4 309
L 137.05 309.5
Q 138.05 314.95 134.5 317.4 135.6 325.65 136.3 334.6 136.3 334.65 136.65 334.65 136.65 334.3 136.65 333.95 136.9 329.05 135.95 325.3 139.05 323.45 139.85 323.8 147.55 327 143.85 334.65 143.85 335 143.9 335.35 144.3 339.6 143.15 345.45
L 142.8 345.45
Q 142.95 339.2 141.7 334.65 140.3 341.2 139.3 335.55 138.95 333.75 139.25 335.95 140.15 344.15 137.4 338.25 138.9 347.55 139.9 357.65
L 140.25 357.65
Q 140.65 357.65 141 357.65 141.7 357.3 141.85 356.8 143.55 349.8 146.75 344.7 146.4 344.7 146.35 344.65 144.2 336.4 148.9 334.65 148.9 335 149.05 335.1
L 149.6 335.35
Q 145.3 340.35 150.35 344 150.7 343.3 150.75 342.55
L 150.85 341.35
Q 155.35 342.4 153.2 337.55 156.4 338.8 156.25 336.1 156.15 334.15 158.95 335.35 161.3 334.1 159.3 332.7
L 158.95 332.5
Q 163.25 333.05 161.1 329.6
L 161.1 329.25
Q 166.95 331.2 165.45 325.3 168.35 328 168.15 324.55 168.05 323.4 171.2 323.15 171.4 322.55 171.7 319.75 174.2 319.1 174.05 317.4 177.4 319.6 176.35 316.15 175.65 313.75 179.1 314.5 179.45 314.15 179.5 313.75
L 179.6 312.6
Q 184.15 313.6 182 308.75 185.15 310 185 307.35 184.95 305.4 187.75 306.6 190.05 305.35 188.05 303.95
L 187.75 303.75
Q 192 304.25 189.9 300.85
L 189.9 300.5
Q 195.7 302.45 194.2 296.55 197.1 299.25 196.9 295.8 196.85 294.65 199.95 294.4 200.2 293.75 200.45 291 202.95 290.3 202.85 288.65 206.15 290.85 205.15 287.35 204.4 284.95 207.85 285.75 208.25 285.4 208.25 285
L 208.4 283.8
Q 212.9 284.85 210.75 280 213.9 281.25 213.75 278.55 213.7 276.6 216.5 277.85 218.85 276.6 216.85 275.2
L 216.5 274.95
Q 220.8 275.5 218.65 272.1
L 218.65 271.75
Q 224.5 273.65 223 267.75 225.9 270.45 225.65 267 225.6 265.85 228.75 265.6 228.95 265 229.25 262.25 231.7 261.55 231.6 259.85 234.9 262.1 233.9 258.6 233.2 256.2 236.65 257 237 256.6 237.05 256.25
L 237.15 255.05
Q 241.65 256.1 239.5 251.25 242.7 252.5 242.55 249.8 242.45 247.85 245.25 249.05 247.6 247.8 245.6 246.4
L 245.25 246.2
Q 249.55 246.75 247.45 243.3
L 247.45 242.95
Q 253.25 244.9 251.75 239 254.65 241.7 254.45 238.25 254.35 237.1 257.5 236.85 257.7 236.25 258 233.45 260.5 232.8 260.35 231.1 263.7 233.3 262.65 229.85 261.95 227.4 265.4 228.2 265.75 227.85 265.8 227.45
L 265.9 226.25
Q 270.45 227.3 268.3 222.45 271.45 223.7 271.3 221 271.25 219.1 274.05 220.3 276.4 219.05 274.35 217.65
L 274.05 217.45
Q 278.3 217.95 276.2 214.55
L 276.2 214.2
Q 282 216.15 280.5 210.25 283.4 212.95 283.2 209.5 283.15 208.35 286.25 208.1 286.5 207.45 286.75 204.7
L 286.9 204.7
Q 289.9 204.5 288.4 202.3 291 204.25 290.75 202.5 290.15 198.3 294.2 200.15 294.2 199.8 294.15 199.45 293.7 195.35 287 198 287.45 199.55 286.6 198.95 286.25 198.75 286.2 198.75 269.55 196.75 251 197.3
M 160.5 275.3
Q 160.4 275.3 160.4 274.95 162.1 273.1 164.15 271.55 164.35 271.35 164.7 271.35 164.7 265.6 170.45 265.95
L 170.45 266.35
Q 170.15 277.1 160.5 275.3
M 152.65 283.05
Q 152.85 282.85 153.2 282.85 153.45 277.35 158.95 277.5
L 158.95 277.85
Q 158.55 288.65 148.95 286.85 148.9 286.85 148.9 286.45 150.6 284.6 152.65 283.05
M 156.8 288.65
Q 157.75 291.05 153.45 295.35 149.55 299.25 147.3 298.45 146.3 298.1 146.75 296.55 150.5 293.8 152.5 289.7 153.45 287.75 156.8 288.65
M 235.5 207.95
Q 235.55 208.1 235.9 208.1 240.35 208.6 234.55 214 231.8 216.55 228 217.05
L 228 216
Q 228 215.25 228 214.55 222.15 213.7 223.35 219.5 223.35 219.6 223.7 219.6 228.1 221.05 223 226.1 218.2 230.85 215.8 228.2 216.2 223.65 210.6 228.7 207.1 231.95 205 229.65 208.6 228.85 210.65 223.15 210.75 222.8 210.75 222.45 213.1 220.9 215.85 219.75 216.15 219.6 216.5 219.6 220.8 212.7 227.4 208.25 227.65 208.1 228 208.1 227.45 205 229.3 204.2 229.45 204.1 229.45 203.75 234.45 201.55 238.2 198.2 238.45 198 238.8 198 240.4 200.3 238.8 201.95
L 238.8 201.6
Q 234.35 205.7 235.5 207.95
M 213.05 231.8
Q 213.65 231.1 215.05 231.25 216.7 231.45 215.05 231.8 210.05 238.3 205 240.1
L 205 239
Q 205 237.9 205 236.85 210.1 235.5 213.05 231.8
M 203.7 232.7
Q 203.9 232.55 204.3 232.55 205.9 234.85 204.3 236.5
L 204.3 236.15
Q 200.55 243.95 193.9 241 193.5 240.8 193.5 239.7 198.9 236.5 203.7 232.7
M 202.85 242.95
L 202.85 243.3
Q 198.4 247.65 198.5 250.5
L 198.3 250.85
Q 194.55 256.45 192.75 250.5 197 243.95 202.85 242.95
M 193.5 242.95
L 193.5 243.3
Q 193.1 254.1 183.5 252.3 183.4 252.3 183.4 251.95 185.15 250.1 187.15 248.55 187.4 248.35 187.75 248.35 188.15 243 193.5 242.95
M 191.35 254.1
Q 192.25 256.55 187.95 260.85 184.05 264.7 181.8 263.9 180.85 263.55 181.25 262 185 259.3 187 255.2 187.95 253.25 191.35 254.1
M 176.25 259.85
Q 176.55 254.8 181.25 254.15 181.6 254.1 182 254.1 181.2 266.5 172 263.85 171.9 263.8 171.9 263.45 173.6 261.6 175.65 260.05 175.85 259.85 176.25 259.85
M 179.8 265.95
L 179.8 266.35
Q 175.4 270.65 175.5 273.5
L 175.3 273.85
Q 171.5 279.45 169.75 273.5 172.95 267.75 179.8 265.95
M 164 285.05
L 163.8 285.35
Q 160 290.95 158.25 285.05 161.45 279.25 168.3 277.5
L 168.3 277.85
Q 163.9 282.15 164 285.05 Z"/>

<path fill="#3FA1E6" stroke="none" d="
M 163.8 285.35
L 164 285.05
Q 163.9 282.15 168.3 277.85
L 168.3 277.5
Q 161.45 279.25 158.25 285.05 160 290.95 163.8 285.35
M 179.8 266.35
L 179.8 265.95
Q 172.95 267.75 169.75 273.5 171.5 279.45 175.3 273.85
L 175.5 273.5
Q 175.4 270.65 179.8 266.35
M 202.85 243.3
L 202.85 242.95
Q 197 243.95 192.75 250.5 194.55 256.45 198.3 250.85
L 198.5 250.5
Q 198.4 247.65 202.85 243.3
M 153.2 282.85
Q 152.85 282.85 152.65 283.05 150.6 284.6 148.9 286.45 148.9 286.85 148.95 286.85 158.55 288.65 158.95 277.85
L 158.95 277.5
Q 153.45 277.35 153.2 282.85
M 160.4 274.95
Q 160.4 275.3 160.5 275.3 170.15 277.1 170.45 266.35
L 170.45 265.95
Q 164.7 265.6 164.7 271.35 164.35 271.35 164.15 271.55 162.1 273.1 160.4 274.95 Z"/>

<path fill="#3FA1E5" stroke="none" d="
M 181.25 254.15
Q 176.55 254.8 176.25 259.85 175.85 259.85 175.65 260.05 173.6 261.6 171.9 263.45 171.9 263.8 172 263.85 181.2 266.5 182 254.1 181.6 254.1 181.25 254.15
M 193.5 243.3
L 193.5 242.95
Q 188.15 243 187.75 248.35 187.4 248.35 187.15 248.55 185.15 250.1 183.4 251.95 183.4 252.3 183.5 252.3 193.1 254.1 193.5 243.3
M 204.3 232.55
Q 203.9 232.55 203.7 232.7 198.9 236.5 193.5 239.7 193.5 240.8 193.9 241 200.55 243.95 204.3 236.15
L 204.3 236.5
Q 205.9 234.85 204.3 232.55 Z"/>

<path fill="#3FA1E4" stroke="none" d="
M 187.95 260.85
Q 192.25 256.55 191.35 254.1 187.95 253.25 187 255.2 185 259.3 181.25 262 180.85 263.55 181.8 263.9 184.05 264.7 187.95 260.85
M 215.05 231.25
Q 213.65 231.1 213.05 231.8 210.1 235.5 205 236.85 205 237.9 205 239
L 205 240.1
Q 210.05 238.3 215.05 231.8 216.7 231.45 215.05 231.25
M 235.9 208.1
Q 235.55 208.1 235.5 207.95 234.35 205.7 238.8 201.6
L 238.8 201.95
Q 240.4 200.3 238.8 198 238.45 198 238.2 198.2 234.45 201.55 229.45 203.75 229.45 204.1 229.3 204.2 227.45 205 228 208.1 227.65 208.1 227.4 208.25 220.8 212.7 216.5 219.6 216.15 219.6 215.85 219.75 213.1 220.9 210.75 222.45 210.75 222.8 210.65 223.15 208.6 228.85 205 229.65 207.1 231.95 210.6 228.7 216.2 223.65 215.8 228.2 218.2 230.85 223 226.1 228.1 221.05 223.7 219.6 223.35 219.6 223.35 219.5 222.15 213.7 228 214.55 228 215.25 228 216
L 228 217.05
Q 231.8 216.55 234.55 214 240.35 208.6 235.9 208.1
M 153.45 295.35
Q 157.75 291.05 156.8 288.65 153.45 287.75 152.5 289.7 150.5 293.8 146.75 296.55 146.3 298.1 147.3 298.45 149.55 299.25 153.45 295.35 Z"/>

<path fill="#64717A" stroke="none" d="
M 290.6 144.8
Q 290.6 144.45 290.6 144.05 290.6 139.75 290.6 135.45 298.85 135.45 307.1 135.1
L 307.1 134.7
Q 306.75 134.7 306.4 134.7 298.15 134.7 289.85 134.7 289.85 139.75 289.85 144.8 289.85 145.15 289.85 145.5 291.3 145.5 292.75 145.5 293.1 145.5 293.45 145.5 301 145.5 308.55 145.15
L 308.55 144.8
Q 308.2 144.8 307.85 144.8 299.2 144.8 290.6 144.8 Z"/>

<path fill="#4DAAE7" stroke="none" d="
M 289.85 123.2
Q 289.5 123.2 289.15 123.2 279.45 123.2 269.7 123.2 269.7 132.55 269.7 141.9 269.7 142.25 269.7 142.65 279.75 143.75 289.15 145.45 289.5 145.5 289.85 145.5 289.85 145.15 289.85 144.8 289.85 139.75 289.85 134.7 289.85 134.35 289.85 134 289.85 128.6 289.85 123.2
M 286.25 124.6
Q 286.6 124.65 287 124.65 290.75 130.55 288.35 141.9 287.7 144.9 287 141.9 285.85 135.95 284.5 141.1 284.45 141.2 284.1 141.2 279.7 141.5 274.05 141.9
L 273.75 142.5
Q 273.7 142.65 273.3 142.65 270.3 135.9 272.3 127.45 272.4 127 270.45 124.65 278.4 122.95 286.25 124.6 Z"/>

<path fill="#42A9EF" stroke="none" d="
M 287 124.65
Q 286.6 124.65 286.25 124.6 278.4 122.95 270.45 124.65 272.4 127 272.3 127.45 270.3 135.9 273.3 142.65 273.7 142.65 273.75 142.5
L 274.05 141.9
Q 279.7 141.5 284.1 141.2 284.45 141.2 284.5 141.1 285.85 135.95 287 141.9 287.7 144.9 288.35 141.9 290.75 130.55 287 124.65 Z"/>

<path fill="#6991AB" stroke="none" d="
M 289.15 123.2
Q 289.5 123.2 289.85 123.2 289.85 122.85 289.85 122.5 289.5 122.5 289.15 122.5 248.85 122.5 208.6 122.5 230.35 123.75 253.9 123.2 254.25 123.2 254.6 123.2 261.8 123.2 269 123.2 269.35 123.2 269.7 123.2 279.45 123.2 289.15 123.2 Z"/>

<path fill="#79BEEF" stroke="none" d="
M 181.25 194.4
Q 180.9 194.4 180.55 194.4 160.05 194.4 139.55 194.4 139.55 194.75 139.55 195.15 139.9 195.15 140.25 195.15 140.65 195.15 141 195.15 141.35 195.15 141.7 195.15 161.5 195.15 181.25 194.75
L 181.25 194.4 Z"/>

<path fill="#B5D7F0" stroke="none" d="
M 240.95 143.35
Q 240.6 143.35 240.25 143.35 235.9 143.35 231.6 143.35 231.6 143.7 231.45 143.9 207.75 167.65 182 192.95 186.85 194.25 193.5 193.75 193.85 193.7 194.2 193.7 218.6 168.45 243.65 143.9 243.85 143.7 243.85 143.35 243.45 143.35 243.1 143.35 242.05 143.35 240.95 143.35 Z"/>

<path fill="#93C8EB" stroke="none" d="
M 208.6 122.5
Q 208.25 122.5 207.85 122.5 207.85 133.3 207.85 144.05 207.85 144.45 207.85 144.8 217.45 143.95 230.9 143.35 231.25 143.35 231.6 143.35 235.9 143.35 240.25 143.35 240.6 143.35 240.95 143.35 240.95 143 240.9 143 222.65 142 209.3 143.35 209.3 143 209.3 142.65 209.65 134.2 208.6 124.65 221.75 123.55 242.4 124.25 249.4 124.45 254.6 123.2 254.25 123.2 253.9 123.2 230.35 123.75 208.6 122.5 Z"/>

<path fill="#626364" stroke="none" d="
M 208.6 81.5
Q 208.25 81.5 207.85 81.5 207.85 101.65 207.85 121.75 207.85 122.15 207.85 122.5 208.25 122.5 208.6 122.5 208.6 122.15 208.6 121.75 208.6 101.65 208.6 81.5 Z"/>

<path fill="#2D2D2D" stroke="none" d="
M 248.15 81.5
Q 247.8 81.5 247.45 81.5 238.45 81.5 229.45 81.5 229.45 81.85 229.5 82.2 230 85.65 228.75 87.25 229.45 102.7 230.5 118.75 231.9 123.8 233.05 117.8
L 233.75 118.2
Q 233.75 123.8 244.25 120.8 246.4 120.2 243.1 120.3 242.4 120.35 241.65 120.35 237.15 117.9 245.25 117.45
L 245.55 117.35
Q 247.2 116.55 247.45 118.2 248.7 101.1 248.15 82.2 248.15 81.85 248.15 81.5 Z"/>

<path fill="#3F4040" stroke="none" d="
M 269.7 81.5
Q 269.35 81.5 269 81.5 258.6 81.5 248.15 81.5 248.15 81.85 248.15 82.2 248.7 101.1 247.45 118.2 247.2 116.55 245.55 117.35
L 245.25 117.45
Q 237.15 117.9 241.65 120.35 242.4 120.35 243.1 120.3 246.4 120.2 244.25 120.8 233.75 123.8 233.75 118.2
L 233.05 117.8
Q 231.9 123.8 230.5 118.75 229.45 102.7 228.75 87.25 230 85.65 229.5 82.2 229.45 81.85 229.45 81.5 229.1 81.5 228.75 81.5 218.65 81.5 208.6 81.5 208.6 101.65 208.6 121.75 208.6 122.15 208.6 122.5 248.85 122.5 289.15 122.5 289.5 122.5 289.85 122.5 289.85 122.15 289.85 121.75 289.5 121.75 289.15 121.75 279.45 121.75 269.7 121.75 269.7 121.4 269.7 121.05 269.7 101.3 269.7 81.5 Z"/>

<path fill="#4893C7" stroke="none" d="
M 343.45 381.55
L 343.1 381.75
Q 341.45 387.9 343.8 387.9 344.15 387.5 344.6 387.25
L 345.25 386.8
Q 344.1 392.15 336.6 395.8 336.6 395.05 336.6 394.35
L 336.6 393.25
Q 335.05 397.6 334.45 394.35 332.5 396.65 332.15 400 330.6 414.25 320.05 420.25 327.75 420.4 332.4 417.5 332.65 417.35 333 417.35 337 415.9 332.65 414.5
L 333 414.5
Q 336.6 411.25 340.35 408.2 340.55 408 340.9 408 343.15 411.05 344.05 413.25 345.1 415.65 346.7 413.05 346.45 408.5 341.75 406.95 341.65 406.95 341.65 406.6 346.55 401.9 349.75 398.85 349.9 398.65 350.25 398.65 351.3 400.3 351 405.85 351 406.2 351 406.6 348.95 410.65 346.8 414.55 346.7 414.85 346.7 415.2 351.8 410.95 352.8 402.3 352.8 402.25 353.15 402.25 353.15 401.9 353.15 401.55 352.8 401.55 352.8 401.5 352.45 399 352.45 396.5 355.5 387.7 355.3 375.65 355.3 375.3 355.3 374.95 355.25 374.95 355.2 374.9 354 379.7 351.7 382.85 351.35 382.85 351.3 383
L 351 383.55
Q 348.45 381.8 345.25 379.95 343.95 381.2 343.45 381.55 Z"/>

<path fill="#40A4EA" stroke="none" d="
M 331.55 323.15
Q 331.55 323.5 331.45 323.85 328.9 332.45 333.75 335.35
L 334.1 335.35
Q 334.15 342.6 333 346.15 332.65 346.15 332.65 346.1 331.55 341.15 328 344 328 344.35 327.85 344.7 326.55 348 321.5 353.35 321.15 353.35 320.8 353.45 317 354.6 315.05 357.65
L 316.1 357.65
Q 312.5 360.55 310 365.6 309.65 365.6 309.3 365.55 307.1 365.2 304.25 367.75 304.25 368.1 304.15 368.4 303.5 371.3 298.5 376.35 298.15 376.35 297.8 376.5 294 377.65 292 380.7
L 293.1 380.7
Q 289.5 383.55 287 388.6 286.6 388.6 286.25 388.55 283.55 388.4 280.5 391.45 280.85 391.85 281.3 392
L 281.95 392.2
Q 278 395.05 275.5 400.1 275.1 400.1 274.75 400.05 272 399.55 269.7 403
L 269.35 403.35 269.7 403.7
Q 269.2 407.6 266.15 407.3 265.25 409.25 263.6 410.4 262.5 411.2 261.15 412.45 258.6 414.9 256.8 417.35 256.85 423.1 262.55 421.3
L 262.55 422.4
Q 288.05 422.4 313.6 422.4 313.95 422.4 314.3 422.4 314.15 420.45 314.5 419.7 315 418.5 312.85 418.1 312.15 418.1 311.95 417.75 311.45 417 311.2 416.95 300.1 414.65 287 415.2 286.6 415.2 286.6 415.05 284.85 410.9 277.65 412.35 277.65 411.95 277.75 411.65 279.35 407.75 281.25 403.7
L 281.25 404.05
Q 289.35 402 291.3 395.8 291.65 395.8 292 395.9 292.75 396.1 294.9 394.35 294.9 394 295.05 393.75 296.6 391.4 299.2 390.05 299.2 389.65 299.4 389.55 301.6 387.6 302.8 384.3 303.15 384.3 303.5 384.2 306.45 383.75 307.1 379.95
L 307.1 379.6
Q 313.95 382.4 320.05 379.25 320.05 378.9 319.95 378.85 314.65 377.4 310.7 377.1 311.1 377.1 311.25 376.9 314.15 373.7 315.75 369.2
L 315.75 369.55
Q 323.9 367.5 325.8 361.25 326.2 361.25 326.55 361.25 327.6 361.25 330.15 359.1 330.15 358.75 330.15 358.4 330.8 354.05 336.6 351.2 336.6 350.85 336.65 350.5 337.2 344.2 338.75 338.95 338.75 338.6 338.75 338.25 338.35 335.1 337.35 336.1 336.85 336.9 335.55 335 333.25 329.4 331.55 323.15 Z"/>

<path fill="#4A96CA" stroke="none" d="
M 362.5 313.1
Q 362.15 313.1 361.8 313.05 359.25 312.7 356.05 313.8 356.05 314.15 355.9 314.5 353.9 320.65 348.85 323.85 348.85 323.5 348.7 323.45 346.4 322.25 343.1 323.15 343.1 323.5 343.15 323.85 344.3 329.15 340.2 335.35 340.2 335.75 340.2 336.1 340.3 341.95 338.75 346.15 340.45 350.95 344.35 345.9 345.25 344.7 346.7 344 349.55 346.9 355.2 347.6 355.3 347.6 355.5 348.25 355.65 348.7 356.05 349.05 356.25 352.45 353.85 352.3
L 353.7 353.35
Q 353.35 356.4 354.6 357.65 357.05 354.35 355.5 360.6 353.85 367.05 355.8 371.55
L 355.8 371.6
Q 355.9 371.8 356.05 372.05 359.5 352.55 361.75 331.8 361.8 331.4 361.8 331.05 361.4 331.05 361.4 331 361.05 329.25 361.05 327.45 362.45 321.3 362.5 313.8 362.5 313.45 362.5 313.1 Z"/>

<path fill="#609DC7" stroke="none" d="
M 367.5 286.45
Q 367.55 286.1 367.55 285.75 367.15 285.75 366.8 285.75 366.45 285.75 366.45 285.8 363.65 299 362.5 311.65 362.5 312 362.5 312.35 362.5 312.7 362.5 313.1 362.5 313.45 362.5 313.8 362.45 321.3 361.05 327.45 361.05 329.25 361.4 331 361.4 331.05 361.8 331.05 361.8 330.7 361.8 330.35 361.8 329.6 361.8 328.9 364.75 317.85 365.4 304.45 365.4 304.1 365.4 303.75 365.4 303.35 365.4 303 365.4 300.5 365.4 298 366.65 292.4 367.5 286.45 Z"/>

<path fill="#8BBCDA" stroke="none" d="
M 370.35 268.5
Q 370.4 268.15 370.4 267.75 370.05 267.75 370.05 267.8 369.3 275.65 367.55 282.15 367.55 283.6 367.55 285.05 367.55 285.4 367.55 285.75 367.55 286.1 367.5 286.45 366.65 292.4 365.4 298 365.4 300.5 365.4 303 365.4 303.35 365.4 303.75 368.65 286.85 370.35 268.5 Z"/>

<path fill="#40A3E9" stroke="none" d="
M 343.8 265.6
Q 344 269.3 342.3 271.8 340.3 274.7 338.05 277.1 333.45 281.85 328.75 286.55 296.35 318.5 264.2 350.7 232 382.9 199.65 414.9 195.5 418.95 193.5 418.1 193.5 417.35 193.2 417.2 186.6 414.15 176.25 415.05 174.45 415.2 173.7 416.1 171.35 419 168.3 420.95 168.3 421.3 168.3 421.7 168.3 422.05 168.3 422.4 211.45 422.4 254.6 422.4 255 422.4 255.35 422.4 252.55 421.3 251.5 418.6 251 417.35 250.5 417.1 245.1 414.65 237.45 415.8 227.45 417.35 228 411.6 227.7 408.75 226.3 409.9 222.7 413 223.6 414.35 217.75 414.05 216.5 419.5 216.5 419.9 216.4 419.9 207.3 422.65 210.75 418.1 208.8 418.6 209.3 417.9 211.2 415.3 213.55 413 216.6 409.9 220.8 408 221.2 408 221.2 407.95 222.65 402.55 226.55 402.25 226.55 401.9 226.75 401.75 230.95 398 233.75 392.9 233.75 392.55 233.95 392.45 239.25 389.05 243.85 385 244.2 385 244.2 384.95 244.8 379.85 249.6 379.25 249.6 378.9 249.75 378.75 253.95 375 256.8 369.9 256.8 369.55 256.95 369.45 261.95 365.7 266.85 362 267.2 362 267.3 361.85 270.35 356.15 274.75 351.9 275.1 351.9 275.35 351.75 279.6 348.1 284.1 344.7 284.1 344.35 284.3 344.2 288.5 340.5 291.3 335.35 291.3 335 291.5 334.9 300.05 329 307.1 321.7 307.1 321.35 307.2 321 308 317.55 314.3 316.7 314.3 315.6 314.3 314.5 314.3 313.45 314.5 313.4 320.15 312.45 320.8 307.35 320.8 306.95 320.95 306.8 325.3 302.5 330.15 298.7 330.15 298.35 330.3 298.15 334.75 293.65 338.75 288.65 340.2 288.65 341 287.9 344.75 284.55 346.7 279.3 346.7 278.9 346.5 278.7 344.6 276.35 345.25 274.95 345.6 274.95 345.65 274.8 350.1 266.95 343.8 265.6 Z"/>

<path fill="#4492C7" stroke="none" d="
M 361.35 204.65
Q 361.4 204.5 361.8 204.5 362.3 209.9 363.05 208 363.2 207.7 363.2 207.35 363.2 207 363.1 206.7 361.15 200.45 357.45 195.85 356.75 198.7 356.55 198.85 355.15 199.7 349.35 201.85
L 348.1 202.3
Q 350.9 204.75 345.95 208.1 346.7 214.2 348.45 219.5 348.45 219.6 348.85 219.6 357.05 214.15 361.35 204.65 Z"/>

<path fill="#7DA9C7" stroke="none" d="
M 372.55 233.25
Q 372.2 233.25 371.85 233.25 371.5 233.25 371.15 233.25 371.7 246.15 371.15 261.3 371.15 261.65 371.15 262 372.75 256.8 372.95 249.8
L 373.3 249.8
Q 373.3 249.45 373.2 249.05 372.05 242.05 372.55 233.25 Z"/>

<path fill="#4795C9" stroke="none" d="
M 370.4 225.35
Q 370.05 225.35 370 225.25 368.2 218.45 368.25 226.8
L 367.9 227.15
Q 367.55 226.8 367.2 226.6 364.5 225.05 366.1 232.55 367.05 230.85 366.95 231.8 366.15 241.65 366.8 243.3 367.15 243.3 367.25 243.15 369.85 237.35 369.7 231.25 369.75 231.5 369.8 231.8 371.9 237.15 370.4 242.6 369.75 244.85 368.05 246.15 365.65 247.9 363.25 249.45 350.8 257.15 348.85 274.95 350.65 277.6 356.6 278.25 365.35 279.25 366.1 273.5 367.4 269.8 367 277.1 366.8 281.05 366.8 285.75 367.15 285.75 367.55 285.75 367.55 285.4 367.55 285.05 367.55 283.6 367.55 282.15 369.3 275.65 370.05 267.8 370.05 267.75 370.4 267.75 371.65 266.15 371.15 262.75 371.15 262.4 371.15 262 371.15 261.65 371.15 261.3 371.7 246.15 371.15 233.25 371.15 232.9 371.15 232.55 371.6 228.15 370.4 225.35 Z"/>

<path fill="#5997C2" stroke="none" d="
M 358.9 195.15
Q 358.55 195.15 358.2 195.15 356.75 195.15 355.3 195.15 355.25 196.3 356.8 195.9 357.1 195.85 357.45 195.85 361.15 200.45 363.1 206.7 363.2 207 363.2 207.35 364.15 212.5 364.45 216 364.55 217.55 367.1 219.45 368.45 220.4 368.25 217.45 368.25 217.05 368.15 216.75 364.55 205 358.9 195.15 Z"/>

<path fill="#43A8EB" stroke="none" d="
M 338.05 194.4
Q 337.7 194.4 337.35 194.4 319 194.4 300.65 194.4
L 300.65 194.75
Q 275.65 195.65 252.45 194.4 252.1 194.4 251.75 194.4 246.35 194.4 240.95 194.4
L 240.95 194.75
Q 216.3 195.65 193.5 194.4 193.15 194.4 192.75 194.4 187 194.4 181.25 194.4
L 181.25 194.75
Q 161.5 195.15 141.7 195.15 145.45 196.2 141.9 201.7 138.2 207.45 136.65 202.3 139.6 199.85 140.9 195.8 141 195.5 141 195.15 140.65 195.15 140.25 195.15 139.9 195.15 139.55 195.15 139.2 195.15 139.1 195.3 133.5 206 129.5 218.15 129.5 218.85 129.5 219.6 129.5 219.95 129.5 220.3 129.85 220.3 130.2 220.3 130.2 219.95 130.2 219.6 130.2 219.25 130.2 218.85 132.5 214.35 135.8 210.75 136.4 210.15 135.95 211.65 136.15 216.8 132.55 221.15 132.35 221.4 132.35 221.75 133.95 225.55 134.5 230.35 134.5 230.75 134.5 231.1 142.6 231.15 136.65 236.9 136 237.55 136.45 238.4 137.35 239.95 137.4 237.55 141.15 233.3 143.85 231.1
L 143.5 230.75
Q 143.15 230.35 143.15 229.65 144.9 225.8 148.9 227.15
L 148.9 226.8
Q 152.95 222.15 155 219.3 155 219.25 155 218.85 155 218.5 155.35 218.15 158.2 215.15 160.5 213.15 161.8 212 163.3 210.95 168.3 210.25 166.95 205.15 166.9 204.85 166.9 204.5 172.65 203.85 176.35 199.55 177.5 198.2 178.4 197.3 173.9 196.8 170.45 199.8
L 170.45 199.45
Q 170.15 195.55 162.5 196.15 154.45 196.75 148.55 198.95 148.2 199.1 148.2 200.15 148.2 201.25 148.2 202.3 145.5 206.6 146 198 146 197.65 146 197.3 159.7 194.8 176.95 195 239.6 195.7 301.35 195.1 314.25 195 331.55 196.55 321 196.8 312.35 199.4 312.15 199.45 311.8 199.8 311.45 200.15 310.7 200.15 305.8 201.7 301.2 206.45 301 206.65 300.65 206.65 301.55 208.7 299.7 211.5 299.55 211.65 299.2 211.65 294.45 214.5 290.05 217.7 287.2 219.7 290.6 219.6 288.6 222.65 284.8 223.8 284.45 223.9 284.1 223.9 279.15 229.2 278.05 232.4 278 232.55 277.65 232.55 272.2 236.1 267.4 240.25 267.2 240.45 266.85 240.45 267.3 243.9 264.15 246.4 263.95 246.55 263.95 246.9 260.15 247.15 257.15 250.85 256 252.25 254.6 253.4 256.55 256.7 251 258.05
L 251 257.7
Q 244.9 261.3 242.8 269.1 242.75 269.2 242.4 269.2 237.3 268.55 236 273.55 235.9 273.9 235.9 274.25 231.15 275.7 230.2 280.55 230.15 280.7 229.9 281.1 228.75 282.4 228 280.7 224.5 283.85 219.95 287.75 219.75 287.9 219.4 287.9 222.85 289.2 219.5 291.05 219.4 291.15 219.4 291.5 217.25 291.9 215.7 292.8 215.4 292.95 215.05 292.95 210.1 298.25 209 301.45 208.95 301.55 208.6 301.55 206.75 303.7 203.55 304.4 203.2 304.45 202.85 304.45 198.65 309.95 197.9 312.4 197.8 312.7 197.8 313.1 192.05 316.7 186.85 320.8 186.65 321 186.3 321 185.85 323.35 185.65 324.6 185.6 324.95 185.6 325.3 178.95 328.4 174.55 333.75 174.45 333.95 174.05 333.95 175.7 337.6 168.55 339.75 167.35 340.15 167.25 342.55 167.25 342.95 166.9 343.3 161.7 343.8 162.5 348.3 162.55 348.7 162.55 349.05 153.65 351.95 151.9 358.45 151.8 358.75 151.8 359.1 147.95 360.9 146.5 365.75
L 146.75 364.85
Q 147.2 363.35 146 363.4 146.65 356.1 144.05 359.25 143.85 359.45 143.85 359.85 144.35 369.45 148.05 378.55 148.2 378.9 148.2 379.25 145.3 381.85 145.75 387.9 144.1 372.4 141.05 358.4 141 358.05 141 357.65 140.65 357.65 140.25 357.65 142.75 379.65 146 400.8 146 401.2 146 401.55 146 401.9 146 402.25 148.45 416.7 160.25 421.95 160.4 422.05 160.4 422.4 161.1 422.4 161.85 422.4 162.2 422.4 162.55 422.4 162.55 422.05 162.55 421.7 162.55 420.95 162.55 420.25 163.45 415.75 167.6 415.65 168.55 415.65 167.5 417.6 166.5 419.5 166.15 422.4 166.9 422.4 167.6 422.4 167.95 422.4 168.3 422.4 168.3 422.05 168.3 421.7 168.3 421.3 168.3 420.95 171.35 419 173.7 416.1 174.45 415.2 176.25 415.05 186.6 414.15 193.2 417.2 193.5 417.35 193.5 418.1 195.5 418.95 199.65 414.9 232 382.9 264.2 350.7 296.35 318.5 328.75 286.55 333.45 281.85 338.05 277.1 340.3 274.7 342.3 271.8 344 269.3 343.8 265.6 350.1 266.95 345.65 274.8 345.6 274.95 345.25 274.95 344.6 276.35 346.5 278.7 346.7 278.9 346.7 279.3 344.75 284.55 341 287.9 340.2 288.65 338.75 288.65 334.75 293.65 330.3 298.15 330.15 298.35 330.15 298.7 325.3 302.5 320.95 306.8 320.8 306.95 320.8 307.35 320.15 312.45 314.5 313.4 314.3 313.45 314.3 314.5 314.3 315.6 314.3 316.7 308 317.55 307.2 321 307.1 321.35 307.1 321.7 300.05 329 291.5 334.9 291.3 335 291.3 335.35 288.5 340.5 284.3 344.2 284.1 344.35 284.1 344.7 279.6 348.1 275.35 351.75 275.1 351.9 274.75 351.9 270.35 356.15 267.3 361.85 267.2 362 266.85 362 261.95 365.7 256.95 369.45 256.8 369.55 256.8 369.9 253.95 375 249.75 378.75 249.6 378.9 249.6 379.25 244.8 379.85 244.2 384.95 244.2 385 243.85 385 239.25 389.05 233.95 392.45 233.75 392.55 233.75 392.9 230.95 398 226.75 401.75 226.55 401.9 226.55 402.25 222.65 402.55 221.2 407.95 221.2 408 220.8 408 216.6 409.9 213.55 413 211.2 415.3 209.3 417.9 208.8 418.6 210.75 418.1 207.3 422.65 216.4 419.9 216.5 419.9 216.5 419.5 217.75 414.05 223.6 414.35 222.7 413 226.3 409.9 227.7 408.75 228 411.6 227.45 417.35 237.45 415.8 245.1 414.65 250.5 417.1 251 417.35 251.5 418.6 252.55 421.3 255.35 422.4 258.6 422.4 261.8 422.4 262.15 422.4 262.55 422.4
L 262.55 421.3
Q 256.85 423.1 256.8 417.35 258.6 414.9 261.15 412.45 262.5 411.2 263.6 410.4 265.25 409.25 266.15 407.3 269.2 407.6 269.7 403.7
L 269.35 403.35 269.7 403
Q 272 399.55 274.75 400.05 275.1 400.1 275.5 400.1 278 395.05 281.95 392.2
L 281.3 392
Q 280.85 391.85 280.5 391.45 283.55 388.4 286.25 388.55 286.6 388.6 287 388.6 289.5 383.55 293.1 380.7
L 292 380.7
Q 294 377.65 297.8 376.5 298.15 376.35 298.5 376.35 303.5 371.3 304.15 368.4 304.25 368.1 304.25 367.75 307.1 365.2 309.3 365.55 309.65 365.6 310 365.6 312.5 360.55 316.1 357.65
L 315.05 357.65
Q 317 354.6 320.8 353.45 321.15 353.35 321.5 353.35 326.55 348 327.85 344.7 328 344.35 328 344 331.55 341.15 332.65 346.1 332.65 346.15 333 346.15 334.15 342.6 334.1 335.35
L 333.75 335.35
Q 328.9 332.45 331.45 323.85 331.55 323.5 331.55 323.15 333.25 329.4 335.55 335 336.85 336.9 337.35 336.1 338.35 335.1 338.75 338.25 338.75 338.6 338.75 338.95 337.2 344.2 336.65 350.5 336.6 350.85 336.6 351.2 330.8 354.05 330.15 358.4 330.15 358.75 330.15 359.1 327.6 361.25 326.55 361.25 326.2 361.25 325.8 361.25 323.9 367.5 315.75 369.55
L 315.75 369.2
Q 314.15 373.7 311.25 376.9 311.1 377.1 310.7 377.1 314.65 377.4 319.95 378.85 320.05 378.9 320.05 379.25 313.95 382.4 307.1 379.6
L 307.1 379.95
Q 306.45 383.75 303.5 384.2 303.15 384.3 302.8 384.3 301.6 387.6 299.4 389.55 299.2 389.65 299.2 390.05 296.6 391.4 295.05 393.75 294.9 394 294.9 394.35 292.75 396.1 292 395.9 291.65 395.8 291.3 395.8 289.35 402 281.25 404.05
L 281.25 403.7
Q 279.35 407.75 277.75 411.65 277.65 411.95 277.65 412.35 284.85 410.9 286.6 415.05 286.6 415.2 287 415.2 300.1 414.65 311.2 416.95 311.45 417 311.95 417.75 312.15 418.1 312.85 418.1 315 418.5 314.5 419.7 314.15 420.45 314.3 422.4 326.2 422.4 338.05 422.4 338.4 422.4 338.75 422.4 338.75 422.05 338.75 421.7 343.35 419.4 346.2 415.4 346.3 415.2 346.7 415.2 346.7 414.85 346.8 414.55 348.95 410.65 351 406.6 351 406.2 351 405.85 351.3 400.3 350.25 398.65 349.9 398.65 349.75 398.85 346.55 401.9 341.65 406.6 341.65 406.95 341.75 406.95 346.45 408.5 346.7 413.05 345.1 415.65 344.05 413.25 343.15 411.05 340.9 408 340.55 408 340.35 408.2 336.6 411.25 333 414.5
L 332.65 414.5
Q 337 415.9 333 417.35 332.65 417.35 332.4 417.5 327.75 420.4 320.05 420.25 330.6 414.25 332.15 400 332.5 396.65 334.45 394.35 335.05 397.6 336.6 393.25
L 336.6 394.35
Q 336.6 395.05 336.6 395.8 344.1 392.15 345.25 386.8
L 344.6 387.25
Q 344.15 387.5 343.8 387.9 341.45 387.9 343.1 381.75
L 343.45 381.55
Q 343.95 381.2 345.25 379.95 348.45 381.8 351 383.55
L 351.3 383
Q 351.35 382.85 351.7 382.85 354 379.7 355.2 374.9 355.25 374.95 355.3 374.95 356.55 374.7 356.1 372.75 356.05 372.4 356.05 372.05 355.9 371.8 355.8 371.6
L 355.8 371.55
Q 353.85 367.05 355.5 360.6 357.05 354.35 354.6 357.65 353.35 356.4 353.7 353.35
L 353.85 352.3
Q 356.25 352.45 356.05 349.05 355.65 348.7 355.5 348.25 355.3 347.6 355.2 347.6 349.55 346.9 346.7 344 345.25 344.7 344.35 345.9 340.45 350.95 338.75 346.15 340.3 341.95 340.2 336.1 340.2 335.75 340.2 335.35 344.3 329.15 343.15 323.85 343.1 323.5 343.1 323.15 346.4 322.25 348.7 323.45 348.85 323.5 348.85 323.85 353.9 320.65 355.9 314.5 356.05 314.15 356.05 313.8 359.25 312.7 361.8 313.05 362.15 313.1 362.5 313.1 362.5 312.7 362.5 312.35 362.5 312 362.5 311.65 363.65 299 366.45 285.8 366.45 285.75 366.8 285.75 366.8 281.05 367 277.1 367.4 269.8 366.1 273.5 365.35 279.25 356.6 278.25 350.65 277.6 348.85 274.95 350.8 257.15 363.25 249.45 365.65 247.9 368.05 246.15 369.75 244.85 370.4 242.6 371.9 237.15 369.8 231.8 369.75 231.5 369.7 231.25 369.85 237.35 367.25 243.15 367.15 243.3 366.8 243.3 366.15 241.65 366.95 231.8 367.05 230.85 366.1 232.55 364.5 225.05 367.2 226.6 367.55 226.8 367.9 227.15
L 368.25 226.8
Q 368.2 218.45 370 225.25 370.05 225.35 370.4 225.35 370.4 225 370.35 224.6 370.05 220.3 368.25 217.45 368.45 220.4 367.1 219.45 364.55 217.55 364.45 216 364.15 212.5 363.2 207.35 363.2 207.7 363.05 208 362.3 209.9 361.8 204.5 361.4 204.5 361.35 204.65 357.05 214.15 348.85 219.6 348.45 219.6 348.45 219.5 346.7 214.2 345.95 208.1 350.9 204.75 348.1 202.3
L 349.35 201.85
Q 355.15 199.7 356.55 198.85 356.75 198.7 357.45 195.85 357.1 195.85 356.8 195.9 355.25 196.3 355.3 195.15 356.75 195.15 358.2 195.15 358.55 195.15 358.9 195.15 358.9 194.75 358.7 194.6 358.55 194.4 358.2 194.4 357.8 194.4 357.45 194.4 347.75 194.4 338.05 194.4
M 336.25 197.45
Q 336.25 197.3 337.35 197.45 340.05 197.75 338.05 199.45 336.3 203.8 334.15 207.95 331.5 213.2 331.55 203.75 335.55 202.7 336.25 197.45
M 345.9 221.05
Q 345.95 221.4 345.95 221.75 314.05 254.2 281.65 286.1 249.15 318.05 217.2 350.45 202.55 365.3 188.25 380.45 177.65 391.8 166.4 402.55 164.6 404.25 163.25 406.3 161.4 409.15 158.95 408 159.2 401.3 155.5 409.15 154.65 410.9 154.35 413 154.3 413.4 153.95 413.75 151.5 415.4 149.2 409.15 148.9 408.35 148.6 407.2 148.2 405.5 148.2 403.7 152.95 408.35 151.25 403.4 151.1 402.95 150.85 402.1 150.55 401.05 152.5 401.55 155.1 394.1 158.95 395 159.35 395.05 159.7 395.05 165.4 390.7 168.25 383.1 168.3 382.85 168.9 382.55 169.05 382.5 169.05 382.1 175.15 382.35 177.55 375.6 177.65 375.3 177.65 374.95 182.65 373.1 185.8 369.35 185.95 369.2 186.3 369.2 188.35 363.7 191.85 359.7 192.05 359.45 192.05 359.1 201.3 358.55 199.3 349.75 199.25 349.4 199.25 349.05 200.05 344.2 204.45 347.95 205.65 348.95 206.45 347.6 207.85 341.65 215.35 338.05 217.5 337.1 218.65 334.65 214.5 327.8 219.95 330.65 220.1 330.7 220.1 331.05 223.35 331.95 226.15 325.45 226.2 325.3 226.55 325.3 233.9 323.55 235.35 316.55 235.55 315.65 234.5 317.4 231.85 314.65 235.9 312.7
L 236.45 313.25
Q 237 313.8 238.1 313.8 240.5 314.4 243.3 311.8 243.45 311.65 243.85 311.65 245.9 306.15 249.4 302.15 249.6 301.95 249.6 301.55 255.8 300.9 258.35 293.9 259.4 291.05 256.8 290.05 260.55 286.75 264.6 290 264.65 290.05 264.7 288.65 264.7 287.9 264.7 287.2 259.6 283.65 266.1 283.95 266.15 283.95 266.4 284.95 267 286.85 268.3 285.75 272.9 281.7 268.8 277.35 268.2 276.7 269.7 277.1 276 280.25 279.3 275.85 279.45 275.7 279.8 275.7 282.6 270.85 281.55 270.6 279.15 269.85 279.8 267.05 282.15 265.15 287 267.4
L 287 267.05
Q 292.65 261.9 297.95 256.45 298.15 256.25 298.5 256.25 297.55 250.85 303.5 249.85 303.9 249.8 304.25 249.8 304.55 243.6 308.6 244.7 308.9 244.75 309.3 244.75 315.95 240.15 318.25 233.35 318.25 233.25 318.65 233.25 322.4 233.45 322.2 229.65 322.2 229.3 322.2 228.95 331.4 225.9 332.95 218.85 333 218.5 333 218.15 336.55 215.9 338.8 212.65 339.5 211.65 340.05 210.5 340.2 210.25 340.9 210.25 342.75 210 345.05 212.55 345.25 212.75 345.25 213.1 344.7 216.15 345.9 221.05
M 344.6 230.35
Q 344.5 230 344.5 229.65 351.1 231.35 348.9 241.9 348.85 242.25 348.85 242.6 353.4 247.8 350.3 255.15 349.55 257 348.8 258.85 347.65 261.7 346.7 259.85 342.7 255.4 347.25 253.1 347.4 253.05 347.4 252.65 347.25 240.25 344.6 230.35
M 353.15 308.05
Q 354.35 296.95 355 304.5 355.9 316.45 353.15 308.05
M 336.6 323.85
Q 336.6 323.5 336.6 323.15 337.65 316.75 338.25 319.5 339.4 325.15 339.5 317.4 341.3 326.05 338.85 333.95 338.75 334.3 338.75 334.65 336.45 330.5 336.6 323.85
M 333.05 358.4
Q 333 358.05 333 357.65 337.25 357.45 336.25 366.35 335.9 369.85 333.75 367.75 333.25 363.15 333.05 358.4
M 332.3 391.45
Q 331.05 389.1 331.35 381.4 331.55 375.3 331.55 369.2 335.15 372.25 333.65 380.05 332.55 385.9 332.3 391.45
M 145.95 389.7
Q 145.953125 389.8625 146 390.05 146 390.4 146 390.75 145.9509765625 390.2103515625 145.95 389.7
M 316.45 417.7
L 316.45 417.35
Q 321.9 414.5 321.85 410.9
L 321.3 410.35
Q 319.65 408.65 323.65 410.15 326.6 406.55 326.55 409.45 326.55 409.8 326.55 410.15 324.7 416.9 316.45 417.7 Z"/>

<path fill="#40A4E9" stroke="none" d="
M 316.45 417.35
L 316.45 417.7
Q 324.7 416.9 326.55 410.15 326.55 409.8 326.55 409.45 326.6 406.55 323.65 410.15 319.65 408.65 321.3 410.35
L 321.85 410.9
Q 321.9 414.5 316.45 417.35 Z"/>

<path fill="#42A9F1" stroke="none" d="
M 331.35 381.4
Q 331.05 389.1 332.3 391.45 332.55 385.9 333.65 380.05 335.15 372.25 331.55 369.2 331.55 375.3 331.35 381.4
M 344.5 229.65
Q 344.5 230 344.6 230.35 347.25 240.25 347.4 252.65 347.4 253.05 347.25 253.1 342.7 255.4 346.7 259.85 347.65 261.7 348.8 258.85 349.55 257 350.3 255.15 353.4 247.8 348.85 242.6 348.85 242.25 348.9 241.9 351.1 231.35 344.5 229.65 Z"/>

<path fill="#42AAF1" stroke="none" d="
M 333 357.65
Q 333 358.05 333.05 358.4 333.25 363.15 333.75 367.75 335.9 369.85 336.25 366.35 337.25 357.45 333 357.65 Z"/>

<path fill="#40AAF0" stroke="none" d="
M 336.6 323.15
Q 336.6 323.5 336.6 323.85 336.45 330.5 338.75 334.65 338.75 334.3 338.85 333.95 341.3 326.05 339.5 317.4 339.4 325.15 338.25 319.5 337.65 316.75 336.6 323.15 Z"/>

<path fill="#4A98CA" stroke="none" d="
M 355 304.5
Q 354.35 296.95 353.15 308.05 355.9 316.45 355 304.5 Z"/>

<path fill="#3FA2E7" stroke="none" d="
M 345.95 221.75
Q 345.95 221.4 345.9 221.05 344.7 216.15 345.25 213.1 345.25 212.75 345.05 212.55 342.75 210 340.9 210.25 340.2 210.25 340.05 210.5 339.5 211.65 338.8 212.65 336.55 215.9 333 218.15 333 218.5 332.95 218.85 331.4 225.9 322.2 228.95 322.2 229.3 322.2 229.65 322.4 233.45 318.65 233.25 318.25 233.25 318.25 233.35 315.95 240.15 309.3 244.75 308.9 244.75 308.6 244.7 304.55 243.6 304.25 249.8 303.9 249.8 303.5 249.85 297.55 250.85 298.5 256.25 298.15 256.25 297.95 256.45 292.65 261.9 287 267.05
L 287 267.4
Q 282.15 265.15 279.8 267.05 279.15 269.85 281.55 270.6 282.6 270.85 279.8 275.7 279.45 275.7 279.3 275.85 276 280.25 269.7 277.1 268.2 276.7 268.8 277.35 272.9 281.7 268.3 285.75 267 286.85 266.4 284.95 266.15 283.95 266.1 283.95 259.6 283.65 264.7 287.2 264.7 287.9 264.7 288.65 264.65 290.05 264.6 290 260.55 286.75 256.8 290.05 259.4 291.05 258.35 293.9 255.8 300.9 249.6 301.55 249.6 301.95 249.4 302.15 245.9 306.15 243.85 311.65 243.45 311.65 243.3 311.8 240.5 314.4 238.1 313.8 237 313.8 236.45 313.25
L 235.9 312.7
Q 231.85 314.65 234.5 317.4 235.55 315.65 235.35 316.55 233.9 323.55 226.55 325.3 226.2 325.3 226.15 325.45 223.35 331.95 220.1 331.05 220.1 330.7 219.95 330.65 214.5 327.8 218.65 334.65 217.5 337.1 215.35 338.05 207.85 341.65 206.45 347.6 205.65 348.95 204.45 347.95 200.05 344.2 199.25 349.05 199.25 349.4 199.3 349.75 201.3 358.55 192.05 359.1 192.05 359.45 191.85 359.7 188.35 363.7 186.3 369.2 185.95 369.2 185.8 369.35 182.65 373.1 177.65 374.95 177.65 375.3 177.55 375.6 175.15 382.35 169.05 382.1 169.05 382.5 168.9 382.55 168.3 382.85 168.25 383.1 165.4 390.7 159.7 395.05 159.35 395.05 158.95 395 155.1 394.1 152.5 401.55 150.55 401.05 150.85 402.1 151.1 402.95 151.25 403.4 152.95 408.35 148.2 403.7 148.2 405.5 148.6 407.2 148.9 408.35 149.2 409.15 151.5 415.4 153.95 413.75 154.3 413.4 154.35 413 154.65 410.9 155.5 409.15 159.2 401.3 158.95 408 161.4 409.15 163.25 406.3 164.6 404.25 166.4 402.55 177.65 391.8 188.25 380.45 202.55 365.3 217.2 350.45 249.15 318.05 281.65 286.1 314.05 254.2 345.95 221.75 Z"/>

<path fill="#41AAF1" stroke="none" d="
M 337.35 197.45
Q 336.25 197.3 336.25 197.45 335.55 202.7 331.55 203.75 331.5 213.2 334.15 207.95 336.3 203.8 338.05 199.45 340.05 197.75 337.35 197.45 Z"/>

<path fill="#81C4F2" stroke="none" d="
M 328.5 180.25
Q 328.7 180.4 328.7 180.75 333.5 187.1 337.85 193.8 338.05 194.05 338.05 194.4 347.75 194.4 357.45 194.4 357.8 194.4 358.2 194.4 358.2 194.05 358.05 193.8 337.25 158.15 293.45 145.5 293.1 145.5 292.75 145.5 291.3 145.5 289.85 145.5 289.5 145.5 289.15 145.45 279.75 143.75 269.7 142.65 269.7 142.25 269.7 141.9 269.7 132.55 269.7 123.2 269.35 123.2 269 123.2 261.8 123.2 254.6 123.2 249.4 124.45 242.4 124.25 221.75 123.55 208.6 124.65 209.65 134.2 209.3 142.65 209.3 143 209.3 143.35 222.65 142 240.9 143 240.95 143 240.95 143.35 242.05 143.35 243.1 143.35 243.45 143.35 243.85 143.35 267.65 142.85 284.7 149.45 284.85 149.45 284.85 149.8 289.55 151.95 294.8 153.75 294.9 153.8 294.9 154.15 310.3 161.4 321.3 173 321.5 173.2 321.5 173.55 324.9 177 328.5 180.25 Z"/>

<path fill="#B4D7EE" stroke="none" d="
M 328.1 180.9
Q 328.35 180.75 328.7 180.75 328.7 180.4 328.5 180.25 324.9 177 321.5 173.55 321.5 173.9 321.3 174.05 311.3 183.1 302.1 192.95 306.6 194.25 312.85 193.75 313.25 193.7 313.6 193.7 320.7 185.35 328.1 180.9 Z"/>

<path fill="#BFE3FB" stroke="none" d="
M 328.7 180.75
Q 328.35 180.75 328.1 180.9 320.7 185.35 313.6 193.7 313.25 193.7 312.85 193.75 306.6 194.25 302.1 192.95 311.3 183.1 321.3 174.05 321.5 173.9 321.5 173.55 321.5 173.2 321.3 173 310.3 161.4 294.9 154.15 294.55 154.15 294.35 154.3 273.45 173.7 253.2 193.7 252.8 193.7 252.45 193.75 246.15 194.25 241.65 192.95 263.8 172.3 284.65 150.35 284.85 150.2 284.85 149.8 284.85 149.45 284.7 149.45 267.65 142.85 243.85 143.35 243.85 143.7 243.65 143.9 218.6 168.45 194.2 193.7 193.85 193.7 193.5 193.75 186.85 194.25 182 192.95 207.75 167.65 231.45 143.9 231.6 143.7 231.6 143.35 231.25 143.35 230.9 143.35 217.45 143.95 207.85 144.8 207.5 144.8 207.2 144.9 161.65 157.55 139.55 193.7 139.55 194.05 139.55 194.4 160.05 194.4 180.55 194.4 180.9 194.4 181.25 194.4 187 194.4 192.75 194.4 193.15 194.4 193.5 194.4 216.85 194.4 240.25 194.4 240.6 194.4 240.95 194.4 246.35 194.4 251.75 194.4 252.1 194.4 252.45 194.4 276.2 194.4 299.95 194.4 300.3 194.4 300.65 194.4 319 194.4 337.35 194.4 337.7 194.4 338.05 194.4 338.05 194.05 337.85 193.8 333.5 187.1 328.7 180.75 Z"/>

<path fill="#2E2E2E" stroke="none" d="
M 325.8 120.35
Q 325.45 120.35 325.4 120.45 321.1 132.55 307.1 134.7
L 307.1 135.1
Q 298.85 135.45 290.6 135.45 290.6 139.75 290.6 144.05 290.6 144.45 290.6 144.8 299.2 144.8 307.85 144.8 308.2 144.8 308.55 144.8 339 139.7 335.1 104.6 334.8 102 333.6 99.9 326.75 87.4 313.6 81.5 313.25 81.5 312.85 81.5 291.3 81.5 269.7 81.5 269.7 101.3 269.7 121.05 269.7 121.4 269.7 121.75 279.45 121.75 289.15 121.75 289.5 121.75 289.85 121.75 289.85 121.4 289.85 121.05 289.85 106.3 289.85 91.55 303.35 90.65 313.5 93.35 313.6 93.35 313.6 93.75 313.95 93.75 314.2 93.9 320.3 97.85 324.4 103.8 324.4 104.15 324.5 104.5 326.35 111.15 325.8 120.35 Z"/>
</g>
</defs>

<g transform="matrix( 1, 0, 0, 1, 0,0) ">
<use xlink:href="#Layer29_0_FILL"/>
</g>

<g transform="matrix( 1, 0, 0, 1, 0,0) ">
<use xlink:href="#Layer22_0_FILL"/>
</g>

<g transform="matrix( 1, 0, 0, 1, 0,0) ">
<use xlink:href="#Layer21_0_FILL"/>
</g>
</svg>
