
<svg xmlns="http://www.w3.org/2000/svg" version="1.1" xmlns:xlink="http://www.w3.org/1999/xlink" preserveAspectRatio="none" x="0px" y="0px" width="500px" height="500px" viewBox="0 0 500 500">
<defs>
<g id="Layer26_0_FILL">
<path fill="#2F4F4F" stroke="none" d="
M 459 138.6
Q 459 96.8 429.2 67.25 399.45 37.8 357.3 37.8
L 133.85 37.8
Q 91.7 37.8 61.9 67.25 32.15 96.8 32.15 138.6
L 32.15 360.1
Q 32.15 401.9 61.9 431.4 91.7 460.95 133.85 460.95
L 357.3 460.95
Q 399.45 460.95 429.2 431.4 459 401.9 459 360.1
L 459 138.6 Z"/>
</g>

<g id="Layer10_0_FILL">
<path fill="#000000" fill-opacity="0.4980392156862745" stroke="none" d="
M 248 244.9
Q 246 245.65 244.1 246.5 238.5 249.1 232.85 251.65 227.15 254.25 221.6 256.85 215.95 259.5 210.3 262.1 204.7 264.7 199 267.25 198.95 267.7 199 268 200.35 274.95 201.85 281.65 206.1 279.7 210.35 277.75 216 275.2 221.6 272.6 227.25 269.95 232.9 267.4 232.9 267.55 232.9 267.65 230.8 273.8 228.8 280 226.8 286.25 224.75 292.4 222.7 298.6 220.65 304.8 218.6 310.95 216.65 317.25
L 216.65 317.3
Q 218.7 321.95 220.9 326.4 224.4 324.85 227.85 323.2 233.5 320.6 239.15 318 244.75 315.4 250.45 312.8 256.05 310.25 261.7 307.7 267.35 305.1 273 302.5 272.9 302 272.8 301.5 271.15 294.95 269.3 288.55 263.95 290.95 258.65 293.45 253.05 296.05 247.4 298.65 241.8 301.25 236.05 303.7 238 297.65 240 291.65 242.05 285.45 244.15 279.25 246.2 273.1 248.25 266.95 250.3 260.75 252.3 254.55 252.3 254.5 252.3 254.45 250.1 249.75 248 244.9
M 202.3 173.55
Q 201.85 176.5 201.4 179.45 200.4 186.65 199.2 193.7 195.9 195.35 192.55 196.95 186.95 199.6 181.45 202.35 184.85 204.25 188.35 206.1 193.75 208.95 199 211.9 199.45 214.75 199.8 217.7 200.7 225.05 201.75 232.2 204.7 229.25 207.6 226.3 211.65 222.1 215.75 217.95 218.7 218.5 221.6 219.1 228.45 220.6 235.2 221.75 233.5 218.1 231.7 214.55 228.95 209.1 226.3 203.55 228.05 199.9 229.95 196.45 232.85 191.1 235.6 185.6 232.9 185.9 230.4 186.3 223.15 187.35 216.1 188.55 213.1 185.4 210.15 182.15 206.25 177.85 202.3 173.55
M 170.8 185.7
Q 170.55 185.7 170.4 185.75 165.4 189 160.75 192.55 156.1 196.15 151.85 200.15 147.6 204.15 143.75 208.5 139.9 212.9 136.5 217.7 133.1 222.5 130.1 227.7 127.1 232.95 124.6 238.7 122.1 244.4 120.15 250.7 118.25 257 116.95 263.95 115.7 270.9 115.15 278.65 115.15 279.75 115.15 280.85
L 115.15 280.9
Q 115.15 282.65 115.15 284.4
L 115.15 287.9
Q 115.15 287.95 115.15 288 115.4 296 116.55 303.05 117.75 310.1 119.6 316.5 121.45 322.85 123.9 328.65 126.35 334.45 129.25 339.75 132.15 345.05 135.55 349.9 138.9 354.75 142.75 359.15 146.55 363.6 150.7 367.65 154.85 371.7 159.45 375.35 164.05 378.95 169.1 382.15 174.15 385.3 179.55 388.1 185.05 390.9 191 393.2 196.9 395.45 203.5 397.15 210 398.85 217.2 399.85 224.45 400.85 232.65 400.9 240.95 400.95 248.25 400.05 255.55 399.15 262.15 397.55 268.8 395.9 274.75 393.7 280.8 391.45 286.3 388.7 291.75 385.95 296.85 382.8 301.9 379.65 306.55 376.05 311.2 372.45 315.4 368.5 319.65 364.5 323.5 360.1 325.2 358.1 326.85 356.1 320.5 357.65 313.35 358.85 306.3 360.05 298.35 360.35 290.15 360.65 282.45 360 274.85 359.35 268.05 357.95 261.2 356.55 254.9 354.6 248.65 352.65 242.85 350.2 237.1 347.75 231.8 344.85 226.45 341.95 221.5 338.65 216.6 335.35 212.1 331.65 207.55 327.95 203.4 323.9 199.2 319.85 195.4 315.4 191.6 311 188.15 306.25 184.65 301.45 181.6 296.3 178.5 291.15 175.9 285.55 173.3 279.95 171.15 273.9 168.95 267.8 167.3 261.25 165.6 254.7 164.6 247.4 163.6 240.25 163.45 232.2 163.45 231.7 163.45 231.2
L 163.4 231.2
Q 163.35 229.3 163.35 227.45 163.4 227.45 163.45 227.45 163.6 219.5 164.5 212.35 165.45 205.05 167.05 198.45 168.65 191.8 170.8 185.7
M 334.5 314.75
Q 332.5 313.8 330.5 312.9 324.75 310.35 319.25 307.65 318.5 304.1 317.8 300.5 317.1 297.1 316.55 293.6 316.4 292.65 316 291.95 314.6 293.55 313.1 295.1 309.05 299.3 305 303.45 303.8 303.35 302.75 303.15 295.65 302 288.45 300.95 289.55 302.9 290.7 304.8 293.8 309.9 296.8 315.1 295.95 316.6 295.15 318.2 292.4 323.6 289.75 329.2 291 329.1 292.2 328.85 299.2 327.55 306.1 326.5 307.85 328.2 309.65 329.85 313.9 333.8 318.15 337.8 318.3 337.35 318.35 336.7 319.05 329.25 319.95 321.9 321.7 321.05 323.45 320.2 329 317.45 334.5 314.75
M 328.7 255.85
Q 328.5 253.75 328.3 251.7 327.55 244.25 326.7 236.9 324.5 237.35 322.5 237.95 316.1 239.75 309.6 241.55 303.15 243.3 296.7 245.1 290.25 246.85 283.75 248.55 284.4 246.7 285.35 244.75 288.05 239.15 290.7 233.55 293.35 228 296 222.4 298.65 216.8 301.25 211.2 303.9 205.6 306.6 200.05 309.3 194.55 311.7 188.75 311.75 188.4 311.7 188.25 309.85 181.8 308.1 175.3 302.4 176.9 296.65 178.5 290.25 180.3 283.7 182.1 277.35 183.85 270.8 185.6 264.35 187.3 257.9 189.1 251.45 190.85 244.95 192.6 245 194.45 245.1 196.25 245.5 204.05 245.95 211.8 246.7 211.7 247.35 211.55 253.8 209.75 260.25 208 266.7 206.2 273.2 204.45 279.6 202.65 286.05 200.85 285.15 203.15 284.15 205.3 281.5 210.95 278.85 216.55 276.25 222.15 273.65 227.75 271 233.4 268.4 238.95 265.75 244.6 263.15 250.15 260.45 255.75 257.9 261.45 257.9 261.5 257.95 261.55 259.65 267.85 261.3 274.2 262.8 273.95 264.15 273.55 270.55 271.75 277.05 269.95 283.45 268.2 290 266.4 296.4 264.65 302.85 262.9 309.35 261.15 315.75 259.4 322.25 257.65 328.7 255.85
M 353.9 263.35
Q 353.85 263.35 353.8 263.35 351.75 263.45 349.95 263.25 349.85 263.25 349.75 263.25 349.55 263.25 349.5 263.2 346.2 258.7 343.15 254.1
L 343.1 254.1
Q 341.4 259.4 339.55 264.55
L 339.55 264.6
Q 334.35 266.2 329.05 267.6 333.35 271 337.7 274.35 337.75 274.4 337.8 274.4 337.7 279.95 337.5 285.45
L 337.5 285.5
Q 342 282.35 346.45 279.2 346.5 279.2 346.55 279.2 351.7 281 356.75 282.95 356.8 282.95 356.85 282.95 355.2 277.7 353.6 272.35
L 353.6 272.3
Q 356.8 267.85 360.2 263.6 360.25 263.6 360.25 263.55
L 360.25 263.5
Q 360 263.5 359.75 263.5 357.75 263.35 355.8 263.35 355.75 263.35 355.7 263.35 354.8 263.35 353.9 263.35
M 328.7 146.65
Q 328.65 147.45 328.55 148.3 327.7 155.6 326.9 163 326.05 170.45 325.25 177.8 324.4 185.2 323.55 192.6
L 323.55 192.65
Q 326.2 196.15 328.9 199.65 330.75 198.2 332.65 196.8 337.3 193.25 341.95 189.65 346.6 186.1 351.3 182.55 355.95 178.95 360.6 175.45 365.3 171.9 369.9 168.25 369.85 168.15 369.8 168.05 367.05 162.6 364.25 157.1 360.45 159.9 356.7 162.75 352.05 166.35 347.4 169.9 342.7 173.45 338.05 177.05 338 176.5 338.1 175.75 339 168.4 339.9 161 340.75 153.7 341.65 146.25 342.5 139 343.2 131.45
L 343.15 131.45
Q 340.5 127.75 337.7 124.2 337.1 124.6 336.5 125.05 331.85 128.6 327.2 132.15 322.55 135.75 317.9 139.3 313.25 142.9 308.55 146.45 303.9 150 299.2 153.5 299.1 153.75 299.15 153.85 301.7 159.6 304.25 165.3 304.3 165.3 304.3 165.25 305.5 164.2 306.9 163.35 306.9 163.3 306.95 163.3 307.6 162.65 308.5 162.15 309.2 161.45 310 160.8 314.65 157.25 319.4 153.8 319.4 153.75 319.45 153.75 320.1 153.1 321 152.6
L 321 152.55
Q 324.8 149.55 328.7 146.65 Z"/>
</g>

<g id="Layer9_0_FILL">
<path fill="#6BFF99" stroke="none" d="
M 278.9 292.4
Q 280 294.35 281.15 296.25 284.25 301.35 287.25 306.55 286.4 308.05 285.6 309.65 282.85 315.05 280.2 320.65 281.45 320.55 282.65 320.3 289.65 319 296.55 317.95 298.3 319.65 300.1 321.3 304.35 325.25 308.6 329.25 308.75 328.8 308.8 328.15 309.5 320.7 310.4 313.35 312.15 312.5 313.9 311.65 319.45 308.9 324.95 306.2 322.95 305.25 320.95 304.35 315.2 301.8 309.7 299.1 308.95 295.55 308.25 291.95 307.55 288.55 307 285.05 306.85 284.1 306.45 283.4 305.05 285 303.55 286.55 299.5 290.75 295.45 294.9 294.25 294.8 293.2 294.6 286.1 293.45 278.9 292.4
M 259.75 280
Q 254.4 282.4 249.1 284.9 243.5 287.5 237.85 290.1 232.25 292.7 226.5 295.15 228.45 289.1 230.45 283.1 232.5 276.9 234.6 270.7 236.65 264.55 238.7 258.4 240.75 252.2 242.75 246 242.75 245.95 242.75 245.9 240.55 241.2 238.45 236.35 236.45 237.1 234.55 237.95 228.95 240.55 223.3 243.1 217.6 245.7 212.05 248.3 206.4 250.95 200.75 253.55 195.15 256.15 189.45 258.7 189.4 259.15 189.45 259.45 190.8 266.4 192.3 273.1 196.55 271.15 200.8 269.2 206.45 266.65 212.05 264.05 217.7 261.4 223.35 258.85 223.35 259 223.35 259.1 221.25 265.25 219.25 271.45 217.25 277.7 215.2 283.85 213.15 290.05 211.1 296.25 209.05 302.4 207.1 308.7
L 207.1 308.75
Q 209.15 313.4 211.35 317.85 214.85 316.3 218.3 314.65 223.95 312.05 229.6 309.45 235.2 306.85 240.9 304.25 246.5 301.7 252.15 299.15 257.8 296.55 263.45 293.95 263.35 293.45 263.25 292.95 261.6 286.4 259.75 280
M 151.2 184
Q 146.55 187.6 142.3 191.6 138.05 195.6 134.2 199.95 130.35 204.35 126.95 209.15 123.55 213.95 120.55 219.15 117.55 224.4 115.05 230.15 112.55 235.85 110.6 242.15 108.7 248.45 107.4 255.4 106.15 262.35 105.6 270.1 105.6 271.2 105.6 272.3
L 105.6 272.35
Q 105.6 274.1 105.55 275.85
L 105.6 279.35
Q 105.59921875 279.4 105.6 279.45 105.85 287.45 107 294.5 108.2 301.55 110.05 307.95 111.9 314.3 114.35 320.1 116.8 325.9 119.7 331.2 122.6 336.5 126 341.35 129.35 346.2 133.2 350.6 137 355.05 141.15 359.1 145.3 363.15 149.9 366.8 154.5 370.4 159.55 373.6 164.6 376.75 170 379.55 175.5 382.35 181.45 384.65 187.35 386.9 193.95 388.6 200.45 390.3 207.65 391.3 214.9 392.3 223.1 392.35 231.4 392.4 238.7 391.5 246 390.6 252.6 389 259.25 387.35 265.2 385.15 271.25 382.9 276.75 380.15 282.2 377.4 287.3 374.25 292.35 371.1 297 367.5 301.65 363.9 305.85 359.95 310.1 355.95 313.95 351.55 315.65 349.55 317.3 347.55 310.95 349.1 303.8 350.3 296.75 351.5 288.8 351.8 280.6 352.1 272.9 351.45 265.3 350.8 258.5 349.4 251.65 348 245.35 346.05 239.1 344.1 233.3 341.65 227.55 339.2 222.25 336.3 216.9 333.4 211.95 330.1 207.05 326.8 202.55 323.1 198 319.4 193.85 315.35 189.65 311.3 185.85 306.85 182.05 302.45 178.6 297.7 175.1 292.9 172.05 287.75 168.95 282.6 166.35 277 163.75 271.4 161.6 265.35 159.4 259.25 157.75 252.7 156.05 246.15 155.05 238.85 154.05 231.7 153.9 223.65 153.9 223.15 153.9 222.65
L 153.85 222.65
Q 153.8 220.75 153.8 218.9 153.85 218.9 153.9 218.9 154.05 210.95 154.95 203.8 155.9 196.5 157.5 189.9 159.1 183.25 161.25 177.15 161 177.15 160.85 177.2 155.85 180.45 151.2 184
M 235.4 184.05
Q 235.45 185.9 235.55 187.7 235.95 195.5 236.4 203.25 237.15 203.15 237.8 203 244.25 201.2 250.7 199.45 257.15 197.65 263.65 195.9 270.05 194.1 276.5 192.3 275.6 194.6 274.6 196.75 271.95 202.4 269.3 208 266.7 213.6 264.1 219.2 261.45 224.85 258.85 230.4 256.2 236.05 253.6 241.6 250.9 247.2 248.35 252.9 248.35 252.95 248.4 253 250.1 259.3 251.75 265.65 253.25 265.4 254.6 265 261 263.2 267.5 261.4 273.9 259.65 280.45 257.85 286.85 256.1 293.3 254.35 299.8 252.6 306.2 250.85 312.7 249.1 319.15 247.3 318.95 245.2 318.75 243.15 318 235.7 317.15 228.35 314.95 228.8 312.95 229.4 306.55 231.2 300.05 233 293.6 234.75 287.15 236.55 280.7 238.3 274.2 240 274.85 238.15 275.8 236.2 278.5 230.6 281.15 225 283.8 219.45 286.45 213.85 289.1 208.25 291.7 202.65 294.35 197.05 297.05 191.5 299.75 186 302.15 180.2 302.2 179.85 302.15 179.7 300.3 173.25 298.55 166.75 292.85 168.35 287.1 169.95 280.7 171.75 274.15 173.55 267.8 175.3 261.25 177.05 254.8 178.75 248.35 180.55 241.9 182.3 235.4 184.05
M 192.75 165
Q 192.3 167.95 191.85 170.9 190.85 178.1 189.65 185.15 186.35 186.8 183 188.4 177.4 191.05 171.9 193.8 175.3 195.7 178.8 197.55 184.2 200.4 189.45 203.35 189.9 206.2 190.25 209.15 191.15 216.5 192.2 223.65 195.15 220.7 198.05 217.75 202.1 213.55 206.2 209.4 209.15 209.95 212.05 210.55 218.9 212.05 225.65 213.2 223.95 209.55 222.15 206 219.4 200.55 216.75 195 218.5 191.35 220.4 187.9 223.3 182.55 226.05 177.05 223.35 177.35 220.85 177.75 213.6 178.8 206.55 180 203.55 176.85 200.6 173.6 196.7 169.3 192.75 165
M 333.6 245.55
L 333.55 245.55
Q 331.85 250.85 330 256
L 330 256.05
Q 324.8 257.65 319.5 259.05 323.8 262.45 328.15 265.8 328.2 265.85 328.25 265.85 328.15 271.4 327.95 276.9
L 327.95 276.95
Q 332.45 273.8 336.9 270.65 336.95 270.65 337 270.65 342.15 272.45 347.2 274.4 347.25 274.4 347.3 274.4 345.65 269.15 344.05 263.8
L 344.05 263.75
Q 347.25 259.3 350.65 255.05 350.7 255.05 350.7 255
L 350.7 254.95
Q 350.4478515625 254.9552734375 350.2 254.95 348.2234375 254.8 346.25 254.8 346.2 254.8 346.15 254.8 345.25 254.8 344.35 254.8 344.3 254.8 344.25 254.8 342.2 254.9 340.4 254.7 340.3 254.7 340.2 254.7 340 254.7 339.95 254.65 336.65 250.15 333.6 245.55
M 328.15 115.65
Q 327.55 116.05 326.95 116.5 322.3 120.05 317.65 123.6 313 127.2 308.35 130.75 303.7 134.35 299 137.9 294.35 141.45 289.65 144.95 289.55 145.2 289.6 145.3 292.15 151.05 294.7 156.75 294.75 156.75 294.75 156.7 295.95 155.65 297.35 154.8 297.35 154.75 297.4 154.75 298.05 154.1 298.95 153.6 299.65 152.9 300.45 152.25 305.1 148.7 309.85 145.25 309.85 145.2 309.9 145.2 310.55 144.55 311.45 144.05
L 311.45 144
Q 315.25 141 319.15 138.1 319.1 138.9 319 139.75 318.15 147.05 317.35 154.45 316.5 161.9 315.7 169.25 314.85 176.65 314 184.05
L 314 184.1
Q 316.65 187.6 319.35 191.1 321.2 189.65 323.1 188.25 327.75 184.7 332.4 181.1 337.05 177.55 341.75 174 346.4 170.4 351.05 166.9 355.75 163.35 360.35 159.7 360.3 159.6 360.25 159.5 357.5 154.05 354.7 148.55 350.9 151.35 347.15 154.2 342.5 157.8 337.85 161.35 333.15 164.9 328.5 168.5 328.45 167.95 328.55 167.2 329.45 159.85 330.35 152.45 331.2 145.15 332.1 137.7 332.95 130.45 333.65 122.9
L 333.6 122.9
Q 330.95 119.2 328.15 115.65 Z"/>
</g>
</defs>

<g transform="matrix( 1, 0, 0, 1, 0,0) ">
<use xlink:href="#Layer26_0_FILL"/>
</g>

<g transform="matrix( 1, 0, 0, 1, 0,0) ">
<use xlink:href="#Layer10_0_FILL"/>
</g>

<g transform="matrix( 1, 0, 0, 1, 0,0) ">
<use xlink:href="#Layer9_0_FILL"/>
</g>
</svg>
