
<svg xmlns="http://www.w3.org/2000/svg" version="1.1" xmlns:xlink="http://www.w3.org/1999/xlink" preserveAspectRatio="none" x="0px" y="0px" width="500px" height="500px" viewBox="0 0 500 500">
<defs>
<g id="Layer25_0_FILL">
<path fill="#9370D8" stroke="none" d="
M 459 138.6
Q 459 96.8 429.2 67.25 399.45 37.8 357.3 37.8
L 133.85 37.8
Q 91.7 37.8 61.9 67.25 32.15 96.8 32.15 138.6
L 32.15 360.1
Q 32.15 401.9 61.9 431.4 91.7 460.95 133.85 460.95
L 357.3 460.95
Q 399.45 460.95 429.2 431.4 459 401.9 459 360.1
L 459 138.6 Z"/>
</g>

<g id="Layer1_0_FILL">
<path fill="#333333" fill-opacity="0.4980392156862745" stroke="none" d="
M 134.8 130.95
Q 134.8 130.75 134.85 130.75 139.85 129.25 141.35 124.4 141.35 124.2 141.35 124.05 141.35 122.55 141.35 121.1 141.2 121.1 141.15 121.05 139.65 117.2 135.9 115.65 129.25 115.95 123.8 116.8 106 119.6 100.2 133.85 100.2 134.05 100.2 134.2 100.2 138.4 100.2 142.6 104.7 154.15 120.25 153.95 126.45 153.9 130.05 155.7 130.7 155.8 130.1 156.55 125.75 162.3 120.6 167.35 118.15 169.8 117.45 173.65 114.7 188.95 127.15 193.2 138.3 193.6 145.6 190.05 149.7 188.1 153 190.3 153 197.6 147 200.45 141.2 203.2 141 211.4 141.2 211.4 141.2 211.45 142.6 215.8 146.8 217.25 147 217.25 147.2 217.2 150.45 217.05 153 216.15 153.2 216.15 153.3 216.05 163.1 209.15 168.3 197.55 169.4 181.7 159.65 176.65 153 173.15 145 175.7 138.45 177.75 131.9 177.9 137.4 172.15 142.55 166.05 144.3 163.95 144.75 161.05 146.65 148.4 138.5 143.25 131.1 138.5 118.05 139.3 118.05 139.15 118 139.15 115.8 138.65 114.8 137.15 114.8 136.95 114.85 136.9 122.25 131.3 134.8 130.95
M 258.2 138.95
Q 258.2 139.15 258.15 139.15 248.7 141.8 246.55 151.7 246.55 152.8 246.6 153.9 246.95 161.15 250.85 164.9 255.55 169.45 264.05 168.35 269.1 167.65 272.1 164.85 276.15 161.1 275.8 153.55 275.15 138.45 258.2 138.95
M 171.95 128.75
Q 171.85 139.4 178.25 143.5 180.5 144.95 183.3 145.35 197.65 147.35 200.55 135.9 203.15 125.9 197.15 120.3 193.95 117.3 188.3 117.25 174.55 117.15 171.95 128.75
M 349.6 379.95
Q 353.8 381.6 356.9 384.3 360.05 387 364 388.55 374.35 392.6 381.5 386.35 388.5 380.15 386.05 367.95 384.8 361.55 386.75 357.05 387.1 356.85 387.2 356.95 394.95 363.55 397.3 375.6 397.45 375.6 397.5 375.65 399.35 378.8 403.1 379.95 403.3 379.95 403.5 379.95 404.95 379.95 406.4 379.95 406.4 379.8 406.45 379.75 410.35 378.25 411.5 374.15 410.9 367.3 408.6 362.1 406.35 356.9 403.9 352.1 398.75 342.1 384.55 341.35 372.65 344.75 371.4 358.5 370.95 363.7 372.25 367.8 373.7 372.1 371.45 375.25 371.25 375.4 371.15 375.35 364.95 372.8 360.05 368.8 356.9 366.25 352.1 365.95 338.25 365 334.65 376.7 334.6 385.3 337.85 390.7 341.25 396.35 341.6 403.25 339.95 404.1 338.35 403.2 330.4 398.95 323.75 393.45 323.55 393.45 323.4 393.45 321.1 393.35 319.4 393.8 319.4 394 319.3 394 316.7 395.5 315.4 398.15 315.4 398.35 315.4 398.55 315.4 400.55 315.4 402.55 315.55 402.55 315.6 402.6 324.9 415.4 347.8 414.55 347.8 414.35 347.85 414.35 354.55 411.15 357.25 404 357.25 401.8 356.8 399.7 354.5 388.7 349.6 379.95
M 380.55 321.7
Q 381.4 309.75 374.55 305.4 372.25 303.95 369.2 303.75 354.1 302.7 351.05 314.45 350.35 324.25 355.05 328.65 357.95 331.4 362.75 331.9 377.05 333.3 380.55 321.7
M 388.9 281.3
Q 388.9 281.1 388.95 281.1 391.45 280.35 392.9 278.75 392.9 278.55 393 278.4 393.45 277.3 394 276.2 394 276 394 275.85 394 273.85 394 271.85 393.85 271.85 393.8 271.8 392.8 268.15 389.3 267.1 374.05 267.15 359.45 268.05 328.7 269.85 300.45 274.4 300.45 274.2 300.35 274.1 286.8 257.5 271.35 242.7 279.2 230.2 286.3 217.05 292.1 206.35 296.95 194.5 306.4 171.45 306.3 138.6 306.1 138.6 306.05 138.55 305.5 137 304.8 135.7 304.65 135.7 304.55 135.6 303.35 134.25 301.55 133.5 301.35 133.5 301.2 133.5 299.55 133.5 297.9 133.5 297.9 133.7 297.85 133.7 294.55 134.9 292.8 137.5 291.95 140.45 291.85 144.4 291.4 170.7 283.8 189.75 274.4 213.4 260.75 232.5 260.6 232.5 260.5 232.45 254.15 225.9 246.2 220.85 246.6 216.9 247.1 213.2 248.8 200.05 245.5 189.65 237.65 164.95 212.7 157.15 212.55 157.15 212.35 157.15 204.2 156.8 202.9 163.35 202.9 164.6 202.9 165.9 202.9 166.1 202.9 166.25 205.6 171.75 211.9 173.8 234.95 181.15 233.1 211.75 232.9 211.75 232.75 211.75 232.55 211.75 232.45 211.7 220.25 203.15 204.35 198.3 203.05 197.6 201.45 197.2 189.2 194.1 180.7 199.4 180.7 199.55 180.7 199.75 180.5 199.75 180.45 199.85 177.9 203.15 175.6 206.65 175.6 206.85 175.6 207.05 166.5 224.9 158.95 244.2 149.75 267.85 141 291.85 140.8 291.85 140.8 291.9 138.5 299 135.9 305.7 135.9 306.25 135.9 306.8 135.9 306.95 135.9 307.15 135.7 307.15 135.7 307.2 133.8 313.65 131.55 319.55 131.55 320.1 131.55 320.6 131.55 320.8 131.55 321 131.35 321 131.35 321.05 129.75 326.65 127.9 331.9 127.9 332.45 127.9 333 127.9 333.2 127.9 333.35 127.7 333.35 127.7 333.4 125.95 340 123.9 346.1 123.9 346.85 123.9 347.55 123.9 347.75 123.9 347.95
L 123.7 347.95
Q 122.25 353.95 120.6 359.6 120.6 360.3 120.6 361.05 120.6 361.2 120.6 361.4 120.45 361.4 120.4 361.45 119.3 366.65 118.05 371.6 118.05 372.7 118.05 373.75 118.05 373.95 118.05 374.15 117.9 374.15 117.85 374.15 117.1 378.25 116.25 382.15 116.25 383.8 116.25 385.4 116.25 385.6 116.25 385.8 116.25 385.95 116.25 386.15 116.5 387.3 115.85 387.6 115.4 396.1 116.55 402.9 116.6 403.1 116.6 403.25 117.75 408.7 122.8 410.15 122.95 410.2 123.15 410.2 133.3 412.85 145.35 410.85 173.4 406.15 198.25 398.55 223.55 390.8 247.6 382.05 271.6 373.3 294.7 363.75 309.7 357.55 323 349.75 327.6 347.6 329.5 343 331.7 337.75 330.2 331.3 324.5 306.2 311.35 288.2 319 286.4 327.7 285.2 356.25 281.4 388.9 281.3
M 413.6 246.65
Q 417.7 242.95 417.55 235.45 417.4 227.9 412.95 224.1 409.65 221.25 403.85 221.45 390.7 221.9 388.2 233.6 388.2 245.25 396.25 248.75 406.35 253.1 413.6 246.65
M 347.8 124.05
Q 347.8 124.2 347.75 124.2 338.55 126.8 336.15 136.05 335.85 151.05 348.25 152.95 358.6 154.55 363.25 147.8 365.65 144.25 365.35 138.6 364.55 123.6 347.8 124.05
M 380.9 133.85
Q 387.75 140.15 395.75 145.3 403.75 150.55 406.75 160.8 405.5 163.55 402.45 164.6 402.4 164.6 402.4 164.8 393.3 163.7 386.8 160.2 381.35 157.3 373.65 157.2 369.85 157.2 366.8 158.4 355.15 163.1 355.2 179 355.25 185.75 357.85 190.35 361.35 196.6 361.85 205.25 361.9 206.05 361.25 206.65 360.7 207.2 360.5 208.15 359.05 208.3 358.3 207.85 358.15 207.75 357.95 207.75 346.75 196.6 331.35 189.65 331.2 189.55 331.05 189.55 331.05 189.4 331 189.35 329.45 188.95 327.75 188.85 327.6 188.85 327.4 188.85 309.5 190.75 306.3 207.4 306.25 208.65 306.3 209.95 306.3 210.15 306.3 210.3 306.1 210.3 305.9 210.3 305.9 213.95 306.1 217.6
L 306.3 217.6
Q 308.35 233.15 317.45 241.75 318.2 242.45 319 243.1 321.75 243.1 324.5 243.1 324.65 243.1 324.85 243.1 327.45 241.45 328.65 238.4 328.65 238.35 328.85 238.35 328.1 230.35 324.9 225 321.55 219.4 321.95 210.3 323.35 206.3 327.05 204.55 327.2 204.5 327.4 204.5 333.75 206.3 337.45 210.8 345.3 220.25 359.2 223.2 363.6 224.15 366.25 222.8 377.55 217.15 376.4 201.6 375.85 194.4 373 189.15 370.15 183.95 369.25 176.8 370.5 174.25 372.6 172.55 372.7 172.45 372.9 172.45 379.85 172.4 385.25 175.5 390.65 178.55 397.35 179.8 405.4 181.3 410.95 178.3 422.1 172.3 420.15 155.75 419.8 152.5 418.25 150 408.05 133.5 390.75 124.05 380.15 123.1 380.9 133.5 380.9 133.7 380.9 133.85 Z"/>
</g>

<g id="Layer0_0_FILL">
<path fill="#5DA0DD" fill-opacity="0.9921568627450981" stroke="none" d="
M 126.2 122.55
Q 126.2 122.35 126.25 122.35 131.25 120.85 132.75 116 132.75 115.8 132.75 115.65 132.75 114.15 132.75 112.7 132.6 112.7 132.55 112.65 131.05 108.8 127.3 107.25 120.65 107.55 115.2 108.4 97.4 111.2 91.6 125.45 91.6 125.65 91.6 125.8 91.6 130 91.6 134.2 96.1 145.75 111.65 145.55 117.85 145.5 121.45 147.3 122.1 147.4 121.5 148.15 117.15 153.9 112 158.95 109.55 161.4 108.85 165.25 106.1 180.55 118.55 184.8 129.7 185.2 137 181.65 141.1 179.7 144.4 181.9 144.4 189.2 138.4 192.05 132.6 194.8 132.4 203 132.6 203 132.6 203.05 134 207.4 138.2 208.85 138.4 208.85 138.6 208.8 141.85 208.65 144.4 207.75 144.6 207.75 144.7 207.65 154.5 200.75 159.7 189.15 160.8 173.3 151.05 168.25 144.4 164.75 136.4 167.3 129.85 169.35 123.3 169.5 128.8 163.75 133.95 157.65 135.7 155.55 136.15 152.65 138.05 140 129.9 134.85 122.5 130.1 109.45 130.9 109.45 130.75 109.4 130.75 107.2 130.25 106.2 128.75 106.2 128.55 106.25 128.5 113.65 122.9 126.2 122.55 Z"/>

<path fill="#F9C156" fill-opacity="0.9921568627450981" stroke="none" d="
M 163.35 120.35
Q 163.25 131 169.65 135.1 171.9 136.55 174.7 136.95 189.05 138.95 191.95 127.5 194.55 117.5 188.55 111.9 185.35 108.9 179.7 108.85 165.95 108.75 163.35 120.35
M 405 238.25
Q 409.1 234.55 408.95 227.05 408.8 219.5 404.35 215.7 401.05 212.85 395.25 213.05 382.1 213.5 379.6 225.2 379.6 236.85 387.65 240.35 397.75 244.7 405 238.25 Z"/>

<path fill="#5DA0DD" fill-opacity="0.9882352941176471" stroke="none" d="
M 237.95 143.3
Q 237.95 144.4 238 145.5 238.35 152.75 242.25 156.5 246.95 161.05 255.45 159.95 260.5 159.25 263.5 156.45 267.55 152.7 267.2 145.15 266.55 130.05 249.6 130.55 249.6 130.75 249.55 130.75 240.1 133.4 237.95 143.3
M 395.3 343.7
Q 390.15 333.7 375.95 332.95 364.05 336.35 362.8 350.1 362.35 355.3 363.65 359.4 365.1 363.7 362.85 366.85 362.65 367 362.55 366.95 356.35 364.4 351.45 360.4 348.3 357.85 343.5 357.55 329.65 356.6 326.05 368.3 326 376.9 329.25 382.3 332.65 387.95 333 394.85 331.35 395.7 329.75 394.8 321.8 390.55 315.15 385.05 314.95 385.05 314.8 385.05 312.5 384.95 310.8 385.4 310.8 385.6 310.7 385.6 308.1 387.1 306.8 389.75 306.8 389.95 306.8 390.15 306.8 392.15 306.8 394.15 306.95 394.15 307 394.2 316.3 407 339.2 406.15 339.2 405.95 339.25 405.95 345.95 402.75 348.65 395.6 348.65 393.4 348.2 391.3 345.9 380.3 341 371.55 345.2 373.2 348.3 375.9 351.45 378.6 355.4 380.15 365.75 384.2 372.9 377.95 379.9 371.75 377.45 359.55 376.2 353.15 378.15 348.65 378.5 348.45 378.6 348.55 386.35 355.15 388.7 367.2 388.85 367.2 388.9 367.25 390.75 370.4 394.5 371.55 394.7 371.55 394.9 371.55 396.35 371.55 397.8 371.55 397.8 371.4 397.85 371.35 401.75 369.85 402.9 365.75 402.3 358.9 400 353.7 397.75 348.5 395.3 343.7 Z"/>

<path fill="#5EA1DD" fill-opacity="0.9921568627450981" stroke="none" d="
M 371.95 313.3
Q 372.8 301.35 365.95 297 363.65 295.55 360.6 295.35 345.5 294.3 342.45 306.05 341.75 315.85 346.45 320.25 349.35 323 354.15 323.5 368.45 324.9 371.95 313.3
M 297.7 130.2
Q 297.5 130.2 297.45 130.15 296.9 128.6 296.2 127.3 296.05 127.3 295.95 127.2 294.75 125.85 292.95 125.1 292.75 125.1 292.6 125.1 290.95 125.1 289.3 125.1 289.3 125.3 289.25 125.3 285.95 126.5 284.2 129.1 283.35 132.05 283.25 136 282.8 162.3 275.2 181.35 265.8 205 252.15 224.1 251.1 226 249.9 227.7 236.45 247 219.75 263.05 219.75 263.25 219.75 263.45 223.05 269.95 227.7 275.15 227.8 275.25 227.8 275.45 227.95 275.45 228.15 275.45 228.15 275.25 228.15 275.1 244.75 258.95 258.5 239.9 260.55 237.05 262.75 234.3 270.6 221.8 277.7 208.65 283.5 197.95 288.35 186.1 297.8 163.05 297.7 130.2 Z"/>

<path fill="#AB7A2E" stroke="none" d="
M 285.65 337.35
Q 285.65 337.15 285.6 337.15 273.4 331.55 262.75 324.6 272.75 332.2 285.35 337.3 285.5 337.35 285.65 337.35 Z"/>

<path fill="#C5790E" stroke="none" d="
M 227.4 295.45
Q 227.4 295.65 227.4 295.85 243.35 311.4 262.3 324 262.35 324.05 262.35 324.25 262.55 324.25 262.65 324.35 262.75 324.4 262.75 324.6 273.4 331.55 285.6 337.15 285.65 337.15 285.65 337.35 290.3 338.9 294.8 340.55 294.95 340.6 295.15 340.6 284.4 333.15 274.6 324.8 256.85 309.7 241.6 292.2 241.45 292.2 241.25 292.2 241.05 292.2 240.9 292.25 234.3 294 227.4 295.45 Z"/>

<path fill="#CD9237" stroke="none" d="
M 227.4 295.85
Q 227.25 295.85 227.05 295.85 226.85 295.85 226.7 295.85 242.7 311.5 261.7 324.15 261.8 324.25 262 324.25 262.2 324.25 262.35 324.25 262.35 324.05 262.3 324 243.35 311.4 227.4 295.85 Z"/>

<path fill="#EE5D44" stroke="none" d="
M 214.65 283.8
Q 214.5 283.8 214.3 283.8 219.85 290.45 226.3 296
L 226.3 295.85
Q 226.3 295.65 226.25 295.6 221.15 291 216.85 285.65 216.85 285.45 216.75 285.35 215.95 284.55 215.05 283.8 214.85 283.8 214.65 283.8 Z"/>

<path fill="#C24137" stroke="none" d="
M 221.25 282
Q 221.05 282 220.95 282.1 219.2 284.15 216.85 285.65 221.15 291 226.25 295.6 226.3 295.65 226.3 295.85 226.5 295.85 226.7 295.85 226.85 295.85 227.05 295.85 227.25 295.85 227.4 295.85 227.4 295.65 227.4 295.45 234.3 294 240.9 292.25 241.05 292.2 241.25 292.2 241.25 292 241.15 291.9 235.85 285.95 231.05 279.45 230.85 279.45 230.7 279.45 230.5 279.45 230.35 279.5 226 280.95 221.25 282 Z"/>

<path fill="#C47811" stroke="none" d="
M 221.25 281.65
Q 221.25 281.8 221.25 282 226 280.95 230.35 279.5 230.5 279.45 230.7 279.45 230.7 279.25 230.6 279.2 229.1 277.6 228.15 275.45 227.95 275.45 227.8 275.45 227.8 275.65 227.7 275.75 224.7 278.95 221.25 281.65 Z"/>

<path fill="#4D81B0" stroke="none" d="
M 212.1 270.7
Q 212.1 270.9 212.05 271 210.15 273.3 208.5 275.8 208.75 277.2 209.85 277.8 209.95 277.8 209.95 278 212.25 280.95 214.95 283.55 215.05 283.65 215.05 283.8 215.95 284.55 216.75 285.35 216.85 285.45 216.85 285.65 219.2 284.15 220.95 282.1 221.05 282 221.25 282 221.25 281.8 221.25 281.65 224.7 278.95 227.7 275.75 227.8 275.65 227.8 275.45 227.8 275.25 227.7 275.15 223.05 269.95 219.75 263.45 219.6 263.45 219.4 263.45 219.4 263.6 219.3 263.7 215.75 267.25 212.1 270.7 Z"/>

<path fill="#C57812" stroke="none" d="
M 212.1 270
Q 212.1 270.15 212.1 270.35 212.1 270.55 212.1 270.7 215.75 267.25 219.3 263.7 219.4 263.6 219.4 263.45 219.2 263.45 219.15 263.35 218.45 262.25 217.95 260.9 217.75 260.9 217.75 260.95 215.3 265.9 212.1 270 Z"/>

<path fill="#DF8910" stroke="none" d="
M 224.1 206.25
Q 224.15 206.1 224.15 205.9 224.05 205.1 223.1 205 203.85 202.2 201.95 218.3 202.65 234.9 209.15 245.65 209.2 245.8 209.2 245.95 219.5 228.95 224.1 206.25
M 302.75 279.8
Q 299.6 279.6 295.8 280.25 267.85 285.3 241.6 291.85 241.6 292 241.6 292.2 256.85 309.7 274.6 324.8 284.4 333.15 295.15 340.6 304.35 343.7 314.05 341.4 314.25 341.35 314.4 341.35 319 339.2 320.9 334.6 323.1 329.35 321.6 322.9 315.9 297.8 302.75 279.8
M 262.75 234.3
Q 260.55 237.05 258.5 239.9 244.75 258.95 228.15 275.1 228.15 275.25 228.15 275.45 229.1 277.6 230.6 279.2 230.7 279.25 230.7 279.45 230.85 279.45 231.05 279.45 256.65 272.3 284.55 267.3 288.15 266.65 291.85 266 291.85 265.8 291.75 265.7 278.2 249.1 262.75 234.3
M 252.15 224.1
Q 252 224.1 251.9 224.05 245.55 217.5 237.6 212.45 237 212.95 236.7 214.15 230.35 240.15 217.95 260.55 217.95 260.7 217.95 260.9 218.45 262.25 219.15 263.35 219.2 263.45 219.4 263.45 219.6 263.45 219.75 263.45 219.75 263.25 219.75 263.05 236.45 247 249.9 227.7 251.1 226 252.15 224.1 Z"/>

<path fill="#D78610" fill-opacity="0.9137254901960784" stroke="none" d="
M 224.15 203.35
Q 223.95 203.35 223.85 203.3 211.65 194.75 195.75 189.9 210.9 195.85 224.15 203.55
L 224.15 203.35 Z"/>

<path fill="#CA923A" fill-opacity="0.996078431372549" stroke="none" d="
M 119.65 390.5
Q 119.65 390.7 119.6 390.85 117.4 396.6 114.55 401.8 124.7 404.45 136.75 402.45 164.8 397.75 189.65 390.15 214.95 382.4 239 373.65 263 364.9 286.1 355.35 301.1 349.15 314.4 341.35 314.25 341.35 314.05 341.4 304.35 343.7 295.15 340.6 294.95 340.6 294.8 340.55 290.3 338.9 285.65 337.35 285.5 337.35 285.35 337.3 272.75 332.2 262.75 324.6 262.75 324.4 262.65 324.35 262.55 324.25 262.35 324.25 262.2 324.25 262 324.25
L 262.2 324.4
Q 259.2 327.05 255.4 328.9 233.45 339.7 211.2 350 188.65 360.45 166.1 370.45 143.25 380.6 120 390.15 120 390.3 119.95 390.4 119.85 390.5 119.65 390.5 Z"/>

<path fill="#D3A760" fill-opacity="0.9882352941176471" stroke="none" d="
M 119.6 390.85
Q 119.65 390.7 119.65 390.5 119.45 390.5 119.3 390.55 113.5 393.45 108 394.85 109.15 400.3 114.2 401.75 114.35 401.8 114.55 401.8 117.4 396.6 119.6 390.85 Z"/>

<path fill="#554937" fill-opacity="0.33725490196078434" stroke="none" d="
M 109.45 365.75
Q 109.3 365.75 109.25 365.75 108.5 369.85 107.65 373.75 107.65 375.4 107.65 377 107.65 377.2 107.65 377.4 108.65 371.85 109.45 366.1 109.45 365.9 109.45 365.75 Z"/>

<path fill="#64553E" fill-opacity="0.396078431372549" stroke="none" d="
M 112 353.35
Q 112 353.2 112 353 111.85 353 111.8 353.05 110.7 358.25 109.45 363.2 109.45 364.3 109.45 365.35 109.45 365.55 109.45 365.75 110.9 359.7 112 353.35 Z"/>

<path fill="#5F523E" fill-opacity="0.3764705882352941" stroke="none" d="
M 115.3 339.55
L 115.1 339.55
Q 113.65 345.55 112 351.2 112 351.9 112 352.65 112 352.8 112 353 113.85 346.65 115.25 339.9 115.3 339.7 115.3 339.55 Z"/>

<path fill="#5E523D" fill-opacity="0.37254901960784315" stroke="none" d="
M 119.25 325.3
Q 119.3 325.15 119.3 324.95 119.1 324.95 119.1 325 117.35 331.6 115.3 337.7 115.3 338.45 115.3 339.15 115.3 339.35 115.3 339.55 117.5 332.65 119.25 325.3 Z"/>

<path fill="#FDB849" stroke="none" d="
M 160.3 298.5
Q 149.9 321 140 343.7 130 366.6 120 389.4 120 389.6 120 389.75 120 389.95 120 390.15 143.25 380.6 166.1 370.45 188.65 360.45 211.2 350 233.45 339.7 255.4 328.9 259.2 327.05 262.2 324.4
L 262 324.25
Q 261.8 324.25 261.7 324.15 242.7 311.5 226.7 295.85 226.5 295.85 226.3 295.85
L 226.3 296
Q 219.85 290.45 214.3 283.8 214.5 283.8 214.65 283.8 214.85 283.8 215.05 283.8 215.05 283.65 214.95 283.55 212.25 280.95 209.95 278 209.75 278 209.65 277.9 203.75 272 198.65 265.25 198.45 265.25 198.4 265.15 192 257.2 186.3 248.5 186.1 248.5 186.05 248.45 185.75 247.8 185.2 247.4 183.6 251.1 181.85 254.5 170.6 276.2 160.3 298.5 Z"/>

<path fill="#574C3A" fill-opacity="0.34509803921568627" stroke="none" d="
M 122.95 312.6
Q 122.75 312.6 122.75 312.65 121.15 318.25 119.3 323.5 119.3 324.05 119.3 324.6 119.3 324.8 119.3 324.95 121.35 319.2 122.9 312.95 122.95 312.75 122.95 312.6 Z"/>

<path fill="#554A39" fill-opacity="0.33725490196078434" stroke="none" d="
M 127.3 298.75
Q 127.1 298.75 127.1 298.8 125.2 305.25 122.95 311.15 122.95 311.7 122.95 312.2 122.95 312.4 122.95 312.6 125.4 306.15 127.25 299.1 127.3 298.95 127.3 298.75 Z"/>

<path fill="#FDC56D" fill-opacity="0.996078431372549" stroke="none" d="
M 132.4 283.45
Q 132.4 283.65 132.35 283.8 130.1 291.5 127.3 298.75 127.3 298.95 127.25 299.1 125.4 306.15 122.95 312.6 122.95 312.75 122.9 312.95 121.35 319.2 119.3 324.95 119.3 325.15 119.25 325.3 117.5 332.65 115.3 339.55 115.3 339.7 115.25 339.9 113.85 346.65 112 353 112 353.2 112 353.35 110.9 359.7 109.45 365.75 109.45 365.9 109.45 366.1 108.65 371.85 107.65 377.4 107.65 377.55 107.65 377.75 107.9 378.9 107.25 379.2 106.8 387.7 107.95 394.5 108 394.7 108 394.85 113.5 393.45 119.3 390.55 119.45 390.5 119.65 390.5 119.85 390.5 119.95 390.4 120 390.3 120 390.15 120 389.95 120 389.75 120 389.6 120 389.4 130 366.6 140 343.7 149.9 321 160.3 298.5 170.6 276.2 181.85 254.5 183.6 251.1 185.2 247.4 178.3 236.85 172.45 225 166.95 213.8 167 198.65 157.9 216.5 150.35 235.8 141.15 259.45 132.4 283.45 Z"/>

<path fill="#40392F" fill-opacity="0.2549019607843137" stroke="none" d="
M 132.4 283.45
Q 132.2 283.45 132.2 283.5 129.9 290.6 127.3 297.3 127.3 297.85 127.3 298.4 127.3 298.55 127.3 298.75 130.1 291.5 132.35 283.8 132.4 283.65 132.4 283.45 Z"/>

<path fill="#C5790E" fill-opacity="0.996078431372549" stroke="none" d="
M 172.1 191.35
Q 172.1 191.55 172 191.65 169.15 195.35 168.45 201.2 169.75 220.25 177.6 232.8 182.65 240.85 186.3 248.5 192 257.2 198.4 265.15 198.45 265.25 198.65 265.25 198.65 265.1 198.65 264.9 198.65 264.55 198.65 264.15 204.4 255.7 209.15 246.3 209.2 246.15 209.2 245.95 209.2 245.8 209.15 245.65 202.65 234.9 201.95 218.3 203.85 202.2 223.1 205 224.05 205.1 224.15 205.9 224.75 205.25 224.55 203.75 224.5 203.55 224.5 203.35 224.3 203.35 224.15 203.35
L 224.15 203.55
Q 210.9 195.85 195.75 189.9 194.45 189.2 192.85 188.8 180.6 185.7 172.1 191 172.1 191.15 172.1 191.35 Z"/>

<path fill="#CB9D56" fill-opacity="0.9921568627450981" stroke="none" d="
M 172.1 191.35
Q 171.9 191.35 171.85 191.45 169.3 194.75 167 198.25 167 198.45 167 198.65 166.95 213.8 172.45 225 178.3 236.85 185.2 247.4 185.75 247.8 186.05 248.45 186.1 248.5 186.3 248.5 182.65 240.85 177.6 232.8 169.75 220.25 168.45 201.2 169.15 195.35 172 191.65 172.1 191.55 172.1 191.35 Z"/>

<path fill="#F15044" fill-opacity="0.996078431372549" stroke="none" d="
M 194.3 154.95
Q 194.3 156.2 194.3 157.5 194.3 157.7 194.3 157.85 197 163.35 203.3 165.4 226.35 172.75 224.5 203.35 224.5 203.55 224.55 203.75 224.75 205.25 224.15 205.9 224.15 206.1 224.1 206.25 219.5 228.95 209.2 245.95 209.2 246.15 209.15 246.3 204.4 255.7 198.65 264.15 198.65 264.55 198.65 264.9 198.65 265.1 198.65 265.25 203.75 272 209.65 277.9 209.75 278 209.95 278 209.95 277.8 209.85 277.8 208.75 277.2 208.5 275.8 210.15 273.3 212.05 271 212.1 270.9 212.1 270.7 212.1 270.55 212.1 270.35 212.1 270.15 212.1 270 215.3 265.9 217.75 260.95 217.75 260.9 217.95 260.9 217.95 260.7 217.95 260.55 230.35 240.15 236.7 214.15 237 212.95 237.6 212.45 238 208.5 238.5 204.8 240.2 191.65 236.9 181.25 229.05 156.55 204.1 148.75 203.95 148.75 203.75 148.75 195.6 148.4 194.3 154.95 Z"/>

<path fill="#F15044" fill-opacity="0.9921568627450981" stroke="none" d="
M 380.3 272.9
Q 380.3 272.7 380.35 272.7 382.85 271.95 384.3 270.35 384.3 270.15 384.4 270 384.85 268.9 385.4 267.8 385.4 267.6 385.4 267.45 385.4 265.45 385.4 263.45 385.25 263.45 385.2 263.4 384.2 259.75 380.7 258.7 365.45 258.75 350.85 259.65 320.1 261.45 291.85 266 288.15 266.65 284.55 267.3 256.65 272.3 231.05 279.45 235.85 285.95 241.15 291.9 241.25 292 241.25 292.2 241.45 292.2 241.6 292.2 241.6 292 241.6 291.85 267.85 285.3 295.8 280.25 299.6 279.6 302.75 279.8 310.4 278 319.1 276.8 347.65 273 380.3 272.9
M 372.3 125.45
Q 379.15 131.75 387.15 136.9 395.15 142.15 398.15 152.4 396.9 155.15 393.85 156.2 393.8 156.2 393.8 156.4 384.7 155.3 378.2 151.8 372.75 148.9 365.05 148.8 361.25 148.8 358.2 150 346.55 154.7 346.6 170.6 346.65 177.35 349.25 181.95 352.75 188.2 353.25 196.85 353.3 197.65 352.65 198.25 352.1 198.8 351.9 199.75 350.45 199.9 349.7 199.45 349.55 199.35 349.35 199.35 338.15 188.2 322.75 181.25 322.6 181.15 322.45 181.15 322.25 181.15 322.15 181.25 309.65 192.75 297.7 204.8 297.7 206.85 297.7 208.85 297.7 209 297.7 209.2 299.75 224.75 308.85 233.35 309.6 234.05 310.4 234.7 313.15 234.7 315.9 234.7 316.05 234.7 316.25 234.7 318.85 233.05 320.05 230 320.05 229.95 320.25 229.95 319.5 221.95 316.3 216.6 312.95 211 313.35 201.9 314.75 197.9 318.45 196.15 318.6 196.1 318.8 196.1 325.15 197.9 328.85 202.4 336.7 211.85 350.6 214.8 355 215.75 357.65 214.4 368.95 208.75 367.8 193.2 367.25 186 364.4 180.75 361.55 175.55 360.65 168.4 361.9 165.85 364 164.15 364.1 164.05 364.3 164.05 371.25 164 376.65 167.1 382.05 170.15 388.75 171.4 396.8 172.9 402.35 169.9 413.5 163.9 411.55 147.35 411.2 144.1 409.65 141.6 399.45 125.1 382.15 115.65 371.55 114.7 372.3 125.1 372.3 125.3 372.3 125.45 Z"/>

<path fill="#F9C155" fill-opacity="0.9882352941176471" stroke="none" d="
M 327.55 127.65
Q 327.25 142.65 339.65 144.55 350 146.15 354.65 139.4 357.05 135.85 356.75 130.2 355.95 115.2 339.2 115.65 339.2 115.8 339.15 115.8 329.95 118.4 327.55 127.65 Z"/>

<path fill="#F15044" fill-opacity="0.9882352941176471" stroke="none" d="
M 319.05 180.7
Q 319.15 180.6 319.15 180.45 319 180.45 318.8 180.45 300.9 182.35 297.7 199 297.65 200.25 297.7 201.55 297.7 201.75 297.7 201.9 308.4 192.25 319.05 180.7 Z"/>

<path fill="#EC4E42" fill-opacity="0.9803921568627451" stroke="none" d="
M 322.15 181.25
Q 322.25 181.15 322.45 181.15 322.45 181 322.4 180.95 320.85 180.55 319.15 180.45 319.15 180.6 319.05 180.7 308.4 192.25 297.7 201.9 297.5 201.9 297.3 201.9 297.3 205.55 297.5 209.2
L 297.7 209.2
Q 297.7 209 297.7 208.85 297.7 206.85 297.7 204.8 309.65 192.75 322.15 181.25 Z"/>
</g>
</defs>

<g transform="matrix( 1, 0, 0, 1, 0,0) ">
<use xlink:href="#Layer25_0_FILL"/>
</g>

<g transform="matrix( 1, 0, 0, 1, 0,0) ">
<use xlink:href="#Layer1_0_FILL"/>
</g>

<g transform="matrix( 1, 0, 0, 1, 0,0) ">
<use xlink:href="#Layer0_0_FILL"/>
</g>
</svg>
