
<svg xmlns="http://www.w3.org/2000/svg" version="1.1" xmlns:xlink="http://www.w3.org/1999/xlink" preserveAspectRatio="none" x="0px" y="0px" width="500px" height="500px" viewBox="0 0 500 500">
<defs>
<g id="Layer29_0_FILL">
<path fill="#F69E3B" stroke="none" d="
M 429.2 67.25
Q 399.45 37.8 357.3 37.8
L 133.85 37.8
Q 91.7 37.8 61.9 67.25 32.15 96.8 32.15 138.6
L 32.15 360.1
Q 32.15 401.9 61.9 431.4 91.7 460.95 133.85 460.95
L 357.3 460.95
Q 399.45 460.95 429.2 431.4 459 401.9 459 360.1
L 459 138.6
Q 459 96.8 429.2 67.25 Z"/>
</g>

<g id="Layer28_0_FILL">
<path fill="#000000" fill-opacity="0.4980392156862745" stroke="none" d="
M 390.8 283.1
Q 391.15 283.1 391.5 283.1 391.5 282.75 391.3 282.65 391.0498046875 282.45078125 390.8 282.25 390.8 275.65078125 390.8 269.05 391.15 269.05 391.5 269.05 391.5 268.7 391.3 268.6 377.8 257.85 365.2 246.25 341.3 227.6 318.2 208.15 284.35 179.75 249.7 152.15 247.7 154.3 245.35 156.25 211.15 184.2 176.95 212.25 142.75 240.3 108.6 268.35 108.6 270.45 108.6 272.5 108.6 272.85 108.6 273.2 108.6 277.8 108.6 282.4 108.6 284.5 108.6 286.55
L 108.6 287.25
Q 108.6 337.975 108.6 388.7 108.6 389.05 108.6 389.4 108.6 396.075 108.6 402.75 108.6 403.1 108.6 403.45 110.2 414.65 120.35 417.2 120.7 417.3 121.05 417.3
L 144.4 417.65
Q 180.95 417.5 216.5 416.6 216.85 416.6 217.2 416.6 217.2 416.25 217.2 415.9 217.2 409.22421875 217.2 402.55 217.2 402.2 217.2 401.85 217.2 365.632421875 217.2 329.45 217.55 329.45 217.85 329.45 218.2 329.45 218.55 329.45 218.55 329.1 218.55 328.75 218.55 328.4 218.55 328.05 218.55 327.7 218.55 327.35 218.55 325.3 218.55 323.2 249.7 323.2 280.8 323.2 281.15 323.2 281.5 323.2
L 281.5 402.55
Q 281.5 402.9 281.5 403.25 281.5 409.9251953125 281.5 416.6 281.5 416.95 281.5 417.3 329.6 417.3 377.65 417.3 378 417.3 378.35 417.3 386 415.3 388.7 412.1
L 388.7 412.45
Q 389.8 410.75 390.4 408.4 390.45 408.3 390.8 408.3 390.8 407.95 390.8 407.6 390.8 406.9 390.8 406.2 391.95 406 391.55 404.15 391.5 403.8 391.5 403.45
L 391.15 403.45
Q 391.116796875 397.7568359375 391.05 392.05 391.8951171875 391.6958984375 391.55 390.1 391.5 389.75 391.5 389.4
L 391.15 389.4
Q 391.1306640625 386.079296875 391.05 382.75
L 390.8 283.1
M 334.75 89.2
Q 334.4 89.2 334.05 89.2 333.75 89.2 333.4 89.2 333.4 89.55 333.25 89.65 329.5 91.25 328.55 95.45 328.55 96.15 328.55 96.85 328.55 97.2 328.55 97.5
L 328.55 97.5
Q 328.5501953125 103.2333984375 328.6 109.25 328.5755859375 109.387109375 328.55 109.5 328.55 110.2 328.55 110.9 328.55 111.25 328.55 111.55
L 328.55 111.6
Q 328.55 125.7291015625 328.85 141.95 328.4353515625 144.2517578125 327.15 143.15 326.8 143.15 326.55 143.05 326.1 142.85 325.75 142.5 325.75 142.15 325.6 142.05 318.35 137.1 312.65 130.7 305.25 125.65 298.85 119.6 280.15 102 257.3 88.55 256.95 88.55 256.6 88.5 245.4 87.7 237.95 90.6 237.2 91.3 236.35 91.95 201.7 119.4 167.85 147.9 134.1 176.3 100 204.55 83.05 218.6 65.15 231.6 56 238.25 51.2 249 51.2 249.35 51.2 249.7 53.176953125 252.7728515625 55.35 255.6 52.9814453125 259.0603515625 51.2 263.05 51.2 263.4 51.2 263.75 60.4 278.05 74.1 287.8 74.35 287.95 74.7 287.95 85.3 283 93.55 275.7 126.65 246.5 160.75 218.25 194.75 190.1 228.8 161.9 239.15 153.25 249.7 144.75 284.15 172.55 317.95 201.05 351.75 229.45 385.25 258.35 403.75 274.25 424.7 287.95 431.55 287.2 433.95 281.85 434 281.7 434.35 281.7 434.35 281.4 434.35 281.05 436.4 279.95 437.4 277.7 437.5 277.55 437.8 277.55 437.8 277.25 437.8 276.9 439 276.65 439.5 275.65 439.55 275.5 439.9 275.5 439.9 275.15 439.9 274.8 442.6 270.6 445.45 270.3
L 445.45 270.65
Q 445.8 270.65 445.8 270.55 447.35 265.65 448.2 260.3 448.2 259.95 448.05 259.8 446.2490234375 258.13671875 444.45 256.45 444.94296875 256.3033203125 445.45 256.25
L 445.45 256.6
Q 445.8 256.6 445.8 256.5 447.35 251.6 448.2 246.25 448.2 245.9 448.05 245.75 421.25 221 392.85 197.8 392.5 197.8 392.35 197.65 392.15 197.45 392.15 197.1 391.85 197.1 391.5 197.1
L 391.5 197.45
Q 391.305078125 189.6599609375 391 181.8
L 390.7 115.7
Q 390.7669921875 112.6169921875 390.8 109.5 391.15 109.5 391.5 109.5 391.5 109.15 391.35 108.9 390.8 108.1 390.8 106.75 390.7470703125 106.75 390.7 106.75 390.740234375 101.1103515625 390.8 95.45 391.15 95.45 391.5 95.45 391.5 95.1 391.35 94.85 390.8 94.05 390.8 92.7 390.45 92.7 390.4 92.55 389.2 89.4 385.25 89.2
L 385.25 89.55
Q 359.15 90.45 334.75 89.2 Z"/>
</g>

<g id="Layer27_0_FILL">
<path fill="#FFFFFF" stroke="none" d="
M 390.8 269.05
Q 391.15 269.05 391.5 269.05 391.5 268.7 391.3 268.6 377.8 257.85 365.2 246.25 341.3 227.6 318.2 208.15 284.35 179.75 249.7 152.15 247.7 154.3 245.35 156.25 211.15 184.2 176.95 212.25 142.75 240.3 108.6 268.35 108.6 270.45 108.6 272.5 108.6 272.85 108.6 273.2 108.6 330.95 108.6 388.7 108.6 389.05 108.6 389.4 110.2 400.6 120.35 403.15 120.7 403.25 121.05 403.25
L 144.4 403.55
Q 180.95859375 403.4603515625 216.5 402.55 216.85 402.55 217.2 402.55 217.2 402.2 217.2 401.85 217.2 358.6 217.2 315.4 217.55 315.4 217.85 315.4 218.2 315.4 218.55 315.4 218.55 315.05 218.55 314.7 218.55 314.35 218.55 314 218.55 313.65 218.55 313.3 218.55 311.25 218.55 309.15 249.7 309.15 280.8 309.15 281.15 309.15 281.5 309.15 281.5 355.85 281.5 402.55 281.5 402.9 281.5 403.25 329.6 403.25 377.65 403.25 378 403.25 378.35 403.25 386 401.25 388.7 398.05
L 388.7 398.4
Q 389.8 396.7 390.4 394.35 390.45 394.25 390.8 394.25 390.8 393.9 390.8 393.55 390.8 392.85 390.8 392.15 391.95 391.95 391.55 390.1 391.5 389.75 391.5 389.4
L 391.15 389.4
Q 390.8 329.25 390.8 269.05
M 334.75 89.2
Q 334.4 89.2 334.05 89.2 333.75 89.2 333.4 89.2 333.4 89.55 333.25 89.65 329.5 91.25 328.55 95.45 328.55 96.15 328.55 96.85 328.55 97.2 328.55 97.5
L 328.55 97.5
Q 328.550390625 115.862890625 329.1 137.65 329.25 144.95 327.15 143.15 326.8 143.15 326.55 143.05 326.1 142.85 325.75 142.5 325.75 142.15 325.6 142.05 318.35 137.1 312.65 130.7 305.25 125.65 298.85 119.6 280.15 102 257.3 88.55 256.95 88.55 256.6 88.5 245.4 87.7 237.95 90.6 237.2 91.3 236.35 91.95 201.7 119.4 167.85 147.9 134.1 176.3 100 204.55 83.05 218.6 65.15 231.6 56 238.25 51.2 249 51.2 249.35 51.2 249.7 60.4 264 74.1 273.75 74.35 273.9 74.7 273.9 85.3 268.95 93.55 261.65 126.65 232.45 160.75 204.2 194.75 176.05 228.8 147.85 239.15 139.2 249.7 130.7 284.15 158.5 317.95 187 351.75 215.4 385.25 244.3 403.75 260.2 424.7 273.9 431.55 273.15 433.95 267.8 434 267.65 434.35 267.65 434.35 267.35 434.35 267 436.4 265.9 437.4 263.65 437.5 263.5 437.8 263.5 437.8 263.2 437.8 262.85 439 262.6 439.5 261.6 439.55 261.45 439.9 261.45 439.9 261.1 439.9 260.75 442.6 256.55 445.45 256.25
L 445.45 256.6
Q 445.8 256.6 445.8 256.5 447.35 251.6 448.2 246.25 448.2 245.9 448.05 245.75 421.25 221 392.85 197.8 392.5 197.8 392.35 197.65 392.15 197.45 392.15 197.1 391.85 197.1 391.5 197.1
L 391.5 197.45
Q 390.25 147.5 390.8 95.45 391.15 95.45 391.5 95.45 391.5 95.1 391.35 94.85 390.8 94.05 390.8 92.7 390.45 92.7 390.4 92.55 389.2 89.4 385.25 89.2
L 385.25 89.55
Q 359.15 90.45 334.75 89.2 Z"/>
</g>
</defs>

<g transform="matrix( 1, 0, 0, 1, 0,0) ">
<use xlink:href="#Layer29_0_FILL"/>
</g>

<g transform="matrix( 1, 0, 0, 1, 0,0) ">
<use xlink:href="#Layer28_0_FILL"/>
</g>

<g transform="matrix( 1, 0, 0, 1, 0,0) ">
<use xlink:href="#Layer27_0_FILL"/>
</g>
</svg>
