
<svg xmlns="http://www.w3.org/2000/svg" version="1.1" xmlns:xlink="http://www.w3.org/1999/xlink" preserveAspectRatio="none" x="0px" y="0px" width="500px" height="500px" viewBox="0 0 500 500">
<defs>
<g id="Layer22_0_FILL">
<path fill="#FF0000" stroke="none" d="
M 459 138.6
Q 459 96.8 429.2 67.25 399.45 37.8 357.3 37.8
L 133.85 37.8
Q 91.7 37.8 61.9 67.25 32.15 96.8 32.15 138.6
L 32.15 360.1
Q 32.15 401.9 61.9 431.4 91.7 460.95 133.85 460.95
L 357.3 460.95
Q 399.45 460.95 429.2 431.4 459 401.9 459 360.1
L 459 138.6 Z"/>
</g>

<g id="Layer1_0_FILL">
<path fill="#2F2F2F" fill-opacity="0.4980392156862745" stroke="none" d="
M 268 382.05
Q 264.1 387.05 263.05 394.85 263 397.3 263.3 399.55 264.3 407.6 268.45 412.65 272.7 417.7 279.2 420.35 282.5 421.75 286.55 422.15 292.85 422.75 297.6 421.15 304.45 418.8 308.95 414.05 313.35 409.2 314.8 401.6 315.65 397.25 314.9 393.1 313.35 385.35 309 380.55 304.55 375.75 297.85 373.25 294.45 372 290 371.85 283.05 371.75 278.35 373.9 272.05 376.8 268 382
L 268 382.05
M 274.6 395.8
Q 275.7 388.7 280.4 385.25
L 280.4 385.2
Q 284.3 382 291.25 382.55 293.3 382.7 294.9 383.5 298.4 385.15 300.75 387.95 302.75 390.6 303.55 394.5 304 396.5 303.55 398.75 302.25 406.6 296.45 410.1 293.55 411.8 289.1 411.85 286.2 411.85 284.15 411.1 282 410.3 280.35 409.05 275.75 405.6 274.7 398.65 274.55 397.3 274.6 395.8
M 364.25 158.35
Q 361.15 156.8 356.95 156.5 352.45 156.15 348.75 157.2 348.15 157 347.6 156.8 340.75 154.5 333.8 152.25 326.85 149.95 319.95 147.7 313 145.4 306.2 143 307.5 139.1 308.65 135.2 309.05 133.75 309.05 132.15 309.05 125.4 306 121.55 303.15 117.95 298.45 116.4 291.5 114.1 284.65 111.7 277.7 109.45 270.75 107.15 263.85 104.85 257.05 102.4 254.5 101.55 251.5 101.05 249.2 100.7 247.2 101.1 241.35 102.25 238.15 105.9 237 107.15 236.25 108.6 233.75 113.1 232.25 118.5 225.95 116.45 219.7 114.35 212.75 112.1 205.85 109.8 198.9 107.5 192.1 105 190.25 104.35 187.9 104.3 183.2 104.15 180.6 106.15 176.7 109.2 175.4 114.8 180.1 116.3 184.9 117.9 191.8 120.15 198.75 122.45 205.7 124.75 212.5 127.05 219.5 129.35 226.4 131.65 233.3 134 240.2 136.25 247.15 138.5 254.1 140.9 260.95 143.2 267.9 145.4 274.85 147.7 281.7 150 288.65 152.3 295.55 154.6 302.5 156.95 309.4 159.25 316.3 161.55 323.25 163.85 330.15 166.15 337.1 168.4 337.1 168.45 337.1 168.5 336.8 169.9 336.25 171.1 334.7 170.9 333.2 170.75 325 169.75 316.8 168.75 308.55 167.75 300.35 166.7 292.15 165.65 283.95 164.65 275.75 163.65 267.45 162.65 259.35 161.65 251.1 160.65 242.85 159.75 234.7 158.7 226.4 157.7 218.3 156.65 210.1 155.6 201.8 154.6 193.65 153.6 185.4 152.55 177.15 151.55 169.05 150.75 168.85 150.95 168.8 151.3 167.95 159.5 167 167.8 167.05 167.8 167.1 167.8 169.4 167.9 171.4 168.3 171.35 174.05 171.1 179.65 170.75 188.55 170.45 197.4 170.15 206.35 169.85 215.25 169.6 224.15 169.2 233.05 168.95 242 168.65 250.9 168.35 259.85 168.05 268.7 167.75 277.65 167.45 286.55 167.15 295.5 166.8 304.3 166.5 313.35 166.2 322.15 165.9 331.1 165.65 339.95 165.35 348.95 165 357.8 164.85 362.35 164.8 366.75 164.7 376 163.45 384.05 163.45 385.15 163.5 386.2 163.75 390.5 165.8 393 167.85 395.55 171.5 396.5 173.45 396.95 175.6 397.2 183.85 398.15 192 399.15 200.25 400.15 208.45 401.15 216.65 402.2 224.8 403.2 233.05 404.2 241.3 405.25 249.55 406.25 257.55 407.1 256.35 403.4 256.25 398.65 256.15 390.65 258.55 385.05 261.35 378.6 266.05 374.05 270.75 369.5 277.4 367.05 280.85 365.75 284.9 365.3 290.6 364.55 295.5 365.75 302.9 367.45 308.15 371.45 309.65 364.75 311.05 357.85 312.65 350.25 314.25 342.65 315.8 335 317.4 327.4 319 319.75 320.6 312.15 322.2 304.55 323.75 296.9 325.35 289.3 326.95 281.7 328.55 274.05 330.15 266.45 331.7 258.8 333.3 251.2 334.95 243.55 336.55 235.95 338.15 228.3 339.75 220.7 341.3 213.05 342.9 205.5 344.5 197.85 346.15 190.25 349.05 191.8 352.9 192.35 358.7 193.1 363 191.4 369.6 188.7 372.85 182.75 374.05 180.5 374.4 177.55 375.25 171.85 373.3 167.75 370.35 161.5 364.25 158.35
M 357.4 164.25
Q 359.5 164.25 361.15 164.95 363.75 166.15 365.55 168.2 367.65 171 366.9 175.5 366.7 176.4 366.35 177.15 364.05 181.8 357.7 182.15 354.8 182.35 352.8 181.45 348.05 179.5 347 173.85 346.8 173.05 346.85 172.05 348.45 164.4 357.4 164.25
M 242.15 121.85
Q 241.45 121.7 240.9 121.25 242.25 116.8 244.25 112.95 244.3 112.85 244.45 112.65 246.65 109.9 251.25 110.85 251.7 110.9 252.2 111.1 259.1 113.3 266.05 115.6 273 117.85 279.85 120.15 286.8 122.45 293.75 124.7 295.75 125.35 297.45 126.25 300.2 128.25 299.7 133 299.5 134.45 299.05 135.7 298.2 137.85 297.55 140.15 290.55 137.95 283.7 135.65 276.75 133.35 269.9 131.05 262.95 128.7 256.05 126.4 249.15 124.1 242.15 121.85 Z"/>
</g>

<g id="Layer0_0_FILL">
<path fill="#FFFFFF" stroke="none" d="
M 282.35 363.1
Q 275.4 363 270.7 365.15 264.4 368.05 260.35 373.25
L 260.35 373.3
Q 256.45 378.3 255.4 386.1 255.35 388.55 255.65 390.8 256.65 398.85 260.8 403.9 265.05 408.95 271.55 411.6 274.85 413 278.9 413.4 285.2 414 289.95 412.4 296.8 410.05 301.3 405.3 305.7 400.45 307.15 392.85 308 388.5 307.25 384.35 305.7 376.6 301.35 371.8 296.9 367 290.2 364.5 286.8 363.25 282.35 363.1
M 272.75 376.5
L 272.75 376.45
Q 276.65 373.25 283.6 373.8 285.65 373.95 287.25 374.75 290.75 376.4 293.1 379.2 295.1 381.85 295.9 385.75 296.35 387.75 295.9 390 294.6 397.85 288.8 401.35 285.9 403.05 281.45 403.1 278.55 403.1 276.5 402.35 274.35 401.55 272.7 400.3 268.1 396.85 267.05 389.9 266.9 388.55 266.95 387.05 268.05 379.95 272.75 376.5
M 349.3 147.75
Q 344.8 147.4 341.1 148.45 340.5 148.25 339.95 148.05 333.1 145.75 326.15 143.5 319.2 141.2 312.3 138.95 305.35 136.65 298.55 134.25 299.85 130.35 301 126.45 301.4 125 301.4 123.4 301.4 116.65 298.35 112.8 295.5 109.2 290.8 107.65 283.85 105.35 277 102.95 270.05 100.7 263.1 98.4 256.2 96.1 249.4 93.65 246.85 92.8 243.85 92.3 241.55 91.95 239.55 92.35 233.7 93.5 230.5 97.15 229.35 98.4 228.6 99.85 226.1 104.35 224.6 109.75 218.3 107.7 212.05 105.6 205.1 103.35 198.2 101.05 191.25 98.75 184.45 96.25 182.6 95.6 180.25 95.55 175.55 95.4 172.95 97.4 169.05 100.45 167.75 106.05 172.45 107.55 177.25 109.15 184.15 111.4 191.1 113.7 198.05 116 204.85 118.3 211.85 120.6 218.75 122.9 225.65 125.25 232.55 127.5 239.5 129.75 246.45 132.15 253.3 134.45 260.25 136.65 267.2 138.95 274.05 141.25 281 143.55 287.9 145.85 294.85 148.2 301.75 150.5 308.65 152.8 315.6 155.1 322.5 157.4 329.45 159.65 329.45 159.7 329.45 159.75 329.15 161.15 328.6 162.35 327.05 162.15 325.55 162 317.35 161 309.15 160 300.9 159 292.7 157.95 284.5 156.9 276.3 155.9 268.1 154.9 259.8 153.9 251.7 152.9 243.45 151.9 235.2 151 227.05 149.95 218.75 148.95 210.65 147.9 202.45 146.85 194.15 145.85 186 144.85 177.75 143.8 169.5 142.8 161.4 142 161.2 142.2 161.15 142.55 160.3 150.75 159.35 159.05 159.4 159.05 159.45 159.05 161.75 159.15 163.75 159.55 163.7 165.3 163.45 170.9 163.1 179.8 162.8 188.65 162.5 197.6 162.2 206.5 161.95 215.4 161.55 224.3 161.3 233.25 161 242.15 160.7 251.1 160.4 259.95 160.1 268.9 159.8 277.8 159.5 286.75 159.15 295.55 158.85 304.6 158.55 313.4 158.25 322.35 158 331.2 157.7 340.2 157.35 349.05 157.2 353.6 157.15 358 157.05 367.25 155.8 375.3 155.8 376.4 155.85 377.45 156.1 381.75 158.15 384.25 160.2 386.8 163.85 387.75 165.8 388.2 167.95 388.45 176.2 389.4 184.35 390.4 192.6 391.4 200.8 392.4 209 393.45 217.15 394.45 225.4 395.45 233.65 396.5 241.9 397.5 249.9 398.35 248.7 394.65 248.6 389.9 248.5 381.9 250.9 376.3 253.7 369.85 258.4 365.3 263.1 360.75 269.75 358.3 273.2 357 277.25 356.55 282.95 355.8 287.85 357 295.25 358.7 300.5 362.7 302 356 303.4 349.1 305 341.5 306.6 333.9 308.15 326.25 309.75 318.65 311.35 311 312.95 303.4 314.55 295.8 316.1 288.15 317.7 280.55 319.3 272.95 320.9 265.3 322.5 257.7 324.05 250.05 325.65 242.45 327.3 234.8 328.9 227.2 330.5 219.55 332.1 211.95 333.65 204.3 335.25 196.75 336.85 189.1 338.5 181.5 341.4 183.05 345.25 183.6 351.05 184.35 355.35 182.65 361.95 179.95 365.2 174 366.4 171.75 366.75 168.8 367.6 163.1 365.65 159 362.7 152.75 356.6 149.6 353.5 148.05 349.3 147.75
M 357.9 159.45
Q 360 162.25 359.25 166.75 359.05 167.65 358.7 168.4 356.4 173.05 350.05 173.4 347.15 173.6 345.15 172.7 340.4 170.75 339.35 165.1 339.15 164.3 339.2 163.3 340.8 155.65 349.75 155.5 351.85 155.5 353.5 156.2 356.1 157.4 357.9 159.45
M 234.5 113.1
Q 233.8 112.95 233.25 112.5 234.6 108.05 236.6 104.2 236.65 104.1 236.8 103.9 239 101.15 243.6 102.1 244.05 102.15 244.55 102.35 251.45 104.55 258.4 106.85 265.35 109.1 272.2 111.4 279.15 113.7 286.1 115.95 288.1 116.6 289.8 117.5 292.55 119.5 292.05 124.25 291.85 125.7 291.4 126.95 290.55 129.1 289.9 131.4 282.9 129.2 276.05 126.9 269.1 124.6 262.25 122.3 255.3 119.95 248.4 117.65 241.5 115.35 234.5 113.1 Z"/>
</g>
</defs>

<g transform="matrix( 1, 0, 0, 1, 0,0) ">
<use xlink:href="#Layer22_0_FILL"/>
</g>

<g transform="matrix( 1, 0, 0, 1, 0,0) ">
<use xlink:href="#Layer1_0_FILL"/>
</g>

<g transform="matrix( 1, 0, 0, 1, 0,0) ">
<use xlink:href="#Layer0_0_FILL"/>
</g>
</svg>
