
<svg xmlns="http://www.w3.org/2000/svg" version="1.1" xmlns:xlink="http://www.w3.org/1999/xlink" preserveAspectRatio="none" x="0px" y="0px" width="500px" height="500px" viewBox="0 0 500 500">
<defs>
<g id="Layer9_0_FILL">
<path fill="#5D95B5" fill-opacity="0.9411764705882353" stroke="none" d="
M 419 445
Q 418.5 445 418.1 445.2 411.9 448.4 405 451 405 451.5 405 452 412.85 449.85 418.75 445.65 419 445.5 419 445 Z"/>

<path fill="#19273E" stroke="none" d="
M 0 498
Q 87.75 499.75 178 499.35 267.5 499 357 499.4 429.75 499.75 500 498 429 498 358 498 268.5 498 179 498 89.5 498 0 498 Z"/>

<path fill="#528DAD" fill-opacity="0.9764705882352941" stroke="none" d="
M 460 308
Q 459.5 308 459 308 459 344.5 459.5 381
L 460 381
Q 460 380.5 460 380 460 344 460 308 Z"/>

<path fill="#4C8AAD" fill-opacity="0.9882352941176471" stroke="none" d="
M 460 252
Q 459.5 252 459 252 459 252.5 459 253 459 253.5 459 254 459 280.5 459 307 459 307.5 459 308 459.5 308 460 308 460 307.5 460 307 460 279.5 460 252 Z"/>

<path fill="#63AED7" fill-opacity="0.9764705882352941" stroke="none" d="
M 460 252
Q 460 251.5 460 251 460.75 181.75 459 115 459 183 459 251 459 251.5 459 252 459.5 252 460 252 Z"/>

<path fill="#73A2BD" fill-opacity="0.8392156862745098" stroke="none" d="
M 350 458
Q 350 458.5 350 459 365 459 380 458.5
L 380 458
Q 379.5 458 379 458 378.75 458 378.5 458 378 458 377.5 458 363.75 458 350 458 Z"/>

<path fill="#76A7C1" fill-opacity="0.8470588235294118" stroke="none" d="
M 217 459
Q 217.5 459 218 459 218 458.5 218 458
L 217.5 458
Q 217.25 458 217 458
L 216.5 458
Q 216 458 215.5 458 167.750390625 458 120 458 167.25 459.75 217 459 Z"/>

<path fill="#678392" fill-opacity="0.8980392156862745" stroke="none" d="
M 245 458
Q 245 458.5 245 459 297 459 349 459 349.5 459 350 459 350 458.5 350 458 349.5 458 349 458
L 347.5 458
Q 296.2501953125 458 245 458 Z"/>

<path fill="#5C7E90" fill-opacity="0.8823529411764706" stroke="none" d="
M 244 459
Q 244.5 459 245 459 245 458.5 245 458 244.5 458 244 458
L 243.5 458
Q 243 458 242.5 458 230.75 458 219 458 218.5 458 218 458 218 458.5 218 459 231 459 244 459 Z"/>

<path fill="#6DABCE" fill-opacity="0.9176470588235294" stroke="none" d="
M 54 76.25
Q 59.298828125 70.1650390625 64.55 64.05 59.1017578125 69.8427734375 54 76 54 76.1357421875 54 76.25 Z"/>

<path fill="#3099D2" fill-opacity="0.996078431372549" stroke="none" d="
M 457.5 115
Q 457.5 114.5 457.4 114 446.55 47.95 378.5 39 338.7498046875 39 299 39
L 297.5 39
Q 208.7498046875 39 120 39 119.2498046875 39 118.5 39 118 39 117.5 39.05 87.05 42.55 68.5 58 68.5 58.5 68.5 59 68.5 59.5 68.25 59.8 66.4138671875 61.928515625 64.55 64.05 59.298828125 70.1650390625 54 76.25 53.2501953125 77.1357421875 52.5 78 52 78 51.85 78.25 42.75 92.25 38.5 111 38.5 114.5 38.5 118 38.5 118.5 38.5 119 38.5 141.375 38.7 163.75
L 38.5 298
Q 38.4375 308.3125 38.5 318.45
L 38.55 333.35
Q 38.5 355.67578125 38.5 378 47.3 448.7 117.5 457.95 118 458 118.5 458 119.249609375 458 120 458 167.750390625 458 215.5 458 216 458 216.5 458
L 217 458
Q 217.25 458 217.5 458
L 218 458
Q 218.5 458 219 458 230.75 458 242.5 458 243 458 243.5 458
L 244 458
Q 244.5 458 245 458 296.2501953125 458 347.5 458
L 349 458
Q 349.5 458 350 458 363.75 458 377.5 458 378 458 378.5 458 392.9 457.4 403.3 452.6 403.5 452.5 403.5 452 403.5 451.5 403.5 451 410.4 448.4 416.6 445.2 417 445 417.5 445 450.6 426.1 458.4 382 458.5 381.5 458.5 381
L 458 381
Q 457.5 344.5 457.5 308 457.5 307.5 457.5 307 457.5 280.5 457.5 254 457.5 253.5 457.5 253 457.5 252.5 457.5 252 457.5 251.5 457.5 251 457.5 183 457.5 115 Z"/>

<path fill="#74ABC9" fill-opacity="0.8823529411764706" stroke="none" d="
M 378.5 39
Q 379.2498046875 39 380 39 340.75 37.25 299 37.5 209.5 38 120 38 120 38.5 120 39 208.7498046875 39 297.5 39
L 299 39
Q 338.7498046875 39 378.5 39 Z"/>
</g>

<g id="Layer2_0_FILL">
<path fill="#000000" fill-opacity="0.5372549019607843" stroke="none" d="
M 451.05 250.95
Q 451.9 232.2 445.6 221.1 425.95 186.45 400.45 158.3 364.95 119.15 322.5 86.95 311.8 78.85 301.05 70.6 285.35 58.65 257.65 58.4 257.65 58.8 257.45 58.95 230 81.65 207.6 109.25 179.15 115.8 157.2 129.2 135.45 142.55 115.35 157.75 72.85 190 60.9 252.65 60.9 254.75 60.9 256.8 60.9 257.25 60.9 257.65 60.45 257.65 60.05 257.65 60.05 266 60.45 274.3
L 60.9 274.3
Q 66.75 324.35 90.5 356.15 106.65 377.8 125.9 396.1 154.45 423.35 194.3 439.3 212.5 446.6 235.95 448.55 243.25 450 252.6 449 252.65 449 252.65 448.55 274.55 447.95 289.65 440.95 323.85 425.15 347.7 399.35 383.5 360.55 399.35 301.85 399.8 301.85 400.05 301.6 428.25 279.05 451.05 250.95 Z"/>
</g>

<g id="Layer1_0_FILL">
<path fill="#000000" fill-opacity="0.5176470588235295" stroke="none" d="
M 246.55 438.85
Q 246.6 438.85 246.6 438.4 246.15 438.4 245.75 438.4 237.85 438.4 229.9 438.4 237.2 439.85 246.55 438.85 Z"/>

<path fill="#000000" fill-opacity="0.5333333333333333" stroke="none" d="
M 54.85 263.35
Q 54.85 255.4 54.85 247.5 54.4 247.5 54 247.5 54 255.85 54.4 264.15
L 54.85 264.15
Q 54.85 263.75 54.85 263.35 Z"/>

<path fill="#010101" fill-opacity="0.996078431372549" stroke="none" d="
M 445 240.8
Q 445.85 222.05 439.55 210.95 419.9 176.3 394.4 148.15 358.9 109 316.45 76.8 305.75 68.7 295 60.45 279.3 48.5 251.6 48.25 251.6 48.65 251.4 48.8 223.95 71.5 201.55 99.1 173.1 105.65 151.15 119.05 129.4 132.4 109.3 147.6 66.8 179.85 54.85 242.5 54.85 244.6 54.85 246.65 54.85 247.1 54.85 247.5 54.85 255.4 54.85 263.35 54.85 263.75 54.85 264.15 60.7 314.2 84.45 346 100.6 367.65 119.85 385.95 148.4 413.2 188.25 429.15 206.45 436.45 229.9 438.4 237.85 438.4 245.75 438.4 246.15 438.4 246.6 438.4 268.5 437.8 283.6 430.8 317.8 415 341.65 389.2 377.45 350.4 393.3 291.7 393.75 291.7 394 291.45 422.2 268.9 445 240.8
M 426.65 227.95
Q 427.7 230.2 427.5 234.15 398.75 225.4 378.15 208.75 336.75 175.2 301.75 135.55 278.7 109.5 261.55 77.05 259.25 72.65 259.1 65.75 287.9 74.45 308.5 91.2 349.75 124.75 385.05 164.1 409.85 191.8 426.65 227.95
M 413.35 250
Q 412.9 250 412.7 250.2 400.8 262.1 389.15 274.15 364.9 265.1 346.5 250.15 315.65 225.1 287.4 197.5 249.7 160.65 222.4 113.25 222 113.25 221.9 113.1 221.15 111.6 220.75 109.95 220.75 109.5 220.55 109.25 219.1 107.45 219.1 104.1 231.6 92 244.15 81.55
L 244.9 82.4
Q 245.7 83.3 245.75 84.9 246.6 86.15 247.25 87.5 247.4 87.85 247.4 88.25 252.45 97.8 258.4 106.5 288.55 150.95 326.4 187.7 364.3 224.4 413.35 250
M 324.95 255.85
Q 327.1 256.2 328.1 257.6 328.3 257.9 328.3 258.35 331.65 259.55 333.6 262.3 333.7 262.5 334.15 262.5 335.4 263.35 336.4 264.4 336.65 264.6 336.65 265 340.9 266.6 343.55 269.8 343.7 270 344.15 270 345.35 271.3 347.35 272.05 347.45 272.1 347.45 272.5 349.95 274.6 353.15 276.15 353.3 276.25 353.3 276.65 354.95 277.5 356.45 278.6 356.65 278.75 356.65 279.15 360.4 280.85 364 282.85 364.15 282.95 364.15 283.35 365.75 283.4 366.45 284.3 366.65 284.6 366.65 285 370.7 285.95 373.5 288.15 373.75 288.35 374.15 288.35 376.6 288 376.2 290.9 374.3 304.5 367.5 296.7 367.05 296.7 366.8 296.45 364.15 294.2 361.65 291.7 361.2 291.7 361 291.45 359.8 290.2 358.3 289.2 357.9 289.2 357.65 288.95 354.95 286.7 352.45 284.2 352.05 284.2 351.85 283.95 350.65 282.7 349.15 281.7 348.7 281.7 348.45 281.45 345.25 278.9 342.45 275.85 342.05 275.85 341.65 275.8 340.2 275.6 339.95 274.15 339.55 274.15 339.3 273.95 336.4 271.5 333.3 269.15 332.9 269.15 332.65 268.95 331.65 267.9 330.8 266.65 330.4 266.65 330.05 266.5 326.6 264.65 324.1 261.65 323.7 261.65 323.35 261.55 321.5 260.95 320.8 259.15 320.35 259.15 320.05 259 317.1 257.4 314.95 255 314.55 255 314.2 254.85 312.6 254 311.6 252.5 311.2 252.5 310.9 252.3 307.7 250.15 304.95 247.5 304.55 247.5 304.2 247.35 302.6 246.5 301.6 245 301.2 245 300.9 244.8 298 242.8 294.95 240.8 294.55 240.8 294.3 240.6 293.1 239.3 291.6 238.3 291.2 238.3 290.95 238.1 288.5 236.05 285.75 234.15 285.35 234.15 285 234 283.45 233.15 282.45 231.65 282 231.65 281.7 231.5 278.5 229.8 275.75 227.5 275.35 227.5 275 227.3 273.45 226.5 272.45 225 272 225 271.7 224.8 268.5 223.1 265.75 220.8 265.35 220.8 265 220.65 263.45 219.8 262.45 218.3 262 218.3 261.7 218.15 258.05 216.45 254.95 214.15 254.5 214.15 254.2 214 252.6 213.15 251.6 211.65 251.2 211.65 250.85 211.5 247.85 210 244.9 208.3 244.5 208.3 244.3 208.1 243.1 206.8 241.6 205.8 241.15 205.8 240.85 205.65 237.35 203.8 234.1 201.65 233.65 201.65 233.4 201.45 232.4 200.8 231.6 199.95 231.15 199.95 230.85 199.8 226.85 198 223.25 195.8 222.85 195.8 222.55 195.6 221.6 194.95 220.75 194.15 220.35 194.15 219.95 194 215.85 192.4 212.4 189.95 212 189.95 211.6 189.9 209.9 189.55 209.05 188.3 208.65 188.3 208.3 188.15 204.9 186.65 201.55 184.95 201.15 184.95 200.95 184.75 199.9 183.7 198.25 183.3 197.8 183.3 197.5 183.15 194.05 181.2 189.9 179.95 189.5 179.95 189.2 179.8 187.4 178.7 185.75 177.45 185.3 177.45 184.95 177.35 181.4 176.4 178.25 174.95 177.8 174.95 177.5 174.8 176.15 174.15 174.9 173.3 174.5 173.3 174.1 173.2 169.5 172 165.7 169.95 165.3 169.95 164.9 169.95 163.25 169.9 162.4 169.15 161.95 169.15 161.6 169 157.2 167.65 152.4 166.65 151.95 166.65 151.6 166.5 149.9 165.8 148.2 164.95 147.8 164.95 147.4 164.9 142.8 164.55 139.05 163.3 138.65 163.3 138.2 163.35 135.95 163.85 135.7 162.45 135.3 162.45 134.9 162.45 128.45 162.2 123.2 160.8 141.3 145.1 162.5 132.6 162.8 132.45 163.2 132.45 163.2 132.05 163.2 131.6 168.95 129.8 173.35 126.8 173.65 126.6 174.05 126.6 182.4 122.85 191.6 120.05 192 119.95 192.4 119.95 192.4 119.5 192.4 119.1 196.6 119.15 199.2 117.6 199.5 117.45 199.9 117.45 205.55 116.05 206.55 122.45 206.55 122.85 206.55 123.25 207.8 124.95 208.9 126.75 209.05 127.05 209.05 127.45 211.15 130.8 213.1 134.2 213.25 134.55 213.25 134.95 214.1 135.8 214.7 136.75 214.9 137.05 214.9 137.45 217.2 140.15 218.9 143.35 219.1 143.7 219.1 144.1 220.85 144.8 221.45 146.65 221.6 147.05 221.6 147.45 224.25 150.2 226.35 153.4 226.6 153.7 226.6 154.1 228.1 155.1 228.9 156.7 229.1 157.05 229.1 157.45 231.85 160.1 233.9 163.4 234.1 163.7 234.1 164.1 235.35 164.95 236.4 166 236.6 166.2 236.6 166.65 239.15 169.45 241.4 172.6 241.6 172.9 241.6 173.3 242.85 174.15 243.9 175.15 244.1 175.4 244.1 175.8 246.6 178.3 248.9 180.95 249.1 181.2 249.1 181.65 250.35 182.45 251.4 183.5 251.6 183.7 251.6 184.15 253.65 187.1 256.4 189.4 256.6 189.55 256.6 189.95 258.25 191.2 259.7 192.7 259.95 192.9 259.95 193.3 261.9 196.35 264.7 198.55 264.95 198.7 264.95 199.15 266.2 199.95 267.2 201 267.45 201.2 267.45 201.65 270.35 204.15 273.05 206.85 273.25 207.05 273.25 207.5 274.5 208.3 275.55 209.35 275.75 209.55 275.75 210 278.7 212.5 281.4 215.2 281.6 215.4 281.6 215.8 282.85 216.65 283.9 217.7 284.1 217.9 284.1 218.3 287.05 220.8 289.75 223.55 289.95 223.75 289.95 224.15 291.2 225 292.25 226.05 292.45 226.25 292.45 226.65 295.35 229.15 298.05 231.85 298.3 232.05 298.3 232.5 299.95 233.3 301.4 234.4 301.6 234.55 301.6 235 304.55 237.5 307.25 240.2 307.45 240.4 307.45 240.8 309.1 240.85 309.75 241.8 309.95 242.1 309.95 242.5 312.35 245.1 315.6 246.95 315.8 247.1 315.8 247.5 317.05 248.35 318.1 249.35 318.3 249.6 318.3 250 321.85 252.3 324.75 255.2 324.95 255.4 324.95 255.85
M 360.05 314.1
Q 361.65 315.45 363.3 316.7 300.8 307.5 251.8 281.15 202.9 254.9 158.45 224.65 128.55 204.25 103.2 179.15 149.7 179.3 181.05 194.2 231.85 218.5 275.8 249.1 319.75 279.8 360.05 314.1
M 336.9 331.5
Q 337.05 331.7 337.45 331.7 340.4 331.65 342.5 332.4 342.9 332.55 343.3 332.55 343.7 332.55 344.15 332.55 351.6 333.4 357.45 335.85 341.35 361.9 321.65 384.2 295.45 413.9 246.6 420.9 246.6 421.3 246.55 421.3 237.2 422.35 229.9 420.9 229.5 420.9 229.1 420.8 170.7 411.35 137.4 376.7 136.95 376.7 136.75 376.5 133.65 373.4 130.7 370.05 130.3 370.05 129.95 369.9 126.85 368.5 125.7 365.05 125.3 365.05 125.1 364.85 124.45 364.2 124.05 363.4 123.6 363.4 123.4 363.15 121.95 361.7 120.7 360.05 120.3 360.05 120.05 359.85 117.3 357.65 115.7 354.2 115.3 354.2 115.1 354 113.6 352.55 112.35 350.85 111.95 350.85 111.8 350.65 110.15 348.1 108.2 345.85 107.8 345.85 107.7 345.7 106.6 343.3 104.85 341.7 104.85 341.3 104.65 341.1 101.75 339 100.7 335.05 100.3 335.05 100 334.8 98.55 333.8 98.2 331.7 97.8 331.7 97.65 331.5 95.55 328.5 94 325.05 93.6 325.05 93.45 324.8 92.35 323.35 91.5 321.7 91.5 321.3 91.3 321.05 89.3 318.5 88.2 315 87.75 315 87.7 314.85 86.5 312.5 85.7 310 85.25 310 85.2 309.85 84 307.1 83.2 304.2 82.75 304.2 82.7 304 81.5 301.25 80.7 298.35 80.25 298.35 80.25 298.2 79 294.6 78.2 290.85 77.75 290.85 77.75 290.7 76.95 288.35 76.5 285.85 76.1 285.85 76.05 285.75 75.25 282.5 74.85 279.15
L 74.45 279.15
Q 73.7 274.45 73.2 270 73.2 269.6 73.2 269.15
L 72.75 269.15
Q 72.35 263.75 72.35 258.35 72.35 257.9 72.35 257.5 72.35 252.1 72.35 246.65 72.35 246.25 72.35 245.85 72.35 245 72.35 244.15 73.8 242.3 73.6 238.3
L 74 238.3
Q 74 237.9 74 237.5 74 235 74 232.5 76.1 229.15 76.95 224.25 76.95 224.15 77.35 224.15 77.35 223.75 77.35 223.3 77.35 222.5 77.35 221.65 79.15 218.85 80.25 215.1 80.25 215 80.7 215 80.7 214.55 80.7 214.15 80.7 213.3 80.7 212.5 85.4 203 91.3 194.85 91.5 194.55 91.5 194.15 94.45 196.65 97.15 199.35 97.35 199.55 97.35 199.95 99.05 200.8 100.5 201.9 100.7 202.05 100.7 202.45 103.3 204 105.1 206.45 105.3 206.65 105.7 206.65 107.35 207.9 108.8 209.35 109.05 209.55 109.05 210 112.85 211.55 115.15 214.75 115.3 215 115.7 215 116.95 215.8 118 216.85 118.2 217.05 118.2 217.5 121.55 219.55 124.65 221.9 124.85 222.05 124.85 222.5 126.1 223.8 128.1 224.55 128.2 224.55 128.2 225 131.3 226.5 133.45 228.95 133.65 229.15 134.05 229.15 135.9 230.6 138 231.95 138.2 232.05 138.2 232.5 141.15 234.15 143.85 236.1 144.05 236.25 144.05 236.65 145.7 237.5 147.15 238.55 147.4 238.75 147.4 239.15 151.35 240.2 153.45 243.1 153.65 243.35 154.05 243.35 155.25 244.6 157.25 245.35 157.4 245.4 157.4 245.85 160.95 247.3 163.45 249.8 163.65 250 164.05 250 165.25 251.3 167.25 252.05 167.4 252.1 167.4 252.5 170.7 254.15 173.9 256.1 174.05 256.25 174.05 256.65 175.75 257.85 178.1 258.7 178.25 258.75 178.25 259.15 181.15 260.4 183.4 262.3 183.65 262.5 184.05 262.5 185.25 263.8 187.25 264.55 187.4 264.6 187.4 265 191.25 266.6 194.25 268.95 194.5 269.15 194.9 269.15 196.55 270 198.05 271.1 198.25 271.25 198.25 271.65 201.95 272.55 204.3 274.8 204.5 275 204.9 275 206.55 275.85 208.05 276.9 208.25 277.1 208.25 277.5 212.2 278.9 215.55 281.15 215.75 281.25 215.75 281.7 217.4 282.1 218.9 282.85 219.1 282.95 219.1 283.35 222.85 285 226.4 287 226.6 287.1 226.6 287.5 228.25 287.95 229.75 288.7 229.9 288.75 229.9 289.2 233.95 290.15 236.75 292.3 237 292.5 237.4 292.5 239.15 293.7 241.45 294.55 241.6 294.6 241.6 295 245.25 296.35 248.4 298.2 248.7 298.35 249.1 298.35 250.8 299.55 253.15 300.4 253.25 300.45 253.25 300.85 256.6 302.1 259.75 303.7 259.95 303.75 259.95 304.2 261.75 304.85 264 305.4 264.1 305.45 264.1 305.85 267.5 307.45 271.5 308.75 271.6 308.75 271.6 309.2 273.25 309.6 274.75 310.35 274.95 310.45 274.95 310.85 278.95 312.25 283.15 313.75 283.25 313.75 283.25 314.2 285.1 314.85 287.35 315.4 287.45 315.45 287.45 315.85 291.25 316.65 294.2 318.2 294.55 318.35 294.95 318.35 297.15 319.5 299.8 320.4 299.95 320.45 299.95 320.85 303.7 321.7 307.35 322.9 307.45 322.95 307.45 323.35 309.95 323.8 312.35 324.55 312.45 324.6 312.45 325.05 315.9 325.3 318.35 326.55 318.7 326.7 319.1 326.7 321.8 326.95 323.45 328.15 323.7 328.35 324.1 328.35 328.5 329.4 333.2 330.45 333.3 330.45 333.3 330.85 335.95 330.3 336.9 331.5 Z"/>

<path fill="#316074" stroke="none" d="
M 246.6 420.9
Q 246.15 420.9 245.75 420.9 237.85 420.9 229.9 420.9 237.2 422.35 246.55 421.3 246.6 421.3 246.6 420.9 Z"/>

<path fill="#A8E0F9" stroke="none" d="
M 274.95 310.85
Q 274.95 310.45 274.75 310.35 273.25 309.6 271.6 309.2 265.75 315.45 259.7 321.5 222.4 358.8 184.9 395.9 184.9 396.3 184.9 396.75 186.25 397.85 188.25 398.3 188.65 398.4 189.05 398.4 189.05 398 189.05 397.55 189.05 397.15 189.05 396.75 226.6 359.65 263.9 322.3 269.5 316.7 274.95 310.85
M 287.45 315.85
Q 287.45 315.45 287.35 315.4 285.1 314.85 283.25 314.2 278.25 319.6 273.05 324.8 235.75 362.15 198.25 399.25 198.25 399.65 198.25 400.05 199.3 401.1 201.55 400.95 202 400.9 202.4 400.9 202.4 400.5 202.4 400.05 239.9 362.95 276.95 325.35 281.9 320.3 287.45 315.85
M 172.4 391.7
Q 172.4 392.15 172.4 392.55 174.05 393.4 175.75 394.1 176.15 394.2 176.55 394.2 176.55 393.8 176.55 393.4 176.55 392.95 176.55 392.55 214.1 355.45 251.15 317.9 257.35 311.6 264.1 305.85 264.1 305.45 264 305.4 261.75 304.85 259.95 304.2 253.7 310.85 247.2 317.3 209.9 354.6 172.4 391.7
M 139.9 374.2
Q 139.9 374.65 139.9 375.05 139.9 375.45 139.9 375.9 141.55 376.35 142.6 377.35 142.8 377.55 143.2 377.55 143.2 377.15 143.2 376.7 143.2 376.3 143.2 375.9 180.75 338.8 218.05 301.5 224.1 295.45 229.9 289.2 229.9 288.75 229.75 288.7 228.25 287.95 226.6 287.5 220.75 293.75 214.7 299.8 177.4 337.1 139.9 374.2
M 124.05 363.4
Q 124.05 362.95 124.05 362.55 124.05 362.15 124.05 361.7 161.55 324.6 198.85 287.3 203.65 282.5 208.25 277.5 208.25 277.1 208.05 276.9 206.55 275.85 204.9 275 200.8 280.95 195.8 285.9 158.2 322.95 120.7 360.05 121.95 361.7 123.4 363.15 123.6 363.4 124.05 363.4
M 112.35 350.85
Q 113.6 352.55 115.1 354 115.3 354.2 115.7 354.2 115.7 353.8 115.7 353.35 153.2 316.25 190.25 278.65 193.95 274.9 198.25 271.65 198.25 271.25 198.05 271.1 196.55 270 194.9 269.15 191.7 273.45 187.95 277.2 150.9 314.8 112.35 350.85 Z"/>

<path fill="#AAE4FD" stroke="none" d="
M 283.25 314.2
Q 283.25 313.75 283.15 313.75 278.95 312.25 274.95 310.85 269.5 316.7 263.9 322.3 226.6 359.65 189.05 396.75 189.05 397.15 189.05 397.55 189.05 398 189.05 398.4 193.25 399.25 197.4 400 197.8 400.05 198.25 400.05 198.25 399.65 198.25 399.25 235.75 362.15 273.05 324.8 278.25 319.6 283.25 314.2
M 307.45 323.35
Q 307.45 322.95 307.35 322.9 303.7 321.7 299.95 320.85 295.15 323.15 291.65 326.8 254.95 364.65 217.4 401.75 218.5 403.15 221.6 403
L 221.6 403.4
Q 224.1 403.4 226.6 403.4 227 403.4 227.4 403.4 227.4 403 227.4 402.55 265.95 366.5 303 328.9 305.5 326.4 307.45 323.35
M 318.35 326.55
Q 315.9 325.3 312.45 325.05 309.75 325.25 308.35 326.75 271.6 364.65 234.1 401.75 234.75 403.15 237.4 402.65 237.85 402.55 238.25 402.55 243.2 402.5 247.3 401.35 247.4 401.3 247.4 400.9 247.4 400.5 247.4 400.05 285.35 363.8 318.9 327.3 319.1 327.1 319.1 326.7 318.7 326.7 318.35 326.55
M 294.95 318.35
Q 294.55 318.35 294.2 318.2 291.25 316.65 287.45 315.85 281.9 320.3 276.95 325.35 239.9 362.95 202.4 400.05 202.4 400.5 202.4 400.9 205.55 403.15 211.6 402.6 212 402.55 212.4 402.55 212.4 402.15 212.4 401.75 249.95 364.65 287.55 327.6 291.7 323.45 294.95 318.35
M 176.55 392.55
Q 176.55 392.95 176.55 393.4 176.55 393.8 176.55 394.2 180 395.75 184.05 396.65 184.5 396.75 184.9 396.75 184.9 396.3 184.9 395.9 222.4 358.8 259.7 321.5 265.75 315.45 271.6 309.2 271.6 308.75 271.5 308.75 267.5 307.45 264.1 305.85 257.35 311.6 251.15 317.9 214.1 355.45 176.55 392.55
M 164.05 389.2
Q 168 390.65 171.65 392.4 172 392.55 172.4 392.55 172.4 392.15 172.4 391.7 209.9 354.6 247.2 317.3 253.7 310.85 259.95 304.2 259.95 303.75 259.75 303.7 256.6 302.1 253.25 300.85 245.15 306.5 238.35 313.5 201.55 351.3 164.05 388.4 164.05 388.8 164.05 389.2
M 143.2 375.9
Q 143.2 376.3 143.2 376.7 143.2 377.15 143.2 377.55 145.6 379.35 148.3 380.7 148.65 380.9 149.05 380.9 187.6 344.85 224.9 307.5 231.8 300.65 237.4 292.5 237 292.5 236.75 292.3 233.95 290.15 229.9 289.2 224.1 295.45 218.05 301.5 180.75 338.8 143.2 375.9
M 153.2 382.55
Q 153.2 382.95 153.2 383.4 155.75 385.45 159.1 386.6 159.45 386.7 159.9 386.7 198.45 350.65 235.5 313.1 242.55 306 249.1 298.35 248.7 298.35 248.4 298.2 245.25 296.35 241.6 295 234.4 301.2 227.8 307.9 190.75 345.45 153.2 382.55
M 133.2 370.05
Q 133.2 370.45 133.2 370.9 135.9 373.15 139.15 374.9 139.45 375.05 139.9 375.05 139.9 374.65 139.9 374.2 177.4 337.1 214.7 299.8 220.75 293.75 226.6 287.5 226.6 287.1 226.4 287 222.85 285 219.1 283.35 213.65 289.2 208.05 294.8 170.7 332.1 133.2 369.2 133.2 369.65 133.2 370.05
M 124.05 363.4
Q 124.45 364.2 125.1 364.85 125.3 365.05 125.7 365.05 130.7 370.15 136.65 363.35 153.95 343.3 172.85 324.65 194.5 303.35 215.75 281.7 215.75 281.25 215.55 281.15 212.2 278.9 208.25 277.5 203.65 282.5 198.85 287.3 161.55 324.6 124.05 361.7 124.05 362.15 124.05 362.55 124.05 362.95 124.05 363.4
M 115.7 354.2
Q 117.3 357.65 120.05 359.85 120.3 360.05 120.7 360.05 158.2 322.95 195.8 285.9 200.8 280.95 204.9 275 204.5 275 204.3 274.8 201.95 272.55 198.25 271.65 193.95 274.9 190.25 278.65 153.2 316.25 115.7 353.35 115.7 353.8 115.7 354.2
M 104.65 341.1
Q 104.85 341.3 104.85 341.7 143.4 305.65 180.75 268.35 183 266.05 184.05 262.5 183.65 262.5 183.4 262.3 181.15 260.4 178.25 259.15 176 259 174.95 260.1 138.2 297.95 100.7 335.05 101.75 339 104.65 341.1
M 108.2 345.05
Q 108.2 345.45 108.2 345.85 110.15 348.1 111.8 350.65 111.95 350.85 112.35 350.85 150.9 314.8 187.95 277.2 191.7 273.45 194.9 269.15 194.5 269.15 194.25 268.95 191.25 266.6 187.4 265 185.3 267.5 183 269.8 145.7 307.1 108.2 344.2 108.2 344.6 108.2 345.05
M 94 325.05
Q 95.55 328.5 97.65 331.5 97.8 331.7 98.2 331.7 136.75 295.65 173.25 257.5 173.65 257.1 174.05 256.65 174.05 256.25 173.9 256.1 170.7 254.15 167.4 252.5 166.95 252.5 166.75 252.7 130.85 289.25 94 325.05
M 109.05 210
Q 108.6 210 108.4 210.2 90.25 228.3 72.35 246.65 72.35 252.1 72.35 257.5 72.35 257.9 72.35 258.35 94 237.05 115.5 215.6 115.7 215.4 115.7 215 115.3 215 115.15 214.75 112.85 211.55 109.05 210
M 105.7 206.65
Q 105.3 206.65 105.1 206.45 103.3 204 100.7 202.45 100.3 202.45 100.05 202.7 88.6 213.3 77.35 224.15 76.95 224.15 76.95 224.25 76.1 229.15 74 232.5 74 235 74 237.5 74 237.9 74 238.3 89.85 225 105.5 207.3 105.7 207.05 105.7 206.65
M 157.4 245.85
Q 156.95 245.85 156.75 246.05 122.85 280.5 88.2 314.2 88.2 314.6 88.2 315 89.3 318.5 91.3 321.05 91.5 321.3 91.5 321.7 128.35 286.75 163.85 250.6 164.05 250.4 164.05 250 163.65 250 163.45 249.8 160.95 247.3 157.4 245.85
M 147.4 239.15
Q 146.95 239.15 146.75 239.35 115.35 271.4 83.2 302.5 83.2 302.95 83.2 303.35 83.2 303.75 83.2 304.2 84 307.1 85.2 309.85 85.25 310 85.7 310 94.45 304.6 103.45 295.25 128.6 269.15 154.05 243.35 153.65 243.35 153.45 243.1 151.35 240.2 147.4 239.15
M 138.2 232.5
Q 137.8 232.5 137.6 232.7 107.8 261.65 78.2 290.85 79 294.6 80.25 298.2 80.25 298.35 80.7 298.35 97.05 285.95 113.2 269.15 128.7 253.05 144.05 236.65 144.05 236.25 143.85 236.1 141.15 234.15 138.2 232.5
M 128.2 225
Q 127.8 225 127.6 225.2 101.6 251.8 74.85 277.5 74.85 277.9 74.85 278.35 74.85 278.75 74.85 279.15 75.25 282.5 76.05 285.75 76.1 285.85 76.5 285.85 91.1 274.6 105.95 259.4 120.35 244.7 134.05 229.15 133.65 229.15 133.45 228.95 131.3 226.5 128.2 225
M 124.85 222.5
Q 124.85 222.05 124.65 221.9 121.55 219.55 118.2 217.5 118.2 217.9 118 218.1 95.7 240.4 73.2 262.5 73.2 265.4 73.2 268.35 73.2 268.75 73.2 269.15 73.2 269.6 73.2 270 74.85 274.95 79.7 269.8 101.95 245.85 124.85 222.5
M 333.3 330.85
Q 333.3 330.45 333.2 330.45 328.5 329.4 324.1 328.35 324.1 328.8 323.9 329 289.1 363.8 254.1 398.4 254.5 398.8 255 399.05 255.35 399.25 255.75 399.25 263.7 397.6 270.6 394.7 270.75 394.65 270.75 394.2 270.75 393.8 270.75 393.4 302.05 362.55 333.1 331.5 333.3 331.3 333.3 330.85 Z"/>

<path fill="#A7E0F9" stroke="none" d="
M 319.1 326.7
Q 319.1 327.1 318.9 327.3 285.35 363.8 247.4 400.05 247.4 400.5 247.4 400.9 251.9 400.75 255.65 399.7 255.75 399.65 255.75 399.25 255.35 399.25 255 399.05 254.5 398.8 254.1 398.4 289.1 363.8 323.9 329 324.1 328.8 324.1 328.35 323.7 328.35 323.45 328.15 321.8 326.95 319.1 326.7
M 312.45 325.05
Q 312.45 324.6 312.35 324.55 309.95 323.8 307.45 323.35 305.5 326.4 303 328.9 265.95 366.5 227.4 402.55 227.4 403 227.4 403.4 232.85 403.4 238.2 403 238.25 403 238.25 402.55 237.85 402.55 237.4 402.65 234.75 403.15 234.1 401.75 271.6 364.65 308.35 326.75 309.75 325.25 312.45 325.05
M 299.95 320.85
Q 299.95 320.45 299.8 320.4 297.15 319.5 294.95 318.35 291.7 323.45 287.55 327.6 249.95 364.65 212.4 401.75 212.4 402.15 212.4 402.55 216.6 403 220.75 403.35 221.15 403.4 221.6 403.4
L 221.6 403
Q 218.5 403.15 217.4 401.75 254.95 364.65 291.65 326.8 295.15 323.15 299.95 320.85
M 164.05 389.2
Q 164.05 388.8 164.05 388.4 201.55 351.3 238.35 313.5 245.15 306.5 253.25 300.85 253.25 300.45 253.15 300.4 250.8 299.55 249.1 298.35 242.55 306 235.5 313.1 198.45 350.65 159.9 386.7 161.55 387.95 163.35 389.05 163.65 389.2 164.05 389.2
M 153.2 383.4
Q 153.2 382.95 153.2 382.55 190.75 345.45 227.8 307.9 234.4 301.2 241.6 295 241.6 294.6 241.45 294.55 239.15 293.7 237.4 292.5 231.8 300.65 224.9 307.5 187.6 344.85 149.05 380.9 150.5 382.35 152.45 383.2 152.8 383.4 153.2 383.4
M 93.45 324.8
Q 93.6 325.05 94 325.05 130.85 289.25 166.75 252.7 166.95 252.5 167.4 252.5 167.4 252.1 167.25 252.05 165.25 251.3 164.05 250 164.05 250.4 163.85 250.6 128.35 286.75 91.5 321.7 92.35 323.35 93.45 324.8
M 98.2 331.7
Q 98.55 333.8 100 334.8 100.3 335.05 100.7 335.05 138.2 297.95 174.95 260.1 176 259 178.25 259.15 178.25 258.75 178.1 258.7 175.75 257.85 174.05 256.65 173.65 257.1 173.25 257.5 136.75 295.65 98.2 331.7
M 91.5 194.15
Q 91.5 194.55 91.3 194.85 85.4 203 80.7 212.5 80.7 213.3 80.7 214.15 80.7 214.55 80.7 215 88.6 209.55 96.8 200.2 96.95 199.95 97.35 199.95 97.35 199.55 97.15 199.35 94.45 196.65 91.5 194.15
M 337.25 332.3
Q 337.45 332.1 337.45 331.7 337.05 331.7 336.9 331.5 335.95 330.3 333.3 330.85 333.3 331.3 333.1 331.5 302.05 362.55 270.75 393.4 270.75 393.8 270.75 394.2 276.1 392.05 281.45 389.7 281.6 389.65 281.6 389.2 281.2 389.2 281 389 280.75 388.8 280.75 388.4 309.1 360.45 337.25 332.3 Z"/>

<path fill="#5CBEE9" stroke="none" d="
M 133.2 370.9
Q 132.8 370.9 132.75 370.8 132.5 369.55 130.7 370.05 133.65 373.4 136.75 376.5 136.95 376.7 137.4 376.7 138.2 376.3 139.1 376 139.45 375.9 139.9 375.9 139.9 375.45 139.9 375.05 139.45 375.05 139.15 374.9 135.9 373.15 133.2 370.9 Z"/>

<path fill="#A7DFF8" stroke="none" d="
M 125.7 365.05
Q 126.85 368.5 129.95 369.9 130.3 370.05 130.7 370.05 132.5 369.55 132.75 370.8 132.8 370.9 133.2 370.9 133.2 370.45 133.2 370.05 133.2 369.65 133.2 369.2 170.7 332.1 208.05 294.8 213.65 289.2 219.1 283.35 219.1 282.95 218.9 282.85 217.4 282.1 215.75 281.7 194.5 303.35 172.85 324.65 153.95 343.3 136.65 363.35 130.7 370.15 125.7 365.05
M 108.8 209.35
Q 107.35 207.9 105.7 206.65 105.7 207.05 105.5 207.3 89.85 225 74 238.3
L 73.6 238.3
Q 73.8 242.3 72.35 244.15 72.35 245 72.35 245.85 72.35 246.25 72.35 246.65 90.25 228.3 108.4 210.2 108.6 210 109.05 210 109.05 209.55 108.8 209.35
M 137.6 232.7
Q 137.8 232.5 138.2 232.5 138.2 232.05 138 231.95 135.9 230.6 134.05 229.15 120.35 244.7 105.95 259.4 91.1 274.6 76.5 285.85 76.95 288.35 77.75 290.7 77.75 290.85 78.2 290.85 107.8 261.65 137.6 232.7 Z"/>

<path fill="#A7E0F8" stroke="none" d="
M 108.2 345.85
Q 108.2 345.45 108.2 345.05 108.2 344.6 108.2 344.2 145.7 307.1 183 269.8 185.3 267.5 187.4 265 187.4 264.6 187.25 264.55 185.25 263.8 184.05 262.5 183 266.05 180.75 268.35 143.4 305.65 104.85 341.7 106.6 343.3 107.7 345.7 107.8 345.85 108.2 345.85
M 157.4 245.85
Q 157.4 245.4 157.25 245.35 155.25 244.6 154.05 243.35 128.6 269.15 103.45 295.25 94.45 304.6 85.7 310 86.5 312.5 87.7 314.85 87.75 315 88.2 315 88.2 314.6 88.2 314.2 122.85 280.5 156.75 246.05 156.95 245.85 157.4 245.85
M 147.4 239.15
Q 147.4 238.75 147.15 238.55 145.7 237.5 144.05 236.65 128.7 253.05 113.2 269.15 97.05 285.95 80.7 298.35 81.5 301.25 82.7 304 82.75 304.2 83.2 304.2 83.2 303.75 83.2 303.35 83.2 302.95 83.2 302.5 115.35 271.4 146.75 239.35 146.95 239.15 147.4 239.15 Z"/>

<path fill="#A7DFF7" stroke="none" d="
M 100.7 202.45
Q 100.7 202.05 100.5 201.9 99.05 200.8 97.35 199.95 96.95 199.95 96.8 200.2 88.6 209.55 80.7 215 80.25 215 80.25 215.1 79.15 218.85 77.35 221.65 77.35 222.5 77.35 223.3 77.35 223.75 77.35 224.15 88.6 213.3 100.05 202.7 100.3 202.45 100.7 202.45 Z"/>

<path fill="#A6DEF7" stroke="none" d="
M 118 216.85
Q 116.95 215.8 115.7 215 115.7 215.4 115.5 215.6 94 237.05 72.35 258.35 72.35 263.75 72.75 269.15
L 73.2 269.15
Q 73.2 268.75 73.2 268.35 73.2 265.4 73.2 262.5 95.7 240.4 118 218.1 118.2 217.9 118.2 217.5 118.2 217.05 118 216.85
M 128.2 225
Q 128.2 224.55 128.1 224.55 126.1 223.8 124.85 222.5 101.95 245.85 79.7 269.8 74.85 274.95 73.2 270 73.7 274.45 74.45 279.15
L 74.85 279.15
Q 74.85 278.75 74.85 278.35 74.85 277.9 74.85 277.5 101.6 251.8 127.6 225.2 127.8 225 128.2 225 Z"/>

<path fill="#53BAE7" stroke="none" d="
M 344.15 332.55
Q 343.7 332.55 343.3 332.55 343.3 332.95 343.1 333.25 318.55 367.35 281.6 389.2 281.6 389.65 281.45 389.7 276.1 392.05 270.75 394.2 270.75 394.65 270.6 394.7 263.7 397.6 255.75 399.25 255.75 399.65 255.65 399.7 251.9 400.75 247.4 400.9 247.4 401.3 247.3 401.35 243.2 402.5 238.25 402.55 238.25 403 238.2 403 232.85 403.4 227.4 403.4 227 403.4 226.6 403.4 224.1 403.4 221.6 403.4 221.15 403.4 220.75 403.35 216.6 403 212.4 402.55 212 402.55 211.6 402.6 205.55 403.15 202.4 400.9 202 400.9 201.55 400.95 199.3 401.1 198.25 400.05 197.8 400.05 197.4 400 193.25 399.25 189.05 398.4 188.65 398.4 188.25 398.3 186.25 397.85 184.9 396.75 184.5 396.75 184.05 396.65 180 395.75 176.55 394.2 176.15 394.2 175.75 394.1 174.05 393.4 172.4 392.55 172 392.55 171.65 392.4 168 390.65 164.05 389.2 163.65 389.2 163.35 389.05 161.55 387.95 159.9 386.7 159.45 386.7 159.1 386.6 155.75 385.45 153.2 383.4 152.8 383.4 152.45 383.2 150.5 382.35 149.05 380.9 148.65 380.9 148.3 380.7 145.6 379.35 143.2 377.55 142.8 377.55 142.6 377.35 141.55 376.35 139.9 375.9 139.45 375.9 139.1 376 138.2 376.3 137.4 376.7 170.7 411.35 229.1 420.8 229.5 420.9 229.9 420.9 237.85 420.9 245.75 420.9 246.15 420.9 246.6 420.9 295.45 413.9 321.65 384.2 341.35 361.9 357.45 335.85 351.6 333.4 344.15 332.55 Z"/>

<path fill="#A9E3FD" stroke="none" d="
M 337.45 331.7
Q 337.45 332.1 337.25 332.3 309.1 360.45 280.75 388.4 280.75 388.8 281 389 281.2 389.2 281.6 389.2 318.55 367.35 343.1 333.25 343.3 332.95 343.3 332.55 342.9 332.55 342.5 332.4 340.4 331.65 337.45 331.7 Z"/>

<path fill="#7EA9BC" stroke="none" d="
M 363.3 316.7
Q 361.65 315.45 360.05 314.1 319.75 279.8 275.8 249.1 231.85 218.5 181.05 194.2 149.7 179.3 103.2 179.15 128.55 204.25 158.45 224.65 202.9 254.9 251.8 281.15 300.8 307.5 363.3 316.7 Z"/>

<path fill="#EFEFEF" stroke="none" d="
M 318.1 250.6
Q 318.3 250.4 318.3 250 318.3 249.6 318.1 249.35 317.05 248.35 315.8 247.5 315.8 247.9 315.6 248.25 314.25 250.95 311.6 252.5 312.6 254 314.2 254.85 314.55 255 314.95 255 314.95 254.6 314.95 254.15 314.95 253.75 314.95 253.35 316.6 252.1 318.1 250.6
M 298.3 232.5
Q 298.3 232.9 298.05 233.15 295.45 236.3 291.6 238.3 293.1 239.3 294.3 240.6 294.55 240.8 294.95 240.8 294.95 240.4 294.95 240 297.85 237.5 300.95 235.2 301.2 235 301.6 235 301.6 234.55 301.4 234.4 299.95 233.3 298.3 232.5 Z"/>

<path fill="#FBFBFB" stroke="none" d="
M 273.05 206.85
Q 270.35 204.15 267.45 201.65 267 201.65 266.85 201.85 261.3 208 254.95 213.3 254.95 213.75 254.95 214.15 258.05 216.45 261.7 218.15 262 218.3 262.45 218.3 267.85 213.3 273.05 208.1 273.25 207.9 273.25 207.5 273.25 207.05 273.05 206.85
M 163.65 132.45
L 163.2 132.45
Q 162.8 132.45 162.5 132.6 141.3 145.1 123.2 160.8 128.45 162.2 134.9 162.45 135.3 162.45 135.7 162.45 135.7 162.05 135.7 161.6 151.95 147.05 163.65 132.45
M 361.65 290.85
Q 361.65 291.25 361.65 291.7 364.15 294.2 366.8 296.45 367.05 296.7 367.5 296.7 372.9 292.95 374 289.15 374.15 288.75 374.15 288.35 373.75 288.35 373.5 288.15 370.7 285.95 366.65 285 366.65 285.45 366.45 285.65 364.15 287.95 361.65 290 361.65 290.45 361.65 290.85 Z"/>

<path fill="#F7F7F7" stroke="none" d="
M 267.2 201
Q 266.2 199.95 264.95 199.15 264.95 199.55 264.7 199.75 258.8 206.35 251.6 211.65 252.6 213.15 254.2 214 254.5 214.15 254.95 214.15 254.95 213.75 254.95 213.3 261.3 208 266.85 201.85 267 201.65 267.45 201.65 267.45 201.2 267.2 201
M 250.95 184.35
Q 251.2 184.15 251.6 184.15 251.6 183.7 251.4 183.5 250.35 182.45 249.1 181.65 249.1 182.05 248.9 182.25 240.35 190.8 231.6 199.15 231.6 199.55 231.6 199.95 232.4 200.8 233.4 201.45 233.65 201.65 234.1 201.65 234.1 201.2 234.1 200.8 242.95 193 250.95 184.35
M 173.35 126.8
Q 168.95 129.8 163.2 131.6 163.2 132.05 163.2 132.45
L 163.65 132.45
Q 151.95 147.05 135.7 161.6 135.7 162.05 135.7 162.45 135.95 163.85 138.2 163.35 138.65 163.3 139.05 163.3 139.05 162.85 139.05 162.45 157.1 145.45 173.85 127.25 174.05 127.05 174.05 126.6 173.65 126.6 173.35 126.8
M 333.3 268.35
Q 333.3 268.75 333.3 269.15 336.4 271.5 339.3 273.95 339.55 274.15 339.95 274.15 342.05 272.5 343.9 270.65 344.15 270.4 344.15 270 343.7 270 343.55 269.8 340.9 266.6 336.65 265 336.65 265.4 336.4 265.65 334.95 267.1 333.3 268.35
M 324.95 255.85
Q 324.95 255.4 324.75 255.2 321.85 252.3 318.3 250 318.3 250.4 318.1 250.6 316.6 252.1 314.95 253.35 314.95 253.75 314.95 254.15 314.95 254.6 314.95 255 317.1 257.4 320.05 259 320.35 259.15 320.8 259.15 323.35 258.4 324.75 256.5 324.95 256.25 324.95 255.85 Z"/>

<path fill="#F8F8F8" stroke="none" d="
M 275.75 210
Q 275.35 210 275.2 210.2 270.9 215.1 265.75 219.15 265.75 219.55 265.75 220 265.75 220.4 265.75 220.8 268.5 223.1 271.7 224.8 272 225 272.45 225 277 220.8 281.4 216.45 281.6 216.25 281.6 215.8 281.6 215.4 281.4 215.2 278.7 212.5 275.75 210
M 315.6 246.95
Q 312.35 245.1 309.95 242.5 309.55 242.5 309.35 242.7 307.6 245.1 304.95 246.65 304.95 247.1 304.95 247.5 307.7 250.15 310.9 252.3 311.2 252.5 311.6 252.5 314.25 250.95 315.6 248.25 315.8 247.9 315.8 247.5 315.8 247.1 315.6 246.95
M 284.1 218.3
Q 283.7 218.3 283.5 218.5 280.05 222.6 275.75 225.8 275.75 226.25 275.75 226.65 275.75 227.05 275.75 227.5 278.5 229.8 281.7 231.5 282 231.65 282.45 231.65 286.2 228.3 289.75 224.8 289.95 224.55 289.95 224.15 289.95 223.75 289.75 223.55 287.05 220.8 284.1 218.3
M 235.95 166.85
Q 236.15 166.65 236.6 166.65 236.6 166.2 236.4 166 235.35 164.95 234.1 164.1 233.65 164.1 233.45 164.35 221.65 176.7 209.05 188.3 209.9 189.55 211.6 189.9 212 189.95 212.4 189.95 212.4 189.55 212.4 189.15 224.1 177.9 235.95 166.85
M 221.6 147.45
Q 221.6 147.05 221.45 146.65 220.85 144.8 219.1 144.1 219.1 144.55 218.85 144.8 203.45 162.25 185.75 177.45 187.4 178.7 189.2 179.8 189.5 179.95 189.9 179.95 189.9 179.55 189.9 179.15 189.9 178.7 189.9 178.3 205.85 163.4 220.95 147.65 221.15 147.45 221.6 147.45
M 356.65 279.15
Q 356.2 279.15 356.1 279.4 354.7 281.4 352.45 282.5 352.45 282.95 352.45 283.35 352.45 283.75 352.45 284.2 354.95 286.7 357.65 288.95 357.9 289.2 358.3 289.2 361.2 286.7 363.95 283.95 364.15 283.75 364.15 283.35 364.15 282.95 364 282.85 360.4 280.85 356.65 279.15
M 328.3 258.35
Q 327.9 258.35 327.6 258.5 325.8 259.6 324.1 260.85 324.1 261.25 324.1 261.65 326.6 264.65 330.05 266.5 330.4 266.65 330.8 266.65 333 265.55 333.95 263.25 334.15 262.9 334.15 262.5 333.7 262.5 333.6 262.3 331.65 259.55 328.3 258.35 Z"/>

<path fill="#F4F4F4" stroke="none" d="
M 275.75 210
Q 275.75 209.55 275.55 209.35 274.5 208.3 273.25 207.5 273.25 207.9 273.05 208.1 267.85 213.3 262.45 218.3 263.45 219.8 265 220.65 265.35 220.8 265.75 220.8 265.75 220.4 265.75 220 265.75 219.55 265.75 219.15 270.9 215.1 275.2 210.2 275.35 210 275.75 210
M 289.95 224.15
Q 289.95 224.55 289.75 224.8 286.2 228.3 282.45 231.65 283.45 233.15 285 234 285.35 234.15 285.75 234.15 285.75 233.75 285.75 233.3 285.75 232.9 285.75 232.5 289.25 230.1 291.85 226.85 292.05 226.65 292.45 226.65 292.45 226.25 292.25 226.05 291.2 225 289.95 224.15
M 356.65 279.15
Q 356.65 278.75 356.45 278.6 354.95 277.5 353.3 276.65 353.3 277.1 353.15 277.4 351.75 280.15 349.15 281.7 350.65 282.7 351.85 283.95 352.05 284.2 352.45 284.2 352.45 283.75 352.45 283.35 352.45 282.95 352.45 282.5 354.7 281.4 356.1 279.4 356.2 279.15 356.65 279.15 Z"/>

<path fill="#F1F1F1" stroke="none" d="
M 304.95 246.65
Q 307.6 245.1 309.35 242.7 309.55 242.5 309.95 242.5 309.95 242.1 309.75 241.8 309.1 240.85 307.45 240.8 307.05 240.8 306.9 241 305.15 243.95 301.6 245 302.6 246.5 304.2 247.35 304.55 247.5 304.95 247.5 304.95 247.1 304.95 246.65
M 283.5 218.5
Q 283.7 218.3 284.1 218.3 284.1 217.9 283.9 217.7 282.85 216.65 281.6 215.8 281.6 216.25 281.4 216.45 277 220.8 272.45 225 273.45 226.5 275 227.3 275.35 227.5 275.75 227.5 275.75 227.05 275.75 226.65 275.75 226.25 275.75 225.8 280.05 222.6 283.5 218.5 Z"/>

<path fill="#FAFAFA" stroke="none" d="
M 300.95 235.2
Q 297.85 237.5 294.95 240 294.95 240.4 294.95 240.8 298 242.8 300.9 244.8 301.2 245 301.6 245 305.15 243.95 306.9 241 307.05 240.8 307.45 240.8 307.45 240.4 307.25 240.2 304.55 237.5 301.6 235 301.2 235 300.95 235.2 Z"/>

<path fill="#FCFCFC" stroke="none" d="
M 298.05 233.15
Q 298.3 232.9 298.3 232.5 298.3 232.05 298.05 231.85 295.35 229.15 292.45 226.65 292.05 226.65 291.85 226.85 289.25 230.1 285.75 232.5 285.75 232.9 285.75 233.3 285.75 233.75 285.75 234.15 288.5 236.05 290.95 238.1 291.2 238.3 291.6 238.3 295.45 236.3 298.05 233.15 Z"/>

<path fill="#FDFDFD" stroke="none" d="
M 259.95 193.3
Q 259.5 193.3 259.25 193.5 252 199.95 244.9 206.65 244.9 207.05 244.9 207.5 244.9 207.9 244.9 208.3 247.85 210 250.85 211.5 251.2 211.65 251.6 211.65 258.8 206.35 264.7 199.75 264.95 199.55 264.95 199.15 264.95 198.7 264.7 198.55 261.9 196.35 259.95 193.3
M 251.6 184.15
Q 251.2 184.15 250.95 184.35 242.95 193 234.1 200.8 234.1 201.2 234.1 201.65 237.35 203.8 240.85 205.65 241.15 205.8 241.6 205.8 249.6 198.8 256.4 190.65 256.6 190.4 256.6 189.95 256.6 189.55 256.4 189.4 253.65 187.1 251.6 184.15
M 223.25 194.95
Q 223.25 195.4 223.25 195.8 226.85 198 230.85 199.8 231.15 199.95 231.6 199.95 231.6 199.55 231.6 199.15 240.35 190.8 248.9 182.25 249.1 182.05 249.1 181.65 249.1 181.2 248.9 180.95 246.6 178.3 244.1 175.8 243.65 175.8 243.45 176 233.25 185.4 223.25 194.95
M 236.6 166.65
Q 236.15 166.65 235.95 166.85 224.1 177.9 212.4 189.15 212.4 189.55 212.4 189.95 215.85 192.4 219.95 194 220.35 194.15 220.75 194.15 220.75 193.7 220.75 193.3 231.3 183.8 240.95 173.5 241.15 173.3 241.6 173.3 241.6 172.9 241.4 172.6 239.15 169.45 236.6 166.65
M 201.55 183.3
Q 201.55 183.7 201.55 184.15 201.55 184.55 201.55 184.95 204.9 186.65 208.3 188.15 208.65 188.3 209.05 188.3 221.65 176.7 233.45 164.35 233.65 164.1 234.1 164.1 234.1 163.7 233.9 163.4 231.85 160.1 229.1 157.45 228.65 157.45 228.45 157.65 214.9 170.4 201.55 183.3 Z"/>

<path fill="#F5F5F5" stroke="none" d="
M 256.6 189.95
Q 256.6 190.4 256.4 190.65 249.6 198.8 241.6 205.8 243.1 206.8 244.3 208.1 244.5 208.3 244.9 208.3 244.9 207.9 244.9 207.5 244.9 207.05 244.9 206.65 252 199.95 259.25 193.5 259.5 193.3 259.95 193.3 259.95 192.9 259.7 192.7 258.25 191.2 256.6 189.95 Z"/>

<path fill="#F9F9F9" stroke="none" d="
M 220.75 194.15
Q 221.6 194.95 222.55 195.6 222.85 195.8 223.25 195.8 223.25 195.4 223.25 194.95 233.25 185.4 243.45 176 243.65 175.8 244.1 175.8 244.1 175.4 243.9 175.15 242.85 174.15 241.6 173.3 241.15 173.3 240.95 173.5 231.3 183.8 220.75 193.3 220.75 193.7 220.75 194.15
M 201.55 184.15
Q 201.55 183.7 201.55 183.3 214.9 170.4 228.45 157.65 228.65 157.45 229.1 157.45 229.1 157.05 228.9 156.7 228.1 155.1 226.6 154.1 226.6 154.55 226.35 154.75 212.4 168.7 198.25 182.45 198.25 182.9 198.25 183.3 199.9 183.7 200.95 184.75 201.15 184.95 201.55 184.95 201.55 184.55 201.55 184.15
M 199.7 118.05
Q 199.9 117.85 199.9 117.45 199.5 117.45 199.2 117.6 196.6 119.15 192.4 119.1 192.4 119.5 192.4 119.95
L 192.8 119.95
Q 173.35 143 148.2 164.95 149.9 165.8 151.6 166.5 151.95 166.65 152.4 166.65 152.4 166.2 152.4 165.8 176.7 142.55 199.7 118.05
M 214.9 137.45
Q 214.9 137.05 214.7 136.75 214.1 135.8 213.25 134.95 212.85 134.95 212.6 135.15 194.15 154.25 174.9 172.45 174.9 172.9 174.9 173.3 176.15 174.15 177.5 174.8 177.8 174.95 178.25 174.95 178.25 174.55 178.25 174.15 178.25 173.7 178.25 173.3 196.7 155.85 214.3 137.65 214.5 137.45 214.9 137.45
M 209.05 127.45
Q 209.05 127.05 208.9 126.75 207.8 124.95 206.55 123.25 206.55 123.7 206.35 123.9 185 146.75 162.4 168.3 162.4 168.7 162.4 169.15 163.25 169.9 164.9 169.95 165.3 169.95 165.7 169.95 165.7 169.55 165.7 169.15 187 148.3 208.45 127.65 208.65 127.45 209.05 127.45
M 353.15 277.4
Q 353.3 277.1 353.3 276.65 353.3 276.25 353.15 276.15 349.95 274.6 347.45 272.5 347.05 272.5 346.75 272.7 344.55 274.15 342.45 275.85 345.25 278.9 348.45 281.45 348.7 281.7 349.15 281.7 351.75 280.15 353.15 277.4 Z"/>

<path fill="#FEFEFE" stroke="none" d="
M 192.8 119.95
L 192.4 119.95
Q 192 119.95 191.6 120.05 182.4 122.85 174.05 126.6 174.05 127.05 173.85 127.25 157.1 145.45 139.05 162.45 139.05 162.85 139.05 163.3 142.8 164.55 147.4 164.9 147.8 164.95 148.2 164.95 173.35 143 192.8 119.95
M 221.6 147.45
Q 221.15 147.45 220.95 147.65 205.85 163.4 189.9 178.3 189.9 178.7 189.9 179.15 189.9 179.55 189.9 179.95 194.05 181.2 197.5 183.15 197.8 183.3 198.25 183.3 198.25 182.9 198.25 182.45 212.4 168.7 226.35 154.75 226.6 154.55 226.6 154.1 226.6 153.7 226.35 153.4 224.25 150.2 221.6 147.45
M 218.9 143.35
Q 217.2 140.15 214.9 137.45 214.5 137.45 214.3 137.65 196.7 155.85 178.25 173.3 178.25 173.7 178.25 174.15 178.25 174.55 178.25 174.95 181.4 176.4 184.95 177.35 185.3 177.45 185.75 177.45 203.45 162.25 218.85 144.8 219.1 144.55 219.1 144.1 219.1 143.7 218.9 143.35
M 213.25 134.95
Q 213.25 134.55 213.1 134.2 211.15 130.8 209.05 127.45 208.65 127.45 208.45 127.65 187 148.3 165.7 169.15 165.7 169.55 165.7 169.95 169.5 172 174.1 173.2 174.5 173.3 174.9 173.3 174.9 172.9 174.9 172.45 194.15 154.25 212.6 135.15 212.85 134.95 213.25 134.95
M 206.55 123.25
Q 206.55 122.85 206.55 122.45 205.55 116.05 199.9 117.45 199.9 117.85 199.7 118.05 176.7 142.55 152.4 165.8 152.4 166.2 152.4 166.65 157.2 167.65 161.6 169 161.95 169.15 162.4 169.15 162.4 168.7 162.4 168.3 185 146.75 206.35 123.9 206.55 123.7 206.55 123.25 Z"/>

<path fill="#E3E3E3" stroke="none" d="
M 374.15 288.35
Q 374.15 288.75 374 289.15 372.9 292.95 367.5 296.7 374.3 304.5 376.2 290.9 376.6 288 374.15 288.35 Z"/>

<path fill="#F3F3F3" stroke="none" d="
M 364.15 283.35
Q 364.15 283.75 363.95 283.95 361.2 286.7 358.3 289.2 359.8 290.2 361 291.45 361.2 291.7 361.65 291.7 361.65 291.25 361.65 290.85 361.65 290.45 361.65 290 364.15 287.95 366.45 285.65 366.65 285.45 366.65 285 366.65 284.6 366.45 284.3 365.75 283.4 364.15 283.35
M 333.95 263.25
Q 333 265.55 330.8 266.65 331.65 267.9 332.65 268.95 332.9 269.15 333.3 269.15 333.3 268.75 333.3 268.35 334.95 267.1 336.4 265.65 336.65 265.4 336.65 265 336.65 264.6 336.4 264.4 335.4 263.35 334.15 262.5 334.15 262.9 333.95 263.25 Z"/>

<path fill="#ECECEC" stroke="none" d="
M 344.15 270
Q 344.15 270.4 343.9 270.65 342.05 272.5 339.95 274.15 340.2 275.6 341.65 275.8 342.05 275.85 342.45 275.85 344.55 274.15 346.75 272.7 347.05 272.5 347.45 272.5 347.45 272.1 347.35 272.05 345.35 271.3 344.15 270 Z"/>

<path fill="#EEEEEE" stroke="none" d="
M 328.1 257.6
Q 327.1 256.2 324.95 255.85 324.95 256.25 324.75 256.5 323.35 258.4 320.8 259.15 321.5 260.95 323.35 261.55 323.7 261.65 324.1 261.65 324.1 261.25 324.1 260.85 325.8 259.6 327.6 258.5 327.9 258.35 328.3 258.35 328.3 257.9 328.1 257.6 Z"/>

<path fill="#F9D5BE" stroke="none" d="
M 245.55 85.55
Q 245.75 85.35 245.75 84.9 245.7 83.3 244.9 82.4
L 244.15 81.55
Q 231.6 92 219.1 104.1 219.1 107.45 220.55 109.25 220.75 109.5 220.75 109.95 233.25 97.85 245.55 85.55 Z"/>

<path fill="#F4D2BA" stroke="none" d="
M 247.4 88.25
Q 247.4 87.85 247.25 87.5 246.6 86.15 245.75 84.9 245.75 85.35 245.55 85.55 233.25 97.85 220.75 109.95 221.15 111.6 221.9 113.1 222 113.25 222.4 113.25 222.4 112.85 222.4 112.45 235 100.85 246.8 88.45 247 88.25 247.4 88.25 Z"/>

<path fill="#F9D5BD" stroke="none" d="
M 412.7 250.2
Q 412.9 250 413.35 250 364.3 224.4 326.4 187.7 288.55 150.95 258.4 106.5 252.45 97.8 247.4 88.25 247 88.25 246.8 88.45 235 100.85 222.4 112.45 222.4 112.85 222.4 113.25 249.7 160.65 287.4 197.5 315.65 225.1 346.5 250.15 364.9 265.1 389.15 274.15 400.8 262.1 412.7 250.2 Z"/>

<path fill="#BAA08E" stroke="none" d="
M 427.5 234.15
Q 427.7 230.2 426.65 227.95 409.85 191.8 385.05 164.1 349.75 124.75 308.5 91.2 287.9 74.45 259.1 65.75 259.25 72.65 261.55 77.05 278.7 109.5 301.75 135.55 336.75 175.2 378.15 208.75 398.75 225.4 427.5 234.15 Z"/>
</g>
</defs>

<g transform="matrix( 1, 0, 0, 1, 0,0) ">
<use xlink:href="#Layer9_0_FILL"/>
</g>

<g transform="matrix( 1, 0, 0, 1, 0,0) ">
<use xlink:href="#Layer2_0_FILL"/>
</g>

<g transform="matrix( 1, 0, 0, 1, 0,0) ">
<use xlink:href="#Layer1_0_FILL"/>
</g>
</svg>
