
<svg xmlns="http://www.w3.org/2000/svg" version="1.1" xmlns:xlink="http://www.w3.org/1999/xlink" preserveAspectRatio="none" x="0px" y="0px" width="500px" height="500px" viewBox="0 0 500 500">
<defs>
<g id="Layer2_0_FILL">
<path fill="#678392" fill-opacity="0.8980392156862745" stroke="none" d="
M 245 458
Q 245 458.5 245 459 297 459 349 459 349.5 459 350 459 350 458.5 350 458 349.5 458 349 458
L 347.5 458
Q 296.2501953125 458 245 458 Z"/>

<path fill="#6DABCE" fill-opacity="0.9176470588235294" stroke="none" d="
M 54 76
Q 54 76.1357421875 54 76.25 59.298828125 70.1650390625 64.55 64.05 59.1017578125 69.8427734375 54 76 Z"/>

<path fill="#3099D2" fill-opacity="0.996078431372549" stroke="none" d="
M 457.5 115
Q 457.5 114.5 457.4 114 446.55 47.95 378.5 39 338.7498046875 39 299 39
L 297.5 39
Q 208.7498046875 39 120 39 119.2498046875 39 118.5 39 118 39 117.5 39.05 87.05 42.55 68.5 58 68.5 58.5 68.5 59 68.5 59.5 68.25 59.8 66.4138671875 61.928515625 64.55 64.05 59.298828125 70.1650390625 54 76.25 53.2501953125 77.1357421875 52.5 78 52 78 51.85 78.25 42.75 92.25 38.5 111 38.5 114.5 38.5 118 38.5 118.5 38.5 119 38.5 141.375 38.7 163.75
L 38.5 298
Q 38.4375 308.3125 38.5 318.45
L 38.55 333.35
Q 38.5 355.67578125 38.5 378 47.3 448.7 117.5 457.95 118 458 118.5 458 119.249609375 458 120 458 167.750390625 458 215.5 458 216 458 216.5 458
L 217 458
Q 217.25 458 217.5 458
L 218 458
Q 218.5 458 219 458 230.75 458 242.5 458 243 458 243.5 458
L 244 458
Q 244.5 458 245 458 296.2501953125 458 347.5 458
L 349 458
Q 349.5 458 350 458 363.75 458 377.5 458 378 458 378.5 458 392.9 457.4 403.3 452.6 403.5 452.5 403.5 452 403.5 451.5 403.5 451 410.4 448.4 416.6 445.2 417 445 417.5 445 450.6 426.1 458.4 382 458.5 381.5 458.5 381
L 458 381
Q 457.5 344.5 457.5 308 457.5 307.5 457.5 307 457.5 280.5 457.5 254 457.5 253.5 457.5 253 457.5 252.5 457.5 252 457.5 251.5 457.5 251 457.5 183 457.5 115 Z"/>

<path fill="#73A2BD" fill-opacity="0.8392156862745098" stroke="none" d="
M 350 458
Q 350 458.5 350 459 365 459 380 458.5
L 380 458
Q 379.5 458 379 458 378.75 458 378.5 458 378 458 377.5 458 363.75 458 350 458 Z"/>

<path fill="#76A7C1" fill-opacity="0.8470588235294118" stroke="none" d="
M 218 459
Q 218 458.5 218 458
L 217.5 458
Q 217.25 458 217 458
L 216.5 458
Q 216 458 215.5 458 167.750390625 458 120 458 167.25 459.75 217 459 217.5 459 218 459 Z"/>

<path fill="#5C7E90" fill-opacity="0.8823529411764706" stroke="none" d="
M 244 458
L 243.5 458
Q 243 458 242.5 458 230.75 458 219 458 218.5 458 218 458 218 458.5 218 459 231 459 244 459 244.5 459 245 459 245 458.5 245 458 244.5 458 244 458 Z"/>

<path fill="#74ABC9" fill-opacity="0.8823529411764706" stroke="none" d="
M 378.5 39
Q 379.2498046875 39 380 39 340.75 37.25 299 37.5 209.5 38 120 38 120 38.5 120 39 208.7498046875 39 297.5 39
L 299 39
Q 338.7498046875 39 378.5 39 Z"/>

<path fill="#5D95B5" fill-opacity="0.9411764705882353" stroke="none" d="
M 419 445
Q 418.5 445 418.1 445.2 411.9 448.4 405 451 405 451.5 405 452 412.85 449.85 418.75 445.65 419 445.5 419 445 Z"/>

<path fill="#528DAD" fill-opacity="0.9764705882352941" stroke="none" d="
M 460 308
Q 459.5 308 459 308 459 344.5 459.5 381
L 460 381
Q 460 380.5 460 380 460 344 460 308 Z"/>

<path fill="#63AED7" fill-opacity="0.9764705882352941" stroke="none" d="
M 459 252
Q 459.5 252 460 252 460 251.5 460 251 460.75 181.75 459 115 459 183 459 251 459 251.5 459 252 Z"/>

<path fill="#4C8AAD" fill-opacity="0.9882352941176471" stroke="none" d="
M 459 253
Q 459 253.5 459 254 459 280.5 459 307 459 307.5 459 308 459.5 308 460 308 460 307.5 460 307 460 279.5 460 252 459.5 252 459 252 459 252.5 459 253 Z"/>

<path fill="#19273E" stroke="none" d="
M 0 498
Q 87.75 499.75 178 499.35 267.5 499 357 499.4 429.75 499.75 500 498 429 498 358 498 268.5 498 179 498 89.5 498 0 498 Z"/>
</g>

<g id="Layer1_0_FILL">
<path fill="#FFFFFF" stroke="none" d="
M 391.05 392.05
Q 391.8951171875 391.6958984375 391.55 390.1 391.5 389.75 391.5 389.4
L 391.15 389.4
Q 391.1306640625 386.079296875 391.05 382.75 391.0515625 387.4169921875 391.05 392.05
M 365.2 260.3
Q 377.56640625 271.6849609375 390.8 282.25 390.8 275.65078125 390.8 269.05 391.15 269.05 391.5 269.05 391.5 268.7 391.3 268.6 377.8 257.85 365.2 246.25 341.3 227.6 318.2 208.15 284.35 179.75 249.7 152.15 247.7 154.3 245.35 156.25 211.15 184.2 176.95 212.25 142.75 240.3 108.6 268.35 108.6 270.45 108.6 272.5 108.6 272.85 108.6 273.2 108.6 277.8 108.6 282.4 142.75 254.35 176.95 226.3 211.15 198.25 245.35 170.3 247.7 168.35 249.7 166.2 284.35 193.8 318.2 222.2 341.3 241.65 365.2 260.3
M 391.5 197.45
Q 391.305078125 189.6599609375 391 181.8 391.130859375 196.7505859375 391.5 211.5
L 391.5 211.15
Q 391.85 211.15 392.15 211.15 392.15 211.5 392.35 211.7 392.5 211.85 392.85 211.85 419.3416015625 233.491015625 444.45 256.45 444.94296875 256.3033203125 445.45 256.25
L 445.45 256.6
Q 445.8 256.6 445.8 256.5 447.35 251.6 448.2 246.25 448.2 245.9 448.05 245.75 421.25 221 392.85 197.8 392.5 197.8 392.35 197.65 392.15 197.45 392.15 197.1 391.85 197.1 391.5 197.1
L 391.5 197.45
M 328.85 141.95
Q 328.4353515625 144.2517578125 327.15 143.15 326.8 143.15 326.55 143.05 326.1 142.85 325.75 142.5 325.75 142.15 325.6 142.05 318.35 137.1 312.65 130.7 305.25 125.65 298.85 119.6 280.15 102 257.3 88.55 256.95 88.55 256.6 88.5 245.4 87.7 237.95 90.6 237.2 91.3 236.35 91.95 201.7 119.4 167.85 147.9 134.1 176.3 100 204.55 83.05 218.6 65.15 231.6 56 238.25 51.2 249 51.2 249.35 51.2 249.7 53.176953125 252.7728515625 55.35 255.6 59.395703125 249.83203125 65.15 245.65 83.05 232.65 100 218.6 134.1 190.35 167.85 161.95 201.7 133.45 236.35 106 237.2 105.35 237.95 104.65 245.4 101.75 256.6 102.55 256.95 102.6 257.3 102.6 280.15 116.05 298.85 133.65 305.25 139.7 312.65 144.75 318.35 151.15 325.6 156.1 325.75 156.2 325.75 156.55 326.1 156.9 326.55 157.1 326.8 157.2 327.15 157.2 329.25 159 329.1 151.7 328.974609375 146.73125 328.85 141.95
M 328.55 97.5
L 328.55 97.5
Q 328.5501953125 103.2333984375 328.6 109.25 329.60078125 105.25703125 333.25 103.7 333.4 103.6 333.4 103.25 333.75 103.25 334.05 103.25 334.4 103.25 334.75 103.25 359.15 104.5 385.25 103.6
L 385.25 103.25
Q 389.2 103.45 390.4 106.6 390.4423828125 106.72734375 390.7 106.75 390.740234375 101.1103515625 390.8 95.45 391.15 95.45 391.5 95.45 391.5 95.1 391.35 94.85 390.8 94.05 390.8 92.7 390.45 92.7 390.4 92.55 389.2 89.4 385.25 89.2
L 385.25 89.55
Q 359.15 90.45 334.75 89.2 334.4 89.2 334.05 89.2 333.75 89.2 333.4 89.2 333.4 89.55 333.25 89.65 329.5 91.25 328.55 95.45 328.55 96.15 328.55 96.85 328.55 97.2 328.55 97.5 Z"/>

<path fill="#000000" stroke="none" d="
M 391.3 282.65
Q 391.0498046875 282.45078125 390.8 282.25 377.56640625 271.6849609375 365.2 260.3 341.3 241.65 318.2 222.2 284.35 193.8 249.7 166.2 247.7 168.35 245.35 170.3 211.15 198.25 176.95 226.3 142.75 254.35 108.6 282.4 108.6 284.5 108.6 286.55
L 108.6 287.25
Q 108.6 337.975 108.6 388.7 108.6 389.05 108.6 389.4 108.6 396.075 108.6 402.75 108.6 403.1 108.6 403.45 110.2 414.65 120.35 417.2 120.7 417.3 121.05 417.3
L 144.4 417.65
Q 180.95 417.5 216.5 416.6 216.85 416.6 217.2 416.6 217.2 416.25 217.2 415.9 217.2 409.22421875 217.2 402.55 217.2 402.2 217.2 401.85 217.2 365.632421875 217.2 329.45 217.55 329.45 217.85 329.45 218.2 329.45 218.55 329.45 218.55 329.1 218.55 328.75 218.55 328.4 218.55 328.05 218.55 327.7 218.55 327.35 218.55 325.3 218.55 323.2 249.7 323.2 280.8 323.2 281.15 323.2 281.5 323.2
L 281.5 402.55
Q 281.5 402.9 281.5 403.25 281.5 409.9251953125 281.5 416.6 281.5 416.95 281.5 417.3 329.6 417.3 377.65 417.3 378 417.3 378.35 417.3 386 415.3 388.7 412.1
L 388.7 412.45
Q 389.8 410.75 390.4 408.4 390.45 408.3 390.8 408.3 390.8 407.95 390.8 407.6 390.8 406.9 390.8 406.2 391.95 406 391.55 404.15 391.5 403.8 391.5 403.45
L 391.15 403.45
Q 391.116796875 397.7568359375 391.05 392.05 391.0515625 387.4169921875 391.05 382.75
L 390.8 283.1
Q 391.15 283.1 391.5 283.1 391.5 282.75 391.3 282.65
M 385.25 103.25
L 385.25 103.6
Q 359.15 104.5 334.75 103.25 334.4 103.25 334.05 103.25 333.75 103.25 333.4 103.25 333.4 103.6 333.25 103.7 329.60078125 105.25703125 328.6 109.25 328.5755859375 109.387109375 328.55 109.5 328.55 110.2 328.55 110.9 328.55 111.25 328.55 111.55
L 328.55 111.6
Q 328.55 125.7291015625 328.85 141.95 328.974609375 146.73125 329.1 151.7 329.25 159 327.15 157.2 326.8 157.2 326.55 157.1 326.1 156.9 325.75 156.55 325.75 156.2 325.6 156.1 318.35 151.15 312.65 144.75 305.25 139.7 298.85 133.65 280.15 116.05 257.3 102.6 256.95 102.6 256.6 102.55 245.4 101.75 237.95 104.65 237.2 105.35 236.35 106 201.7 133.45 167.85 161.95 134.1 190.35 100 218.6 83.05 232.65 65.15 245.65 59.395703125 249.83203125 55.35 255.6 52.9814453125 259.0603515625 51.2 263.05 51.2 263.4 51.2 263.75 60.4 278.05 74.1 287.8 74.35 287.95 74.7 287.95 85.3 283 93.55 275.7 126.65 246.5 160.75 218.25 194.75 190.1 228.8 161.9 239.15 153.25 249.7 144.75 284.15 172.55 317.95 201.05 351.75 229.45 385.25 258.35 403.75 274.25 424.7 287.95 431.55 287.2 433.95 281.85 434 281.7 434.35 281.7 434.35 281.4 434.35 281.05 436.4 279.95 437.4 277.7 437.5 277.55 437.8 277.55 437.8 277.25 437.8 276.9 439 276.65 439.5 275.65 439.55 275.5 439.9 275.5 439.9 275.15 439.9 274.8 442.6 270.6 445.45 270.3
L 445.45 270.65
Q 445.8 270.65 445.8 270.55 447.35 265.65 448.2 260.3 448.2 259.95 448.05 259.8 446.2490234375 258.13671875 444.45 256.45 419.3416015625 233.491015625 392.85 211.85 392.5 211.85 392.35 211.7 392.15 211.5 392.15 211.15 391.85 211.15 391.5 211.15
L 391.5 211.5
Q 391.130859375 196.7505859375 391 181.8
L 390.7 115.7
Q 390.7669921875 112.6169921875 390.8 109.5 391.15 109.5 391.5 109.5 391.5 109.15 391.35 108.9 390.8 108.1 390.8 106.75 390.7470703125 106.75 390.7 106.75 390.4423828125 106.72734375 390.4 106.6 389.2 103.45 385.25 103.25 Z"/>
</g>

<g id="Layer0_0_FILL">
<path fill="#FFFFFF" stroke="none" d="
M 391.5 269.05
Q 391.5 268.7 391.3 268.6 377.8 257.85 365.2 246.25 341.3 227.6 318.2 208.15 284.35 179.75 249.7 152.15 247.7 154.3 245.35 156.25 211.15 184.2 176.95 212.25 142.75 240.3 108.6 268.35 108.6 270.45 108.6 272.5 108.6 272.85 108.6 273.2 108.6 330.95 108.6 388.7 108.6 389.05 108.6 389.4 110.2 400.6 120.35 403.15 120.7 403.25 121.05 403.25
L 144.4 403.55
Q 180.95859375 403.4603515625 216.5 402.55 216.85 402.55 217.2 402.55 217.2 402.2 217.2 401.85 217.2 358.6 217.2 315.4 217.55 315.4 217.85 315.4 218.2 315.4 218.55 315.4 218.55 315.05 218.55 314.7 218.55 314.35 218.55 314 218.55 313.65 218.55 313.3 218.55 311.25 218.55 309.15 249.7 309.15 280.8 309.15 281.15 309.15 281.5 309.15 281.5 355.85 281.5 402.55 281.5 402.9 281.5 403.25 329.6 403.25 377.65 403.25 378 403.25 378.35 403.25 386 401.25 388.7 398.05
L 388.7 398.4
Q 389.8 396.7 390.4 394.35 390.45 394.25 390.8 394.25 390.8 393.9 390.8 393.55 390.8 392.85 390.8 392.15 391.95 391.95 391.55 390.1 391.5 389.75 391.5 389.4
L 391.15 389.4
Q 390.8 329.25 390.8 269.05 391.15 269.05 391.5 269.05
M 328.55 97.5
L 328.55 97.5
Q 328.550390625 115.862890625 329.1 137.65 329.25 144.95 327.15 143.15 326.8 143.15 326.55 143.05 326.1 142.85 325.75 142.5 325.75 142.15 325.6 142.05 318.35 137.1 312.65 130.7 305.25 125.65 298.85 119.6 280.15 102 257.3 88.55 256.95 88.55 256.6 88.5 245.4 87.7 237.95 90.6 237.2 91.3 236.35 91.95 201.7 119.4 167.85 147.9 134.1 176.3 100 204.55 83.05 218.6 65.15 231.6 56 238.25 51.2 249 51.2 249.35 51.2 249.7 60.4 264 74.1 273.75 74.35 273.9 74.7 273.9 85.3 268.95 93.55 261.65 126.65 232.45 160.75 204.2 194.75 176.05 228.8 147.85 239.15 139.2 249.7 130.7 284.15 158.5 317.95 187 351.75 215.4 385.25 244.3 403.75 260.2 424.7 273.9 431.55 273.15 433.95 267.8 434 267.65 434.35 267.65 434.35 267.35 434.35 267 436.4 265.9 437.4 263.65 437.5 263.5 437.8 263.5 437.8 263.2 437.8 262.85 439 262.6 439.5 261.6 439.55 261.45 439.9 261.45 439.9 261.1 439.9 260.75 442.6 256.55 445.45 256.25
L 445.45 256.6
Q 445.8 256.6 445.8 256.5 447.35 251.6 448.2 246.25 448.2 245.9 448.05 245.75 421.25 221 392.85 197.8 392.5 197.8 392.35 197.65 392.15 197.45 392.15 197.1 391.85 197.1 391.5 197.1
L 391.5 197.45
Q 390.25 147.5 390.8 95.45 391.15 95.45 391.5 95.45 391.5 95.1 391.35 94.85 390.8 94.05 390.8 92.7 390.45 92.7 390.4 92.55 389.2 89.4 385.25 89.2
L 385.25 89.55
Q 359.15 90.45 334.75 89.2 334.4 89.2 334.05 89.2 333.75 89.2 333.4 89.2 333.4 89.55 333.25 89.65 329.5 91.25 328.55 95.45 328.55 96.15 328.55 96.85 328.55 97.2 328.55 97.5 Z"/>
</g>
</defs>

<g transform="matrix( 1, 0, 0, 1, 0,0) ">
<use xlink:href="#Layer2_0_FILL"/>
</g>

<g transform="matrix( 1, 0, 0, 1, 0,0) ">
<use xlink:href="#Layer1_0_FILL"/>
</g>

<g transform="matrix( 1, 0, 0, 1, 0,0) ">
<use xlink:href="#Layer0_0_FILL"/>
</g>
</svg>
