
<svg xmlns="http://www.w3.org/2000/svg" version="1.1" xmlns:xlink="http://www.w3.org/1999/xlink" preserveAspectRatio="none" x="0px" y="0px" width="1080px" height="1080px" viewBox="0 0 1080 1080">
<defs>
<g id="monkey_0_Layer2_0_FILL">
<path fill="#727282" stroke="none" d="
M 138.05 210.8
Q 126.75 215.5 108.85 226.6 87.25 239.95 75 249.5 57.2 263.2 46.2 277.95 35.45 292.3 29.45 309.45 23.5 326.75 22.95 344.6 22.7 354.55 24.15 366.9 24.95 374 27.4 389.05 29.15 399.4 30.45 404.55 32.6 413.15 35.9 419.3 44.65 435.7 67.85 447.75 70.6 449.15 71.9 450.05 73.2 450.9 74.25 451.9 81.3 445.85 90.55 438.15 114.1 418.4 126.3 404.5 143.8 384.75 151.6 363.95 157.8 347.35 159.85 323.2 161.25 295.15 162.15 281.2 164.7 242 175.25 204.2 174.6 204.3 173.95 204.35 172.9 204.35 169.65 204.2 154.9 203.7 138.05 210.8
M 130.75 646.15
Q 131 647.25 131.35 648.4 139.9 678.85 151.4 702.1 164.9 729.6 183.3 749 212.15 779.45 256.3 794.05 297.2 807.6 342.85 805 364.75 803.75 399.85 797.5 444.1 789.55 456.6 787.95 459.5 787.55 487.55 784.55 506.4 782.6 518.5 780.4 553.4 773.95 574.65 758.4 585.35 750.6 595.75 738.1 603 729.4 613.2 714.4 623.2 699.7 628.25 690.15 635.55 676.25 638.2 663.7 639.35 658.4 639.9 652.15 639.7 652.15 639.5 652.25 591.45 659.65 533.85 660.2 490.3 660.6 427.45 656.75 356.35 651.9 320.8 650 259.2 646.6 214.25 647.75 169.65 648.8 165.3 648.8 146.25 648.5 130.75 646.15
M 351.15 260.65
Q 345.25 257.65 333.35 250.4 310.05 236.1 296.5 234.1 272.45 230.45 244.2 249.1 230.15 258.45 220 269.9 208.85 282.6 203.55 296.85 197.05 314.3 198.15 337.6 198.9 352.35 204 379.35
L 224.3 487
Q 220 486.65 216.35 483.8 212.75 481 211.3 476.9 182.5 505.05 157.15 534.25 145.4 547.7 139.25 556.95 130.4 570.15 126.9 582.7 122.8 597.35 124.65 615.55 125.55 624.65 128.2 636.1
L 162.95 634.9
Q 211.35 633.2 235.6 633.2 276.4 633.2 334.55 636.85 367.5 638.9 433.5 643.4 490.75 646.85 532.15 646.45 585.4 646 630.3 639.5 634.45 638.95 636.45 638.95 638.55 638.95 640.25 639.5 640.2 633.65 639.9 625.35 639.4 612.8 638.75 606.25 637.6 595.65 635.1 587.45 632 577.4 625.35 566.55 620.5 558.6 611.95 547.6 598.15 530.4 591.45 521.65 579.75 506.5 573.1 494.3 564.6 478.7 561.45 463.35 557.9 446.05 561.55 430.85 564.35 419.5 574.7 401.25 586.05 381.15 589.1 372 598.55 344.1 586.05 313.9 574.05 284.7 548.1 268 523.75 252.25 491.9 249.4 462.35 246.85 432.05 255.5 411.6 262.2 401.3 264.8 383.4 269.4 370.1 267.15 361.2 265.6 351.15 260.65
M 460.1 394.35
Q 460.35 390.9 461.3 388.3 462.3 385.35 464.6 382 466.05 379.95 469.1 376.35 473.9 370.75 477.2 368 482.25 363.95 487.35 363.35 494.15 362.5 503.3 367.85 518.25 376.65 523.65 389.45 526.45 396 526 402.8 525.4 410.15 521.1 414.95 517.25 419.15 509.25 422.1 499.85 425.55 490.15 426.15 480.25 426.8 473.25 424 469.05 422.35 465.95 419.45 462.6 416.4 461.15 412.45 460.25 410 459.95 406.65 459.85 404.85 459.85 400.6 459.9 396.2 460.1 394.35
M 271.35 380.7
Q 276 379 280.8 379.8 289.4 381.3 298.45 391.3 302.7 396.1 303 399.8 303.4 404 299.95 407.95 298.75 409.4 296.8 411.15 294.45 413.05 293.35 414 289.7 417.3 287.75 418.85 284.45 421.5 281.5 422.6 277.05 424.3 272.25 423.1 267.4 421.95 264.2 418.45 258.8 412.55 259.1 401.65 259.2 391.7 263.65 386.1 266.65 382.4 271.35 380.7
M 310.45 463.25
Q 315.45 455.15 323.6 449.05 330.7 443.75 340.5 439.8 348 436.85 358.95 433.95 369.85 431.05 377.95 430.3 395.6 428.65 415.95 435.55 431.25 440.75 451.6 452.15 458.95 456.35 463.1 459.4 469.1 463.85 472.65 468.75 476.6 474.25 478.2 480.95 479.75 487.75 478.55 494.35 477.8 498.2 476.05 502.85 474.95 505.45 472.4 510.9 468.65 518.45 465.75 521.65 462.7 525 454.8 529.75 446.9 534.4 443.85 537.85 443.4 538.35 441.1 541.3 439.45 543.4 438.2 544.55 436.4 546.05 434.3 546.6 431.95 547.2 430.1 546.25 427.85 545.05 427.2 542.15 426.6 539.5 427.5 536.75 429.35 531.15 436.1 526.15 439.85 523.3 448.15 518.1 458 511.1 463.2 500.35 466.15 494.3 466.15 489.3 465.85 477.35 448.95 466.6 429.95 454.55 408.6 447.95 398.1 444.65 389.8 444.05 382.6 443.6 373.95 445.1 367.8 446.2 358.35 448.75 348.3 451.6 341.9 454.3 333.15 457.95 327.05 462.75 319.5 468.95 317.3 476 315.35 482 317 490.85 318.3 497.9 321.15 504.65 324.45 512.55 330.55 521.25 334.75 527.1 342.5 536.3 346.55 541.1 345.1 544.05 344.35 545.65 342.35 546.1 340.5 546.6 338.7 545.95 336.4 545.05 333.15 541.3
L 322.05 528.6
Q 315.3 520.75 312.75 516.2 310.5 512.15 308.9 506.65 307.85 502.9 306.55 496.5 304.5 486.8 304.7 481.3 305.1 472 310.45 463.25
M 393.85 517.6
Q 396.2 515.6 400.95 511.6 402.9 509.75 405.9 505.85 409 501.65 410.65 500 413.6 497.1 417.05 495.8 420.95 494.35 424.25 495.55 426.2 496.2 427.45 497.8 428.7 499.45 428.45 501.25 428.1 503.6 425.25 505.25 421.6 506.9 420 507.75 417.05 509.45 413.8 514.05 409.8 519.65 408.2 521.1 405.9 523.05 404.7 524.05 402.65 525.75 401.7 527.3 400.45 529.45 400.45 533.05 400.45 535.1 400.65 539.2 400.65 542.6 399.1 545.25 397.45 548.25 394.6 548.45 392.55 548.6 390.7 547 388.95 545.55 388.25 543.25 387.7 541.5 387.65 538.95 387.65 538.55 387.7 534.5
L 387.7 529.55
Q 387.85 526.75 388.5 524.75 389.75 521.25 393.85 517.6
M 369.65 514.55
Q 370.7 515.8 372.35 518.7 372.95 519.65 375.55 522.65 377.55 525 378.35 526.75 379.45 529.2 378.8 531.8 378.05 534.6 375.75 535.15 372.75 535.95 368.5 531.7
L 360.95 523.95
Q 356 518.8 352.7 516.75 352.65 516.65 348 514.2 345.15 512.7 343.65 511.2 341.6 509.3 341.1 506.5 340.6 503.6 342.35 501.8 343.7 500.45 345.95 500.25 347.9 500.05 350 500.8 353.5 501.95 357.75 505.1 360.15 506.95 364.85 510.7 365.75 511.3 367.4 512.5 368.8 513.55 369.65 514.55
M 668.5 231.25
Q 658.15 223.65 648.65 219.95 633.7 214.05 617.25 215.55 612.95 216.05 610.5 215.65 610.15 215.55 609.8 215.5 621.3 267.25 625.5 283.2 635.75 321.4 648.95 349.05 660.45 373.05 679.25 399.75 689.3 414.05 706.75 436.15 721.85 407.55 728.25 387.85 737.25 360.2 734.6 336.55 732.9 321.4 726 304.7 720.65 291.7 710.9 275.05 704.7 264.7 700.25 259.35 696.1 254.4 686.25 245.9 674.7 235.8 668.5 231.25 Z"/>

<path fill="#04071A" stroke="none" d="
M 711.95 461.9
Q 689.25 434.15 684.2 427.8 651.8 386.9 636.35 354.85 622.35 325.85 611.85 284.05 610.3 277.55 595.7 210 586.05 165.35 576.15 138 572 126.45 567.15 115.9 530.6 77.25 482.55 51.8 431.65 24.9 375.8 17.1 360 14.9 348.3 15.15 333.35 15.55 321.45 19.8 308.15 24.6 295.05 35.55 285.25 43.75 272.95 57.75 237.7 98 215.3 140.45 190.4 187.5 182.65 234.95 180.05 250.75 178.05 276.55 175.45 310.75 174.65 318.45 169.35 367.75 152 396.55 142.15 412.85 124.95 429.35 114.75 439.15 92.2 457.35 69.7 475.45 59.4 485.4 42.3 501.95 32.5 518.3 18.65 541.7 15.25 571.15 12.1 598.7 18.3 627.35 23.9 653.05 37.05 680.2 48.2 703 65.65 728.75 115.9 802.5 179.25 845.35 214.1 868.9 252.2 882.3 279.45 891.95 306.75 895.7 306.75 892.6 311 890.15 316.3 886.95 323 887.15 393.25 888.9 463.15 879.4 533.15 869.85 600.4 849.45 639.8 837.5 667.1 824.25 701.95 807.35 725.35 784.65 754 757.05 775.65 711.15 789.5 681.65 793.45 658.15 805.3 585.1 739.2 496.4 729.05 482.8 711.95 461.9
M 651.4 595.65
Q 652.3 602.75 652.9 617.15 653.6 635.1 653.3 644.4 652.7 659.6 649.5 671.3 646.25 683.25 638.75 696.85 634.15 705.2 624 720.6 612.6 737.9 605.95 746.35 595.2 760 584.05 768.35 566.75 781.45 539.65 788.35 526.8 791.65 490.65 797.15 436.75 806.55 409.75 810.8 362.3 818.2 328.35 818.3 284.15 818.4 247.05 806.6 205.15 793.35 177.4 766.25 152.9 742.45 137.1 705.35 125.9 679.05 118.2 643.75 117.6 643.6 117 643.5 116.15 641.55 117.35 639.95 116.65 637 116.05 633.9 113.1 619.05 112.15 608.95 110.95 595.25 112.75 583.95 116.85 558.65 138.15 532.9 146.2 523.25 158.5 511.2 165.65 504.2 180.1 490.65 187.5 483.7 191.25 478.95 196.75 472 199.05 465.1 202.5 454.5 199.35 440.2 198.1 434.7 191.55 415.4 179.3 379.4 180.65 344.4 182.05 306.1 199.75 276.7 218.85 245.1 254.1 231.1 290.6 216.55 322.8 230.35 327.65 232.5 343.05 241.1 355.4 248 363.75 250.4 381.25 255.4 406.6 249.5 413.25 247.9 428.25 243.5 442.25 239.45 449.8 237.8 482.95 230.65 515.7 239 549.6 247.6 572.8 270.45 596.8 294.1 603.5 328.25 610.35 363.25 595.55 392.3 586.45 407.65 582.05 415.3 574.25 429 573 439.6 571.8 449.9 575.5 461.85 578.35 470.75 584.8 482.75 600.2 511.3 620.15 536.25 633.7 553.15 634.85 554.7 642.75 565.5 646.45 574.85 649.95 583.75 651.4 595.65 Z"/>
</g>

<g id="monkey_0_Layer1_0_FILL">
<path fill="#B6B6CF" stroke="none" d="
M 304 244.3
Q 308.25 246.15 310.3 246.5 313.9 247.15 315.65 244.95 316.7 243.65 316.55 241.6 316.4 239.75 315.35 238 312.45 232.9 305.75 230.65 300.1 228.8 292.85 229.1 274.7 229.9 255.3 240.15 240.35 248 222.3 263 217.75 266.85 215.4 269.2 211.7 272.8 209.45 276.25 204.75 283.2 201.6 296.6 196.1 321.5 198.55 342.9 199.05 346.5 200.1 353.6 200.95 359.9 200.9 364.3 200.8 367.6 200.3 374.3 199.95 380.3 201 384.25 201.5 385.9 203.3 390.15 204.85 393.8 205.25 396.15 206.05 400.35 204.55 407.45 202.75 415.7 202.75 418.75 202.8 424.4 206.4 432.5 211.55 443.95 212.15 445.9 212.7 447.65 213.7 451.05 214.6 453.65 215.85 455.3 215.5 455.95 215.3 456.85 214.95 458.3 214.7 461.35 214.5 462.65 214 465.2 213.95 465.7 213.8 466.65 213.7 467.5 213.45 468.1 213.05 469.05 212.15 469.95 211.4 470.75 207.75 473.65 205.9 475.3 203.25 478.1 201.1 480.45 200.55 481.6 199.65 483.45 199.45 483.7 199.15 484.2 197.85 485.25 194.7 487.8 192.65 489.9 190.4 492.15 190.5 493.95
L 190.5 494
Q 188.45 495.95 186 499.05 171.9 516.9 163 529.05 160.55 532.4 158.1 535.85 157.35 535.85 156.55 536.05 152.6 537.05 147.4 541.85 129.65 558.25 118.9 580.1 116.85 584.35 116.2 587.35 115.3 591.5 116.6 594.7 116.95 595.65 118.05 597.55 119.15 599.4 119.5 600.45 120.15 602.4 119.95 605.25 119.85 606.9 119.45 610.15 118.9 616.95 121.95 627 126.45 642 126.8 643.7 127.05 644.95 128.2 653.25 129 659.1 130.25 662.65 131.5 666.15 134.45 671.2 138.5 678 139.2 679.45 140.8 682.6 142.65 687.45 143.65 690.15 145.7 695.6 148.75 703.05 153.8 711.7 156.9 717 163.45 727 170.9 738.5 175.8 743.9 179.4 747.85 184.95 752.45 184.95 752.55 184.95 752.7 185.3 754.65 186.8 756.5 187.8 757.6 190 759.4 196.75 765 200.5 767.85 206.45 772.3 211.7 775.3 213.85 776.5 216.7 777.85 224.45 783.55 231.25 786.1 236.75 788.1 245.6 789.25
L 291.15 806.05
Q 295.5 807.75 298.9 807.65 303.1 807.65 304.9 804.95 312.05 807.1 317.35 807.6 321.6 807.95 326.85 807.65 330.05 807.45 336.35 806.75 339.45 806.4 341.55 805.1 344.15 803.5 343.65 801.2 342.95 797.6 335.75 797.95 321.75 798.6 299.9 791.8 288.15 787.95 282.25 786.2 272.1 783.15 264.5 781.95 257 779.1 244.95 774.2 239.05 771.75 236.25 770.45 231.55 768.1 228.3 765.45 225.9 763.45 222.85 760.2 219.55 756.35 217.8 754.5 214.55 751 197.45 736.3 184.85 725.45 179.45 716.35 176.45 711.3 172.55 700.95
L 152.85 649
Q 149.5 639.95 144.3 640.3 141.95 640.35 140.15 642.4 139 643.7 138.35 645.35 137.55 642.4 136.65 639.2 136.5 638.7 136.4 638.2 137.3 638.85 138.35 639.25 140.7 640.05 142.7 639.1 145.15 637.95 146 634.6 146.6 632.25 146.45 628.4 145.95 607.5 149.6 590.9 152.3 578.75 157.3 568.95 162.35 560.05 164.2 555.3 164.8 553.9 165.85 550.5 166.85 547.45 167.55 545.8 169.05 542.4 171.7 538.65 173.2 536.35 176.75 532 181.3 526.2 183.7 523.7 187.8 519.25 191.8 516.55 193.6 515.25 203.85 509.8 211.35 505.9 214.75 501.8 217.6 498.5 220.85 490.8 221.05 490.3 221.3 489.85 221.3 489.9 221.3 489.95 222.6 493.65 223.95 495.7 224.6 496.6 225.9 498.35 227.15 500.5 227.95 505.15 228.7 509.25 230.65 510.05 231.75 510.5 233 510.05 234.15 509.65 235 508.6 236.05 507.3 236.85 504.1
L 237.8 500.45
Q 239.35 494.45 240.05 491 240.65 488.05 240.85 485.8 240.95 482.65 241.15 481.65 241.45 480.4 242.2 478.35
L 245.25 470.15
Q 246.35 467.25 246.4 465.75 246.6 463.05 244.9 461.6 244.4 461.15 243.8 460.95 243.6 460.25 243.35 459.5 242.35 456.25 232.4 427.55 225.7 408.2 222.85 395.15 218.85 376.7 218.85 358.5 218.75 344.4 211.7 342.85
L 212.45 313.3
Q 212.65 305.95 213.05 302.3 213.7 296.25 215.4 291.7 218 284.9 224.05 278.4 228.5 273.65 236.1 267.65 246.4 259.65 255.05 254.45 265.65 248 275.8 244.75 292.45 239.35 304 244.3
M 222.65 470
Q 222.65 470.05 222.65 470.15 222.75 471.1 222.9 472 222.7 471.9 222.45 471.8 222.35 471.4 222.3 470.95 222.3 470.85 222.35 470.75 222.45 470.45 222.65 470
M 122.9 233.35
Q 125.15 231.65 126.1 230.95 129.4 228.8 134.2 227.25 137.2 226.3 143 225.05
L 164.1 220.5
Q 167.25 219.8 168.7 219.35 171.2 218.5 172.9 217.25 174.85 215.75 175.8 213.6 176.75 211.2 175.95 209.05 174.55 205.4 167.45 203.75 162.55 202.5 159.85 202.15 155.65 201.5 152.25 202.1 148.2 202.75 145.2 205.3 141.95 207.95 141.35 211.6 122.2 216.35 104.8 226.3 87.45 236.2 73.6 250.35 71.3 252.8 70 253.75 67.9 255.45 65.85 255.9 65.15 256.05 63.4 256.2 61.85 256.3 61 256.6 58.55 257.4 55.1 261.35 43.8 274.9 38.3 281.8 32.85 288.55 30.15 293.15 26.2 299.7 24.95 305.8 24.85 306.6 23.75 314.9 23.05 320.35 21.45 323.6 20.65 325.25 18.1 328.8 15.85 331.95 15 333.95 13.2 338.35 13.9 346.35 14.95 357.45 19.25 374.65
L 29.15 411.85
Q 31.8 421.7 34.25 426.15 38.35 433.3 45.4 437.35 47.25 438.4 56.1 442.15 62.7 444.85 65.95 448.05 66.5 448.55 69.7 452.35 71.9 455 73.75 456.2 76.25 457.85 79.3 457.35 82.5 456.8 83.25 454.15 83.95 451.95 82.15 449.5 81.05 447.85 78.3 445.65 66.95 436.45 53.3 418.25 46.6 409.35 42.95 403.2 37.9 394.55 35.7 386.65 33.4 378.3 33.45 367.55 33.45 360.75 34.7 348.05
L 37.7 316.85
Q 38.35 309.8 39.75 306.6 40.95 304.05 44.95 299.05 69.4 270.05 92.5 251.2 102.75 242.9 109.85 239.95 111.5 239.25 114.9 238 117.8 236.8 119.65 235.7 120.85 234.95 122.9 233.35 Z"/>

<path fill="#10194D" stroke="none" d="
M 365.65 33.15
Q 369.1 33.55 371.7 33.05 374.9 32.55 377.2 30.4 379.65 28.15 379.65 25.25 379.6 20.55 373.85 18.3 370.4 16.95 362.8 16.1 358.3 15.6 351.2 13.7 340.9 11 339.65 10.7 326.05 7.7 317.95 12.3 313.85 14.65 309.8 19.8 305.4 26.1 303.1 29.1 294.85 40.05 282.7 46.9 277.25 49.75 274.55 51.2 269.75 53.8 266.9 56.3 263.2 59.55 258.5 66.85 218.75 126.85 185.2 189.7 183.3 193.2 182.5 195.4 181.4 198.65 181.55 201.45 181.85 204.7 184.25 207.1 186.75 209.45 189.75 208.85 183.95 217.45 180.8 227.45 177.65 237.45 177.35 247.8 172.6 248 169.9 253.35 167.7 257.5 167.1 263.75 162 316.75 163.8 369.55 164 375.65 163.85 378.45 163.5 383.4 162.05 387 160.15 391.9 155.25 396.75 153.55 398.35 146 404.7 137.7 411.65 120.4 430.25 104.55 447.3 94.25 455.15 91.5 457.2 73.4 469.15 60.65 477.5 53.95 484.6 47.4 491.55 41.5 502.15 37.95 508.5 32 521.55
L 20.5 546.8
Q 20.25 547.2 20 547.5 17.2 551.65 15.8 555.35 14.4 559.05 13.9 563.9 13.55 567.05 13.4 572.8 12.75 594.3 13.3 605.05 15.2 646.2 32.25 683.95 39.9 700.9 55.75 726.25 76.1 758.75 102.8 796.05 106.1 800.7 110.55 802.8 115.7 805.25 118.45 801.8 154.85 826.7 192.15 850 230 873.55 256.05 885.15 292.6 901.55 325.3 904.75 330.05 905.15 333.75 903.4 338.1 901.35 337.35 897.7 338.25 897.9 344.35 899.55 348.6 900.75 351.4 900.65 355.2 900.5 358.05 897.7 361 894.8 359.9 891.55 358.7 888.05 352.35 885.95 339.65 881.7 311.5 875.55 284.55 869.65 270.85 864.75 249.35 857.1 225.25 841.85 210.5 832.5 183.15 812.25 159.2 794.5 147.35 784.65 128.1 768.5 115.1 753.2 106.45 742.9 97.25 728.95 91.65 720.6 81.15 703.4 76.45 695.55 74.35 691.7 70.75 685.1 68.65 679.5 66.05 672.6 64.25 663.5 63.2 657.9 61.7 647.15
L 56.3 606.3
Q 52.5 578.1 52.85 562.65 53.35 538.35 62.25 521.15 67.5 511 84.5 491.65 92.45 482.55 97.75 475 103.65 471 111.15 466.4 130.1 454.8 136.2 450.55 165.65 430.1 174.8 406.9 179.5 394.95 180.4 377.65 180.5 357.4 180.6 347.35 180.9 319.9 186.75 286.25 190.35 265.5 199.35 225.85 203.65 206.7 206.55 196.25 210.9 180.05 216 167.45 227.55 138.9 252.05 106.95 268.05 86.15 286.55 67.45 304.15 49.65 320 40.85 340.6 29.5 359.55 32.15 361.6 32.5 365.65 33.15 Z"/>

<path fill="#727282" stroke="none" d="
M 632.5 231.3
Q 632.7 232.45 632.9 233.75
L 636.3 257.05
Q 637.2 263.35 638 266.6 639.35 271.85 641.55 275.55 642.2 276.7 643.45 278.4 643.45 267.65 641.95 256.65 640.8 248.5 638.3 244.35 635.95 241.1 635.25 239.25 634.95 238.6 634.3 235.35 633.75 232.95 632.85 231.7 632.7 231.5 632.5 231.3 Z"/>

<path fill="#3D3D47" stroke="none" d="
M 661.7 334.85
Q 661 332.3 660.45 328.7 660 324.65 659.7 322.6 658.45 314.05 653.55 298.9 651.8 293.5 650.75 290.85 649.05 286.45 647 283.25 646.25 282.15 644.2 279.4 643.8 278.9 643.45 278.4 642.2 276.7 641.55 275.55 639.35 271.85 638 266.6 637.2 263.35 636.3 257.05
L 632.9 233.75
Q 632.7 232.45 632.5 231.3 632.05 228.25 631.6 226.4 630.6 222.35 629 219.5 625.95 214.1 620.35 211.2 617.8 209.95 615.3 209.85 612.4 209.75 610.6 211.3 608.8 212.85 608.35 215.7 608 217.65 608.2 220.95 608.9 231.85 610.2 237.65 611.05 241.6 613 246.7 614.05 249.7 616.4 255.5 624.4 276.35 626.35 295.2 627.2 303.15 627.45 304.65 628.55 310.55 632.4 319.5 641.15 339.95 653.4 358.4 651.3 359.1 650.3 361.45 649.3 363.7 649.75 366.1 650.5 369.35 654.4 374.05 661.95 383.45 665.95 388 668.95 391.35 670.15 392.95 672.4 395.8 673.6 398.35 674.8 400.7 676.55 405.65 677.95 408.75 680.55 412.05 682.15 414.15 685.55 417.9
L 700.8 435.05
Q 703.3 437.9 705.05 439.15 707.7 441.05 710.3 441.05 711.8 441.05 713.15 440.45 714.6 432.85 717.65 425.75
L 721.15 418.3
Q 720.3 417.8 719.2 417.05 712.15 412.4 704.8 402.8 700.6 397.25 694.35 387.5
L 668.15 347.15
Q 663.15 339.4 661.7 334.85 Z"/>
</g>

<g id="monkey_0_Layer0_0_FILL">
<path fill="#000000" stroke="none" d="
M 728.35 283.45
Q 724.15 274.65 721.55 269.8 717.6 262.35 713.55 256.85 707.05 247.9 695.1 236.95 675.7 218.95 659.45 210.6 637.3 199.25 616.6 201.3 610.6 201.95 607.75 204.15 607.5 204.35 607.3 204.55 599.05 168.65 591.9 146.6 590.25 141.6 588.5 136.65 591.05 138.2 593.55 139.25 591.35 132.4 588 125.85 585.05 120.15 578.4 110.2 573.05 102.1 570.15 98.75 567.3 95.6 562.95 92 561.5 90.75 555.2 85.85 540.05 74 526.2 61.2 505.95 47.1 484.5 35.85 429.9 7.35 373.9 1.2 358.35 -0.45 345.9 0.15 344.85 0.2 343.85 0.3 340.45 0.55 336.6 0.9 332.3 1.2 330.15 1.1 329.85 1.1 329.55 1 329.3 1.6 329.1 2.2 323.6 3.35 318.5 5 302.8 10.25 287.35 22.2 275 31.75 261.2 47.1 217.8 95.1 192.15 155.85 184.1 174.8 178.2 194.25 177.45 193.95 176.6 193.75 167.95 191.35 158.15 192.1 149.3 192.7 139.9 195.75 132 198.4 122.85 203.1 116.75 206.2 106.6 212.2 74.55 231.25 56.35 247.05 31 269.15 20.05 294.2 10.15 316.7 9.85 346.1 9.65 369.05 15.55 399.75 17.6 410.3 19.5 416.5 22.35 425.55 26.6 432.05 32.45 440.85 43.2 448.55 49.9 453.35 63.65 460.8 63.7 460.8 63.8 460.85 55.95 467.55 52.65 470.65 32.2 489.9 21.05 508.1 5.45 533.6 1.4 565.9 -2.4 596.1 4.3 627.6 10.35 655.95 24.85 685.6 37.15 710.9 56.5 738.8 98.95 800.05 152.65 842.05 211.5 888.15 276.8 905.15 309.3 913.65 336.75 912.9 344.1 912.8 346 909.2 347.95 905.75 344.9 902.8 401.85 902.1 458.5 894.25 528.4 884.7 595.8 864.75 644.2 850.45 677.5 833.35 719.7 811.6 746.2 781.65 772.05 752.4 791.2 705.05 800.2 682.9 804.5 664.45 809.75 642.1 808.9 622.3 807.45 585.7 784.4 543.35 771.95 520.45 752.1 493.7 742.25 480.45 715.35 446.9 714.4 445.7 713.45 444.6 715.35 442.85 717.1 438.95
L 728.55 415.2
Q 735.05 401.85 737.95 394 745.25 374.6 745.8 353.45 746.4 332.35 740.2 312.55 736.75 301.45 728.35 283.45
M 648.65 219.95
Q 658.15 223.65 668.5 231.25 674.7 235.8 686.25 245.9 696.1 254.4 700.25 259.35 704.7 264.7 710.9 275.05 720.65 291.7 726 304.7 732.9 321.4 734.6 336.55 737.25 360.2 728.25 387.85 721.85 407.55 706.75 436.15 689.3 414.05 679.25 399.75 660.45 373.05 648.95 349.05 635.75 321.4 625.5 283.2 621.3 267.25 609.8 215.5 610.15 215.55 610.5 215.65 612.95 216.05 617.25 215.55 633.7 214.05 648.65 219.95
M 684.2 427.8
Q 689.25 434.15 711.95 461.9 729.05 482.8 739.2 496.4 805.3 585.1 793.45 658.15 789.5 681.65 775.65 711.15 754 757.05 725.35 784.65 701.95 807.35 667.1 824.25 639.8 837.5 600.4 849.45 533.15 869.85 463.15 879.4 393.25 888.9 323 887.15 316.3 886.95 311 890.15 306.75 892.6 306.75 895.7 279.45 891.95 252.2 882.3 214.1 868.9 179.25 845.35 115.9 802.5 65.65 728.75 48.2 703 37.05 680.2 23.9 653.05 18.3 627.35 12.1 598.7 15.25 571.15 18.65 541.7 32.5 518.3 42.3 501.95 59.4 485.4 69.7 475.45 92.2 457.35 114.75 439.15 124.95 429.35 142.15 412.85 152 396.55 169.35 367.75 174.65 318.45 175.45 310.75 178.05 276.55 180.05 250.75 182.65 234.95 190.4 187.5 215.3 140.45 237.7 98 272.95 57.75 285.25 43.75 295.05 35.55 308.15 24.6 321.45 19.8 333.35 15.55 348.3 15.15 360 14.9 375.8 17.1 431.65 24.9 482.55 51.8 530.6 77.25 567.15 115.9 572 126.45 576.15 138 586.05 165.35 595.7 210 610.3 277.55 611.85 284.05 622.35 325.85 636.35 354.85 651.8 386.9 684.2 427.8
M 108.85 226.6
Q 126.75 215.5 138.05 210.8 154.9 203.7 169.65 204.2 172.9 204.35 173.95 204.35 174.6 204.3 175.25 204.2 164.7 242 162.15 281.2 161.25 295.15 159.85 323.2 157.8 347.35 151.6 363.95 143.8 384.75 126.3 404.5 114.1 418.4 90.55 438.15 81.3 445.85 74.25 451.9 73.2 450.9 71.9 450.05 70.6 449.15 67.85 447.75 44.65 435.7 35.9 419.3 32.6 413.15 30.45 404.55 29.15 399.4 27.4 389.05 24.95 374 24.15 366.9 22.7 354.55 22.95 344.6 23.5 326.75 29.45 309.45 35.45 292.3 46.2 277.95 57.2 263.2 75 249.5 87.25 239.95 108.85 226.6
M 652.9 617.15
Q 652.3 602.75 651.4 595.65 649.95 583.75 646.45 574.85 642.75 565.5 634.85 554.7 633.7 553.15 620.15 536.25 600.2 511.3 584.8 482.75 578.35 470.75 575.5 461.85 571.8 449.9 573 439.6 574.25 429 582.05 415.3 586.45 407.65 595.55 392.3 610.35 363.25 603.5 328.25 596.8 294.1 572.8 270.45 549.6 247.6 515.7 239 482.95 230.65 449.8 237.8 442.25 239.45 428.25 243.5 413.25 247.9 406.6 249.5 381.25 255.4 363.75 250.4 355.4 248 343.05 241.1 327.65 232.5 322.8 230.35 290.6 216.55 254.1 231.1 218.85 245.1 199.75 276.7 182.05 306.1 180.65 344.4 179.3 379.4 191.55 415.4 198.1 434.7 199.35 440.2 202.5 454.5 199.05 465.1 196.75 472 191.25 478.95 187.5 483.7 180.1 490.65 165.65 504.2 158.5 511.2 146.2 523.25 138.15 532.9 116.85 558.65 112.75 583.95 110.95 595.25 112.15 608.95 113.1 619.05 116.05 633.9 116.65 637 117.35 639.95 116.15 641.55 117 643.5 117.6 643.6 118.2 643.75 125.9 679.05 137.1 705.35 152.9 742.45 177.4 766.25 205.15 793.35 247.05 806.6 284.15 818.4 328.35 818.3 362.3 818.2 409.75 810.8 436.75 806.55 490.65 797.15 526.8 791.65 539.65 788.35 566.75 781.45 584.05 768.35 595.2 760 605.95 746.35 612.6 737.9 624 720.6 634.15 705.2 638.75 696.85 646.25 683.25 649.5 671.3 652.7 659.6 653.3 644.4 653.6 635.1 652.9 617.15
M 333.35 250.4
Q 345.25 257.65 351.15 260.65 361.2 265.6 370.1 267.15 383.4 269.4 401.3 264.8 411.6 262.2 432.05 255.5 462.35 246.85 491.9 249.4 523.75 252.25 548.1 268 574.05 284.7 586.05 313.9 598.55 344.1 589.1 372 586.05 381.15 574.7 401.25 564.35 419.5 561.55 430.85 557.9 446.05 561.45 463.35 564.6 478.7 573.1 494.3 579.75 506.5 591.45 521.65 598.15 530.4 611.95 547.6 620.5 558.6 625.35 566.55 632 577.4 635.1 587.45 637.6 595.65 638.75 606.25 639.4 612.8 639.9 625.35 640.2 633.65 640.25 639.5 638.55 638.95 636.45 638.95 634.45 638.95 630.3 639.5 585.4 646 532.15 646.45 490.75 646.85 433.5 643.4 367.5 638.9 334.55 636.85 276.4 633.2 235.6 633.2 211.35 633.2 162.95 634.9
L 128.2 636.1
Q 125.55 624.65 124.65 615.55 122.8 597.35 126.9 582.7 130.4 570.15 139.25 556.95 145.4 547.7 157.15 534.25 182.5 505.05 211.3 476.9 212.75 481 216.35 483.8 220 486.65 224.3 487
L 204 379.35
Q 198.9 352.35 198.15 337.6 197.05 314.3 203.55 296.85 208.85 282.6 220 269.9 230.15 258.45 244.2 249.1 272.45 230.45 296.5 234.1 310.05 236.1 333.35 250.4
M 131.35 648.4
Q 131 647.25 130.75 646.15 146.25 648.5 165.3 648.8 169.65 648.8 214.25 647.75 259.2 646.6 320.8 650 356.35 651.9 427.45 656.75 490.3 660.6 533.85 660.2 591.45 659.65 639.5 652.25 639.7 652.15 639.9 652.15 639.35 658.4 638.2 663.7 635.55 676.25 628.25 690.15 623.2 699.7 613.2 714.4 603 729.4 595.75 738.1 585.35 750.6 574.65 758.4 553.4 773.95 518.5 780.4 506.4 782.6 487.55 784.55 459.5 787.55 456.6 787.95 444.1 789.55 399.85 797.5 364.75 803.75 342.85 805 297.2 807.6 256.3 794.05 212.15 779.45 183.3 749 164.9 729.6 151.4 702.1 139.9 678.85 131.35 648.4
M 372.35 518.7
Q 370.7 515.8 369.65 514.55 368.8 513.55 367.4 512.5 365.75 511.3 364.85 510.7 360.15 506.95 357.75 505.1 353.5 501.95 350 500.8 347.9 500.05 345.95 500.25 343.7 500.45 342.35 501.8 340.6 503.6 341.1 506.5 341.6 509.3 343.65 511.2 345.15 512.7 348 514.2 352.65 516.65 352.7 516.75 356 518.8 360.95 523.95
L 368.5 531.7
Q 372.75 535.95 375.75 535.15 378.05 534.6 378.8 531.8 379.45 529.2 378.35 526.75 377.55 525 375.55 522.65 372.95 519.65 372.35 518.7
M 400.95 511.6
Q 396.2 515.6 393.85 517.6 389.75 521.25 388.5 524.75 387.85 526.75 387.7 529.55
L 387.7 534.5
Q 387.65 538.55 387.65 538.95 387.7 541.5 388.25 543.25 388.95 545.55 390.7 547 392.55 548.6 394.6 548.45 397.45 548.25 399.1 545.25 400.65 542.6 400.65 539.2 400.45 535.1 400.45 533.05 400.45 529.45 401.7 527.3 402.65 525.75 404.7 524.05 405.9 523.05 408.2 521.1 409.8 519.65 413.8 514.05 417.05 509.45 420 507.75 421.6 506.9 425.25 505.25 428.1 503.6 428.45 501.25 428.7 499.45 427.45 497.8 426.2 496.2 424.25 495.55 420.95 494.35 417.05 495.8 413.6 497.1 410.65 500 409 501.65 405.9 505.85 402.9 509.75 400.95 511.6
M 323.6 449.05
Q 315.45 455.15 310.45 463.25 305.1 472 304.7 481.3 304.5 486.8 306.55 496.5 307.85 502.9 308.9 506.65 310.5 512.15 312.75 516.2 315.3 520.75 322.05 528.6
L 333.15 541.3
Q 336.4 545.05 338.7 545.95 340.5 546.6 342.35 546.1 344.35 545.65 345.1 544.05 346.55 541.1 342.5 536.3 334.75 527.1 330.55 521.25 324.45 512.55 321.15 504.65 318.3 497.9 317 490.85 315.35 482 317.3 476 319.5 468.95 327.05 462.75 333.15 457.95 341.9 454.3 348.3 451.6 358.35 448.75 367.8 446.2 373.95 445.1 382.6 443.6 389.8 444.05 398.1 444.65 408.6 447.95 429.95 454.55 448.95 466.6 465.85 477.35 466.15 489.3 466.15 494.3 463.2 500.35 458 511.1 448.15 518.1 439.85 523.3 436.1 526.15 429.35 531.15 427.5 536.75 426.6 539.5 427.2 542.15 427.85 545.05 430.1 546.25 431.95 547.2 434.3 546.6 436.4 546.05 438.2 544.55 439.45 543.4 441.1 541.3 443.4 538.35 443.85 537.85 446.9 534.4 454.8 529.75 462.7 525 465.75 521.65 468.65 518.45 472.4 510.9 474.95 505.45 476.05 502.85 477.8 498.2 478.55 494.35 479.75 487.75 478.2 480.95 476.6 474.25 472.65 468.75 469.1 463.85 463.1 459.4 458.95 456.35 451.6 452.15 431.25 440.75 415.95 435.55 395.6 428.65 377.95 430.3 369.85 431.05 358.95 433.95 348 436.85 340.5 439.8 330.7 443.75 323.6 449.05
M 280.8 379.8
Q 276 379 271.35 380.7 266.65 382.4 263.65 386.1 259.2 391.7 259.1 401.65 258.8 412.55 264.2 418.45 267.4 421.95 272.25 423.1 277.05 424.3 281.5 422.6 284.45 421.5 287.75 418.85 289.7 417.3 293.35 414 294.45 413.05 296.8 411.15 298.75 409.4 299.95 407.95 303.4 404 303 399.8 302.7 396.1 298.45 391.3 289.4 381.3 280.8 379.8
M 461.3 388.3
Q 460.35 390.9 460.1 394.35 459.9 396.2 459.85 400.6 459.85 404.85 459.95 406.65 460.25 410 461.15 412.45 462.6 416.4 465.95 419.45 469.05 422.35 473.25 424 480.25 426.8 490.15 426.15 499.85 425.55 509.25 422.1 517.25 419.15 521.1 414.95 525.4 410.15 526 402.8 526.45 396 523.65 389.45 518.25 376.65 503.3 367.85 494.15 362.5 487.35 363.35 482.25 363.95 477.2 368 473.9 370.75 469.1 376.35 466.05 379.95 464.6 382 462.3 385.35 461.3 388.3 Z"/>
</g>
</defs>

<g transform="matrix( 1, 0, 0, 1, 147.9,86.6) ">
<g transform="matrix( 1, 0, 0, 1, 0,0) ">
<use xlink:href="#monkey_0_Layer2_0_FILL"/>
</g>

<g transform="matrix( 1, 0, 0, 1, 0,0) ">
<use xlink:href="#monkey_0_Layer1_0_FILL"/>
</g>

<g transform="matrix( 1, 0, 0, 1, 0,0) ">
<use xlink:href="#monkey_0_Layer0_0_FILL"/>
</g>
</g>
</svg>
