
<svg xmlns="http://www.w3.org/2000/svg" version="1.1" xmlns:xlink="http://www.w3.org/1999/xlink" preserveAspectRatio="none" x="0px" y="0px" width="1080px" height="1080px" viewBox="0 0 1080 1080">
<defs>
<g id="Boredom_Monkey_0_Layer3_0_FILL">
<path fill="#727282" stroke="none" d="
M 214.1 94.75
Q 213.5 94.7 212.9 94.65 212.25 94.55 211.65 94.45 211.25 94.9 210.8 95.3 209.2 96.8 206.8 97.85 205.15 98.6 202.2 99.5 165.2 111.45 141.45 124.85 110.1 142.55 92.9 166.85 88.8 172.7 84.45 180.5 81.75 185.3 76.9 194.75 66.55 215.05 61.7 226.45 54.1 244.4 50.95 259.75 49.4 267.5 48.4 277.4 47.8 283.3 47 295.2 46.35 304.9 46.25 309.8 46.1 317.9 46.9 324.35 49.35 344.5 62.35 364.2 73.4 380.85 91.65 396.65 94.5 399.1 96.45 400.4 97.95 401.4 99.45 402.1 100.85 400.3 102.05 398.7 116.05 379.95 123.8 362.9 127.4 355.05 131.85 342.3 138.05 324.65 139.3 321.4 142.65 312.65 151.05 293.85 159.05 276.05 162.65 266.2 169.5 247.5 175.5 219.9 181.8 188.35 185.25 172.65 191.25 145.5 198.6 126.25 205.25 108.7 214.1 94.75
M 288.45 783.1
Q 299.45 788.8 305.75 791.6 315.5 795.85 323.9 797.95 337.4 801.3 354.6 800.8 366 800.5 385.6 797.9 408.4 794.8 453.9 787.8 472.9 784.85 482.5 782.55 498.2 778.7 509.6 772.65 512.35 771.2 517.9 768.2 522.7 765.9 526.65 765.6 527.15 762.25 531.55 761.1 533.05 760.7 539.7 760.1 544.65 759.7 550.1 756.8 553.65 754.95 559.45 750.7 591.1 727.5 609.2 706.05 632.7 678.1 638.05 648.4 638.85 644.1 639.25 639.55
L 615.5 640.1
Q 598 640.5 589.3 640.15 580.15 639.8 567.15 638.35 552.45 636.65 545.1 635.85 520.8 633.25 490.35 632.1 471.55 631.4 435.45 630.9
L 338.35 629.5
Q 312.35 629.15 296.7 629.35 221.45 630.55 148.5 647.9 151.4 670.75 166.6 692.9 180.6 713.3 204.05 731.8 221.65 745.65 245 759.45 261.65 769.3 288.45 783.1
M 444.45 248.6
Q 413.75 256.75 409.7 257.55 383.65 262.8 341.1 261.05 318 259.9 306.45 259.5 286.35 258.8 271.85 259.5 259.85 260.1 251.2 261.8 240.15 264 231.7 268.4 215 277.1 204.95 295.6 195.6 312.85 194.6 333.3 193.75 351.25 199.1 371.85 203.3 388.1 212.25 408.85 218.75 423.9 220.65 429.9 224.45 442 223.45 451.8 222.4 462.05 215.65 474 214.75 475.55 202.45 494.25 192.45 509.45 182.75 530.05 176.95 542.3 166.45 567.6 156.45 591.75 152.7 605.05 147.3 624.3 147.9 640.5 243.7 619.6 329.85 621.8 337 622 351.4 622.65 365.75 623.25 372.95 623.45 383.3 623.75 397.35 623.75 405.5 623.8 421.8 623.75 458.5 623.85 493.35 624.85 505.5 625.2 513.15 625.65 524.05 626.2 532.95 627.15 538.5 627.75 551 629.45 562.65 631.05 569.05 631.7 598.65 634.75 637.8 631.5 638.6 631.45 639.3 631.45 639.5 631.25 639.7 631.15 639.85 621.65 638.5 611.35 636.45 595.3 630.35 574.75 626.95 563.25 623.55 554.6 619.35 543.95 614.3 535.45 609.45 527.35 601 516.8 591.15 504.9 586.4 498.9 569.05 477 565.1 459.65 562.8 449.75 563.5 437.5 564.05 428.45 566.5 415.3 569.85 398.65 571.5 390.3 574.5 375.2 575.85 365.15 579.7 336.35 574.6 315.25 566.95 283.8 539.4 262.75 511.8 241.7 479.45 242.65 465.4 243.05 444.45 248.6
M 357 376.7
Q 359.45 377.2 360.95 378.45 362.6 379.8 363.6 382.25 364.3 384.05 364.8 386.9 368.05 405.45 365.1 424 364.5 427.85 363.05 429.35 361.75 430.75 359.35 431.15 357.7 431.45 355 431.3 345.25 430.8 343.35 430.75 336.75 430.65 331.8 431.55 328.95 432.05 323.45 433.6 317.95 435.15 315.15 435.65 310.2 436.55 301.7 436.7 291.75 436.85 288.25 437.2 285.05 437.55 278.1 438.9 271.5 440.15 267.95 440.45 263.9 440.75 261.9 440.9 258.3 441.2 255.95 441.85 251.9 443.3 249.85 443.9 246.3 445 243.75 444.45 239.2 443.45 235.85 437.25 232.9 431.55 231.75 423.65 231.05 418.7 230.8 409.2 230.7 405.35 230.85 403.45 231.05 400.25 232 397.9 234.3 392.2 241 388.7 245.35 386.45 253.45 384.75 302.5 373.85 352.55 376.2 355.45 376.35 357 376.7
M 408.65 390.9
Q 410.75 387.65 414.85 385.35 417.9 383.65 422.8 382.05 442.2 375.65 467.65 373.8 483.35 372.6 513.6 372.85 518.65 372.85 521.4 373.05 525.7 373.4 529 374.45 535.05 376.3 539.6 380.55 541.85 382.65 544.1 385.75 545.4 387.55 547.95 391.55 549.85 394.6 550.75 396.35 552.1 399.1 552.55 401.5 553.05 404.4 552.45 407.9 551.95 410.45 550.65 414.1 548.3 420.6 545.6 425.85 543.2 430.6 540.7 432.25 538.65 433.55 535.65 433.85 533.7 434.05 530.2 433.8 478.55 430.7 426.9 433.5 422.3 433.7 420 433.5 416.15 433.1 413.55 431.5 410 429.35 407.8 424.35 405.85 419.95 405.3 414.25 404.9 409.8 405.3 403.65 405.6 399.55 406.15 397 406.95 393.4 408.65 390.9
M 316.45 490
Q 317.8 485.95 322.15 481.2 331.45 471.25 344.25 466.45 349.6 464.45 359.8 462.2 371.75 459.5 377.95 458.8 389.7 457.55 401.9 459.55 413.65 461.5 424.95 466.3 432.9 469.6 437 473.5 442.9 479.15 444.65 488.45 446.2 496.7 444.2 505.9 441.85 516.95 435.75 522 432.85 524.3 430.5 523.8 429.05 523.5 428.35 522 427.6 520.5 428.55 519.45 429.05 518.9 429.95 518.6 430.5 518.4 431.6 518.1 436.6 516.55 438.8 507.35 440.6 499.9 440.55 494.4 440.55 487.25 437.55 482.1 434.6 477.05 428.35 473.4 423.8 470.7 416.3 468.25 408 465.5 402.4 464.5 391.45 462.5 378.2 463.95 368.15 465.05 354.2 468.6 345 471 340.2 473.45 335.05 476.1 329.15 481.3 325.9 484.1 324.15 486.3 321.7 489.3 321 492.4 319.75 497.6 322.8 504.25 326.05 511.2 332.1 516.25 338.15 521.35 345.55 523.25 348.3 524 349.15 524.7 349.95 525.35 350.2 526.35 350.5 527.4 349.95 528.15 348.9 529.65 345.8 528.8 335.95 526.05 328.3 519.45 320.35 512.55 317.2 503.35 314.6 495.9 316.45 490
M 407.85 483.3
Q 411.65 483.55 414.2 485.95 415.5 487.2 416.8 489.7 417.65 491.6 417.2 492.55 416.55 493.8 414.75 493.9 413.8 494 413.05 493.5 412.2 492.95 412.25 492.15 412.3 491.9 412.5 491.45 412.7 491 412.7 490.75 412.7 490.2 412.25 489.55 410.75 487.65 407.9 487.45 405.75 487.4 403.05 488.35 401.25 489 401.05 490.05 400.95 490.6 401.1 491.7 401.05 492.5 400.2 492.95 399.4 493.35 398.65 493.1 397.05 492.5 396.85 490.55 396.7 488.75 398.05 487.15 399.15 485.75 401.05 484.8 404.5 483.1 407.85 483.3
M 340.05 493.25
Q 341.1 491.7 343.35 491.15 344.65 490.85 347.3 490.95 348.95 490.95 349.75 491.4 350.55 491.8 350.95 492.7 351.35 493.55 351.15 494.4 350.8 495.9 349.45 496.15 348.85 496.25 348.25 495.95 347.65 495.55 347.5 494.95 347.05 495.1 345.2 495.1 343.8 495.1 343.25 495.75 342.9 496.2 342.9 497.2 342.85 498.55 342.8 498.75 342.65 499.5 341.9 500.5 340.85 501.85 340.7 502.1 340.35 502.8 339.8 504.25 339 505.55 338.05 505.6 337.2 505.65 336.6 504.95 336 504.3 336 503.4 335.95 502.2 337 500.6 338.45 498.3 338.6 497.9 338.8 497.4 339.2 495.5 339.55 494 340.05 493.25
M 400.7 500.4
Q 401 500.05 402.1 498.95 403.05 498.05 403.45 497.35 403.8 496.7 404 496.4 404.35 495.8 404.7 495.55 405.3 495.1 406.1 495.2 406.9 495.3 407.5 495.85 408.6 496.85 408.4 498.65 409.35 498.6 410.15 499.3 410.9 499.95 411.15 500.95 411.5 502.35 410.6 504.8 409.25 508.25 406.7 511.1 405.3 512.65 404.2 512.95 402.65 513.45 401.05 512.55 399.5 511.6 398.9 510 397.85 507.4 399.15 503.45 399.7 501.65 400.7 500.4
M 394.4 518.45
Q 393.85 517.25 394.65 516.45 395.2 515.9 396.15 515.95 396.75 516 397.85 516.35 401.4 517.45 404.35 517.05 407.95 516.6 410.7 514 411.9 512.8 412.25 512.6 413.4 511.95 414.25 512.4 415.2 512.85 415.2 514.15 415.2 515 414.45 516.1 413.1 518.05 409.9 519.7 407.55 520.85 406 521.05 405.45 521.15 402.5 521.15 399.4 521.15 398.75 521.05 397.25 520.75 395.9 520 394.75 519.25 394.4 518.45
M 365.1 511.55
Q 366.2 511.15 367.1 512.15 367.65 512.8 368.05 514.1 368.95 517.4 368.15 519.6 366.9 522.8 362.65 524.15 361.25 524.6 359.05 524.9 355.75 525.4 355.4 525.45 354 525.75 353.3 525.55 352.7 525.35 352.3 524.8 351.9 524.25 351.85 523.6 351.75 522.2 353.05 521.45 353.85 521 355.7 521 358.45 521 361 520.4 363.95 519.8 364.5 518.1 364.75 517.35 364.5 516.35 364.2 515.2 364.05 514.6 363.85 513.65 364.05 512.8 364.35 511.85 365.1 511.55
M 346.2 502.9
Q 346.95 501.3 348.5 501.05 349 501 350.35 501.35 352.7 501.8 353.25 502.1 354.35 502.6 355.65 504.2 357.75 506.7 357.8 508.5 357.8 509.15 357.5 510.25 357.15 511.5 357.1 511.95 357.05 512.35 357 513.2 356.9 513.95 356.7 514.4 356.25 515.3 355.2 515.7 354.15 516.1 353.1 515.85 351.65 515.55 349.45 513.75 346.55 511.55 345.9 509.65 345.5 508.45 345.6 506.3 345.7 503.95 346.2 502.9
M 711.65 215.8
Q 707.9 209.9 704.1 205.75 698.55 199.8 687.6 192.75 643.1 163.75 592.05 149.2 594.7 157.95 597.3 169.25 599.55 178.85 603.9 198.05 607.2 211.25 612.45 227.35 615.65 237.2 622.35 256.25 634.75 291.4 642.25 308.75 654.65 337.35 669.15 357.6 676.75 368.25 690.1 383 690.65 381.9 691.2 379.95 691.95 377.25 692.85 376.2 694.4 374.45 697.15 374.6 697.85 373.7 698.7 372.75 700.55 370.8 704.55 367.1 710.1 361.6 714.55 353.45 718 347.15 721.5 337.75 730.95 312.15 732.4 289 734.1 262.15 724.85 240.7 722.65 235.5 717.85 226.8 714.05 219.65 711.65 215.8 Z"/>

<path fill="#04071A" stroke="none" d="
M 727.7 448.45
Q 717.95 435.7 697.15 413.45 675.55 390.35 666.35 378.7 637 341.45 616.05 286.5 602.4 250.7 585.2 184.6 580.9 168.05 578.5 160.15 574.45 146.6 570 136.25 556.6 105.05 530.45 79.7 505.55 55.55 473.05 40.4 442.65 26.25 406.7 20.25 373.6 14.75 337.15 16.4 327.05 16.85 320.45 18 311.45 19.6 304.7 23.05 296.95 27 288.85 35.3 288.7 35.5 275.35 50.55 270.05 56.5 261.45 65.05 247.85 78.6 247.15 79.3 230.3 96.5 222.2 110.4 214.15 124.2 208.6 144.2 206.4 152.15 200.45 180.05 180.65 272.65 141.8 359 131.85 381.1 123.85 394.1 116.25 406.4 104.4 420.95 99.9 426.45 82.8 446.25 55.05 478.35 44.2 499.8 38.45 511.2 33.55 526.05 30.2 536.25 25.65 553.3 22 567.15 20.2 575.5 17.6 587.8 16.7 598.05 14.85 618.8 18.85 643.15 21.95 662.05 29.5 687.35 33.5 700.55 36.85 709.25 41.4 721 46.7 730.1 51.3 737.9 58 746.2 63.25 752.75 71 761.05 102.45 794.85 139.6 822.65 176.75 850.45 218.05 871.1 233.15 878.65 245.05 883.15 259.95 888.8 273.35 891.1 285.35 893.2 300.1 893.2 310.8 893.25 327.05 892.05 364.25 889.35 410.35 882.95 438.2 879.1 493.2 870.2
L 540.65 862.55
Q 554.2 860.35 560.95 859.1 572.15 856.95 580.95 854.55 593.65 851.05 608.95 844.85 617.95 841.2 636.15 832.95 657.85 823.1 668.6 817.25 686.15 807.65 698.15 797.05 705.6 790.55 713.5 781.3 718.75 775.2 727.35 764.1 749.7 735.3 761.65 716.45 778.9 689.15 787.35 664.15 795.55 639.8 797 614.1 797.85 598.05 795.4 586.2 794.1 580.05 791.4 572.7 789.75 568.2 786.15 559.65 769.9 521.1 760.4 502.05 744.75 470.65 727.7 448.45
M 652.3 595.35
Q 657 621.9 653.05 647.65 648.9 674.7 635.75 696.6 628.75 708.2 618.4 719.75 609.65 729.45 597.6 740 559.15 773.6 520.15 788.1 505.35 793.6 486 797.85 474.6 800.35 451 804.45 410.3 811.5 388.4 814.3 371.2 816.55 359.1 816.95 343.1 817.5 329.9 815.25 312.25 812.25 291.85 802.8 279.4 797 256.2 783.65 227.55 767.15 213.5 757.8 190.45 742.45 174.7 726.9 155.9 708.35 144.9 686.9 135.7 668.9 133.15 650.75 131.9 650.35 131.3 649.3 130.75 648.2 131.15 646.9 131.55 645.65 132.5 644.8 132.25 642.15 132.2 639.5 131.7 621.4 138.1 599.65 142.05 586.15 152.3 561.3 164.85 530.85 172.2 515.7 184.2 490.85 197.3 473.05 202.05 466.6 203.4 464.35 206.55 459.25 207.45 454.75 208.6 449.3 207 442.5 206 438.2 203 430.55 192.4 403.45 188.1 389.3 180.95 366 179.55 346.6 177.9 323.45 184.4 303.05 191.45 280.7 206.95 266.6 223.45 251.65 249.8 246 270.2 241.6 299 242.55 317.6 243.15 354.9 245.3 387.45 246.25 410.3 241.5 417.5 240 437.3 234.4 454.25 229.65 464.5 228.15 500.5 223.05 534.25 241.15 568.35 259.4 582.7 292.25 592.6 314.9 592.65 344 592.7 367.55 586.15 397.3 580.9 421 580 428.15 577.75 445.7 581.55 458.75 584.6 469.2 592.85 481.1 593.65 482.25 608.35 501.3 625.1 523 636.05 545.8 647.85 570.5 652.3 595.35 Z"/>

<path fill="#5B5B68" stroke="none" d="
M 367.1 512.15
Q 366.2 511.15 365.1 511.55 364.35 511.85 364.05 512.8 363.85 513.65 364.05 514.6 364.2 515.2 364.5 516.35 364.75 517.35 364.5 518.1 363.95 519.8 361 520.4 358.45 521 355.7 521 353.85 521 353.05 521.45 351.75 522.2 351.85 523.6 351.9 524.25 352.3 524.8 352.7 525.35 353.3 525.55 354 525.75 355.4 525.45 355.75 525.4 359.05 524.9 361.25 524.6 362.65 524.15 366.9 522.8 368.15 519.6 368.95 517.4 368.05 514.1 367.65 512.8 367.1 512.15
M 394.65 516.45
Q 393.85 517.25 394.4 518.45 394.75 519.25 395.9 520 397.25 520.75 398.75 521.05 399.4 521.15 402.5 521.15 405.45 521.15 406 521.05 407.55 520.85 409.9 519.7 413.1 518.05 414.45 516.1 415.2 515 415.2 514.15 415.2 512.85 414.25 512.4 413.4 511.95 412.25 512.6 411.9 512.8 410.7 514 407.95 516.6 404.35 517.05 401.4 517.45 397.85 516.35 396.75 516 396.15 515.95 395.2 515.9 394.65 516.45
M 343.35 491.15
Q 341.1 491.7 340.05 493.25 339.55 494 339.2 495.5 338.8 497.4 338.6 497.9 338.45 498.3 337 500.6 335.95 502.2 336 503.4 336 504.3 336.6 504.95 337.2 505.65 338.05 505.6 339 505.55 339.8 504.25 340.35 502.8 340.7 502.1 340.85 501.85 341.9 500.5 342.65 499.5 342.8 498.75 342.85 498.55 342.9 497.2 342.9 496.2 343.25 495.75 343.8 495.1 345.2 495.1 347.05 495.1 347.5 494.95 347.65 495.55 348.25 495.95 348.85 496.25 349.45 496.15 350.8 495.9 351.15 494.4 351.35 493.55 350.95 492.7 350.55 491.8 349.75 491.4 348.95 490.95 347.3 490.95 344.65 490.85 343.35 491.15
M 414.2 485.95
Q 411.65 483.55 407.85 483.3 404.5 483.1 401.05 484.8 399.15 485.75 398.05 487.15 396.7 488.75 396.85 490.55 397.05 492.5 398.65 493.1 399.4 493.35 400.2 492.95 401.05 492.5 401.1 491.7 400.95 490.6 401.05 490.05 401.25 489 403.05 488.35 405.75 487.4 407.9 487.45 410.75 487.65 412.25 489.55 412.7 490.2 412.7 490.75 412.7 491 412.5 491.45 412.3 491.9 412.25 492.15 412.2 492.95 413.05 493.5 413.8 494 414.75 493.9 416.55 493.8 417.2 492.55 417.65 491.6 416.8 489.7 415.5 487.2 414.2 485.95 Z"/>
</g>

<g id="Boredom_Monkey_0_Layer2_0_FILL">
<path fill="#B6B6CF" stroke="none" d="
M 327.95 260.55
Q 329.05 258.3 328.3 256.25 327.35 253.5 323.75 252.55 321.05 251.8 317.05 252.1 296.75 253.55 283.7 254.85 267.9 256.4 257.35 258.5 243.1 261.35 232 266.1 219.15 271.65 209.55 280.3 199.05 289.7 194.1 301.45 188 315.85 189.75 335.45 190.9 347.95 196.65 370.2
L 202 390.7
Q 205.5 404.1 207.7 410.65 211.4 421.9 216.7 432.3 219.55 438 222.65 440.2 222.6 440.4 222.55 440.6 222.3 441.7 222.2 444.05 221.35 457.65 211.9 473.55 206.4 482.75 193.65 500.4 183.45 515.7 173.95 536.6 168.15 549.35 158.2 574.85
L 149.85 596.15
Q 147 603.45 145.65 607.35 143.5 613.6 142.4 618.8 140.35 628.25 141.05 636.9 141.6 643.75 144.75 647 144.85 647.1 144.95 647.2 144.65 648.15 144.6 649.2 144.45 652.3 146.7 657.5 156.25 680.25 164.05 694.05 174.95 713.4 187.9 726.2 196.65 734.85 212.8 746.25 224.1 754.15 233.05 759.6 244.2 766.4 254.4 771.1 262.4 774.8 279 781
L 310.95 792.9
Q 325.7 798.4 333.45 800.8 346.15 804.7 356.65 806 359.45 806.35 361.2 806.3 363.65 806.25 365.55 805.5 367.75 804.65 369.15 802.75 370.6 800.75 370.35 798.6 370.1 796.6 368.4 795 366.8 793.55 364.6 792.9 362.9 792.4 360.4 792.3 357.55 792.3 356.1 792.2 350.95 792.05 344.7 790.3 340.95 789.25 333.6 786.6
L 287.5 769.9
Q 270.95 763.9 263.25 760.45 250.9 754.9 237.5 746.55 226.8 739.85 213.3 729.95 200.6 720.55 194.15 713.9 188.4 707.95 183.05 699.8 178.85 693.4 173.95 684.25 165.35 668.05 158.75 651.35 157.35 647.8 155.6 645.65 156.15 643.85 155.8 641.4 154.6 636.75 154.15 634.5 153.2 629.75 154.85 622.5 155.95 617.8 158 612.1 159.2 608.7 161.9 601.95
L 180.55 555.2
Q 185.35 543.15 187.8 537.55 192.1 527.8 196.35 520.5 198.9 516.1 215.65 492.05 227.6 474.9 232.05 462.25 233.1 459.25 233.65 457.8 234.65 455.2 235.75 453.55 237.1 451.75 237.7 450.85 238.75 449.2 238.85 447.8 239 445.9 237.7 443.9 236.8 442.5 234.8 440.65 233.8 439.7 232.85 438.95 234.2 436.6 233.15 433.25 232.4 430.75 229.95 426.9 223.8 417.25 219.25 403.6 216.5 395.4 212.35 378.65
L 207.4 358.55
Q 203.55 342.85 202.7 334.2 201.4 320.5 205 310.15 208.2 301.05 215.45 293.35 222.15 286.2 231.4 281.25 239.6 276.85 250 274.05 258.5 271.7 269.65 270.15 279.4 268.75 292.9 267.7 300.65 267.05 316.15 265.95 319.2 265.7 320.7 265.4 323.15 264.95 324.9 263.9 326.95 262.7 327.95 260.55
M 210.2 93.25
Q 207.15 92.75 203.5 93.95 201.05 94.75 197.2 96.85 196.15 97.4 181.05 106 171.3 111.55 164.65 114.65 161.45 116.15 147.65 121.85 137.15 126.2 130.9 129.7 110.6 141.15 93.45 164.75 82.55 179.8 66.65 210.15 60.25 222.35 57.05 228.85 51.9 239.3 48.35 247.95 43.15 260.85 40.4 272.75 37 287.8 37.2 303 37.55 333.85 52.95 360.8 68.9 388.7 95.3 401.9 99 403.7 102.25 403.8 106.25 403.85 107.65 401 109.15 398.15 106.6 394.85 104.65 392.35 100.8 390.05 79.9 377.6 68.15 361.1 58.8 347.9 54.35 330.75 50.3 314.95 50.75 297.3 51.4 274.05 59.35 254.85 61.55 249.5 66.45 239.9
L 77 219.3
Q 85.35 202.85 89.9 194.85 97.45 181.5 104.8 171.7 123.5 146.6 146.55 136.5 150.3 134.85 159.35 131.7 167.7 128.8 172.1 126.7 175.45 125.1 189.5 116.65 200 110.25 207.5 108.2 210.7 107.35 212.25 106.8 214.4 102.35 216.7 98.2 216.4 97.5 215.9 96.85 213.7 93.8 210.2 93.25 Z"/>

<path fill="#10194D" stroke="none" d="
M 348.3 21.25
Q 350.5 20.55 352.05 18.7 353.6 16.85 353.9 14.6 354.2 12.3 353.1 10.15 352.05 7.95 350.05 6.8 348 5.6 345.05 5.6 342.95 5.6 339.75 6.25 330.7 8.15 321.6 11.75 321.6 9.85 320.75 7.9 319 3.8 315.3 3.85 313.85 3.85 312.2 4.65 311.15 5.15 309.4 6.35 285.2 23.1 265.45 45.25 245.7 67.45 231.85 93.4 232 91 229.45 89.65 227 88.3 224.55 89.2 222.45 89.95 220.65 92.05 219.35 93.55 217.8 96.25 217.25 97.2 216.7 98.2 214.4 102.35 212.25 106.8 204.95 121.85 199.5 140.05 193.95 158.45 188.65 186.7 185.65 202.55 179.8 234.3 174.25 261.5 167.5 280.8 163.7 291.6 157.4 305.95 153.8 314.25 146.3 330.75 132.75 361.25 128.35 381.55 127.05 387.55 126.85 388.35 126.2 390.95 125.4 393 124.9 393.65 124.4 394.4 115.9 407.35 103.5 416.05 102.35 416.85 89.4 424.95 80.9 430.25 76.3 434.9 69.9 441.45 64.25 453.4 61.1 460.2 55.05 473.95 50.8 482.4 41.3 496.55 30.85 511.95 27.05 518.9 12.7 545.1 8.95 581.05 6.2 607.9 9.1 647.2 10.05 659.85 11.15 667.65 12.8 678.8 15.65 687.6 20.9 703.55 33.05 720.35 41.25 731.65 57.3 749.15 58.8 750.75 60.25 752.35 62.75 756.15 65.75 758.35 88.35 782.55 106.5 799.8 134.25 826.1 160.7 844.8 191 866.3 222.15 879.55 256.2 894.05 289.85 897.95 294.3 898.45 297.15 898.25 301.15 897.95 303.9 896.25 304.75 895.7 305.45 895.05 306.2 894.85 307.1 894.55 311.5 893.15 313.45 893.2 314.05 894.75 315.55 895.8 316.95 896.8 318.75 897.1 321.05 897.5 325.55 896.7
L 351.85 891.95
Q 358.75 890.75 361.7 890.35 367.2 889.55 371.6 889.5 374.25 889.45 378.55 889.7 383.8 889.95 385.5 890 394.85 890.25 404.15 888.4 407.35 887.75 413.7 886.25 419.35 885 423.4 884.85 425.5 884.8 430.85 885.1 435.6 885.35 438.35 885.15 441.55 884.9 445.85 883.8 448.3 883.15 453.25 881.75 459.35 880.15 459.65 880.1 463.25 879 465.75 877.55 468.8 875.8 470.6 873.1 472.65 870.1 472.45 866.95 472.25 863.55 469.35 861.3 466.3 859 463.35 860.25 461.9 860.85 460.1 862.8 457.95 865.05 457 865.65 453.25 868.1 447.3 866.35 445.7 865.9 442.55 864.6 439.5 863.3 437.85 862.85 434.5 861.95 430.2 862 427.6 862 422.5 862.5
L 402.45 864.55
Q 387.65 866.25 380.5 867.95 378.7 868.4 373.05 869.9 368.4 871.15 365.55 871.75 361.6 872.55 356.35 873.15 355.65 873.2 347 874.05 325.4 876.15 304.4 880.65 301.9 881.15 300.45 881.75 299.45 882.15 298.65 882.65 297.55 882.75 296.15 882.9 288 883.8 277.4 882.25 277.4 879.7 275.55 878 273.6 876.15 270 876.15 269.55 876.15 263.65 876.7 255.55 877.45 245.15 873.1 233.3 867.25 227.4 864.6 224 863.1 213.55 859.25 204.8 856 199.85 853.45 193.95 850.4 186.35 844.75 177.8 838.2 173.45 835 171.15 833.3 160.1 825.65 151.85 820 147 815.95 133.65 804.85 118.75 784.4 102.6 760.8 93.9 749.55 84.3 737.7 79.75 731.65 71.8 721.15 67.8 712.45 64.2 703.6 62.15 699.35 58.55 692 53.9 688.35 51.55 686.65 50.4 685.8 48.3 684.3 47.2 682.95 45.8 681.2 45 678.5 44.5 676.8 44 673.55 41 654.1 39.1 635.25 37.7 621.8 37.3 618.45 36.05 608.95 34.1 601.85 32.45 596.45 31.75 593.75 30.45 589 30.3 585.45 30.1 580.95 31.4 575.6 32.25 572 34.4 566 39.5 551.55 43.95 541.2 49.65 527.95 55.9 517.45 60.2 510.2 66.35 501.6 70.05 496.45 77.75 486.35
L 101.25 455.6
Q 102.6 454.85 103.5 453.9 104.8 452.55 105.7 450.3 105.85 449.95 106.1 449.25
L 112.5 440.8
Q 118.05 433.45 115.4 429.45 117.45 426.35 119.95 423.15 123.1 419.45 125.85 416.2 126 416.15 126.2 416.1 128.15 415.4 130.4 412.25 132.85 408.75 135.2 404.8 136.25 403.5 137.1 402.35 140.35 398.05 141.15 393.6 148.4 378.45 154.75 357.9 160.45 338.55 163.4 328.85 168.55 311.75 173.25 300.3 175 296 182.95 278.6 189.05 265.3 191.95 256.6 194.3 249.4 196.85 238.65 199.6 226.5 201.1 220.45 204.15 208.15 209.05 193.05 212 184 218.3 166 226.65 142.15 231.8 129.05 232.3 129.25 232.85 129.4 236.55 130.5 239.8 128.8 242.55 127.35 245 124.2 245.95 122.9 248.9 118.2 250.75 115.25 254.25 110.3 258.25 104.65 259.7 102.4 260.5 101.2 263.2 96.9 265.35 93.45 266.8 91.4 272.05 83.85 283.65 72.15 296.4 59.35 301.05 53.35 302.3 51.75 308.7 42.7 313.3 36.15 316.8 32.45 321.7 27.3 327.2 24.4 333.5 21.15 339.65 21.35 341.1 21.4 344.05 21.65 346.6 21.75 348.3 21.25
M 77.85 752.5
Q 78.05 751.4 78.25 750.05 81.15 754.5 83.85 758.65 82.95 757.75 82.05 756.8 79.9 754.6 77.85 752.5 Z"/>

<path fill="#3D3D47" stroke="none" d="
M 664 330.85
Q 654.35 311 649.15 301.4 648.1 299.4 641.15 287.35 636.2 278.8 633.6 273 630.9 267.15 628.45 259.6 626.75 254.55 624.3 245.8 613.4 206.8 608 176.35 606.7 168.75 606.95 164.95 607.3 161.7 607.4 160.05 607.65 157.1 607.15 155.15 606.55 152.7 604.65 150.25 603.4 148.65 600.75 146.1 599.05 144.5 597.9 143.8 596.2 142.8 594.6 142.95 591.55 143.3 590.6 147.05 589.8 150.15 590.5 154.1 597.5 192.05 601.65 210.55 608.7 241.75 617.3 265.8 620.9 275.8 624.5 283.8 627.7 290.8 633.25 301.4
L 643.4 320.95
Q 652.7 338.85 658.55 347.65 667.95 361.85 678.6 370.35 682.55 373.5 684.45 375.05 681.95 374.7 678.05 373 675.45 373.1 673.65 374.8 672.35 376.1 671.85 378 671.4 379.85 671.85 381.65 672.75 385.35 676.3 387.3 677.35 387.9 679.05 388.5 680.05 388.8 681.95 389.45 682.4 389.65 685.9 391.2 688.3 392.25 689.95 392.6 692.15 393.05 694.1 392.55 694.8 393.9 695.8 394.9 697.4 396.45 699.25 396.55 701.4 396.65 703.25 394.85 704.9 393.3 705.7 390.9 707.3 386 705.4 380.35 703.75 375.35 699.8 370.95 696.95 367.8 691.75 363.65 684.65 358.05 683.25 356.8 673.1 347.75 664 330.85 Z"/>
</g>

<g id="Boredom_Monkey_0_Layer1_0_FILL">
<path fill="#000000" stroke="none" d="
M 696.7 183.35
Q 689 177.65 676.3 170.6 637.55 149.15 594.9 136.1 592.15 135.25 590.45 134.95 588.5 134.65 586.85 134.8 578.5 114.7 563.85 94.85 536.9 58.1 500.55 36.4 460.85 12.75 403.8 4.3 369 -0.8 334 0.15 321.95 0.5 314.3 1.9 303.6 3.85 295.95 8.4 289.5 12.25 282.55 19.6 274.8 28.5 270.9 32.9 264.7 39.85 245.65 58.15 232.4 70.9 224.6 80.3 224.2 80.1 223.8 79.9 220.65 78.4 218.5 78.3 213.7 78.05 209.3 82.7 208.8 83.2 208.4 83.75 207.65 83.6 206.75 83.6 203.4 83.6 199.1 85.25 160.65 99.8 139.6 111.4 108.1 128.7 89.65 151 82.45 159.7 75.4 171.5 70.45 179.7 63.35 193.45 53.4 212.7 48.1 225.7 40.75 243.8 37.9 259.65 36.3 268.65 34.9 286.95 33.8 302.35 33.7 309.85 33.55 322.65 35.4 332.65 39.55 355.75 55.8 377.6 69.35 395.9 90.95 412.75 84.3 420.85 75.2 431.4 56.7 452.85 48.3 464.05 34.3 482.8 26.55 499.85 22 509.85 17.95 522.85 15.3 531.3 11.3 546.55 5.75 567.75 3.5 579.5 0 597.95 0 613.05 -0.05 631.1 4.85 653.05 7.85 666.6 15.55 692.1 20.65 709.05 23.8 717.55 28.95 731.45 35.15 741.55 39.9 749.25 46.9 757.55 51.95 763.5 60.3 772.2 118.35 832.4 176.95 867.1 210.55 886.95 245.2 899.1 282.1 911.95 318.55 915.45 323.5 915.9 326.5 915.85 330.9 915.7 334.25 914.5 336.2 913.85 339 912.3 342.85 910.15 343.55 909.8 347.75 907.8 353.45 906.6 356.65 905.95 363.85 905 384.3 902.45 423.95 896.8
L 486.55 888
Q 521.1 883.1 538.55 880 567.25 874.8 589.65 868.05 618.05 859.45 651.95 843.65 668.1 836.05 679.3 829.65 693.75 821.4 704.7 812.5 719.6 800.4 734.7 781.75 743.9 770.3 760.25 746.8 772.15 729.75 777.8 720.75 787.1 705.95 792.75 693.2 800.4 676.05 806.25 651.6 810.7 633.05 812 618.8 813.6 600.9 810.8 585.85 809.15 576.75 805.25 565.95 802.8 559.1 797.55 546.65 781.7 509.25 769.9 486.8 753.1 454.7 734.45 431.6 725.95 421.05 701.2 395 700.15 393.9 699.1 392.8 699.65 391.7 701.15 390.25 701.65 390.2 702.15 390.05 703.4 389.7 704.7 388.6 705.55 387.9 706.85 386.45 724.15 366.7 734.1 341.4 743.85 316.5 745.15 289.8 746 272.25 743 256.45 738.75 234.7 726.65 215.6 714.55 196.45 696.7 183.35
M 704.1 205.75
Q 707.9 209.9 711.65 215.8 714.05 219.65 717.85 226.8 722.65 235.5 724.85 240.7 734.1 262.15 732.4 289 730.95 312.15 721.5 337.75 718 347.15 714.55 353.45 710.1 361.6 704.55 367.1 700.55 370.8 698.7 372.75 697.85 373.7 697.15 374.6 694.4 374.45 692.85 376.2 691.95 377.25 691.2 379.95 690.65 381.9 690.1 383 676.75 368.25 669.15 357.6 654.65 337.35 642.25 308.75 634.75 291.4 622.35 256.25 615.65 237.2 612.45 227.35 607.2 211.25 603.9 198.05 599.55 178.85 597.3 169.25 594.7 157.95 592.05 149.2 643.1 163.75 687.6 192.75 698.55 199.8 704.1 205.75
M 690.85 406.7
Q 693.85 409.95 697.15 413.45 717.95 435.7 727.7 448.45 744.75 470.65 760.4 502.05 769.9 521.1 786.15 559.65 789.75 568.2 791.4 572.7 794.1 580.05 795.4 586.2 797.85 598.05 797 614.1 795.55 639.8 787.35 664.15 778.9 689.15 761.65 716.45 749.7 735.3 727.35 764.1 718.75 775.2 713.5 781.3 705.6 790.55 698.15 797.05 686.15 807.65 668.6 817.25 657.85 823.1 636.15 832.95 617.95 841.2 608.95 844.85 593.65 851.05 580.95 854.55 572.15 856.95 560.95 859.1 554.2 860.35 540.65 862.55
L 493.2 870.2
Q 438.2 879.1 410.35 882.95 364.25 889.35 327.05 892.05 310.8 893.25 300.1 893.2 285.35 893.2 273.35 891.1 259.95 888.8 245.05 883.15 233.15 878.65 218.05 871.1 176.75 850.45 139.6 822.65 102.45 794.85 71 761.05 63.25 752.75 58 746.2 51.3 737.9 46.7 730.1 41.4 721 36.85 709.25 33.5 700.55 29.5 687.35 21.95 662.05 18.85 643.15 14.85 618.8 16.7 598.05 17.6 587.8 20.2 575.5 22 567.15 25.65 553.3 30.2 536.25 33.55 526.05 38.45 511.2 44.2 499.8 55.05 478.35 82.8 446.25 99.9 426.45 104.4 420.95 105.1 420.1 105.8 419.25 106.9 419.15 107.95 418.8 111.1 417.8 112.6 415.35 114.05 412.95 113.4 409.95 113.35 409.75 113.3 409.55 119.35 401.4 123.85 394.1 131.85 381.1 141.8 359 180.65 272.65 200.45 180.05 206.4 152.15 208.6 144.2 214.15 124.2 222.2 110.4 230.3 96.5 247.15 79.3 247.85 78.6 261.45 65.05 270.05 56.5 275.35 50.55 288.7 35.5 288.85 35.3 296.95 27 304.7 23.05 311.45 19.6 320.45 18 327.05 16.85 337.15 16.4 373.6 14.75 406.7 20.25 442.65 26.25 473.05 40.4 505.55 55.55 530.45 79.7 556.6 105.05 570 136.25 574.45 146.6 578.5 160.15 580.9 168.05 585.2 184.6 602.4 250.7 616.05 286.5 637 341.45 666.35 378.7 672.35 386.3 683.65 398.8 683.6 400.85 684.3 402.65 685.1 404.8 686.85 405.9 688.45 406.9 690.55 406.7 690.7 406.7 690.85 406.7
M 210.8 95.3
Q 211.25 94.9 211.65 94.45 212.25 94.55 212.9 94.65 213.5 94.7 214.1 94.75 205.25 108.7 198.6 126.25 191.25 145.5 185.25 172.65 181.8 188.35 175.5 219.9 169.5 247.5 162.65 266.2 159.05 276.05 151.05 293.85 142.65 312.65 139.3 321.4 138.05 324.65 131.85 342.3 127.4 355.05 123.8 362.9 116.05 379.95 102.05 398.7 100.85 400.3 99.45 402.1 97.95 401.4 96.45 400.4 94.5 399.1 91.65 396.65 73.4 380.85 62.35 364.2 49.35 344.5 46.9 324.35 46.1 317.9 46.25 309.8 46.35 304.9 47 295.2 47.8 283.3 48.4 277.4 49.4 267.5 50.95 259.75 54.1 244.4 61.7 226.45 66.55 215.05 76.9 194.75 81.75 185.3 84.45 180.5 88.8 172.7 92.9 166.85 110.1 142.55 141.45 124.85 165.2 111.45 202.2 99.5 205.15 98.6 206.8 97.85 209.2 96.8 210.8 95.3
M 653.05 647.65
Q 657 621.9 652.3 595.35 647.85 570.5 636.05 545.8 625.1 523 608.35 501.3 593.65 482.25 592.85 481.1 584.6 469.2 581.55 458.75 577.75 445.7 580 428.15 580.9 421 586.15 397.3 592.7 367.55 592.65 344 592.6 314.9 582.7 292.25 568.35 259.4 534.25 241.15 500.5 223.05 464.5 228.15 454.25 229.65 437.3 234.4 417.5 240 410.3 241.5 387.45 246.25 354.9 245.3 317.6 243.15 299 242.55 270.2 241.6 249.8 246 223.45 251.65 206.95 266.6 191.45 280.7 184.4 303.05 177.9 323.45 179.55 346.6 180.95 366 188.1 389.3 192.4 403.45 203 430.55 206 438.2 207 442.5 208.6 449.3 207.45 454.75 206.55 459.25 203.4 464.35 202.05 466.6 197.3 473.05 184.2 490.85 172.2 515.7 164.85 530.85 152.3 561.3 142.05 586.15 138.1 599.65 131.7 621.4 132.2 639.5 132.25 642.15 132.5 644.8 131.55 645.65 131.15 646.9 130.75 648.2 131.3 649.3 131.9 650.35 133.15 650.75 135.7 668.9 144.9 686.9 155.9 708.35 174.7 726.9 190.45 742.45 213.5 757.8 227.55 767.15 256.2 783.65 279.4 797 291.85 802.8 312.25 812.25 329.9 815.25 343.1 817.5 359.1 816.95 371.2 816.55 388.4 814.3 410.3 811.5 451 804.45 474.6 800.35 486 797.85 505.35 793.6 520.15 788.1 559.15 773.6 597.6 740 609.65 729.45 618.4 719.75 628.75 708.2 635.75 696.6 648.9 674.7 653.05 647.65
M 409.7 257.55
Q 413.75 256.75 444.45 248.6 465.4 243.05 479.45 242.65 511.8 241.7 539.4 262.75 566.95 283.8 574.6 315.25 579.7 336.35 575.85 365.15 574.5 375.2 571.5 390.3 569.85 398.65 566.5 415.3 564.05 428.45 563.5 437.5 562.8 449.75 565.1 459.65 569.05 477 586.4 498.9 591.15 504.9 601 516.8 609.45 527.35 614.3 535.45 619.35 543.95 623.55 554.6 626.95 563.25 630.35 574.75 636.45 595.3 638.5 611.35 639.85 621.65 639.7 631.15 639.5 631.25 639.3 631.45 638.6 631.45 637.8 631.5 598.65 634.75 569.05 631.7 562.65 631.05 551 629.45 538.5 627.75 532.95 627.15 524.05 626.2 513.15 625.65 505.5 625.2 493.35 624.85 458.5 623.85 421.8 623.75 405.5 623.8 397.35 623.75 383.3 623.75 372.95 623.45 365.75 623.25 351.4 622.65 337 622 329.85 621.8 243.7 619.6 147.9 640.5 147.3 624.3 152.7 605.05 156.45 591.75 166.45 567.6 176.95 542.3 182.75 530.05 192.45 509.45 202.45 494.25 214.75 475.55 215.65 474 222.4 462.05 223.45 451.8 224.45 442 220.65 429.9 218.75 423.9 212.25 408.85 203.3 388.1 199.1 371.85 193.75 351.25 194.6 333.3 195.6 312.85 204.95 295.6 215 277.1 231.7 268.4 240.15 264 251.2 261.8 259.85 260.1 271.85 259.5 286.35 258.8 306.45 259.5 318 259.9 341.1 261.05 383.65 262.8 409.7 257.55
M 305.75 791.6
Q 299.45 788.8 288.45 783.1 261.65 769.3 245 759.45 221.65 745.65 204.05 731.8 180.6 713.3 166.6 692.9 151.4 670.75 148.5 647.9 221.45 630.55 296.7 629.35 312.35 629.15 338.35 629.5
L 435.45 630.9
Q 471.55 631.4 490.35 632.1 520.8 633.25 545.1 635.85 552.45 636.65 567.15 638.35 580.15 639.8 589.3 640.15 598 640.5 615.5 640.1
L 639.25 639.55
Q 638.85 644.1 638.05 648.4 632.7 678.1 609.2 706.05 591.1 727.5 559.45 750.7 553.65 754.95 550.1 756.8 544.65 759.7 539.7 760.1 533.05 760.7 531.55 761.1 527.15 762.25 526.65 765.6 522.7 765.9 517.9 768.2 512.35 771.2 509.6 772.65 498.2 778.7 482.5 782.55 472.9 784.85 453.9 787.8 408.4 794.8 385.6 797.9 366 800.5 354.6 800.8 337.4 801.3 323.9 797.95 315.5 795.85 305.75 791.6
M 353.25 502.1
Q 352.7 501.8 350.35 501.35 349 501 348.5 501.05 346.95 501.3 346.2 502.9 345.7 503.95 345.6 506.3 345.5 508.45 345.9 509.65 346.55 511.55 349.45 513.75 351.65 515.55 353.1 515.85 354.15 516.1 355.2 515.7 356.25 515.3 356.7 514.4 356.9 513.95 357 513.2 357.05 512.35 357.1 511.95 357.15 511.5 357.5 510.25 357.8 509.15 357.8 508.5 357.75 506.7 355.65 504.2 354.35 502.6 353.25 502.1
M 403.45 497.35
Q 403.05 498.05 402.1 498.95 401 500.05 400.7 500.4 399.7 501.65 399.15 503.45 397.85 507.4 398.9 510 399.5 511.6 401.05 512.55 402.65 513.45 404.2 512.95 405.3 512.65 406.7 511.1 409.25 508.25 410.6 504.8 411.5 502.35 411.15 500.95 410.9 499.95 410.15 499.3 409.35 498.6 408.4 498.65 408.6 496.85 407.5 495.85 406.9 495.3 406.1 495.2 405.3 495.1 404.7 495.55 404.35 495.8 404 496.4 403.8 496.7 403.45 497.35
M 322.15 481.2
Q 317.8 485.95 316.45 490 314.6 495.9 317.2 503.35 320.35 512.55 328.3 519.45 335.95 526.05 345.8 528.8 348.9 529.65 349.95 528.15 350.5 527.4 350.2 526.35 349.95 525.35 349.15 524.7 348.3 524 345.55 523.25 338.15 521.35 332.1 516.25 326.05 511.2 322.8 504.25 319.75 497.6 321 492.4 321.7 489.3 324.15 486.3 325.9 484.1 329.15 481.3 335.05 476.1 340.2 473.45 345 471 354.2 468.6 368.15 465.05 378.2 463.95 391.45 462.5 402.4 464.5 408 465.5 416.3 468.25 423.8 470.7 428.35 473.4 434.6 477.05 437.55 482.1 440.55 487.25 440.55 494.4 440.6 499.9 438.8 507.35 436.6 516.55 431.6 518.1 430.5 518.4 429.95 518.6 429.05 518.9 428.55 519.45 427.6 520.5 428.35 522 429.05 523.5 430.5 523.8 432.85 524.3 435.75 522 441.85 516.95 444.2 505.9 446.2 496.7 444.65 488.45 442.9 479.15 437 473.5 432.9 469.6 424.95 466.3 413.65 461.5 401.9 459.55 389.7 457.55 377.95 458.8 371.75 459.5 359.8 462.2 349.6 464.45 344.25 466.45 331.45 471.25 322.15 481.2
M 414.85 385.35
Q 410.75 387.65 408.65 390.9 406.95 393.4 406.15 397 405.6 399.55 405.3 403.65 404.9 409.8 405.3 414.25 405.85 419.95 407.8 424.35 410 429.35 413.55 431.5 416.15 433.1 420 433.5 422.3 433.7 426.9 433.5 478.55 430.7 530.2 433.8 533.7 434.05 535.65 433.85 538.65 433.55 540.7 432.25 543.2 430.6 545.6 425.85 548.3 420.6 550.65 414.1 551.95 410.45 552.45 407.9 553.05 404.4 552.55 401.5 552.1 399.1 550.75 396.35 549.85 394.6 547.95 391.55 545.4 387.55 544.1 385.75 541.85 382.65 539.6 380.55 535.05 376.3 529 374.45 525.7 373.4 521.4 373.05 518.65 372.85 513.6 372.85 483.35 372.6 467.65 373.8 442.2 375.65 422.8 382.05 417.9 383.65 414.85 385.35
M 419.45 395.7
Q 419.65 395.7 419.85 395.7 421.35 394.65 423.7 393.75 428.25 391.95 433.75 390.5 433.8 389.85 434.65 389.45 435.15 389.25 436.15 389.05
L 438.1 388.6
Q 439.15 388.4 439.7 389.1 440 389 440.35 388.95 445.05 387.95 450.05 387.15 450.15 386.9 450.3 386.6 450.75 385.7 450.8 385.55 451.1 384.95 451.4 384.75 451.85 384.5 452.3 384.65 453.1 384.75 453.3 385.25 453.4 385.35 453.45 385.5
L 453.45 385.9
Q 453.35 386.25 453.2 386.4 453.15 386.5 453.05 386.55 453 386.6 452.95 386.7 461.8 385.4 471.6 384.75
L 471.55 384.7
Q 471 383.95 471.3 383.3 471.6 382.75 472.35 382.6
L 473.6 382.55
Q 475.3 382.55 475.5 382.6 475.55 382.6 475.65 382.65 475.95 381.85 476.55 381.85 476.9 381.8 477.2 382.15 477.45 382.5 477.5 382.9 477.5 383.1 477.3 384.2 477.45 384.25 477.55 384.4 479.8 384.25 482.1 384.2 490 383.9 500.65 384.05 503.25 382.45 505.45 383.05 506.15 383.25 506.25 383.65 506.35 383.9 506.25 384.15 514.55 384.3 524.3 384.65 523.9 386.15 525.15 387.55 525.25 387.7 525.4 387.8 525.95 387.7 526.4 388 526.7 388.15 527.25 388.65 527.75 388.95 528.85 389.15 530 389.3 530.45 389.6 530.95 389.9 531.2 390.35 531.25 390.35 531.3 390.35 533.2 390.95 534.2 391.95 534.8 392.55 535.45 393.8 536.3 395.5 536.55 395.85 537.1 396.65 539 398.5 540.55 400.05 541.1 401.3 541.7 402.6 541.6 404.4 541.55 405.65 541.05 407.65 540.8 408.55 540.55 409.5 541.3 409.8 541.65 410.2 542 410.55 542.25 411.15 542.65 411.95 542.6 412.4 542.6 412.75 542.35 413 542.15 413.3 541.8 413.3 541.3 413.3 540.95 412.75 540.65 412.1 540.4 411.8 540.25 411.55 539.95 411.4 538.9 414.6 537.4 417.85 536 420.9 534.35 421.75 532.95 422.5 530 422.3 529.85 422.3 529.7 422.3 529.3 422.8 528.75 422.7 528.4 422.6 528 422.25 517.6 421.8 507.25 421.55 507.55 422.2 507.5 422.75 507.45 423.15 507.2 423.45 506.9 423.8 506.55 423.75 505.85 423.75 505.45 422.7 505.25 422.05 505.05 421.5 497.05 421.25 489.05 421.2 488.85 421.25 488.6 421.2 488.55 421.2 488.5 421.2 482.9 421.1 477.4 421.1 477.35 421.15 477.35 421.2
L 476.75 422.25
Q 476.55 422.85 476.4 423.05 476.25 423.25 475.75 423.55 475.35 423.75 475.15 423.75 474.7 423.8 474.3 423.35 474.1 422.9 474.25 422.4
L 475.15 421.1
Q 464.2 421.1 453.35 421.3
L 453.3 421.3
Q 452.95 421.85 452.3 421.75 451.75 421.65 451.55 421.3 439.65 421.5 427.8 422 427.95 422.25 427.95 422.65 427.95 423.1 427.7 423.2 427.55 423.35 427 423.35 424.5 423.05 423.65 422.7
L 423.05 422.35
Q 422.95 422.25 422.9 422.15 421.8 422.2 421.25 422.15 420.15 422 419.4 421.5 418.15 420.65 417.45 418.15 415.25 410.7 416.15 403 416.6 399.3 418.05 397.4 417.45 397.05 417.55 396.4 417.7 395.95 418.35 395.75 418.55 395.7 419.45 395.7
M 479.9 403.25
Q 479.85 403.35 479.65 403.35 478.6 403.45 477.85 404.25 477.1 405.1 477 406.15 476.85 408.3 478.85 409.8 479.85 410.55 481.1 410.65 482.5 410.65 483.3 409.7 484.1 408.65 483.85 407.35 483.65 406.3 482.75 405.1 481.45 403.45 479.9 403.25
M 363.6 382.25
Q 362.6 379.8 360.95 378.45 359.45 377.2 357 376.7 355.45 376.35 352.55 376.2 302.5 373.85 253.45 384.75 245.35 386.45 241 388.7 234.3 392.2 232 397.9 231.05 400.25 230.85 403.45 230.7 405.35 230.8 409.2 231.05 418.7 231.75 423.65 232.9 431.55 235.85 437.25 239.2 443.45 243.75 444.45 246.3 445 249.85 443.9 251.9 443.3 255.95 441.85 258.3 441.2 261.9 440.9 263.9 440.75 267.95 440.45 271.5 440.15 278.1 438.9 285.05 437.55 288.25 437.2 291.75 436.85 301.7 436.7 310.2 436.55 315.15 435.65 317.95 435.15 323.45 433.6 328.95 432.05 331.8 431.55 336.75 430.65 343.35 430.75 345.25 430.8 355 431.3 357.7 431.45 359.35 431.15 361.75 430.75 363.05 429.35 364.5 427.85 365.1 424 368.05 405.45 364.8 386.9 364.3 384.05 363.6 382.25
M 326.65 387.05
L 326.8 386.95
Q 328.95 385.65 330.05 386.4 330.4 386.6 330.6 387 337.85 387 344.75 387.4 344.95 387.15 345.25 387 345.85 386.7 347.85 386.7 348.75 386.7 348.9 386.75 349.25 386.9 349.85 387.35
L 350.65 387.6
Q 350.9 387.75 351.05 388 353.2 388.5 354.05 389.65 354.95 390.8 355.05 393.3 356.1 406.7 354.3 419.95 347.2 419.55 343.6 419.55 340.75 419.55 338.2 419.7
L 338.15 419.7
Q 337.65 420.3 336.65 420.1 336.35 420.05 336 419.85 334.4 419.95 332.95 420.15 329.35 420.65 321.35 422.65 313.9 424.5 309.7 424.95 309.15 425 308.55 425.1
L 308.7 425.9
Q 308.8 426.45 308.7 426.7 308.5 427 308 427.1 307.45 427.2 307.15 426.85
L 306.95 426.3 306.7 425.2
Q 304.45 425.3 301.6 425.35 295.35 425.4 293.45 425.5 288.8 425.8 280.5 427.2 271.5 428.75 267.6 429.1 266.75 429.15 266 429.2 265.85 429.55 265.65 429.7 265.35 429.9 265 429.7 264.7 429.55 264.5 429.3 259.55 429.65 256.8 429.95 250.65 430.7 246.6 432.85 243.65 429.2 242.8 422.8 242.4 416.55 242.1 412.95 241.9 412.75 241.75 412.45 241.4 411.85 241.2 411.65 240.85 411.4 240.7 411.25 240.4 411 240.35 410.7 240.2 410.2 240.7 409.85 241.2 409.5 241.8 409.6 241.6 407.7 241.6 406.95 241.6 404.4 242.45 402.65 244.35 398.65 251.6 396.55 255 395.6 260.4 394.55 260.45 394.4 260.6 394.35 260.7 394.35 260.9 394.35 261.05 394.3 261.1 394.2 261.3 394.3 261.65 394.3 263.45 393.95 265.5 393.6 271.25 392.6 276.7 391.75 276.8 391.45 277.25 391.3 277.9 391.05 278.5 391.4 278.55 391.4 278.65 391.45 293.85 389.15 306.65 388.1 307.75 387.4 309.35 386.9 310.15 386.7 310.35 386.3
L 310.65 385.85
Q 310.85 385.5 311.1 385.75 311.65 386.3 311.15 387 310.9 387.45 310.05 387.8 310 387.8 310 387.85 318.55 387.2 326.65 387.05
M 297.45 407.75
Q 297.4 407.95 297.1 407.95 295.5 408.05 294.55 409.35 293.65 410.7 294.1 412.15 294.35 412.95 295.15 413.95 296.8 415.8 298.35 415.8 299.5 415.85 300.5 415.05 301.35 414.4 301.8 413.4 302.25 412.4 302.05 411.4 301.85 409.9 300.35 408.85 299.15 408 297.45 407.75 Z"/>

<path fill="#FF0000" stroke="none" d="
M 432.7 415.35
Q 431.9 415.85 430.6 417.25 429.25 418.6 428.45 419.1 427.8 419.45 427.35 419.35 426.9 419.1 426.65 419.05 426.3 418.9 425.9 419.15 425.85 419.2 425.85 419.25 425.55 419 425.25 418.9 425.2 419.05 424.95 419.05 424.65 419.1 424.55 419.2 424.5 419.25 424.35 419.95 424.3 420.3 423.75 420.65 423.1 421.1 422.95 421.3 422.65 421.8 422.9 422.15 422.95 422.25 423.05 422.35
L 423.65 422.7
Q 424.5 423.05 427 423.35 427.55 423.35 427.7 423.2 427.95 423.1 427.95 422.65 427.95 422.25 427.8 422 427.7 421.75 427.5 421.55 427.6 421.55 427.65 421.55 429.1 421.35 430.65 419.9 431.5 419.15 433.15 417.55 434.65 416.35 436.55 416.05 437.75 415.95 438.25 415.65 438.65 415.4 438.8 415 438.95 414.5 438.75 414.15 438.3 413.5 437 413.85 434.1 414.45 432.7 415.35
M 455.45 415.7
L 455.15 415.7
Q 454.85 415.75 454.7 416.5 454.55 417 454.05 417.4 453.4 417.9 453.1 418.1 452.15 418.9 451.7 419.65 451.2 420.45 451.45 421.05 451.5 421.2 451.55 421.3 451.75 421.65 452.3 421.75 452.95 421.85 453.3 421.3
L 453.35 421.3 453.55 420.65
Q 454 419.65 455.9 418.35 456.6 417.65 456.6 416.8 456.6 416.35 456.35 415.95 456.05 415.6 455.6 415.55 455.6 415.65 455.45 415.7
M 475.05 419.95
Q 475.15 420.1 475.35 420.35 475.4 420.45 475.25 420.95
L 475.15 421.1 474.25 422.4
Q 474.1 422.9 474.3 423.35 474.7 423.8 475.15 423.75 475.35 423.75 475.75 423.55 476.25 423.25 476.4 423.05 476.55 422.85 476.75 422.25
L 477.35 421.2
Q 477.35 421.15 477.4 421.1 477.7 420.3 477.55 419.6 477.45 419.15 477.2 418.9 476.85 418.45 476.05 418.55 475.5 418.55 475.1 418.95 474.75 419.5 475.05 419.95
M 501.45 415.5
Q 500.6 415.5 500.25 415.7 499.45 416.1 499.7 416.75 499.85 417.3 500.65 417.4
L 501.85 417.45
Q 503.45 417.6 504.3 419.55 504.65 420.25 505.05 421.5 505.25 422.05 505.45 422.7 505.85 423.75 506.55 423.75 506.9 423.8 507.2 423.45 507.45 423.15 507.5 422.75 507.55 422.2 507.25 421.55 507.2 421.35 507.1 421.2
L 505.9 418.55
Q 505.25 417.25 504.85 416.8 503.7 415.6 501.45 415.5
M 490.05 415
Q 489.8 414.8 489.15 414.8 488.25 414.9 488.1 415.5 488 415.9 488.45 416.75 488.5 417.05 488.3 417.75
L 487.8 419.35 487.65 420.1
Q 487.65 420.95 488.5 421.2 488.55 421.2 488.6 421.2 488.85 421.25 489.05 421.2 489.55 421.05 489.8 420.5 489.9 420.2 489.9 419.65 489.85 419 489.9 418.8 490.25 418 490.4 417.6 490.8 416.75 490.55 415.8 490.45 415.3 490.05 415
M 528 422.25
Q 528.4 422.6 528.75 422.7 529.3 422.8 529.7 422.3 530.1 421.75 530 421.15 529.85 420.4 528.6 419.35 526.9 418.05 523.95 416.5 519.75 414.35 519.1 413.95 518.35 413.45 517.8 413.35 516.85 413.25 516.55 413.95 516.15 414.8 517.15 415.4 517.7 415.7 518.85 416 519.55 416.25 520.6 416.95 521.85 417.8 522.3 418 522.45 418.1 524.05 418.7 525.1 419.15 525.65 419.6 525.8 419.7 526.75 420.8
L 527.85 422.1
Q 527.9 422.15 528 422.25
M 527.85 407.35
Q 527.3 407.65 527 407.75 526.5 407.9 526.15 407.75 526.05 407.7 525.5 407.15 525.1 406.75 524.75 406.8 523.95 406.8 523.85 407.6 523.8 407.85 524 408.35 524.4 409.15 525.15 409.6 525.9 410.1 526.7 409.95 527.15 409.85 528 409.45 529.4 408.75 531 409 532.1 409.15 534.15 409.85
L 535.7 410.1
Q 535.85 410.1 537.25 410.55
L 538.45 410.85
Q 538.9 410.9 539.45 411.15 539.75 411.25 539.95 411.4 540.25 411.55 540.4 411.8 540.65 412.1 540.95 412.75 541.3 413.3 541.8 413.3 542.15 413.3 542.35 413 542.6 412.75 542.6 412.4 542.65 411.95 542.25 411.15 542 410.55 541.65 410.2 541.3 409.8 540.55 409.5 540.45 409.45 540.35 409.4 539.1 408.9 537.2 408.5 535.05 408.05 533.95 407.75 531.95 407.15 530.9 407 529.15 406.75 527.85 407.35
M 513.3 394.55
Q 512.7 394.8 511.65 394.8 510.35 394.8 509.95 394.85 509.95 394.5 509.65 394.25 509.4 394 509.05 394 508.45 393.95 507.9 394.6 507.4 395.2 507.6 395.85 507.8 396.35 508.55 396.65 508.8 396.7 510.1 396.85 513.25 396.85 514.75 396.05 515.6 395.55 516.75 394.3
L 520.15 390.7
Q 522.75 390.5 524.4 390.95 524.95 391.1 527.1 392 528.75 392.7 529.85 392.75 530.5 392.75 530.9 392.55 531.45 392.3 531.45 391.65
L 531.45 391.6
Q 531.45 391.45 531.45 391.35 531.45 390.75 531.2 390.35 530.95 389.9 530.45 389.6 530 389.3 528.85 389.15 527.75 388.95 527.25 388.65 526.7 388.15 526.4 388 525.95 387.7 525.4 387.8
L 525.35 387.8
Q 524.9 387.9 524.65 388.2 524.35 388.5 524.4 388.9 522.7 388.45 520.85 388.5 519.85 388.65 519.7 388.7 518.9 389 517.7 390.5 516.35 392.15 514.55 393.7 513.85 394.4 513.3 394.55
M 496.05 387.65
Q 495.15 388.25 494.85 388.55 494.25 389.15 494.35 389.9 494.45 390.25 494.75 390.5 495.05 390.75 495.4 390.7 495.8 390.65 496.1 390.3
L 498.7 388
Q 500.85 386.2 501.65 385.75 502.95 384.95 504.1 384.9 505.25 384.9 505.55 384.8 505.95 384.65 506.15 384.3 506.2 384.2 506.25 384.15 506.35 383.9 506.25 383.65 506.15 383.25 505.45 383.05 503.25 382.45 500.65 384.05 500.45 384.15 500.3 384.25 499.6 384.75 498.2 385.95 496.85 387.15 496.05 387.65
M 477.2 382.15
Q 476.9 381.8 476.55 381.85 475.95 381.85 475.65 382.65 475.55 382.6 475.5 382.6 475.3 382.55 473.6 382.55
L 472.35 382.6
Q 471.6 382.75 471.3 383.3 471 383.95 471.55 384.7
L 471.6 384.75
Q 471.95 385.1 472.7 385.6 473.7 386.1 473.9 386.15 474.5 386.35 475.25 386.3 475.25 386.6 475.25 386.9 475.25 389.8 475.65 391.2 475.85 391.85 476.15 392 476.55 392.2 477 391.95 477.4 391.65 477.5 391.2 477.65 390.75 477.3 389.45 477.1 388.45 477.1 386.5 477.1 386.2 477.1 385.95 477.55 385.75 477.75 385.4 478 384.95 477.6 384.45 477.6 384.4 477.55 384.4 477.45 384.25 477.3 384.2 477.5 383.1 477.5 382.9 477.45 382.5 477.2 382.15
M 453.45 385.5
Q 453.4 385.35 453.3 385.25 453.1 384.75 452.3 384.65 451.85 384.5 451.4 384.75 451.1 384.95 450.8 385.55 450.75 385.7 450.3 386.6 450.15 386.9 450.05 387.15 449.9 387.4 449.85 387.65 449.45 389 450.2 389.8 450.8 390.45 452.1 390.55
L 453.25 390.6
Q 453.95 390.6 454.45 390.7 455.9 391 456.35 392 456.55 392.45 456.55 393.2 456.55 393.65 456.55 394.55 456.65 396.15 457.8 397.25 458.35 397.8 458.8 397.85 459.55 397.95 459.85 397.4 460.2 396.8 459.55 396.05 458.8 395.35 458.6 394.9 458.35 394.4 458.4 393.6
L 458.45 392.2
Q 458.25 390.1 455.85 389.1 454.55 388.55 451.7 388.45 451.65 387.85 452.6 387 452.8 386.85 452.95 386.7 453 386.6 453.05 386.55 453.15 386.5 453.2 386.4 453.35 386.25 453.45 385.9
L 453.45 385.5
M 434.65 389.45
Q 433.8 389.85 433.75 390.5
L 433.75 390.55
Q 433.7 391.65 435.15 391.95 435.4 392 436.25 392.05 436.9 392.1 437.3 392.25 437.85 392.5 438.35 392.9 438.85 393.25 439.1 393.6 439.3 393.9 439.4 395.05
L 439.55 396
Q 440.05 398.3 440.8 399.15 441 399.45 441.45 400
L 441.7 400.7
Q 441.85 401 442.55 401.45 443.35 401.95 443.85 402.2 444.35 402.4 445.4 402.75 446.3 403.1 446.65 403.65 446.85 403.9 447.2 404.45 447.65 404.9 448.2 404.5 448.65 404.2 448.65 403.6 448.65 403 447.8 402.05 447.2 401.45 446.8 401.2 446.4 400.95 445.35 400.65 444.35 400.35 443.9 400 443.35 399.6 442.8 398.65
L 442.3 398 441.95 397.25 441.6 396.05
Q 441.2 394.55 441.15 393.75 441.05 392.9 440.95 392.75 440.8 392.35 440.2 391.85 439.45 391.25 439.25 390.95 439.7 390.75 439.85 390.25 440.05 389.75 439.8 389.3 439.75 389.2 439.7 389.1 439.15 388.4 438.1 388.6
L 436.15 389.05
Q 435.15 389.25 434.65 389.45
M 419.85 395.7
Q 419.65 395.7 419.45 395.7 418.55 395.7 418.35 395.75 417.7 395.95 417.55 396.4 417.45 397.05 418.05 397.4 418.2 397.5 418.45 397.55 418.95 397.65 420.05 397.65 420.7 397.75 421.15 398.05 421.65 398.35 421.7 398.75 421.7 398.85 421.45 399.6 421.25 400.2 421.25 400.95 421.25 402.05 421.5 402.55 421.75 403.2 422.55 403.8 423.05 404.1 424 404.7 424.45 405 425.3 405.65 425.8 405.95 426.9 406.35 427.75 406.65 429.4 407.3 430.9 407.85 431.95 408.05 432.75 408.15 433.15 408 433.8 407.7 433.8 407.15 433.8 406.55 433.2 406.3 433.15 406.25 432.2 406 431 405.8 428.05 404.7 426.35 403.9 426.1 403.75
L 424.8 402.9
Q 423.75 402.3 423.5 402 423 401.25 423.4 399.75 423.75 398.1 423.3 397.45
L 422.6 396.75
Q 421.4 395.85 420.9 395.75 420.75 395.7 419.85 395.7
M 328.35 413.4
Q 327.8 413.5 327.6 414.1 327.45 414.9 328.75 415.3 329.7 415.65 331.6 416.2 332.5 416.65 333.5 417.6 334.1 418.15 335.25 419.25 335.65 419.6 336 419.85 336.35 420.05 336.65 420.1 337.65 420.3 338.15 419.7
L 338.2 419.7
Q 338.4 419.35 338.35 418.9 338.3 418.45 337.95 418.25 337.15 418.2 336.75 418.05 336.6 418 336 417.4 333.4 414.2 329.4 413.4 328.7 413.3 328.35 413.4
M 269.4 423.7
Q 269.2 423.1 268.6 423.1 268.05 423 267.7 423.55 267.55 423.7 267.4 424.15 267.2 424.6 267.05 424.75
L 266.3 425.1
Q 265.95 425.25 265.15 425.95 264.7 426.4 264.5 426.8 264.35 427.15 264.25 427.85 264.25 428.85 264.45 429.25 264.45 429.3 264.5 429.3 264.7 429.55 265 429.7 265.35 429.9 265.65 429.7 265.85 429.55 266 429.2 266.05 429 266.1 428.75 266.1 428 266.25 427.7 266.45 427.3 267.05 426.95 268 426.45 268.05 426.4 268.65 425.95 269.15 424.8 269.5 424.15 269.4 423.7
M 248.35 412.65
Q 249.4 412.65 249.9 412.85 250.35 413.05 251.35 413.95 253.5 415.75 256.1 415.6 256.75 415.6 257.2 415.3 257.7 414.95 257.65 414.45 257.6 413.7 256.4 413.6 254.7 413.65 253.9 413.35 253.35 413.15 252.6 412.4 251.7 411.55 251.3 411.3 250.05 410.45 247.85 410.7 245.5 411.2 244.3 411.45 243.8 411.55 243.55 411.4 243.3 411.25 243.1 410.6 242.7 409.75 241.8 409.6 241.2 409.5 240.7 409.85 240.2 410.2 240.35 410.7 240.4 411 240.7 411.25 240.85 411.4 241.2 411.65 241.4 411.85 241.75 412.45 241.9 412.75 242.1 412.95 242.25 413.15 242.4 413.25 242.95 413.7 243.95 413.6 244.45 413.55 245.65 413.15 246.85 412.75 248.35 412.65
M 307.7 422.55
Q 307.4 422.3 306.8 422.3 306.2 422.3 305.9 422.55 305.3 423.05 305.55 423.7 305.7 424.35 306.5 424.45
L 306.7 425.2 306.95 426.3 307.15 426.85
Q 307.45 427.2 308 427.1 308.5 427 308.7 426.7 308.8 426.45 308.7 425.9
L 308.55 425.1 308.2 423.4
Q 308 422.75 307.7 422.55
M 303.15 394.35
Q 303.3 394.3 303.65 394.35 304 394.4 304.15 394.3 304.3 394.2 304.4 393.85 304.6 392.65 305.2 391.4 305.65 390.25 306.3 389.65 306.9 389 308.05 388.55 308.7 388.3 310 387.85 310 387.8 310.05 387.8 310.9 387.45 311.15 387 311.65 386.3 311.1 385.75 310.85 385.5 310.65 385.85
L 310.35 386.3
Q 310.15 386.7 309.35 386.9 307.75 387.4 306.65 388.1 305.35 388.85 304.75 389.85 304.4 390.4 304.05 391.55 303.65 392.7 303.35 393.2 302.8 394 303.15 394.35
M 277.25 391.3
Q 276.8 391.45 276.7 391.75 276.6 392 276.7 392.35 276.8 392.75 277.55 393.3 277.85 393.75 277.75 394.8 277.65 395.95 277.85 396.7 278.2 397.8 279.05 398.15 279.45 398.35 280.45 398.35 281.4 398.4 281.8 398.7 282.05 398.85 282.45 399.15 282.95 399.35 283.35 398.95 283.8 398.55 283.75 398 283.6 396.95 282.4 396.6 282.35 396.6 280.35 396.3 279.95 396.3 279.75 396.1 279.6 395.9 279.6 395.4
L 279.7 393.7
Q 279.7 392.55 279.4 392.1 279.15 391.65 278.65 391.45 278.55 391.4 278.5 391.4 277.9 391.05 277.25 391.3
M 261.65 394.3
Q 261.3 394.3 261.1 394.2 261.05 394.3 260.9 394.35 260.7 394.35 260.6 394.35 260.45 394.4 260.4 394.55
L 260.35 394.6
Q 260.2 394.85 260.1 394.9 260 395.05 259.75 395.2 259.4 395.5 259.4 396.6
L 259.4 396.65
Q 258.85 396.8 258.5 396.95 257.55 397.3 257.3 398 257.1 398.4 257.3 398.85 257.45 399.3 257.85 399.35 258.15 399.45 258.85 399.15
L 261.9 397.75
Q 262.1 398.3 262.05 399.4 262 400.55 262.15 401.05 262.45 402.15 264.35 403.4
L 267.55 405.25
Q 268.45 405.7 268.85 405.45 269.2 405.25 269.25 404.85 269.3 404.45 269.1 404.15 268.75 403.6 267.95 403.25
L 266.15 402.2
Q 264.35 401.2 264 400.2 263.8 399.7 263.85 398.9 263.95 398.05 263.95 397.6 263.95 396.4 263.5 395.85 263.65 395.75 263.7 395.55 263.9 395.25 263.75 394.85 263.6 394.45 263.25 394.3 262.9 394.1 262.2 394.25 261.9 394.3 261.65 394.3
M 341.45 391.9
Q 342.2 391.55 343.55 391.2 345.2 390.85 345.75 390.65 346.1 390.5 346.3 390.4 346.65 390.45 346.95 390.45 347.75 390.4 349.3 389.8 350.45 389.7 350.7 389.5 351.25 389.2 351.25 388.55 351.2 388.2 351.05 388 350.9 387.75 350.65 387.6
L 349.85 387.35
Q 349.25 386.9 348.9 386.75 348.75 386.7 347.85 386.7 345.85 386.7 345.25 387 344.95 387.15 344.75 387.4 344.65 387.5 344.6 387.65
L 344.6 388.55
Q 344.6 388.75 344.55 389.15 344.55 389.2 344.55 389.25 344.5 389.2 344.45 389.2 343.4 388.9 341.55 390.1
L 338.65 391.85
Q 335.9 393.4 335.25 393.9 333.8 395.1 332.95 395.5 332 395.85 331.55 396.05 330.9 396.35 330.05 397 328.85 397.9 328.8 398.9 328.75 399.45 329.05 400 330.2 399.95 331.55 398.6 332.2 397.9 333.5 396.45 334.15 395.9 336 395 338.6 393.7 339.8 392.9 341.2 392.05 341.45 391.9
M 331 397.45
L 331.1 397.55 330.45 398.2
Q 330.3 398.35 330.25 398.35
L 330.05 398.4 331 397.45
M 354.2 403.15
Q 353.9 402.45 353.05 402.55 352.85 402.55 351.7 402.8 351.4 402.9 349.75 403
L 329.05 403.5
Q 328.05 403.65 327.8 403.75 327.1 404.1 327.25 404.85 327.5 405.5 328.75 405.5 339.25 405.35 349.55 405.05 351.9 404.95 352.35 404.85 353.25 404.75 353.75 404.45 354.5 403.85 354.2 403.15
M 281.25 423.05
Q 281.55 422.4 281.35 422.1 281.2 421.75 280.5 421.55 280.5 421.65 280 421.75 279.85 421.8 279.45 422.55
L 278.95 423.15
Q 277.95 424.2 278.2 425.65 278.2 425.95 278.35 426.15 278.55 426.35 278.9 426.35 279.35 426.4 279.7 426.35 280.1 426.2 280.25 425.85 280.2 425.15 280.25 424.8 280.3 424.45 280.7 423.95 281 423.65 281.25 423.05
M 257.2 424.55
Q 257.55 424.45 257.8 424.1 258.05 423.75 258 423.45 257.85 422.6 256.45 422.5 249.95 421.75 246.45 423.8 245.55 424.3 245.05 425 244.9 425.25 244.55 426.45 244.45 427.25 244.6 427.5 244.85 427.9 245.5 427.9 246.15 427.9 246.45 427.45 246.6 426.65 246.7 426.3 246.95 425.7 247.7 425.35 250.8 423.8 255.75 424.55 256.85 424.65 257.2 424.55
M 326.8 386.95
L 326.65 387.05 323.9 388.65
Q 321.95 389.7 321.25 390.75 320.6 391.9 320.2 392.45 319.75 393 318.85 393.6 317.55 394.45 317.35 394.6 316.6 395.25 316.3 396.1 316 397.05 316.45 397.75 317.15 398.85 318.65 398.5 319.5 398.35 320.8 397.35 322.5 395.9 324.4 393.75 325.1 392.9 325.7 392.4 325.95 392.2 328.3 390.95 330.05 390.1 330.55 389.05 330.9 388.35 330.75 387.6 330.7 387.25 330.6 387 330.4 386.6 330.05 386.4 328.95 385.65 326.8 386.95 Z"/>

<path fill="#FFBCBC" stroke="none" d="
M 423.7 393.75
Q 421.35 394.65 419.85 395.7 420.75 395.7 420.9 395.75 421.4 395.85 422.6 396.75
L 423.3 397.45
Q 423.75 398.1 423.4 399.75 423 401.25 423.5 402 423.75 402.3 424.8 402.9
L 426.1 403.75
Q 426.35 403.9 428.05 404.7 431 405.8 432.2 406 433.15 406.25 433.2 406.3 433.8 406.55 433.8 407.15 433.8 407.7 433.15 408 432.75 408.15 431.95 408.05 430.9 407.85 429.4 407.3 427.75 406.65 426.9 406.35 425.8 405.95 425.3 405.65 424.45 405 424 404.7 423.05 404.1 422.55 403.8 421.75 403.2 421.5 402.55 421.25 402.05 421.25 400.95 421.25 400.2 421.45 399.6 421.7 398.85 421.7 398.75 421.65 398.35 421.15 398.05 420.7 397.75 420.05 397.65 418.95 397.65 418.45 397.55 418.2 397.5 418.05 397.4 416.6 399.3 416.15 403 415.25 410.7 417.45 418.15 418.15 420.65 419.4 421.5 420.15 422 421.25 422.15 421.8 422.2 422.9 422.15 422.65 421.8 422.95 421.3 423.1 421.1 423.75 420.65 424.3 420.3 424.35 419.95 424.5 419.25 424.55 419.2 424.65 419.1 424.95 419.05 425.2 419.05 425.25 418.9 425.55 419 425.85 419.25 425.85 419.2 425.9 419.15 426.3 418.9 426.65 419.05 426.9 419.1 427.35 419.35 427.8 419.45 428.45 419.1 429.25 418.6 430.6 417.25 431.9 415.85 432.7 415.35 434.1 414.45 437 413.85 438.3 413.5 438.75 414.15 438.95 414.5 438.8 415 438.65 415.4 438.25 415.65 437.75 415.95 436.55 416.05 434.65 416.35 433.15 417.55 431.5 419.15 430.65 419.9 429.1 421.35 427.65 421.55 427.6 421.55 427.5 421.55 427.7 421.75 427.8 422 439.65 421.5 451.55 421.3 451.5 421.2 451.45 421.05 451.2 420.45 451.7 419.65 452.15 418.9 453.1 418.1 453.4 417.9 454.05 417.4 454.55 417 454.7 416.5 454.85 415.75 455.15 415.7
L 455.45 415.7
Q 455.6 415.65 455.6 415.55 456.05 415.6 456.35 415.95 456.6 416.35 456.6 416.8 456.6 417.65 455.9 418.35 454 419.65 453.55 420.65
L 453.35 421.3
Q 464.2 421.1 475.15 421.1
L 475.25 420.95
Q 475.4 420.45 475.35 420.35 475.15 420.1 475.05 419.95 474.75 419.5 475.1 418.95 475.5 418.55 476.05 418.55 476.85 418.45 477.2 418.9 477.45 419.15 477.55 419.6 477.7 420.3 477.4 421.1 482.9 421.1 488.5 421.2 487.65 420.95 487.65 420.1
L 487.8 419.35 488.3 417.75
Q 488.5 417.05 488.45 416.75 488 415.9 488.1 415.5 488.25 414.9 489.15 414.8 489.8 414.8 490.05 415 490.45 415.3 490.55 415.8 490.8 416.75 490.4 417.6 490.25 418 489.9 418.8 489.85 419 489.9 419.65 489.9 420.2 489.8 420.5 489.55 421.05 489.05 421.2 497.05 421.25 505.05 421.5 504.65 420.25 504.3 419.55 503.45 417.6 501.85 417.45
L 500.65 417.4
Q 499.85 417.3 499.7 416.75 499.45 416.1 500.25 415.7 500.6 415.5 501.45 415.5 503.7 415.6 504.85 416.8 505.25 417.25 505.9 418.55
L 507.1 421.2
Q 507.2 421.35 507.25 421.55 517.6 421.8 528 422.25 527.9 422.15 527.85 422.1
L 526.75 420.8
Q 525.8 419.7 525.65 419.6 525.1 419.15 524.05 418.7 522.45 418.1 522.3 418 521.85 417.8 520.6 416.95 519.55 416.25 518.85 416 517.7 415.7 517.15 415.4 516.15 414.8 516.55 413.95 516.85 413.25 517.8 413.35 518.35 413.45 519.1 413.95 519.75 414.35 523.95 416.5 526.9 418.05 528.6 419.35 529.85 420.4 530 421.15 530.1 421.75 529.7 422.3 529.85 422.3 530 422.3 532.95 422.5 534.35 421.75 536 420.9 537.4 417.85 538.9 414.6 539.95 411.4 539.75 411.25 539.45 411.15 538.9 410.9 538.45 410.85
L 537.25 410.55
Q 535.85 410.1 535.7 410.1
L 534.15 409.85
Q 532.1 409.15 531 409 529.4 408.75 528 409.45 527.15 409.85 526.7 409.95 525.9 410.1 525.15 409.6 524.4 409.15 524 408.35 523.8 407.85 523.85 407.6 523.95 406.8 524.75 406.8 525.1 406.75 525.5 407.15 526.05 407.7 526.15 407.75 526.5 407.9 527 407.75 527.3 407.65 527.85 407.35 529.15 406.75 530.9 407 531.95 407.15 533.95 407.75 535.05 408.05 537.2 408.5 539.1 408.9 540.35 409.4 540.45 409.45 540.55 409.5 540.8 408.55 541.05 407.65 541.55 405.65 541.6 404.4 541.7 402.6 541.1 401.3 540.55 400.05 539 398.5 537.1 396.65 536.55 395.85 536.3 395.5 535.45 393.8 534.8 392.55 534.2 391.95 533.2 390.95 531.3 390.35 531.25 390.35 531.2 390.35 531.45 390.75 531.45 391.35 531.45 391.45 531.45 391.6
L 531.45 391.65
Q 531.45 392.3 530.9 392.55 530.5 392.75 529.85 392.75 528.75 392.7 527.1 392 524.95 391.1 524.4 390.95 522.75 390.5 520.15 390.7
L 516.75 394.3
Q 515.6 395.55 514.75 396.05 513.25 396.85 510.1 396.85 508.8 396.7 508.55 396.65 507.8 396.35 507.6 395.85 507.4 395.2 507.9 394.6 508.45 393.95 509.05 394 509.4 394 509.65 394.25 509.95 394.5 509.95 394.85 510.35 394.8 511.65 394.8 512.7 394.8 513.3 394.55 513.85 394.4 514.55 393.7 516.35 392.15 517.7 390.5 518.9 389 519.7 388.7 519.85 388.65 520.85 388.5 522.7 388.45 524.4 388.9 524.35 388.5 524.65 388.2 524.9 387.9 525.35 387.8
L 525.4 387.8
Q 525.25 387.7 525.15 387.55 523.9 386.15 524.3 384.65 514.55 384.3 506.25 384.15 506.2 384.2 506.15 384.3 505.95 384.65 505.55 384.8 505.25 384.9 504.1 384.9 502.95 384.95 501.65 385.75 500.85 386.2 498.7 388
L 496.1 390.3
Q 495.8 390.65 495.4 390.7 495.05 390.75 494.75 390.5 494.45 390.25 494.35 389.9 494.25 389.15 494.85 388.55 495.15 388.25 496.05 387.65 496.85 387.15 498.2 385.95 499.6 384.75 500.3 384.25 500.45 384.15 500.65 384.05 490 383.9 482.1 384.2 479.8 384.25 477.55 384.4 477.6 384.4 477.6 384.45 478 384.95 477.75 385.4 477.55 385.75 477.1 385.95 477.1 386.2 477.1 386.5 477.1 388.45 477.3 389.45 477.65 390.75 477.5 391.2 477.4 391.65 477 391.95 476.55 392.2 476.15 392 475.85 391.85 475.65 391.2 475.25 389.8 475.25 386.9 475.25 386.6 475.25 386.3 474.5 386.35 473.9 386.15 473.7 386.1 472.7 385.6 471.95 385.1 471.6 384.75 461.8 385.4 452.95 386.7 452.8 386.85 452.6 387 451.65 387.85 451.7 388.45 454.55 388.55 455.85 389.1 458.25 390.1 458.45 392.2
L 458.4 393.6
Q 458.35 394.4 458.6 394.9 458.8 395.35 459.55 396.05 460.2 396.8 459.85 397.4 459.55 397.95 458.8 397.85 458.35 397.8 457.8 397.25 456.65 396.15 456.55 394.55 456.55 393.65 456.55 393.2 456.55 392.45 456.35 392 455.9 391 454.45 390.7 453.95 390.6 453.25 390.6
L 452.1 390.55
Q 450.8 390.45 450.2 389.8 449.45 389 449.85 387.65 449.9 387.4 450.05 387.15 445.05 387.95 440.35 388.95 440 389 439.7 389.1 439.75 389.2 439.8 389.3 440.05 389.75 439.85 390.25 439.7 390.75 439.25 390.95 439.45 391.25 440.2 391.85 440.8 392.35 440.95 392.75 441.05 392.9 441.15 393.75 441.2 394.55 441.6 396.05
L 441.95 397.25 442.3 398 442.8 398.65
Q 443.35 399.6 443.9 400 444.35 400.35 445.35 400.65 446.4 400.95 446.8 401.2 447.2 401.45 447.8 402.05 448.65 403 448.65 403.6 448.65 404.2 448.2 404.5 447.65 404.9 447.2 404.45 446.85 403.9 446.65 403.65 446.3 403.1 445.4 402.75 444.35 402.4 443.85 402.2 443.35 401.95 442.55 401.45 441.85 401 441.7 400.7
L 441.45 400
Q 441 399.45 440.8 399.15 440.05 398.3 439.55 396
L 439.4 395.05
Q 439.3 393.9 439.1 393.6 438.85 393.25 438.35 392.9 437.85 392.5 437.3 392.25 436.9 392.1 436.25 392.05 435.4 392 435.15 391.95 433.7 391.65 433.75 390.55
L 433.75 390.5
Q 428.25 391.95 423.7 393.75
M 479.65 403.35
Q 479.85 403.35 479.9 403.25 481.45 403.45 482.75 405.1 483.65 406.3 483.85 407.35 484.1 408.65 483.3 409.7 482.5 410.65 481.1 410.65 479.85 410.55 478.85 409.8 476.85 408.3 477 406.15 477.1 405.1 477.85 404.25 478.6 403.45 479.65 403.35
M 330.75 387.6
Q 330.9 388.35 330.55 389.05 330.05 390.1 328.3 390.95 325.95 392.2 325.7 392.4 325.1 392.9 324.4 393.75 322.5 395.9 320.8 397.35 319.5 398.35 318.65 398.5 317.15 398.85 316.45 397.75 316 397.05 316.3 396.1 316.6 395.25 317.35 394.6 317.55 394.45 318.85 393.6 319.75 393 320.2 392.45 320.6 391.9 321.25 390.75 321.95 389.7 323.9 388.65
L 326.65 387.05
Q 318.55 387.2 310 387.85 308.7 388.3 308.05 388.55 306.9 389 306.3 389.65 305.65 390.25 305.2 391.4 304.6 392.65 304.4 393.85 304.3 394.2 304.15 394.3 304 394.4 303.65 394.35 303.3 394.3 303.15 394.35 302.8 394 303.35 393.2 303.65 392.7 304.05 391.55 304.4 390.4 304.75 389.85 305.35 388.85 306.65 388.1 293.85 389.15 278.65 391.45 279.15 391.65 279.4 392.1 279.7 392.55 279.7 393.7
L 279.6 395.4
Q 279.6 395.9 279.75 396.1 279.95 396.3 280.35 396.3 282.35 396.6 282.4 396.6 283.6 396.95 283.75 398 283.8 398.55 283.35 398.95 282.95 399.35 282.45 399.15 282.05 398.85 281.8 398.7 281.4 398.4 280.45 398.35 279.45 398.35 279.05 398.15 278.2 397.8 277.85 396.7 277.65 395.95 277.75 394.8 277.85 393.75 277.55 393.3 276.8 392.75 276.7 392.35 276.6 392 276.7 391.75 271.25 392.6 265.5 393.6 263.45 393.95 261.65 394.3 261.9 394.3 262.2 394.25 262.9 394.1 263.25 394.3 263.6 394.45 263.75 394.85 263.9 395.25 263.7 395.55 263.65 395.75 263.5 395.85 263.95 396.4 263.95 397.6 263.95 398.05 263.85 398.9 263.8 399.7 264 400.2 264.35 401.2 266.15 402.2
L 267.95 403.25
Q 268.75 403.6 269.1 404.15 269.3 404.45 269.25 404.85 269.2 405.25 268.85 405.45 268.45 405.7 267.55 405.25
L 264.35 403.4
Q 262.45 402.15 262.15 401.05 262 400.55 262.05 399.4 262.1 398.3 261.9 397.75
L 258.85 399.15
Q 258.15 399.45 257.85 399.35 257.45 399.3 257.3 398.85 257.1 398.4 257.3 398 257.55 397.3 258.5 396.95 258.85 396.8 259.4 396.65
L 259.4 396.6
Q 259.4 395.5 259.75 395.2 260 395.05 260.1 394.9 260.2 394.85 260.35 394.6
L 260.4 394.55
Q 255 395.6 251.6 396.55 244.35 398.65 242.45 402.65 241.6 404.4 241.6 406.95 241.6 407.7 241.8 409.6 242.7 409.75 243.1 410.6 243.3 411.25 243.55 411.4 243.8 411.55 244.3 411.45 245.5 411.2 247.85 410.7 250.05 410.45 251.3 411.3 251.7 411.55 252.6 412.4 253.35 413.15 253.9 413.35 254.7 413.65 256.4 413.6 257.6 413.7 257.65 414.45 257.7 414.95 257.2 415.3 256.75 415.6 256.1 415.6 253.5 415.75 251.35 413.95 250.35 413.05 249.9 412.85 249.4 412.65 248.35 412.65 246.85 412.75 245.65 413.15 244.45 413.55 243.95 413.6 242.95 413.7 242.4 413.25 242.25 413.15 242.1 412.95 242.4 416.55 242.8 422.8 243.65 429.2 246.6 432.85 250.65 430.7 256.8 429.95 259.55 429.65 264.5 429.3 264.45 429.3 264.45 429.25 264.25 428.85 264.25 427.85 264.35 427.15 264.5 426.8 264.7 426.4 265.15 425.95 265.95 425.25 266.3 425.1
L 267.05 424.75
Q 267.2 424.6 267.4 424.15 267.55 423.7 267.7 423.55 268.05 423 268.6 423.1 269.2 423.1 269.4 423.7 269.5 424.15 269.15 424.8 268.65 425.95 268.05 426.4 268 426.45 267.05 426.95 266.45 427.3 266.25 427.7 266.1 428 266.1 428.75 266.05 429 266 429.2 266.75 429.15 267.6 429.1 271.5 428.75 280.5 427.2 288.8 425.8 293.45 425.5 295.35 425.4 301.6 425.35 304.45 425.3 306.7 425.2
L 306.5 424.45
Q 305.7 424.35 305.55 423.7 305.3 423.05 305.9 422.55 306.2 422.3 306.8 422.3 307.4 422.3 307.7 422.55 308 422.75 308.2 423.4
L 308.55 425.1
Q 309.15 425 309.7 424.95 313.9 424.5 321.35 422.65 329.35 420.65 332.95 420.15 334.4 419.95 336 419.85 335.65 419.6 335.25 419.25 334.1 418.15 333.5 417.6 332.5 416.65 331.6 416.2 329.7 415.65 328.75 415.3 327.45 414.9 327.6 414.1 327.8 413.5 328.35 413.4 328.7 413.3 329.4 413.4 333.4 414.2 336 417.4 336.6 418 336.75 418.05 337.15 418.2 337.95 418.25 338.3 418.45 338.35 418.9 338.4 419.35 338.2 419.7 340.75 419.55 343.6 419.55 347.2 419.55 354.3 419.95 356.1 406.7 355.05 393.3 354.95 390.8 354.05 389.65 353.2 388.5 351.05 388 351.2 388.2 351.25 388.55 351.25 389.2 350.7 389.5 350.45 389.7 349.3 389.8 347.75 390.4 346.95 390.45 346.65 390.45 346.3 390.4 346.1 390.5 345.75 390.65 345.2 390.85 343.55 391.2 342.2 391.55 341.45 391.9 341.2 392.05 339.8 392.9 338.6 393.7 336 395 334.15 395.9 333.5 396.45 332.2 397.9 331.55 398.6 330.2 399.95 329.05 400 328.75 399.45 328.8 398.9 328.85 397.9 330.05 397 330.9 396.35 331.55 396.05 332 395.85 332.95 395.5 333.8 395.1 335.25 393.9 335.9 393.4 338.65 391.85
L 341.55 390.1
Q 343.4 388.9 344.45 389.2 344.5 389.2 344.55 389.25 344.55 389.2 344.55 389.15 344.6 388.75 344.6 388.55
L 344.6 387.65
Q 344.65 387.5 344.75 387.4 337.85 387 330.6 387 330.7 387.25 330.75 387.6
M 297.1 407.95
Q 297.4 407.95 297.45 407.75 299.15 408 300.35 408.85 301.85 409.9 302.05 411.4 302.25 412.4 301.8 413.4 301.35 414.4 300.5 415.05 299.5 415.85 298.35 415.8 296.8 415.8 295.15 413.95 294.35 412.95 294.1 412.15 293.65 410.7 294.55 409.35 295.5 408.05 297.1 407.95
M 257.8 424.1
Q 257.55 424.45 257.2 424.55 256.85 424.65 255.75 424.55 250.8 423.8 247.7 425.35 246.95 425.7 246.7 426.3 246.6 426.65 246.45 427.45 246.15 427.9 245.5 427.9 244.85 427.9 244.6 427.5 244.45 427.25 244.55 426.45 244.9 425.25 245.05 425 245.55 424.3 246.45 423.8 249.95 421.75 256.45 422.5 257.85 422.6 258 423.45 258.05 423.75 257.8 424.1
M 281.35 422.1
Q 281.55 422.4 281.25 423.05 281 423.65 280.7 423.95 280.3 424.45 280.25 424.8 280.2 425.15 280.25 425.85 280.1 426.2 279.7 426.35 279.35 426.4 278.9 426.35 278.55 426.35 278.35 426.15 278.2 425.95 278.2 425.65 277.95 424.2 278.95 423.15
L 279.45 422.55
Q 279.85 421.8 280 421.75 280.5 421.65 280.5 421.55 281.2 421.75 281.35 422.1
M 353.05 402.55
Q 353.9 402.45 354.2 403.15 354.5 403.85 353.75 404.45 353.25 404.75 352.35 404.85 351.9 404.95 349.55 405.05 339.25 405.35 328.75 405.5 327.5 405.5 327.25 404.85 327.1 404.1 327.8 403.75 328.05 403.65 329.05 403.5
L 349.75 403
Q 351.4 402.9 351.7 402.8 352.85 402.55 353.05 402.55 Z"/>

<path fill="#FFFFFF" stroke="none" d="
M 331.1 397.55
L 331 397.45 330.05 398.4 330.25 398.35
Q 330.3 398.35 330.45 398.2
L 331.1 397.55 Z"/>
</g>

<g id="Boredom_Monkey_0_Layer0_0_FILL">
<path fill="#5B5B68" stroke="none" d="
M 470.45 502.45
Q 472 503.8 473.25 506.6 475.1 510.35 476.45 514.9 476.95 516.7 477.5 517.3 477.95 517.8 478.6 518 479.3 518.2 479.85 517.9 481.25 517.1 480.35 514.45 478.8 509.65 476.5 504.9 474.4 500.6 472.2 498.8 470.35 497.3 466 495.8 464.6 495.3 463.85 495.4 462.5 495.6 462.35 496.7 462.3 497.6 463.2 498.35 464.25 499.3 466.85 500.4 469.4 501.55 470.45 502.45
M 492.65 566.85
Q 491.65 562.45 489.35 557.3 487.9 554.1 484.6 547.95
L 469.7 520.05
Q 464.65 510.45 463 505.85 462.2 503.5 461.75 502.3 461 500.3 460.15 498.95 459.1 497.2 457.25 495.5 456.15 494.45 453.75 492.55 452.35 491.35 451.4 491.65 450.65 491.9 450.45 492.85 450.25 493.75 450.7 494.55 451.05 495.15 451.85 495.75 452.3 496.1 453.25 496.75 455.8 498.6 457.65 502.35 458.3 503.7 460.35 509.2 462.25 514.4 465.1 519.55 466.45 522 469.35 526.8 470.55 528.9 473.85 535.2
L 484.7 556.25
Q 487.05 560.85 487.75 563.1 488.1 564.35 488.7 566.9 488.4 567.65 488.55 569.05 489.35 575.9 489.95 579.1 490.65 582.75 492.3 590.05 493.5 596.45 492.95 601.05 492.7 602.8 492.7 603.25 492.65 604.5 492.95 605.4 493.3 606.5 494.35 607.1 495.4 607.7 496.35 607.2 497.5 606.6 497.5 604.9 497.45 604.05 496.95 601.8 496.6 600.25 496.6 597.85 496.65 595.15 496.6 593.8 496.45 590.65 494.55 582.95 493.05 576.85 493.1 573.05 494.5 573.15 495.5 572.35 496.7 571.5 496.7 570.2 496.7 569.55 496.3 569.05 495.85 568.5 495.25 568.45 495.05 568.45 494.25 568.55 493.65 568.65 493.35 568.45 493.25 568.4 493.2 568.35 493.1 567.8 492.9 567.35 492.8 567.1 492.65 566.85
M 492.75 488.85
Q 495.85 490 501.7 490.95 509 492.25 513.75 492.7 520.4 493.3 525.85 492.75 539.95 491.35 555.35 481.4 557.4 480 557.2 478.7 557.1 477.95 556.35 477.55 555.65 477.15 554.8 477.25 553.75 477.4 552.05 478.6 543.7 484.35 533.75 487 523.75 489.7 513.65 488.85 509.3 488.5 501.8 487 496.5 485.95 493.5 484.85 491.95 484.3 489.1 483.05 486.15 481.75 484.7 481.25 480.65 479.8 474.55 478.95 467.65 478.15 464.2 477.6 451.3 475.65 445.55 469.25 444.35 467.95 443.55 467.95 442.85 468 442.45 468.65 442 469.25 442.05 470 442.15 471.1 443.4 472.4 449.45 478.95 462.8 481.1 466.4 481.7 473.6 482.65 479.9 483.65 484.05 485.2 485.35 485.7 488.4 487.05 491.1 488.3 492.75 488.85
M 487.05 445.2
Q 487.45 444.55 487.3 443.95 486.9 442.6 484.25 442.5 474.2 442.3 469.8 442.75 467.2 443.05 465.85 443.2 463.55 443.45 461.9 443.4 460.4 443.35 458.2 443.1 454.85 442.65 454.5 442.6 451.65 442.3 445.9 442.3 436.55 442.2 430.45 441.85 422.05 441.3 415.15 440.05 412.2 439.5 410.45 438.85 407.95 437.9 406.4 436.4 403.8 433.85 403.7 430.2 403.75 428.5 403.6 427.7 403.2 426.1 402 425.9 400.7 425.75 400 427.05 399.5 427.9 399.6 429.45 399.7 433.1 401.65 436.35 403.6 439.6 406.75 441.45 410.05 443.4 416.25 444.35 422.85 445.4 431.35 445.95 435.9 446.25 446.55 446.65
L 455.7 447
Q 461.2 447.2 464 447.15 466.85 447.15 472.45 446.75 480.5 446.3 483.4 446.35 485.15 446.45 486.05 446.05 486.7 445.8 487.05 445.2
M 555 444.05
Q 554.1 444.05 553.35 444.6 552.2 445.4 551.55 447.5 551.05 448.85 550.15 451.65 549.3 454.05 548.15 455.5 546.75 457.25 543.95 458.6 540.65 460.05 539 460.8 537.15 461.65 532.5 464.45 528.45 466.9 525.9 467.85 521.45 469.55 515.5 469.55 511.65 469.6 504.85 468.75 494.65 467.5 488.7 466.55 479.85 465.1 472.8 463.15 469.3 462.15 463.5 460.25 456.6 457.95 454.25 457.2 445.4 454.5 428.6 450.8
L 405.3 445.65
Q 399.6 444.4 396.45 442.85 391.85 440.6 390.25 436.85 389.7 435.5 389.35 435 388.7 434.05 387.85 434.1 386.8 434.15 386.4 435.4 386.05 436.5 386.4 437.7 387.9 442.8 393.65 445.85 397.2 447.75 404.25 449.3
L 427.5 454.7
Q 443.35 458.3 452.05 460.8 455 461.65 464.3 464.45 471.9 466.75 476.55 467.95 485.5 470.15 500.35 472.4 507.25 473.4 511.2 473.6 517.25 473.9 522.05 472.9 525.85 472.1 530.25 470.2 533.05 469 538 466.4 542.05 464.35 544.15 463.05 547.5 461 549.65 458.7 551.5 456.8 553.25 453.95 554.35 452.2 556.15 448.7 557.65 446 556.55 444.7 555.95 444.05 555 444.05
M 546.15 429.6
Q 545.4 430.4 545.2 430.75 544.85 431.25 544.4 432.2 543.9 433.2 543.6 433.6 542.75 434.9 539.95 436.65 537.75 438 536.6 438.35 535.35 438.65 533.55 438.75 519.55 439.6 505.5 438.75 503.5 438.65 502.6 439.05 501.9 439.4 501.55 440.1 501.15 440.8 501.4 441.45 501.9 442.65 504.25 442.75
L 508.85 442.95
Q 518.75 443.4 522.35 443.35 526.1 443.3 533.6 442.9 536.5 442.7 537.55 442.35 539.1 441.95 541.55 440.35 545.6 438 546.95 435.8 547.5 434.95 548.45 433.15 548.75 432.75 549.4 432 550.05 431.25 550.3 430.8 551.4 428.95 550.55 427.5 550.1 426.75 549.2 426.6 548.25 426.4 547.65 427 547.45 427.25 547.25 427.65
L 546.95 428.4
Q 546.75 428.9 546.15 429.6
M 285.7 505.6
Q 285.05 505.3 284.3 505.65 283.6 506.05 283.3 506.75 282.95 507.75 283.25 509.7 280.4 510.5 276.1 514.1 272.75 516.95 271.1 519.2 268.7 522.35 268.4 525.5 268.3 526.45 268.4 529.25 268.5 531.6 268.1 532.9 267.65 534.25 267.65 534.3 267.5 535.1 267.7 535.7 268.1 536.75 269.5 536.7 270.85 536.65 271.5 535.65 272.1 534.8 272.2 533.45 272.25 532.75 272.15 531.05 271.65 526.05 272.65 523.55 273.3 521.95 274.85 520.25 275.75 519.3 277.8 517.5 280.7 515.1 282.35 514.25 283.1 513.9 284.65 513.25 285.9 512.6 286.45 511.7 287.2 510.4 286.8 507.8 286.5 506 285.7 505.6
M 307.8 501.85
Q 307.4 500.8 306.25 500.35 305.1 499.9 304.25 500.55 303.6 501.05 303.6 501.95 303.55 502.85 304.1 503.4 300.1 505.7 296.6 510.4 294.4 513.3 291.1 519.3 286.9 526.9 285 530.8 281.8 537.25 280.05 542.75 278.05 549 276.1 561.2 273.9 574.25 273.3 581.25 272.4 592.4 273.85 601.25 274.05 602.8 274.85 603.25 275.55 603.65 276.4 603.15 277.15 602.8 277.7 602 278.85 600.45 278.6 599.3 278.5 598.85 278.05 598.2 277.4 597.3 277.35 597.2 276.6 595.95 276.6 593.3 276.55 584.55 277.8 574.2 278.75 566.45 280.85 555.3 282.05 548.9 283.2 544.95 284.75 539.7 287.7 533.45 289.45 529.7 293.35 522.45 296 517.5 297.7 515 300.4 511.05 303.4 508.7 304.6 507.85 305.15 507.4 306.15 506.6 306.75 505.9 308.55 503.85 307.8 501.85
M 299.95 487.25
Q 290.75 492.65 283.75 494.3 279.05 495.35 270.25 495.65
L 255.75 496.2
Q 249.75 496.4 246.8 495.85 243.7 495.25 239.2 493.1 232.8 490 231.75 489.6 230.85 489.25 230.1 489.3 229.15 489.3 228.85 490 228.35 491.1 229.95 492.4 237.05 498.2 248.45 499.75 252.9 500.3 258.5 500.3 261.85 500.25 268.55 499.9 277.7 499.4 282.7 498.4 296.45 495.6 312.2 483.55 319.55 477.65 323.2 474.75 329.75 469.55 334.8 466.75 342.95 462.1 352.35 460.2 355.05 459.65 355.95 458.8 356.7 458.1 356.75 457.05 356.8 455.9 356 455.4 355.1 454.85 353.3 455.45 346.75 457.4 342.7 458.95 330.1 463.75 319.75 472.35 318.35 473.5 315.3 476.15 312.45 478.65 310.85 479.95 306.65 483.3 299.95 487.25
M 243.25 476.2
Q 254.55 476.2 260.2 475.7 262.45 475.5 268.9 474.7 274.3 474 277.55 473.85 279.9 473.75 284.55 473.6 288.65 473.35 291.45 472.65 293.85 472.05 296.85 470.7 298.1 470.15 302.05 468.2 311.5 463.6 324.1 459.45 331.4 457.05 346.85 452.6 352.3 451.05 355.15 450.45 359.8 449.45 363.55 449.3 366.15 449.2 367.25 448.55 368.05 448 368.3 447 368.55 445.95 367.9 445.3 367.25 444.7 365.55 444.8 360.75 445.2 355 446.5 351.25 447.4 344.65 449.25 330.9 453.1 324.15 455.3 312.85 458.95 304.25 462.95 298.2 465.8 298 465.9 294.4 467.45 291.55 468.2 288.8 468.95 285 469.3 284.75 469.3 278.3 469.75 263.8 471 256.55 471.55 243.65 472.55 234.8 471.7 229.5 471.25 226.65 469.6 225.5 468.85 224.95 468.5 223.9 467.9 223.05 467.8 222.05 467.65 221.15 468.35 220.2 469.05 220.45 470 220.55 470.7 221.6 471.45 225.65 474.5 231.9 475.55 235.9 476.2 243.25 476.2
M 278.85 446.1
Q 278 445.8 276.25 447 273.35 448.95 269.8 449.55 267.9 449.85 264.95 449.85 251.1 450 238.5 449.15 236.4 449.05 235.35 448.35 234.75 447.9 234.2 447 233.65 445.95 233.35 445.45 232.15 443.45 230.55 443.7 229.6 443.85 229.15 444.85 228.65 445.8 228.9 446.8 229.25 448.1 231.2 449.95 232.9 451.65 233.95 452.2 235.4 452.9 237.1 453.15 239.25 453.55 244.7 453.75
L 259.2 454.1
Q 266 454.2 268.8 453.85 274.2 453.2 277.85 450.8 279.5 449.75 279.85 448.6 280.1 447.85 279.85 447.1 279.55 446.3 278.85 446.1
M 323.7 441.55
Q 320.9 442.2 318.9 442.45 315.1 442.9 307.4 442.4
L 297.4 441.8
Q 294.4 441.6 293.75 443.05 293.4 443.9 293.95 444.8 294.45 445.65 295.35 446 296.15 446.3 297.2 446.3 297.5 446.3 299.1 446.15 302.2 445.9 308.5 446.5 314.75 447.15 317.95 446.85 320.05 446.65 322.95 446 324.6 445.6 327.9 444.8 334.8 443.25 349.05 441.35 361.55 439.25 368.95 434.9 373.75 432.05 374.95 428.7 375.2 428.05 375.55 426.55 375.9 425.1 376.2 424.35
L 376.9 422.95
Q 377.3 422.1 377.4 421.5 377.55 420.7 377.25 419.95 376.95 419.15 376.25 418.9 374.8 418.4 373.55 420.3 372.75 421.5 372.05 424.4 371.3 427.25 370.45 428.5 369.45 429.95 366.95 431.45 360.05 435.5 348.3 437.4 335 439.05 328.5 440.45 325.3 441.2 323.7 441.55
M 443.25 360.15
Q 440.65 360.9 435.45 363.8 426.15 368.6 421.55 371.1 413.4 375.45 408.35 379.45 401.75 384.7 398 391.25 393.8 398.6 394.1 406.05 394.2 407.3 394.7 407.8 395.25 408.35 396.15 408.1 396.95 407.85 397.4 407.15 397.95 406.35 398.05 404.05 398.45 397.3 402.8 390.9 406.65 385.25 412.95 380.7 417.5 377.4 425.25 373.45 436.5 367.7 438 366.85 440.55 365.4 441.5 364.95 443.5 363.95 445.2 363.6 446.85 363.3 450.9 363.4 455.05 363.45 463.05 362.75 471.2 362.05 475.2 362.05 480.5 362.05 487.1 363 490.8 363.55 498.9 365.1 508.15 366.95 512.1 367.9 519.45 369.65 525 371.8 539.3 377.3 546.95 386.85 548.75 388.95 549.95 388.4 550.9 387.95 550.75 386.65 550.6 385.5 549.8 384.4 543.6 375.95 532.05 370.5 523.5 366.4 509.9 363.25 490.65 358.75 476.75 358.25 470.8 358 463.3 358.35 458.8 358.55 449.85 359.2 445.15 359.6 443.25 360.15
M 380.45 389.2
Q 379.95 388.55 379.7 388.25 379.25 387.7 378.85 387.5 377.75 386.9 376.8 387.65 375.8 388.45 376.15 389.6 376.3 390.15 376.95 390.95 377.65 391.85 377.85 392.3 378.1 393 377.95 393.95 377.9 394.2 377.5 395.55 376.8 397.8 376.2 401.8 375.9 403.5 376.25 404.5 376.5 405.15 377.05 405.6 377.65 406 378.3 405.9 379.15 405.75 379.65 404.7 379.9 404.1 380 402.8 380.45 398.85 381.65 395.2 382.15 393.55 382.2 392.85 382.35 391.5 381.8 390.6 381.6 390.3 381.15 389.9 380.6 389.35 380.45 389.2
M 404.6 359.65
Q 402.25 361.4 401.1 362.8 399.5 364.85 399.75 366.9 399.85 367.8 400.55 368.45 401.25 369.15 402.05 368.9 402.7 368.7 403.1 367.85 403.5 366.8 403.7 366.3 404.3 365 406 363.9 407 363.25 409.1 362.15 410.15 361.5 412.65 359.45 414.8 357.6 416.3 356.9 418.5 355.8 422 355.55 423.95 355.4 427.95 355.25 430.8 355.05 435.4 354.1 441.1 352.85 442.8 352.6 446.6 351.95 454.3 351.65 480.3 350.6 493.3 351 514.95 351.65 531.7 355.9 535.95 357 538.5 358.05 542.15 359.55 544.55 361.7 545.95 362.95 548.15 365.65 550.5 368.5 551.75 369.65 552.7 370.55 553.9 370.75 555.25 371 555.7 370.05 556.25 368.95 554.85 367.35 551.85 363.65 550.1 361.75 547.3 358.85 544.6 357.05 540.25 354.1 531.95 352.05 510.85 346.7 481.65 346.8 475.5 346.85 456.95 347.4 448.9 347.7 444.85 348.2 442.25 348.5 437.65 349.3 432.5 350.15 430.4 350.45 425.6 351 423.2 351.35 419 351.9 416.15 352.95 413.35 353.95 410.15 355.9 408.2 357.1 404.6 359.65
M 363.2 362.9
Q 351.55 357.55 335.15 356 327 355.2 305.75 355.05 293.2 354.95 287.6 355.55 282.35 356.15 271.8 358.55 256.15 362.2 248.7 364.7 241.65 367.05 236.95 369.9 230.95 373.55 227.7 378.45 226.4 380.6 226.55 381.9 226.65 382.85 227.45 383.55 228.3 384.2 229.15 383.95 229.9 383.75 230.4 382.75 230.4 382.7 231.1 380.95 232.3 377.9 236.85 374.8 245.8 368.75 254.65 366.65 256.55 366.2 260.6 365.55 264.5 364.95 266.55 364.45 268.55 364 272.45 362.7 276.35 361.45 278.35 360.95 283.8 359.6 294.35 359.3 308.4 358.95 323.3 359.4 335.15 359.8 342.8 361 353.35 362.65 361.35 366.4 364.65 367.95 365.5 366.15 365.95 365.25 365.1 364.25 364.4 363.45 363.2 362.9
M 348.75 341.75
Q 341.9 340.55 333.25 340.85 328 341.05 317.65 342.15
L 283.45 345.8
Q 269.15 347.3 262.1 348.75 245.6 352.25 231.15 360.35 227.25 362.55 224.8 364.5 221.55 367.1 219.7 369.95 218.8 371.4 218.85 373.05 218.95 374.9 220.4 375.1 221.4 375.25 222.35 374.2 222.8 373.6 223.65 372.05 225.85 367.95 232.7 364.1 247.45 355.8 263.9 352.5 270.35 351.2 283.25 349.8
L 318.2 346.1
Q 329.55 344.9 335.35 344.8 344.9 344.65 352.25 346.6 361.6 349.15 367.25 354.7 373 360.35 376.2 370.85 376.7 372.6 377.55 373.65 378.65 374.95 379.95 374.6 380.75 374.35 381.2 373.45 381.55 372.65 381.45 371.7 381.3 370.75 380.05 368.5 379.1 366.85 377.3 363 375.65 359.4 374.55 357.6 370.65 351.25 363.45 347 356.9 343.2 348.75 341.75
M 326 303.2
Q 325.6 304.75 328.35 305.65 330.35 306.3 331.55 306.15 332.3 306.05 334.5 305 336.9 303.95 341.65 303.45 384.95 298.9 427.55 307.85 429.2 308.25 430.15 307.95 430.8 307.75 431.25 307.2 431.7 306.6 431.55 306 431.25 304.95 429.25 304.5 383.4 294.3 336.75 300.05 331 300.75 327.95 301.7 326.25 302.2 326 303.2
M 390.6 325.1
Q 390.25 324.35 388.8 323.95 378.4 320.8 367.1 319.65 363.7 319.35 353.35 318.9 350.75 318.9 350.2 320.05 349.85 320.75 350.25 321.6 350.65 322.35 351.4 322.75 352.4 323.2 354.65 323.1 370.75 322.35 386.1 327.1 388.2 327.75 389.2 327.45 390 327.25 390.45 326.55 390.95 325.8 390.6 325.1
M 434.55 272.35
Q 421.1 271.65 411.2 272.55 407.85 272.85 399.9 273.9 392.65 274.85 388.6 275.1 380.4 275.65 365.5 274.75 349.45 273.75 342.4 274 331.35 274.35 310.7 277.9
L 293.25 280.85
Q 291.5 281.2 290.4 281.9 288.95 282.85 289.15 284.15 289.35 285.6 291.15 285.95 292.65 286.25 294.5 285.75 332.6 276.15 363.25 278.35 366.5 278.6 373.05 279.15 378.85 279.6 382.85 279.55 387 279.45 392.7 278.75 395.95 278.4 402.5 277.5 431.6 274 460.35 278.6 462.65 278.9 463.6 278.45 464.4 278.05 464.7 277.15 465 276.25 464.4 275.7 464 275.25 462.85 275.05 448.75 273 434.55 272.35 Z"/>
</g>
</defs>

<g transform="matrix( 1.1118011474609375, 0, 0, 1.1118011474609375, 98.3,35.8) ">
<g transform="matrix( 1, 0, 0, 1, 0,0) ">
<use xlink:href="#Boredom_Monkey_0_Layer3_0_FILL"/>
</g>

<g transform="matrix( 1, 0, 0, 1, 0,0) ">
<use xlink:href="#Boredom_Monkey_0_Layer2_0_FILL"/>
</g>

<g transform="matrix( 1, 0, 0, 1, 0,0) ">
<use xlink:href="#Boredom_Monkey_0_Layer1_0_FILL"/>
</g>

<g transform="matrix( 1, 0, 0, 1, 0,0) ">
<use xlink:href="#Boredom_Monkey_0_Layer0_0_FILL"/>
</g>
</g>
</svg>
