
<svg xmlns="http://www.w3.org/2000/svg" version="1.1" xmlns:xlink="http://www.w3.org/1999/xlink" preserveAspectRatio="none" x="0px" y="0px" width="1080px" height="1080px" viewBox="0 0 1080 1080">
<defs>
<g id="Alone_0_Layer2_0_FILL">
<path fill="#727282" stroke="none" d="
M 115 235.1
Q 115.25 233.8 115.5 232.45 65.6 256.55 38.95 290.5 32.05 299.15 28.8 306.55 25.8 313.35 23.7 324.85 15.55 369.2 27.9 402.65 35 421.8 48.75 436.05 63.25 451.1 81.55 456.7 83.4 457.3 87.15 458.4 88.45 458.85 89.6 459.3 99.75 423.75 102.95 370 104.55 336.95 105.4 320.4 106.9 290.95 109.35 271 111.3 254.95 115 235.1
M 678.8 633.3
Q 664.3 608.1 663.5 606.65 633.9 552.8 621.2 491.75 608.5 430.7 614.2 369.55 616.5 344.35 616.35 336.2 615.9 317.45 608.85 304.95 602.45 293.7 589.2 284.6 580.2 278.5 563.5 270.8 550.7 264.9 543 262.05 531.45 257.8 521.55 256.2 504.75 253.45 484.15 256.9 470.85 259.15 446.95 266.15 420.95 273.7 409.65 276 388.75 280.25 372 278.7 355.25 277.15 333.25 268.55 308.35 257.9 295.8 253 247.45 234.25 217.55 249.75 207.75 254.85 199.5 263.95 192.05 272.15 186.3 283.05 180.15 294.75 177.25 306.95 174.2 319.85 175.1 332.25 175.7 340.1 178.15 349.85 179.35 354.5 183.15 367.05 197.2 413.45 207.15 460.95 211 479.35 211.7 490.7 212.65 507.25 208.35 519.95 204.95 530.05 196.75 541.55 196 542.6 181.4 561.2 172.45 572.7 162.4 587.95 156.55 596.9 144.85 615.7 133.75 633.6 128.8 643.2 120.65 658.9 117.1 672.6 110.9 697 115.85 726.7 119.8 749.9 131.4 779.75 136 791.6 140.05 800 145.2 810.75 150.9 819.1 161.95 835.3 180.95 850.9 192.55 860.4 216.85 876.8 230.5 886 238 890.05 250.2 896.65 261 898.9 268.1 900.4 277.5 900.55 281.7 900.65 294.15 900.3 320.25 899.7 354.6 901.4 361.25 901.75 415.05 905.15 440.05 906.75 455.4 907 477.6 907.35 495.7 905.5 528.4 902.25 567.65 889.75 584.2 884.5 595.9 879.4 610.8 872.85 622.05 864.8 636.7 854.35 650.6 837.4 660.45 825.35 673.75 804.85 689.65 780.35 697.15 763.25 707.65 739.25 708 717.9 708.35 691.95 693.3 660.4 688.05 649.45 678.8 633.3
M 440.85 385.95
Q 448 372.5 461.7 364.25 475.35 355.95 490.6 355.85 505.85 355.7 519.65 363.75 533.4 371.75 540.85 385.1 548.3 398.4 547.85 414.35 547.7 419.55 546.75 424.5 547.5 424.5 548.5 425 548.9 425.2 551.45 426.8 552.85 427.65 553.25 428.2 554 429.25 553.9 431.3 553.7 434.1 552.5 436.5 551.85 437.75 551.05 438.7 552.3 439.1 553.2 440.05 554.25 441.3 554.25 443.05 554.25 444.8 553.15 446 551.7 447.6 547.75 447.9 546.7 448 546.3 448.3 545.95 448.5 545.4 449.65 546.05 450.9 546.85 452.5 549.05 456.8 550.6 459.05 551.15 459.8 552.2 461.2 553.15 462.45 553.7 463.35 554.7 464.95 555.3 466.7 556.9 471.1 556.5 478.6 556.35 481.55 555.05 492.45 554.75 495.15 554.55 497.5 554.7 497.9 554.75 498.35 554.95 499.95 554.6 501.95 554.5 502.5 554.2 503.75 554.2 505.1 554.2 506.35 554.25 508.2 554.45 511.85 554.55 515.1 554.35 517.4 554.2 519.1 553.75 522.05
L 555.85 531.9
Q 556.7 535.6 556.7 537.85 556.65 539.55 556 542.8 556.05 542.95 556.05 543 556.6 545 556.45 546.5 556.25 548.4 554.9 549.75 553.95 550.7 552.9 550.9 551.45 552.3 549.15 552.05 546.85 551.85 545.4 550.25 544 548.75 543.6 546.55 543.25 544.45 543.85 542.3
L 544.75 539.7
Q 545.45 537.8 546 534.55 546.65 531 546.8 530.45 547.4 528.45 547.6 527.4 547.85 525.85 547.75 523.1 547.6 520.05 547.75 518.75 548.25 516 548.45 514.6
L 548.65 510.9
Q 548.85 508.75 549.55 505.7
L 551.2 498.45
Q 551.3 497.8 551.3 497.5 551.75 492.3 551.4 485.5 551.35 483.9 550.55 473.45 550.35 471.05 549.8 470 549.2 468.95 547.15 467.5
L 538.45 461.4
Q 538.35 462.35 537.75 463.25 536.85 464.35 536.45 464.9
L 535.5 466.45
Q 534.85 467.3 533.2 468.15 530.55 469.8 528.9 469.1 528.05 468.8 527.55 467.9 527.05 467.05 526.95 466.05 526.7 466.15 526.4 466.3 520.9 468.7 517.95 469.2 516.7 469.4 515.75 469.15 514.6 468.8 514.45 467.85 514.3 467 515.45 465.6 516.85 464.05 518.25 462.65 517.6 463 516.9 463.35 508 467.9 498.75 469.25 499 469.65 499.05 470.2 499.15 471.25 498.15 471.95 497.5 472.5 496.25 472.75 492.05 473.9 488.3 473.25 486.8 472.95 486.15 472.4 485.8 472.1 485.6 471.8 483.45 472.35 482.3 472.45 480.55 472.6 477.35 471.7
L 472.7 470.45
Q 470.6 469.85 469.5 469.8 467.2 469.8 466.1 469.8 464.1 469.75 463 468.95 462.55 468.6 462.35 468.45 461.95 468.2 461.65 468.15 461.3 468.1 460.85 468.25 460.35 468.5 460.05 468.55 458.95 468.85 456.8 468.25 454.9 467.7 453.95 467.2 452.45 466.4 451.95 465.15 451.15 463.3 452.7 459.85 453.65 457.8 454.2 457.15 454.45 456.85 454.7 456.65 450.15 452.85 446.4 448.15 439.35 439.2 436.25 427.95 434.75 426.25 433.8 424.2 431.15 418.65 432.7 412.6 433.2 410.6 434.25 408.7 434.45 406 434.9 403.25 436.5 394 440.85 385.95
M 254.6 371.1
Q 265.75 362.05 279.35 359.7 294.7 357.1 309.75 363.55 324.75 370.05 333.35 383 341 394.5 342.05 408.85 343.1 423.2 337.2 435.75 331.35 448.25 319.6 456.6 307.9 464.95 294.15 466.4 289.35 466.9 284.6 466.55 284.6 467.2 284.25 467.9 283.8 468.85 282.45 470.1 280.2 472.45 278.5 473.4 275.8 474.85 273.55 474.05 271.95 473.5 270.1 471.25 269 469.9 268.55 469.55 267 468.6 266.3 468 264.95 466.85 265.2 465.65 262.5 465.35 261.8 463.95 261.4 463.15 261.7 462.3 261.15 462.25 260.25 462.1 259 461.9 258.3 462 258.15 462.6 257.55 462.9 256.95 463.25 256.3 463.2 255.35 463.15 253.95 462.3 251.45 460.85 250.1 459.65 249.9 459.85 249.7 460.1 248.65 461.15 246.75 461.75
L 248.8 465.05
Q 250.05 467.1 250.3 468.1 250.55 469 250.8 470.85 250.95 471.8 251.45 473.55 251.7 474.75 251.7 477.95 251.7 480.4 251.3 481.55 251.25 481.7 250 484.2
L 249.05 486.45
Q 248.45 487.75 247.9 488.55 246.95 489.9 246.85 490.25 246.8 490.75 247.1 491.75 248.3 496 247.9 498.2 247.6 499.9 246.4 501.1 245.15 502.4 243.6 502.4 241.95 502.45 240.65 501.05 239.4 499.7 239.3 497.9 239.25 497.2 239.4 496.1 239.65 494.55 239.65 494.3 239.65 491.35 239.95 489.95 240.25 488.55 241.35 486.4
L 244.95 479.35
Q 246.5 476.25 246.65 474.65 246.75 473.5 246.45 472.6 246.25 471.7 245.5 470.35 243.4 466.25 242.7 464.05 242.3 462.7 242.05 462.05 241.65 460.9 241.15 460.15 240.8 459.7 240.1 459.05 239.2 458.15 239 457.95 238.45 457.35 238.1 456.75 237.25 456.75 236.35 456.45 234.15 455.7 233.15 453.8 232.5 452.35 232.4 450.35 232.05 445.9 233.9 443.1 235 441.5 236.85 440.85 236.9 440.8 237 440.8 237.35 440.45 237.75 440.2 239.15 439.25 240.6 439.4 241.2 439.45 241.8 439.7 237.8 432.7 236.05 424.6 233.3 421.95 231.9 418.45 230.2 414.15 230.9 409.4 231.55 404.65 234.35 401 235.3 399.7 236.5 398.7 237.25 395.8 238.35 393.05 243.4 380.2 254.6 371.1
M 238.5 517.8
Q 240.3 515.7 241.65 516.35 242.85 516.95 242.65 519.3 242.45 522.85 241.9 524.95 241.45 526.5 240.35 529.5 239.55 532.2 239.55 535.75 239.55 537.9 239.95 542.1
L 240.45 547.15
Q 240.75 550.05 240.7 551.55 240.6 553.6 239.8 557.65
L 239.35 561.4
Q 238.5 565.45 235.35 567.15 233.7 568 231.85 567.8 229.9 567.65 228.7 566.35 227.6 565.25 227 563.15 226.25 560.7 226.1 558.05 225.95 553.5 228.15 546.6 231.1 537.4 231.5 535.25 232 531.8 232.25 530.1 232.7 527.05 233.5 525.1 234.6 522.55 238.5 517.8
M 315.95 536.15
Q 315.75 522.35 320.95 514.95 322.95 512.2 326.45 509.25 330.65 506 332.7 504.35 338.35 499.7 341.2 497.35 346.25 493.25 350.1 491.05 354.5 488.6 360.35 486.7 364.45 485.35 371.2 483.8 383.95 480.8 391.8 480.35 404.1 479.65 421.25 483.75 438.55 487.85 451 494.2 466.2 501.95 475.1 513.45 480.2 520.05 482.4 527.25 484.85 535.25 483.05 542.4 480.2 553.6 467.55 562.15 463.5 564.9 460.25 565.35 458.15 565.6 456.25 564.8 454.25 563.95 453.25 562.25 451.9 559.8 453.2 556.75 454.4 553.95 457 552.05 458.05 551.25 462.05 548.9 465.25 547.05 466.8 545.4 469.45 542.55 470.15 538.35 470.8 534.4 469.55 530.4 467.6 523.95 460.7 517.25 453.05 509.75 443.1 504.8 433.2 499.9 418.25 496.65 402.1 493.05 390.75 493.8 383.45 494.3 372.8 496.9 362.65 499.45 357.2 502.5 354.2 504.2 350.15 507.45 347.9 509.2 343.4 512.8 341.25 514.4 336.9 517.65 333.3 520.55 331.55 523.5 328.55 528.6 328.9 536.95 329.2 542.8 331.05 546.2 333.3 550.15 338.15 552.35 342.3 554.25 347.65 554.6 349.05 554.7 351.85 554.8 354.25 555 355.95 555.55 358.05 556.25 359.45 557.8 361.05 559.45 361.15 561.4 361.2 563.3 360 564.95 358.85 566.55 357 567.4 354.35 568.65 349.4 568.45 339.5 568 331.6 564.15 322.65 559.8 318.9 552.1 316.05 546.15 315.95 536.15
M 365.3 539.7
Q 368.25 537.8 373 539.5 375.95 540.6 377.7 542.35 378.85 543.5 380.45 546.3
L 383.05 550.8
Q 384.6 553.5 384.75 554.95 384.95 556.7 384.05 558.4 383.1 560 381.5 560.85 379.9 561.65 378.05 561.55 376.2 561.45 374.65 560.5 372.8 559.35 370.7 556.4 368.15 552.7 367.2 551.75 365 550 364.15 548.95 362.45 546.9 362.75 544.05 363.1 541.1 365.3 539.7
M 418.6 539.4
Q 419.95 537.4 422.3 536.45 424.65 535.45 426.95 536.1 429.25 536.75 430.7 538.9 432.15 541.1 431.65 543.4 431.45 544.45 430.65 546 429.7 547.85 429.45 548.55 429 549.85 428.5 552.6 427.95 554.3 426.65 555.6 425.3 556.9 423.6 557.4 421.85 557.95 420.05 557.45 418.2 556.95 417 555.6 415.15 553.45 415.3 549.85 415.4 547.75 416.7 543.85 417.7 540.75 418.6 539.4
M 736.5 459.25
Q 737.05 460.25 737.65 461.3 738.95 459.35 740.45 457.35
L 740.4 457.35
Q 738.6 458.9 736.5 459.25
M 757.55 253.4
Q 747.1 243.75 733.4 235.35 721.75 228.15 706.6 221.25 688.4 212.95 673.9 209.6 664.55 207.4 655.95 207.05 657.8 208.6 659.05 210.9 660.15 213 660.9 215.9 661.35 217.55 662 221.15 665.95 241.3 678.85 275.65 693.05 313.45 697.15 329.85 698.65 336.1 699.45 338.5 701.05 343.2 703.4 346.35 704.65 348.05 707.65 351 710.65 354 711.9 355.65 714.9 359.75 716.75 367.2 719.75 379.3 719.85 379.6 720.6 381.8 723.6 388.4 726.05 393.8 726.85 397.3 727.15 398.45 727.8 402.3 728.35 405.4 728.95 407.2 729.7 409.4 731.35 412.2 732.3 413.8 734.25 416.9 741.3 428.5 743.7 442.15 744.85 448.9 743.45 452.85 743.25 453.4 743.05 453.9 744.25 452.3 745.55 450.7 746.55 449.45 761.05 432.55 770.4 421.7 775.5 413.95 782.5 403.4 785.6 393.15 787.25 387.8 788.2 381.15 788.9 376.35 789.5 368.9 790.8 352.7 791 336.5 791.15 327 790.7 320.3 790.15 311.45 788.55 304.2 785.35 289.95 776.95 276.55 769.1 264.05 757.55 253.4 Z"/>

<path fill="#080E34" stroke="none" d="
M 769.55 536.9
Q 764.05 528.75 752.85 514.45 740.9 499.2 735.95 492.1 722 472.3 708.9 444.95 701.05 428.55 687.1 394.95
L 634 266.8
Q 626.4 248.45 622.55 238.7 616.45 223.1 612.15 210.25 605.05 187.15 601.35 175.65 594.8 155.35 588.2 142 577.7 120.75 559.05 98.95 547.15 85.05 535.5 75.15 521.95 63.6 507.85 56.6 495.1 50.25 475.7 45.1 453.4 39.7 442.35 36.7 416.9 29.1 404.15 25.6 381.7 19.45 365.25 18.75 346.8 17.95 326.3 22.9 308.85 27.15 288.95 35.8 239.45 57.45 197.55 94.4 184.85 105.65 176.1 115.65 165.45 127.9 158.95 140.25 153.2 151.2 148.75 166 146.05 175 141.9 192.9 137.05 213.8 134.85 224.3 131.15 241.75 129.05 255.9 125.7 278.4 123.9 310.15 122.9 328.3 121.3 364.7 119.55 396.55 116.45 418.75 112.35 447.75 104.65 471.4 99.8 486.2 91.15 505.75 86.2 517 75.85 539.3 50.5 595.7 33.2 654.05 21.4 693.85 18.7 722.75 15.15 760.95 25.6 790.95 33.2 812.85 50.6 836.15 61.35 850.55 84.65 875.9 104.75 897.8 115.8 908.45 133.85 925.75 150.55 936.75 160.35 943.25 173.35 949.95 181.6 954.2 197.15 961.45 222.05 973.25 250.4 985.15 274.25 995.1 293.55 998.45 297.15 999.05 300.6 999.45 301.6 999.4 302.75 999.3 329.05 997.25 349.3 995.55 369.55 993.8 401.9 989.1 427.4 985.4 457.3 979.55 480.3 975.05 512.3 967.95 544.4 960.85 564.6 955.65 593.1 948.3 616.15 940.45 642.55 931.45 662.65 921.25 686.65 909.1 704.55 893.95 722.15 879.1 738.4 857.45 751.25 840.35 765.7 815.5 773.75 801.65 779 791.1 785.7 777.6 789.9 765.55 795.15 750.65 798.55 732.3 801.2 718.05 803.35 698.15 804.9 683.75 805.5 673.1 806.3 659.55 805.85 647.95 804.75 618.4 795.4 589.95 786.1 561.5 769.55 536.9
M 692.8 620.85
Q 702.7 637.95 707.85 648.3 724.05 680.45 726 706.6 728.35 738.4 712.35 775.15 697.25 809.8 666.45 847.15 657.85 857.55 650.95 864.6 642.1 873.65 633.4 879.95 622.95 887.5 609.15 893.8 598.4 898.75 582.95 904 542.45 917.8 509.5 921.95 491.95 924.15 469.85 924.5 456.55 924.7 430.05 924.15
L 314.9 921.75
Q 297.6 921.4 288.65 920.8 274.05 919.75 262.65 917.3 230.4 910.35 195.1 885.9 167.8 867.1 149.3 845.65 127.35 820.15 113.75 786.4 101.1 754.9 96.8 719.05 95.25 705.65 95.3 695.2 95.4 682.4 97.9 671.65 100.5 660.7 106.5 648 110.3 640 118.45 625.6 132.75 600.45 141.25 586.75 154.4 565.6 166.75 549.7 180.5 532 183.75 526.9 192.3 513.35 193.55 501.2 194.55 491.85 191.4 478.8 187.25 464.05 185.55 456.6 184.05 449.85 182.1 435.3 180.25 421.25 178.5 414 176.45 405.45 171.3 391.7 165.15 375.2 163.45 369.55 156.35 346.4 157.25 323.15 158.15 298.6 167.95 278 178.2 256.35 197.3 241.8 217 226.75 239.9 224.3 256.6 222.5 276.3 227.55 289.5 230.9 311.75 239.85 337.65 250.3 347.25 253.4 367.4 259.85 383.8 260.2 397.45 260.5 413.95 256.7 424.15 254.35 443.55 248.2 463.55 241.8 473.15 239.5 489.7 235.55 503.3 235.55 520.9 235.6 541.2 242.15 555.9 246.9 577.2 257.05 592.2 264.2 600.65 269.75 612.95 277.8 620.05 287.35 632.45 304.05 633.8 331.45 634.3 341.6 633.4 355.85 632.9 364.05 631.6 380.2 627.8 435.35 639.5 490.1 651.25 544.85 677.4 593.6 681.2 600.65 692.8 620.85 Z"/>

<path fill="#00CCFF" stroke="none" d="
M 529.85 420.85
Q 529.35 420.8 528.9 420.8 528.6 419.8 528.05 418.85 526.65 416.45 524.3 415.3 521.95 414.15 519.25 414.45 516.5 414.75 514.5 416.45 512.5 418.15 511.75 420.8 511 423.45 511.75 425.95 512.55 428.45 514.65 430.2 515.75 431.1 517 431.6 516.5 432.85 516.4 434.25 516.25 436.4 517.2 438.45 518.1 440.45 519.85 441.8 521.6 443.2 523.7 443.55 525.85 443.95 527.95 443.3 530.1 442.65 531.6 441.15 532.45 440.35 533.05 439.35 535 437.75 536.25 435.05 538.2 431 537.2 427.35 536.55 424.85 534.45 423.05 532.4 421.25 529.85 420.85 Z"/>

<path fill="#3D3D47" stroke="none" d="
M 655.6 206.75
Q 653.3 205 650.7 204.85 649.05 204.75 646.35 205.5 643.2 206.35 642 206.45 641 206.55 635.9 205.95 632.15 205.5 630.05 206.6 626.85 208.25 626.3 212.75 625.9 216.2 627 220.9 633.15 246.5 643.6 270.2 645.05 273.4 645.95 274.95 647.4 277.5 649.15 279.05 649.95 279.8 651.65 280.95 653.35 282.15 654.1 282.8 655.8 284.4 657.3 286.95 658.15 288.35 659.7 291.7 666.75 307.15 669.85 314.8 675.15 327.75 678.2 338.5 680.05 345.05 680.45 346.15 681.85 350.4 683.75 353.3 685 355.2 689.4 360.15 693.15 364.3 694.5 367.3 695.45 369.45 696.15 373 697.15 377.95 697.4 378.85 698.6 383.4 701.95 389.5 703.85 392.9 707.7 399.7 711.55 407.4 716.45 425.85 721.05 443.3 725.8 451.7 730.15 459.3 735.5 459.3 736 459.3 736.5 459.25 738.6 458.9 740.4 457.35
L 740.45 457.35
Q 742.1 455.9 743.05 453.9 743.25 453.4 743.45 452.85 744.85 448.9 743.7 442.15 741.3 428.5 734.25 416.9 732.3 413.8 731.35 412.2 729.7 409.4 728.95 407.2 728.35 405.4 727.8 402.3 727.15 398.45 726.85 397.3 726.05 393.8 723.6 388.4 720.6 381.8 719.85 379.6 719.75 379.3 716.75 367.2 714.9 359.75 711.9 355.65 710.65 354 707.65 351 704.65 348.05 703.4 346.35 701.05 343.2 699.45 338.5 698.65 336.1 697.15 329.85 693.05 313.45 678.85 275.65 665.95 241.3 662 221.15 661.35 217.55 660.9 215.9 660.15 213 659.05 210.9 657.8 208.6 655.95 207.05 655.8 206.9 655.6 206.75 Z"/>
</g>

<g id="Alone_0_Layer1_0_FILL">
<path fill="#B6B6CF" stroke="none" d="
M 274.4 245.45
Q 259.15 240.75 243.3 240.15 235.9 239.9 230.45 240.8 223.55 241.95 218.55 245.05 213.1 248.45 207.6 256.05 196.7 262.45 191.65 263.15 186.6 263.85 183.55 276.3 180.5 288.75 177.85 294.75 175.8 299.45 175 305.5 174.4 310.05 174.4 316.7 174.45 337.65 179.7 363.6 182.65 378.3 191 409.75 196.5 430.45 199.95 444.55 204.55 463.6 207.65 479.65 208.75 485.55 209.15 488.85 209.7 493.95 209.35 498.1 208.6 507.1 203.05 517.05 199.65 523.15 191.5 533.95 178.5 551.4 170.3 562.85 169.6 563.8 169.05 564.7 165.15 564.45 163.2 567.6 162.45 568.8 162.1 570.65 161.85 571.75 161.55 573.95 160.4 580.8 155.1 588.25 153.2 590.9 144.75 600.75 129.1 618.85 118.45 640.5 113.85 649.9 111.9 657.25 109.45 666.75 110.75 674.8 110.9 675.6 111.7 679.55 112.3 682.45 112.4 684.35 112.55 686.4 112.25 689.15
L 111.65 693.95
Q 108 722.05 116.25 749 117.4 752.75 119.9 760.2 122 766.75 122.75 771.55 123.1 773.55 123.7 777.55 124.4 780.9 125.8 783.05 127.5 785.75 130.55 786.75 133.8 787.8 136.05 786 142.8 804.4 147.3 813.55 154.55 828.35 163.7 837.85 166.85 841.1 171.25 844.8 173.45 846.65 179.3 851.25
L 209.5 874.7
Q 209.5 878 212.75 880.65 215.05 882.45 219.45 884.3 237.5 891.85 253.35 903.85 258.2 907.55 260.25 908.75 264.3 911.15 267.95 911.5 272.3 911.85 275.8 908.8 279.4 905.6 278.35 901.7 277.8 899.7 275.95 897.85 274.65 896.65 272.15 895
L 246.05 877.75
Q 248.2 875.3 247.25 871.7 246.35 868.1 243.25 866.95 241.95 866.5 239.5 866.4 236.85 866.3 235.75 866 233.45 865.4 231.1 863.35 230.65 862.9 227.2 859.35 220.05 851.75 210.1 847.8 206.25 846.45 204.4 845.65 201.2 844.3 199.3 842.5 197.35 840.7 195.45 837 192.75 831.8 192.25 831 190.1 827.7 184.65 822.95 178.75 817.9 176.7 815.2 174.45 812.2 172.25 807 170 801.15 168.65 798.3 166.25 793.3 160.6 785.4 154.2 776.5 152.1 772.8 146.05 762.25 141.65 743.05 136.05 718.75 133.65 712.2 131.7 707.1 130.85 704.5 129.45 700.05 129.4 696.6 129.3 692.35 131.65 685 137.55 665.65 144.95 645.65 150.15 631.65 154.35 622.85 160.1 610.65 166.85 601.75 170.4 597.2 172.15 594.9 175.2 590.9 176.8 587.7 178.95 583.55 179.45 579.45 179.65 577.8 179.6 576.3 180.6 575.45 181.6 574.4 182.95 573 185.1 570.1
L 198.75 551.75
Q 209.45 537.4 214.2 529 221.7 515.75 223.35 503.7 224.25 497 223.65 488.6 223.25 483.25 221.85 473.55
L 215.55 429.75
Q 214.9 425.25 214.35 422.95 213.4 419.2 211.85 416.55 210.8 414.75 203.25 395.75 197.15 380.6 191.25 360.85 190.3 359.95 189 355.85 185.65 345.1 185.85 342.3 185.95 339.5 186.3 338.3 188.35 330.95 195.25 317.5 206.45 295.5 209.2 286.1 211.95 276.7 214.6 274.15 217.2 271.6 219.9 267.5 222.6 263.4 222.55 263.35
L 259.05 253.35
Q 277.6 246.45 274.4 245.45
M 93.35 237.8
Q 88.55 241.3 88.25 241.5 85.4 243.35 79.5 246.15 73.45 249 70.75 250.75 66.95 253.2 62.9 257.1 60.6 259.35 55.95 264.45 44.85 276.75 40.05 283.5 36.1 289.15 33.05 294.9 28.7 303.2 27.95 309.45 27.75 311.3 27.75 314.5 27.75 318.2 27.65 319.55 27.55 322 26.95 325.55 26.65 327.55 26 331.5 25.2 337.5 25.35 345.95 25.4 350.8 25.7 360.45 25.7 367.25 24.95 370.6 24.65 371.9 23.8 374.75 23 377.45 22.7 378.95 21.85 383.7 23.15 389.6 23.9 393.25 26.3 400
L 32 415.9
Q 33.5 420.2 34.5 422.45 36.05 426.05 37.8 428.6 39.95 431.7 43.45 434.8 45.65 436.8 50.05 440.1 65.3 451.75 74.35 457.4 77.65 459.45 80 460.45 83.25 461.85 86.15 461.9 89.5 462 92.3 460.25 95.3 458.35 95.9 455.3 96.5 452.35 94.6 449.4 92.9 446.7 89.9 445.05 87.8 443.85 84.05 442.65 79.35 441.15 78 440.6 74.85 439.25 71.35 436.85 69.15 435.35 65.25 432.2 60.15 428.1 58.25 425.5 56.65 423.2 54.85 418.9 46.65 399 43.6 377.5 40.55 355.95 42.95 334.6 43.85 326 45.95 320.7 48.45 314.5 55.5 305.95 66.75 292.3 79.95 280.1 84.1 276.25 95.65 266.3 105.6 257.65 111.15 252.25 114.95 248.6 116.55 245 118.6 240.4 116.5 237.05 114.45 233.8 109.25 233.05 103.85 232.3 98.7 234.55 96.45 235.6 93.35 237.8 Z"/>

<path fill="#10194D" stroke="none" d="
M 398.35 21.5
Q 399.15 18.7 397.8 16.55 396.45 14.45 393.4 13.65 391.25 13.1 387.7 13.15
L 368.2 13.5
Q 363.65 13.6 361.25 13.4 357.4 13.05 354.55 11.9 354.45 11.85 350.6 10 348.25 8.85 346.5 8.6 344.5 8.3 342.05 9 340.5 9.4 337.7 10.6
L 297.45 27.7
Q 293.25 29.5 290.85 31.8 287.8 34.8 288.6 38.1 251.15 50.3 218.6 71.95 216.35 73.5 214.95 74.05 212.8 75 210.95 74.65 209.8 74.5 207.75 73.4 205.65 72.3 204.5 72.15 200.25 71.6 195.8 78.5
L 169.8 119.35
Q 162.2 131.25 159.35 138.9 155.05 150.4 157.5 159.8 155.4 158.65 152.75 159.75 150.3 160.8 148.85 163.05 147.75 164.7 146.8 167.6 145.3 172.15 145.2 172.45 143.85 176 140.55 180.6 136.75 185.65 135 188.3 130.8 194.75 128.1 203.6 126.1 210.2 124.45 220.15 120.1 246.45 119.5 279.7 119.15 297.9 120.1 331.7 120.05 333 119.95 334.5 119.5 341.5 119 345.65 118.4 350.7 117.05 357.5 116.25 361.45 114.6 369.3 112 381.8 109.7 397.45 109.6 398.2 109.5 399 108.9 399.7 108.4 400.45 107.15 402.15 105.25 405.6 103.35 408.95 102.55 411.05 101.35 414.15 101.5 416.8 101.7 419.95 104 422.2 105 423.2 106.1 423.65 105.95 424.7 105.8 425.75 105.2 430.2 105.95 433.35 106.55 435.95 108.1 437.3
L 106.5 454.9
Q 102.75 454.4 99.55 457.9 97.1 460.6 95.15 465.35 83.2 494.35 71.35 529.6 62.25 556.5 50.65 594.95 50.05 597 49.65 598.55 48.4 599.4 47.3 600.6 45.2 602.9 43.65 606.4 42.6 608.7 41.25 612.95 18.55 683.95 14.25 743.25 12.45 768.1 13.6 793.4 13.8 797.05 14.35 799.1 15.2 802.2 17.2 803.8 20.25 806.3 24.4 804.15 28.55 802.05 28.3 798.1 31.45 808 38.25 818.8 42.85 826.1 51.8 837.65 57.05 844.4 62.25 850.85 63.2 854.6 67.15 858.8 68.9 860.65 74.15 865.3 80 872.2 85.75 878.7 88.5 882.85 90.5 884.95 92.25 886.8 94.05 887.9 96.45 890.5 98.8 893 100.9 895.25 103.05 897.5 103.95 898.55 105.35 900
L 129.45 925.5
Q 134.5 930.85 137.35 933.55 141.95 937.85 146.15 940.6 153.3 945.35 168.15 950.35 184.15 955.75 190.55 959.35 195.5 962.2 203.35 968.45 212.15 975.45 215.95 977.9 221.9 981.8 230 985.3 234.95 987.5 244.8 991.15
L 274.2 1002.1
Q 279.3 1004 282.1 1004.65 286.6 1005.65 290.2 1005.05 293 1004.6 297.3 1002.55 302.35 1000.15 304.25 999.55 308.2 998.35 314.25 998.45 317.65 998.5 324.45 998.65 329.7 998.45 337.55 996.7 349.15 994.1 350.55 993.85 360.55 992.15 379.75 992.6 399.7 993.05 408.95 991.75 412.35 991.25 414.45 990.35 417.3 989.1 418.5 986.85 420.25 983.7 418.25 980 416.35 976.45 412.7 975.05 409.65 973.9 405.4 974.1 403.3 974.2 397.95 975 380.75 977.55 359 977.05 345.85 976.75 319.95 974.65
L 286.25 971.9
Q 279.3 971.35 275.9 970.9 270.1 970.15 265.65 968.85 257.85 966.55 250.15 961.8 241.05 955.7 236.4 952.85 228.3 947.85 221.7 946.5 219.15 946 213.8 945.6 208.55 945.2 205.9 944.65 200.95 943.5 192.8 939.35 171.4 928.5 149 915.9 133.95 898.45 125.05 889.55 120.25 884.75 105.5 871.05 93.1 859.45 86.25 852.15 65.2 829.55 59.6 807.85 58.35 803.1 57.5 797 57 793.4 56.25 786.05 53.45 758.7 52.85 744.8 51.8 721.85 54.05 703.6 56 687.6 61.3 668.7 65.05 655.45 72.3 634.65
L 82.6 605.6
Q 84 604.4 85.05 602.5 86.25 600.35 87.35 596.55
L 95.8 567.75
Q 96.9 564.1 97.75 562.2 99.1 559.25 101.05 557.55 102.1 556.6 104.1 555.5 106.65 554.05 107.3 553.6 111.25 550.9 113.9 545.6 115.75 542.05 117.65 535.55 124.7 511.3 128.4 499.2 134.8 478.35 140.95 463.6 143.4 457.65 144.1 455.55 145.65 450.95 145.75 447.15 145.8 445.5 145.45 442.4 145.15 439.15 145.15 437.6 145.15 434.7 145.85 431.05 146.2 429.35 147.35 424.5 158.95 378.05 157.6 330.1 157.5 326.75 157.25 324.8 156.8 321.9 155.8 319.75 154.6 317.2 152.5 315.6 152.05 315.25 151.6 315 152.75 310.7 153.65 307.2 154.55 305.6 155.2 303.55 155.9 301.4 156.8 296.25 158.65 285.85 167.75 256.35 175.4 231.55 176.25 216.15 176.4 213.05 175.85 190.55 175.5 175.05 178.1 165.4 180.35 157.05 185.8 147.8 189.25 141.95 196.65 131.7 203.95 121.6 207.85 116.8 214.35 108.75 220.6 103.35 226.9 97.9 235.6 92.7 241.7 89.1 251.9 84 287.65 66.05 325.15 50.4 342.4 43.25 355 38.75 371.4 33 385.7 29.65 389.25 28.8 390.8 28.3 393.6 27.3 395.4 25.85 397.55 24.1 398.35 21.5 Z"/>
</g>

<g id="Alone_0_Layer0_0_FILL">
<path fill="#000000" stroke="none" d="
M 683.8 193.35
Q 670 189.05 658.15 188.35 642.75 187.45 628.2 191.95 626.8 192.4 625.5 192.9 623.95 187.45 621.95 180.2 617.55 164.2 614.25 155 602.3 121.85 577.85 93.05 554.7 65.75 523.25 45.5 504 33.15 488.35 28.7 482.65 27.1 473.05 25.45 461.25 23.45 457.6 22.65 448.15 20.6 434 15.8 413.7 8.9 410.65 8 378.75 -1.65 350.5 0.35 337.1 1.35 322.3 5.2 309.75 8.45 295 14.1 262.6 26.6 232.95 45.3 203.35 63.95 178 87.75 167.7 97.5 160.45 105.95 151.6 116.25 145.65 126.4 136.95 141.25 130.95 161.8 127.2 174.6 122.1 199.45 120.6 206.65 119.4 212.8 116.35 212.45 112.85 213.45 109.95 214.3 105.65 216.4 77.55 230.25 50.2 253.55 38.7 263.3 31 271.85 21.45 282.5 15.75 293.3 8.1 307.9 5.2 327.1 2.9 342.5 3.45 362.95 4 382.25 6.85 395.1 12.85 421.9 31.85 443.75 50.55 465.25 76.45 475.75 80.25 477.3 83.35 477.9 78.45 490.8 71.05 506.9 65 520 52.8 546.15 39.85 575.35 24.95 619.85 15.45 648.25 10.45 667.5 3.6 693.8 1.3 716.25 -1.45 742.4 1.7 766.05 5.1 792 15.4 813.5 22.65 828.65 35.35 845.35 43.15 855.6 59.6 874.4 86.9 905.6 102.15 920.4 127.1 944.65 151.15 958.55 160.75 964.15 175.15 970.85 183.35 974.6 199.75 982.05 209.05 986.45 227.65 995.3 243.8 1002.6 256.5 1005.85 267.4 1008.6 281.4 1009.95 289.75 1010.75 306.6 1011.5 327.35 1012.35 337 1012.55 353.95 1012.85 367.4 1012 383.35 1011.05 402.9 1008 415.4 1006.05 438.05 1001.75 509.5 988.05 555.4 976.8 586.7 969.2 609.25 962.05 638.05 953 661.35 942.2 692.65 927.75 714.1 910 730.5 896.45 747.55 875.55 773.15 844 790.8 806.65 808.4 769.35 816.6 729.45 833.95 645.2 807.65 569.7 797.4 540.4 783.05 521.25 778.55 515.2 769.8 505.35 759.9 494.3 756.25 489.7 752.2 484.65 748.3 478.85 748.55 478.45 748.8 478 754.9 467.45 772.9 446.9 789.75 427.65 796 415.3 802.45 402.45 805.35 385.65 807.55 372.55 807.9 354.35 808.35 333.35 806.85 312.45 806.2 304.1 805.35 298.85 804.2 291.45 802.05 285.65 798.95 277.2 792.35 268.15 788.25 262.45 779.5 252.55 772.65 244.75 768.7 240.6 762.5 234.15 756.95 229.5 747.25 221.45 733.75 214.35 724.15 209.3 708.4 202.65 693.35 196.3 683.8 193.35
M 733.4 235.35
Q 747.1 243.75 757.55 253.4 769.1 264.05 776.95 276.55 785.35 289.95 788.55 304.2 790.15 311.45 790.7 320.3 791.15 327 791 336.5 790.8 352.7 789.5 368.9 788.9 376.35 788.2 381.15 787.25 387.8 785.6 393.15 782.5 403.4 775.5 413.95 770.4 421.7 761.05 432.55 746.55 449.45 745.55 450.7 741.05 456.25 737.65 461.3 735.2 456.9 732.8 452.15 726 438.75 714.55 411.5
L 645.15 246.65
Q 639.3 232.8 636.75 226.25 633.5 218.15 631.1 211.1 634.3 208.95 639.95 208 655.55 205.3 673.9 209.6 688.4 212.95 706.6 221.25 721.75 228.15 733.4 235.35
M 729.15 481.9
Q 729.4 483.65 730.3 485.2 731.45 487.2 733.25 488.15 734.6 490.15 735.95 492.1 740.9 499.2 752.85 514.45 764.05 528.75 769.55 536.9 786.1 561.5 795.4 589.95 804.75 618.4 805.85 647.95 806.3 659.55 805.5 673.1 804.9 683.75 803.35 698.15 801.2 718.05 798.55 732.3 795.15 750.65 789.9 765.55 785.7 777.6 779 791.1 773.75 801.65 765.7 815.5 751.25 840.35 738.4 857.45 722.15 879.1 704.55 893.95 686.65 909.1 662.65 921.25 642.55 931.45 616.15 940.45 593.1 948.3 564.6 955.65 544.4 960.85 512.3 967.95 480.3 975.05 457.3 979.55 427.4 985.4 401.9 989.1 369.55 993.8 349.3 995.55 329.05 997.25 302.75 999.3 301.6 999.4 300.6 999.45 297.15 999.05 293.55 998.45 274.25 995.1 250.4 985.15 222.05 973.25 197.15 961.45 181.6 954.2 173.35 949.95 160.35 943.25 150.55 936.75 133.85 925.75 115.8 908.45 104.75 897.8 84.65 875.9 61.35 850.55 50.6 836.15 33.2 812.85 25.6 790.95 15.15 760.95 18.7 722.75 21.4 693.85 33.2 654.05 50.5 595.7 75.85 539.3 86.2 517 91.15 505.75 99.8 486.2 104.65 471.4 112.35 447.75 116.45 418.75 119.55 396.55 121.3 364.7 122.9 328.3 123.9 310.15 125.7 278.4 129.05 255.9 131.15 241.75 134.85 224.3 137.05 213.8 141.9 192.9 146.05 175 148.75 166 153.2 151.2 158.95 140.25 165.45 127.9 176.1 115.65 184.85 105.65 197.55 94.4 239.45 57.45 288.95 35.8 300.75 30.65 311.7 27.1 311.65 26.15 311.95 25.15 312.05 24.75 312.6 23.55 313.4 22.15 314.7 21.3 316.15 20.35 317.65 20.4 318.1 20.45 318.5 20.3 318.9 20.1 318.85 19.75 321.75 20.4 323.3 21.75 324.15 22.45 324.7 23.3 325.5 23.1 326.3 22.9 346.8 17.95 365.25 18.75 381.7 19.45 404.15 25.6 416.9 29.1 442.35 36.7 453.4 39.7 475.7 45.1 495.1 50.25 507.85 56.6 521.95 63.6 535.5 75.15 547.15 85.05 559.05 98.95 577.7 120.75 588.2 142 594.8 155.35 601.35 175.65 604.7 186.05 610.85 206 609.65 210 610.95 213.4 612.05 216.4 614.85 218.1 618.25 227.7 622.55 238.7 626.4 248.45 634 266.8
L 687.1 394.95
Q 701.05 428.55 708.9 444.95 718.75 465.55 729.15 481.9
M 115.5 232.45
Q 115.25 233.8 115 235.1 111.3 254.95 109.35 271 106.9 290.95 105.4 320.4 104.55 336.95 102.95 370 99.75 423.75 89.6 459.3 88.45 458.85 87.15 458.4 83.4 457.3 81.55 456.7 63.25 451.1 48.75 436.05 35 421.8 27.9 402.65 15.55 369.2 23.7 324.85 25.8 313.35 28.8 306.55 32.05 299.15 38.95 290.5 65.6 256.55 115.5 232.45
M 707.85 648.3
Q 702.7 637.95 692.8 620.85 681.2 600.65 677.4 593.6 651.25 544.85 639.5 490.1 627.8 435.35 631.6 380.2 632.9 364.05 633.4 355.85 634.3 341.6 633.8 331.45 632.45 304.05 620.05 287.35 612.95 277.8 600.65 269.75 592.2 264.2 577.2 257.05 555.9 246.9 541.2 242.15 520.9 235.6 503.3 235.55 489.7 235.55 473.15 239.5 463.55 241.8 443.55 248.2 424.15 254.35 413.95 256.7 397.45 260.5 383.8 260.2 367.4 259.85 347.25 253.4 337.65 250.3 311.75 239.85 289.5 230.9 276.3 227.55 256.6 222.5 239.9 224.3 217 226.75 197.3 241.8 178.2 256.35 167.95 278 158.15 298.6 157.25 323.15 156.35 346.4 163.45 369.55 165.15 375.2 171.3 391.7 176.45 405.45 178.5 414 180.25 421.25 182.1 435.3 184.05 449.85 185.55 456.6 187.25 464.05 191.4 478.8 194.55 491.85 193.55 501.2 192.3 513.35 183.75 526.9 180.5 532 166.75 549.7 154.4 565.6 141.25 586.75 132.75 600.45 118.45 625.6 110.3 640 106.5 648 100.5 660.7 97.9 671.65 95.4 682.4 95.3 695.2 95.25 705.65 96.8 719.05 101.1 754.9 113.75 786.4 127.35 820.15 149.3 845.65 167.8 867.1 195.1 885.9 230.4 910.35 262.65 917.3 274.05 919.75 288.65 920.8 297.6 921.4 314.9 921.75
L 430.05 924.15
Q 456.55 924.7 469.85 924.5 491.95 924.15 509.5 921.95 542.45 917.8 582.95 904 598.4 898.75 609.15 893.8 622.95 887.5 633.4 879.95 642.1 873.65 650.95 864.6 657.85 857.55 666.45 847.15 697.25 809.8 712.35 775.15 728.35 738.4 726 706.6 724.05 680.45 707.85 648.3
M 663.5 606.65
Q 664.3 608.1 678.8 633.3 688.05 649.45 693.3 660.4 708.35 691.95 708 717.9 707.65 739.25 697.15 763.25 689.65 780.35 673.75 804.85 660.45 825.35 650.6 837.4 636.7 854.35 622.05 864.8 610.8 872.85 595.9 879.4 584.2 884.5 567.65 889.75 528.4 902.25 495.7 905.5 477.6 907.35 455.4 907 440.05 906.75 415.05 905.15 361.25 901.75 354.6 901.4 320.25 899.7 294.15 900.3 281.7 900.65 277.5 900.55 268.1 900.4 261 898.9 250.2 896.65 238 890.05 230.5 886 216.85 876.8 192.55 860.4 180.95 850.9 161.95 835.3 150.9 819.1 145.2 810.75 140.05 800 136 791.6 131.4 779.75 119.8 749.9 115.85 726.7 110.9 697 117.1 672.6 120.65 658.9 128.8 643.2 133.75 633.6 144.85 615.7 156.55 596.9 162.4 587.95 172.45 572.7 181.4 561.2 196 542.6 196.75 541.55 204.95 530.05 208.35 519.95 212.65 507.25 211.7 490.7 211 479.35 207.15 460.95 197.2 413.45 183.15 367.05 179.35 354.5 178.15 349.85 175.7 340.1 175.1 332.25 174.2 319.85 177.25 306.95 180.15 294.75 186.3 283.05 192.05 272.15 199.5 263.95 207.75 254.85 217.55 249.75 247.45 234.25 295.8 253 308.35 257.9 333.25 268.55 355.25 277.15 372 278.7 388.75 280.25 409.65 276 420.95 273.7 446.95 266.15 470.85 259.15 484.15 256.9 504.75 253.45 521.55 256.2 531.45 257.8 543 262.05 550.7 264.9 563.5 270.8 580.2 278.5 589.2 284.6 602.45 293.7 608.85 304.95 615.9 317.45 616.35 336.2 616.5 344.35 614.2 369.55 608.5 430.7 621.2 491.75 633.9 552.8 663.5 606.65
M 422.3 536.45
Q 419.95 537.4 418.6 539.4 417.7 540.75 416.7 543.85 415.4 547.75 415.3 549.85 415.15 553.45 417 555.6 418.2 556.95 420.05 557.45 421.85 557.95 423.6 557.4 425.3 556.9 426.65 555.6 427.95 554.3 428.5 552.6 429 549.85 429.45 548.55 429.7 547.85 430.65 546 431.45 544.45 431.65 543.4 432.15 541.1 430.7 538.9 429.25 536.75 426.95 536.1 424.65 535.45 422.3 536.45
M 373 539.5
Q 368.25 537.8 365.3 539.7 363.1 541.1 362.75 544.05 362.45 546.9 364.15 548.95 365 550 367.2 551.75 368.15 552.7 370.7 556.4 372.8 559.35 374.65 560.5 376.2 561.45 378.05 561.55 379.9 561.65 381.5 560.85 383.1 560 384.05 558.4 384.95 556.7 384.75 554.95 384.6 553.5 383.05 550.8
L 380.45 546.3
Q 378.85 543.5 377.7 542.35 375.95 540.6 373 539.5
M 236 674.3
Q 218.5 680.55 209.35 689.55 201.75 697.05 202.6 704.15 203.05 708.45 207 711.05 211 713.7 214.5 711.6 216.3 710.5 217.85 707.85 219.4 704.7 220.3 703.25 222.5 699.6 226.7 696.65 229.9 694.45 235.05 692.15 271.6 676.05 313.2 684.1 354.75 692.15 382.6 720.8 387.8 726.15 391.5 728.3 397.05 731.55 401.6 729.6 404 728.6 406.1 726 407.3 724.5 409.4 720.95 418.25 705.8 429.15 694.7 441.4 682.3 455.55 675.8 464.15 671.8 475 669.4 483.65 667.5 495.3 666.3 528.1 662.9 551.75 668.5 566.15 671.85 578.25 678.6 591.25 685.8 600.25 696.15 604.65 701.25 606.95 703.05 611.15 706.3 615.15 705.75 617.6 705.4 619.75 703.65 621.7 702.1 623 699.7 624.5 696.95 624.55 694.05 624.65 690.85 622.9 688.7 621.6 687.1 619 686 618.95 686 614.35 684.4 607.85 682.15 599.65 676.1 590.65 669 585.9 665.85 570.45 655.55 548.45 651.85 531.45 648.95 507.6 649.8 491.95 650.35 480.85 652.1 466.45 654.35 455.1 659.05 438.25 666.05 422.45 680.75 409.9 692.45 396.3 710.75 365.75 680 321.3 669.9 276.85 659.8 236 674.3
M 320.95 514.95
Q 315.75 522.35 315.95 536.15 316.05 546.15 318.9 552.1 322.65 559.8 331.6 564.15 339.5 568 349.4 568.45 354.35 568.65 357 567.4 358.85 566.55 360 564.95 361.2 563.3 361.15 561.4 361.05 559.45 359.45 557.8 358.05 556.25 355.95 555.55 354.25 555 351.85 554.8 349.05 554.7 347.65 554.6 342.3 554.25 338.15 552.35 333.3 550.15 331.05 546.2 329.2 542.8 328.9 536.95 328.55 528.6 331.55 523.5 333.3 520.55 336.9 517.65 341.25 514.4 343.4 512.8 347.9 509.2 350.15 507.45 354.2 504.2 357.2 502.5 362.65 499.45 372.8 496.9 383.45 494.3 390.75 493.8 402.1 493.05 418.25 496.65 433.2 499.9 443.1 504.8 453.05 509.75 460.7 517.25 467.6 523.95 469.55 530.4 470.8 534.4 470.15 538.35 469.45 542.55 466.8 545.4 465.25 547.05 462.05 548.9 458.05 551.25 457 552.05 454.4 553.95 453.2 556.75 451.9 559.8 453.25 562.25 454.25 563.95 456.25 564.8 458.15 565.6 460.25 565.35 463.5 564.9 467.55 562.15 480.2 553.6 483.05 542.4 484.85 535.25 482.4 527.25 480.2 520.05 475.1 513.45 466.2 501.95 451 494.2 438.55 487.85 421.25 483.75 404.1 479.65 391.8 480.35 383.95 480.8 371.2 483.8 364.45 485.35 360.35 486.7 354.5 488.6 350.1 491.05 346.25 493.25 341.2 497.35 338.35 499.7 332.7 504.35 330.65 506 326.45 509.25 322.95 512.2 320.95 514.95
M 252.95 394.85
Q 247.95 393.35 242.75 395.1 239.1 396.3 236.5 398.7 235.3 399.7 234.35 401 231.55 404.65 230.9 409.4 230.2 414.15 231.9 418.45 233.3 421.95 236.05 424.6 236.65 425.2 237.35 425.75 238.15 426.4 239 426.95 239.15 426.8 239.35 426.7 241.05 425.8 242.25 426.85 242.6 427.15 243 427.75 243.2 428.1 243.55 428.75 243.65 428.9 243.75 429.05 244.7 429.3 245.65 429.45 249.9 430.15 254.15 428.7 258.4 427.3 261.3 424.15 264.25 421.05 265.4 416.75 266.55 412.4 265.55 408.25 264.3 402.9 259.95 398.9 256.65 396 252.95 394.85
M 467.5 411.1
Q 465.5 405.8 461.15 402.7 456.85 399.6 451.25 399.35 445.65 399.15 441 401.8 436.95 404.15 434.6 408.1 434.4 408.4 434.25 408.7 433.2 410.6 432.7 412.6 431.15 418.65 433.8 424.2 434.75 426.25 436.25 427.95 437.45 429.4 439 430.6 442.3 433.2 446.45 434.25 449.85 435.1 453.2 434.8 458.5 434.2 462.75 430.45 466.95 426.7 468.2 421.55 469.45 416.35 467.5 411.1 Z"/>

<path fill="#10194D" stroke="none" d="
M 325.75 26.7
Q 325.65 24.75 324.7 23.3 324.15 22.45 323.3 21.75 321.75 20.4 318.85 19.75 318.9 20.1 318.5 20.3 318.1 20.45 317.65 20.4 316.15 20.35 314.7 21.3 313.4 22.15 312.6 23.55 312.05 24.75 311.95 25.15 311.65 26.15 311.7 27.1 311.7 28.05 312 29 312.2 29.8 312.7 30.6 313.55 32 314.95 32.9 316.3 33.8 317.9 34 319.5 34.2 321.1 33.65 322.7 33.05 323.8 31.9 325.9 29.8 325.75 26.7 Z"/>

<path fill="#33CCFF" stroke="none" d="
M 334.1 475.4
Q 334 474.05 333.25 473.2 331.95 471.85 329.55 472.4 327.9 472.75 327.25 473.75 326.65 474.55 326.65 475.9 326.65 477.05 327 477.7 327.55 478.9 329.05 479.25 330.25 479.55 331.65 479.05 333.25 478.4 333.8 477.35 334.2 476.55 334.1 475.4
M 241.65 516.35
Q 240.3 515.7 238.5 517.8 234.6 522.55 233.5 525.1 232.7 527.05 232.25 530.1 232 531.8 231.5 535.25 231.1 537.4 228.15 546.6 225.95 553.5 226.1 558.05 226.25 560.7 227 563.15 227.6 565.25 228.7 566.35 229.9 567.65 231.85 567.8 233.7 568 235.35 567.15 238.5 565.45 239.35 561.4
L 239.8 557.65
Q 240.6 553.6 240.7 551.55 240.75 550.05 240.45 547.15
L 239.95 542.1
Q 239.55 537.9 239.55 535.75 239.55 532.2 240.35 529.5 241.45 526.5 241.9 524.95 242.45 522.85 242.65 519.3 242.85 516.95 241.65 516.35
M 232.35 547.45
Q 232.3 547.6 232.05 548.1 232.3 547.4 232.5 546.8 232.45 547.2 232.35 547.45
M 230.3 555.7
L 230.3 556.85
Q 230.25625 557.06875 230.25 557.3 230.251953125 556.5169921875 230.3 555.7
M 323.4 451
Q 321.25 451.7 319.5 454.1 318.65 455.15 318.5 456.2 318.5 456.3 318.5 456.45 317.85 456.5 317.1 456.7 316.1 456.95 315.45 457.5 315.3 457.4 315.2 457.35 314.05 456.9 312.8 457.2 311.5 457.55 310.85 458.55 310.2 459.5 310.15 461.3 309.9 461.55 309.75 461.9 309.5 462.5 309.45 463.15 309.4 463.45 309.45 463.8 309.55 464.95 310.35 465.85 311.2 466.8 312.3 466.85 312.8 466.9 313.75 466.85 314.15 466.85 314.85 467.15 315.65 467.5 317.25 468.3 318.7 468.85 319.8 468.5 321.15 468.1 322.45 465.9 323 464.95 323.55 464.95 323.65 466.2 324.25 467.25 324.9 468.35 325.95 468.75 327.2 469.25 328.4 468.65 329.35 469.15 330.55 468.75 331.85 468.35 332.35 467.2 332.75 466.3 332.55 464.85 332.2 463.2 332.1 462.35 332 461.65 332.1 460.5 332.15 459.1 332.15 458.6 332.15 458.2 332.1 457.85 332.95 457.55 333.6 456.85 334.25 456.15 334.4 455.2
L 334.5 455.15
Q 336.15 454.45 336.55 454.2 337.3 453.7 338.05 452.9 339.3 451.55 339.55 450.3 339.5 448.75 339.6 447.95
L 339.9 446.45
Q 340.05 445.35 339.5 444.4 338.7 443 336.85 442.45 336.8 442.45 336.7 442.4 335.9 442.2 334.75 442.25
L 334.7 442.2
Q 333.35 441.45 332.05 441.5 330.45 441.6 329.3 442.9 328.9 443.4 328.6 444.05
L 327.05 445
Q 325.75 445.8 325.25 446.45 324.8 447 324.55 448.05 324.15 449.65 324.4 450.8 323.9 450.85 323.4 451
M 246.35 444.15
Q 246 443.35 245.8 443.1 245.7 442.95 245.6 442.9 244.5 442.95 243.35 442.25 242.65 441.85 241.85 440.95
L 240.6 439.4
Q 239.15 439.25 237.75 440.2 237.35 440.45 237 440.8 236.9 440.8 236.85 440.85 235 441.5 233.9 443.1 232.05 445.9 232.4 450.35 232.5 452.35 233.15 453.8 234.15 455.7 236.35 456.45 237.25 456.75 238.1 456.75 238.45 457.35 239 457.95 239.2 458.15 240.1 459.05 240.8 459.7 241.15 460.15 241.65 460.9 242.05 462.05 242.3 462.7 242.7 464.05 243.4 466.25 245.5 470.35 246.25 471.7 246.45 472.6 246.75 473.5 246.65 474.65 246.5 476.25 244.95 479.35
L 241.35 486.4
Q 240.25 488.55 239.95 489.95 239.65 491.35 239.65 494.3 239.65 494.55 239.4 496.1 239.25 497.2 239.3 497.9 239.4 499.7 240.65 501.05 241.95 502.45 243.6 502.4 245.15 502.4 246.4 501.1 247.6 499.9 247.9 498.2 248.3 496 247.1 491.75 246.8 490.75 246.85 490.25 246.95 489.9 247.9 488.55 248.45 487.75 249.05 486.45
L 250 484.2
Q 251.25 481.7 251.3 481.55 251.7 480.4 251.7 477.95 251.7 474.75 251.45 473.55 250.95 471.8 250.8 470.85 250.55 469 250.3 468.1 250.05 467.1 248.8 465.05
L 246.75 461.75
Q 248.65 461.15 249.7 460.1 249.9 459.85 250.1 459.65 251.45 460.85 253.95 462.3 255.35 463.15 256.3 463.2 256.95 463.25 257.55 462.9 258.15 462.6 258.3 462 259 461.9 260.25 462.1 261.15 462.25 261.7 462.3 261.4 463.15 261.8 463.95 262.5 465.35 265.2 465.65 264.95 466.85 266.3 468 267 468.6 268.55 469.55 269 469.9 270.1 471.25 271.95 473.5 273.55 474.05 275.8 474.85 278.5 473.4 280.2 472.45 282.45 470.1 283.8 468.85 284.25 467.9 284.45 467.5 284.55 467.1 282.45 466.3 281.6 464.7 281.4 464.35 281.35 464 281.25 464 281.15 464 280 464.1 279.45 464.15 278.45 464.2 277.75 464.05 277.3 463.95 276.25 463.45 275.3 463.05 274.75 462.95 274.4 462.9 272.05 463.15 271.3 463.25 270.9 462.95 270.65 462.8 270.45 462.35 270.3 461.85 270.15 461.6 269.85 461.1 269.2 460.75 269 460.45 268.75 460.25 267.9 459.9 267.45 459.7 266.7 459.25 266.3 459.05 265.6 458.6 265 458.75 265.1 458.9 264.8 458.9 264.5 458.9 264.25 459 264.05 458.8 263.8 458.6 263.35 458.3 262 457.8 259.65 456.9 258.1 455.35 256.85 454.2 256.55 454 255.6 453.35 254.75 453.45 254.2 453.6 253.95 453.65 253.65 453.7 253.4 453.7 253.3 453.7 253.2 453.65 252.85 453.55 252.6 453.1 252.55 453 252.5 452.95 252.25 452.5 252.15 452.3 251.8 451.55 251.05 451.1 250.65 450.85 250.2 450.75 249.85 450.65 249.45 450.65 249.45 450.4 249.4 450.15 249.4 450.05 249.4 449.95 249.4 449.75 249.35 449.6 249.3 449.4 249.2 449.25 248.75 447.65 247.35 446.6 247.3 446.5 247.3 446.45 246.65 444.9 246.35 444.15
M 554.75 498.35
Q 554.7 497.9 554.55 497.5 554.35 496.95 554.05 496.55 553.2 495.6 552.3 496.1 551.65 496.4 551.35 497.8
L 551.2 498.45 549.55 505.7
Q 548.85 508.75 548.65 510.9
L 548.45 514.6
Q 548.25 516 547.75 518.75 547.6 520.05 547.75 523.1 547.85 525.85 547.6 527.4 547.4 528.45 546.8 530.45 546.65 531 546 534.55 545.45 537.8 544.75 539.7
L 543.85 542.3
Q 543.25 544.45 543.6 546.55 544 548.75 545.4 550.25 546.85 551.85 549.15 552.05 551.45 552.3 552.9 550.9
L 552.95 550.85
Q 553.9 549.9 554.65 547.9 555.35 545.8 555.95 542.9 555.95 542.85 556 542.8 556.65 539.55 556.7 537.85 556.7 535.6 555.85 531.9
L 553.75 522.05 553.45 520.75
Q 552.45 516.15 552.5 513.1 552.5 510.3 553.75 505.5 554 504.5 554.2 503.75 554.5 502.5 554.6 501.95 554.95 499.95 554.75 498.35
M 552.3 533.95
L 552.5 533.95 552.65 534.7 552.7 537.5
Q 552.7 538.35 552.5 538.7 552.3 538.65 552.3 538.25
L 552.3 533.95
M 487.55 470.05
Q 487.25 469.3 486.75 468.8 486 468.05 485 467.9 483.9 467.75 483.1 468.3 482.7 468.55 482.45 468.9 478.75 467.75 474.9 466.15 475.05 465.7 475.05 465.25 475.15 464.25 474.7 463.4 474.2 462.5 473.3 462.1 472.9 461.9 472.1 461.75 471.25 461.55 470.85 461.4 470.4 461.25 469.4 460.55 468.5 460 467.9 459.85 467.15 459.65 466.4 459.95 465.95 459.7 465.55 459.6 465.3 459.45 465.05 459.4 464.4 458.8 464.1 458.45 463.25 457 462.7 456.4 461.5 455.05 459.45 454.9 457.95 454.8 456.55 455.4 455.5 455.85 454.7 456.65 454.45 456.85 454.2 457.15 453.65 457.8 452.7 459.85 451.15 463.3 451.95 465.15 452.45 466.4 453.95 467.2 454.9 467.7 456.8 468.25 458.95 468.85 460.05 468.55 460.35 468.5 460.85 468.25 461.3 468.1 461.65 468.15 461.95 468.2 462.35 468.45 462.55 468.6 463 468.95 464.1 469.75 466.1 469.8 467.2 469.8 469.5 469.8 470.6 469.85 472.7 470.45
L 477.35 471.7
Q 480.25 472.5 481.95 472.5 482.1 473 482.35 473.35 482.95 474.1 483.7 474.3 484.55 474.6 485.5 474.35 486.4 474.1 486.95 473.4 487.1 473.2 487.25 473 487.7 473.15 488.3 473.25 492.05 473.9 496.25 472.75 497.5 472.5 498.15 471.95 498.5 471.7 498.75 471.4 494.95 471.45 490.9 470.85 489.3 470.6 487.65 470.25 487.6 470.15 487.55 470.05 Z"/>

<path fill="#727282" stroke="none" d="
M 230.3 556.85
L 230.3 555.7
Q 230.251953125 556.5169921875 230.25 557.3 230.25625 557.06875 230.3 556.85
M 232.05 548.1
Q 232.3 547.6 232.35 547.45 232.45 547.2 232.5 546.8 232.3 547.4 232.05 548.1
M 249.4 449.95
Q 249.4 450.05 249.4 450.15 249.45 450.4 249.45 450.65 249.85 450.65 250.2 450.75 249.8 450.35 249.4 449.95
M 253.2 453.65
Q 253.3 453.7 253.4 453.7 252.95 453.3 252.5 452.95 252.55 453 252.6 453.1 252.85 453.55 253.2 453.65 Z"/>

<path fill="#FFFFFF" stroke="none" d="
M 237.35 425.75
Q 236.65 425.2 236.05 424.6 236.35 426.15 236.8 427.7 237.2 427.4 237.7 427.25 238.25 427.1 238.75 427.1 238.85 427 239 426.95 238.15 426.4 237.35 425.75
M 279.35 359.7
Q 265.75 362.05 254.6 371.1 243.4 380.2 238.35 393.05 237.25 395.8 236.5 398.7 239.1 396.3 242.75 395.1 247.95 393.35 252.95 394.85 256.65 396 259.95 398.9 264.3 402.9 265.55 408.25 266.55 412.4 265.4 416.75 264.25 421.05 261.3 424.15 258.4 427.3 254.15 428.7 249.9 430.15 245.65 429.45 244.7 429.3 243.75 429.05 244.85 430.5 246.6 431.25 248.6 432.05 250.55 431.55 251.95 431.2 254.55 429.9 257.1 428.85 258.7 430.1 259.35 430.6 259.95 431.85 260.65 433.3 261 433.7 262.5 435.4 265.1 435.25 266.95 435.05 269.4 433.8 271.35 432.8 272.4 432.55 274.15 432.1 275.3 432.85 275.8 433.2 276.4 433.85 276.7 434.25 277.3 435 278.85 436.7 281.55 436.65 284 436.65 286.15 435.3 286.9 434.85 288.35 433.85 289.6 433.1 290.7 433.05 291.85 433.05 293.4 434 295.85 435.6 295.9 435.6 298.7 436.95 301.55 435.55 302.35 435.15 303.85 434.15 305.2 433.3 306.25 433.3 307.7 433.3 310.2 435.35 312.55 437.3 314.1 437.05 314.9 436.9 317.05 435.45 318.8 434.25 319.9 434.75 320.8 435.1 321.95 436.7 324.05 438.4 328 436.5 330.2 435.45 330.95 435.2 332.7 434.65 334.05 435.05 335.7 435.5 336.55 437.15 336.85 436.45 337.2 435.75 343.1 423.2 342.05 408.85 341 394.5 333.35 383 324.75 370.05 309.75 363.55 294.7 357.1 279.35 359.7
M 461.7 364.25
Q 448 372.5 440.85 385.95 436.5 394 434.9 403.25 434.45 406 434.25 408.7 434.4 408.4 434.6 408.1 436.95 404.15 441 401.8 445.65 399.15 451.25 399.35 456.85 399.6 461.15 402.7 465.5 405.8 467.5 411.1 469.45 416.35 468.2 421.55 466.95 426.7 462.75 430.45 458.5 434.2 453.2 434.8 449.85 435.1 446.45 434.25 442.3 433.2 439 430.6 437.45 429.4 436.25 427.95 439.35 439.2 446.4 448.15 450.15 452.85 454.7 456.65 455.5 455.85 456.55 455.4 457.95 454.8 459.45 454.9 461.5 455.05 462.7 456.4 463.25 457 464.1 458.45 464.4 458.8 465.05 459.4 465.3 459.45 465.55 459.6 465.65 459.45 465.8 459.35 465.7 458.5 466 457.6 466.55 456.15 467.8 455.45 468.85 454.85 470.35 454.85 471.2 454.85 473.1 455.1 477.15 455.7 479.8 455.45 483.5 455.1 485.75 453.15 486.5 452.45 487.55 451.15 488.85 449.5 489.25 449.05 491.6 446.5 494 446.9 494.8 447.05 496.1 447.75 497.45 448.55 498.15 448.75 499.95 449.3 501.85 448.2 503.5 447.25 504.75 445.4 506.75 442.4 506.85 442.3 508.25 440.7 509.8 440.55 510.9 440.45 513 441.45 515.1 442.45 516.2 442.4 517.75 442.3 519.05 440.85 519.9 439.9 521 437.9 523.5 433.6 526.2 434 526.8 434.1 527.85 434.55 528.9 435.05 529.45 435.15 530.85 435.4 532.95 434.25 533.55 433.9 535.15 432.95 536.55 432.1 537.4 431.7 540.1 430.4 542.4 430.8
L 542.45 430.8
Q 543.1 428.85 543.65 427.45 544.55 424.95 546.05 424.55 546.35 424.45 546.75 424.5 547.7 419.55 547.85 414.35 548.3 398.4 540.85 385.1 533.4 371.75 519.65 363.75 505.85 355.7 490.6 355.85 475.35 355.95 461.7 364.25 Z"/>

<path fill="#66FFFF" stroke="none" d="
M 301.55 435.55
Q 298.7 436.95 295.9 435.6 295.85 435.6 293.4 434 291.85 433.05 290.7 433.05 289.6 433.1 288.35 433.85 286.9 434.85 286.15 435.3 284 436.65 281.55 436.65 278.85 436.7 277.3 435 276.7 434.25 276.4 433.85 275.8 433.2 275.3 432.85 274.15 432.1 272.4 432.55 271.35 432.8 269.4 433.8 266.95 435.05 265.1 435.25 262.5 435.4 261 433.7 260.65 433.3 259.95 431.85 259.35 430.6 258.7 430.1 257.1 428.85 254.55 429.9 251.95 431.2 250.55 431.55 248.6 432.05 246.6 431.25 244.85 430.5 243.75 429.05 243.65 428.9 243.55 428.75 243.2 428.1 243 427.75 242.6 427.15 242.25 426.85 241.05 425.8 239.35 426.7 239.15 426.8 239 426.95 238.85 427 238.75 427.1 238.25 427.1 237.7 427.25 237.2 427.4 236.8 427.7 236.4 427.95 236.1 428.4 235.5 429.3 235.55 430.3 235.6 431.35 236.6 433.05
L 237.4 434.35
Q 239.15 437.4 240.4 439.15
L 240.6 439.4 241.85 440.95
Q 242.65 441.85 243.35 442.25 244.5 442.95 245.6 442.9 245.7 442.95 245.8 443.1 246 443.35 246.35 444.15 246.65 444.9 247.3 446.45 247.3 446.5 247.35 446.6 248.75 447.65 249.2 449.25 249.3 449.4 249.35 449.6 249.4 449.75 249.4 449.95 249.8 450.35 250.2 450.75 250.65 450.85 251.05 451.1 251.8 451.55 252.15 452.3 252.25 452.5 252.5 452.95 252.95 453.3 253.4 453.7 253.65 453.7 253.95 453.65 254.2 453.6 254.75 453.45 255.6 453.35 256.55 454 256.85 454.2 258.1 455.35 259.65 456.9 262 457.8 263.35 458.3 263.8 458.6 264.05 458.8 264.25 459 264.5 458.9 264.8 458.9 265.1 458.9 265 458.75 265.6 458.6 266.3 459.05 266.7 459.25 267.45 459.7 267.9 459.9 268.75 460.25 269 460.45 269.2 460.75 269.85 461.1 270.15 461.6 270.3 461.85 270.45 462.35 270.65 462.8 270.9 462.95 271.3 463.25 272.05 463.15 274.4 462.9 274.75 462.95 275.3 463.05 276.25 463.45 277.3 463.95 277.75 464.05 278.45 464.2 279.45 464.15 280 464.1 281.15 464 281.25 464 281.35 464 281.4 464.35 281.6 464.7 282.45 466.3 284.55 467.1 284.85 467.25 285.25 467.35 287.2 467.9 289.9 467.8 291 467.75 294.6 467.35 298.8 466.85 299.2 466.8 301.8 466.4 303.55 465.55 304 465.35 305.45 464.55 306.6 463.95 307.35 463.65 307.85 463.45 309.45 463.15 309.5 462.5 309.75 461.9 309.9 461.55 310.15 461.3 310.2 459.5 310.85 458.55 311.5 457.55 312.8 457.2 314.05 456.9 315.2 457.35 315.3 457.4 315.45 457.5 316.1 456.95 317.1 456.7 317.85 456.5 318.5 456.45 318.5 456.3 318.5 456.2 318.65 455.15 319.5 454.1 321.25 451.7 323.4 451 323.9 450.85 324.4 450.8 324.15 449.65 324.55 448.05 324.8 447 325.25 446.45 325.75 445.8 327.05 445
L 328.6 444.05
Q 328.9 443.4 329.3 442.9 330.45 441.6 332.05 441.5 333.35 441.45 334.7 442.2
L 334.75 442.25
Q 335.9 442.2 336.7 442.4 336.95 441.85 337.05 441.3 337.5 439.35 336.7 437.5 336.6 437.3 336.55 437.15 335.7 435.5 334.05 435.05 332.7 434.65 330.95 435.2 330.2 435.45 328 436.5 324.05 438.4 321.95 436.7 320.8 435.1 319.9 434.75 318.8 434.25 317.05 435.45 314.9 436.9 314.1 437.05 312.55 437.3 310.2 435.35 307.7 433.3 306.25 433.3 305.2 433.3 303.85 434.15 302.35 435.15 301.55 435.55
M 542.45 430.8
L 542.4 430.8
Q 540.1 430.4 537.4 431.7 536.55 432.1 535.15 432.95 533.55 433.9 532.95 434.25 530.85 435.4 529.45 435.15 528.9 435.05 527.85 434.55 526.8 434.1 526.2 434 523.5 433.6 521 437.9 519.9 439.9 519.05 440.85 517.75 442.3 516.2 442.4 515.1 442.45 513 441.45 510.9 440.45 509.8 440.55 508.25 440.7 506.85 442.3 506.75 442.4 504.75 445.4 503.5 447.25 501.85 448.2 499.95 449.3 498.15 448.75 497.45 448.55 496.1 447.75 494.8 447.05 494 446.9 491.6 446.5 489.25 449.05 488.85 449.5 487.55 451.15 486.5 452.45 485.75 453.15 483.5 455.1 479.8 455.45 477.15 455.7 473.1 455.1 471.2 454.85 470.35 454.85 468.85 454.85 467.8 455.45 466.55 456.15 466 457.6 465.7 458.5 465.8 459.35 465.65 459.45 465.55 459.6 465.95 459.7 466.4 459.95 467.15 459.65 467.9 459.85 468.5 460 469.4 460.55 470.4 461.25 470.85 461.4 471.25 461.55 472.1 461.75 472.9 461.9 473.3 462.1 474.2 462.5 474.7 463.4 475.15 464.25 475.05 465.25 475.05 465.7 474.9 466.15 478.75 467.75 482.45 468.9 482.7 468.55 483.1 468.3 483.9 467.75 485 467.9 486 468.05 486.75 468.8 487.25 469.3 487.55 470.05 487.6 470.15 487.65 470.25 489.3 470.6 490.9 470.85 494.95 471.45 498.75 471.4 506.05 471.3 512.5 468.85 513.45 468.5 514.5 468.05 518 466.4 522.1 463.75 525.15 461.8 531.1 457.6 534.05 455.55 534.95 454.85 537.05 453.2 538.35 451.6 539.6 450 540.65 447.7 541.35 446.25 542.3 443.45 542.95 441.5 543.15 440.5 543.45 438.85 543.05 437.55 544.3 437.65 545.25 436.55 546.15 435.45 545.95 434.15 545.75 432.9 544.7 431.95 543.7 431.05 542.45 430.8 Z"/>

<path fill="#00CCFF" stroke="none" d="
M 556 542.8
Q 555.95 542.85 555.95 542.9 555.35 545.8 554.65 547.9 553.9 549.9 552.95 550.85
L 552.9 550.9
Q 553.95 550.7 554.9 549.75 556.25 548.4 556.45 546.5 556.6 545 556.05 543 556.05 542.95 556 542.8
M 554.2 506.35
Q 554.2 505.1 554.2 503.75 554 504.5 553.75 505.5 552.5 510.3 552.5 513.1 552.45 516.15 553.45 520.75
L 553.75 522.05
Q 554.2 519.1 554.35 517.4 554.55 515.1 554.45 511.85 554.25 508.2 554.2 506.35
M 552.5 533.95
L 552.3 533.95 552.3 538.25
Q 552.3 538.65 552.5 538.7 552.7 538.35 552.7 537.5
L 552.65 534.7 552.5 533.95
M 546.05 424.55
Q 544.55 424.95 543.65 427.45 543.1 428.85 542.45 430.8 543.7 431.05 544.7 431.95 545.75 432.9 545.95 434.15 546.15 435.45 545.25 436.55 544.3 437.65 543.05 437.55 543.45 438.85 543.15 440.5 542.95 441.5 542.3 443.45 541.35 446.25 540.65 447.7 539.6 450 538.35 451.6 537.05 453.2 534.95 454.85 534.05 455.55 531.1 457.6 525.15 461.8 522.1 463.75 518 466.4 514.5 468.05 514.7 468.85 515.75 469.15 516.7 469.4 517.95 469.2 520.9 468.7 526.4 466.3 526.7 466.15 526.95 466.05 527.05 467.05 527.55 467.9 528.05 468.8 528.9 469.1 530.55 469.8 533.2 468.15 534.85 467.3 535.5 466.45
L 536.45 464.9
Q 536.85 464.35 537.75 463.25 538.35 462.35 538.45 461.4
L 547.15 467.5
Q 549.2 468.95 549.8 470 550.35 471.05 550.55 473.45 551.35 483.9 551.4 485.5 551.75 492.3 551.3 497.5 551.3 497.8 551.2 498.45
L 551.35 497.8
Q 551.65 496.4 552.3 496.1 553.2 495.6 554.05 496.55 554.35 496.95 554.55 497.5 554.75 495.15 555.05 492.45 556.35 481.55 556.5 478.6 556.9 471.1 555.3 466.7 554.7 464.95 553.7 463.35 553.15 462.45 552.2 461.2 551.15 459.8 550.6 459.05 549.05 456.8 546.85 452.5 546.05 450.9 545.4 449.65 545.95 448.5 546.3 448.3 546.7 448 547.75 447.9 551.7 447.6 553.15 446 554.25 444.8 554.25 443.05 554.25 441.3 553.2 440.05 552.3 439.1 551.05 438.7 551.85 437.75 552.5 436.5 553.7 434.1 553.9 431.3 554 429.25 553.25 428.2 552.85 427.65 551.45 426.8 548.9 425.2 548.5 425 547.5 424.5 546.75 424.5 546.35 424.45 546.05 424.55 Z"/>
</g>
</defs>

<g transform="matrix( 1, 0, 0, 1, 134.1,27.2) ">
<g transform="matrix( 1, 0, 0, 1, 0,0) ">
<use xlink:href="#Alone_0_Layer2_0_FILL"/>
</g>

<g transform="matrix( 1, 0, 0, 1, 0,0) ">
<use xlink:href="#Alone_0_Layer1_0_FILL"/>
</g>

<g transform="matrix( 1, 0, 0, 1, 0,0) ">
<use xlink:href="#Alone_0_Layer0_0_FILL"/>
</g>
</g>
</svg>
