
<svg xmlns="http://www.w3.org/2000/svg" version="1.1" xmlns:xlink="http://www.w3.org/1999/xlink" preserveAspectRatio="none" x="0px" y="0px" width="1080px" height="1080px" viewBox="0 0 1080 1080">
<defs>
<g id="sexy_monkey_0_Layer4_0_FILL">
<path fill="#727282" stroke="none" d="
M 118.45 252.6
Q 102.3 268.6 93.05 289.1 83.5 310.3 83.3 332.2 83.2 346.65 87.45 356.6 89.25 360.75 92.25 365.4 94.25 368.4 98.1 373.55 103.9 381.4 107.55 385.15 113.35 391.15 119.35 393.8 124.8 396.25 125.85 396.9 131.65 387.25 137.4 376.85 149.75 354.4 164.4 323.5 185.95 278.05 198.25 244.95 203.5 230.75 206.7 219.05 205.7 219.55 204.65 219.8 201.55 220.5 198.85 218.2 196.1 215.9 197 213 174.45 217.2 154.7 227 133.95 237.25 118.45 252.6
M 465 259.5
Q 444.8 260.55 415.45 265.7 382.3 272 365.7 274.7 336.9 279.45 315.7 279.95 298.45 279.9 289.95 280.4 275.2 281.25 265.05 285.2 245.95 292.65 235.1 312.4 224.55 331.65 226.9 352.75 228.25 364.75 234.05 379.05 236.95 386.15 245.85 404.2 253.6 420 256.9 429.4 261.8 443.5 261.9 455.8 262 466.3 258.6 478.5 256.1 487.45 250.75 500.25 244.7 514.75 232.75 539.95 219.5 567.95 214.45 579.6 194 626.4 189.75 661.95 188.7 670.8 188.9 677.45 189.1 685.8 191.15 692.6 193.9 701.55 200.75 710.75 205.6 717.25 214.6 726.3 230.75 742.5 245.5 754.4 262.8 768.3 279.95 777.8 306.55 792.5 344.15 802.4 353.15 804.75 359.5 805.95 367.9 807.55 375.05 807.85 382.55 808.2 392 807.25 397.5 806.7 408.9 805
L 486.45 793.45
Q 493.65 792.35 497.2 791.45 503.05 789.95 507.15 787.5 509.4 786.15 512.5 783.6 517.05 779.9 517.6 779.45 521.9 776.2 528.05 773.25 531.6 771.5 539.3 768.35 559.05 760.25 568.65 755.6 584.6 747.85 595.85 739.25 621.45 719.7 635.45 687.85 648.85 657.4 648.45 623.5 648.15 597.25 639.7 573.15 630.9 548 614.55 529.05 603.9 517.7 598.65 512 589.3 501.85 584.95 493.5 577.95 480.05 577.35 461.1 576.95 449 579.6 426.85
L 587.1 364.95
Q 588.8 350.45 589.05 343.2 589.4 331.05 587.1 321.7 581.55 298.9 559.9 282.6 540.45 267.95 514.25 262.6 491.85 258.05 465 259.5
M 648.2 251.5
Q 657.6 271.8 660.2 277.85 667.25 294.4 679.9 328.2 691.95 357.55 705.4 375.2 706.1 376.1 706.9 377.15 707.8 375.9 709.3 375.15 711.2 374.2 714.9 374.2 719.15 374.2 720.7 373.75 722.55 373.25 724.5 371.85 725.7 371 727.8 369.1 736.15 361.55 740.05 357 746.3 349.75 748.75 342.55 753.3 329.55 747.95 312.4 746.05 306.35 742.3 298.15 737.9 288.9 735.8 284.25 730.1 270.7 727.05 264.1 721.7 252.55 716.05 245.25 703.55 229.2 677.8 217.75 651.8 206.3 630.85 207.4 634.1 217.75 636.8 225 640.7 235.25 648.2 251.5 Z"/>

<path fill="#04071A" stroke="none" d="
M 663.65 331.05
Q 655.6 309.3 651.15 298.6 647.3 289.3 636 265.3 626.15 244.35 621.45 231.7 617.25 220.4 612.15 202.9 604 174.75 603.7 173.75 592.05 135.7 575.8 108.2 556.25 75.05 529.5 55.85 511.4 42.9 487.2 34.35 467 27.2 440.8 22.6 414.3 17.95 391.9 17.55 365.75 17.1 343.35 22.4 318.45 28.25 298.15 41.4 276.4 55.45 263.7 75.5 253.6 91.55 247.7 114.5 246.2 120.45 244.6 128.75 244.6 128.85 244.55 129 243.1 136.6 241.6 146.2 240.7 147.55 239.75 149 215.65 246.35 190.05 307.8 156.2 389 103.15 457.9 94.8 468.75 77.35 490.45 61.8 510.1 52.5 523.75 25.8 562.8 19.2 597.4 13.55 627 20.55 659.15 27.05 688.95 43.45 717.15 58.15 742.3 81 766.7 100.15 787.15 126.95 809 234.75 896.95 332.25 894 346.7 893.55 370.15 890.3 399.3 886.25 408.05 885.45 419.55 884.45 439.35 883.8 462.1 883.1 470.65 882.55 488.7 881.4 510.95 878.2 524.85 876.2 551 871.75
L 645.1 855.85
Q 645.75 855.75 646.4 855.65 688.55 823.95 725.05 785.3 762.85 745.15 792.9 699.2 800.7 687.25 804.95 678.85 810.75 667.35 813 656.85 816.35 641.4 813.15 622.45 810.75 608.5 803.85 588.65 795.05 563.45 781.6 532.8 773.65 514.65 756.45 478.15 748.9 462.1 744.65 453.9 737.75 440.6 731 430.65 724.05 420.3 704.15 396.85 686.3 375.85 678.35 362.4 671.2 350.25 663.65 331.05
M 664.25 613.3
Q 666.2 638.75 661.45 662.45 656.5 687.1 644.35 708.65 631.75 730.9 613.25 746.7 602.45 755.9 586.2 765.45 584.9 766.2 557.25 781.45 534.5 794.05 530.5 796.15 515.05 804 502.45 807.8 489.85 811.55 470.2 813.9 438.65 817.6 437.45 817.8 420.15 821 411.55 822.6 396 825.45 385.45 825.85 365.65 826.6 340.95 820.3 303.4 810.75 267.8 789.55 234.35 769.6 204.85 740.7 194 730.1 187.6 721.5 179.15 710.2 175.5 699.05 170.2 683 172.7 659.65 176.65 623.1 198.55 573.85 202.15 565.75 217.8 532.55 229.8 507.25 236.25 491 239.65 482.5 241.35 476.6 243.7 468.55 244.25 461.6 245.2 449.2 240.8 435.15 237.7 425.15 230.15 409.8 219.9 388.9 218 384.55 211.75 370.05 210.05 358.25 207.7 341.95 212.45 324.6 216.9 308.45 226.8 293.6 237.85 277.1 250.8 270.35 260.75 265.2 275.55 264 278.1 263.8 301.75 263.45 323.2 263.2 351 259 359.75 257.7 399.95 250.5 429.9 245.15 448.85 243.3 475.7 240.7 497.95 242.8 534.75 246.2 560.85 262.35 575.45 271.35 585.9 284.05 596.95 297.45 601.65 312.95 605.8 326.6 605.55 344.4 605.4 355.5 602.95 376.45
L 595.65 439.25
Q 593.85 454.65 594.1 463.1 594.5 476.3 599.3 485.75 603.25 493.5 612.6 502.5 617.85 507.5 628.45 517.5 644.6 534.7 654.5 564.9 662.4 589 664.25 613.3 Z"/>
</g>

<g id="sexy_monkey_0_Layer3_0_FILL">
<path fill="#FFFFFF" stroke="none" d="
M 630.15 419.5
Q 629.9 419.7 629.55 419.7 627.75 419.5 625.9 420.3 624.1 421.05 622.8 422.5 620.25 425.2 619.9 429.4 619.5 433.85 621.7 437.3 622.8 439.05 624.5 440.3 626.25 441.55 628.25 441.9 630.9 442.4 633.55 441.3 636.15 440.25 637.9 438.15 639.9 435.7 640.4 432.5 640.9 429.25 639.75 426.35 638.6 423.45 636 421.45 633.4 419.5 630.25 419.1 630.45 419.3 630.15 419.5
M 401.5 45.15
Q 401 41.25 397.65 37.6 394.5 34.2 390.05 33 385.3 31.8 381.55 33.8 378.3 35.55 376.9 39.25 375.45 42.9 376.65 46.35 378.15 50.6 383.1 53.7 386.15 55.65 389.3 56.25 392.85 56.95 395.75 55.7 398.7 54.45 400.3 51.4 401.9 48.4 401.5 45.15
M 409.6 65.65
Q 407.35 66.35 405.65 68.1 403.95 69.85 403.25 72.15 402.55 74.55 403 77.2 403.55 80.45 405.6 83.15 407.75 85.85 410.75 86.95 413.85 88.1 417.2 87.25 420.6 86.4 422.65 83.9 424.1 82.1 424.65 79.75 425.2 77.4 424.7 75.1 423.8 70.4 419.65 67.5 417.45 65.9 414.8 65.4 412.05 64.85 409.6 65.65
M 497.8 58.1
Q 497.35 57.7 492.9 53.75 486.45 48.1 484.05 46.3 479.6 43.1 474.4 40.45 463.5 34.9 452.85 33 445.6 31.65 441.55 33.5 440.1 34.2 438.25 35.7
L 435.1 38.15
Q 432.65 39.8 431.5 40.7 429.5 42.2 428.55 43.75 427.35 45.75 427.45 48.3 427.55 50.7 428.65 53 430.2 56.2 434.8 60.3 437.5 62.65 442.6 66.65 448.2 71 450.5 72.95 454.8 76.6 460 81.75 462 83.7 469.1 91 478.8 100.7 484.45 105.3 489 109 492.7 111.05 497.45 113.65 502 114.35 507.2 115.1 511.9 113.15 516.95 111.1 519.1 106.8 521.1 102.85 520.55 97 519.9 90.85 516.6 84.05 514.3 79.35 509.5 72.2 505.25 65.95 502.4 62.75 500.55 60.65 497.8 58.1
M 736.55 560.8
Q 735.75 562.9 736.35 564.9 736.9 566.65 738.3 567.9 740.5 569.75 743.35 569.45 745.75 569.1 747.4 567.1 749.05 565.1 748.9 562.65 748.75 560.25 746.9 558.45 745.05 556.6 742.65 556.5
L 742.65 556.9
Q 741.1 556.75 739.65 557.4 738.15 558.1 737.25 559.35 736.75 560.05 736.55 560.8
M 706.6 534.45
Q 705.25 537.25 706.1 540.45 706.9 543.65 709.45 545.35 711.1 546.4 713.05 546.7 715.55 547.1 717.95 546.35 720.5 545.6 722.1 543.75 723.8 541.75 724.05 539 724.25 536.25 722.95 534 721.65 531.75 719.15 530.6 716.65 529.45 714.1 529.85 713.95 530.15 713.15 530.15 711.15 530 709.3 531.25 707.55 532.5 706.6 534.45
M 686.3 413.7
Q 682.9 407.55 680.85 405.1 678.1 401.8 674.5 399.85 670.6 397.75 666.6 397.8 662.4 397.85 658.85 400.4 655.25 403.1 654.4 407.05 653.85 409.55 654.75 414.7 657.7 431.15 665.35 459.85 668.2 470.05 669.95 474.25 672.45 480.25 676.8 487.1 679.55 491.35 685.15 499.05 687.55 502.35 688.9 503.95 691.05 506.55 693.2 508.3 698.7 512.85 704.5 512.35 708.2 512.05 711.5 509.55 714.55 507.2 716.4 503.6 719.3 497.95 719.2 488.6 719.05 476.4 714.8 466.65 713.5 463.6 709.3 456.3
L 686.3 413.7
M 649.9 382.95
Q 650.45 379.7 649.35 376.8 648.2 373.85 645.55 371.9 642.85 369.95 639.75 369.85 637.45 369.8 635.35 370.8 633.2 371.8 631.8 373.6 630.25 375.5 629.55 378.55 629 381.45 629.75 384.25 630.5 387.2 632.4 389.25 634.4 391.4 637.3 392.15 640.25 392.95 642.9 391.95 645.4 391 647.35 388.6 649.35 386.15 649.9 382.95 Z"/>

<path fill="#B6B6CF" stroke="none" d="
M 268.35 276.35
Q 257.05 279.35 247.85 289.15 239.75 297.7 234.35 310.15 226.9 327.05 225.6 345.85 224.25 364.65 229.25 382.4 231.75 391.4 239.45 409.4 246.95 426.9 249.45 436.45 256.75 464.35 248.85 498.3 242.8 524.25 226.45 558.05 221.85 567.55 212.35 586.55 203.95 603.6 198.95 615.4 184.8 648.7 182.5 675.8 181.05 692.25 185.35 702.45 187.6 707.8 192 713.25 195.25 717.2 200.8 722.55 226 746.6 263.6 768.7 286.55 782.2 333.3 805.05 345.65 811.2 350.95 805.9 351.9 804.95 352.45 803.75 355.4 804.35 359.15 805.15 369.8 807.35 376.85 807.75 381.45 808 390.7 807.6
L 411.65 806.7
Q 425.4 806.1 432.05 804.85 434.3 804.45 438.8 803.55 442.7 802.85 445.55 802.9 446.9 802.95 451.6 803.55 455.3 804 457.6 803.75 461.75 803.3 465.05 800.6 468.45 797.8 469.35 793.85 470.3 789.8 468.1 785.95 465.9 782.05 461.95 781.1 460.1 780.7 457.55 780.9 454.55 781.3 453.05 781.45 450.95 781.65 447.05 781.6 442.85 781.55 441 781.65 438.15 781.8 433.95 782.55 427.05 783.75 426.95 783.75 421.25 784.6 411.1 785.1 400.75 785.7 395.15 785.95 385.65 786.45 380.9 786.3 374.8 786.05 367.2 784.75 362.9 784 353.65 782 348.1 780.8 345.45 780.05 340.9 778.8 337.55 777.15 335.2 775.95 334 775.35 331.95 774.4 330.3 774.15 326.8 773.6 323.6 775.75 317.3 772.5 309.5 768.5 289.15 758.15 278.65 752.35 243.3 732.8 222.45 712.7 218 708.4 215.5 705.1 212.15 700.6 210.8 696.1 209.8 692.7 209.75 688.25 209.7 685.4 210.15 680.2 211.75 660.1 213.35 649.55 216 632.65 221 619.9 224.75 610.35 232.9 596.3 243.9 577.3 245.95 573.25 252.15 561.15 257.4 546.2 261.6 534.25 265.95 518.1 272.25 494.8 274.15 478.65 276.65 456.75 272.6 439 270.6 430.2 266.1 419 265.7 417.95 257.8 399.5 247.35 375.2 246.55 359.5 245.75 343.45 253.15 321.75 255.75 314.1 258.65 309.45 262.55 303.2 267.95 300.55 271.6 298.8 279.95 296.6 286.95 294.25 288.6 289.65 289.8 286.2 288 282.55 286.3 279 282.9 277.2 277 274.1 268.35 276.35
M 153.35 217.1
Q 149.4 219.7 147.4 220.9 144.7 222.55 139.9 225.05 134.4 227.95 132.35 229.1 118.45 237.3 108.95 250.3 101.55 260.45 96.05 275.15 92.8 284 87.8 302.2
L 83.4 318.3
Q 82 323.4 81.5 326.1 80.6 330.45 80.6 334 80.55 337.85 81.6 342.6 82.15 345.35 83.8 351 86.75 361.3 89.3 366.25 93.35 374.05 101.05 380.8 107.35 386.35 116.65 391.7 122.15 394.95 125.9 395.55 128.55 396 130.95 395.4 133.6 394.7 135.25 392.95 138.35 389.7 137.2 384.5 136.15 379.7 132.35 376.35 129.85 374.1 124.55 371.15 118.8 367.95 116.55 366.15 109.05 360.15 105.05 347.9 102.5 340.05 103.1 334.05 103.35 331.1 104.5 327.55 105.15 325.45 106.8 321.3
L 113 305.6
Q 117.25 294.85 119.8 289.6 124 280.85 128.75 274.8 131.3 271.55 137.7 264.85 143.7 258.55 146.5 254.75 150.2 249.2 152.25 246.6 155.8 242.15 159.65 240.6 159.9 244.3 164 246.15 167.85 247.85 171.85 246.7 174.55 245.9 178.95 243.35 183.7 240.55 185.9 239.75 188.7 238.7 193.05 238.15 195.45 237.85 200.35 237.25 206.55 236.15 209.95 233.35 211.6 231.9 212.6 230.1 214.6 226.55 213.55 222.05 213.4 221.4 213.2 220.8 212 217.35 209.35 214.7 204.3 209.85 194.1 208 183.25 206.05 175.85 208.8 174.9 209.15 172.45 210.3 170.3 211.3 169 211.75 167.45 212.25 164.35 212.9 161.15 213.55 159.7 214 156.9 214.9 153.35 217.1 Z"/>

<path fill="#10194D" stroke="none" d="
M 356.15 34.1
Q 359.4 30.2 359.6 25.05 359.75 19.65 356.15 16.7 349.7 11.55 336.6 18.9 311.1 33.3 288.35 51.35 291.6 45.45 289.15 38.6 286.6 31.55 280.35 31.5 272.85 31.45 266.7 43.75 254.35 68.7 244.15 101.95 237.9 122.2 227.85 162.5
L 218.7 199.05
Q 215.65 211.25 213.2 220.8 213.4 221.4 213.55 222.05 214.6 226.55 212.6 230.1 211.6 231.9 209.95 233.35 208.65 238.25 207.6 242.05 201.1 265.9 194.8 284.55 188.5 303.15 179.2 325.9 173.5 339.75 161.85 366.6 153.8 385.15 148.2 394.35 139.25 409 128.05 416.9 124.65 419.2 124.2 419.55 122.1 421.2 120.9 422.8 119.25 425 118.25 428.65 117.7 430.75 116.7 435.05 114 444.65 103.75 456.1 100.9 459.3 95.05 465.5 89.9 471.1 86.9 475.3 85.35 477.5 84.35 479.8 81.5 480.6 78.9 483.1 76.65 485.2 73.75 489.5 50.7 523.9 31.1 559.9 27.9 557.25 23.2 558.6 18.75 559.9 16.3 563.7 14.2 566.9 13.45 571.65 12.95 574.75 12.9 580.35 12.55 600.15 12.75 610.55 13.05 627.3 14.6 640.65 16.45 656.6 20.25 671.25 24.15 686.8 30.2 700.95 37.7 718.4 52.55 741.3 65.7 761.6 77.55 776 92.15 793.75 107.5 806.15 119.4 815.75 135.9 825.45 145.8 831.2 166.15 841.85
L 230.55 875.3
Q 239.15 879.8 243.55 881.9 250.8 885.35 256.95 887.45 271.05 892.3 292.15 894.35 304.8 895.6 320.65 896.15 330.15 896.5 349.15 896.8 371.05 897.15 382.2 896.5 400.5 895.45 414.6 891.5 417.65 890.65 419.5 889.65 422.05 888.35 423.35 886.4 425.85 882.7 423.6 877.9 421.5 873.35 417 871.4 413.3 869.75 408.05 869.7 406.25 869.65 398.65 870.15 389.35 870.7 377.75 869.7 370.7 869.1 356.9 867.25
L 268.8 855.45
Q 254.2 853.5 246.75 852.15 234.55 849.9 225.15 846.75 209.6 841.5 192.2 830.6 181.6 823.9 161.95 809.3 134.6 788.9 121.7 778.05 100 759.8 85.55 742.4 68.25 721.6 58.8 699.05 48.3 674.05 48.65 649.8 48.8 643.8 48.75 642.65 48.65 638.6 47.75 635.65 46.7 632.05 44.2 629.5 41.45 626.7 38.1 626.4 46 619.15 49.75 605.2 51.05 600.35 52.4 592.75 54.55 580.55 54.6 580.2 58 562.85 65.8 546.75 73.6 530.7 85.05 517.3 91.65 509.6 93.05 507.65 96.9 502.3 98.1 497.35 102.25 494.8 106.5 489.5 173.95 405.65 219 307.6 226.4 291.55 230.8 279.75 236.5 264.35 239.25 250.8 241.5 239.6 242.8 223.25 244.05 204.65 244.8 195.45 247.65 161.8 257.25 142.45 259.8 137.25 265.15 128.85 271.25 119.15 273.3 115.35 275.15 112 282.1 97.15 287.4 85.9 291.85 79.45 306.6 58.2 339.75 44.05 346.3 41.25 348.65 40 353.4 37.35 356.15 34.1 Z"/>

<path fill="#3D3D47" stroke="none" d="
M 671.4 292.35
Q 666.55 285.5 664.5 282.25 660.9 276.45 658.95 271.45 657.2 266.9 655.15 257.6
L 646 216.95
Q 645.3 213.85 644.75 212.15 643.8 209.6 642.4 207.9 640.8 206.05 638.4 205.1 636 204.15 633.55 204.4 631.1 204.7 629 206.15 626.9 207.6 625.75 209.8 624.3 212.6 624.45 216.6 624.55 219.15 625.6 223.65
L 633.5 258.75
Q 634.1 259 634.85 259.85 637.75 263.35 639.7 266.65 640.65 268.1 641.45 269.8 643.45 273.8 645.95 281.3
L 647.8 286.75
Q 648.7 289.45 649.4 290.95
L 651.05 294.25
Q 651.8 295.9 652.45 298
L 655.4 306.45
Q 655.85 307.1 656.35 307.75 662.8 316.2 669.75 322.15 670.75 323.05 672.75 324.8 674.45 326.3 675.4 327.7 676.35 329.1 677.25 331.15 677.4 331.5 678.7 334.85 679.9 337.7 682.6 343.05 685.35 348.45 686.5 351.2 687.7 354 689.8 359.7 691.8 364.7 693.95 367.75 697.25 372.3 704.8 377.5 708.15 379.8 710.4 380.8 713.7 382.25 716.6 382 719.1 381.8 721.3 380.4 723.45 379.05 724.7 376.85 725.9 374.65 725.9 372.05 725.9 369.45 724.75 367.25 723.35 364.6 719.4 361.75 714.4 358.1 713.2 356.85 711.5 355.05 710.05 352.3 709.15 350.6 707.7 347.2
L 698.5 325.5
Q 696.65 321.2 695.8 319.5 694.1 316.2 692.3 313.95 690.25 311.45 686.2 308.1 681.1 303.9 679.75 302.6 677.65 300.6 675.35 297.65 674.45 296.5 671.4 292.35 Z"/>
</g>

<g id="sexy_monkey_0_Layer2_0_FILL">
<path fill="#000000" stroke="none" d="
M 739.95 258.75
Q 736.8 251.75 734.9 248.1 731.9 242.3 728.7 238.1 724.45 232.5 717.05 226.25 697.6 209.65 673.85 200.8 650.25 191.95 626.35 192.3 626.15 191.45 625.9 190.65 618.7 165.15 615.65 156 604.75 123.45 586.85 93.8 577.3 78 567.4 66.15 555.85 52.35 543.1 42.85 531.45 34.2 516.3 27.3 503.65 21.55 487.1 16.4 456.9 7 425.15 2.75 387.3 -2.35 355.35 2.05 318.2 7.2 290.85 24.95 259.35 45.4 245.2 70.65 231.05 95.85 229.05 107.85 227 119.85 225.25 125.9 223.5 131.9 221.5 141.95 219.5 151.95 215.85 162.35 212.2 172.75 211.4 192.3 211.2 195.95 210.65 200.1 208.05 198.1 203.2 197.8 196.65 197.45 186.05 200.2 167.1 205.15 150.25 213.5 132.6 222.25 118.25 234.2 103.3 246.65 92.35 262.2 81.05 278.3 75.2 296.2 69.5 313.6 69.1 332.05 68.95 343.8 71.1 352.15 73.35 360.95 79.05 370.5 83.05 377.2 90.65 387.05 96.95 395.2 101.4 399.45 107.95 405.75 114.75 408.4 116.45 409.05 118.05 409.4 111.95 418.85 105.8 427.45 95.9 441.25 76 465.95 54.7 492.3 45.85 504.35 12.15 550.1 3.6 589.1 -2.35 616.25 1.55 645.9 5.2 673.75 17.1 700.9 37.75 747.95 83.55 793.3 117.5 826.95 157.95 853 198.4 879.05 243.05 896.05 257.4 901.5 269.2 904.85 283.35 908.85 296.1 910.45 318.15 913.2 349.5 909.95 367.3 908.1 402.95 903.55 416.95 902.2 445 900.9 473.05 899.55 487 898.2 504.85 896.45 537.55 891.3
L 636.9 875.7
Q 639.45 877.8 644.05 876.9 649.15 875.9 654.3 872 722.8 819.6 786.6 738.9 807.7 712.25 817.9 692.35 831.9 664.95 831.85 639.8 831.85 628.45 828.9 615.3 826.7 605.3 822.05 591.4 812.5 562.7 797.4 528.15 788.25 507.25 768.9 466.45 760.2 448.15 755.35 439.25 747.3 424.45 739.05 413.8 733.95 407.2 722.2 394.55 720.85 393.05 719.55 391.7 722.2 391.25 724.8 389.95 728 388.35 731.65 385.15 731.7 385.1 737.85 379.35 740.9 376.45 747.15 370.75 752.5 365.65 755.5 361.3 762 351.85 764.05 337.6 765.65 326.05 763.85 316.65 762.8 311.1 760.3 304.55 758.8 300.6 755.35 292.85
L 739.95 258.75
M 660.2 277.85
Q 657.6 271.8 648.2 251.5 640.7 235.25 636.8 225 634.1 217.75 630.85 207.4 651.8 206.3 677.8 217.75 703.55 229.2 716.05 245.25 721.7 252.55 727.05 264.1 730.1 270.7 735.8 284.25 737.9 288.9 742.3 298.15 746.05 306.35 747.95 312.4 753.3 329.55 748.75 342.55 746.3 349.75 740.05 357 736.15 361.55 727.8 369.1 725.7 371 724.5 371.85 722.55 373.25 720.7 373.75 719.15 374.2 714.9 374.2 711.2 374.2 709.3 375.15 707.8 375.9 706.9 377.15 706.1 376.1 705.4 375.2 691.95 357.55 679.9 328.2 667.25 294.4 660.2 277.85
M 651.15 298.6
Q 655.6 309.3 663.65 331.05 671.2 350.25 678.35 362.4 686.3 375.85 704.15 396.85 724.05 420.3 731 430.65 737.75 440.6 744.65 453.9 748.9 462.1 756.45 478.15 773.65 514.65 781.6 532.8 795.05 563.45 803.85 588.65 810.75 608.5 813.15 622.45 816.35 641.4 813 656.85 810.75 667.35 804.95 678.85 800.7 687.25 792.9 699.2 762.85 745.15 725.05 785.3 688.55 823.95 646.4 855.65 645.75 855.75 645.1 855.85
L 551 871.75
Q 524.85 876.2 510.95 878.2 488.7 881.4 470.65 882.55 462.1 883.1 439.35 883.8 419.55 884.45 408.05 885.45 399.3 886.25 370.15 890.3 346.7 893.55 332.25 894 234.75 896.95 126.95 809 100.15 787.15 81 766.7 58.15 742.3 43.45 717.15 27.05 688.95 20.55 659.15 13.55 627 19.2 597.4 25.8 562.8 52.5 523.75 61.8 510.1 77.35 490.45 94.8 468.75 103.15 457.9 156.2 389 190.05 307.8 215.65 246.35 239.75 149 240.7 147.55 241.6 146.2 243.1 136.6 244.55 129 244.6 128.85 244.6 128.75 246.2 120.45 247.7 114.5 253.6 91.55 263.7 75.5 276.4 55.45 298.15 41.4 318.45 28.25 343.35 22.4 365.75 17.1 391.9 17.55 414.3 17.95 440.8 22.6 467 27.2 487.2 34.35 511.4 42.9 529.5 55.85 556.25 75.05 575.8 108.2 592.05 135.7 603.7 173.75 604 174.75 612.15 202.9 617.25 220.4 621.45 231.7 626.15 244.35 636 265.3 647.3 289.3 651.15 298.6
M 93.05 289.1
Q 102.3 268.6 118.45 252.6 133.95 237.25 154.7 227 174.45 217.2 197 213 196.1 215.9 198.85 218.2 201.55 220.5 204.65 219.8 205.7 219.55 206.7 219.05 203.5 230.75 198.25 244.95 185.95 278.05 164.4 323.5 149.75 354.4 137.4 376.85 131.65 387.25 125.85 396.9 124.8 396.25 119.35 393.8 113.35 391.15 107.55 385.15 103.9 381.4 98.1 373.55 94.25 368.4 92.25 365.4 89.25 360.75 87.45 356.6 83.2 346.65 83.3 332.2 83.5 310.3 93.05 289.1
M 661.45 662.45
Q 666.2 638.75 664.25 613.3 662.4 589 654.5 564.9 644.6 534.7 628.45 517.5 617.85 507.5 612.6 502.5 603.25 493.5 599.3 485.75 594.5 476.3 594.1 463.1 593.85 454.65 595.65 439.25
L 602.95 376.45
Q 605.4 355.5 605.55 344.4 605.8 326.6 601.65 312.95 596.95 297.45 585.9 284.05 575.45 271.35 560.85 262.35 534.75 246.2 497.95 242.8 475.7 240.7 448.85 243.3 429.9 245.15 399.95 250.5 359.75 257.7 351 259 323.2 263.2 301.75 263.45 278.1 263.8 275.55 264 260.75 265.2 250.8 270.35 237.85 277.1 226.8 293.6 216.9 308.45 212.45 324.6 207.7 341.95 210.05 358.25 211.75 370.05 218 384.55 219.9 388.9 230.15 409.8 237.7 425.15 240.8 435.15 245.2 449.2 244.25 461.6 243.7 468.55 241.35 476.6 239.65 482.5 236.25 491 229.8 507.25 217.8 532.55 202.15 565.75 198.55 573.85 176.65 623.1 172.7 659.65 170.2 683 175.5 699.05 179.15 710.2 187.6 721.5 194 730.1 204.85 740.7 234.35 769.6 267.8 789.55 303.4 810.75 340.95 820.3 365.65 826.6 385.45 825.85 396 825.45 411.55 822.6 420.15 821 437.45 817.8 438.65 817.6 470.2 813.9 489.85 811.55 502.45 807.8 515.05 804 530.5 796.15 534.5 794.05 557.25 781.45 584.9 766.2 586.2 765.45 602.45 755.9 613.25 746.7 631.75 730.9 644.35 708.65 656.5 687.1 661.45 662.45
M 415.45 265.7
Q 444.8 260.55 465 259.5 491.85 258.05 514.25 262.6 540.45 267.95 559.9 282.6 581.55 298.9 587.1 321.7 589.4 331.05 589.05 343.2 588.8 350.45 587.1 364.95
L 579.6 426.85
Q 576.95 449 577.35 461.1 577.95 480.05 584.95 493.5 589.3 501.85 598.65 512 603.9 517.7 614.55 529.05 630.9 548 639.7 573.15 648.15 597.25 648.45 623.5 648.85 657.4 635.45 687.85 621.45 719.7 595.85 739.25 584.6 747.85 568.65 755.6 559.05 760.25 539.3 768.35 531.6 771.5 528.05 773.25 521.9 776.2 517.6 779.45 517.05 779.9 512.5 783.6 509.4 786.15 507.15 787.5 503.05 789.95 497.2 791.45 493.65 792.35 486.45 793.45
L 408.9 805
Q 397.5 806.7 392 807.25 382.55 808.2 375.05 807.85 367.9 807.55 359.5 805.95 353.15 804.75 344.15 802.4 306.55 792.5 279.95 777.8 262.8 768.3 245.5 754.4 230.75 742.5 214.6 726.3 205.6 717.25 200.75 710.75 193.9 701.55 191.15 692.6 189.1 685.8 188.9 677.45 188.7 670.8 189.75 661.95 194 626.4 214.45 579.6 219.5 567.95 232.75 539.95 244.7 514.75 250.75 500.25 256.1 487.45 258.6 478.5 262 466.3 261.9 455.8 261.8 443.5 256.9 429.4 253.6 420 245.85 404.2 236.95 386.15 234.05 379.05 228.25 364.75 226.9 352.75 224.55 331.65 235.1 312.4 245.95 292.65 265.05 285.2 275.2 281.25 289.95 280.4 298.45 279.9 315.7 279.95 336.9 279.45 365.7 274.7 382.3 272 415.45 265.7 Z"/>
</g>

<g id="sexy_monkey_0_Layer1_0_FILL">
<path fill="#5B5B68" stroke="none" d="
M 492.25 429.75
Q 500.8 429.4 505.6 428.8 512.95 427.8 518.5 425.6 519.3 425.25 519.5 425 519.95 424.4 519.55 423.65 519.1 422.85 518.35 422.7 517.4 422.45 515.4 423.2 510.5 425.1 503.85 425.9 499.95 426.35 491.95 426.65 488.3 426.75 486.55 426.5 484.75 426.25 481.6 425.15 478.9 424.2 477.35 423.45 475.1 422.35 473.6 420.95 472.65 420.05 470.9 417.7 469.25 415.5 468.1 414.55 467.55 414.05 466.9 413.85 466.2 413.65 465.7 414 464.9 414.65 465.4 415.8 465.6 416.3 466.6 417.3 467.35 418.05 469.55 420.7 471.3 422.85 472.6 423.95 474.25 425.3 476.65 426.45 478.15 427.1 481.1 428.15 484.2 429.25 486.05 429.6 488.1 429.95 492.25 429.75
M 528.3 390.85
Q 527.65 391.35 527.2 392.25 526.75 393.15 525.3 398.05 524.25 401.55 522.6 403.2 521.4 404.35 518.7 405.55 512.8 408.15 508.15 409.8 504.5 411.15 502.05 411.4 499.65 411.7 495.9 411.15 488.8 410.05 482.75 407.9 479.95 406.9 478.65 406.1 477.45 405.4 475.25 403.55 473.15 401.7 471.85 401 470.35 400.25 469.7 400.95 468.75 401.9 470.55 403.6 475.85 408.2 478.95 409.7 480.45 410.4 483.3 411.25 488.15 412.7 493.4 413.8 499.35 414.95 502.9 414.45 505.2 414.15 509.6 412.55
L 517.15 409.6
Q 520.4 408.35 522.2 407.25 524.8 405.65 526.2 403.55 527.1 402.2 528 399.45 529 396.4 529.7 395.2 530.8 393.25 530.9 392.75 531 392.05 530.75 391.4 530.45 390.65 529.85 390.45 529.1 390.2 528.3 390.85
M 371.95 730
Q 374.85 730.15 380.65 730.05
L 398.9 729.85
Q 404.85 729.75 407.55 729.55 412.3 729.15 416 728.1 419.55 727.1 426.9 723.6 436.65 719 443.9 716.35 453.35 712.85 461.65 711.35 463.95 710.95 464.55 710 465.6 708.45 463.7 705.6 462.85 704.35 462.1 704.4 461.6 704.4 461.25 704.9 460.9 705.4 460.95 706 461.05 706.85 461.9 707.95 445.15 711.95 429.7 719.3 425.45 721.4 423.3 722.4 419.65 724.05 416.7 724.9 412.8 726 407.75 726.4 404.75 726.6 398.65 726.65
L 379.4 726.8
Q 377.6 726.8 376.75 726.45 375.7 725.8 375.1 725.55 372.95 724.8 370.65 727 369.5 728.05 369.85 728.95 370.15 729.9 371.95 730
M 454.5 542.35
Q 454.4 543.05 455.05 544 455.8 545.25 456.65 545.15 456.95 545.1 457.3 544.75 457.65 544.3 457.8 544.1 458.8 542.7 462.1 541.05 468.6 537.85 476.95 533.35 478.7 532.35 478.65 531.35 478.65 530.65 477.95 530.25 477.25 529.85 476.5 529.95 475.5 530.15 473.95 531.4 472.1 532.75 468.7 534.45
L 455.9 541
Q 454.65 541.6 454.5 542.35
M 342.25 528.7
Q 342.3 529.45 342.9 530.75 344.2 533.75 345.35 535.35 347.5 538.35 352.7 541.65 355.9 543.65 357.65 544.3 358.45 544.6 359.15 544.55 359.95 544.45 360.2 543.85 360.7 542.75 358.8 541.65
L 355.15 539.5
Q 351.5 537.3 349.7 535.7 346.95 533.2 346.2 530.4 346 529.55 345.9 529.15 345.7 528.4 345.45 527.95 345.1 527.35 344.5 527.05 343.9 526.75 343.3 526.95 342.25 527.35 342.25 528.7
M 329.55 415.05
Q 329.05 413.8 328.05 414.05 326.95 414.3 326.95 416.3 326.85 419.55 327.15 421.15 327.3 421.85 327.9 423.8 328.4 425.45 328.5 426.5 328.65 428.2 328.7 428.5 328.95 429.35 329.5 429.8
L 329.65 430.5
Q 330.55 434.15 330.8 436.15 331 438.15 331.25 439.05 331.75 440.65 333.35 442.9 334 443.85 334.6 443.95 335.15 444 335.6 443.55 336 443.15 336.05 442.55 336.15 441.7 335.3 440.45 334.3 439.1 334.05 438.55 333.85 438 333.8 437.15 333.8 436.25 333.75 435.75 333.65 434.55 333 432.35 332.3 430.05 332.2 428.95 332.1 427.85 332 427.35 331.85 426.4 331.4 425.9
L 330.85 424.05
Q 330.15 421.95 329.9 420.4 329.6 418.8 329.7 416.95 329.8 415.65 329.55 415.05
M 367.5 428.3
Q 367.9 428.7 369 429.1 370.5 429.55 371.05 429.1 371.85 428.55 371.5 427.45 371.35 426.85 370.55 425.95 364.65 418.85 357.05 411.35 358.65 410.6 358.6 409.6 358.55 408.75 357.6 408.5 356.65 408.2 355.85 408.7 354.95 409.25 354.5 410.3 354.1 411.35 354.35 412.35 354.7 413.75 357.05 415.7 360.65 418.7 363.75 422.25 366 424.7 366.7 426.6 367.15 427.9 367.5 428.3
M 538.35 556.3
Q 537.75 556.7 537.4 557.6 512.35 607.25 489.3 656.15 485.15 665.3 482.05 669.8 476.15 678.9 465.75 686.6 458.15 692.2 445.35 699.15 442.5 700.9 441.85 702 441.3 703.2 441.5 704.4 441.75 705.55 442.75 705.95 444.15 706.55 446.55 705.05
L 459.6 696.35
Q 468.75 690.2 473.4 686.65 480.55 680.75 484.95 674.65 488.45 669.7 492.75 660.25 510.15 623.4 528.7 585.85 529.2 585.45 529.85 584.8 535 580.15 536.4 575.05 537.1 572.9 536.5 571.5 536.3 571.05 536.1 570.8 538.25 566.4 540.4 562 541.75 559.25 541.5 558.1 541.4 557 540.35 556.35 539.25 555.65 538.35 556.3
M 535.55 541.7
Q 534.9 536.9 527.9 531.25 523.1 527.35 520.35 526.05 515.95 523.8 505.9 522.75 503.15 522.5 502.2 523.6 501.35 524.6 501.85 526.05 502.45 527.35 503.7 528 505 528.55 509.15 528.3 515.05 528.2 520.05 531.2 522.15 532.6 525.15 535.25 528.4 537.9 529.65 540.25 530.8 541.85 530.7 543.4 530.6 544.3 529.95 545.8 529.45 546.5 528.7 548.05 528.2 549.45 528.45 550.8 528.8 552.15 529.95 552.35 531.85 552.7 533.35 550 536 545.05 535.55 541.7
M 550.15 519.45
Q 549.35 518.65 547.1 517.25
L 542.8 514.75
Q 540.7 513.65 539.85 513.4 539 513.2 537.25 513.2
L 528.05 513.05
Q 526.8 513.05 526.25 513.3 525.85 513.55 525.6 513.95 525.35 514.4 525.45 514.8 525.75 515.75 527.5 515.75
L 536.85 516
Q 538.35 516 539.1 516.2 540.35 516.5 542 517.5 544.5 519 546.8 520.65 550.4 523.2 551.9 525.4 553 527 554.25 530.4
L 555.75 534.35
Q 556.55 536.35 556.75 537.45 557.15 539.65 556.6 541.8 556.2 543.35 554.8 546.25 554.4 547.2 553.75 549.45 553.35 550.95 553.65 551.75 553.9 552.35 554.45 552.65 555 552.95 555.5 552.7 556.1 552.4 556.4 551.25 556.75 549.7 556.95 548.9 557.25 547.45 557.65 546.55 558.75 544.5 559.15 543.45 560.5 540.05 558.85 534.6
L 556.55 528
Q 554.85 523.9 552.9 522.1
L 550.15 519.45
M 282.65 405.7
Q 282.95 404 281.95 403.6 281.5 403.45 280.95 403.75 280.5 404 280.2 404.5 279.85 405.15 279.4 406.5 279.05 407.1 277.55 408.5 276.75 409.3 275.55 411.1
L 273.9 413.55
Q 273.1 414.75 273 415.4 272.8 416.75 273.8 417.2 274.7 417.6 275.55 416.75 275.9 416.4 276.55 415.1 277.55 413.05 278.5 411.9 280.15 409.95 280.95 408.95 282.3 407.2 282.65 405.7
M 304.4 419.55
Q 304.85 417.65 303.9 416.4 303.4 415.75 302.5 415.7 301.55 415.65 301.3 416.35 301.15 416.7 301.3 417.3 301.4 417.65 301.55 418.3 301.7 419.1 301.3 420.1 301.15 420.55 300.45 421.75 299.45 423.65 298 427.7 297.45 429.25 297 430.5 296.75 430.65 296.55 430.9 295.85 431.75 295.15 433.8 294.65 434.7 293.55 436.35 293.05 437.35 292.6 440.45 292.05 444.05 291.05 447.2 290.55 448.75 290.8 449.45 291.1 450.3 292.15 450.45 293.15 450.6 293.7 449.9 294.15 449.35 294.15 448.35 294.1 447.15 294.15 446.6 294.2 446.05 294.5 445.2 294.85 444.2 294.95 443.8 295.1 443.2 295.15 442.15 295.2 440.9 295.25 440.5 295.5 439 296.85 436.75 297.2 436.65 297.5 436.35 298.25 435.7 298.75 433.95
L 298.8 433.9 298.9 433.7
Q 300 432 299.7 431.05 301.4 426.05 303.15 422.6 304.15 420.55 304.4 419.55
M 365.1 387.5
Q 365.25 388.05 365.7 388.35 366.4 388.8 367.75 388.9 382.75 390.25 396.5 390.45 396 390.6 396 391.25 396 391.85 396.4 392.2 397.05 392.8 398.4 392.5 399.7 392.25 400.6 391.45 401.6 390.6 401.45 389.5 401.1 387.25 396.85 387.25 382.1 387.5 367.3 385.9 365.6 385.8 365.15 386.5 364.9 386.95 365.1 387.5
M 356 394.1
Q 355.95 394.65 356.7 395.5 359.2 398.05 362.45 399.65
L 365.25 401.05
Q 366.2 401.6 367.9 402.85 369.6 403.95 372.1 405 373.45 405.6 374.2 405.1 374.7 404.75 374.7 404.05 374.7 403.35 374.25 402.85 373.65 402.15 372.1 401.55 369.5 400.45 365.35 397.9 361.5 395.65 359.6 394.1 358.3 393.15 357.7 393.05 357.1 392.95 356.6 393.25 356.05 393.55 356 394.1 Z"/>

<path fill="#FFFFFF" stroke="none" d="
M 475.4 369.7
Q 475.05 370.4 474.85 370.7 474.5 371.3 474.15 371.65 473.305078125 372.5837890625 472.3 372.45 471.9048828125 373.230859375 471.6 374 470.1 377.65 470.4 381.4 470.65 385.45 472.9 388.25 474.2326171875 389.959765625 476.4 391.3 476.6283203125 391.170703125 476.9 391.05 477.75 390.65 478.65 390.85 479.35 391 480.25 391.55 480.75 391.85 481.75 392.5 485.3 394.6 491.75 393.85 495.7 393.4 498.55 392.3 500.2375 391.596875 501.55 390.65
L 501.75 390.55
Q 501.8861328125 390.4505859375 502 390.35
L 502.15 390.2
Q 503.304296875 389.3572265625 504.15 388.3 504.75 387.6 505.95 386.15 506.1541015625 385.96953125 506.35 385.8 506.7095703125 384.830859375 507 384.25 507.85 382.6 509.2 382.45 509.5189453125 382.430078125 509.8 382.5 511.609375 379.2416015625 512 375.1 512.5 369.2 509.9 364.9 508.7130859375 362.9576171875 506.9 361.45 506.851953125 361.508984375 506.8 361.55 505.8 362.3 504.7 362.1 503.85 361.9 502.65 360.7
L 502.35 360.4
Q 501.889453125 360.1595703125 501.35 359.8 499.35 358.5 498.65 358.3 497.6 357.95 495.8 358.15
L 491.2 358.45
Q 487.9 358.75 486.2 359.4 484.8 359.95 483.35 361.15 482.65 361.65 480.8 363.35 476.7 367.35 475.4 369.7
M 485.65 370.3
Q 485.726171875 370.271875 485.8 370.25 486.9013671875 369.40703125 488 369 489 368.65 490.65 368.65 492.4 368.55 493.9 369 495.9 369.55 497.4 371 498.95 372.45 499.55 374.4 500.15 376.35 499.75 378.45 499.3 380.5 497.95 382.05 497.0150390625 383.1251953125 495.55 384.05 495.0349609375 384.466796875 494.45 384.75 493.3025390625 385.4775390625 492.45 385.7 490.9 386.2 489.1 385.95 487.6068359375 385.79453125 486.3 385.15 486.1927734375 385.13828125 486.1 385.1 484.85 384.55 483.65 383.35 482.55 382.4 481.75 381.05 480.15 378.1 481.35 374.85 482.5 371.65 485.65 370.3 Z"/>

<path fill="#000000" stroke="none" d="
M 485.8 370.25
Q 485.726171875 370.271875 485.65 370.3 482.5 371.65 481.35 374.85 480.15 378.1 481.75 381.05 482.55 382.4 483.65 383.35 484.85 384.55 486.1 385.1 486.1927734375 385.13828125 486.3 385.15 487.6068359375 385.79453125 489.1 385.95 490.9 386.2 492.45 385.7 493.3025390625 385.4775390625 494.45 384.75 495.0349609375 384.466796875 495.55 384.05 497.0150390625 383.1251953125 497.95 382.05 499.3 380.5 499.75 378.45 500.15 376.35 499.55 374.4 498.95 372.45 497.4 371 495.9 369.55 493.9 369 492.4 368.55 490.65 368.65 489 368.65 488 369 486.9013671875 369.40703125 485.8 370.25
M 283.4 571.65
Q 282.6 569.95 281 569.8 279.45 569.7 278.2 570.95 277 572.2 276.9 573.8 276.8 575.35 277.65 576.85 278.0806640625 577.625390625 278.7 578.25 278.8900390625 578.8373046875 279.15 579.45 281 583.75 282.4 589.55 283.25 592.9 284.55 599.95 286.65 611.15 287.05 616.85 287.6 624.5 286.45 632 285.9 635.95 284.75 640.65 283.65 644.95 282.1 646.75 281.7 647.2 280.45 648.4 280.3333984375 648.5109375 280.2 648.6 276.066796875 646.097265625 272.45 643.25 272.9 642.35 272.35 641.3 271.85 640.35 270.85 639.9 269.5 639.3 266.8 639.6 264.5 639.8 263.85 640.9 263.2 641.9 264 643.25 264.65 644.3 265.95 645.25 271.7740234375 649.4888671875 278.2 653.1 278.335546875 653.9208984375 278.9 654.45 279.5 655 280.45 655.05 280.9880859375 655.081640625 281.5 654.9 310.1888671875 670.1111328125 350.3 673.8 369.25 675.55 383.3 673.8 399.7 671.75 420.65 663.5 430.7 659.55 438.2 655.6 447.3 650.75 454.25 645.2 461.25 639.55 470.65 628.85 495.8818359375 599.9927734375 514.35 566.65 514.5341796875 566.8720703125 514.75 567.1 515.5 567.85 516.2 568.25 517.1 568.7 518.1 568.6 519.15 568.45 519.7 567.7 520.8 566.15 519 563.85 517.9 562.45 515.65 560.7 512.7 558.45 512 557.8 510.15 556.05 509.35 553.95 508.45 551.55 509.3 549.6 509.65 548.8 510.4 547.95 511.3 546.95 511.75 546.45 513.5 544.65 513.65 543.05 513.75 542.05 513.15 541.15 512.55 540.25 511.55 540.2 510.55 540.15 509.1 541.5 506.15 544.45 504.75 547.85 503.8234375 550.18125 503.85 552.3 503.05625 552.799609375 502.05 553.75 499.15 556.45 494.25 558.3 492.75 558.85 485.4 561.05 479.9 562.75 469.05 567.05 458.25 571.35 452.65 573.05 442.15 576.3 428.4 577.95 420.25 578.95 403.65 580 400.8224609375 580.1759765625 398.1 580.35 397.5533203125 579.934765625 396.9 580 396.28125 580.07734375 395.85 580.45 370.2701171875 582.0013671875 356.5 582.35 330.25 583 309.35 581.15 301.2 580.45 295.8 579.25 288.5 577.65 283.15 574.5 284.2 573.3 283.4 571.65
M 457.4 608.7
L 456.9 614.35
Q 456.2 623.15 457.15 631.4 457.35 633.1 457.8 633.95 458.13359375 634.641015625 458.6 635 453 640.44375 447.5 644.35 444.4021484375 646.5685546875 440.75 648.7
L 440.75 651.15
Q 440.75 652.1 440.35 652.5 440 652.85 439.4 652.6 438.85 652.4 438.6 651.95 438.3166015625 651.3359375 438.45 650 433.891796875 652.5556640625 428.5 655 423.9333984375 657.0876953125 419.4 658.85 419.41171875 659.0779296875 419.65 659.65 419.9 660.3 419.4 660.9 418.9 661.5 418.15 661.25 417.256640625 660.9373046875 417.25 659.7 410.2498046875 662.353515625 403.3 664.3 403.357421875 664.6998046875 403.1 665 402.8 665.3 402.3 665.25 401.8 665.25 401.5 664.9 401.492578125 664.851953125 401.5 664.8 396.0201171875 666.2439453125 390.6 667.25 390.555859375 665.1244140625 391.35 660.5 392.85 651.9 394.85 634.25
L 397.15 613.75
Q 425.1689453125 610.9421875 445.2 607 452.4146484375 605.5845703125 457.55 604.2 457.523046875 606.903515625 457.4 608.7
M 373 615.85
Q 383.01640625 615.098828125 392.2 614.2
L 390.1 632.2
Q 387.7 652.65 385.6 663.9 385.2 666.1 385.1 667.1 385.054296875 667.663671875 385.05 668.15 379.2837890625 669.0203125 373.55 669.35 368.5015625 669.6482421875 363.2 669.55
L 363.2 670
Q 363.2 671.4 362.6 671.8 361.95 671.65 361.35 670.4 361.116015625 669.8962890625 361.05 669.5 354.0009765625 669.26484375 346.5 668.35 338.6931640625 667.418359375 329.9 665.65 329.948828125 664.8892578125 329.85 663.9 329.65 662.25 329.6 661.4 329.5 659.4 330.2 655.5 332.5 643.25 332.7 635.95 332.75 630.6 332.95 627.95 333.15 625.45 334.05 620.3 334.20234375 619.3955078125 334.3 618.55 335.481640625 618.483984375 336.65 618.4 348.8 617.5 373 615.85
M 293.95 621.5
Q 295.9 621.9 300.35 621.5 312.505859375 620.22265625 329.25 618.95 329.2138671875 619.2701171875 329.15 619.6 328.2 624.75 328 627.15 327.85 628.85 327.9 632.05 327.9 635.35 327.8 636.9 327.65 639.2 326.95 644.05
L 324.05 663.3
Q 323.9572265625 663.8796875 323.9 664.4 321.8765625 663.9423828125 319.8 663.45 316.5060546875 662.6689453125 313.4 661.85 313.298046875 662.243359375 313.1 662.6 312.55 663.55 311.65 663.8 310.95 663.95 310.25 663.6 309.55 663.2 309.3 662.55 309.05 661.9 309.25 660.9 309.27890625 660.805078125 309.3 660.7 306.4958984375 659.9158203125 303.85 659.05
L 303.55 660.25 303 660.25
Q 302.715625 659.5033203125 302.75 658.7 300.1740234375 657.850390625 297.8 656.95
L 297.8 657
Q 297.8 657.6 297.25 657.85 296.9 658.05 296.2 658.15 295.8052734375 657.1634765625 295.85 656.2 295.3703125 656.0384765625 294.9 655.85 289.7892578125 653.8134765625 285.25 651.45 286.7244140625 649.240625 287.8 646.8 288.95 644.15 289.9 640.5 292.3888671875 630.7837890625 292.1 620.85 292.9787109375 621.264453125 293.95 621.5
M 285.4 581.75
Q 285.4693359375 581.776171875 285.55 581.8 293.121484375 584.015234375 301.7 585.4 301.6337890625 584.2685546875 301.6 584.1 301.15 582.85 301.1 582.2 301 580.9 301.95 580.6 302.3197265625 582.2841796875 302.7 585.55 308.4392578125 586.434765625 314.6 586.95 314.582421875 586.552734375 314.55 586.15
L 315 585.8
Q 315.5384765625 586.2615234375 315.75 587.05
L 315.8 587.05
Q 322.9576171875 587.6158203125 331.85 587.75 331.880859375 588.194921875 331.9 588.7 332.05 591.75 331.35 596.75 330.45 602.75 330.35 604.75 330.3 605.85 330.3 608.4 330.35 610.75 330.25 612.05 330.20625 612.8216796875 330.1 613.75 299.306640625 616.0359375 294.7 616.5 295.6 615.15 294.4 613.65 294.1259765625 613.3076171875 293.8 613.05 293.25546875 612.0349609375 291.95 611.9
L 291.95 612.05
Q 291.69921875 611.96640625 291.45 611.95 291.31328125 610.8595703125 291.15 609.65 289.328515625 595.629296875 285.4 581.75
M 336.95 591.55
Q 336.9880859375 589.800390625 336.8 587.8 341.494140625 587.7984375 346.6 587.7 354.02421875 587.5669921875 362.45 587.25 362.5107421875 587.008203125 362.6 586.8 363 586 363.6 586.05 364.248046875 586.1796875 364.25 587.2 369.5861328125 586.9966796875 375.3 586.7 375.3 586.26796875 375.3 585.95 375.3 585.35 375.55 584.95 375.85 584.4 376.4 584.55 376.7 584.65 377.05 585.3 377.2248046875 585.89453125 377.25 586.6 377.626171875 586.6181640625 378 586.6 384.4162109375 586.2607421875 394.85 585.6 394.6130859375 593.97109375 392.8 609 381.1880859375 610.1138671875 368.2 611.05 349.1791015625 612.4076171875 335 613.4 335.0705078125 612.991015625 335.1 612.6 335.15 607.1 335.35 604.35 335.5 602.35 336.2 597.95 336.85 593.8 336.95 591.55
M 399.6 592.35
Q 400.07734375 588.1900390625 399.9 585.3 404.344921875 585.062890625 409.4 584.75 411.8330078125 584.6044921875 413.95 584.45 413.97890625 583.70546875 414.6 583.25 415.05 583.1 415.35 583.5 415.5 583.75 415.6 584.35
L 415.6 584.35
Q 420.2908203125 584.0513671875 423.15 583.8 425.1306640625 583.617578125 427 583.4 426.9787109375 583.3515625 426.95 583.3 426.45 582.45 426.95 582.25 427.3 582.2 427.6 582.7 427.77109375 583.0060546875 427.9 583.3 432.71328125 582.726953125 436.8 581.95 438.0052734375 581.7287109375 439.25 581.45
L 439.25 581.05
Q 439.25 580.6 439.35 580.4 439.45 580.25 439.6 580.2 439.8 580.15 439.9 580.2 440.16796875 580.62890625 440.25 581.25 446.7572265625 579.846484375 454.3 577.45 454.6701171875 577.3333984375 455.05 577.2 455.300390625 577.8125 455.75 578.85 456.35 580.15 456.55 580.95 456.95 582.7 456.65 586.3 456.7 587.7 457.25 590.45 457.55 592.45 457.65 597.7 457.65 598.3060546875 457.65 598.85 457.449609375 598.9435546875 457.25 599 450.85 600.8 441.2 602.6 422.766015625 605.9837890625 397.75 608.5
L 399.6 592.35
M 507.75 560.35
Q 507.705859375 560.4771484375 507.65 560.6 507.25 561.55 506.55 563.5 505.9 565 503.4 567.6 493.95 577.2 488.9 581.6 480.45 588.95 472.5 593.1 467.960546875 595.4728515625 462.45 597.35 462.390625 593.77421875 462.25 590.85
L 461.35 581.65
Q 460.75 577.75 460.35 575.8 460.3193359375 575.6341796875 460.25 575.45 463.9109375 574.2427734375 468.7 572.55 468.840625 572.309375 469.1 572.05
L 469.7 571.7
Q 470.182421875 571.6095703125 470.45 571.95 470.918359375 571.77109375 471.4 571.6
L 476.35 569.8
Q 476.0953125 569.4765625 476.05 569.25 475.95 569.05 476.1 568.9 476.2 568.7 476.4 568.65 476.55 568.65 476.8 568.9 477.0748046875 569.16328125 477.3 569.5
L 486.5 566.2
Q 486.5326171875 566.0546875 486.55 565.95 486.6 565.7 486.8 565.6 486.95 565.45 487.15 565.5 487.3126953125 565.60859375 487.4 565.85
L 501.8 560.7
Q 503.95 559.95 505.05 559.3 505.665234375 558.9271484375 506.15 558.5 506.85078125 559.4197265625 507.75 560.35
M 492.1 585.55
Q 496.9236328125 581.420703125 504.35 573.95 500.75390625 580.962109375 495.75 588.5 491 595.55 480.7 609 478.8095703125 611.45078125 477.05 613.65 477 613.94765625 477 614.45 476.9 615.05 476.5 615.1
L 476.1 614.9
Q 474.0927734375 617.4513671875 472.3 619.65 472.33671875 620.1908203125 472.3 620.85 472.3 621.3 472.15 621.6 471.85 622.1 471.5 621.9 471.287890625 621.5466796875 471.25 620.95 467.823828125 625.178515625 465.35 627.95 463.8537109375 629.628125 462.35 631.2 462.27265625 630.3724609375 462.05 629.3 461.5 626.3 461.5 619.5 461.6 615.3 461.75 614.1 462.1 612.05 462.2 611 462.6 608.15 462.5 603.35 462.5 603.0546875 462.5 602.75 467.30859375 601.209765625 471.35 599.35 481.5 594.65 492.1 585.55
M 455.25 509.7
Q 454.5 508.35 452.75 507.4 450.75 506.35 446.85 507.7 441.55 509.65 437.25 513.4 432.95 517.1 430.5 522.25 428.8 526 430.25 528 431.05 529 432.4 529.2 433.8 529.45 435 528.85 436.35 528.25 439.1 525.7 441.6 523.15 444.9 520.4 448.95 516.8 452.5 515.1 455.7 513.75 455.95 512.25 456.15 511.05 455.25 509.7
M 391.55 516.7
Q 390.75 514.95 390.1 514.25 388.9 512.9 385.1 513.3 382.1 513.75 380.95 514.6 379.55 516.15 378.65 516.75
L 377.3 517.5
Q 376.45 517.85 376.05 518.35 375.3 519.6 375.95 521.1 376.35 522.25 378 523.3 380.9 525.4 386.8 527.35 393.6 529.45 395.9 530.55 398.2 531.6 398.75 531.85 400.45 532.35 401.65 531.8 402.9 531.25 403.4 529.75 403.85 528.3 403 527.1 401.5 525.75 400.9 524.85
L 399.75 522.6
Q 398.85 521.15 395.6 519.7 392.45 518.15 391.55 516.7
M 413.6 494.55
Q 415.3 493.85 418.3 490.75 422.1 487.05 428.7 483.5 439.05 477.35 445.8 475.45 455.9 472.5 464.45 475.6 469 477.15 472.45 480.7 476.05 484.2 477.1 488.65 477.85 492.25 477.45 497.2 476.8 505.1 474.3 509.65 471.3 514.65 463.95 518.95 455.4 523.35 451.4 525.9 447.25 528.6 446.55 531.4 446.2 533.15 447.35 534.95 448.6 536.7 450.35 536.4 451.5 536.25 452.5 535.15 453.2 534.6 454.2 533.4 455.75 531.5 459.6 529.6
L 466.35 525.7
Q 471.15 523 473.6 521.2 477.3 518.6 479.5 515.45 482.95 510.35 483.95 500.55 485 490.75 483.35 485.15 481.5 479.15 476.4 474.35 471.35 469.9 464.95 468.1 453.1 464.65 439.05 470 429.2 473.85 416.65 483.5 413 486.4 410.65 486.55 407.75 486.8 404.8 484.15 401.45 480.75 399.8 479.2 395.7 475.3 388.55 473.8 384.05 472.7 375.65 472.4 372.2 472.35 371.05 472.45 368.45 472.7 366.7 473.6 363.6 475.2 361.4 479.55 360.4 481.6 360.3 482.95 359.45 483.65 358.55 484.35 355.8 486.25 354.05 488.3 353.15 489.7 351.55 493.1 349.55 497.4 348.9 499.55 347.8 503.5 347.25 510 346.55 520.55 348.6 525.8 350.9 531.9 356.1 534.55 357.35 535.25 361.85 536.7 368.6 538.6 375.35 541.35 383.85 545 388.05 545.45 390.9 545.7 392.45 544.85 393.45 544.35 394 543.4 394.7 542.35 394.45 541.3 393.9 539.1 389.25 538.2 384.65 537.35 376.3 534 367.5 530.3 363.35 529.35 359.85 528.6 358.35 527.55 355.65 525.65 354.8 520.8 353.25 512.95 354.75 505.5 355.6 501.8 356.9 498.8 359.55 492.1 364.75 488.4 366.65 487.05 368.3 487.05 369.3 487 371.3 487.2 372.4 487.05 373.4 486.05 374.2 485.2 374.3 484 374.5 481.8 372.55 479.75 372.7 479.75 372.9 479.75
L 383.75 480.55
Q 387.4 480.85 389.3 481.35 392.95 482.55 398.5 487.8 404.2 493.25 407.75 494.45 411 495.6 413.6 494.55
M 481.55 318.4
Q 483.35 312.95 485.3 309.95 487.15 307.1 489.8 305.1 492.6 303.05 495.8 302.3 499.1 301.55 502.4 302.4 505.8 303.2 508.2 305.45 509.9 307.05 511.45 310 512.4 311.65 514.1 315.05 517.6 321.5 522.4 322.05 524.75 322.4 526.05 321.05 526.8 320.3 526.8 319.25 526.8 318.15 526.05 317.55 525.6 317.2 524.85 317.05 524 316.95 523.55 316.85 520.25 316.2 518.05 312.15 517.5 311.15 516.45 308.8 515.5 306.55 514.85 305.45 512.35 301.2 507.65 298.8 503 296.45 497.95 296.8 493.05 297.15 488.55 299.85 484.15 302.45 481.25 306.6 479 309.85 477.35 314.5 476.35 317.3 474.85 323.05
L 465.35 359.65
Q 464.3 363.7 463.65 365.65 462.55 368.9 461.15 371.3 460.4 372.65 459.5 372.95 458.45 373.3 456.85 372.4 452.6 370.15 449 366.8 445.7 363.7 443.9 365.05 443.2 365.55 443.1 366.5 442.95 367.4 443.3 368.25 443.8 369.45 445.6 370.85 448.9 373.65 452.4 375.85 457.75 379.4 461.3 378.1 463.35 377.3 465.05 374.8 467.1 371.85 469.05 365.6 471.15 358.7 475.15 341.95 478.8 326.75 481.55 318.4
M 340.65 393.05
Q 340.45 392.85 340.3 392.65 342.8 391.1 346.5 388.1
L 352.05 383.55
Q 355.1 380.95 357.1 380 360.25 378.6 362.95 379.35 363.3 379.55 364 379.75 364.65 379.9 365.05 379.9 366.45 379.8 367.55 378 368.5 376.6 368.6 375.1 368.7 373.4 367.5 372.55 366.65 371.9 365.35 372.1 364.75 372.1 362.95 372.55 362.4 372.7 358.6 373.3 356 373.7 354.4 374.4 352.9 375.15 351.15 376.6 350.8 376.95 348.25 379.3 346.1 381.2 340.25 385.5 336.2 388.35 333.9 389.25 330.6 390.65 324.25 390.9 317 391.2 312.05 390.75 311.5 390.7 310.95 390.65 310.45 390.25 309.8 390.35 309.55 390.35 309.35 390.4 304.35 389.55 300.35 387.8 297.15 386.4 290.55 382.05 289.3 381.3 288.4 380.9 288.15 380.55 287.95 380.3 286.8 379.2 284.6 379.55 284.25 379.65 281.25 380.75 281 380.85 275.7 382.35 274 382.75 272.9 383.5 271.4 384.6 271.75 386.05 271.95 387.2 273.45 388.1 274.85 388.9 276.2 388.75 276.9 388.7 278.75 388 281.8 386.7 285.4 385.6
L 285.45 385.6
Q 285.95 386.1 286.85 386.75 288.75 388.05 290.8 389.2 290.25 389.5 289.9 389.6 289.35 389.8 288.25 390.05 287.1 390.25 286.55 390.45 284.65 391.2 282.8 394.2 281.8 395.95 281.45 397.15 280.9 398.95 281.35 400.2 281.65 400.95 282.35 401.4 283 401.85 283.75 401.75 284.95 401.55 286 399.45
L 288 395.5
Q 291.2 394.95 293.85 393.15 294.9 392.5 295.25 391.75 295.25 391.7 295.3 391.7 296.75 392.45 298.3 393.15 302.4 395.15 305.45 395.8 306 395.95 306.6 396.05 306.4 396.9 306.4 398.3
L 306.4 402.75
Q 306.4 404.25 306.6 404.95 307.05 406.25 308.05 406.6 308.85 406.9 309.7 406.4 310.5 405.95 310.9 405.1 311.4 404.05 311.3 401.65 311.1 399.3 311.55 398.15 311.7 397.8 312.25 396.9 312.35 396.75 312.4 396.65 321 397.3 325.8 396.9 330.95 396.5 335.1 395.1 335.3 395.35 335.55 395.55 338.5 398.25 339.25 399.4 339.55 399.85 340.1 400.8 340.65 401.6 341.15 402.05 342.2 402.95 343.55 402.7 345 402.35 345.4 401.05 345.75 399.7 344.05 397.35 341.6 394 340.65 393.05 Z"/>

<path fill="#CC95B3" stroke="none" d="
M 485 354.4
Q 482.85 355.2 481.95 355.65 478.5 357.35 474.9 361.25 473.45 362.8 473 364 472.564453125 365.182421875 472.8 366.1 471.87890625 367.3376953125 471.4 368.25 470.7 369.65 470.75 370.55 470.85 372 472.05 372.4 472.17734375 372.433203125 472.3 372.45 473.305078125 372.5837890625 474.15 371.65 474.5 371.3 474.85 370.7 475.05 370.4 475.4 369.7 476.7 367.35 480.8 363.35 482.65 361.65 483.35 361.15 484.8 359.95 486.2 359.4 487.9 358.75 491.2 358.45
L 495.8 358.15
Q 497.6 357.95 498.65 358.3 499.35 358.5 501.35 359.8 501.889453125 360.1595703125 502.35 360.4
L 502.65 360.7
Q 503.85 361.9 504.7 362.1 505.8 362.3 506.8 361.55 506.851953125 361.508984375 506.9 361.45 507.763671875 360.737109375 508 359.65 508.45 357.65 506.8 355.4 504.85 352.75 501.65 351.95 500.8 351.7 499.45 351.6 497.3 351.35 497.25 351.35 495.55 351.1 494.7 351.05 493.25 350.95 492.2 351.15 491.3 351.35 490.1 352 488.75 352.8 488.05 353.15 487 353.7 485 354.4
M 475.85 392.25
Q 475.553125 392.9416015625 475.8 393.6 476 394.05 476.6 394.85 476.9 395.35 477.45 396.4 478.3 397.65 480.1 398.1 481.15 398.4 483.3 398.65 484.15 398.8 485.95 399.35 487.65 399.85 488.55 400 490.25 400.3 493.7 400.2 496.15 400.2 497.5 399.75 498.8 399.4 501.1 398 504.45 395.85 506 394.5 508.55 392.25 509.55 389.8 510.15 387.85 510.55 386.9 511 386.05 511.15 385.6 511.45 384.85 511.4 384.25 511.35 383.45 510.65 382.9 510.2591796875 382.5994140625 509.8 382.5 509.5189453125 382.430078125 509.2 382.45 507.85 382.6 507 384.25 506.7095703125 384.830859375 506.35 385.8 506.1541015625 385.96953125 505.95 386.15 504.75 387.6 504.15 388.3 503.304296875 389.3572265625 502.15 390.2
L 502 390.35
Q 501.8861328125 390.4505859375 501.75 390.55
L 501.55 390.65
Q 500.2375 391.596875 498.55 392.3 495.7 393.4 491.75 393.85 485.3 394.6 481.75 392.5 480.75 391.85 480.25 391.55 479.35 391 478.65 390.85 477.75 390.65 476.9 391.05 476.6283203125 391.170703125 476.4 391.3 475.9546875 391.6916015625 475.85 392.25 Z"/>

<path fill="#6D4257" stroke="none" d="
M 470.8 615.75
Q 470.8 616 470.75 616.6 470.7 617.1 470.75 617.4 470.85 617.9 471.25 618.9 471.3 619.25 471.25 620.45 471.2353515625 620.728515625 471.25 620.95 471.287890625 621.5466796875 471.5 621.9 471.85 622.1 472.15 621.6 472.3 621.3 472.3 620.85 472.33671875 620.1908203125 472.3 619.65 472.2900390625 618.7203125 472.1 618.15
L 471.85 617.25
Q 471.8 617 471.8 615.7 471.8 614.7 471.4 614.3 471.2 614.25 471 614.4 470.8 614.55 470.75 614.8 470.7 615.15 470.8 615.75
M 477.55 612.15
Q 477.55 609.85 477.5 609.4 477.5 609.05 477.35 608.8 477.15 608.4 476.8 608.55 476.5 608.65 476.5 609.25
L 476.5 611.6
Q 476.5 612.35 476.45 612.45
L 476.15 613.05
Q 475.9 613.6 476 614.85
L 476.1 614.9 476.5 615.1
Q 476.9 615.05 477 614.45 477 613.94765625 477.05 613.65 477.09140625 613.6259765625 477.1 613.6
L 477.45 613
Q 477.55 612.7 477.55 612.15
M 487.4 565.85
Q 487.3126953125 565.60859375 487.15 565.5 486.95 565.45 486.8 565.6 486.6 565.7 486.55 565.95 486.5326171875 566.0546875 486.5 566.2 486.4826171875 566.4419921875 486.45 566.8 486.3 567.1 485.95 567.6 486.6 568.1 486.5 569.5 486.4 571 486.75 571.55 487.3 571.65 487.5 570.9 487.55 570.75 487.55 569.8 487.45 568.85 487.75 568.3 487.9 568 487.9 567.85 487.9 567.7 487.7 567.5 487.55 567.2 487.55 566.45 487.504296875 566.1068359375 487.4 565.85
M 476.8 568.9
Q 476.55 568.65 476.4 568.65 476.2 568.7 476.1 568.9 475.95 569.05 476.05 569.25 476.0953125 569.4765625 476.35 569.8 476.371875 569.8625 476.4 569.9 477.05 570.8 477.05 572.45 477.05 573.35 477 575.15 477.05 576.4 477.9 579 478.7 581.45 478.7 582.8 478.6 584.55 478.65 585.05 478.85 586.45 479.8 586.85 480.2 586.3 480.15 585.4 480.15 584.95 479.9 583.8 479.55 581.15 479.2 579.8 478.4 577.45 478.2 576.2 478.1 575.45 478.1 574.3 478.1 572.6 478.1 572.35 478.0228515625 570.5767578125 477.3 569.5 477.0748046875 569.16328125 476.8 568.9
M 469.7 571.7
L 469.1 572.05
Q 468.840625 572.309375 468.7 572.55 468.5296875 572.972265625 468.75 573.35 468.9 573.7 469.65 573.9
L 470.95 577.85
Q 471.25 579.05 471.25 579.65
L 471.8 579.95
Q 472.2 579.8 472.3 579.2 472.35 578.9 472.25 578.3
L 470.8 574
Q 470.8 573 470.7 572.55 470.620703125 572.153125 470.45 571.95 470.182421875 571.6095703125 469.7 571.7
M 440.25 581.25
Q 440.16796875 580.62890625 439.9 580.2 439.8 580.15 439.6 580.2 439.45 580.25 439.35 580.4 439.25 580.6 439.25 581.05
L 439.25 581.45 439.25 589.65 439.75 589.9
Q 440.3 589.85 440.3 588.85
L 440.3 582.5
Q 440.346484375 581.8041015625 440.25 581.25
M 426.95 582.25
Q 426.45 582.45 426.95 583.3 426.9787109375 583.3515625 427 583.4 427.6943359375 584.7322265625 427.55 586.8 427.5 588.05 427.1 590.55 426.9 592.95 427.6 597.75 427.9 600.05 428.15 601.2 428.3 601.45 428.65 601.4 429 601.3 429.15 601.05 429.35 600.6 429.15 599.85 427.7 593.55 428.35 589.25 428.55 588.05 428.65 587.4 428.8 586.35 428.65 585.55 428.56796875 584.60703125 427.9 583.3 427.77109375 583.0060546875 427.6 582.7 427.3 582.2 426.95 582.25
M 413.95 584.45
Q 413.9328125 584.628125 413.95 584.8 414.05 585.3 414.5 586.25 414.7 586.85 414.6 588 414.55 589.2 414.65 589.7 414.75 590.25 415.1 591.25
L 415.1 592.15
Q 415.1 592.75 415.45 592.95 415.65 593.1 415.9 593.05 416.2 593 416.25 592.8 416.2 591.6 416.1 591
L 415.7 589.5
Q 415.6 588.9 415.65 588
L 415.7 586.5
Q 415.749609375 585.55625 415.6 584.35
L 415.6 584.35
Q 415.5 583.75 415.35 583.5 415.05 583.1 414.6 583.25 413.97890625 583.70546875 413.95 584.45
M 375.55 584.95
Q 375.3 585.35 375.3 585.95 375.3 586.26796875 375.3 586.7 375.319921875 587.42578125 375.35 588.45
L 374.95 590.25
Q 374.75 591.15 374.75 593.05
L 374.8 597.8
Q 374.8 598.85 375.3 599.15 375.65 599.35 376.05 599.2 376.45 599 376.6 598.6 376.85 598.1 376.75 597 376.4 593.35 376.95 589.35 377.2 587.7 377.25 587.3 377.2650390625 586.954296875 377.25 586.6 377.2248046875 585.89453125 377.05 585.3 376.7 584.65 376.4 584.55 375.85 584.4 375.55 584.95
M 350.35 588.6
Q 349.95 588.75 349.95 589.35 349.95 589.55 350.35 591.15 350.65 592.3 350.6 594.2 350.5 596.9 350.5 597.35 350.55 598.9 351.25 601.9
L 352.2 606.2
Q 352.3 606.65 352.6 606.7 352.9 606.7 353 606.3 353.4 605.3 353.05 603.9 352.5 602.25 352.2 601.45 351.55 599.4 351.55 596.35 351.7 592.8 351.65 591.05 351.65 589.45 350.95 588.8 350.7 588.55 350.35 588.6
M 363.6 586.05
Q 363 586 362.6 586.8 362.5107421875 587.008203125 362.45 587.25 362.15 588.29609375 362.15 590.1
L 362.2 601
Q 362.2 602.15 362.55 602.8 362.85 603.2 363.3 603.35 363.8 603.5 364.15 603.2 364.65 602.75 364.3 601.3 364.1 600.4 364 597.65 364 590.35 364.25 587.55 364.263671875 587.3666015625 364.25 587.2 364.248046875 586.1796875 363.6 586.05
M 301.8 586.7
Q 301.85 588.5 302.2 590.85
L 303.05 597.25
Q 303.15 597.95 303.45 598.4 303.75 598.75 304.25 598.75 304.75 598.8 305.1 598.45 305.45 598.1 305.4 597.6 305.35 597.05 304.95 596.8
L 304.3 597.25
Q 303.9 596.4 303.7 594.05
L 302.9 587.05
Q 302.8107421875 586.2650390625 302.7 585.55 302.3197265625 582.2841796875 301.95 580.6 301 580.9 301.1 582.2 301.15 582.85 301.6 584.1 301.6337890625 584.2685546875 301.7 585.4 301.751171875 585.933984375 301.8 586.7
M 322.2 589.75
Q 321.9 590.35 321.65 590.45
L 321.65 601.3
Q 321.65 602.55 321.9 603.1 322.65 603.05 322.75 602.1 322.65 601.15 322.6 600.65 322.6 600.25 322.75 599.6 323.05 598.6 323.05 598.5 323.65 596.35 322.95 594.15 322.7 593.4 322.8 593.1
L 323.1 592.5
Q 323.1 591.75 323.15 591.4 323.45 590.5 323.5 590.05 323.55 589.7 323.3 589.4 323 589.05 322.7 589.15 322.4 589.2 322.2 589.75
M 315 585.8
L 314.55 586.15
Q 314.582421875 586.552734375 314.6 586.95 314.8064453125 589.6396484375 314.85 592.25
L 315.2 603.25
Q 315.3 605.25 315.05 606.5 314.85 607.7 314.85 608.15 314.85 609.05 315.4 609.45 316.3 608.15 316.4 606.1 316.45 605.05 316.25 602.45 315.65 596.05 315.95 589.65 316 588.2 315.9 587.55 315.85390625 587.2845703125 315.75 587.05 315.5384765625 586.2615234375 315 585.8
M 299.65 647.7
Q 300.3 646.2 299.6 645.15 299.25 644.6 298.9 644.75 298.6 644.9 298.65 645.3
L 298.8 646
Q 299.05 646.85 298.5 647.95 297.6 649.5 297.5 649.75 297.05 650.7 296.8 652.85 296.75 653.1 296.25 654.55 295.9 655.55 295.85 656.2
L 295.85 656.2
Q 295.8052734375 657.1634765625 296.2 658.15 296.9 658.05 297.25 657.85 297.8 657.6 297.8 657
L 297.8 656.95
Q 297.73828125 656.6912109375 297.55 656.55 297.3 656.35 297.05 656.45
L 297.85 652.4
Q 298.35 650.45 298.5 650.15 299.35 648.55 299.65 647.7
M 305.35 648.85
Q 304.95 648.2 304.55 648.5 304.3 648.65 304.5 649.15 304.55 649.3 305 650.15 305.35 650.75 305.3 651.15 305.2 651.7 304.6 652.55 304.45 652.85 304.25 654.05 304.05 655.25 303.35 656.75
L 302.85 658.05
Q 302.777734375 658.3822265625 302.75 658.7 302.715625 659.5033203125 303 660.25
L 303.55 660.25 303.85 659.05 305.25 654.2
Q 305.6 652.75 305.8 652.4 306.3 651.5 306.35 651.35 306.45 650.9 306.05 650.15
L 305.35 648.85
M 313.4 631.85
Q 312.55 632.85 313.15 634.05
L 313.6 634.9
Q 313.9 635.4 313.85 635.75 313.85 636.05 313.65 636.45 313.55 636.7 313.3 637.15 313 637.75 312.8 639.15
L 311.4 650.25
Q 311.25 651.7 310.9 652.85 310.8 653.3 310.35 654.45 309.95 655.45 309.85 656.05 309.75 656.55 309.75 657.6 309.75 658.7 309.65 659.2 309.6041015625 659.7046875 309.3 660.7 309.27890625 660.805078125 309.25 660.9 309.05 661.9 309.3 662.55 309.55 663.2 310.25 663.6 310.95 663.95 311.65 663.8 312.55 663.55 313.1 662.6 313.298046875 662.243359375 313.4 661.85 313.6197265625 661.2642578125 313.65 660.6 313.45 657.9 313.85 656.6 314.3 655.5 314.5 654.95 315 653.7 315.2 651.4
L 316.15 643.6
Q 316.55 640.4 317.15 638.6 317.5 637.65 317.65 637.15 317.9 636.3 317.85 635.65 317.85 634.55 317 633.05 316.3 631.6 315.55 631.3 315 631.05 314.4 631.2 313.8 631.35 313.4 631.85
M 362.5 640.55
Q 362.1 641.4 362.1 643.4
L 362.1 649.85
Q 362.1 651.55 362.2 652.4
L 362.5 653.85
Q 362.65 654.85 362.65 656.9 362.65 659.05 362.5 660.15 362.2 661.75 362.2 661.85 362 662.9 362.1 664.5
L 362.15 667.05
Q 362.15 667.75 361.9 668.05
L 361.35 668.4
Q 360.933984375 668.7841796875 361.05 669.5 361.116015625 669.8962890625 361.35 670.4 361.95 671.65 362.6 671.8 363.2 671.4 363.2 670
L 363.2 669.55 363.1 664.85
Q 363.1 663.05 363.2 662.15
L 363.5 660.55
Q 363.8 658.8 363.6 656
L 363.4 653.05
Q 363 647.45 363.05 644.75 363.15 642.25 363.45 641.05 363.55 640.1 363.15 640.05 362.8 640 362.5 640.55
M 349.15 652.6
Q 349.05 652.05 348.9 651.85 348.45 651.4 348.15 651.8 348 652 348.1 652.35
L 348.9 660
Q 349 662.25 348.9 666.7 348.9 668.1 349.2 668.65 349.9 668.8 350 667.55 350.15 662.05 349.75 657.45 349.55 655.05 349.15 652.6
M 375.65 652.1
Q 375.55 651.65 375.25 651.55 374.8 651.45 374.7 651.95
L 374.7 652.7
Q 374.9 654.1 374.05 656.2 372.85 659.15 372.75 659.65 372.5 660.8 372.6 663.25 372.7 665.65 372.4 666.85 372 668.55 372.05 668.9 372.3 669.3 372.8 669 373.05 668.85 373.25 668.3 373.75 666.9 373.7 664.25 373.55 661.25 373.8 660.1 373.9 659.5 375.2 656.15 376.05 653.65 375.65 652.1
M 405.15 625.6
L 405.4 626.75
Q 404.65 630.5 404.55 631.8 404.55 632.35 404.6 635.5 404.65 637.75 404.4 639.2
L 403.9 641.2
Q 403.25 643.7 403.1 646.6 403.05 647.35 403.05 651.15 403.1 652.7 402.95 654.55 402.9 655.6 402.65 656.65
L 401.7 662.5
Q 401.422265625 664.120703125 401.5 664.8 401.492578125 664.851953125 401.5 664.9 401.8 665.25 402.3 665.25 402.8 665.3 403.1 665 403.357421875 664.6998046875 403.3 664.3 403.3142578125 664.22109375 403.3 664.15 403.2 663.65 402.75 663.55 403.1 662.95 403.05 661.9
L 403.05 660.15
Q 403.1 659.6 403.55 658 404.05 655.95 404.1 652.95 404.05 649.5 404.1 647.75 404.2 644.45 404.95 641.1 405.55 638.35 405.6 637.75 405.75 636.6 405.65 633.55 405.55 630.9 405.9 629.4 406.25 628.2 406.35 627.55 406.55 626.5 406.2 625.8 406 625.4 405.7 625.35 405.25 625.25 405.15 625.6
M 421.35 634.5
Q 420.9 633.25 420.25 633.3 419.8 633.35 419.6 633.8 419.45 634.2 419.55 634.7 419.6 634.85 419.8 635.55 420 636.05 419.95 636.4 419.95 636.95 419.5 638 419.4 638.45 419.4 639.35 419.35 639.7 419.05 640.3 418.85 640.9 418.85 642.2
L 418.95 648.25
Q 418.95 649.9 418.8 650.7 418.7 651.25 418.45 652.35 418.4 652.85 418.4 653.85 418.45 654.85 418.35 655.35 418.25 655.95 417.75 657.4 417.3 658.65 417.25 659.4 417.2392578125 659.5599609375 417.25 659.7 417.256640625 660.9373046875 418.15 661.25 418.9 661.5 419.4 660.9 419.9 660.3 419.65 659.65 419.41171875 659.0779296875 419.4 658.85
L 419.4 658.85
Q 419.35 658.65 419.6 657.95 420.25 656.35 420.25 654.5 420.15 653.5 420.25 653.05
L 420.55 651.85
Q 420.8 650.95 420.8 649.1
L 420.7 644.1
Q 420.7 642.1 420.85 641.1
L 421.4 638.45 421.75 637.3
Q 421.9 636.2 421.35 634.5
M 438.4 633.65
Q 438.8 639.3 438.9 641.75 439 646.3 438.5 649.85 438.4888671875 649.9302734375 438.45 650 438.3166015625 651.3359375 438.6 651.95 438.85 652.4 439.4 652.6 440 652.85 440.35 652.5 440.75 652.1 440.75 651.15
L 440.75 648.7 440.7 636.45
Q 440.7 630.8 439.6 628 439.15 626.75 438.45 627.05 437.95 627.2 437.95 628.35
L 438.4 633.65 Z"/>

<path fill="#DDDDDD" stroke="none" d="
M 504.35 573.95
Q 496.9236328125 581.420703125 492.1 585.55 481.5 594.65 471.35 599.35 467.30859375 601.209765625 462.5 602.75 462.5 603.0546875 462.5 603.35 462.6 608.15 462.2 611 462.1 612.05 461.75 614.1 461.6 615.3 461.5 619.5 461.5 626.3 462.05 629.3 462.27265625 630.3724609375 462.35 631.2 463.8537109375 629.628125 465.35 627.95 467.823828125 625.178515625 471.25 620.95 471.2353515625 620.728515625 471.25 620.45 471.3 619.25 471.25 618.9 470.85 617.9 470.75 617.4 470.7 617.1 470.75 616.6 470.8 616 470.8 615.75 470.7 615.15 470.75 614.8 470.8 614.55 471 614.4 471.2 614.25 471.4 614.3 471.8 614.7 471.8 615.7 471.8 617 471.85 617.25
L 472.1 618.15
Q 472.2900390625 618.7203125 472.3 619.65 474.0927734375 617.4513671875 476.1 614.9
L 476 614.85
Q 475.9 613.6 476.15 613.05
L 476.45 612.45
Q 476.5 612.35 476.5 611.6
L 476.5 609.25
Q 476.5 608.65 476.8 608.55 477.15 608.4 477.35 608.8 477.5 609.05 477.5 609.4 477.55 609.85 477.55 612.15 477.55 612.7 477.45 613
L 477.1 613.6
Q 477.09140625 613.6259765625 477.05 613.65 478.8095703125 611.45078125 480.7 609 491 595.55 495.75 588.5 500.75390625 580.962109375 504.35 573.95
M 507.65 560.6
Q 507.705859375 560.4771484375 507.75 560.35 506.85078125 559.4197265625 506.15 558.5 505.665234375 558.9271484375 505.05 559.3 503.95 559.95 501.8 560.7
L 487.4 565.85
Q 487.504296875 566.1068359375 487.55 566.45 487.55 567.2 487.7 567.5 487.9 567.7 487.9 567.85 487.9 568 487.75 568.3 487.45 568.85 487.55 569.8 487.55 570.75 487.5 570.9 487.3 571.65 486.75 571.55 486.4 571 486.5 569.5 486.6 568.1 485.95 567.6 486.3 567.1 486.45 566.8 486.4826171875 566.4419921875 486.5 566.2
L 477.3 569.5
Q 478.0228515625 570.5767578125 478.1 572.35 478.1 572.6 478.1 574.3 478.1 575.45 478.2 576.2 478.4 577.45 479.2 579.8 479.55 581.15 479.9 583.8 480.15 584.95 480.15 585.4 480.2 586.3 479.8 586.85 478.85 586.45 478.65 585.05 478.6 584.55 478.7 582.8 478.7 581.45 477.9 579 477.05 576.4 477 575.15 477.05 573.35 477.05 572.45 477.05 570.8 476.4 569.9 476.371875 569.8625 476.35 569.8
L 471.4 571.6
Q 470.918359375 571.77109375 470.45 571.95 470.620703125 572.153125 470.7 572.55 470.8 573 470.8 574
L 472.25 578.3
Q 472.35 578.9 472.3 579.2 472.2 579.8 471.8 579.95
L 471.25 579.65
Q 471.25 579.05 470.95 577.85
L 469.65 573.9
Q 468.9 573.7 468.75 573.35 468.5296875 572.972265625 468.7 572.55 463.9109375 574.2427734375 460.25 575.45 460.3193359375 575.6341796875 460.35 575.8 460.75 577.75 461.35 581.65
L 462.25 590.85
Q 462.390625 593.77421875 462.45 597.35 467.960546875 595.4728515625 472.5 593.1 480.45 588.95 488.9 581.6 493.95 577.2 503.4 567.6 505.9 565 506.55 563.5 507.25 561.55 507.65 560.6
M 399.9 585.3
Q 400.07734375 588.1900390625 399.6 592.35
L 397.75 608.5
Q 422.766015625 605.9837890625 441.2 602.6 450.85 600.8 457.25 599 457.449609375 598.9435546875 457.65 598.85 457.65 598.3060546875 457.65 597.7 457.55 592.45 457.25 590.45 456.7 587.7 456.65 586.3 456.95 582.7 456.55 580.95 456.35 580.15 455.75 578.85 455.300390625 577.8125 455.05 577.2 454.6701171875 577.3333984375 454.3 577.45 446.7572265625 579.846484375 440.25 581.25 440.346484375 581.8041015625 440.3 582.5
L 440.3 588.85
Q 440.3 589.85 439.75 589.9
L 439.25 589.65 439.25 581.45
Q 438.0052734375 581.7287109375 436.8 581.95 432.71328125 582.726953125 427.9 583.3 428.56796875 584.60703125 428.65 585.55 428.8 586.35 428.65 587.4 428.55 588.05 428.35 589.25 427.7 593.55 429.15 599.85 429.35 600.6 429.15 601.05 429 601.3 428.65 601.4 428.3 601.45 428.15 601.2 427.9 600.05 427.6 597.75 426.9 592.95 427.1 590.55 427.5 588.05 427.55 586.8 427.6943359375 584.7322265625 427 583.4 425.1306640625 583.617578125 423.15 583.8 420.2908203125 584.0513671875 415.6 584.35 415.749609375 585.55625 415.7 586.5
L 415.65 588
Q 415.6 588.9 415.7 589.5
L 416.1 591
Q 416.2 591.6 416.25 592.8 416.2 593 415.9 593.05 415.65 593.1 415.45 592.95 415.1 592.75 415.1 592.15
L 415.1 591.25
Q 414.75 590.25 414.65 589.7 414.55 589.2 414.6 588 414.7 586.85 414.5 586.25 414.05 585.3 413.95 584.8 413.9328125 584.628125 413.95 584.45 411.8330078125 584.6044921875 409.4 584.75 404.344921875 585.062890625 399.9 585.3
M 336.8 587.8
Q 336.9880859375 589.800390625 336.95 591.55 336.85 593.8 336.2 597.95 335.5 602.35 335.35 604.35 335.15 607.1 335.1 612.6 335.0705078125 612.991015625 335 613.4 349.1791015625 612.4076171875 368.2 611.05 381.1880859375 610.1138671875 392.8 609 394.6130859375 593.97109375 394.85 585.6 384.4162109375 586.2607421875 378 586.6 377.626171875 586.6181640625 377.25 586.6 377.2650390625 586.954296875 377.25 587.3 377.2 587.7 376.95 589.35 376.4 593.35 376.75 597 376.85 598.1 376.6 598.6 376.45 599 376.05 599.2 375.65 599.35 375.3 599.15 374.8 598.85 374.8 597.8
L 374.75 593.05
Q 374.75 591.15 374.95 590.25
L 375.35 588.45
Q 375.319921875 587.42578125 375.3 586.7 369.5861328125 586.9966796875 364.25 587.2 364.263671875 587.3666015625 364.25 587.55 364 590.35 364 597.65 364.1 600.4 364.3 601.3 364.65 602.75 364.15 603.2 363.8 603.5 363.3 603.35 362.85 603.2 362.55 602.8 362.2 602.15 362.2 601
L 362.15 590.1
Q 362.15 588.29609375 362.45 587.25 354.02421875 587.5669921875 346.6 587.7 341.494140625 587.7984375 336.8 587.8
M 349.95 589.35
Q 349.95 588.75 350.35 588.6 350.7 588.55 350.95 588.8 351.65 589.45 351.65 591.05 351.7 592.8 351.55 596.35 351.55 599.4 352.2 601.45 352.5 602.25 353.05 603.9 353.4 605.3 353 606.3 352.9 606.7 352.6 606.7 352.3 606.65 352.2 606.2
L 351.25 601.9
Q 350.55 598.9 350.5 597.35 350.5 596.9 350.6 594.2 350.65 592.3 350.35 591.15 349.95 589.55 349.95 589.35
M 285.55 581.8
Q 285.4693359375 581.776171875 285.4 581.75 289.328515625 595.629296875 291.15 609.65 291.31328125 610.8595703125 291.45 611.95 291.69921875 611.96640625 291.95 612.05
L 291.95 611.9
Q 293.25546875 612.0349609375 293.8 613.05 294.1259765625 613.3076171875 294.4 613.65 295.6 615.15 294.7 616.5 299.306640625 616.0359375 330.1 613.75 330.20625 612.8216796875 330.25 612.05 330.35 610.75 330.3 608.4 330.3 605.85 330.35 604.75 330.45 602.75 331.35 596.75 332.05 591.75 331.9 588.7 331.880859375 588.194921875 331.85 587.75 322.9576171875 587.6158203125 315.8 587.05
L 315.75 587.05
Q 315.85390625 587.2845703125 315.9 587.55 316 588.2 315.95 589.65 315.65 596.05 316.25 602.45 316.45 605.05 316.4 606.1 316.3 608.15 315.4 609.45 314.85 609.05 314.85 608.15 314.85 607.7 315.05 606.5 315.3 605.25 315.2 603.25
L 314.85 592.25
Q 314.8064453125 589.6396484375 314.6 586.95 308.4392578125 586.434765625 302.7 585.55 302.8107421875 586.2650390625 302.9 587.05
L 303.7 594.05
Q 303.9 596.4 304.3 597.25
L 304.95 596.8
Q 305.35 597.05 305.4 597.6 305.45 598.1 305.1 598.45 304.75 598.8 304.25 598.75 303.75 598.75 303.45 598.4 303.15 597.95 303.05 597.25
L 302.2 590.85
Q 301.85 588.5 301.8 586.7 301.751171875 585.933984375 301.7 585.4 293.121484375 584.015234375 285.55 581.8
M 321.65 590.45
Q 321.9 590.35 322.2 589.75 322.4 589.2 322.7 589.15 323 589.05 323.3 589.4 323.55 589.7 323.5 590.05 323.45 590.5 323.15 591.4 323.1 591.75 323.1 592.5
L 322.8 593.1
Q 322.7 593.4 322.95 594.15 323.65 596.35 323.05 598.5 323.05 598.6 322.75 599.6 322.6 600.25 322.6 600.65 322.65 601.15 322.75 602.1 322.65 603.05 321.9 603.1 321.65 602.55 321.65 601.3
L 321.65 590.45
M 300.35 621.5
Q 295.9 621.9 293.95 621.5 292.9787109375 621.264453125 292.1 620.85 292.3888671875 630.7837890625 289.9 640.5 288.95 644.15 287.8 646.8 286.7244140625 649.240625 285.25 651.45 289.7892578125 653.8134765625 294.9 655.85 295.3703125 656.0384765625 295.85 656.2
L 295.85 656.2
Q 295.9 655.55 296.25 654.55 296.75 653.1 296.8 652.85 297.05 650.7 297.5 649.75 297.6 649.5 298.5 647.95 299.05 646.85 298.8 646
L 298.65 645.3
Q 298.6 644.9 298.9 644.75 299.25 644.6 299.6 645.15 300.3 646.2 299.65 647.7 299.35 648.55 298.5 650.15 298.35 650.45 297.85 652.4
L 297.05 656.45
Q 297.3 656.35 297.55 656.55 297.73828125 656.6912109375 297.8 656.95 300.1740234375 657.850390625 302.75 658.7 302.777734375 658.3822265625 302.85 658.05
L 303.35 656.75
Q 304.05 655.25 304.25 654.05 304.45 652.85 304.6 652.55 305.2 651.7 305.3 651.15 305.35 650.75 305 650.15 304.55 649.3 304.5 649.15 304.3 648.65 304.55 648.5 304.95 648.2 305.35 648.85
L 306.05 650.15
Q 306.45 650.9 306.35 651.35 306.3 651.5 305.8 652.4 305.6 652.75 305.25 654.2
L 303.85 659.05
Q 306.4958984375 659.9158203125 309.3 660.7 309.6041015625 659.7046875 309.65 659.2 309.75 658.7 309.75 657.6 309.75 656.55 309.85 656.05 309.95 655.45 310.35 654.45 310.8 653.3 310.9 652.85 311.25 651.7 311.4 650.25
L 312.8 639.15
Q 313 637.75 313.3 637.15 313.55 636.7 313.65 636.45 313.85 636.05 313.85 635.75 313.9 635.4 313.6 634.9
L 313.15 634.05
Q 312.55 632.85 313.4 631.85 313.8 631.35 314.4 631.2 315 631.05 315.55 631.3 316.3 631.6 317 633.05 317.85 634.55 317.85 635.65 317.9 636.3 317.65 637.15 317.5 637.65 317.15 638.6 316.55 640.4 316.15 643.6
L 315.2 651.4
Q 315 653.7 314.5 654.95 314.3 655.5 313.85 656.6 313.45 657.9 313.65 660.6 313.6197265625 661.2642578125 313.4 661.85 316.5060546875 662.6689453125 319.8 663.45 321.8765625 663.9423828125 323.9 664.4 323.9572265625 663.8796875 324.05 663.3
L 326.95 644.05
Q 327.65 639.2 327.8 636.9 327.9 635.35 327.9 632.05 327.85 628.85 328 627.15 328.2 624.75 329.15 619.6 329.2138671875 619.2701171875 329.25 618.95 312.505859375 620.22265625 300.35 621.5
M 392.2 614.2
Q 383.01640625 615.098828125 373 615.85 348.8 617.5 336.65 618.4 335.481640625 618.483984375 334.3 618.55 334.20234375 619.3955078125 334.05 620.3 333.15 625.45 332.95 627.95 332.75 630.6 332.7 635.95 332.5 643.25 330.2 655.5 329.5 659.4 329.6 661.4 329.65 662.25 329.85 663.9 329.948828125 664.8892578125 329.9 665.65 338.6931640625 667.418359375 346.5 668.35 354.0009765625 669.26484375 361.05 669.5 360.933984375 668.7841796875 361.35 668.4
L 361.9 668.05
Q 362.15 667.75 362.15 667.05
L 362.1 664.5
Q 362 662.9 362.2 661.85 362.2 661.75 362.5 660.15 362.65 659.05 362.65 656.9 362.65 654.85 362.5 653.85
L 362.2 652.4
Q 362.1 651.55 362.1 649.85
L 362.1 643.4
Q 362.1 641.4 362.5 640.55 362.8 640 363.15 640.05 363.55 640.1 363.45 641.05 363.15 642.25 363.05 644.75 363 647.45 363.4 653.05
L 363.6 656
Q 363.8 658.8 363.5 660.55
L 363.2 662.15
Q 363.1 663.05 363.1 664.85
L 363.2 669.55
Q 368.5015625 669.6482421875 373.55 669.35 379.2837890625 669.0203125 385.05 668.15 385.054296875 667.663671875 385.1 667.1 385.2 666.1 385.6 663.9 387.7 652.65 390.1 632.2
L 392.2 614.2
M 375.25 651.55
Q 375.55 651.65 375.65 652.1 376.05 653.65 375.2 656.15 373.9 659.5 373.8 660.1 373.55 661.25 373.7 664.25 373.75 666.9 373.25 668.3 373.05 668.85 372.8 669 372.3 669.3 372.05 668.9 372 668.55 372.4 666.85 372.7 665.65 372.6 663.25 372.5 660.8 372.75 659.65 372.85 659.15 374.05 656.2 374.9 654.1 374.7 652.7
L 374.7 651.95
Q 374.8 651.45 375.25 651.55
M 348.9 651.85
Q 349.05 652.05 349.15 652.6 349.55 655.05 349.75 657.45 350.15 662.05 350 667.55 349.9 668.8 349.2 668.65 348.9 668.1 348.9 666.7 349 662.25 348.9 660
L 348.1 652.35
Q 348 652 348.15 651.8 348.45 651.4 348.9 651.85
M 456.9 614.35
L 457.4 608.7
Q 457.523046875 606.903515625 457.55 604.2 452.4146484375 605.5845703125 445.2 607 425.1689453125 610.9421875 397.15 613.75
L 394.85 634.25
Q 392.85 651.9 391.35 660.5 390.555859375 665.1244140625 390.6 667.25 396.0201171875 666.2439453125 401.5 664.8 401.422265625 664.120703125 401.7 662.5
L 402.65 656.65
Q 402.9 655.6 402.95 654.55 403.1 652.7 403.05 651.15 403.05 647.35 403.1 646.6 403.25 643.7 403.9 641.2
L 404.4 639.2
Q 404.65 637.75 404.6 635.5 404.55 632.35 404.55 631.8 404.65 630.5 405.4 626.75
L 405.15 625.6
Q 405.25 625.25 405.7 625.35 406 625.4 406.2 625.8 406.55 626.5 406.35 627.55 406.25 628.2 405.9 629.4 405.55 630.9 405.65 633.55 405.75 636.6 405.6 637.75 405.55 638.35 404.95 641.1 404.2 644.45 404.1 647.75 404.05 649.5 404.1 652.95 404.05 655.95 403.55 658 403.1 659.6 403.05 660.15
L 403.05 661.9
Q 403.1 662.95 402.75 663.55 403.2 663.65 403.3 664.15 403.3142578125 664.22109375 403.3 664.3 410.2498046875 662.353515625 417.25 659.7 417.2392578125 659.5599609375 417.25 659.4 417.3 658.65 417.75 657.4 418.25 655.95 418.35 655.35 418.45 654.85 418.4 653.85 418.4 652.85 418.45 652.35 418.7 651.25 418.8 650.7 418.95 649.9 418.95 648.25
L 418.85 642.2
Q 418.85 640.9 419.05 640.3 419.35 639.7 419.4 639.35 419.4 638.45 419.5 638 419.95 636.95 419.95 636.4 420 636.05 419.8 635.55 419.6 634.85 419.55 634.7 419.45 634.2 419.6 633.8 419.8 633.35 420.25 633.3 420.9 633.25 421.35 634.5 421.9 636.2 421.75 637.3
L 421.4 638.45 420.85 641.1
Q 420.7 642.1 420.7 644.1
L 420.8 649.1
Q 420.8 650.95 420.55 651.85
L 420.25 653.05
Q 420.15 653.5 420.25 654.5 420.25 656.35 419.6 657.95 419.35 658.65 419.4 658.85
L 419.4 658.85
Q 423.9333984375 657.0876953125 428.5 655 433.891796875 652.5556640625 438.45 650 438.4888671875 649.9302734375 438.5 649.85 439 646.3 438.9 641.75 438.8 639.3 438.4 633.65
L 437.95 628.35
Q 437.95 627.2 438.45 627.05 439.15 626.75 439.6 628 440.7 630.8 440.7 636.45
L 440.75 648.7
Q 444.4021484375 646.5685546875 447.5 644.35 453 640.44375 458.6 635 458.13359375 634.641015625 457.8 633.95 457.35 633.1 457.15 631.4 456.2 623.15 456.9 614.35 Z"/>
</g>

<g id="sexy_monkey_0_Layer0_0_FILL">
<path fill="#FFFFFF" stroke="none" d="
M 279.7 532.65
Q 279.5 529.35 279.05 527.65 278.35 524.9 276.6 523.55 275.65 522.8 275.1 523.2 274.6 523.5 274.6 524.6
L 275.15 555.65
Q 275.25 559.3 274.3 561.05 273.5 562.6 271.6 563.75 270.35 564.5 268 565.35
L 246.1 573.6
Q 244.7 574.1 244.45 574.9 244.2 575.8 245.25 576.4 246.15 576.95 247.35 577 261.45 577.6 275 576.95 281.05 599.55 283.15 623.3 283.35 625.05 284.15 625.3 285 625.6 285.6 624.6 286.1 623.75 286.1 622.6 286.1 603.65 290 585.25 290.6 582.25 291.55 580.85 292.6 579.35 294.65 578.4 296 577.8 298.55 577.1 309.35 574.4 319.4 573.35 321.3 573.15 321.6 572.15 321.85 571.25 320.7 570.7 319.75 570.25 318.5 570.3 313.6 570.6 308.1 569.55 305.1 568.95 297.85 566.65 291.35 564.55 287.5 564 284.7 563.7 283.65 562.7 282.65 561.75 282.25 559 280.4 545.95 279.7 532.65 Z"/>
</g>
</defs>

<g transform="matrix( 1.10211181640625, 0, 0, 1.10211181640625, 88.05,24.05) ">
<g transform="matrix( 1, 0, 0, 1, 0,0) ">
<use xlink:href="#sexy_monkey_0_Layer4_0_FILL"/>
</g>

<g transform="matrix( 1, 0, 0, 1, 0,0) ">
<use xlink:href="#sexy_monkey_0_Layer3_0_FILL"/>
</g>

<g transform="matrix( 1, 0, 0, 1, 0,0) ">
<use xlink:href="#sexy_monkey_0_Layer2_0_FILL"/>
</g>

<g transform="matrix( 1, 0, 0, 1, 0,0) ">
<use xlink:href="#sexy_monkey_0_Layer1_0_FILL"/>
</g>

<g transform="matrix( 1, 0, 0, 1, 0,0) ">
<use xlink:href="#sexy_monkey_0_Layer0_0_FILL"/>
</g>
</g>
</svg>
