
<svg xmlns="http://www.w3.org/2000/svg" version="1.1" xmlns:xlink="http://www.w3.org/1999/xlink" preserveAspectRatio="none" x="0px" y="0px" width="1080px" height="1080px" viewBox="0 0 1080 1080">
<defs>
<g id="Sleepy_monkey_0_Layer4_0_FILL">
<path fill="#727282" stroke="none" d="
M 223.75 335
Q 217.1 337.4 205.15 343.15 177.75 356.25 164.2 363.85 142 376.35 126.6 389.65 118.7 396.45 115.7 402.05 112.6 407.7 111.5 417.25 110.35 427.4 111.25 438 112.2 448.25 115.5 460.35 117.75 468.8 122.4 482.1 126.6 494.15 129.9 500.95 134.75 511.05 140.9 517.7 142.7 519.65 146.5 523.4 147.4 524.3 148.15 525.15
L 168.6 503.75
Q 181.65 490.1 188 483.1 198.55 471.45 206.3 461.5 217.2 447.4 228.75 428.5 235.95 416.75 248.8 393.85 253.6 385.3 256.15 378.6 255.25 378.5 254.65 378.35 252.6 377.8 251.35 376.65 249.95 375.3 249.45 372.85 249.1 371.3 249.05 368.4
L 249 349.95
Q 248.6 349.6 248.25 349.15 244.6 344.9 246.4 340.45 247.25 338.3 248.95 336.8
L 248.95 333.55
Q 248.95 331.6 249.05 330.3 248.75 330.3 248.4 330.35 245 330.5 243.25 330.6 234.3 331.15 223.75 335
M 765.3 323.85
Q 759.15 321.15 753.5 320.75 752.6 320.7 746.05 320.75 742.2 320.8 739.6 320.25 740.35 322.8 740.85 325.95 745.45 355.65 751 386.6 754.7 407.05 757.85 418.5 762.65 435.9 769.8 448.55 781.6 469.5 810.9 493.8 817.4 499.25 829.45 508.95 830.35 504.65 834.6 500.2 835.5 499.25 839 496.05 841.75 493.5 843.2 491.7 848.25 485.5 850 475.6 851.1 469.25 851.1 457.55 851.1 449.45 850.85 445.4 850.4 438.7 848.95 433.5 847.6 428.45 843.45 419.6 835 401.15 830.1 391.75 822.15 376.6 813.95 365.55 798.2 344.3 776.05 329.8 770.05 325.9 765.3 323.85
M 666 375.5
Q 658.95 369.4 648.1 362.7 631.35 352.4 616.8 347.45 598.95 341.35 582.95 342.55 573.3 343.25 561.8 346.95 554.8 349.2 541.35 354.7 527.65 360.35 520.9 362.55 509.4 366.35 499.75 367.2 488.3 368.2 472.4 365.5 454.3 361.8 445.2 360.2 430 357.55 411.1 356.65 398.3 356 376.65 355.95 365.85 355.95 360.1 356.5 350.95 357.4 344.15 360.1 336.85 363 329.25 369.2 324.5 373.05 316.3 381.25 309.9 387.6 306.85 391.3 301.95 397.2 299.55 402.85 297.2 408.4 296.45 415.4 295.85 421.05 296.25 428.5 297.3 451.6 304.9 473.7 306.75 479.05 312.4 493.25 317.4 505.7 319.65 512.95 325.3 531.2 323.4 545.45 325.3 546.1 326.6 547.75 329.85 551.9 326 557.5 322.85 562.15 316.8 565.5 296.4 577 283.7 585.35 266.05 597 253.2 608.8 238.2 622.6 228.15 638.15 217.05 655.2 212.8 673.15 206.65 699.05 214.25 727.75 221.2 754 238.25 777.9 252.85 798.35 275.8 818.55 292.05 832.9 319.65 852.85 337.85 866.05 349.15 872.65 366.1 882.55 381.35 886.9 400 892.2 425.5 891.7 432.5 891.55 470.4 888.7 485.1 887.55 517.2 886.15 547.9 884.75 564 883.4 618.2 878.95 654.65 864.9 665.1 860.85 672.8 856.55 682.2 851.25 688.95 844.85 695.8 838.4 703.5 826.9 711.9 813.85 716.4 807.55 726.6 794.6 731.6 788 740.35 776.35 744.05 766.95 747.9 757.1 748.85 743.85 749.45 735.65 748.95 719.9 748.45 703.35 747.45 694.75 745.8 680.9 741.7 670.5 735.35 654.4 719.45 637.95 713.7 631.95 704.8 624 694.65 615.05 689.7 610.6 671.95 594.65 662.55 580.45 650.25 561.9 650 543.65 649.95 539.9 650.45 535.65 650.2 533.2 650.35 530.7 650.6 527 651.95 522.45 652.7 519.85 654.7 514.45 659.15 502.55 661.95 497.15 665.45 490.75 667.05 487.45 670.2 480.95 673.15 470.3 677.6 454.35 678.15 452.7 679.4 448.95 680.6 446.65 682.25 443.4 684.45 441.45 685.85 440.2 687.5 439.5 688.2 432.7 688.25 427.25 688.35 406.45 680.05 392.05 675.05 383.35 666 375.5
M 652.95 454.8
Q 652.1 457.45 650.15 459.5 648.95 460.7 647 462 644.75 463.45 643.6 464.15 641.9 465.25 638.45 467.85 635.1 470.3 633.3 471.5 630.95 473.05 627.7 474.7 626.1 475.5 621.8 477.5 618 479.25 616.55 479.8 612.7 481.4 607.6 482.65 601.45 484.15 596.3 484.55 593 484.85 586.3 484.95 581.9 485 579.7 484.9 576 484.75 573.15 484.15 570.2 483.5 566.6 482.1 564.5 481.2 560.3 479.25
L 547.55 473
Q 543.75 471.1 542.45 469.35 540.85 467.1 541.25 463.95 541.6 461 543.5 458.6 544.95 456.75 546.9 455.7 549.05 454.55 551.15 454.7 553.4 454.85 557.3 457.2
L 565.45 462.1
Q 568.55 464 570.2 464.85 572.95 466.25 575.35 466.85 577.5 467.4 580.25 467.5 581.95 467.6 585.3 467.55 589.95 467.45 592.3 467.3 596.15 467.05 599.2 466.5 604.6 465.45 612.9 462.2 620.25 459.35 624.8 456.6 629.65 453.7 636.45 447.75 638.95 445.55 640.55 444.55 643 443.05 645.25 443 647.95 442.9 650.25 444.8 652.5 446.65 653.2 449.4 653.85 452 652.95 454.8
M 530.2 511.15
Q 535.4 511.5 539.25 512.3 558.65 516.25 576.05 534.6 593.7 553.25 593.05 571.15 592.75 579.6 588.3 588.05 584.3 595.55 577.5 602.25 572.05 607.55 563.7 613.4 553.8 620 548.85 623.3 545.15 625.85 543.5 626.8 540.45 628.65 537.8 629.5 534.6 630.55 531.45 630.4 528.05 630.2 525.55 628.5 522.8 626.7 521.9 623.4 520.9 620.05 522.55 617.4 523.95 615.25 527.15 613.85 529 613.05 532.95 611.8 535.8 610.75 539.1 608.85 541 607.75 544.8 605.2 555.05 598.2 557.9 596.1 562.45 592.75 565.35 590.05 569.15 586.45 571.55 582.8 574.3 578.6 575.35 574 576.45 569.05 575.2 564.6 574.1 560.7 570.4 555.55 563.15 545.3 554.3 538.65 544.25 531.15 533.4 529.25 529.3 528.55 523.4 528.45 516.7 528.5 513.35 528.4 504.9 528.25 490.9 526.35 484.2 525.4 481.25 525.2 475.8 524.85 471.6 525.6 463.5 527.1 454.6 533.55 448.2 538.35 444.45 543.25 440.8 548.15 438.15 555.35 436.55 559.7 434.25 568.55 432.2 576.1 432.25 580.35 432.3 583.55 433.35 587.4 434 589.8 435.55 594.25 437.15 598.8 438.1 600.9 439.75 604.5 441.7 606.95 443.55 609.3 447.95 613.65 451.4 617.7 451.45 621.35 451.5 624 449.8 626.3 448.15 628.6 445.6 629.35 442 630.45 437.9 628.3 434.6 626.6 431.4 623 420.8 610.95 417.35 593.55 414.1 577.25 417.85 560.4 419 555.45 420.35 551.35 422.55 544.7 425.25 540.05 429.05 533.55 436.6 526.25 454.4 509.1 471.8 507.4 475.65 507.05 480.7 507.4 482.8 507.55 489.6 508.3 504.9 510.05 521.05 510.75 528.6 511.05 530.2 511.15
M 504.45 583.6
Q 507.7 581.45 513.1 579.25 516.1 578.05 522.15 575.6 527.3 573.25 529.15 572.7 533.2 571.55 536.25 572.65 539.3 573.75 540.85 577 542.35 580.2 541.25 583.3 540.1 586.6 536.25 588.85 533.8 590.3 528.85 591.9 520.4 594.6 515.55 597.45 508.65 601.4 505.7 607.05 504.5 609.3 502.65 614.25 500.85 618.5 498.35 620.3 494.9 622.8 490.35 621.35 485.75 619.9 484.4 615.9 483.2 612.3 484.95 607.85 486.15 604.8 489.3 600.3 493.6 594.2 496.15 591.2 500.25 586.4 504.45 583.6
M 426.8 439.5
Q 428.75 438.75 430.9 439.1 433.1 439.45 434.65 440.8 437.8 443.45 438.15 448.9 438.6 454.4 435.8 457.9 433.6 460.65 428.6 462.25 422.75 463.75 420.05 464.8 418.1 465.6 415.6 467.05 414.2 467.9 411.35 469.65 406.95 472.3 401.05 474.95 397.65 476.5 390.35 479.45 385.35 481.5 382.85 482.35 378.6 483.75 375.1 484.3 372.7 484.7 369.6 484.8 368.1 484.85 364.05 484.85
L 350.45 484.8
Q 345.4 484.8 342.65 484.45 338.35 483.85 335.3 482.15 331.75 480.15 330.15 476.4 328.4 472.4 330.15 469.1 331.15 467.15 333.25 465.85 335.1 464.7 337.5 464.25 341.85 463.45 345.9 465.15 346.7 465.5 348.2 466.3 349.55 466.95 350.55 467.2 352.2 467.65 355.15 467.55
L 365.6 467.4
Q 370.65 467.3 373.15 466.85 376.25 466.3 382.15 463.9 394.3 459.05 400.35 455.8 403.85 453.95 410.8 449.95 416.95 446.75 421.85 445.8 422.1 443.7 423.5 442 424.85 440.25 426.8 439.5
M 439.2 588.15
Q 438.6 585.95 439.6 583.6 440.6 581.35 442.55 579.9 446 577.4 451.55 577.65 456.7 577.9 462.3 580.5 466.55 582.5 471.95 586.4 478.25 591 480.75 594.95 482.5 597.65 482.95 600.7 483.45 603.95 482.35 606.7 481.1 609.6 478.15 611.15 475.1 612.7 472.3 611.65 470.05 610.8 468 608.05 465.85 604.75 464.65 603.2 461.05 598.45 455.3 596.5 453.8 596 450.65 595.4 447.55 594.75 446.05 594.25 443.55 593.45 441.8 592 439.8 590.35 439.2 588.15
M 455.6 677.7
Q 462.75 670.5 472.65 665.55 481.75 661.05 492.6 658.7 502.05 656.7 513.5 656.15 522.25 655.7 534.6 656.1 545.35 656.5 552.6 657.25 562.4 658.3 570.35 660.35 582.65 663.5 598.75 671.3 603.85 673.75 606.75 675.7 610.85 678.55 613.05 681.95 615 685 616.25 689.85 616.95 692.65 618.15 698.35 619 701.75 623.65 714.05 627.25 723.65 627.75 729.95 628.2 735.4 627 742.1 626.25 746.3 624.1 754.1 621 765.4 619.2 771.4 616.25 780.95 613.25 788.4 608.15 801.2 601.55 809.15 591.95 820.85 573.3 829.15 568.15 831.45 564.3 832.55 559.25 834 554.85 834 548.4 834.05 540.95 830.95 536.4 829.05 528.05 824.25 515.15 816.75 508.95 812.55 498.6 805.6 491.6 798.55 486.95 793.85 482 787.35 478.9 783.25 473.4 775.25 464.9 762.9 460.85 756.6 454.05 746.15 449.4 737.3 442.9 724.95 441.65 716 440.25 705.8 444.2 695.4 448 685.5 455.6 677.7 Z"/>

<path fill="#8705DA" stroke="none" d="
M 893.05 381
Q 891.85 382.7 891.3 383.55 886.6 391.05 887.45 399.75 888.2 407.6 893.55 414.2 898.75 420.6 906.35 423.65 914.2 426.8 921.05 425.15 923.6 424.5 926.55 423 928.35 422.1 931.7 420.05 941.85 413.9 946.95 408.85 954.35 401.5 955.3 393.25 956.25 384.85 950.4 376.15 945.95 369.55 937.25 362.45 931.9 358.05 927.75 355.85 922.1 352.9 916.9 352.9 909.95 352.95 904.15 358.1 898.55 363.05 896.75 370.2 896.45 371.55 895.9 374.35 895.35 376.8 894.6 378.35 894.1 379.5 893.05 381
M 848.3 270.9
Q 846.2 271.55 845.15 271.9 841.3 273.3 835.8 277.6 830.2 282 827.45 283.6 828.1 285.45 827.05 286.35 824.6 287.05 822.15 286.35 820.2 287.35 820.1 287.45 816.6 289.75 816.2 292.8 815.8 296.1 819.15 298.15 822.45 300.2 825.2 298.3 825.45 301.6 827.95 304.1 830.45 306.6 833.75 306.9 833 308.6 834.1 310.4 834.15 310.25 834.2 310.15 834.95 308.9 836.3 308.3 837.4 307.8 839 307.7 839.3 307.7 841.85 307.7 852.65 307.6 862.1 302.25 866.45 299.75 869.1 296.4 872.15 292.5 872.1 288.25 872.1 286.7 872.15 286.45 872.25 285.45 872.75 284.9 873.5 284.1 874.75 284.45 874.5 284.1 874.3 283.75 871.9 280.1 871.4 278.6 870.7 276.65 870.65 273.25 870.5 269.05 870.3 267.8 869.75 264.9 867.7 262.9 865.5 260.75 863 261.45 862.35 259.25 860.2 258 860.15 257.95 860.1 257.95 860.5 260.8 860.05 263.8 859.8 265.5 859 266.7 858.05 268.1 856.7 268.05 855.75 268 854.95 267.25 854.35 266.7 854.05 265.9 853.9 266.5 853.6 267.15 852.8 268.65 851.3 269.55 850.2 270.3 848.3 270.9
M 699.45 18.75
Q 699.1 18.35 698.7 18.05 697.7 17.25 695.9 16.35 693.5 15.1 692.95 14.8 689.3 12.2 687.45 11.1 684.15 9.2 681.6 9.9 679.85 10.35 678.55 12 677.4 13.45 677 15.4 677 15.45 677 15.5 678 17.5 679.25 20.7 697 66.6 709.75 113.35
L 718.4 145.75
Q 719.05 148 718.8 149.8 718.55 152 716.9 152.65 715.35 153.25 713.6 152 712.45 151.2 710.9 149.2 708.05 145.85 706.65 144.15 704.05 141.15 702.8 138.8 701.7 136.75 700.85 133.9 692.4 125.5 684.45 118.8 674.35 110.3 653.2 95.55 631.7 80.5 621.85 72.35 615.8 67.3 593.65 46.55 583 36.55 574.35 29.6 573.35 29.8 572.4 30.05 568.15 31.05 565.95 30.75 564.25 30.45 562.95 29.5 561.5 28.4 561.15 26.9 560.6 24.45 562.7 22.25 563.05 21.9 563.45 21.55 561.85 20.55 560.75 20.45 559.2 20.3 558 21.2 546.25 19.5 530.35 22.15 510.5 26.45 500.65 28.2 493.4 29.5 480.5 31.05 466.1 32.8 460.3 33.7 436.75 37.45 422.4 45.85 417.85 48.5 412.7 52.45 409.25 55.05 403.55 59.85
L 377.25 81.8
Q 373.75 84.65 372.05 86.7 369.45 89.7 368.75 92.8 368.3 94.8 368.8 96.7 363.85 97.25 362.4 99.8 361.3 101.7 362 103.75 362.2 103.5 362.4 103.3 365.35 100.25 367.75 100.55 369.45 100.75 370.6 102.3 371.7 103.8 371.75 105.65 371.8 107.75 370.3 110.8 378.9 113.8 391.5 112.5 399.3 111.7 414.9 109.2 421.7 108.5 430 108.65 435.8 108.75 445.15 109.4 570.65 118.3 654.15 164.5 647.3 162.8 639.9 161.65 625.05 159.3 606.3 158.85 595 158.55 572.45 159
L 331.7 163.85
Q 330.55 164.55 329.3 165.25 327.05 166.5 322.85 168.3 314.75 171.9 311.5 168.45 311.2 168.1 310.95 167.75 309.7 168.8 308.6 170.3 307.75 171.45 306.65 173.25 305.65 172.95 304.5 173.1 301.6 173.55 299.1 176.45 297.4 178.4 295.5 182.2
L 286.4 200.1
Q 284.45 204 283.8 206.4 282.8 210 283.75 212.85 284.85 216.1 288.65 217.05 291.2 217.7 292.75 216.6 294 217.9 295.45 218.45 296.65 220.05 298.8 221.3 302.1 223.2 307.15 224 307.7 224.1 308.25 224.2 372.15 211.95 436.3 205.6 460.15 203.2 479.1 202.2 502.05 201 522 201.5 536.5 201.9 565.45 204.05 570.4 204.4 574.9 204.75 583.85 205 589.25 205.1 625.25 205.6 650.35 201.2 657.45 199.9 659.85 199.6 665.2 198.95 669.35 199.45
L 675.7 200.65
Q 679.5 201.35 682.1 201.1 685.5 200.8 688 198.6 690.6 196.35 690.5 193.55 693.85 195.95 696.8 198.65 698.75 200.4 699.65 200.95 701.35 202.05 702.95 201.95 704.85 201.8 706.1 200.2 707.75 201.5 708.8 202.2 712.05 204.3 715.05 204.95 720.2 206 726.05 203.15 726.85 203.6 727.7 203.9 729.3 204.45 730.7 204.25 730.75 203.9 730.9 203.6 731.7 201.7 733.45 201.65 733.9 201.65 734.5 201.85 735.05 201.05 735.6 199.95 736.35 198.35 737.85 195.05 739.35 192.45 742.55 190.2 743.4 189.6 748.5 186.55 760.8 179.45 774.15 165.35 784.45 154.5 790.95 144.2 793.45 140.25 795.4 136.3 795.4 136.15 795.35 136.05 795 134.6 795.35 133.25 795.8 131.75 797 131.3 797.4 131.15 797.8 131.15 800.2 125.4 801.55 119.7 802.7 115.1 801.95 112.35 801.45 110.45 800.1 109.15 798.65 107.7 796.85 107.65 794.3 107.5 792.2 110.05 792.05 110.2 791.95 110.4 791.7 112.75 790.45 113.95 790.05 114.35 789.55 114.6 789.4 114.9 789.25 115.25 782.5 130.65 768.55 145.15 757.8 156.3 740.4 169.05 739.7 127.4 726.85 88.1 724.05 79.5 716.95 61.05
L 703.45 26.05
Q 702.95 25.5 702.35 24.85 700.75 23.05 700.1 21.9 699.2 20.2 699.45 18.75
M 824.3 171.25
Q 823.6 171.6 822.95 172.1 823.35 174.05 823.15 175.8 822.95 177.25 822.2 178.3 821.35 179.5 820.1 179.55 818.95 179.65 818 178.75 817.75 179.1 817.6 179.35 815.25 183.25 814.8 184.05 813.6 186.5 812.8 189.95 812.4 191.7 811.7 196.1 811.05 201.15 810.3 205.05 809.1 211.7 807.2 215.35 806.9 216 805.35 218.65 804.2 220.65 803.7 222.05 803.15 223.65 802.45 227.15 801.65 230.15 800.1 231.5 798.75 232.65 795 233.5
L 781.3 236.45
Q 777.6 237.25 776 238.25 775.9 238.3 775.85 238.4 776.5 240 775.7 241.25 774.95 242.4 773.05 242.75 773 243.75 773.55 245.35 774.3 247.4 774.4 247.95 774.55 248.6 774.7 250.6 774.8 252.25 775.2 253.2 776 254.95 778.35 256.2 779.7 256.9 782.55 258.15 783.9 258.85 785.6 260.15 786.6 260.9 788.5 262.4 790.3 263.75 794.2 265.95
L 808.35 274.1
Q 810.6 275.35 811.95 275.9 812.6 276.15 813.3 276.3 813.45 276.2 813.7 276.1 814.1 275.95 815.3 275.65 816.3 275.4 816.85 275.1 815.9 273.5 816.6 271.7 817.35 270 819.25 269.65 819.8 269.55 819.75 269.25 821.55 269.75 822.5 270.25 823.05 270.55 823.45 270.95 826.15 267.45 829.05 261.75 837.4 245.3 842.7 227.3 843.25 225.35 843.75 223.55 843.5 222.85 843.15 221.9 842.35 219.65 842.85 218.2 843.1 217.5 843.65 217 844.2 216.45 844.9 216.45 845.05 216.45 845.15 216.45 845.45 214.3 845.5 212.45 845.6 207.3 843.75 198 843.3 195.6 842.9 194.35 842.3 192.35 841.3 191 839.1 188.2 835.45 187.85 836.25 181.3 833.25 175.65 830.95 171.25 827.7 170.75 826.05 170.45 824.3 171.25 Z"/>

<path fill="#E8E8E8" stroke="none" d="
M 572.45 159
Q 595 158.55 606.3 158.85 625.05 159.3 639.9 161.65 647.3 162.8 654.15 164.5 570.65 118.3 445.15 109.4 435.8 108.75 430 108.65 421.7 108.5 414.9 109.2 399.3 111.7 391.5 112.5 378.9 113.8 370.3 110.8 371.8 107.75 371.75 105.65 371.7 103.8 370.6 102.3 369.45 100.75 367.75 100.55 365.35 100.25 362.4 103.3 362.2 103.5 362 103.75 359.05 106.9 356.9 110.85 355.95 112.7 355.4 113.55 354.5 115.05 353.45 115.9 352.15 116.95 349.5 117.8 346.35 118.85 345.35 119.4 343 120.75 341.15 123.8 340.4 125.05 338.35 129.45 331.3 144.45 318.05 154.25 314.95 156.55 314.5 156.95 312.55 158.55 311.5 160.15 310.2 162.1 310.15 164.4 310.05 166.3 310.95 167.75 311.2 168.1 311.5 168.45 314.75 171.9 322.85 168.3 327.05 166.5 329.3 165.25 330.55 164.55 331.7 163.85
L 572.45 159
M 874.85 284.45
Q 874.8 284.45 874.75 284.45 873.5 284.1 872.75 284.9 872.25 285.45 872.15 286.45 872.1 286.7 872.1 288.25 872.15 292.5 869.1 296.4 866.45 299.75 862.1 302.25 852.65 307.6 841.85 307.7 839.3 307.7 839 307.7 837.4 307.8 836.3 308.3 834.95 308.9 834.2 310.15 834.15 310.25 834.1 310.4 833.4 311.6 833.8 312.8 834.25 314 836.25 315.3
L 878.4 343.55
Q 884.75 347.8 888.05 345.35 889.45 344.3 889.85 342.25 890.15 340.4 889.55 338.4 889.1 337 888 335 886.5 332.35 886.2 331.65 884.75 328.5 884.15 323.4 883.6 317.65 883.1 314.8 882.6 312 879.7 302.7 877.4 295.3 877.35 290.55 877.35 288.65 877.3 288.15 877.2 286.8 876.7 285.9 876.1 284.85 874.85 284.45
M 855.4 238.7
Q 854.95 237.1 853.95 235 852.8 232.65 852.2 231.45 850.35 227.45 849.45 223.65 848.8 221.05 848.55 220.4 847.95 218.6 846.95 217.5 846.1 216.55 845.15 216.45 845.05 216.45 844.9 216.45 844.2 216.45 843.65 217 843.1 217.5 842.85 218.2 842.35 219.65 843.15 221.9 843.5 222.85 843.75 223.55 843.25 225.35 842.7 227.3 837.4 245.3 829.05 261.75 826.15 267.45 823.45 270.95 823.05 270.55 822.5 270.25 821.55 269.75 819.75 269.25 819.8 269.55 819.25 269.65 817.35 270 816.6 271.7 815.9 273.5 816.85 275.1 816.3 275.4 815.3 275.65 814.1 275.95 813.7 276.1 813.45 276.2 813.3 276.3 811.7 277.05 811.55 278.4 811.45 279.9 813 280.7 813.95 281.2 815.75 281.4 817.3 284.35 820.6 285.8 821.35 286.15 822.15 286.35 824.6 287.05 827.05 286.35 828.1 285.45 827.45 283.6 830.2 282 835.8 277.6 841.3 273.3 845.15 271.9 846.2 271.55 848.3 270.9 850.2 270.3 851.3 269.55 852.8 268.65 853.6 267.15 853.9 266.5 854.05 265.9 854.35 266.7 854.95 267.25 855.75 268 856.7 268.05 858.05 268.1 859 266.7 859.8 265.5 860.05 263.8 860.5 260.8 860.1 257.95 859.85 256.55 859.45 255.2 859.1 254 858.05 251.25 857.05 248.7 856.7 247.25 856.4 245.95 856.1 243 855.8 240.2 855.4 238.7
M 853.25 262.7
Q 852.8 261.9 852.7 261.35 852.4 260.1 853.35 259 853.6 260.55 853.6 261.6 853.65 262.2 853.65 263.5 853.5 263.15 853.25 262.7
M 679.25 20.7
Q 678 17.5 677 15.5 676.65 14.85 676.35 14.3 674.45 10.9 671.9 9.15 669.45 7.45 665.8 6.75 663.2 6.3 659.05 6.25 643.95 6 625.2 8.25 613.8 9.6 591.55 13.3 583.65 14.55 579.25 15.55 572.55 17.05 567.4 19.2 565.05 20.15 563.45 21.55 563.05 21.9 562.7 22.25 560.6 24.45 561.15 26.9 561.5 28.4 562.95 29.5 564.25 30.45 565.95 30.75 568.15 31.05 572.4 30.05 573.35 29.8 574.35 29.6 583 36.55 593.65 46.55 615.8 67.3 621.85 72.35 631.7 80.5 653.2 95.55 674.35 110.3 684.45 118.8 692.4 125.5 700.85 133.9 701.7 136.75 702.8 138.8 704.05 141.15 706.65 144.15 708.05 145.85 710.9 149.2 712.45 151.2 713.6 152 715.35 153.25 716.9 152.65 718.55 152 718.8 149.8 719.05 148 718.4 145.75
L 709.75 113.35
Q 697 66.6 679.25 20.7
M 737.9 38.4
Q 734.35 35.25 731.35 33.15 730.4 32.45 722.5 27.6 717.15 24.25 714.15 21.4 712 19.15 710.85 18.1 708.85 16.3 707.05 15.55 704.8 14.65 702.45 15.45 699.95 16.3 699.5 18.5 699.45 18.6 699.45 18.75 699.2 20.2 700.1 21.9 700.75 23.05 702.35 24.85 702.95 25.5 703.45 26.05
L 716.95 61.05
Q 724.05 79.5 726.85 88.1 739.7 127.4 740.4 169.05 757.8 156.3 768.55 145.15 782.5 130.65 789.25 115.25 789.4 114.9 789.55 114.6 790.05 114.35 790.45 113.95 791.7 112.75 791.95 110.4 791.95 110.3 791.95 110.25 792.05 108.1 791.1 105.6 790.45 103.95 788.95 101.2
L 786.65 96.95
Q 780.55 85.8 777.05 80.9 772.2 73.95 765.7 67.95 763.4 65.85 762.95 65.35 761.4 63.85 760.5 62.45 759.2 59.95 758.45 58.75 757.55 57.2 755.95 55.5 755.25 54.75 753.05 52.6
L 744.05 44.05
Q 739.55 39.8 737.9 38.4
M 815.65 156.25
Q 813.85 152 813 150.3 811.05 146.35 807.9 141.85 805.9 139.05 801.95 133.95 799.75 131.05 797.8 131.15 797.4 131.15 797 131.3 795.8 131.75 795.35 133.25 795 134.6 795.35 136.05 795.4 136.15 795.4 136.3 793.45 140.25 790.95 144.2 784.45 154.5 774.15 165.35 760.8 179.45 748.5 186.55 743.4 189.6 742.55 190.2 739.35 192.45 737.85 195.05 736.35 198.35 735.6 199.95 735.05 201.05 734.5 201.85 733.9 201.65 733.45 201.65 731.7 201.7 730.9 203.6 730.75 203.9 730.7 204.25 730.25 205.75 730.9 207.15 731.6 208.6 733.15 209.85 733.65 210.3 736.15 211.95 739.9 214.55 745.45 220.1 751.85 226.55 754.45 228.65 755.8 229.75 758.5 231.9 760.75 233.8 761.95 235.6 762.25 236 763.35 238 764.15 239.4 764.9 240.2 767.4 242.85 771.85 242.85 772.5 242.85 773.05 242.75 774.95 242.4 775.7 241.25 776.5 240 775.85 238.4 775.9 238.3 776 238.25 777.6 237.25 781.3 236.45
L 795 233.5
Q 798.75 232.65 800.1 231.5 801.65 230.15 802.45 227.15 803.15 223.65 803.7 222.05 804.2 220.65 805.35 218.65 806.9 216 807.2 215.35 809.1 211.7 810.3 205.05 811.05 201.15 811.7 196.1 812.4 191.7 812.8 189.95 813.6 186.5 814.8 184.05 815.25 183.25 817.6 179.35 817.75 179.1 818 178.75 818.95 179.65 820.1 179.55 821.35 179.5 822.2 178.3 822.95 177.25 823.15 175.8 823.35 174.05 822.95 172.1 822.6 170.5 821.85 168.8 821.75 168.6 818.35 162.2 817.25 160.1 815.65 156.25 Z"/>

<path fill="#04071A" stroke="none" d="
M 714.95 336.95
L 706.7 310.95
Q 682.85 310.55 650.15 306 628.1 302.75 617.1 301.1 597.25 298.2 583.95 296.8 550.2 293.25 507.8 293.65 482.3 293.9 431.5 296.3 391.1 298.25 370.65 300.55 337 304.3 311.15 312.35 306.7 313.75 293.4 318.35 284.2 321.5 278 323.35 276.45 325.8 276.1 329.2 275.65 333.2 276.85 338.05 277.55 340.9 279.25 346.55 280.55 351.55 280.45 355.15 280.3 359.8 277.45 363.45 276.85 364.25 276.15 364.9 275.75 373.7 272.15 383.6 268.05 394.85 255.15 416.55 250.5 424.45 241.35 440.3 233.2 454.25 226.65 463.45 219.2 474 208.5 486.1 202.1 493.35 188.8 507.4
L 122.15 577.9
Q 112.45 588.2 108.15 593.5 100.75 602.5 96.55 610.8 90.7 622.35 88.35 637.35 86.45 649.55 86.75 665.5 87.3 698.3 95.45 730.4 103.6 762.5 118.8 791.65 129.1 811.45 146.75 836.7 158.65 853.65 168.7 865.5 181.35 880.4 194.2 891.1 205.2 900.25 219.9 909.25 230.55 915.75 247.4 924.65 299.15 952.05 346.05 971.05 371.5 981.35 389.1 985.3 413.35 990.75 433.5 987.45 440.9 986.2 451.9 982.9 468.25 977.95 470.15 977.45 485.95 973.25 508.3 970.9 521.15 969.55 547 967.5 562.35 966.05 581.4 963.45 590.1 962.25 605.45 959.95 606.1 959.25 606.9 958.7 609.9 956.6 614.4 955.8 617 955.3 622.65 955 638.55 954.15 654.35 951.55 675.25 946.85 690.95 939.85 695.4 937.85 698.05 937.35 702.1 936.55 704.85 938.3 705 938.4 705.2 938.55 734.95 928.15 762.45 911.85 805.3 886.4 846.65 844.05 855.6 834.9 861.85 827.55 869.65 818.35 875.3 809.65 884.55 795.5 890.5 779.2 896.3 763.15 898.45 746.1 899.65 736.25 899.8 724.55 899.9 715.35 899.35 702.85 897.35 659.35 888.95 627.4 878.4 587.4 856.75 560 846.75 547.35 830.6 533 828.6 531.25 801.6 508.6 784.1 493.95 774.05 483.25 760.2 468.5 752.35 453.4 741.9 433.35 735.7 395.4 731.25 368.1 730.7 365.15 729.2 357.1 727.45 350.15 727.35 350.15 727.25 350.15 722.85 350.5 719.4 346.05 716.8 342.7 714.95 336.95
M 654.85 346.35
Q 669.85 355.45 679.95 365.1 692.2 376.8 698.15 390 704.85 404.85 705.05 425.35 705.15 438.3 702.05 462.15 701.45 466.7 700.8 469.05 700.3 471 699.55 472.55 698.85 475.85 697.85 478.8 697.3 480.45 695.95 483.6 694.65 486.8 694.05 488.4 693.3 490.55 691.6 497.15 690.2 502.6 688.8 505.7 687.6 508.4 684.2 513.75
L 675.6 527.15
Q 673.7 530.05 672.85 531.75 671.5 534.4 671.1 536.75 670.85 538.25 670.85 540.65 670.85 544.2 670.85 544.5 670.6 548.65 668.85 550.9 671.45 564.15 681.9 577.35 689.55 587.05 706.85 602.2 726.25 619.35 736.25 630.7 751.15 647.65 757.9 664.6 762.75 676.85 764.75 692.45 766.25 704.3 766.4 721.35 766.6 736.05 765.6 746.1 764.3 759.5 760.7 770.15 757.35 780 750.7 791.15 746.7 797.9 737.85 810.65 726.35 827.3 719.8 835.6 709.2 848.95 698.9 857.95 679.95 874.45 652.8 884.55 629.85 893.05 600.3 897.2 579.8 900.1 547.45 901.95 502.8 904.45 494.45 905.15 473.7 907.1 463.25 908.05 444.6 909.7 431.95 910.05 396.35 911 371.05 902.4 357.65 897.85 342.8 889.3 332.3 883.25 316.55 872.3 285.1 850.45 264.75 832.25 238.25 808.55 221.65 783.7 202.6 755.15 196.1 723.65 189.05 689.5 198.55 659.6 204.35 641.45 216.6 624.3 227.6 608.8 243.45 594.65 256.7 582.8 275.05 570.4 283.2 564.9 297.15 556.2 297.7 554.6 298.8 552.8 301.9 548.5 303.2 546.3 308.7 537.2 305.35 523.65 303.6 516.5 296.25 500.35 282.3 469.85 279.65 436.05 278.8 425 279.5 416.25 280.4 405.65 283.55 397 290.8 377.1 313.45 359 328.8 346.55 343.05 342 351.9 339.2 363.5 338.45 370.45 338 384.4 338.2 404.8 338.55 414.4 339.1 431.1 340 444.2 342.25 452.8 343.7 469.9 347.25 485 349.95 495.75 349.2 510.3 348.2 534.85 338.3 549.1 332.55 554.05 330.8 564.9 327 573.75 325.6 593.55 322.45 615.75 328.8 634.8 334.2 654.85 346.35 Z"/>

<path fill="#FF0000" stroke="none" d="
M 553.35 770.3
Q 550.9 771.5 547.9 773.5 544.15 775.95 541.8 778.05 538.7 780.85 537 783.9 536.05 785.6 534.65 789.45 533.25 793.2 532.25 794.95 533.55 796.75 533.6 799.3 533.7 801.55 532.85 803.95 532.45 805.05 531.9 806.05
L 539.55 810.6
Q 543.5 813 545.7 814 549.25 815.6 552.3 815.9 555.7 816.2 559.6 815.15 562.55 814.35 566.55 812.55 582.85 805.2 590.5 795.2 594.5 789.95 597.45 782.15 598.85 778.55 600.8 771.9 600.6 771.85 600.4 771.75 596.75 769.8 594.9 768.9 591.55 767.3 586.6 766.45 580.8 765.7 577.9 765.25 574.05 764.65 573.9 764.65 571.6 764.35 569.9 764.5 567.1 764.7 561.9 766.7 556.1 768.9 553.35 770.3 Z"/>

<path fill="#250000" stroke="none" d="
M 463.4 695.7
Q 458.4 702.55 458.05 709 457.8 713.15 459.4 717.9 460.55 721.3 463.2 726.25 468.1 735.6 475.15 746.75 479.4 753.45 488.25 766.6 493.85 774.95 496.75 778.7 501.8 785.25 506.7 789.55 509.7 792.25 513.7 794.95 513.9 793.4 514.25 792.05 514.75 790.1 516 787.45 517.4 784.45 518.05 782.95 518.15 782.75 520.15 777.85 521.35 774.8 522.5 772.95 525.35 768.15 532.45 762.85 537.85 758.9 541.9 756.6 545.95 754.35 556.25 750 559.95 748.45 561.95 747.85 565.15 746.8 567.85 746.55 571.15 746.3 576.85 747.15 583.8 748.15 587.25 748.75 593 749.8 597.5 751.1 602.45 752.55 605.6 754.55
L 610.25 737.6
Q 611.15 734.4 611.35 732.65 611.65 729.85 610.9 727.75 610.35 726.2 608.6 723.8 606.65 721.2 606.1 719.95 605.2 717.95 604.95 713.8 604.7 709.4 604.05 707.55 603.3 705.35 600.1 701.15 597.1 697.2 596.45 694.6
L 596.1 692.7
Q 595.9 691.55 595.55 690.85 594.7 689.1 591.5 687.3 577 679.3 560.7 676.35 552.8 674.95 537.85 674.05 525.05 673.35 517.6 673.45 506.4 673.65 497.5 675.55 487 677.8 478.5 682.6 469.15 687.9 463.4 695.7 Z"/>

<path fill="#5C0395" stroke="none" d="
M 715.7 219.55
Q 715.7 214.85 715.25 212.6 714.5 208.85 712.1 207.05 710.6 205.95 708.35 205.55 706.8 205.25 704.15 205.25 689.6 205.05 656.55 206.05 625.75 207 608.9 206.55 596.85 206.25 574.9 204.75 570.4 204.4 565.45 204.05 536.5 201.9 522 201.5 502.05 201 479.1 202.2 460.15 203.2 436.3 205.6 372.15 211.95 308.25 224.2 300.45 225.65 292.65 227.25 286.6 228.45 283.2 229.55 278.1 231.2 274.65 233.75 267.8 238.85 264.65 248.95 262.4 256.25 261.8 267.95 260.75 289.8 262 311.15 258 311.1 257.3 315.95 256.55 320.75 259.9 323.25 262.85 325.4 267.4 325.35 270.65 325.3 275.55 324 276.7 323.7 278 323.35 284.2 321.5 293.4 318.35 306.7 313.75 311.15 312.35 337 304.3 370.65 300.55 391.1 298.25 431.5 296.3 482.3 293.9 507.8 293.65 550.2 293.25 583.95 296.8 597.25 298.2 617.1 301.1 628.1 302.75 650.15 306 682.85 310.55 706.7 310.95 711.85 311 716.55 310.9 720.15 310.8 722.25 310.3 725.35 309.6 727.15 307.8 729.05 305.85 729.65 302.6 730.1 300.15 729.85 296.5 729.05 284.55 722.15 258.05 715.75 233.45 715.7 219.55 Z"/>
</g>

<g id="Sleepy_monkey_0_Layer3_0_FILL">
<path fill="#B6B6CF" stroke="none" d="
M 451.55 729.9
Q 449.7 727.05 447.65 725.2 445.3 723 442.4 721.95 439.3 720.85 436.4 721.5 433.35 722.2 431.25 724.85 429.15 727.5 429.2 730.65 429.3 733.8 431.55 736.3 433.85 738.8 437 739.1 437.05 744 441.4 750 443.8 753.35 448.7 760.1 449.6 761.7 452.05 767.8 454 772.6 456 775.1 457.6 777.05 461.1 779.7 465.05 782.75 466.45 784.15 468.35 786.05 470.45 789.25 471.7 791.05 474 794.75 478.6 801.55 483.55 803.4 486.75 804.55 490.05 803.65 493.5 802.7 495 799.9 496.7 796.65 495.05 792.35 493.85 789.3 490.7 785.25 483.55 776.15 480.05 772.4 476.9 769.1 475.35 767.5 472.5 764.55 470.8 762.4 468.25 759.3 465.6 754.95 464.15 752.6 461.1 747
L 454.65 735.25
Q 452.7 731.6 451.55 729.9
M 155.15 392.35
Q 157.85 388.6 160.5 386 162.85 383.65 167.05 380.4 172.55 376.15 173.8 375.1 174.55 374.45 178.75 370.55 181.75 367.75 183.85 366.2 185.2 365.15 188.3 363.15 191.3 361.25 192.75 360.1 193.15 359.75 196.45 356.85 208.65 353.3 231.4 347.4 235.5 346.25 237.9 345.25 241.35 343.7 243.55 341.55 246.05 339 246.65 335.5 247.25 331.75 245.2 329.2 242.9 326.25 238.15 326.2 234.75 326.15 229.65 327.6
L 215 331.95
Q 212.9 330.65 210.25 330.35 207.55 330 204.7 330.7 202.25 331.25 199.45 332.6 197.75 333.4 194.55 335.25 189.7 338.15 185.6 340.75 175.5 343.95 169.75 346.25 151.15 353.85 128.3 370.35 119 377 113.85 382.25 106.6 389.6 103.55 397.45 100.35 405.65 100.7 417.45 100.95 429.75 104.6 444.65 106.75 453.75 112.35 471.25 115.5 480.9 117.45 484.85 120.2 490.45 126.7 499.05 134.2 508.95 136.6 512.9 140.9 519.95 143.3 527.9 144.25 531.1 144.7 532.15 145.7 534.4 147.25 535.6 148.7 536.75 150.4 536.95 152.35 537.15 154.65 536 158.8 534 160 529.9 160.35 528.75 160.45 527.55 160.75 524.9 160.05 521.85 159.3 518.6 157.2 514 151.6 501.9 144.95 493.5 141.75 489.65 140.15 487.7 137.3 484.25 135.75 481.7 132.6 476.7 130.3 468.95 127.95 459.85 126.7 455.35 125.65 451.95 124.8 449.2 125.65 448.25 126.35 447.15 128 444.35 129.25 439.65 131.25 432.05 131.35 431.75 132.6 427.95 135 423.6 136.55 420.8 139.7 415.95
L 150.5 399.25
Q 153.45 394.65 155.15 392.35
M 350.8 353.3
Q 341.3 357.1 336.55 359.05 328.2 362.5 322.6 365.55 307 374.2 300.25 386.05 294.6 396 293.6 412.2 292.6 429.15 296.5 451.95 298.2 461.6 299.9 468.05 301.95 476.05 307.55 491.65 311.55 502.9 314.2 509.35 315.9 513.4 319.35 521.5 322.15 528.55 323.4 533.95 324.4 538.2 324.45 538.5 325.2 541.05 326.25 542.7
L 326.3 542.75
Q 326.1 543.1 325.9 543.55 325.2 545.05 324.15 548.25 322.1 553.6 318.2 557.95 314.3 562.3 309.15 564.85 307.5 565.7 303.85 567.15 300.25 568.55 298.5 569.45 294.85 571.4 290.7 575.15 288.3 577.35 283.65 581.9 279.8 585.6 273.9 590.45 270.55 593.25 263.85 598.7 253.45 607.3 241.1 619.15 234.35 625.6 219.35 640.6 214.1 645.9 211.75 648.85 207.85 653.7 206.2 658.35 204.2 663.85 205.35 669.5 206.6 675.45 211 678.5
L 208.4 706.05
Q 207.85 712.55 207.7 715.4 207.45 720.6 207.85 724.75 208.4 730.5 210.5 737.45 211.75 741.6 214.8 749.8 217.15 756.1 218.6 759.1 221 764.15 223.85 767.6 227 771.4 233.95 776.4 241.8 782.1 244.5 784.75 250.2 790.3 254.9 799.85 255.25 800.5 262.35 816.9 266.2 826 271.7 826.45 275.15 826.8 277.85 823.85 280.45 821.05 280.7 817.3 280.95 814.1 279.7 810.35 278.9 807.85 276.85 803.7 272.35 794.35 269.75 789.75 265.5 782.15 261.05 776.75 257.4 772.3 249.35 764.7 241 756.9 237.5 752.75 230.35 744.25 227.6 735.5 225.65 729.3 225.5 721.2 225.35 716.15 226.05 706.55 226.75 696.95 227.35 692.25 228.35 684.35 230.1 678.2 233.9 665.2 242.45 654.6 246.05 650.1 251.55 645 253.25 643.4 261.5 636.15 272.45 626.55 285.5 614.05 293.75 606.1 308.85 591.15
L 332.2 568.1
Q 335.8 564.5 337.35 562.7 340 559.55 341.45 556.6 343.2 553.05 343.3 549.35 343.4 546.35 342.3 543.9 343.55 542.15 344.1 539.75 344.85 536.45 344 532.9 343.35 530.1 341.55 526.6 339.4 522.55 338.3 520.55 335.4 515.2 332.55 508.1 330.9 503.9 327.75 495.15 323.7 483.75 321.7 477.6 318.5 467.85 316.5 459.8 314.45 451.6 312.95 442.1 311.25 431.4 310.9 422.1 310.65 413.95 311.7 407.9 313 400.3 316.5 394.8 320.95 387.8 329.9 382.55 335.7 379.15 347 374.8
L 364.75 367.95
Q 368.5 366.5 370.45 365.15 373.35 363.15 374.1 360.45 375.1 356.85 372.25 353.6 369.5 350.5 365.55 349.95 362.2 349.5 358.05 350.65 355.75 351.3 350.8 353.3 Z"/>

<path fill="#9A05FA" stroke="none" d="
M 286.65 244.65
Q 286.05 241.6 284.8 239.4 283.65 237.4 280.3 234.05 278.15 232 277 231.2 275 229.75 273.1 229.5 270.1 229.05 267.35 231.1 264.75 233 263.55 236.05 262.55 238.65 262.35 242.15 262.25 244 262.4 248.5 262.65 254.9 262.5 280.55 262.35 300.25 263.75 312.5 264.25 316.55 265.3 318.2 266.3 319.9 268.2 320.95 270 321.95 272.1 322 276.35 322 279.3 318.8 280.35 317.7 281.55 315.8 282.8 313.6 283.45 312.55 285.85 309.25 286.85 307.45 288.5 304.5 289.2 300.45 289.7 297.45 289.8 293 289.95 285.75 288.85 271.25
L 287.25 250.25
Q 287 246.7 286.65 244.65
M 313.35 172.25
Q 311.15 171.35 308.6 171.65 306.15 171.9 304 173.2 300.15 175.55 297.8 180.55 297.15 181.9 296.15 184.75 295.1 187.6 294.45 188.95 293.5 190.9 291.4 194.1 289.4 197.1 288.15 198.4 287.6 199 285.6 200.75 284 202.2 283.15 203.2 280.15 206.95 279.75 214.25 279.5 220.7 281.7 224.4 283.1 226.75 285.5 227.95 288.05 229.25 290.5 228.6 293.25 227.85 295.35 224.6 295.4 224.45 298.5 218.5 299.65 216.25 304.8 209.05 308.9 203.35 310.1 199.2 310.8 196.15 311.15 194.6 311.8 191.85 312.8 190.25 313.45 189.25 315.05 187.55 316.7 185.8 317.3 184.85 319.3 181.65 318.05 177.7 317.7 176.65 317.25 175.75 317.2 175.75 317.15 175.7 315.35 174.5 314.35 172.75 313.85 172.45 313.35 172.25
M 549.2 22.65
Q 546.95 19.8 542.25 19.7 539.6 19.65 533.75 20.8 526.35 22.25 511.75 22.25 496.75 22.2 489.7 23.45 484.25 24.4 477.75 26.6 473.5 28.1 466.15 31.1 440.45 41.75 421.9 51.65 398.7 64.05 381.2 78.15 369.8 87.3 359.75 97.95 358.05 99.8 357.05 101.1 359.15 99.5 362.05 99.6 365.45 99.65 367.6 101.85 369.6 103.85 370.1 107.1 370.55 110 369.8 113.15 369.75 113.4 369.7 113.65 369.9 113.5 370.1 113.3 371.5 112.1 374.4 108.75 383.6 98 395.1 89 404.95 81.35 418.5 73.7 426.75 69 443.4 60.65 461.4 51.65 470.9 47.95 486.55 41.8 499.9 40.45 505.1 39.9 518.05 39.85 529.65 39.8 536.15 38.75 543.95 37.6 547.6 34.05 550 31.8 550.55 28.5 551.1 25.05 549.2 22.65 Z"/>

<path fill="#10194D" stroke="none" d="
M 260.1 335
Q 259.1 336.65 257.75 339.7 256 343.5 255.35 345.95 254.35 349.55 254.8 352.5 255.3 355.95 257.95 358.35 258.05 358.4 258.1 358.5 255.7 385.3 244.7 412.7 234.15 439.1 216.2 464.65 212.7 469.6 208.9 474.6 206 477.1 203 479.9 197.7 484.95 187.7 495.55 182.5 501.15 180.25 504.8 178.5 507.7 177.75 510.5 169.95 518.5 160.45 527.55 160.35 528.75 160 529.9 158.8 534 154.65 536 152.35 537.15 150.4 536.95 143.2 543.55 135.15 550.7 119.4 564.6 113.05 571.4 101.45 583.75 95.85 595.85 92.25 603.65 90.05 613.65 88.35 621.3 87.05 632.25 81.65 679.55 90.3 717.45 93.8 732.7 100.8 751.1 104.85 761.85 114.35 783.8 124.8 807.85 130.8 819.6 140.75 839.1 151.5 852.9 154.7 857.1 159.45 858.65 164.75 860.4 166.5 856.45 198.55 902.2 244.55 935.7 290.55 969.2 343.95 985.6 351.1 987.8 365.35 992.1 377.55 996.15 385.85 1000.75 393.9 1005.25 399.95 1006.25 408.2 1007.55 411 1001.9 413.65 996.55 408.45 991 404.05 986.35 396.75 983.7 385.75 979.7 367.05 973.6 344.9 966.4 337.25 963.75 302.3 951.7 280.2 938.65 258.9 926.1 236.9 905.9 220.8 891.1 198.8 866.7 175.2 840.6 160.55 821.2 141 795.4 128.9 771.15 114.95 743.15 109.8 714.95 104.15 684.05 109.8 656.15 112.8 643.45 113.95 637.05 116 625.95 114.65 617.85 113.4 612.2 112.9 609.35 112.1 604.4 112.95 600.95 113.85 597.45 116.75 594 118.6 591.75 122.5 588.3 155.45 559 175 539.55 182.05 532.5 188.6 525.6 189.9 525.2 190.95 524.4 192.75 523 194 519.9 194.05 519.8 194.1 519.7 208.55 503.85 220.2 488.75 223.6 485.8 226.85 483.45 231.55 480.2 233.85 478.5 237.95 475.6 240.45 473.1 244 469.65 247.3 464.4 249.35 461.15 252.75 454.7
L 265.85 430.05
Q 269.7 422.8 271.4 419.25 274.3 413.1 275.9 407.95 277.75 401.95 278.85 394.2 279.5 389.35 280.25 380.15 281.35 366.55 281.35 359 281.3 347.3 279.05 338.1 277.15 330.5 272.95 328.75 270.65 327.75 267.9 328.45 265.35 329.1 263.35 330.95 261.6 332.55 260.1 335 Z"/>

<path fill="#FFFFFF" stroke="none" d="
M 369.7 113.65
Q 369.75 113.4 369.8 113.15 370.55 110 370.1 107.1 369.6 103.85 367.6 101.85 365.45 99.65 362.05 99.6 359.15 99.5 357.05 101.1 356.7 101.35 356.4 101.65 354.9 103 353.65 105.75 352.35 108.9 351.55 110.35 350.25 112.7 346.55 116.6 342.85 120.55 341.55 122.85 340.95 123.95 340.1 125.95 339.15 128.15 338.75 129 337 132.55 331.7 138.3 326.3 144.15 324.55 147.5 324.25 148.05 323.05 150.75 322.2 152.7 321.4 153.85 320.6 155 318.95 156.75 317 158.75 316.4 159.5 314.35 161.95 313.55 164.9 312.7 168.1 313.55 170.9 313.85 171.9 314.35 172.75 315.35 174.5 317.15 175.7 317.2 175.75 317.25 175.75 320 177.55 322.85 176.9 324.7 176.45 326.5 174.95 327.7 174 329.55 171.9 332.7 168.4 334.3 166.25 336.8 163 338.2 160 338.45 159.5 339.35 157.3 340.05 155.6 340.65 154.6 341.9 152.35 344.55 149.6 346 148.1 349 145 352.6 141 354.7 136.15 356.65 131.7 357.05 131.05 358.2 129.2 360.65 126.9 364.05 123.7 364.65 123 368.3 118.85 369.7 113.65
M 675.5 6.45
Q 673.8 5.95 670.85 5.65 657.2 4.2 653.9 3.7 642.25 1.6 636.4 1 626.4 0.05 619.3 2.45 617.6 3.05 613.85 4.7 610.4 6.25 608.4 6.85 606.45 7.5 602.2 8.3 598.05 9.1 596 9.8 594.5 10.3 588.1 13.25 583.35 15.45 580.05 15.85 576.95 16 575.45 16.1 572.7 16.3 571.1 17.2 567.75 18.95 566.8 23.55 566.1 26.8 567.2 29.85 568.4 33.15 571.15 34.5 573.55 35.75 576.95 35.3 579.2 35 582.9 33.75
L 615.8 22.2
Q 620.35 20.65 622.45 20.05 626.2 19 629.3 18.7 632.95 18.35 637.6 18.9 640 19.2 645.9 20.2 655.05 21.8 669.45 23.7 672.5 24.15 674.25 24.05 676.95 23.9 678.6 22.6 681.3 20.6 681.75 16.25 682.2 11.4 679.5 8.7 678 7.2 675.5 6.45 Z"/>
</g>

<g id="Sleepy_monkey_0_Layer2_0_FILL">
<path fill="#000000" stroke="none" d="
M 223.55 215.65
Q 220.3 216.05 215.5 218.05 207.05 221.6 202.85 224.05 196.1 227.9 192.15 232.7 189.6 235.85 188.8 239.25 187.9 243.2 189.85 245.95 191.5 248.3 194.75 248.95 197.8 249.55 200.75 248.45 203.3 247.5 205.9 245.35 207.45 244.1 210.3 241.2 206.9 253.95 204.6 267.3 204.05 270.5 203.9 272.35 203.7 275.2 204.15 277.4 204.7 280 206.25 282 207.95 284.15 210.3 284.85 214.3 286.05 220.5 281.85 227.7 276.95 230.85 276.6 231.7 276.5 234.75 276.65 237.15 276.8 238.55 276.35 241.9 275.35 243.1 271.4 244.25 267.7 242.75 264.2 240.55 258.95 234.5 257 228.5 255.1 223.6 258.05
L 232.05 234.9
Q 236.65 221.95 231 217.35 228.15 215.05 223.55 215.65
M 73.9 27.6
Q 72 27.35 69.15 27.6 59.3 28.4 47.6 31.05 34.6 34 11.4 41.4 0.25 44.9 0 51.2 -0.15 54.4 2.65 56.9 5.3 59.25 8.8 59.6 11.7 59.9 15.4 58.9 17.05 58.45 21.8 56.7 40.35 49.75 59.85 46.9 58.4 57.05 53.55 69.95 50.8 77.45 44.55 92.25 39.25 105.5 37.05 115.15 34.2 128 35.55 138.85 35.65 139.6 36.55 145.05 37.2 148.8 37.3 151.3 37.4 153.15 37.5 156.9 37.8 160.1 39.15 162 41.05 164.7 44.8 165.3 48.3 165.85 51.65 164.4 54.4 163.25 57.4 160.75 57.7 160.55 62.55 156.1 72.6 147.05 87.15 140.3 98.6 134.95 114.9 130.25 120.2 128.75 123.45 128.1 128.2 127.2 132.1 127.25 133.7 127.3 136.95 127.4 139.75 127.4 141.65 126.75 144.45 125.8 146.3 123.25 148.2 120.7 148.25 117.75 148.3 114.8 146.55 112.15 144.8 109.5 142.05 108.4 139.8 107.5 136.8 107.6 134.85 107.65 131.4 108.3 84.45 117.05 54 140.1 51.7 135.95 51.8 130.2 51.9 125.75 53.45 119.75 55.95 110.15 63.1 92.4 70.45 74.15 72.95 65.05 74.5 58.9 75.25 55.85 76.65 50.4 78 46.8 79.2 43.85 79.7 42.4 80.65 39.8 80.9 37.85 81.25 35.35 80.6 33.1 79.9 30.65 78.1 29.25 76.5 27.95 73.9 27.6
M 177.65 134
Q 176.15 134.4 173.15 135.45
L 144.7 145.9
Q 133.5 150.05 128 152.95 119.05 157.65 114 163.85 109.1 169.8 110.4 174.8 110.9 176.9 112.55 178.55 114.15 180.15 116.3 180.75 118.4 181.4 120.65 180.95 122.85 180.5 124.65 179.2 126.25 178.05 128.15 175.6 130.6 172.4 131.35 171.65 133.7 169.2 137.6 167.35 139.8 166.25 144.75 164.5
L 166.65 156.95
Q 162.85 167.25 156.45 187.2
L 151.65 202.1
Q 147.8 214.15 146.4 220.45 144.15 230.8 144.6 239.25 144.8 243.2 146.05 246.05 147.55 249.6 150.35 250.9 156.05 253.6 164.5 246.4 167.55 243.75 179.8 231.85 189.1 222.8 195.8 218.1 201.7 214 214.5 207.4 219.2 210.15 224.85 207.9 230.55 205.6 231.95 200.4 233.4 195.15 229.75 190.3 226.05 185.4 220.6 185.4 217.75 185.4 214.4 186.85 212.3 187.75 208.7 189.9 191.65 200.05 185.1 204.6 172.3 213.55 164.5 222.9 163.95 221.75 164.15 220.2 164.25 219.25 164.8 217.45
L 173.4 190.45
Q 180.85 167.05 181.5 165 184.7 155.05 187.3 150.05 189.55 145.75 190.1 143.95 191.25 140.4 190.05 137.8 189.1 135.7 186.85 134.5 184.75 133.4 182.25 133.35 180.2 133.3 177.65 134
M 679.95 365.1
Q 669.85 355.45 654.85 346.35 634.8 334.2 615.75 328.8 593.55 322.45 573.75 325.6 564.9 327 554.05 330.8 549.1 332.55 534.85 338.3 510.3 348.2 495.75 349.2 485 349.95 469.9 347.25 452.8 343.7 444.2 342.25 431.1 340 414.4 339.1 404.8 338.55 384.4 338.2 370.45 338 363.5 338.45 351.9 339.2 343.05 342 328.8 346.55 313.45 359 290.8 377.1 283.55 397 280.4 405.65 279.5 416.25 278.8 425 279.65 436.05 282.3 469.85 296.25 500.35 303.6 516.5 305.35 523.65 308.7 537.2 303.2 546.3 301.9 548.5 298.8 552.8 297.7 554.6 297.15 556.2 283.2 564.9 275.05 570.4 256.7 582.8 243.45 594.65 227.6 608.8 216.6 624.3 204.35 641.45 198.55 659.6 189.05 689.5 196.1 723.65 202.6 755.15 221.65 783.7 238.25 808.55 264.75 832.25 285.1 850.45 316.55 872.3 332.3 883.25 342.8 889.3 357.65 897.85 371.05 902.4 396.35 911 431.95 910.05 444.6 909.7 463.25 908.05 473.7 907.1 494.45 905.15 502.8 904.45 547.45 901.95 579.8 900.1 600.3 897.2 629.85 893.05 652.8 884.55 679.95 874.45 698.9 857.95 709.2 848.95 719.8 835.6 726.35 827.3 737.85 810.65 746.7 797.9 750.7 791.15 757.35 780 760.7 770.15 764.3 759.5 765.6 746.1 766.6 736.05 766.4 721.35 766.25 704.3 764.75 692.45 762.75 676.85 757.9 664.6 751.15 647.65 736.25 630.7 726.25 619.35 706.85 602.2 689.55 587.05 681.9 577.35 671.45 564.15 668.85 550.9 670.6 548.65 670.85 544.5 670.85 544.2 670.85 540.65 670.85 538.25 671.1 536.75 671.5 534.4 672.85 531.75 673.7 530.05 675.6 527.15
L 684.2 513.75
Q 687.6 508.4 688.8 505.7 690.2 502.6 691.6 497.15 693.3 490.55 694.05 488.4 694.65 486.8 695.95 483.6 697.3 480.45 697.85 478.8 698.85 475.85 699.55 472.55 700.3 471 700.8 469.05 701.45 466.7 702.05 462.15 705.15 438.3 705.05 425.35 704.85 404.85 698.15 390 692.2 376.8 679.95 365.1
M 648.1 362.7
Q 658.95 369.4 666 375.5 675.05 383.35 680.05 392.05 688.35 406.45 688.25 427.25 688.2 432.7 687.5 439.5 685.85 440.2 684.45 441.45 682.25 443.4 680.6 446.65 679.4 448.95 678.15 452.7 677.6 454.35 673.15 470.3 670.2 480.95 667.05 487.45 665.45 490.75 661.95 497.15 659.15 502.55 654.7 514.45 652.7 519.85 651.95 522.45 650.6 527 650.35 530.7 650.2 533.2 650.45 535.65 649.95 539.9 650 543.65 650.25 561.9 662.55 580.45 671.95 594.65 689.7 610.6 694.65 615.05 704.8 624 713.7 631.95 719.45 637.95 735.35 654.4 741.7 670.5 745.8 680.9 747.45 694.75 748.45 703.35 748.95 719.9 749.45 735.65 748.85 743.85 747.9 757.1 744.05 766.95 740.35 776.35 731.6 788 726.6 794.6 716.4 807.55 711.9 813.85 703.5 826.9 695.8 838.4 688.95 844.85 682.2 851.25 672.8 856.55 665.1 860.85 654.65 864.9 618.2 878.95 564 883.4 547.9 884.75 517.2 886.15 485.1 887.55 470.4 888.7 432.5 891.55 425.5 891.7 400 892.2 381.35 886.9 366.1 882.55 349.15 872.65 337.85 866.05 319.65 852.85 292.05 832.9 275.8 818.55 252.85 798.35 238.25 777.9 221.2 754 214.25 727.75 206.65 699.05 212.8 673.15 217.05 655.2 228.15 638.15 238.2 622.6 253.2 608.8 266.05 597 283.7 585.35 296.4 577 316.8 565.5 322.85 562.15 326 557.5 329.85 551.9 326.6 547.75 325.3 546.1 323.4 545.45 325.3 531.2 319.65 512.95 317.4 505.7 312.4 493.25 306.75 479.05 304.9 473.7 297.3 451.6 296.25 428.5 295.85 421.05 296.45 415.4 297.2 408.4 299.55 402.85 301.95 397.2 306.85 391.3 309.9 387.6 316.3 381.25 324.5 373.05 329.25 369.2 336.85 363 344.15 360.1 350.95 357.4 360.1 356.5 365.85 355.95 376.65 355.95 398.3 356 411.1 356.65 430 357.55 445.2 360.2 454.3 361.8 472.4 365.5 488.3 368.2 499.75 367.2 509.4 366.35 520.9 362.55 527.65 360.35 541.35 354.7 554.8 349.2 561.8 346.95 573.3 343.25 582.95 342.55 598.95 341.35 616.8 347.45 631.35 352.4 648.1 362.7
M 472.65 665.55
Q 462.75 670.5 455.6 677.7 448 685.5 444.2 695.4 440.25 705.8 441.65 716 442.9 724.95 449.4 737.3 454.05 746.15 460.85 756.6 464.9 762.9 473.4 775.25 478.9 783.25 482 787.35 486.95 793.85 491.6 798.55 498.6 805.6 508.95 812.55 515.15 816.75 528.05 824.25 536.4 829.05 540.95 830.95 548.4 834.05 554.85 834 559.25 834 564.3 832.55 568.15 831.45 573.3 829.15 591.95 820.85 601.55 809.15 608.15 801.2 613.25 788.4 616.25 780.95 619.2 771.4 621 765.4 624.1 754.1 626.25 746.3 627 742.1 628.2 735.4 627.75 729.95 627.25 723.65 623.65 714.05 619 701.75 618.15 698.35 616.95 692.65 616.25 689.85 615 685 613.05 681.95 610.85 678.55 606.75 675.7 603.85 673.75 598.75 671.3 582.65 663.5 570.35 660.35 562.4 658.3 552.6 657.25 545.35 656.5 534.6 656.1 522.25 655.7 513.5 656.15 502.05 656.7 492.6 658.7 481.75 661.05 472.65 665.55
M 458.05 709
Q 458.4 702.55 463.4 695.7 469.15 687.9 478.5 682.6 487 677.8 497.5 675.55 506.4 673.65 517.6 673.45 525.05 673.35 537.85 674.05 552.8 674.95 560.7 676.35 577 679.3 591.5 687.3 594.7 689.1 595.55 690.85 595.9 691.55 596.1 692.7
L 596.45 694.6
Q 597.1 697.2 600.1 701.15 603.3 705.35 604.05 707.55 604.7 709.4 604.95 713.8 605.2 717.95 606.1 719.95 606.65 721.2 608.6 723.8 610.35 726.2 610.9 727.75 611.65 729.85 611.35 732.65 611.15 734.4 610.25 737.6
L 605.6 754.55
Q 602.45 752.55 597.5 751.1 593 749.8 587.25 748.75 583.8 748.15 576.85 747.15 571.15 746.3 567.85 746.55 565.15 746.8 561.95 747.85 559.95 748.45 556.25 750 545.95 754.35 541.9 756.6 537.85 758.9 532.45 762.85 525.35 768.15 522.5 772.95 521.35 774.8 520.15 777.85 518.15 782.75 518.05 782.95 517.4 784.45 516 787.45 514.75 790.1 514.25 792.05 513.9 793.4 513.7 794.95 509.7 792.25 506.7 789.55 501.8 785.25 496.75 778.7 493.85 774.95 488.25 766.6 479.4 753.45 475.15 746.75 468.1 735.6 463.2 726.25 460.55 721.3 459.4 717.9 457.8 713.15 458.05 709
M 547.9 773.5
Q 550.9 771.5 553.35 770.3 556.1 768.9 561.9 766.7 567.1 764.7 569.9 764.5 571.6 764.35 573.9 764.65 574.05 764.65 577.9 765.25 580.8 765.7 586.6 766.45 591.55 767.3 594.9 768.9 596.75 769.8 600.4 771.75 600.6 771.85 600.8 771.9 598.85 778.55 597.45 782.15 594.5 789.95 590.5 795.2 582.85 805.2 566.55 812.55 562.55 814.35 559.6 815.15 555.7 816.2 552.3 815.9 549.25 815.6 545.7 814 543.5 813 539.55 810.6
L 531.9 806.05
Q 532.45 805.05 532.85 803.95 533.7 801.55 533.6 799.3 533.55 796.75 532.25 794.95 533.25 793.2 534.65 789.45 536.05 785.6 537 783.9 538.7 780.85 541.8 778.05 544.15 775.95 547.9 773.5
M 442.55 579.9
Q 440.6 581.35 439.6 583.6 438.6 585.95 439.2 588.15 439.8 590.35 441.8 592 443.55 593.45 446.05 594.25 447.55 594.75 450.65 595.4 453.8 596 455.3 596.5 461.05 598.45 464.65 603.2 465.85 604.75 468 608.05 470.05 610.8 472.3 611.65 475.1 612.7 478.15 611.15 481.1 609.6 482.35 606.7 483.45 603.95 482.95 600.7 482.5 597.65 480.75 594.95 478.25 591 471.95 586.4 466.55 582.5 462.3 580.5 456.7 577.9 451.55 577.65 446 577.4 442.55 579.9
M 430.9 439.1
Q 428.75 438.75 426.8 439.5 424.85 440.25 423.5 442 422.1 443.7 421.85 445.8 416.95 446.75 410.8 449.95 403.85 453.95 400.35 455.8 394.3 459.05 382.15 463.9 376.25 466.3 373.15 466.85 370.65 467.3 365.6 467.4
L 355.15 467.55
Q 352.2 467.65 350.55 467.2 349.55 466.95 348.2 466.3 346.7 465.5 345.9 465.15 341.85 463.45 337.5 464.25 335.1 464.7 333.25 465.85 331.15 467.15 330.15 469.1 328.4 472.4 330.15 476.4 331.75 480.15 335.3 482.15 338.35 483.85 342.65 484.45 345.4 484.8 350.45 484.8
L 364.05 484.85
Q 368.1 484.85 369.6 484.8 372.7 484.7 375.1 484.3 378.6 483.75 382.85 482.35 385.35 481.5 390.35 479.45 397.65 476.5 401.05 474.95 406.95 472.3 411.35 469.65 414.2 467.9 415.6 467.05 418.1 465.6 420.05 464.8 422.75 463.75 428.6 462.25 433.6 460.65 435.8 457.9 438.6 454.4 438.15 448.9 437.8 443.45 434.65 440.8 433.1 439.45 430.9 439.1
M 522.15 575.6
Q 516.1 578.05 513.1 579.25 507.7 581.45 504.45 583.6 500.25 586.4 496.15 591.2 493.6 594.2 489.3 600.3 486.15 604.8 484.95 607.85 483.2 612.3 484.4 615.9 485.75 619.9 490.35 621.35 494.9 622.8 498.35 620.3 500.85 618.5 502.65 614.25 504.5 609.3 505.7 607.05 508.65 601.4 515.55 597.45 520.4 594.6 528.85 591.9 533.8 590.3 536.25 588.85 540.1 586.6 541.25 583.3 542.35 580.2 540.85 577 539.3 573.75 536.25 572.65 533.2 571.55 529.15 572.7 527.3 573.25 522.15 575.6
M 539.25 512.3
Q 535.4 511.5 530.2 511.15 528.6 511.05 521.05 510.75 504.9 510.05 489.6 508.3 482.8 507.55 480.7 507.4 475.65 507.05 471.8 507.4 454.4 509.1 436.6 526.25 429.05 533.55 425.25 540.05 422.55 544.7 420.35 551.35 419 555.45 417.85 560.4 414.1 577.25 417.35 593.55 420.8 610.95 431.4 623 434.6 626.6 437.9 628.3 442 630.45 445.6 629.35 448.15 628.6 449.8 626.3 451.5 624 451.45 621.35 451.4 617.7 447.95 613.65 443.55 609.3 441.7 606.95 439.75 604.5 438.1 600.9 437.15 598.8 435.55 594.25 434 589.8 433.35 587.4 432.3 583.55 432.25 580.35 432.2 576.1 434.25 568.55 436.55 559.7 438.15 555.35 440.8 548.15 444.45 543.25 448.2 538.35 454.6 533.55 463.5 527.1 471.6 525.6 475.8 524.85 481.25 525.2 484.2 525.4 490.9 526.35 504.9 528.25 513.35 528.4 516.7 528.5 523.4 528.45 529.3 528.55 533.4 529.25 544.25 531.15 554.3 538.65 563.15 545.3 570.4 555.55 574.1 560.7 575.2 564.6 576.45 569.05 575.35 574 574.3 578.6 571.55 582.8 569.15 586.45 565.35 590.05 562.45 592.75 557.9 596.1 555.05 598.2 544.8 605.2 541 607.75 539.1 608.85 535.8 610.75 532.95 611.8 529 613.05 527.15 613.85 523.95 615.25 522.55 617.4 520.9 620.05 521.9 623.4 522.8 626.7 525.55 628.5 528.05 630.2 531.45 630.4 534.6 630.55 537.8 629.5 540.45 628.65 543.5 626.8 545.15 625.85 548.85 623.3 553.8 620 563.7 613.4 572.05 607.55 577.5 602.25 584.3 595.55 588.3 588.05 592.75 579.6 593.05 571.15 593.7 553.25 576.05 534.6 558.65 516.25 539.25 512.3
M 650.15 459.5
Q 652.1 457.45 652.95 454.8 653.85 452 653.2 449.4 652.5 446.65 650.25 444.8 647.95 442.9 645.25 443 643 443.05 640.55 444.55 638.95 445.55 636.45 447.75 629.65 453.7 624.8 456.6 620.25 459.35 612.9 462.2 604.6 465.45 599.2 466.5 596.15 467.05 592.3 467.3 589.95 467.45 585.3 467.55 581.95 467.6 580.25 467.5 577.5 467.4 575.35 466.85 572.95 466.25 570.2 464.85 568.55 464 565.45 462.1
L 557.3 457.2
Q 553.4 454.85 551.15 454.7 549.05 454.55 546.9 455.7 544.95 456.75 543.5 458.6 541.6 461 541.25 463.95 540.85 467.1 542.45 469.35 543.75 471.1 547.55 473
L 560.3 479.25
Q 564.5 481.2 566.6 482.1 570.2 483.5 573.15 484.15 576 484.75 579.7 484.9 581.9 485 586.3 484.95 593 484.85 596.3 484.55 601.45 484.15 607.6 482.65 612.7 481.4 616.55 479.8 618 479.25 621.8 477.5 626.1 475.5 627.7 474.7 630.95 473.05 633.3 471.5 635.1 470.3 638.45 467.85 641.9 465.25 643.6 464.15 644.75 463.45 647 462 648.95 460.7 650.15 459.5
M 724.45 298.15
Q 723.05 300.05 722.3 301.1 721.1 302.8 718.7 307.25 716.6 311.2 714.95 313.2 712.5 316.15 709.2 317.45 709 317.5 708.85 317.6
L 714.95 336.95
Q 716.8 342.7 719.4 346.05 722.85 350.5 727.25 350.15 727.35 350.15 727.45 350.15 729.2 357.1 730.7 365.15 731.25 368.1 735.7 395.4 741.9 433.35 752.35 453.4 760.2 468.5 774.05 483.25 784.1 493.95 801.6 508.6 828.6 531.25 830.6 533 846.75 547.35 856.75 560 878.4 587.4 888.95 627.4 897.35 659.35 899.35 702.85 899.9 715.35 899.8 724.55 899.65 736.25 898.45 746.1 896.3 763.15 890.5 779.2 884.55 795.5 875.3 809.65 869.65 818.35 861.85 827.55 855.6 834.9 846.65 844.05 805.3 886.4 762.45 911.85 734.95 928.15 705.2 938.55 705 938.4 704.85 938.3 702.1 936.55 698.05 937.35 695.4 937.85 690.95 939.85 675.25 946.85 654.35 951.55 638.55 954.15 622.65 955 617 955.3 614.4 955.8 609.9 956.6 606.9 958.7 606.1 959.25 605.45 959.95 590.1 962.25 581.4 963.45 562.35 966.05 547 967.5 521.15 969.55 508.3 970.9 485.95 973.25 470.15 977.45 468.25 977.95 451.9 982.9 440.9 986.2 433.5 987.45 413.35 990.75 389.1 985.3 371.5 981.35 346.05 971.05 299.15 952.05 247.4 924.65 230.55 915.75 219.9 909.25 205.2 900.25 194.2 891.1 181.35 880.4 168.7 865.5 158.65 853.65 146.75 836.7 129.1 811.45 118.8 791.65 103.6 762.5 95.45 730.4 87.3 698.3 86.75 665.5 86.45 649.55 88.35 637.35 90.7 622.35 96.55 610.8 100.75 602.5 108.15 593.5 112.45 588.2 122.15 577.9
L 188.8 507.4
Q 202.1 493.35 208.5 486.1 219.2 474 226.65 463.45 233.2 454.25 241.35 440.3 250.5 424.45 255.15 416.55 268.05 394.85 272.15 383.6 275.75 373.7 276.15 364.9 276.85 364.25 277.45 363.45 280.3 359.8 280.45 355.15 280.55 351.55 279.25 346.55 277.55 340.9 276.85 338.05 275.65 333.2 276.1 329.2 276.4 326.5 277.4 324.4 275 325.25 272.25 324.35 269.1 323.35 267.25 320.7 265.75 318.1 264.75 316.95 264.2 316.3 262.85 315.2 261.5 314.1 260.95 313.4 260.8 313.2 260.65 313 260.2 313.75 259.85 314.55 259.1 316.35 258.9 318.6 257.95 317.05 256.05 315.8 252.75 313.6 248.1 313.1 237.65 312 225.05 315.75 216.8 318.25 203 324.6 174 338 156.35 348.1 131.45 362.25 113.7 377.8 108.25 382.6 105 386.4 100.7 391.5 98.6 396.65 97.15 400.2 96.35 404.9 95.85 407.85 95.3 413.45 93.95 427.9 94.05 434.45 94.3 448.35 99 465.05 101.9 475.4 109.1 494.7 112.4 503.55 114.55 508.15 117.95 515.45 122 520.45 123.95 522.9 128.1 527.75 131.4 532.1 131.9 536.05 132.05 537.35 132.1 540 132.15 540.95 132.3 541.75
L 113.3 561.65
Q 99.5 576.05 93.05 584.2 82.65 597.4 77.55 609.85 71.5 624.7 70.55 644.6 69.9 657.7 71.65 680.65 73.25 701.5 74.95 714.05 77.4 732.3 81.55 746.8 87.2 766.45 98.55 788.6 106.55 804.2 121.2 827.8 138.3 855.25 150.75 871.2 168.55 893.9 187.35 908.15 195.7 914.45 206.95 921.1 213.65 925.1 227.45 932.55 269.4 955.25 292.35 966.45 328.8 984.25 359.6 995 377.5 1001.2 391.15 1004 408.55 1007.55 423.55 1006.6 435.15 1005.9 451.3 1001.85 460.5 999.55 478.75 994.65 498.75 989.85 527.6 986.8 544.05 985.1 577 982.1 622 977.25 664.2 966.95 691.6 961.4 714.55 953.8 766.5 936.6 802.4 907 812.3 898.8 827.7 883.65 845.95 865.6 852.5 859.7 857 855.65 866.1 847.7 874.05 840.6 879.1 835.05 920.1 790 916.35 699.2 914.35 650.2 901.6 610.85 886.75 565 858 534.6 851.1 527.25 841.05 518.55 842.85 517.5 845.1 515.45 862.8 499.65 866.25 482.7 867.25 477.9 867.3 471.2 867.25 463.45 867.25 459.55 867.45 451.5 867.45 447.45 867.5 440.4 866.7 435.4 865.9 430.25 863.75 424.25 862.3 420.05 859.4 413.5 844.5 379.4 827.95 356.5 807.3 327.85 781.65 312.65 769.7 305.6 760 304.1 756.7 303.6 752.4 303.5 750.65 303.45 744.8 303.5 739.8 303.5 736.8 304.45 732.55 305.75 731.3 309 731.1 309.5 731.05 310 730.45 309.9 729.8 309.85 729.3 309.85 728.85 309.9 726.8 303.45 724.45 298.15
M 739.6 320.25
Q 742.2 320.8 746.05 320.75 752.6 320.7 753.5 320.75 759.15 321.15 765.3 323.85 770.05 325.9 776.05 329.8 798.2 344.3 813.95 365.55 822.15 376.6 830.1 391.75 835 401.15 843.45 419.6 847.6 428.45 848.95 433.5 850.4 438.7 850.85 445.4 851.1 449.45 851.1 457.55 851.1 469.25 850 475.6 848.25 485.5 843.2 491.7 841.75 493.5 839 496.05 835.5 499.25 834.6 500.2 830.35 504.65 829.45 508.95 817.4 499.25 810.9 493.8 781.6 469.5 769.8 448.55 762.65 435.9 757.85 418.5 754.7 407.05 751 386.6 745.45 355.65 740.85 325.95 740.35 322.8 739.6 320.25
M 205.15 343.15
Q 217.1 337.4 223.75 335 234.3 331.15 243.25 330.6 245 330.5 248.4 330.35 248.75 330.3 249.05 330.3 248.95 331.6 248.95 333.55
L 248.95 336.8
Q 247.25 338.3 246.4 340.45 244.6 344.9 248.25 349.15 248.6 349.6 249 349.95
L 249.05 368.4
Q 249.1 371.3 249.45 372.85 249.95 375.3 251.35 376.65 252.6 377.8 254.65 378.35 255.25 378.5 256.15 378.6 253.6 385.3 248.8 393.85 235.95 416.75 228.75 428.5 217.2 447.4 206.3 461.5 198.55 471.45 188 483.1 181.65 490.1 168.6 503.75
L 148.15 525.15
Q 147.4 524.3 146.5 523.4 142.7 519.65 140.9 517.7 134.75 511.05 129.9 500.95 126.6 494.15 122.4 482.1 117.75 468.8 115.5 460.35 112.2 448.25 111.25 438 110.35 427.4 111.5 417.25 112.6 407.7 115.7 402.05 118.7 396.45 126.6 389.65 142 376.35 164.2 363.85 177.75 356.25 205.15 343.15 Z"/>
</g>

<g id="Sleepy_monkey_0_Layer1_0_FILL">
<path fill="#8705DA" stroke="none" d="
M 853.25 262.7
Q 853.5 263.15 853.65 263.5 853.65 262.2 853.6 261.6 853.6 260.55 853.35 259 852.4 260.1 852.7 261.35 852.8 261.9 853.25 262.7 Z"/>
</g>

<g id="Sleepy_monkey_0_Layer0_0_FILL">
<path fill="#6600CC" stroke="none" d="
M 750.1 32.1
Q 742.1 24.3 733.85 19.3 723.5 13 709.6 9.1 699 6.15 683.5 3.95 660.05 0.55 640.45 0.1 617.45 -0.45 597.45 2.95 584.2 5.2 568.05 9.95 559.45 12.5 542.45 18.25 537.3 17.8 531.45 17 506.9 13.65 496.55 14.45 485.85 15.25 473.3 19.35 465 22.1 451 28.1 435.7 34.7 426.35 39.25 413 45.75 402.65 52.25 373.4 70.6 345.3 103.3 327.45 124.05 298.7 165.55 286.75 182.85 281.85 193.6 275.65 207.2 275.55 219.35 275.5 219.35 275.45 219.35 269.45 221.35 265.8 223.15 260.7 225.75 257.6 229.15 253.8 233.35 251.8 240.1 250.4 244.75 249.45 252.65 245.9 282.1 247.2 311.8 247.45 317 248.1 319.95 249.15 324.35 251.55 327.05 256.75 332.85 269.75 332.15 287.3 331.15 313.3 322.75 320.4 320.45 334.65 315.65 347.2 311.5 356.2 309.35 372.45 305.5 392.3 303.95 407.2 302.8 428.9 302.7 476.55 302.5 524.7 306.1 557.6 308.6 623.25 315.55 682.05 321.1 721.95 320.35 725.65 320.3 727.8 319.95 731 319.4 733.15 317.95 738.2 314.6 739.7 304.75 741.95 289 736.4 265.4 733.15 252.3 731.5 245.75 728.65 234.1 727.5 226.05 726.75 220.85 726.15 217.1
L 729.8 219.7
Q 738.3 225.7 742.5 228.85 747.3 232.4 754.15 237.8
L 770.95 251.6
Q 775.7 255.5 777.6 256.85 779.05 257.9 782 259.95 784.5 261.75 786.1 263.3 786.7 263.9 789.1 266.55 790.9 268.55 792.25 269.6 793.65 270.65 796.2 271.95 799.55 273.6 800.3 274.05 802.8 275.55 806.25 278.6 806.3 278.65 806.4 278.7 806.6 281.2 807.4 283.45 808.7 287.25 813.25 293.15 822.35 305.1 828.5 311 831.25 313.6 835.35 316.95 837.7 318.9 842.4 322.7 846.75 326.3 856.15 334.8 856.95 336.55 859.8 338.55
L 861.9 340 862.55 340.6
Q 866.85 344.5 868.65 346.75 869.25 347.45 870.4 348.9 871.45 350.15 872.35 350.85 873.35 351.65 875.55 353 876.9 353.95 879.05 356.4 881.25 358.85 882.55 359.8 883 360.15 884.55 361.1 885.8 361.9 886.45 362.5
L 886.5 362.55
Q 886.45 362.6 886.45 362.7 885.15 366.5 884.65 367.65 884.3 368.4 883.05 370.75 882 372.65 881.55 373.9 880.35 377.05 880.35 383.35 880.3 387.8 880.5 390 880.85 393.65 882.05 396.3 882.55 397.5 884.1 400.05 885.45 402.35 886 403.75 886.4 404.8 886.8 406.45 887 407.35 887.4 409.15 888.95 415 892.85 419.35 895 421.8 898.3 424.1 900.6 425.75 904.45 427.95 911.25 431.9 916 433.55 922.65 435.85 928.25 434.95 931.3 434.45 934.7 432.85 937.2 431.7 940.7 429.5 945.05 426.8 947.8 424.65 951.45 421.7 953.75 418.55 955.75 415.9 957.55 411.95 963.75 398.1 960.25 387.15 959.4 384.45 957.7 381.4 956.65 379.45 954.45 376 951.65 371.6 949.75 369.15 946.4 364.9 939.75 358.9 934.05 353.75 930.5 351.85 927.55 350.3 923.55 349.2 921.15 348.55 916.15 347.6 911.65 346.75 909.3 346.6 905.5 346.4 902.6 347.35 901.3 347.75 899.7 348.65 899.45 347.95 899.15 347.2 896.8 341.2 892.05 330.15
L 884.5 304.8
Q 884.55 304.25 884.5 303.7 884.35 302.1 883.1 300.05
L 879.45 287.95
Q 877.6 281.75 876.55 278.7 875.5 275.6 874.45 272.95 873.2 269.3 871.55 264.6
L 868.1 254.75
Q 859.05 229.05 858.2 226.6 857.1 223.45 856.1 221.65 855.2 220.05 853.25 217.8 850.75 214.9 850.15 214.05 848.35 211.45 847.45 210.2 847.15 209.75 846.85 209.4 846.95 207.85 845.85 205.4
L 837.35 185.1
Q 817.2 137.1 805.3 113.6 785.7 74.7 763.95 47.6 756.6 38.4 750.1 32.1
M 824.9 187
Q 825.25 188.6 826.05 190.45 832.35 205.4 835.35 212.1 840.7 224.1 845.65 233.3 848.95 239.3 849.8 241 852 245.4 853.1 249 853.45 250.2 854.35 253.75 855.1 256.75 855.7 258.5 856.85 261.85 859.85 266.95 863.55 273.2 864.5 275.25 866.25 279.05 868.4 286.5
L 869.4 290
Q 869.55 290.65 869.6 291.2 869.7 292.15 869.7 294.55 869.75 296.65 869.95 297.85 870.15 298.85 870.85 300.8 871.5 302.7 871.7 303.7 871.85 304.45 872.05 306.1 872.2 307.65 872.4 308.45 873.25 311.3 875.2 312.05
L 877.45 317.75 880.2 327.35
Q 883.05 337.2 885.1 341.7 885.35 342.25 885.75 343.15
L 880.05 338.55
Q 874 333.65 870.2 331.1 866.6 328.6 863.7 328.05 857.55 322.65 851.3 317.6 846.9 314.1 844.7 312.3 840.95 309.2 838.4 306.7 836.25 304.6 833.45 301.55
L 820.5 287.65
Q 825.15 288.6 828.7 286.6 830.2 285.8 831 284.5 831.95 283.05 831.6 281.65 831.25 280.25 829.65 279.2 829.25 278.95 828.6 278.65 828.7 278.1 828.85 277.4 829.1 275.95 829.25 275.35 829.25 275.3 830.5 272.35 831.25 270.55 831.05 269.25 829.15 268.9 827.15 269.7 825.25 270.4 823.8 271.95 822.55 273.2 822.3 274.45 822.2 274.9 822.2 275.75 818.7 273.85 815.05 271.05 811.85 268.6 804.8 262.25 796.9 255.1 791.6 251.55 790.25 250.65 786.65 248.45 783.45 246.55 781.7 245.3 779.15 243.55 771.85 237.5 762.8 229.9 754.65 224.3 745.85 218.6 741.7 215.45 735.05 210.1 731.6 207.7 730.35 206.8 729.1 206.1 729.3 205.9 729.55 205.7 730.9 204.75 732.85 203.95 733.3 203.75 736.4 202.65 739.4 201.6 741.8 200.5 744.8 199.25 746.15 197.85 748.35 195.75 747.8 193.2 747.45 191.75 746.05 190.7 744.75 189.75 743.1 189.5 741.75 189.3 740 189.5 739.55 189.55 736.85 190 731.55 190.8 728.9 191.2 728.75 191.2 728.65 191.25 730.3 187.9 731.6 186.05 732.65 184.55 734.95 181.6 736.9 178.9 737.5 176.7 738.1 174.35 736.95 173.3 736.3 172.75 735.3 172.8 734.4 172.85 733.65 173.35 732.95 173.8 731.2 175.9 730.4 176.85 728.85 178.2 727 179.8 726.45 180.35 723.9 182.9 721.75 187.2 721.2 183.45 720.1 181.4 719.65 180.45 718.7 179.15 717.4 177.3 717.2 176.95 716.3 175.6 716 175.25 715.25 174.35 714.35 174.15 713.1 173.85 712 174.85 710.95 175.85 710.8 177.2 710.65 178.35 711.1 179.8 711.25 180.35 711.95 182.35 712.95 185.15 714 189.2
L 715.7 195.55
Q 715.25 194.8 714.85 194.3 713.15 192.15 711.4 190.95 709.5 189.7 705.95 188.7 701.3 187.45 700.2 187 696.2 187.9 696.05 190 695.9 190.95 696.65 192.05
L 696.7 192.1
Q 696.25 192.1 695.8 192.1
L 591.35 194.2
Q 492.15 196.2 442.6 197.6 388.15 199.15 357.95 202.4 319.35 206.55 288.1 215.45 292.5 201.55 301.4 186.6 308.75 174.2 325.3 152.2 350.4 118.85 365.15 102.75 388.95 76.8 413.1 62.3 421.75 57.15 433.05 51.9 440.35 48.5 453.75 42.9 470.9 35.7 480.75 32.8 496 28.35 508.8 28.7 514.9 28.85 525.1 30.55 537 32.45 541.3 32.85 561.45 34.7 572.55 25.8 575.6 23.35 575.3 21 575.25 20.65 575.2 20.35 598.75 14.8 623.15 13.3 652.85 11.5 682.1 15.95 695.6 18 705.85 21.1 718.35 24.9 727.9 30.85 736.35 36.05 744.5 44.25 751.1 50.9 758.45 60.55 779.05 87.65 799.5 130.65 805.4 143.15 816.4 167.9 821.15 178.6 824.9 187
M 700.45 210.3
Q 704.25 211 706.4 213.05 708.85 215.4 709.65 219.8 709.95 221.55 710.25 227.7 710.65 235.85 713.5 246.8 715.2 253.1 719 265.65 725.5 288.8 721.3 302.85 682.1 303.35 624.1 297.9 559.45 291.05 527.05 288.6 473.3 284.5 418.85 285.25 398.45 285.55 385.15 286.7 366.75 288.3 351.9 291.95 343.05 294.15 330.35 298.45 316.15 303.45 309.05 305.8 283.25 314.35 265.5 314.65 262.6 296.75 263.85 278.5 265.15 260.25 270.6 242.95 302.35 228.7 336.25 222.7 354 219.55 376.3 218.05 390.35 217.1 416.6 216.3 551.15 212.3 693.6 209.9 698.05 209.85 700.45 210.3
M 912.1 370.1
Q 915.1 368.75 916.95 368.25 919.75 367.5 922.05 367.85 924.6 368.2 927.2 370 929.05 371.25 931.5 373.75 936.55 378.85 940.6 384.55 948.3 395.35 945.75 403.05 944.65 406.4 941.4 409.45 939.2 411.45 934.95 414.2 931.9 416.15 930.15 416.95 927.4 418.3 924.95 418.65 921.2 419.2 914.75 417.45 911.3 416.5 909.25 415.6 906.35 414.3 904.65 412.4 901.5 408.95 900.65 401.3 899.75 394.2 900 386.55 900.15 383.65 900.45 381.95 900.9 379.45 901.95 377.65 902 377.6 902.05 377.5 902.15 377.5 902.3 377.5 903.8 377.4 904.95 376.15 906.05 375 906.4 373.35 906.45 373.2 906.45 373.1 908.45 371.75 912.1 370.1 Z"/>
</g>
</defs>

<g transform="matrix( 1, 0, 0, 1, 35.65,52.15) ">
<g transform="matrix( 1, 0, 0, 1, 0,0) ">
<use xlink:href="#Sleepy_monkey_0_Layer4_0_FILL"/>
</g>

<g transform="matrix( 1, 0, 0, 1, 0,0) ">
<use xlink:href="#Sleepy_monkey_0_Layer3_0_FILL"/>
</g>

<g transform="matrix( 1, 0, 0, 1, 0,0) ">
<use xlink:href="#Sleepy_monkey_0_Layer2_0_FILL"/>
</g>

<g transform="matrix( 1, 0, 0, 1, 0,0) ">
<use xlink:href="#Sleepy_monkey_0_Layer1_0_FILL"/>
</g>

<g transform="matrix( 1, 0, 0, 1, 0,0) ">
<use xlink:href="#Sleepy_monkey_0_Layer0_0_FILL"/>
</g>
</g>
</svg>
