
<svg xmlns="http://www.w3.org/2000/svg" version="1.1" xmlns:xlink="http://www.w3.org/1999/xlink" preserveAspectRatio="none" x="0px" y="0px" width="500px" height="500px" viewBox="0 0 500 500">
<defs>
<g id="Layer11_0_FILL">
<path fill="#FF9900" stroke="none" d="
M 429.2 67.25
Q 399.45 37.8 357.3 37.8
L 133.85 37.8
Q 91.7 37.8 61.9 67.25 32.15 96.8 32.15 138.6
L 32.15 360.1
Q 32.15 401.9 61.9 431.4 91.7 460.95 133.85 460.95
L 357.3 460.95
Q 399.45 460.95 429.2 431.4 459 401.9 459 360.1
L 459 138.6
Q 459 96.8 429.2 67.25 Z"/>
</g>

<g id="Layer1_0_FILL">
<path fill="#000000" fill-opacity="0.4980392156862745" stroke="none" d="
M 425.9 140.5
Q 420.45 144.1 415.1 147.85 367.8 181.5 314.4 208.95 260.9 236.5 199.65 256.3 199.65 256.75 199.55 256.75 187.569140625 259.0921875 178.25 264 178.124609375 262.4900390625 177.5 261.1 182.0337890625 258.984765625 187.05 257.35 187.45 257.2 187.9 257.2 192.9 256.3 197 254.65 197.4 254.5 197.85 254.5
L 198.3 254.5
Q 193.15 250.6 183.4 246.35 182.9 246.35 182.5 246.2 153.25 234 126.35 219.2 125.9 219.2 125.45 219.2 121.85 219.2 118.25 219.2 113.2 221 109.55 223.95 105.45 227.25 103.05 231.6 74.4 284.4 67.55 358.55 66.85 366.35 69.6 363.3 69.8 363.1 70.25 363.1 70.25 362.65 70.25 362.2 74.05 359.6 76.9 356.1 77.05 355.85 77.5 355.85 77.5 355.4 77.5 354.95 82.3 349.8 87.65 345.2 87.9 345 88.35 345 88.35 344.55 88.35 344.1 92.5 339.6 97.2 335.65 97.4 335.5 97.4 335.05 97.4 334.6 97.4 334.15 101.85 331.35 105.35 327.55 105.55 327.35 105.55 326.9 105.55 326.45 105.55 326 109.35 323.45 112.55 320.35 112.8 320.1 112.8 319.65 112.8 319.2 112.8 318.75 116.85 316.5 119.8 313.15 120.05 312.85 120.05 312.4 120.05 311.95 120.05 311.5 126.2 306.8 131.55 301.35 131.8 301.1 131.8 300.65 133.2 285.75 138.5 274.6 138.6 274.4 139.05 274.4 141.95 280.1 146.05 284.6 146.3 284.8 146.3 285.25 148.4046875 284.2765625 150.1 282.9 150.035546875 286.06015625 150.9 288.3 136.9376953125 302.276953125 122.75 316.05 122.75 316.5 122.55 316.7 119.15 320.1 115.5 323.3 115.5 323.75 115.3 323.95 112.35 326.9 109.2 329.6 109.2 330.05 108.95 330.3 104.85 334.3 101.05 338.65 100.6 338.65 100.45 338.9 96.95 344.1 92 347.7 92 348.15 91.75 348.4 86.1 354.05 80.2 359.45 80.2 359.9 80 360.15 76.6 363.55 73 366.7 73 367.15 72.75 367.4 63.5 376.65 54 385.7 55.15 387.25 58.5 386.7 58.95 386.6 59.4 386.6 59.4 386.15 59.4 385.7 59.4 385.25 59.4 384.8 100.8 385.45 142.65 387 144.9 387.1 147.15 387.2 147.75 387.25 149.8 386.7 150.25 386.55 150.75 386.45 156.2 384.85 158.95 384.8 177.85 347.15 200.1 312.35 201.5 310.2 203.85 309 208.0892578125 306.7671875 212.6 304.8 213.66484375 304.798828125 214.95 304.7 219.8 304.35 223.65 304.3 226.2 304.25 227.2 304.15 228.7001953125 303.99609375 229.9 303.6 250.123046875 305.7150390625 264.9 313.15 265.25 313.3 265.7 313.3 267.95 316.55 267.55 322.35 267.55 322.8 267.55 323.3 269.55 330.3 275.5 333.6 275.65 333.7 275.65 334.15 292.3 331.35 305.6 325.25 306 325.1 306.45 325.1 306.45 324.65 306.45 324.2 306.45 323.75 306.45 323.3 334.25 324.15 355.3 323.15 360.05 322.9 358.9 325.1 359.35 325.1 359.8 324.95 367.05 322.8 370.7 316.95 366.9 314.4 361.9 312.6 357.25 310.95 352.05 308.75 314.65 293.35 272.05 282.55 272.05 283 271.85 283.15 266.1 286.55 260.3 289.8 259.85 289.8 259.5 290 258.9482421875 290.393359375 258.35 290.75 257.9125 289.872265625 257.25 289.05 257.0087890625 288.758984375 256.75 288.5 257.6955078125 287.9142578125 258.6 287.3 258.95 287.1 259.4 287.1 286.3 272.85 309 254.35 331.45 236.1 359.8 223.75 360.25 223.75 360.6 223.95 367.4 228.8 378.8 229.15 388.7 219.6 393.4 204.8 398.15 189.7 409.5 181.45 417.55 175.55 423.3 167.5 432 155.35 425.9 140.5 Z"/>
</g>

<g id="Layer0_0_FILL">
<path fill="#FFFFFF" stroke="none" d="
M 425.9 125.15
Q 420.45 128.75 415.1 132.5 367.8 166.15 314.4 193.6 260.9 221.15 199.65 240.95 199.65 241.4 199.55 241.4 179.6 245.3 167.1 256.35 167.1 256.8 166.85 257 159.35 262.65 153.5 269.9 153.5 270.4 153.3 270.6 138.15 285.75 122.75 300.7 122.75 301.15 122.55 301.35 119.15 304.75 115.5 307.95 115.5 308.4 115.3 308.6 112.35 311.55 109.2 314.25 109.2 314.7 108.95 314.95 104.85 318.95 101.05 323.3 100.6 323.3 100.45 323.55 96.95 328.75 92 332.35 92 332.8 91.75 333.05 86.1 338.7 80.2 344.1 80.2 344.55 80 344.8 76.6 348.2 73 351.35 73 351.8 72.75 352.05 63.5 361.3 54 370.35 55.15 371.9 58.5 371.35 58.95 371.25 59.4 371.25 59.4 370.8 59.4 370.35 59.4 369.9 59.4 369.45 100.8 370.1 142.65 371.65 144.9 371.75 147.15 371.85 147.75 371.9 149.8 371.35 150.25 371.2 150.75 371.1 156.2 369.5 158.95 369.45 177.85 331.8 200.1 297 201.5 294.85 203.85 293.65 216.95 286.75 232.9 282.65 237.8 281.35 243.1 279.9 243.1 279.4 243.1 278.95 251.9 276.5 258.6 271.95 258.95 271.75 259.4 271.75 286.3 257.5 309 239 331.45 220.75 359.8 208.4 360.25 208.4 360.6 208.6 367.4 213.45 378.8 213.8 388.7 204.25 393.4 189.45 398.15 174.35 409.5 166.1 417.55 160.2 423.3 152.15 432 140 425.9 125.15
M 126.35 203.85
Q 125.9 203.85 125.45 203.85 121.85 203.85 118.25 203.85 113.2 205.65 109.55 208.6 105.45 211.9 103.05 216.25 74.4 269.05 67.55 343.2 66.85 351 69.6 347.95 69.8 347.75 70.25 347.75 70.25 347.3 70.25 346.85 74.05 344.25 76.9 340.75 77.05 340.5 77.5 340.5 77.5 340.05 77.5 339.6 82.3 334.45 87.65 329.85 87.9 329.65 88.35 329.65 88.35 329.2 88.35 328.75 92.5 324.25 97.2 320.3 97.4 320.15 97.4 319.7 97.4 319.25 97.4 318.8 101.85 316 105.35 312.2 105.55 312 105.55 311.55 105.55 311.1 105.55 310.65 109.35 308.1 112.55 305 112.8 304.75 112.8 304.3 112.8 303.85 112.8 303.4 116.85 301.15 119.8 297.8 120.05 297.5 120.05 297.05 120.05 296.6 120.05 296.15 126.2 291.45 131.55 286 131.8 285.75 131.8 285.3 133.2 270.4 138.5 259.25 138.6 259.05 139.05 259.05 141.95 264.75 146.05 269.25 146.3 269.45 146.3 269.9 150.3 268.05 152.9 264.7 153.05 264.5 153.5 264.5 153.5 264.05 153.5 263.6 159.25 257.55 166.3 252.95 166.65 252.75 167.1 252.75 167.1 252.3 167.1 251.85 175.85 245.65 187.05 242 187.45 241.85 187.9 241.85 192.9 240.95 197 239.3 197.4 239.15 197.85 239.15
L 198.3 239.15
Q 193.15 235.25 183.4 231 182.9 231 182.5 230.85 153.25 218.65 126.35 203.85
M 358.9 309.75
Q 359.35 309.75 359.8 309.6 367.05 307.45 370.7 301.6 366.9 299.05 361.9 297.25 357.25 295.6 352.05 293.4 314.65 278 272.05 267.2 272.05 267.65 271.85 267.8 266.1 271.2 260.3 274.45 259.85 274.45 259.5 274.65 253.75 278.75 245.8 280.8 245.8 281.25 245.65 281.3 236.95 285.5 226.8 288 249 289.8 264.9 297.8 265.25 297.95 265.7 297.95 267.95 301.2 267.55 307 267.55 307.45 267.55 307.95 269.55 314.95 275.5 318.25 275.65 318.35 275.65 318.8 292.3 316 305.6 309.9 306 309.75 306.45 309.75 306.45 309.3 306.45 308.85 306.45 308.4 306.45 307.95 334.25 308.8 355.3 307.8 360.05 307.55 358.9 309.75 Z"/>
</g>
</defs>

<g transform="matrix( 1, 0, 0, 1, 0,0) ">
<use xlink:href="#Layer11_0_FILL"/>
</g>

<g transform="matrix( 1, 0, 0, 1, 0,0) ">
<use xlink:href="#Layer1_0_FILL"/>
</g>

<g transform="matrix( 1, 0, 0, 1, 0,0) ">
<use xlink:href="#Layer0_0_FILL"/>
</g>
</svg>
