
<svg xmlns="http://www.w3.org/2000/svg" version="1.1" xmlns:xlink="http://www.w3.org/1999/xlink" preserveAspectRatio="none" x="0px" y="0px" width="500px" height="500px" viewBox="0 0 500 500">
<defs>
<g id="Layer18_0_FILL">
<path fill="#FF9900" stroke="none" d="
M 429.2 67.25
Q 399.45 37.8 357.3 37.8
L 133.85 37.8
Q 91.7 37.8 61.9 67.25 32.15 96.8 32.15 138.6
L 32.15 360.1
Q 32.15 401.9 61.9 431.4 91.7 460.95 133.85 460.95
L 357.3 460.95
Q 399.45 460.95 429.2 431.4 459 401.9 459 360.1
L 459 138.6
Q 459 96.8 429.2 67.25 Z"/>
</g>

<g id="Layer5_0_FILL">
<path fill="#323232" fill-opacity="0.4980392156862745" stroke="none" d="
M 375.4 129.75
Q 371.05 125.85 366.45 122.2 361.9 118.55 357 115.2 352.1 111.9 346.95 108.85 341.75 105.8 336.35 103 330.9 100.2 325.1 97.75 319.35 95.3 313.2 93.25 307.05 91.15 300.6 89.45 294 87.75 287.1 86.45 280.15 85.1 272.7 84.35 265.25 83.6 257.15 83.45
L 257.15 83.4
Q 254.2 83.35 251.25 83.35 251.25 83.4 251.25 83.45 245.8 83.55 240.5 83.95 232.9 84.5 225.8 85.65 218.7 86.75 212.05 88.35 205.45 89.95 199.15 91.95 192.95 93.9 187.05 96.25 181.15 98.55 175.6 101.25 170 103.9 164.8 106.9 159.55 109.85 154.55 113.1 149.6 116.4 144.9 119.9 140.2 123.45 135.8 127.25 131.4 131.1 127.2 135.15 123.05 139.2 119.15 143.5 115.2 147.8 111.55 152.4 107.95 157 104.6 161.9 101.25 166.75 98.2 171.9 95.1 177.05 92.25 182.5 89.45 187.9 87 193.7 84.55 199.4 82.4 205.6 80.35 211.65 78.6 218.2 76.85 224.65 75.55 231.6 74.25 238.5 73.5 245.95 72.75 253.45 72.5 261.4 72.5 262 72.5 262.6 72.5 262.65 72.5 262.7 72.45 262.7 72.4 262.7 72.4 265.15 72.45 267.55
L 72.5 267.55
Q 72.6 275.65 73.35 283.1 74.05 290.65 75.3 297.55 76.6 304.6 78.3 311.05 80 317.65 82.1 323.75 84.2 329.85 86.65 335.65 89.1 341.45 91.85 346.9 94.65 352.4 97.7 357.55 100.75 362.7 104.1 367.6 107.45 372.45 111.05 377.1 114.7 381.7 118.55 386.05 122.45 390.4 126.55 394.45 130.7 398.55 135.1 402.4 139.5 406.25 144.2 409.8 148.85 413.35 153.8 416.6 158.75 419.9 163.95 422.9 169.2 425.9 174.7 428.6 180.25 431.3 186.1 433.65 192 436 198.15 438 204.4 440.05 211 441.7 217.55 443.35 224.7 444.5 231.7 445.65 239.35 446.25 244.7 446.65 250.35 446.8 254.05 446.95 258 446.85
L 258 446.8
Q 264.15 446.7 269.95 446.2 277.5 445.5 284.55 444.35 291.6 443.15 298.15 441.55 304.8 439.9 310.95 437.9 317.2 435.85 323 433.4 328.8 431 334.35 428.3 339.85 425.55 345.05 422.55 350.25 419.55 355.2 416.2 360.1 412.9 364.75 409.35 369.4 405.8 373.8 401.95 378.2 398.1 382.3 394 386.4 389.9 390.3 385.55 394.15 381.15 397.75 376.55 401.4 371.95 404.75 367.05 408.1 362.2 411.15 357 414.2 351.85 416.9 346.3 419.6 340.8 422 335 424.45 329.2 426.55 323 428.65 316.95 430.3 310.3 431.95 303.8 433.15 296.8 434.4 289.8 435.1 282.25 435.8 274.75 435.85 266.65 435.95 258.45 435.3 250.75 434.7 243.2 433.55 236.05 432.4 229.05 430.8 222.35 429.25 215.75 427.25 209.55 425.25 203.25 422.9 197.4 420.55 191.55 417.85 186 415.15 180.5 412.15 175.25 409.2 170 405.95 165.05 402.65 160.05 399.1 155.4 395.55 150.75 391.75 146.3 387.9 141.9 383.85 137.75 379.75 133.65 375.4 129.75
M 328.55 140.3
Q 333.2 136.75 337.85 133.2 338.45 132.75 339.05 132.35 341.85 135.9 344.5 139.6
L 344.55 139.6
Q 343.85 147.15 343 154.4 342.1 161.85 341.25 169.15 340.35 176.55 339.45 183.9 339.35 184.65 339.4 185.2 344.05 181.6 348.75 178.05 353.4 174.5 358.05 170.9 361.8 168.05 365.6 165.25 368.4 170.75 371.15 176.2 371.2 176.3 371.25 176.4 366.65 180.05 361.95 183.6 357.3 187.1 352.65 190.7 347.95 194.25 343.3 197.8 338.65 201.4 334 204.95 332.1 206.35 330.25 207.8 327.55 204.3 324.9 200.8
L 324.9 200.75
Q 325.75 193.35 326.6 185.95 327.4 178.6 328.25 171.15 329.05 163.75 329.9 156.45 330 155.6 330.05 154.8 326.15 157.7 322.35 160.7
L 322.35 160.75
Q 321.45 161.25 320.8 161.9 320.75 161.9 320.75 161.95 316 165.4 311.35 168.95 310.55 169.6 309.85 170.3 308.95 170.8 308.3 171.45 308.25 171.45 308.25 171.5 306.85 172.35 305.65 173.4 305.65 173.45 305.6 173.45 303.05 167.75 300.5 162 300.45 161.9 300.55 161.65 305.25 158.15 309.9 154.6 314.6 151.05 319.25 147.45 323.9 143.9 328.55 140.3
M 344.5 262.25
Q 347.55 266.85 350.85 271.35 350.9 271.4 351.1 271.4 351.2 271.4 351.3 271.4 353.1 271.6 355.15 271.5 355.2 271.5 355.25 271.5 356.15 271.5 357.05 271.5 357.1 271.5 357.15 271.5 359.1 271.5 361.1 271.65 361.35 271.65 361.6 271.65
L 361.6 271.7
Q 361.6 271.75 361.55 271.75 358.15 276 354.95 280.45
L 354.95 280.5
Q 356.55 285.85 358.2 291.1 358.15 291.1 358.1 291.1 353.05 289.15 347.9 287.35 347.85 287.35 347.8 287.35 343.35 290.5 338.85 293.65
L 338.85 293.6
Q 339.05 288.1 339.15 282.55 339.1 282.55 339.05 282.5 334.7 279.15 330.4 275.75 335.7 274.35 340.9 272.75
L 340.9 272.7
Q 342.75 267.55 344.45 262.25
L 344.5 262.25
M 329.65 259.85
Q 329.85 261.9 330.05 264 323.6 265.8 317.1 267.55 310.7 269.3 304.2 271.05 297.75 272.8 291.35 274.55 284.8 276.35 278.4 278.1 271.9 279.9 265.5 281.7 264.15 282.1 262.65 282.35 261 276 259.3 269.7 259.25 269.65 259.25 269.6 261.8 263.9 264.5 258.3 267.1 252.75 269.75 247.1 272.35 241.55 275 235.9 277.6 230.3 280.2 224.7 282.85 219.1 285.5 213.45 286.5 211.3 287.4 209 280.95 210.8 274.55 212.6 268.05 214.35 261.6 216.15 255.15 217.9 248.7 219.7 248.05 219.85 247.3 219.95 246.85 212.2 246.45 204.4 246.35 202.6 246.3 200.75 252.8 199 259.25 197.25 265.7 195.45 272.15 193.75 278.7 192 285.05 190.25 291.6 188.45 298 186.65 303.75 185.05 309.45 183.45 311.2 189.95 313.05 196.4 313.1 196.55 313.05 196.9 310.65 202.7 307.95 208.2 305.25 213.75 302.6 219.35 300 224.95 297.35 230.55 294.7 236.15 292.05 241.7 289.4 247.3 286.7 252.9 285.75 254.85 285.1 256.7 291.6 255 298.05 253.25 304.5 251.45 310.95 249.7 317.45 247.9 323.85 246.1 325.85 245.5 328.05 245.05 328.9 252.4 329.65 259.85
M 331.85 321.05
Q 333.85 321.95 335.85 322.9 330.35 325.6 324.8 328.35 323.05 329.2 321.3 330.05 320.4 337.4 319.7 344.85 319.65 345.5 319.5 345.95 315.25 341.95 311 338 309.2 336.35 307.45 334.65 300.55 335.7 293.55 337 292.35 337.25 291.1 337.35 293.75 331.75 296.5 326.35 297.3 324.75 298.15 323.25 295.15 318.05 292.05 312.95 290.9 311.05 289.8 309.1 297 310.15 304.1 311.3 305.15 311.5 306.35 311.6 310.4 307.45 314.45 303.25 315.95 301.7 317.35 300.1 317.75 300.8 317.9 301.75 318.45 305.25 319.15 308.65 319.85 312.25 320.6 315.8 326.1 318.5 331.85 321.05
M 328.2 364.25
Q 326.55 366.25 324.85 368.25 321 372.65 316.75 376.65 312.55 380.6 307.9 384.2 303.25 387.8 298.2 390.95 293.1 394.1 287.65 396.85 282.15 399.6 276.1 401.85 270.15 404.05 263.5 405.7 256.9 407.3 249.6 408.2 242.3 409.1 234 409.05 225.8 409 218.55 408 211.35 407 204.85 405.3 198.25 403.6 192.35 401.35 186.4 399.05 180.9 396.25 175.5 393.45 170.45 390.3 165.4 387.1 160.8 383.5 156.2 379.85 152.05 375.8 147.9 371.75 144.1 367.3 140.25 362.9 136.9 358.05 133.5 353.2 130.6 347.9 127.7 342.6 125.25 336.8 122.8 331 120.95 324.65 119.1 318.25 117.9 311.2 116.75 304.15 116.5 296.15 116.5 296.1 116.5 296.05
L 116.5 292.55
Q 116.5 290.8 116.5 289.05
L 116.5 289
Q 116.5 287.9 116.5 286.8 117.05 279.05 118.3 272.1 119.6 265.15 121.5 258.85 123.45 252.55 125.95 246.85 128.45 241.1 131.45 235.85 134.45 230.65 137.85 225.85 141.25 221.05 145.1 216.65 148.95 212.3 153.2 208.3 157.45 204.3 162.1 200.7 166.75 197.15 171.75 193.9 171.9 193.85 172.15 193.85 170 199.95 168.4 206.6 166.8 213.2 165.85 220.5 164.95 227.65 164.8 235.6 164.75 235.6 164.7 235.6 164.7 237.45 164.75 239.35
L 164.8 239.35
Q 164.8 239.85 164.8 240.35 164.95 248.4 165.95 255.55 166.95 262.85 168.65 269.4 170.3 275.95 172.5 282.05 174.65 288.1 177.25 293.7 179.85 299.3 182.95 304.45 186 309.6 189.5 314.4 192.95 319.15 196.75 323.55 200.55 328 204.75 332.05 208.9 336.1 213.45 339.8 217.95 343.5 222.85 346.8 227.8 350.1 233.15 353 238.45 355.9 244.2 358.35 250 360.8 256.25 362.75 262.55 364.7 269.4 366.1 276.2 367.5 283.8 368.15 291.5 368.8 299.7 368.5 307.65 368.2 314.7 367 321.85 365.8 328.2 364.25
M 231.75 194.45
Q 234.25 194.05 236.95 193.75 234.2 199.25 231.3 204.6 229.4 208.05 227.65 211.7 230.3 217.25 233.05 222.7 234.85 226.25 236.55 229.9 229.8 228.75 222.95 227.25 220.05 226.65 217.1 226.1 213 230.25 208.95 234.45 206.05 237.4 203.1 240.35 202.05 233.2 201.15 225.85 200.8 222.9 200.35 220.05 195.1 217.1 189.7 214.25 186.2 212.4 182.8 210.5 188.3 207.75 193.9 205.1 197.25 203.5 200.55 201.85 201.75 194.8 202.75 187.6 203.2 184.65 203.65 181.7 207.6 186 211.5 190.3 214.45 193.55 217.45 196.7 224.5 195.5 231.75 194.45
M 253.65 262.6
Q 253.65 262.65 253.65 262.7 251.65 268.9 249.6 275.1 247.55 281.25 245.5 287.4 243.4 293.6 241.35 299.8 239.35 305.8 237.4 311.85 243.15 309.4 248.75 306.8 254.4 304.2 260 301.6 265.3 299.1 270.65 296.7 272.5 303.1 274.15 309.65 274.25 310.15 274.35 310.65 268.7 313.25 263.05 315.85 257.4 318.4 251.8 320.95 246.1 323.55 240.5 326.15 234.85 328.75 229.2 331.35 225.75 333 222.25 334.55 220.05 330.1 218 325.45
L 218 325.4
Q 219.95 319.1 222 312.95 224.05 306.75 226.1 300.55 228.15 294.4 230.15 288.15 232.15 281.95 234.25 275.8 234.25 275.7 234.25 275.55 228.6 278.1 222.95 280.75 217.35 283.35 211.7 285.9 207.45 287.85 203.2 289.8 201.7 283.1 200.35 276.15 200.3 275.85 200.35 275.4 206.05 272.85 211.65 270.25 217.3 267.65 222.95 265 228.5 262.4 234.2 259.8 239.85 257.25 245.45 254.65 247.35 253.8 249.35 253.05 251.45 257.9 253.65 262.6 Z"/>
</g>

<g id="Layer4_0_FILL">
<path fill="#FFFFFF" stroke="none" d="
M 340.45 92.15
Q 335.25 89.1 329.85 86.3 324.4 83.5 318.6 81.05 312.85 78.6 306.7 76.55 300.55 74.45 294.1 72.75 287.5 71.05 280.6 69.75 273.65 68.4 266.2 67.65 258.75 66.9 250.65 66.75
L 250.65 66.7
Q 247.7 66.65 244.75 66.65 244.75 66.7 244.75 66.75 239.3 66.85 234 67.25 226.4 67.8 219.3 68.95 212.2 70.05 205.55 71.65 198.95 73.25 192.65 75.25 186.45 77.2 180.55 79.55 174.65 81.85 169.1 84.55 163.5 87.2 158.3 90.2 153.05 93.15 148.05 96.4 143.1 99.7 138.4 103.2 133.7 106.75 129.3 110.55 124.9 114.4 120.7 118.45 116.55 122.5 112.65 126.8 108.7 131.1 105.05 135.7 101.45 140.3 98.1 145.2 94.75 150.05 91.7 155.2 88.6 160.35 85.75 165.8 82.95 171.2 80.5 177 78.05 182.7 75.9 188.9 73.85 194.95 72.1 201.5 70.35 207.95 69.05 214.9 67.75 221.8 67 229.25 66.25 236.75 66 244.7 66 245.3 66 245.9 66 245.95 66 246 65.95 246 65.9 246 65.9 248.45 65.95 250.85
L 66 250.85
Q 66.1 258.95 66.85 266.4 67.55 273.95 68.8 280.85 70.1 287.9 71.8 294.35 73.5 300.95 75.6 307.05 77.7 313.15 80.15 318.95 82.6 324.75 85.35 330.2 88.15 335.7 91.2 340.85 94.25 346 97.6 350.9 100.95 355.75 104.55 360.4 108.2 365 112.05 369.35 115.95 373.7 120.05 377.75 124.2 381.85 128.6 385.7 133 389.55 137.7 393.1 142.35 396.65 147.3 399.9 152.25 403.2 157.45 406.2 162.7 409.2 168.2 411.9 173.75 414.6 179.6 416.95 185.5 419.3 191.65 421.3 197.9 423.35 204.5 425 211.05 426.65 218.2 427.8 225.2 428.95 232.85 429.55 238.2 429.95 243.85 430.1 247.55 430.25 251.5 430.15
L 251.5 430.1
Q 257.65 430 263.45 429.5 271 428.8 278.05 427.65 285.1 426.45 291.65 424.85 298.3 423.2 304.45 421.2 310.7 419.15 316.5 416.7 322.3 414.3 327.85 411.6 333.35 408.85 338.55 405.85 343.75 402.85 348.7 399.5 353.6 396.2 358.25 392.65 362.9 389.1 367.3 385.25 371.7 381.4 375.8 377.3 379.9 373.2 383.8 368.85 387.65 364.45 391.25 359.85 394.9 355.25 398.25 350.35 401.6 345.5 404.65 340.3 407.7 335.15 410.4 329.6 413.1 324.1 415.5 318.3 417.95 312.5 420.05 306.3 422.15 300.25 423.8 293.6 425.45 287.1 426.65 280.1 427.9 273.1 428.6 265.55 429.3 258.05 429.35 249.95 429.45 241.75 428.8 234.05 428.2 226.5 427.05 219.35 425.9 212.35 424.3 205.65 422.75 199.05 420.75 192.85 418.75 186.55 416.4 180.7 414.05 174.85 411.35 169.3 408.65 163.8 405.65 158.55 402.7 153.3 399.45 148.35 396.15 143.35 392.6 138.7 389.05 134.05 385.25 129.6 381.4 125.2 377.35 121.05 373.25 116.95 368.9 113.05 364.55 109.15 359.95 105.5 355.4 101.85 350.5 98.5 345.6 95.2 340.45 92.15
M 338.05 122.9
Q 337.35 130.45 336.5 137.7 335.6 145.15 334.75 152.45 333.85 159.85 332.95 167.2 332.85 167.95 332.9 168.5 337.55 164.9 342.25 161.35 346.9 157.8 351.55 154.2 355.3 151.35 359.1 148.55 361.9 154.05 364.65 159.5 364.7 159.6 364.75 159.7 360.15 163.35 355.45 166.9 350.8 170.4 346.15 174 341.45 177.55 336.8 181.1 332.15 184.7 327.5 188.25 325.6 189.65 323.75 191.1 321.05 187.6 318.4 184.1
L 318.4 184.05
Q 319.25 176.65 320.1 169.25 320.9 161.9 321.75 154.45 322.55 147.05 323.4 139.75 323.5 138.9 323.55 138.1 319.65 141 315.85 144
L 315.85 144.05
Q 314.95 144.55 314.3 145.2 314.25 145.2 314.25 145.25 309.5 148.7 304.85 152.25 304.05 152.9 303.35 153.6 302.45 154.1 301.8 154.75 301.75 154.75 301.75 154.8 300.35 155.65 299.15 156.7 299.15 156.75 299.1 156.75 296.55 151.05 294 145.3 293.95 145.2 294.05 144.95 298.75 141.45 303.4 137.9 308.1 134.35 312.75 130.75 317.4 127.2 322.05 123.6 326.7 120.05 331.35 116.5 331.95 116.05 332.55 115.65 335.35 119.2 338 122.9
L 338.05 122.9
M 337.95 245.55
L 338 245.55
Q 341.05 250.15 344.35 254.65 344.4 254.7 344.6 254.7 344.7 254.7 344.8 254.7 346.6 254.9 348.65 254.8 348.7 254.8 348.75 254.8 349.65 254.8 350.55 254.8 350.6 254.8 350.65 254.8 352.6 254.8 354.6 254.95 354.85 254.95 355.1 254.95
L 355.1 255
Q 355.1 255.05 355.05 255.05 351.65 259.3 348.45 263.75
L 348.45 263.8
Q 350.05 269.15 351.7 274.4 351.65 274.4 351.6 274.4 346.55 272.45 341.4 270.65 341.35 270.65 341.3 270.65 336.85 273.8 332.35 276.95
L 332.35 276.9
Q 332.55 271.4 332.65 265.85 332.6 265.85 332.55 265.8 328.2 262.45 323.9 259.05 329.2 257.65 334.4 256.05
L 334.4 256
Q 336.25 250.85 337.95 245.55
M 325.35 304.35
Q 327.35 305.25 329.35 306.2 323.85 308.9 318.3 311.65 316.55 312.5 314.8 313.35 313.9 320.7 313.2 328.15 313.15 328.8 313 329.25 308.75 325.25 304.5 321.3 302.7 319.65 300.95 317.95 294.05 319 287.05 320.3 285.85 320.55 284.6 320.65 287.25 315.05 290 309.65 290.8 308.05 291.65 306.55 288.65 301.35 285.55 296.25 284.4 294.35 283.3 292.4 290.5 293.45 297.6 294.6 298.65 294.8 299.85 294.9 303.9 290.75 307.95 286.55 309.45 285 310.85 283.4 311.25 284.1 311.4 285.05 311.95 288.55 312.65 291.95 313.35 295.55 314.1 299.1 319.6 301.8 325.35 304.35
M 196.25 170.9
Q 196.7 167.95 197.15 165 201.1 169.3 205 173.6 207.95 176.85 210.95 180 218 178.8 225.25 177.75 227.75 177.35 230.45 177.05 227.7 182.55 224.8 187.9 222.9 191.35 221.15 195 223.8 200.55 226.55 206 228.35 209.55 230.05 213.2 223.3 212.05 216.45 210.55 213.55 209.95 210.6 209.4 206.5 213.55 202.45 217.75 199.55 220.7 196.6 223.65 195.55 216.5 194.65 209.15 194.3 206.2 193.85 203.35 188.6 200.4 183.2 197.55 179.7 195.7 176.3 193.8 181.8 191.05 187.4 188.4 190.75 186.8 194.05 185.15 195.25 178.1 196.25 170.9
M 165.25 177.2
Q 165.4 177.15 165.65 177.15 163.5 183.25 161.9 189.9 160.3 196.5 159.35 203.8 158.45 210.95 158.3 218.9 158.25 218.9 158.2 218.9 158.2 220.75 158.25 222.65
L 158.3 222.65
Q 158.3 223.15 158.3 223.65 158.45 231.7 159.45 238.85 160.45 246.15 162.15 252.7 163.8 259.25 166 265.35 168.15 271.4 170.75 277 173.35 282.6 176.45 287.75 179.5 292.9 183 297.7 186.45 302.45 190.25 306.85 194.05 311.3 198.25 315.35 202.4 319.4 206.95 323.1 211.45 326.8 216.35 330.1 221.3 333.4 226.65 336.3 231.95 339.2 237.7 341.65 243.5 344.1 249.75 346.05 256.05 348 262.9 349.4 269.7 350.8 277.3 351.45 285 352.1 293.2 351.8 301.15 351.5 308.2 350.3 315.35 349.1 321.7 347.55 320.05 349.55 318.35 351.55 314.5 355.95 310.25 359.95 306.05 363.9 301.4 367.5 296.75 371.1 291.7 374.25 286.6 377.4 281.15 380.15 275.65 382.9 269.6 385.15 263.65 387.35 257 389 250.4 390.6 243.1 391.5 235.8 392.4 227.5 392.35 219.3 392.3 212.05 391.3 204.85 390.3 198.35 388.6 191.75 386.9 185.85 384.65 179.9 382.35 174.4 379.55 169 376.75 163.95 373.6 158.9 370.4 154.3 366.8 149.7 363.15 145.55 359.1 141.4 355.05 137.6 350.6 133.75 346.2 130.4 341.35 127 336.5 124.1 331.2 121.2 325.9 118.75 320.1 116.3 314.3 114.45 307.95 112.6 301.55 111.4 294.5 110.25 287.45 110 279.45 110 279.4 110 279.35
L 110 275.85
Q 110 274.1 110 272.35
L 110 272.3
Q 110 271.2 110 270.1 110.55 262.35 111.8 255.4 113.1 248.45 115 242.15 116.95 235.85 119.45 230.15 121.95 224.4 124.95 219.15 127.95 213.95 131.35 209.15 134.75 204.35 138.6 199.95 142.45 195.6 146.7 191.6 150.95 187.6 155.6 184 160.25 180.45 165.25 177.2
M 239.95 187.7
Q 239.85 185.9 239.8 184.05 246.3 182.3 252.75 180.55 259.2 178.75 265.65 177.05 272.2 175.3 278.55 173.55 285.1 171.75 291.5 169.95 297.25 168.35 302.95 166.75 304.7 173.25 306.55 179.7 306.6 179.85 306.55 180.2 304.15 186 301.45 191.5 298.75 197.05 296.1 202.65 293.5 208.25 290.85 213.85 288.2 219.45 285.55 225 282.9 230.6 280.2 236.2 279.25 238.15 278.6 240 285.1 238.3 291.55 236.55 298 234.75 304.45 233 310.95 231.2 317.35 229.4 319.35 228.8 321.55 228.35 322.4 235.7 323.15 243.15 323.35 245.2 323.55 247.3 317.1 249.1 310.6 250.85 304.2 252.6 297.7 254.35 291.25 256.1 284.85 257.85 278.3 259.65 271.9 261.4 265.4 263.2 259 265 257.65 265.4 256.15 265.65 254.5 259.3 252.8 253 252.75 252.95 252.75 252.9 255.3 247.2 258 241.6 260.6 236.05 263.25 230.4 265.85 224.85 268.5 219.2 271.1 213.6 273.7 208 276.35 202.4 279 196.75 280 194.6 280.9 192.3 274.45 194.1 268.05 195.9 261.55 197.65 255.1 199.45 248.65 201.2 242.2 203 241.55 203.15 240.8 203.25 240.35 195.5 239.95 187.7
M 247.15 245.9
Q 247.15 245.95 247.15 246 245.15 252.2 243.1 258.4 241.05 264.55 239 270.7 236.9 276.9 234.85 283.1 232.85 289.1 230.9 295.15 236.65 292.7 242.25 290.1 247.9 287.5 253.5 284.9 258.8 282.4 264.15 280 266 286.4 267.65 292.95 267.75 293.45 267.85 293.95 262.2 296.55 256.55 299.15 250.9 301.7 245.3 304.25 239.6 306.85 234 309.45 228.35 312.05 222.7 314.65 219.25 316.3 215.75 317.85 213.55 313.4 211.5 308.75
L 211.5 308.7
Q 213.45 302.4 215.5 296.25 217.55 290.05 219.6 283.85 221.65 277.7 223.65 271.45 225.65 265.25 227.75 259.1 227.75 259 227.75 258.85 222.1 261.4 216.45 264.05 210.85 266.65 205.2 269.2 200.95 271.15 196.7 273.1 195.2 266.4 193.85 259.45 193.8 259.15 193.85 258.7 199.55 256.15 205.15 253.55 210.8 250.95 216.45 248.3 222 245.7 227.7 243.1 233.35 240.55 238.95 237.95 240.85 237.1 242.85 236.35 244.95 241.2 247.15 245.9 Z"/>
</g>
</defs>

<g transform="matrix( 1, 0, 0, 1, 0,0) ">
<use xlink:href="#Layer18_0_FILL"/>
</g>

<g transform="matrix( 1, 0, 0, 1, 0,0) ">
<use xlink:href="#Layer5_0_FILL"/>
</g>

<g transform="matrix( 1, 0, 0, 1, 0,0) ">
<use xlink:href="#Layer4_0_FILL"/>
</g>
</svg>
